<?xml version="1.0" encoding="utf-8"?>
<!-- Generator: Adobe Illustrator 16.0.0, SVG Export Plug-In . SVG Version: 6.00 Build 0)  -->
<svg version="1.2" baseProfile="tiny" id="Layer_1" xmlns="http://www.w3.org/2000/svg" xmlns:xlink="http://www.w3.org/1999/xlink"
	 x="0px" y="0px" width="388.08px" height="68.033px" viewBox="0.001 3.334 388.08 68.033" overflow="scroll" xml:space="preserve">
<g id="Layer_1_1_">
</g>
<g id="Layer_2">
	<g>
		<g>
			<g>
				<image width="177" height="88" xlink:href="1598BE4F.png"  transform="matrix(2.4284 0 0 0.9465 -17.7334 -4.447)">
				</image>
			</g>
			<image width="174" height="86" xlink:href="1598BE4D.png"  transform="matrix(2.4243 0 0 0.9522 -22.0669 -4.447)">
			</image>
			<g>
				<g>
					<path fill="#450000" d="M2.593,3.334C1.866,5.254,1.287,7.49,0.855,9.867c-0.209,1.198-0.379,2.429-0.499,3.693
						c-0.071,0.626-0.086,1.277-0.133,1.916c-0.053,0.635-0.037,1.285-0.046,1.931c-0.018,0.647-0.007,1.289,0.037,1.93
						c0.042,0.634,0.036,1.291,0.118,1.908c0.123,1.252,0.269,2.49,0.505,3.649c0.177,1.22,0.509,2.252,0.768,3.371
						c0.132,0.556,0.323,1.018,0.481,1.531l0.498,1.506l0.052,0.157l-0.173,0.5c-0.009,0.026-0.087,0.06-0.13,0.169
						c-0.051,0.096-0.106,0.172-0.147,0.321c-0.097,0.245-0.178,0.535-0.242,0.875c-0.078,0.303-0.135,0.646-0.182,1.007
						c-0.047,0.357-0.111,0.69-0.144,1.062c-0.062,0.751-0.152,1.47-0.188,2.23l-0.117,2.28V39.84l0.421,29.354l-0.351-0.839
						l39.329-0.232l39.329,0.153l39.33,0.58l267.535,1.034l-0.291,0.526c0.404-3.483,0.638-7.229,0.496-10.83
						c-0.026-0.912-0.116-1.782-0.2-2.654c-0.121-0.841-0.25-1.675-0.451-2.407c-0.076-0.409-0.22-0.688-0.332-1.029
						c-0.109-0.354-0.246-0.631-0.4-0.866c-0.148-0.241-0.279-0.558-0.457-0.683l-0.502-0.514l-0.51-0.522l0.508-0.347l2.01-1.381
						l-0.111,0.309c0.346-5.015,0.658-10.048,0.924-15.097c0.142-2.522,0.25-5.053,0.347-7.586c0.06-1.266,0.063-2.539,0.096-3.809
						c0.058-1.274-0.036-2.532-0.057-3.807c0.032,1.266,0.141,2.536,0.096,3.809c-0.021,1.273-0.01,2.549-0.055,3.82
						c-0.072,2.544-0.152,5.083-0.269,7.615c-0.215,5.072-0.473,10.126-0.768,15.174l-0.014,0.238l-0.101,0.074l-1.993,1.506
						l-0.005-0.868l0.568,0.531c0.196,0.14,0.354,0.476,0.524,0.744c0.178,0.262,0.338,0.567,0.467,0.959
						c0.136,0.376,0.298,0.705,0.39,1.147c0.235,0.823,0.392,1.732,0.53,2.655c0.104,0.937,0.209,1.884,0.248,2.845
						c0.188,3.854-0.012,7.666-0.399,11.396l-0.055,0.522l-0.236,0.005l-267.107-0.945l-40-0.164L39.13,69.768L1.38,70.073
						l-0.347-0.01L1.03,69.232L0.894,39.865v-0.047v-0.021l0.146-2.335c0.045-0.781,0.148-1.547,0.221-2.321
						c0.037-0.383,0.112-0.756,0.167-1.135c0.053-0.381,0.119-0.751,0.214-1.104c0.076-0.366,0.176-0.713,0.305-1.028
						c0.052-0.171,0.134-0.299,0.212-0.427c0.08-0.142,0.161-0.233,0.306-0.278l-0.12,0.659l-0.497-1.58
						c-0.157-0.538-0.347-1.018-0.478-1.604C1.112,27.48,0.787,26.4,0.615,25.129c-0.229-1.208-0.366-2.489-0.48-3.787
						c-0.077-0.638-0.065-1.314-0.102-1.968c-0.037-0.657-0.041-1.316-0.019-1.978c0.018-0.659,0.01-1.322,0.071-1.97
						c0.053-0.645,0.074-1.308,0.153-1.937c0.135-1.277,0.32-2.51,0.542-3.708C1.242,7.417,1.848,5.208,2.593,3.334z"/>
				</g>
			</g>
		</g>
	</g>
</g>
</svg>
