<?xml version="1.0" encoding="utf-8"?>
<!-- Generator: Adobe Illustrator 16.0.0, SVG Export Plug-In . SVG Version: 6.00 Build 0)  -->
<!DOCTYPE svg PUBLIC "-//W3C//DTD SVG 1.1//EN" "http://www.w3.org/Graphics/SVG/1.1/DTD/svg11.dtd">
<svg version="1.1" xmlns="http://www.w3.org/2000/svg" xmlns:xlink="http://www.w3.org/1999/xlink" x="0px" y="0px" width="1200px"
	 height="194.419px" viewBox="0 0 1200 194.419" enable-background="new 0 0 1200 194.419" xml:space="preserve">
<g id="_x31_200X800">
	<g>
		<g>
			<rect y="-605.581" display="none" fill="#75D1F5" width="1200" height="800"/>
			<g>
				<defs>
					<rect id="SVGID_1_" y="-605.581" width="1200" height="800"/>
				</defs>
				<clipPath id="SVGID_2_">
					<use xlink:href="#SVGID_1_"  overflow="visible"/>
				</clipPath>
				<path clip-path="url(#SVGID_2_)" fill="#E6E7E8" d="M1061.15,109.025c-0.526,0-1.047,0.024-1.569,0.04
					c1.021-4.092,1.57-8.369,1.57-12.776c0-29.062-23.56-52.621-52.622-52.621c-4.481,0-8.83,0.563-12.983,1.618
					c-5.733-16.371-21.31-28.117-39.638-28.117c-17.751,0-32.918,11.019-39.065,26.585c-0.971-0.054-1.947-0.086-2.932-0.086
					c-21.92,0-40.703,13.407-48.614,32.465c-9.32-6.332-20.571-10.034-32.688-10.034c-16.462,0-31.317,6.84-41.91,17.819
					c-2.019-0.306-4.086-0.466-6.189-0.466c-9.04,0-17.391,2.939-24.161,7.906c-5.129-2.223-10.784-3.462-16.731-3.462
					c-20.288,0-37.222,14.346-41.222,33.445c-9.464,2.069-17.804,7.115-23.999,14.105c-7.543-3.477-15.934-5.43-24.785-5.43
					c-2.021,0-4.018,0.103-5.986,0.301c-12.76-17.656-33.511-29.156-56.959-29.156c-11.265,0-21.901,2.666-31.337,7.379
					c-6.245-15.359-21.309-26.192-38.91-26.192c-10.981,0-20.974,4.219-28.457,11.119c-6.105-3.461-13.156-5.446-20.674-5.446
					c-7.565,0-14.656,2.011-20.787,5.511c-8.928-16.345-26.273-27.434-46.209-27.434c-8.312,0-16.168,1.934-23.157,5.365
					c0.062-1.104,0.101-2.213,0.101-3.331c0-32.169-26.078-58.246-58.246-58.246c-16.462,0-31.318,6.84-41.911,17.819
					c-2.018-0.306-4.084-0.466-6.188-0.466c-12.508,0-23.697,5.622-31.198,14.469c-6.199-3.59-13.392-5.654-21.07-5.654
					c-23.263,0-42.122,18.858-42.122,42.121c0,2.001,0.149,3.967,0.419,5.895c-25.369,6.294-44.177,29.208-44.177,56.524
					c0,28.88,21.022,52.836,48.596,57.436v104.122h836.208V196.273c9.646,11.022,23.808,17.994,39.604,17.994
					c29.063,0,52.623-23.559,52.623-52.621C1113.773,132.585,1090.213,109.025,1061.15,109.025z"/>
				<g display="none" clip-path="url(#SVGID_2_)">
					<path display="inline" fill="none" d="M299.599,121.448l10.661,1.739c0.148-1.163,0.327-2.315,0.55-3.454
						C307.255,120.81,303.493,121.404,299.599,121.448z"/>
					<path display="inline" fill="#F1F2F2" d="M514.903,156.579l49.614,8.096c9.695-12.762,24.436-21.48,41.254-23.166
						c-12.759-17.656-33.51-29.156-56.959-29.156c-11.265,0-21.901,2.666-31.337,7.379c1.984,4.88,3.086,10.212,3.086,15.804
						C520.562,143.206,518.495,150.39,514.903,156.579z"/>
					<path display="inline" fill="#F1F2F2" d="M553.613,212.175h-68.52c11.166,24.015,35.491,40.673,63.719,40.673
						c9.505,0,18.564-1.897,26.833-5.318C564.49,238.948,556.471,226.496,553.613,212.175z"/>
					<path display="inline" fill="#F1F2F2" d="M625.601,170.849c1.143-9.225,5.075-17.589,10.943-24.211
						c-7.544-3.477-15.934-5.43-24.785-5.43c-2.021,0-4.018,0.103-5.987,0.301c6.383,8.831,10.775,19.194,12.486,30.445
						L625.601,170.849z"/>
					<path display="inline" fill="#F1F2F2" d="M612.531,212.175c-7.405,15.929-20.598,28.615-36.886,35.354
						c10.002,7.693,22.52,12.278,36.114,12.278c25.446,0,47.141-16.03,55.556-38.541c-9.12-0.575-17.506-3.87-24.353-9.092H612.531z
						"/>
					<path display="inline" fill="#F1F2F2" d="M612.531,212.175h-58.918c2.857,14.321,10.876,26.773,22.032,35.354
						C591.934,240.79,605.126,228.104,612.531,212.175z"/>
					<path display="inline" fill="#F1F2F2" d="M564.518,164.675l48.996,7.994l4.744-0.715c-1.711-11.251-6.104-21.614-12.486-30.445
						C588.953,143.194,574.213,151.913,564.518,164.675z"/>
					<path display="inline" fill="#F1F2F2" d="M273.771,82.822c14.858,5.92,25.364,20.425,25.364,37.394
						c0,0.387-0.019,0.769-0.029,1.152l0.493,0.08c3.895-0.044,7.657-0.639,11.211-1.715c3.206-16.354,13.983-29.992,28.537-37.113
						c0.016-0.468,0.036-0.936,0.036-1.407c0-22.229-18.02-40.247-40.248-40.247c-13.04,0-24.625,6.206-31.979,15.82
						c4.277,6.463,6.774,14.207,6.774,22.537C273.93,80.503,273.868,81.668,273.771,82.822z"/>
					<path display="inline" fill="#F1F2F2" d="M129.268,93.656l9.797,1.599c-0.27-1.926-0.418-3.89-0.418-5.889
						c0-23.263,18.858-42.121,42.122-42.121c7.679,0,14.871,2.064,21.07,5.654c1.555-1.834,3.264-3.534,5.115-5.069
						c-13.326-22.159-37.598-36.988-65.338-36.988c-20.564,0-39.211,8.161-52.918,21.402
						C115.297,40.542,132.034,66.464,129.268,93.656z"/>
					<path display="inline" fill="#F1F2F2" d="M192.144,79.323c0-10.077,3.652-19.296,9.694-26.424
						c-6.199-3.59-13.392-5.654-21.07-5.654c-23.263,0-42.122,18.858-42.122,42.121c0,1.999,0.149,3.963,0.418,5.889l62.522,10.201
						C195.692,98.369,192.144,89.262,192.144,79.323z"/>
					<path display="inline" fill="#F1F2F2" d="M265.81,103.784c-3.068,4.104-6.892,7.605-11.26,10.313l31.3,5.107
						C277.625,116.329,270.617,110.867,265.81,103.784z"/>
					<path display="inline" fill="#F1F2F2" d="M285.85,119.205l13.256,2.163c0.011-0.384,0.029-0.766,0.029-1.152
						c0-16.969-10.506-31.474-25.364-37.394c-0.664,7.821-3.517,15.018-7.96,20.962C270.617,110.867,277.625,116.329,285.85,119.205
						z"/>
					<path display="inline" fill="#F1F2F2" d="M310.81,119.733c-0.223,1.139-0.402,2.291-0.55,3.454l77.532,12.651
						c1.705-13.346,9.666-24.727,20.857-31.116c-8.928-16.345-26.273-27.434-46.209-27.434c-8.285,0-16.12,1.921-23.092,5.331
						C338.742,100.168,326.914,114.859,310.81,119.733z"/>
					<path display="inline" fill="#F1F2F2" d="M310.81,119.733c16.104-4.874,27.933-19.565,28.537-37.113
						C324.793,89.741,314.016,103.379,310.81,119.733z"/>
					<path display="inline" fill="#F1F2F2" d="M222.89,89.366c0,6.774-1.608,13.169-4.45,18.84l1.933,0.315
						c5.01-16.523,20.355-28.553,38.515-28.553c0.011,0,0.021,0.001,0.031,0.001c0.265-8.707,3.289-16.717,8.236-23.184
						c-7.319-11.059-19.864-18.355-34.119-18.355c-9.915,0-19.004,3.53-26.083,9.399c2.977,4.95,5.4,10.269,7.201,15.867
						C219.627,70.805,222.89,79.702,222.89,89.366z"/>
					<path display="inline" fill="#F1F2F2" d="M214.969,107.64l3.471,0.566c2.841-5.671,4.45-12.065,4.45-18.84
						c0-9.664-3.263-18.562-8.735-25.669c2.365,7.357,3.656,15.196,3.656,23.34C217.811,94.18,216.807,101.084,214.969,107.64z"/>
					<path display="inline" fill="#F1F2F2" d="M273.771,82.822c0.098-1.154,0.159-2.319,0.159-3.499
						c0-8.33-2.497-16.074-6.774-22.537c-4.947,6.467-7.971,14.477-8.236,23.184C264.167,79.974,269.174,80.992,273.771,82.822z"/>
					<path display="inline" fill="#F1F2F2" d="M201.838,52.899c4.779,2.768,8.963,6.443,12.316,10.798
						c-1.8-5.599-4.224-10.917-7.201-15.867C205.102,49.365,203.394,51.065,201.838,52.899z"/>
					<path display="inline" fill="#F1F2F2" d="M201.587,105.456l13.382,2.184c1.838-6.556,2.842-13.46,2.842-20.603
						c0-8.144-1.291-15.982-3.656-23.34c-3.353-4.354-7.537-8.03-12.316-10.798c-6.042,7.128-9.694,16.347-9.694,26.424
						C192.144,89.262,195.692,98.369,201.587,105.456z"/>
					<path display="inline" fill="#F1F2F2" d="M265.81,103.784c-4.369-6.438-6.922-14.206-6.922-22.571
						c0-0.417,0.019-0.829,0.031-1.243c-0.01,0-0.021-0.001-0.031-0.001c-18.16,0-33.505,12.029-38.515,28.553l34.177,5.576
						C258.918,111.39,262.742,107.888,265.81,103.784z"/>
					<path display="inline" fill="#F1F2F2" d="M265.81,103.784c4.444-5.944,7.297-13.141,7.96-20.962
						c-4.596-1.83-9.604-2.849-14.852-2.853c-0.012,0.414-0.031,0.826-0.031,1.243C258.888,89.578,261.441,97.347,265.81,103.784z"
						/>
					<path display="inline" fill="#F1F2F2" d="M-37.112,46.167c1.492-5.772,3.874-11.075,6.942-15.822
						C-48.213,31.105-64.407,43.5-69.162,61.891c-2.078,8.036-1.679,16.127,0.702,23.479l35.932-0.323
						C-38.639,73.53-40.633,59.785-37.112,46.167z"/>
					<path display="inline" fill="#F1F2F2" d="M65.869,78.806c-0.697,1.854-1.493,3.645-2.371,5.379l1.995-0.018
						C65.559,82.364,65.679,80.575,65.869,78.806z"/>
					<path display="inline" fill="#F1F2F2" d="M69.236,63.224c3.91-11.89,10.663-22.481,19.461-30.979
						c-0.926-0.289-1.863-0.559-2.812-0.804c-8.478-2.191-16.999-2.386-25.079-0.899C66.905,40.069,70.014,51.475,69.236,63.224z"/>
					<path display="inline" fill="#F1F2F2" d="M69.236,63.224c-0.22,3.326-0.738,6.678-1.603,10.023
						c-0.493,1.905-1.086,3.758-1.764,5.559c-0.19,1.77-0.31,3.559-0.376,5.361l5.328-0.048l58.448,9.537
						c2.766-27.192-13.971-53.114-40.571-61.412C79.898,40.742,73.146,51.334,69.236,63.224z"/>
					<path display="inline" fill="#F1F2F2" d="M-17.838,31.652c22.522,5.823,36.06,28.802,30.237,51.324
						c-0.146,0.564-0.311,1.118-0.478,1.672l1.22-0.012c0.211-3.774,0.789-7.584,1.771-11.384
						c5.86-22.667,24.29-38.738,45.893-42.712C53.704,19.443,42.563,10.893,28.8,7.334C5.648,1.349-17.867,11.303-30.17,30.345
						C-26.117,30.174-21.97,30.584-17.838,31.652z"/>
					<path display="inline" fill="#F1F2F2" d="M-32.528,85.047l44.45-0.398c0.167-0.554,0.332-1.107,0.478-1.672
						c5.823-22.522-7.715-45.501-30.237-51.324c-4.132-1.068-8.279-1.479-12.333-1.308c-3.068,4.747-5.45,10.05-6.942,15.822
						C-40.633,59.785-38.639,73.53-32.528,85.047z"/>
					<path display="inline" fill="#F1F2F2" d="M14.913,73.253c-0.982,3.8-1.56,7.609-1.771,11.384l50.356-0.452
						c0.878-1.734,1.674-3.525,2.371-5.379c0.579-5.384,1.727-10.594,3.367-15.582c0.778-11.749-2.331-23.154-8.43-32.683
						C39.203,34.515,20.773,50.586,14.913,73.253z"/>
					<path display="inline" fill="#F1F2F2" d="M69.236,63.224c-1.64,4.988-2.789,10.198-3.367,15.582
						c0.678-1.801,1.271-3.653,1.764-5.559C68.498,69.901,69.016,66.55,69.236,63.224z"/>
					<path display="inline" fill="#F1F2F2" d="M471.431,141.208c0,2.788-0.278,5.511-0.797,8.147l15.031,2.453
						c6.78-13.878,18.001-25.18,31.811-32.077c-6.245-15.358-21.309-26.192-38.911-26.192c-10.981,0-20.974,4.219-28.457,11.119
						C462.836,111.873,471.431,125.533,471.431,141.208z"/>
					<path display="inline" fill="#F1F2F2" d="M485.665,151.809l29.238,4.771c3.592-6.189,5.658-13.373,5.658-21.044
						c0-5.592-1.102-10.924-3.086-15.804C503.666,126.629,492.445,137.931,485.665,151.809z"/>
					<path display="inline" fill="#F1F2F2" d="M414.061,140.125l23.35,3.81c-0.551-2.714-0.842-5.522-0.842-8.399
						c0-12.213,5.217-23.203,13.54-30.877c-6.104-3.461-13.155-5.446-20.674-5.446c-7.565,0-14.656,2.011-20.787,5.511
						c4.086,7.481,6.412,16.063,6.412,25.188C415.06,133.406,414.71,136.819,414.061,140.125z"/>
					<path display="inline" fill="#F1F2F2" d="M387.791,135.839l26.27,4.286c0.65-3.306,0.999-6.719,0.999-10.214
						c0-9.126-2.325-17.707-6.412-25.188C397.457,111.112,389.496,122.493,387.791,135.839z"/>
					<path display="inline" fill="#F1F2F2" d="M436.568,135.535c0,2.877,0.291,5.686,0.842,8.399l33.224,5.421
						c0.519-2.637,0.797-5.359,0.797-8.147c0-15.675-8.595-29.335-21.322-36.55C441.786,112.332,436.568,123.322,436.568,135.535z"
						/>
					<path display="inline" fill="#F1F2F2" d="M864.058,89.441C877,75.82,894.386,66.476,913.902,63.734
						c1.009-2.444,2.248-4.769,3.69-6.948c-7.354-9.614-18.94-15.82-31.979-15.82c-19.922,0-36.451,14.477-39.67,33.481
						C853.058,78.031,859.246,83.177,864.058,89.441z"/>
					<path display="inline" fill="#F1F2F2" d="M982.91,52.899c6.199-3.59,13.392-5.654,21.07-5.654
						c23.263,0,42.121,18.858,42.121,42.121c0,6.771-1.607,13.165-4.447,18.834l16.37-2.465c-0.352-1.093-0.683-2.197-0.974-3.323
						c-7.807-30.195,9.553-60.981,39-70.168c-13.707-13.241-32.354-21.402-52.918-21.402c-27.74,0-52.013,14.829-65.338,36.988
						C979.646,49.365,981.354,51.065,982.91,52.899z"/>
					<path display="inline" fill="#F1F2F2" d="M990.425,92.491c5.503,6.378,10.077,13.573,13.512,21.389l37.718-5.68
						c2.84-5.669,4.447-12.063,4.447-18.834c0-23.263-18.858-42.121-42.121-42.121c-7.679,0-14.871,2.064-21.07,5.654
						c6.043,7.128,9.694,16.347,9.694,26.424C992.604,83.933,991.831,88.358,990.425,92.491z"/>
					<path display="inline" fill="#F1F2F2" d="M797.311,141.208c0,1.286-0.067,2.556-0.18,3.813l44.037-6.631
						c1.406-12.335,5.434-23.871,11.528-34.032c-4.612-6.548-7.33-14.526-7.33-23.145c0-2.307,0.205-4.564,0.577-6.766
						c-7.107-3.581-15.132-5.609-23.634-5.609c-22.606,0-41.879,14.259-49.327,34.272
						C787.346,109.783,797.311,124.328,797.311,141.208z"/>
					<path display="inline" fill="#F1F2F2" d="M852.696,104.357c3.233-5.392,7.056-10.385,11.361-14.916
						c-4.812-6.265-11-11.41-18.114-14.994c-0.372,2.201-0.577,4.459-0.577,6.766C845.366,89.831,848.084,97.81,852.696,104.357z"/>
					<path display="inline" fill="#F1F2F2" d="M966.017,117.638c0.041,0.643,0.064,1.29,0.075,1.94l7.443-1.12
						c-0.923-0.967-1.801-1.976-2.629-3.025C969.334,116.27,967.702,117.008,966.017,117.638z"/>
					<path display="inline" fill="#F1F2F2" d="M885.613,121.46c-3.714,0-7.306-0.514-10.72-1.455
						c0.014,0.485,0.037,0.967,0.037,1.455c0,4.15-0.495,8.184-1.404,12.057l13.689-2.062c-0.926-3.187-1.466-6.536-1.571-9.996
						C885.634,121.459,885.624,121.46,885.613,121.46z"/>
					<path display="inline" fill="#F1F2F2" d="M925.86,233.412c21.572,0,41.259-8.027,56.275-21.237H869.584
						C884.602,225.385,904.288,233.412,925.86,233.412z"/>
					<path display="inline" fill="#F1F2F2" d="M972.152,114.734c-0.412,0.238-0.825,0.474-1.246,0.698
						c0.828,1.05,1.706,2.059,2.629,3.025l0.175-0.026C973.159,117.216,972.64,115.983,972.152,114.734z"/>
					<path display="inline" fill="#F1F2F2" d="M885.613,121.46c0.011,0,0.021-0.001,0.031-0.001
						c-0.013-0.414-0.031-0.826-0.031-1.243c0-16.969,10.507-31.474,25.364-37.393c-0.098-1.155-0.159-2.32-0.159-3.5
						c0-5.521,1.101-10.783,3.084-15.589C894.386,66.476,877,75.82,864.058,89.441c6.538,8.512,10.523,19.077,10.836,30.563
						C878.308,120.946,881.899,121.46,885.613,121.46z"/>
					<path display="inline" fill="#F1F2F2" d="M972.152,114.734c0.487,1.249,1.007,2.481,1.558,3.697l30.227-4.552
						c-3.435-7.815-8.009-15.011-13.512-21.389C987.214,101.933,980.652,109.817,972.152,114.734z"/>
					<path display="inline" fill="#F1F2F2" d="M951.711,120.216c-13.412,0-25.315-6.457-32.772-16.432
						c-7.233,10.658-19.444,17.664-33.294,17.675c0.105,3.46,0.646,6.81,1.571,9.996l78.876-11.877
						c-0.011-0.65-0.034-1.298-0.075-1.94C961.563,119.302,956.744,120.216,951.711,120.216z"/>
					<path display="inline" fill="#F1F2F2" d="M885.613,120.216c0,0.417,0.019,0.829,0.031,1.243
						c13.85-0.011,26.061-7.017,33.294-17.675c-4.444-5.944-7.298-13.141-7.961-20.961
						C896.12,88.742,885.613,103.247,885.613,120.216z"/>
					<path display="inline" fill="#F1F2F2" d="M874.894,120.005c-9.099-2.509-16.9-8.129-22.197-15.647
						c-6.095,10.161-10.122,21.697-11.528,34.032l32.358-4.873c0.909-3.873,1.404-7.906,1.404-12.057
						C874.931,120.972,874.907,120.49,874.894,120.005z"/>
					<path display="inline" fill="#F1F2F2" d="M874.894,120.005c-0.313-11.486-4.298-22.052-10.836-30.563
						c-4.306,4.531-8.128,9.524-11.361,14.916C857.993,111.876,865.795,117.496,874.894,120.005z"/>
					<path display="inline" fill="#F1F2F2" d="M925.86,62.883c14.252,0,27.677,3.516,39.484,9.698
						c1.387-3.187,3.156-6.166,5.249-8.884c1.801-5.599,4.224-10.917,7.201-15.867c-7.08-5.869-16.169-9.399-26.084-9.399
						c-14.254,0-26.799,7.297-34.118,18.355c1.482,1.938,2.789,4.015,3.904,6.207C922.942,62.92,924.396,62.883,925.86,62.883z"/>
					<path display="inline" fill="#F1F2F2" d="M970.594,63.697c-2.093,2.718-3.862,5.697-5.249,8.884
						c0.915,0.479,1.819,0.977,2.715,1.488C968.668,70.522,969.514,67.058,970.594,63.697z"/>
					<path display="inline" fill="#F1F2F2" d="M921.497,62.993c-1.115-2.192-2.422-4.27-3.904-6.207
						c-1.442,2.18-2.682,4.504-3.69,6.948C916.402,63.384,918.932,63.122,921.497,62.993z"/>
					<path display="inline" fill="#F1F2F2" d="M982.91,52.899c-1.556-1.834-3.264-3.534-5.115-5.069
						c-2.978,4.95-5.4,10.269-7.201,15.867C973.946,59.343,978.131,55.667,982.91,52.899z"/>
					<path display="inline" fill="#F1F2F2" d="M990.425,92.491c1.406-4.133,2.18-8.559,2.18-13.168
						c0-10.077-3.651-19.296-9.694-26.424c-4.779,2.768-8.964,6.443-12.316,10.798c-1.08,3.36-1.926,6.825-2.534,10.372
						C976.533,78.906,984.092,85.151,990.425,92.491z"/>
					<path display="inline" fill="#F1F2F2" d="M925.86,79.969c21.36,0,38.825,16.645,40.156,37.669
						c1.686-0.63,3.317-1.368,4.89-2.205c-5.66-7.172-9.048-16.221-9.048-26.066c0-5.968,1.248-11.642,3.486-16.785
						c-11.808-6.183-25.232-9.698-39.484-9.698c-1.464,0-2.918,0.037-4.363,0.11c2.606,5.124,4.146,10.878,4.332,16.977
						C925.84,79.97,925.85,79.969,925.86,79.969z"/>
					<path display="inline" fill="#F1F2F2" d="M970.906,115.433c0.421-0.225,0.834-0.46,1.246-0.698
						c-3.354-8.587-5.215-17.922-5.215-27.697c0-4.423,0.398-8.751,1.122-12.968c-0.896-0.512-1.8-1.009-2.715-1.488
						c-2.238,5.144-3.486,10.817-3.486,16.785C961.858,99.212,965.246,108.261,970.906,115.433z"/>
					<path display="inline" fill="#F1F2F2" d="M910.978,82.823c4.596-1.831,9.604-2.85,14.852-2.854
						c-0.186-6.099-1.726-11.853-4.332-16.977c-2.565,0.129-5.095,0.391-7.595,0.741c-1.983,4.806-3.084,10.067-3.084,15.589
						C910.818,80.503,910.88,81.668,910.978,82.823z"/>
					<path display="inline" fill="#F1F2F2" d="M990.425,92.491c-6.333-7.34-13.892-13.585-22.365-18.422
						c-0.724,4.217-1.122,8.545-1.122,12.968c0,9.775,1.86,19.11,5.215,27.697C980.652,109.817,987.214,101.933,990.425,92.491z"/>
					<path display="inline" fill="#F1F2F2" d="M925.86,79.969c-0.011,0-0.021,0.001-0.031,0.001
						c0.013,0.414,0.031,0.826,0.031,1.243c0,8.365-2.554,16.134-6.922,22.571c7.457,9.975,19.36,16.432,32.772,16.432
						c5.033,0,9.853-0.914,14.306-2.578C964.686,96.613,947.221,79.969,925.86,79.969z"/>
					<path display="inline" fill="#F1F2F2" d="M925.829,79.97c-5.248,0.004-10.256,1.022-14.852,2.854
						c0.663,7.82,3.517,15.017,7.961,20.961c4.368-6.438,6.922-14.206,6.922-22.571C925.86,80.796,925.842,80.384,925.829,79.97z"/>
					<path display="inline" fill="#F1F2F2" d="M1212.24,92.83l31.661,3.288v5.068c9.49-10.176,13.749-24.826,10.009-39.296
						c-4.755-18.391-20.948-30.785-38.991-31.546c3.067,4.747,5.449,10.05,6.941,15.822
						C1226.216,63.016,1222.124,80.055,1212.24,92.83z"/>
					<path display="inline" fill="#F1F2F2" d="M1115.512,63.225c-0.778-11.749,2.331-23.155,8.431-32.684
						c-8.08-1.486-16.602-1.292-25.079,0.899c-0.949,0.245-1.887,0.515-2.813,0.804C1104.85,40.743,1111.603,51.335,1115.512,63.225
						z"/>
					<path display="inline" fill="#F1F2F2" d="M1118.879,78.805c0.29,2.705,0.449,5.45,0.449,8.232c0,3.24-0.226,6.427-0.618,9.561
						l9.877-1.487C1124.496,90.391,1121.174,84.909,1118.879,78.805z"/>
					<path display="inline" fill="#F1F2F2" d="M1057.051,102.412c0.291,1.126,0.622,2.23,0.974,3.323l60.686-9.138
						c0.393-3.134,0.618-6.32,0.618-9.561c0-2.782-0.159-5.527-0.449-8.232c-0.678-1.802-1.271-3.652-1.764-5.558
						c-0.865-3.345-1.383-6.696-1.604-10.022c-3.909-11.89-10.662-22.481-19.461-30.98
						C1066.604,41.431,1049.244,72.217,1057.051,102.412z"/>
					<path display="inline" fill="#F1F2F2" d="M1169.835,73.253c1.329,5.143,1.915,10.301,1.849,15.368l0.011-0.002l2.662,0.276
						c-0.802-1.894-1.478-3.868-2.008-5.919c-5.823-22.522,7.715-45.501,30.237-51.324c4.132-1.068,8.279-1.479,12.333-1.308
						c-12.304-19.042-35.819-28.996-58.972-23.011c-13.762,3.559-24.902,12.109-32.005,23.207
						C1145.545,34.515,1163.975,50.586,1169.835,73.253z"/>
					<path display="inline" fill="#F1F2F2" d="M1202.586,31.652c-22.522,5.823-36.061,28.802-30.237,51.324
						c0.53,2.051,1.206,4.025,2.008,5.919l37.884,3.935c9.884-12.775,13.976-29.814,9.62-46.663
						c-1.492-5.772-3.874-11.075-6.941-15.822C1210.865,30.174,1206.718,30.584,1202.586,31.652z"/>
					<path display="inline" fill="#F1F2F2" d="M1115.512,63.225c1.641,4.988,2.788,10.197,3.367,15.58
						c2.295,6.104,5.617,11.586,9.708,16.306l43.097-6.489c0.066-5.067-0.52-10.226-1.849-15.368
						c-5.86-22.667-24.29-38.738-45.893-42.712C1117.843,40.069,1114.733,51.476,1115.512,63.225z"/>
					<path display="inline" fill="#F1F2F2" d="M1117.115,73.247c0.492,1.905,1.086,3.756,1.764,5.558
						c-0.579-5.383-1.727-10.592-3.367-15.58C1115.732,66.551,1116.25,69.902,1117.115,73.247z"/>
					<path display="inline" fill="#F1F2F2" d="M711.157,157.966l5.308-0.799c-2.024-4.922-3.147-10.308-3.147-15.959
						c0-15.675,8.595-29.335,21.322-36.55c-7.483-6.9-17.476-11.119-28.456-11.119c-21.961,0-39.974,16.858-41.828,38.338
						c1.82-0.236,3.672-0.377,5.556-0.389C688.246,131.377,704.071,142.267,711.157,157.966z"/>
					<path display="inline" fill="#F1F2F2" d="M748.18,135.535c0,6.219-1.362,12.116-3.788,17.427l32.523-4.897
						c-4.586-7.808-7.227-16.896-7.227-26.604c0-6.455,1.168-12.636,3.294-18.35c-5.372-2.496-11.355-3.898-17.669-3.898
						c-7.519,0-14.569,1.985-20.674,5.446C742.962,112.332,748.18,123.322,748.18,135.535z"/>
					<path display="inline" fill="#F1F2F2" d="M776.915,148.064l20.216-3.044c0.112-1.257,0.18-2.526,0.18-3.813
						c0-16.88-9.965-31.425-24.328-38.098c-2.126,5.714-3.294,11.895-3.294,18.35C769.688,131.169,772.329,140.257,776.915,148.064z
						"/>
					<path display="inline" fill="#F1F2F2" d="M713.317,141.208c0,5.651,1.123,11.037,3.147,15.959l27.927-4.205
						c2.426-5.311,3.788-11.208,3.788-17.427c0-12.213-5.218-23.203-13.54-30.877C721.912,111.873,713.317,125.533,713.317,141.208z
						"/>
					<path display="inline" fill="#F1F2F2" d="M667.314,221.267c1.04,0.065,2.086,0.109,3.144,0.103
						c10.142-0.062,19.477-3.481,26.962-9.194h-27.516C669.28,215.302,668.409,218.338,667.314,221.267z"/>
					<path display="inline" fill="#F1F2F2" d="M659.76,165.705l15.048-2.266c-6.604-7.42-10.621-17.19-10.621-27.904
						c0-1.233,0.064-2.452,0.169-3.658c-11.031,1.43-20.798,6.846-27.812,14.761C645.827,150.917,653.813,157.519,659.76,165.705z"
						/>
					<path display="inline" fill="#F1F2F2" d="M642.962,212.175c6.847,5.222,15.232,8.517,24.353,9.092
						c1.095-2.929,1.966-5.965,2.59-9.092H642.962z"/>
					<path display="inline" fill="#F1F2F2" d="M659.76,165.705c-5.946-8.187-13.933-14.788-23.216-19.067
						c-5.868,6.622-9.801,14.986-10.943,24.211L659.76,165.705z"/>
					<path display="inline" fill="#F1F2F2" d="M674.808,163.439l36.35-5.474c-7.086-15.699-22.911-26.589-41.246-26.478
						c-1.884,0.012-3.735,0.152-5.556,0.389c-0.104,1.206-0.169,2.425-0.169,3.658C664.187,146.249,668.204,156.02,674.808,163.439z
						"/>
					<path display="inline" fill="#F1F2F2" d="M478.767,177.527c-0.068,0-0.134,0.005-0.202,0.005
						c-7.519,0-14.569-1.985-20.674-5.446c-7.483,6.9-17.475,11.119-28.456,11.119c-12.605,0-23.905-5.561-31.603-14.354
						c-9.346,8.5-21.765,13.682-35.394,13.682c-29.062,0-52.622-23.56-52.622-52.621c0-2.279,0.161-4.521,0.442-6.724l-10.661-1.739
						c-0.155,0.002-0.309,0.012-0.464,0.012c-0.011,0-0.021-0.001-0.031-0.001c-0.659,21.651-18.405,39.004-40.216,39.004
						c-22.228,0-40.247-18.02-40.247-40.247c0-0.867,0.037-1.725,0.091-2.578c-1.686-0.629-3.317-1.368-4.889-2.205
						c-0.935,1.185-1.929,2.32-2.984,3.397c-12.051,26.201-38.513,44.403-69.243,44.403c-19.949,0-38.099-7.675-51.681-20.222
						c-10.362,3.509-21.825,4.155-33.208,1.213c-17.049-4.407-30.36-15.932-37.609-30.563c-5.7,0.407-11.559-0.073-17.397-1.582
						c-3.143-0.813-6.14-1.899-8.993-3.203c-9.238,5.352-20.499,7.221-31.651,4.337C-53.41,109.469-64.168,98.623-68.46,85.37
						l-27.758,0.249v126.556h581.312c-4.18-8.991-6.529-19.006-6.529-29.574C478.565,180.893,478.647,179.205,478.767,177.527z"/>
					<path display="inline" fill="#F1F2F2" d="M1243.901,101.187c-5.281,5.663-12.177,9.945-20.229,12.027
						c-11.152,2.884-22.413,1.015-31.651-4.337c-2.853,1.304-5.85,2.391-8.992,3.203c-5.839,1.509-11.697,1.989-17.397,1.582
						c-7.25,14.631-20.561,26.155-37.609,30.563c-11.383,2.942-22.846,2.296-33.208-1.213
						c-13.582,12.547-31.731,20.222-51.681,20.222c-11.582,0-22.554-2.597-32.383-7.22c-2.045,22.331-12.697,42.16-28.614,56.161
						h261.766V101.187z"/>
					<path display="inline" fill="#F1F2F2" d="M843.348,169.694c-6.444,2.815-13.556,4.387-21.038,4.387
						c-11.809,0-22.708-3.89-31.488-10.458c-7.442,11.765-20.558,19.582-35.508,19.582c-10.98,0-20.973-4.219-28.456-11.119
						c-3.614,2.049-7.561,3.579-11.74,4.484c-0.044,14.508-6.966,27.415-17.697,35.604h172.164
						C857.003,201.107,847.699,186.405,843.348,169.694z"/>
					<path display="inline" fill="#F1F2F2" d="M552.459,200.508c0-13.466,4.496-25.879,12.059-35.833l-49.614-8.096
						c-7.237,12.47-20.698,20.875-36.136,20.948c-0.12,1.678-0.202,3.365-0.202,5.073c0,10.568,2.349,20.583,6.529,29.574h68.52
						C552.86,208.402,552.459,204.502,552.459,200.508z"/>
					<path display="inline" fill="#F1F2F2" d="M625.244,176.702c-0.012-1.984,0.118-3.936,0.356-5.854l-7.343,1.105
						c0.527,3.473,0.803,7.027,0.803,10.646c0,10.568-2.349,20.583-6.529,29.574h30.431
						C632.271,204.021,625.332,191.187,625.244,176.702z"/>
					<path display="inline" fill="#F1F2F2" d="M618.258,171.954l-4.744,0.715l-48.996-7.994
						c-7.563,9.954-12.059,22.367-12.059,35.833c0,3.994,0.401,7.895,1.154,11.667h58.918c4.181-8.991,6.529-19.006,6.529-29.574
						C619.061,178.981,618.785,175.427,618.258,171.954z"/>
					<path display="inline" fill="#F1F2F2" d="M210.858,118.83c1.055-1.077,2.049-2.213,2.984-3.397
						c-0.421-0.225-0.834-0.46-1.246-0.698C212.055,116.12,211.477,117.485,210.858,118.83z"/>
					<path display="inline" fill="#F1F2F2" d="M299.104,121.459c0.01,0,0.021,0.001,0.031,0.001c0.155,0,0.309-0.01,0.464-0.012
						l-0.493-0.08C299.105,121.398,299.104,121.429,299.104,121.459z"/>
					<path display="inline" fill="#F1F2F2" d="M180.768,131.487c-21.264,0-38.837-15.759-41.703-36.232l-9.797-1.599
						c-0.296,2.91-0.816,5.836-1.571,8.756c-5.109,19.762-19.773,34.507-37.763,40.6c13.583,12.547,31.732,20.222,51.681,20.222
						c30.73,0,57.192-18.202,69.243-44.403C203.212,126.637,192.559,131.487,180.768,131.487z"/>
					<path display="inline" fill="#F1F2F2" d="M201.587,105.456l-62.522-10.201c2.866,20.474,20.439,36.232,41.703,36.232
						c11.791,0,22.444-4.851,30.09-12.657c0.618-1.345,1.197-2.71,1.738-4.096C208.399,112.307,204.67,109.162,201.587,105.456z"/>
					<path display="inline" fill="#F1F2F2" d="M254.55,114.098c-6.25,3.875-13.619,6.118-21.513,6.118
						c-5.033,0-9.852-0.914-14.305-2.578c-0.054,0.854-0.091,1.711-0.091,2.578c0,22.228,18.019,40.247,40.247,40.247
						c21.811,0,39.557-17.353,40.216-39.004c-4.646-0.003-9.103-0.803-13.254-2.254L254.55,114.098z"/>
					<path display="inline" fill="#F1F2F2" d="M285.85,119.205c4.151,1.451,8.608,2.251,13.254,2.254
						c0.001-0.03,0.001-0.061,0.002-0.091L285.85,119.205z"/>
					<path display="inline" fill="#F1F2F2" d="M387.791,135.839l-77.532-12.651c-0.281,2.203-0.442,4.444-0.442,6.724
						c0,29.062,23.56,52.621,52.622,52.621c13.629,0,26.047-5.182,35.394-13.682c-6.467-7.387-10.395-17.054-10.395-27.643
						C387.438,139.388,387.566,137.598,387.791,135.839z"/>
					<path display="inline" fill="#F1F2F2" d="M218.44,108.206c-1.289,2.57-2.832,4.989-4.598,7.227
						c1.572,0.837,3.204,1.576,4.889,2.205c0.199-3.15,0.758-6.204,1.641-9.116L218.44,108.206z"/>
					<path display="inline" fill="#F1F2F2" d="M214.969,107.64c-0.677,2.416-1.47,4.782-2.373,7.095
						c0.412,0.238,0.825,0.474,1.246,0.698c1.766-2.237,3.309-4.656,4.598-7.227L214.969,107.64z"/>
					<path display="inline" fill="#F1F2F2" d="M212.596,114.734c0.903-2.313,1.695-4.679,2.373-7.095l-13.382-2.184
						C204.67,109.162,208.399,112.307,212.596,114.734z"/>
					<path display="inline" fill="#F1F2F2" d="M254.55,114.098l-34.177-5.576c-0.883,2.912-1.442,5.966-1.641,9.116
						c4.453,1.664,9.272,2.578,14.305,2.578C240.931,120.216,248.299,117.973,254.55,114.098z"/>
					<path display="inline" fill="#F1F2F2" d="M-38.924,113.214c11.152,2.884,22.414,1.015,31.651-4.337
						c-11.043-5.046-19.796-13.542-25.255-23.83L-68.46,85.37C-64.168,98.623-53.41,109.469-38.924,113.214z"/>
					<path display="inline" fill="#F1F2F2" d="M65.419,87.037c0-0.963,0.037-1.916,0.073-2.87l-1.995,0.018
						c-8.614,17.015-25.614,28.138-44.38,29.478c7.249,14.631,20.56,26.155,37.609,30.563c11.383,2.942,22.846,2.296,33.208-1.213
						C74.865,129.091,65.419,109.17,65.419,87.037z"/>
					<path display="inline" fill="#F1F2F2" d="M127.697,102.412c0.755-2.92,1.274-5.846,1.571-8.756L70.82,84.119l-5.328,0.048
						c-0.036,0.954-0.073,1.907-0.073,2.87c0,22.133,9.445,42.054,24.515,55.975C107.924,136.919,122.588,122.174,127.697,102.412z"
						/>
					<path display="inline" fill="#F1F2F2" d="M13.142,84.637l-1.22,0.012C8.721,95.234,1.678,103.692-7.273,108.877
						c2.854,1.304,5.851,2.391,8.993,3.203c5.838,1.509,11.697,1.989,17.397,1.582C14.739,104.827,12.569,94.863,13.142,84.637z"/>
					<path display="inline" fill="#F1F2F2" d="M11.922,84.648l-44.45,0.398c5.459,10.288,14.212,18.784,25.255,23.83
						C1.678,103.692,8.721,95.234,11.922,84.648z"/>
					<path display="inline" fill="#F1F2F2" d="M63.498,84.185l-50.356,0.452c-0.572,10.227,1.598,20.19,5.976,29.025
						C37.883,112.322,54.884,101.199,63.498,84.185z"/>
					<path display="inline" fill="#F1F2F2" d="M470.634,149.355c-1.752,8.911-6.321,16.809-12.743,22.73
						c6.105,3.461,13.156,5.446,20.674,5.446c0.068,0,0.134-0.005,0.202-0.005c0.656-9.172,3.057-17.858,6.898-25.719
						L470.634,149.355z"/>
					<path display="inline" fill="#F1F2F2" d="M478.767,177.527c15.438-0.073,28.899-8.479,36.136-20.948l-29.238-4.771
						C481.824,159.669,479.423,168.355,478.767,177.527z"/>
					<path display="inline" fill="#F1F2F2" d="M437.41,143.935l-23.35-3.81c-2.221,11.286-8.042,21.28-16.229,28.726
						c7.698,8.794,18.998,14.354,31.603,14.354c10.981,0,20.973-4.219,28.456-11.119C447.499,166.195,439.861,156.01,437.41,143.935
						z"/>
					<path display="inline" fill="#F1F2F2" d="M414.061,140.125l-26.27-4.286c-0.225,1.759-0.354,3.549-0.354,5.369
						c0,10.589,3.928,20.256,10.395,27.643C406.019,161.405,411.84,151.411,414.061,140.125z"/>
					<path display="inline" fill="#F1F2F2" d="M470.634,149.355l-33.224-5.421c2.451,12.075,10.088,22.261,20.48,28.151
						C464.313,166.164,468.881,158.267,470.634,149.355z"/>
					<path display="inline" fill="#F1F2F2" d="M1058.024,105.735l-16.37,2.465c-6.141,12.26-18.084,21.1-32.232,22.926
						c1.114,5.5,1.703,11.192,1.703,17.021c0,2.653-0.139,5.274-0.375,7.866c9.829,4.623,20.801,7.22,32.383,7.22
						c19.949,0,38.099-7.675,51.681-20.222C1077.85,137.267,1063.85,123.822,1058.024,105.735z"/>
					<path display="inline" fill="#F1F2F2" d="M1009.422,131.126c14.148-1.826,26.092-10.666,32.232-22.926l-37.718,5.68
						C1006.343,119.354,1008.205,125.121,1009.422,131.126z"/>
					<path display="inline" fill="#F1F2F2" d="M841.168,138.39l-44.037,6.631c-0.612,6.799-2.846,13.127-6.31,18.603
						c8.78,6.568,19.68,10.458,31.488,10.458c7.482,0,14.594-1.571,21.038-4.387c-1.793-6.883-2.752-14.103-2.752-21.547
						C840.596,144.846,840.803,141.594,841.168,138.39z"/>
					<path display="inline" fill="#F1F2F2" d="M1010.75,156.014c-16.251-7.644-29.352-20.857-36.86-37.184
						c-0.12-0.123-0.236-0.249-0.354-0.372l-7.443,1.12c0.003,0.213,0.016,0.424,0.016,0.638c0,22.228-18.02,40.247-40.247,40.247
						c-18.325,0-33.779-12.252-38.645-29.008l-13.689,2.062c-3.814,16.266-15.166,29.621-30.179,36.178
						c4.352,16.711,13.655,31.413,26.236,42.48h112.552C998.053,198.174,1008.705,178.345,1010.75,156.014z"/>
					<path display="inline" fill="#F1F2F2" d="M973.535,118.458c0.118,0.123,0.234,0.249,0.354,0.372
						c-0.061-0.133-0.12-0.266-0.18-0.398L973.535,118.458z"/>
					<path display="inline" fill="#F1F2F2" d="M1009.422,131.126c-1.783,0.229-3.597,0.361-5.441,0.361
						c-11.791,0-22.444-4.851-30.091-12.657c7.509,16.326,20.609,29.54,36.86,37.184c0.236-2.592,0.375-5.213,0.375-7.866
						C1011.125,142.318,1010.536,136.626,1009.422,131.126z"/>
					<path display="inline" fill="#F1F2F2" d="M1003.98,131.487c1.845,0,3.658-0.132,5.441-0.361
						c-1.217-6.005-3.079-11.771-5.485-17.246l-30.227,4.552c0.06,0.133,0.119,0.266,0.18,0.398
						C981.536,126.637,992.189,131.487,1003.98,131.487z"/>
					<path display="inline" fill="#F1F2F2" d="M925.86,160.463c22.228,0,40.247-18.02,40.247-40.247
						c0-0.214-0.013-0.425-0.016-0.638l-78.876,11.877C892.081,148.211,907.535,160.463,925.86,160.463z"/>
					<path display="inline" fill="#F1F2F2" d="M840.596,148.147c0,7.444,0.959,14.664,2.752,21.547
						c15.013-6.557,26.364-19.912,30.179-36.178l-32.358,4.873C840.803,141.594,840.596,144.846,840.596,148.147z"/>
					<path display="inline" fill="#F1F2F2" d="M1212.24,92.83c-5.24,6.773-12.109,12.341-20.22,16.047
						c9.238,5.352,20.499,7.221,31.651,4.337c8.053-2.082,14.948-6.364,20.229-12.027v-5.068L1212.24,92.83z"/>
					<path display="inline" fill="#F1F2F2" d="M1128.587,95.11l-9.877,1.487c-2.289,18.272-11.033,34.531-23.896,46.414
						c10.362,3.509,21.825,4.155,33.208,1.213c17.049-4.407,30.359-15.932,37.609-30.563
						C1151.255,112.636,1137.916,105.871,1128.587,95.11z"/>
					<path display="inline" fill="#F1F2F2" d="M1118.71,96.598l-60.686,9.138c5.825,18.087,19.825,31.531,36.789,37.276
						C1107.677,131.129,1116.421,114.87,1118.71,96.598z"/>
					<path display="inline" fill="#F1F2F2" d="M1174.356,88.896l-2.662-0.276l-0.011,0.002c-0.114,8.822-2.246,17.358-6.053,25.041
						c5.7,0.407,11.559-0.073,17.397-1.582c3.143-0.813,6.14-1.899,8.992-3.203C1184.302,104.405,1177.998,97.502,1174.356,88.896z"
						/>
					<path display="inline" fill="#F1F2F2" d="M1212.24,92.83l-37.884-3.935c3.642,8.606,9.945,15.51,17.664,19.981
						C1200.131,105.171,1207,99.604,1212.24,92.83z"/>
					<path display="inline" fill="#F1F2F2" d="M1128.587,95.11c9.329,10.761,22.668,17.525,37.044,18.552
						c3.807-7.683,5.938-16.219,6.053-25.041L1128.587,95.11z"/>
					<path display="inline" fill="#F1F2F2" d="M716.465,157.167l-5.308,0.799c2.506,5.554,3.929,11.704,3.968,18.189
						c0.001,0.14-0.008,0.276-0.008,0.415c4.18-0.905,8.126-2.436,11.74-4.484C722.386,167.963,718.814,162.882,716.465,157.167z"/>
					<path display="inline" fill="#F1F2F2" d="M776.915,148.064l-32.523,4.897c-3.688,8.073-9.856,14.771-17.534,19.124
						c7.483,6.9,17.476,11.119,28.456,11.119c14.95,0,28.065-7.817,35.508-19.582C785.212,159.428,780.479,154.131,776.915,148.064z
						"/>
					<path display="inline" fill="#F1F2F2" d="M776.915,148.064c3.563,6.066,8.297,11.363,13.906,15.559
						c3.464-5.476,5.697-11.804,6.31-18.603L776.915,148.064z"/>
					<path display="inline" fill="#F1F2F2" d="M744.392,152.962l-27.927,4.205c2.35,5.715,5.921,10.796,10.393,14.919
						C734.535,167.733,740.703,161.035,744.392,152.962z"/>
					<path display="inline" fill="#F1F2F2" d="M715.117,176.57c-2.88,0.624-5.867,0.962-8.934,0.962
						c-12.48,0-23.684-5.45-31.376-14.093l-15.048,2.266c7.101,9.776,11.299,21.796,11.299,34.803c0,3.994-0.401,7.895-1.154,11.667
						h27.516C708.151,203.985,715.073,191.078,715.117,176.57z"/>
					<path display="inline" fill="#F1F2F2" d="M625.244,176.702c0.088,14.484,7.027,27.318,17.718,35.473h26.942
						c0.753-3.772,1.154-7.673,1.154-11.667c0-13.007-4.198-25.026-11.299-34.803l-34.159,5.144
						C625.362,172.767,625.232,174.718,625.244,176.702z"/>
					<path display="inline" fill="#F1F2F2" d="M711.157,157.966l-36.35,5.474c7.692,8.643,18.896,14.093,31.376,14.093
						c3.066,0,6.054-0.338,8.934-0.962c0-0.139,0.009-0.275,0.008-0.415C715.086,169.67,713.663,163.52,711.157,157.966z"/>
				</g>
			</g>
		</g>
		<g display="none">
			<g display="inline">
				<g>
					<path fill="#EC4842" d="M381.624-307.823c0,50.496-39.236,107.026-70.87,107.026c-29.154,0-70.871-56.53-70.871-107.026
						c0-50.496,31.73-80.581,70.871-80.581C349.894-388.404,381.624-358.319,381.624-307.823z"/>
					<path fill="#EC4842" d="M310.43-201.111c-0.48,0.949-2.376,5.632-3.984,9.351c-2.778,6.423-1.795,9.16-0.602,8.485
						c1.639-0.926,4.165-3.108,10.419-2.063c7.696,1.287,4.521,0.909-0.018-8.125c-2.13-4.239-2.674-6.699-2.674-6.699
						L310.43-201.111z"/>
					<path fill="#16546D" d="M308.893-199.7c-0.122-1.456,1.151-0.711,2.701-1.196c1.55-0.484,1.978,0,1.978,0v3.432
						c0,0-1.735,0-2.958,0s-1.729,0-1.729,0L308.893-199.7z"/>
				</g>
				<path fill="none" stroke="#16546D" stroke-miterlimit="10" d="M313.571-200.896c-1.132,12.128-4.12,96.728,0,161.316
					c5.91,92.652,37.8,148.898,37.8,148.898"/>
				<path fill="none" stroke="#16546D" stroke-miterlimit="10" d="M311.747-199.288c-3.67,3.685-6.438,4.317-10.33,11.267
					s-1.667,13.898-1.667,13.898"/>
				<path opacity="0.4" fill="#FFFFFF" d="M325.044-370.088c-0.919,5.837,7.783,10.007,25.573,31.132
					c17.79,21.125,20.014,71.327,6.115,91.813c0,0,23.422-35.769,11.675-79.915C356.66-371.205,326.988-382.429,325.044-370.088z"/>
				<circle opacity="0.4" fill="#FFFFFF" cx="314.367" cy="-375.37" r="5.003"/>
			</g>
			<g display="inline">
				<g>
					<path fill="#047B9A" d="M960.116-415.405c0,49.452-38.425,104.813-69.404,104.813c-28.551,0-69.404-55.362-69.404-104.813
						s31.073-78.915,69.404-78.915S960.116-464.857,960.116-415.405z"/>
					<path fill="#047B9A" d="M890.396-310.901c-0.471,0.93-2.327,5.516-3.902,9.158c-2.72,6.29-1.758,8.971-0.589,8.31
						c1.604-0.907,4.078-3.044,10.203-2.02c7.536,1.26,4.428,0.89-0.018-7.958c-2.086-4.151-2.618-6.561-2.618-6.561
						L890.396-310.901z"/>
					<path fill="#16546D" d="M888.89-309.518c-0.12-1.427,1.127-0.696,2.646-1.171c1.518-0.475,1.937,0,1.937,0v3.36
						c0,0-1.7,0-2.897,0s-1.692,0-1.692,0L888.89-309.518z"/>
				</g>
				<path fill="none" stroke="#16546D" stroke-miterlimit="10" d="M893.472-310.689c-1.109,11.876-4.035,94.727,0,157.979
					c5.788,90.736-21.461,187.026-21.461,187.026"/>
				<path fill="none" stroke="#16546D" stroke-miterlimit="10" d="M891.685-309.115c-3.594,3.609-6.305,4.229-10.116,11.034
					c-3.811,6.806-1.633,13.611-1.633,13.611"/>
				<path opacity="0.4" fill="#FFFFFF" d="M904.707-476.383c-0.9,5.717,7.622,9.8,25.044,30.488s19.6,69.852,5.989,89.914
					c0,0,22.938-35.029,11.433-78.262C935.669-477.476,906.611-488.469,904.707-476.383z"/>
				<circle opacity="0.4" fill="#FFFFFF" cx="894.25" cy="-481.555" r="4.9"/>
			</g>
		</g>
	</g>
</g>
<g id="_x38_00X800" display="none">
	<g display="inline">
		<g>
			<rect x="1420" y="-605.581" fill="#63C6C5" width="800" height="800"/>
			<g>
				<defs>
					<rect id="SVGID_3_" x="1420" y="-605.581" width="800" height="800"/>
				</defs>
				<clipPath id="SVGID_4_">
					<use xlink:href="#SVGID_3_"  overflow="visible"/>
				</clipPath>
				<g clip-path="url(#SVGID_4_)">
					<polygon opacity="0.3" fill="#FFFFFF" points="1820.947,-56.005 1844.374,-684.926 1828.265,-55.774 1891.136,-681.984 
						1835.553,-55.085 1937.62,-676.112 1842.784,-53.94 1983.644,-667.332 1849.929,-52.343 2029.026,-655.68 1856.959,-50.301 
						2073.586,-641.202 1863.847,-47.821 2117.15,-623.954 1870.565,-44.913 2159.545,-604.004 1877.089,-41.59 2200.604,-581.432 
						1883.39,-37.863 2240.163,-556.327 1889.445,-33.748 2278.068,-528.787 1895.229,-29.261 2314.17,-498.921 1900.721,-24.42 
						2348.325,-466.847 1905.898,-19.243 2380.398,-432.692 1910.739,-13.752 2410.265,-396.59 1915.227,-7.967 2437.805,-358.685 
						1919.341,-1.912 2462.91,-319.125 1923.068,4.39 2485.482,-278.066 1926.392,10.912 2505.432,-235.672 1929.299,17.632 
						2522.68,-192.108 1931.779,24.52 2537.158,-147.548 1933.821,31.55 2548.811,-102.166 1935.418,38.694 2557.59,-56.142 
						1936.563,45.925 2563.463,-9.657 1937.253,53.214 2566.404,37.104 1937.482,60.53 2566.404,83.958 1937.253,67.848 
						2563.463,130.719 1936.563,75.137 2557.59,177.203 1935.418,82.367 2548.811,223.228 1933.821,89.512 2537.158,268.609 
						1931.779,96.542 2522.68,313.17 1929.299,103.431 2505.432,356.733 1926.392,110.149 2485.482,399.128 1923.068,116.672 
						2462.91,440.187 1919.341,122.974 2437.805,479.747 1915.227,129.028 2410.265,517.652 1910.739,134.813 2380.398,553.754 
						1905.898,140.305 2348.325,587.909 1900.721,145.481 2314.17,619.982 1895.229,150.322 2278.068,649.848 1889.445,154.81 
						2240.163,677.388 1883.39,158.925 2200.604,702.493 1877.089,162.651 2159.545,725.065 1870.565,165.975 2117.15,745.015 
						1863.847,168.883 2073.586,762.263 1856.959,171.362 2029.026,776.741 1849.929,173.404 1983.644,788.394 1842.784,175.002 
						1937.62,797.173 1835.553,176.147 1891.136,803.046 1828.265,176.836 1844.374,805.987 1820.947,177.066 1797.521,805.987 
						1813.63,176.836 1750.759,803.046 1806.342,176.147 1704.274,797.173 1799.11,175.002 1658.251,788.394 1791.967,173.404 
						1612.869,776.741 1784.936,171.362 1568.309,762.263 1778.048,168.883 1524.744,745.015 1771.329,165.975 1482.35,725.065 
						1764.807,162.651 1441.292,702.493 1758.505,158.925 1401.731,677.388 1752.449,154.81 1363.826,649.848 1746.665,150.322 
						1327.725,619.982 1741.174,145.481 1293.569,587.909 1735.997,140.305 1261.496,553.754 1731.155,134.813 1231.63,517.652 
						1726.668,129.028 1204.09,479.747 1722.554,122.974 1178.984,440.187 1718.827,116.672 1156.412,399.128 1715.503,110.149 
						1136.463,356.733 1712.596,103.431 1119.215,313.17 1710.116,96.542 1104.736,268.609 1708.073,89.512 1093.084,223.228 
						1706.477,82.367 1084.305,177.203 1705.331,75.137 1078.433,130.719 1704.643,67.848 1075.49,83.958 1704.412,60.53 
						1075.49,37.104 1704.643,53.214 1078.433,-9.657 1705.331,45.925 1084.305,-56.142 1706.477,38.694 1093.084,-102.166 
						1708.073,31.55 1104.736,-147.548 1710.116,24.52 1119.215,-192.108 1712.596,17.632 1136.463,-235.672 1715.503,10.912 
						1156.412,-278.066 1718.827,4.39 1178.984,-319.125 1722.554,-1.912 1204.09,-358.685 1726.668,-7.967 1231.63,-396.59 
						1731.155,-13.752 1261.496,-432.692 1735.997,-19.243 1293.569,-466.847 1741.174,-24.42 1327.725,-498.921 1746.665,-29.261 
						1363.826,-528.787 1752.449,-33.748 1401.731,-556.327 1758.505,-37.863 1441.292,-581.432 1764.807,-41.59 1482.35,-604.004 
						1771.329,-44.913 1524.744,-623.954 1778.048,-47.821 1568.309,-641.202 1784.936,-50.301 1612.869,-655.68 1791.967,-52.343 
						1658.251,-667.332 1799.11,-53.94 1704.274,-676.112 1806.342,-55.085 1750.759,-681.984 1813.63,-55.774 1797.521,-684.926 
											"/>
				</g>
				<g clip-path="url(#SVGID_4_)">
					<g>
						<g>
							<path fill="none" stroke="#FFFFFF" stroke-miterlimit="10" d="M2372.643-539.34c-198.172,22.454-406.22,30.732-603.443-1.911
								c-96.822-16.025-194.879-43.3-276.119-91.318"/>
						</g>
						<g>
							<g>
								<polygon fill="#047B9A" points="2318.374,-534.407 2306.072,-508.568 2292.912,-531.488 								"/>
							</g>
							<g>
								<polygon fill="#F5E2C1" points="2178.481,-525.5 2160.143,-495.729 2152.286,-525.51 								"/>
							</g>
							<g>
								<polygon fill="#E6A12B" points="2132.934,-521.476 2116.338,-489.729 2106.666,-521.557 								"/>
							</g>
							<g>
								<polygon fill="#F5E2C1" points="2359.854,-539.895 2351.406,-513.737 2335.185,-535.201 								"/>
							</g>
							<g>
								<polygon fill="#E6A12B" points="2275.634,-531.231 2260.541,-504.914 2249.748,-527.977 								"/>
							</g>
							<g>
								<polygon fill="#047B9A" points="2224.498,-528.145 2209.424,-501.645 2198.248,-524.4 								"/>
							</g>
							<g>
								<polygon fill="#F5E2C1" points="1864.355,-531.63 1845.768,-507.941 1839.235,-533.186 								"/>
							</g>
							<g>
								<polygon fill="#F5E2C1" points="1733.308,-547.927 1709.957,-526.042 1710.669,-554.604 								"/>
							</g>
							<g>
								<polygon fill="#F5E2C1" points="1545.308,-606.325 1519.468,-578.526 1524.909,-617.205 								"/>
							</g>
							<g>
								<polygon fill="#F5E2C1" points="1906.229,-527.157 1891.507,-505.784 1880.909,-529.599 								"/>
							</g>
							<g>
								<polygon fill="#047B9A" points="1822.991,-536.26 1811.944,-510.392 1798.176,-538.06 								"/>
							</g>
							<g>
								<polygon fill="#E6A12B" points="1574.573,-595.246 1556.447,-569.229 1551.876,-600.277 								"/>
							</g>
							<g>
								<polygon fill="#E6A12B" points="1775.437,-543.774 1754.475,-519.381 1750.923,-545.672 								"/>
							</g>
							<g>
								<polygon fill="#F5E2C1" points="2017.581,-523.776 2026.162,-499.446 2043.729,-523.422 								"/>
							</g>
							<g>
								<polygon fill="#E6A12B" points="2062.623,-521.175 2071.367,-496.744 2088.889,-521.021 								"/>
							</g>
							<g>
								<polygon fill="#F5E2C1" points="1647.725,-567.54 1627.265,-543.447 1628.474,-573.932 								"/>
							</g>
							<g>
								<polygon fill="#E6A12B" points="1608.814,-581.451 1587.921,-553.595 1586.005,-589.411 								"/>
							</g>
							<g>
								<polygon fill="#047B9A" points="1688.333,-557.821 1671.896,-533.7 1665.586,-565.16 								"/>
							</g>
							<g>
								<polygon fill="#E6A12B" points="1494.011,-631.218 1488.369,-589.411 1514.018,-619.323 								"/>
							</g>
							<g>
								<polygon fill="#E6A12B" points="1917.958,-523.822 1928.245,-499.023 1943.637,-522.811 								"/>
							</g>
							<g>
								<polygon fill="#047B9A" points="1969.24,-525.451 1979.509,-500.724 1995.11,-524.384 								"/>
							</g>
						</g>
					</g>
				</g>
				<g clip-path="url(#SVGID_4_)">
					<g>
						<path fill="none" stroke="#FFFFFF" stroke-miterlimit="10" d="M2216.771-645.113
							c-174.976,103.834-385.786,144.782-598.643,148.92c-106.117,2.063-215.835-3.768-318.099-29.078"/>
						<g>
							<polygon fill="#047B9A" points="2163.627,-616.749 2163.764,-579.077 2140.135,-604.027 							"/>
							<polygon fill="#F5E2C1" points="2035.175,-563.79 2030.96,-529.906 2010.723,-557.497 							"/>
							<polygon fill="#E6A12B" points="1993.373,-550.373 1988.873,-517.384 1968.69,-544.61 							"/>
							<polygon fill="#F5E2C1" points="2203.112,-640.448 2205.789,-601.916 2180.025,-624.043 							"/>
							<polygon fill="#E6A12B" points="2123.619,-598.134 2122.476,-560.457 2100.66,-586.012 							"/>
							<polygon fill="#047B9A" points="2076.786,-579.124 2076.61,-542.643 2054.217,-567.353 							"/>
							<polygon fill="#047B9A" points="1727.273,-504.813 1718.362,-474.884 1700.486,-501.551 							"/>
							<polygon fill="#F5E2C1" points="1581.831,-496.049 1564.883,-469.238 1554.821,-498.189 							"/>
							<polygon fill="#F5E2C1" points="1360.531,-513.269 1346.638,-489.558 1336.163,-518.364 							"/>
							<polygon fill="#F5E2C1" points="1772.201,-508.043 1758.717,-467.562 1745.232,-505.815 							"/>
							<polygon fill="#E6A12B" points="1682.152,-501.673 1669.748,-471.684 1655.197,-498.67 							"/>
							<polygon fill="#E6A12B" points="1394.435,-509.103 1382.248,-482.179 1369.532,-509.785 							"/>
							<polygon fill="#E6A12B" points="1628.673,-500.14 1615.829,-470.328 1601.668,-497.229 							"/>
							<polygon fill="#047B9A" points="1884.112,-526.261 1905.146,-499.702 1909.453,-531.177 							"/>
							<polygon fill="#F5E2C1" points="1928.684,-532.363 1950.082,-505.775 1953.674,-537.72 							"/>
							<polygon fill="#F5E2C1" points="1482.086,-498.407 1469.128,-472.594 1459.098,-500.595 							"/>
							<polygon fill="#E6A12B" points="1435.406,-503.572 1424.063,-476.23 1409.719,-504.002 							"/>
							<polygon fill="#047B9A" points="1529.48,-496.99 1515.947,-467.562 1502.155,-499.496 							"/>
							<polygon fill="#E6A12B" points="1301.459,-524.518 1313.822,-495.561 1324.969,-518.69 							"/>
							<polygon fill="#E6A12B" points="1785.647,-506.524 1803.447,-476.23 1811.944,-510.392 							"/>
							<polygon fill="#047B9A" points="1836.067,-518.548 1854.09,-489.849 1861.979,-522.457 							"/>
						</g>
					</g>
				</g>
				<g clip-path="url(#SVGID_4_)">
					<circle fill="#FFE9C8" cx="1810.666" cy="85.062" r="70.248"/>
					<circle fill="#FFE9C8" cx="1873.612" cy="102.97" r="59.299"/>
					<g>
						<g>
							<path fill="#EC4842" d="M1943.097-109.88c0,22.927,17.814,48.593,32.177,48.593c13.236,0,32.178-25.666,32.178-48.593
								s-14.406-36.587-32.178-36.587C1957.503-146.467,1943.097-132.807,1943.097-109.88z"/>
							<path fill="#EC4842" d="M1975.42-61.43c0.219,0.431,1.079,2.557,1.81,4.245c1.261,2.916,0.815,4.159,0.273,3.854
								c-0.744-0.421-1.892-1.412-4.73-0.938c-3.494,0.585-2.054,0.413,0.008-3.688c0.967-1.925,1.214-3.042,1.214-3.042
								L1975.42-61.43z"/>
							<path fill="#16546D" d="M1976.118-60.789c0.056-0.661-0.522-0.322-1.226-0.543c-0.704-0.221-0.898,0-0.898,0v1.558
								c0,0,0.788,0,1.344,0c0.555,0,0.784,0,0.784,0L1976.118-60.789z"/>
						</g>
						<path fill="none" stroke="#16546D" stroke-miterlimit="10" d="M1973.994-61.332c0.514,5.506,2.167,77.504-4.416,121.104"/>
						<path fill="none" stroke="#16546D" stroke-miterlimit="10" d="M1974.822-60.603c1.667,1.674,2.924,1.961,4.69,5.116
							s0.757,6.31,0.757,6.31"/>
						<path opacity="0.4" fill="#FFFFFF" d="M1968.785-138.15c0.417,2.65-3.534,4.543-11.611,14.135
							c-8.076,9.592-9.086,32.385-2.775,41.686c0,0-10.635-16.24-5.301-36.284C1954.431-138.657,1967.902-143.754,1968.785-138.15z"
							/>
						<circle opacity="0.4" fill="#FFFFFF" cx="1973.633" cy="-140.549" r="2.271"/>
					</g>
					<circle fill="#FFE9C8" cx="1963.617" cy="43.67" r="42.121"/>
					<circle fill="#FFE9C8" cx="2052.609" cy="37.997" r="58.246"/>
					<circle fill="#FFE9C8" cx="2133.912" cy="9.941" r="52.622"/>
					<circle fill="#FFE9C8" cx="2228.53" cy="9.941" r="52.622"/>
					<circle fill="#FFE9C8" cx="2004.51" cy="37.997" r="40.893"/>
					<circle fill="#FFE9C8" cx="2175.908" cy="-27.183" r="41.996"/>
					<circle fill="#FFE9C8" cx="1442.621" cy="-8.172" r="42.121"/>
					<circle fill="#FFE9C8" cx="1542.989" cy="-18.215" r="58.247"/>
					<circle fill="#FFE9C8" cx="1624.291" cy="32.372" r="52.621"/>
					<circle fill="#FFE9C8" cx="1494.89" cy="-18.215" r="40.893"/>
					<circle fill="#FFE9C8" cx="1740.417" cy="37.997" r="41.997"/>
					<circle fill="#FFE9C8" cx="1691.287" cy="43.67" r="41.997"/>
					<circle fill="#FFE9C8" cx="1932.038" cy="78.89" r="44.941"/>
					<polygon fill="#FFE9C8" points="1405.338,-11.919 1531.018,-13.419 1859.724,75.13 2197.811,-8.92 2241.546,-1.42 
						2241.546,215.805 1405.338,215.805 					"/>
				</g>
				<g clip-path="url(#SVGID_4_)">
					<g>
						<path fill="#E6A12B" d="M1808.24,46.315c0,41.166-31.986,87.251-57.775,87.251c-23.767,0-57.775-46.085-57.775-87.251
							s25.867-65.693,57.775-65.693S1808.24,5.149,1808.24,46.315z"/>
						<path fill="#E6A12B" d="M1750.201,133.31c-0.392,0.774-1.938,4.592-3.248,7.623c-2.265,5.236-1.464,7.468-0.49,6.918
							c1.336-0.755,3.395-2.534,8.493-1.682c6.274,1.049,3.687,0.741-0.015-6.624c-1.736-3.455-2.18-5.461-2.18-5.461
							L1750.201,133.31z"/>
						<path fill="#16546D" d="M1748.947,134.461c-0.099-1.188,0.938-0.58,2.202-0.976c1.265-0.396,1.612,0,1.612,0v2.797
							c0,0-1.415,0-2.412,0c-0.996,0-1.408,0-1.408,0L1748.947,134.461z"/>
					</g>
					<path fill="none" stroke="#16546D" stroke-miterlimit="10" d="M1752.762,133.485c-2.802,28.612-3.82,49.854,2.907,87.128"/>
					<path fill="none" stroke="#16546D" stroke-miterlimit="10" d="M1751.274,134.796c-2.991,3.004-5.248,3.521-8.421,9.186
						c-3.172,5.665-1.359,11.33-1.359,11.33"/>
					<path opacity="0.4" fill="#FFFFFF" d="M1762.115-4.445c-0.75,4.759,6.345,8.157,20.848,25.38
						c14.503,17.222,16.315,58.147,4.985,74.848c0,0,19.094-29.159,9.518-65.148C1787.889-5.355,1763.7-14.507,1762.115-4.445z"/>
					<circle opacity="0.4" fill="#FFFFFF" cx="1753.411" cy="-8.751" r="4.079"/>
				</g>
			</g>
		</g>
		<g>
			<g>
				<path fill="#16546D" d="M1691.743-356.822c0.178,0.054,0.357,0.079,0.535,0.079c0.641,0,1.254-0.335,1.612-0.913
					c0.459-0.738,0.388-1.705-0.171-2.366c-0.433-0.513-10.367-12.769,9.912-31.303c0.946-0.799,3.899-2.873,6.157-2.873
					c0.833,0,1.422,0.277,1.905,0.914c0.211,3.004-0.084,6.583-0.9,10.92c-0.259,1.4-0.63,3.284-1.071,5.521
					c-0.812,4.115-1.902,9.652-2.941,15.49c-8.585,2.674-17.09,7.26-24.667,13.313c-0.373,0.281-0.994,0.922-1.118,2.123
					c-0.204,1.963,0.709,5.657,10.945,15.029c0.355,0.325,0.81,0.498,1.271,0.498c0.197,0,0.396-0.031,0.589-0.095
					c0.646-0.215,1.133-0.765,1.281-1.447c0.02-0.091,1.801-7.928,9.149-14.684c-1.426,6.795-3.299,14.913-4.994,22.257
					c-2.35,10.179-3.799,16.514-3.959,18.33c-0.381,2.96,0.777,9.328,7.882,12.239c0.048,0.02,0.096,0.038,0.146,0.053
					c8.016,2.535,12.023,3.354,12.19,3.387c0.122,0.024,0.244,0.037,0.367,0.037c0.419,0,0.83-0.142,1.167-0.409
					c0.437-0.345,0.707-0.867,0.745-1.433c0.015-0.233,1.567-23.545,5.438-45.462l3.452-18.589c1.983-0.221,4.115-0.332,6.354-0.332
					c3.998,0.001,8.437,0.357,13.217,1.059c-2.654,15.983-8.893,54.889-9.287,59.02c-0.414,3.014,0.793,9.357,8.386,12.221
					c7.655,2.584,11.81,3.394,11.982,3.428c0.116,0.022,0.233,0.033,0.35,0.033c0.435,0,0.859-0.152,1.203-0.438
					c0.436-0.361,0.695-0.901,0.712-1.478c0.011-0.37,1.111-37.196,4.848-59.062l7.945-43.91c0.396-1.175,2.081-7.026-2.242-10.656
					c-3.848-3.716-15.133-8.627-15.614-8.836c-0.235-0.102-0.481-0.151-0.726-0.151c-0.515,0-1.021,0.217-1.393,0.617
					c-0.549,0.589-0.683,1.479-0.346,2.219c0.021,0.045,2.027,4.633,0.089,15.932c-0.758,3.235-1.764,8.748-2.926,15.126
					c-0.44,2.411-0.906,4.966-1.396,7.6c-4.683-0.867-10.403-1.355-16.036-1.356c-1.139,0-2.283,0.019-3.422,0.057l2.803-16.45
					c0.364-1.15,1.942-6.985-2.24-10.618c-1.751-1.681-4.899-3.568-7.809-5.215c-1.182-1.207-6.484-6.075-15.166-6.077
					c-8.03-0.002-16.437,4.124-24.968,12.244c-0.586,0.543-14.272,13.422-8.474,24.551
					C1673.105-365.478,1676.189-361.522,1691.743-356.822z"/>
				<path fill="#16546D" d="M1765.876-328.236c2.665,13.978,13.077,15.489,17.43,15.489c1.7,0,2.973-0.21,3.404-0.292
					c1.487-0.141,4.16-1.596,7.018-8.921c0.913,1.48,2.531,3.135,5.396,4.472c0.106,0.049,0.217,0.089,0.33,0.118l9.024,2.3
					c0.152,0.039,0.306,0.058,0.46,0.058c0.553,0,1.089-0.248,1.458-0.694c0.204-0.248,2.181-2.647,4.767-6.051
					c-0.434,2.65-0.751,4.611-0.877,5.709c-0.4,1.797-4.022,19.469,6.665,24.294c0.049,0.022,0.099,0.042,0.147,0.06
					c1.423,0.502,2.641,0.94,3.692,1.318c4.146,1.492,5.86,2.109,7.532,2.109c0.219,0,0.433-0.011,0.646-0.032
					c0.734-0.074,1.363-0.577,1.615-1.293c0.252-0.715,0.081-1.517-0.438-2.059c-5.147-5.375-2.603-22.82-1.732-28.707
					c0.264-1.047,0.877-3.292,1.723-6.272c1.725,2.88,5.234,4.572,9.601,4.573c0.622,0,1.271-0.033,1.928-0.099
					c0.143-0.015,0.283-0.045,0.42-0.092c0.726-0.249,17.758-6.479,18.542-40.229c0.062-0.935,0.296-8.315-7.031-14.961
					c-0.052-0.047-0.105-0.09-0.161-0.131c-2.627-1.91-5.174-2.878-7.575-2.879c-5.347-0.001-9.398,4.57-12.099,13.617
					c-1.021-2.691-2.417-4.333-3.811-5.604c-2.803-2.414-6.269-4.647-12.576-4.648c-1.04,0-2.164,0.06-3.341,0.177
					c-0.844,0.084-1.533,0.731-1.695,1.589c-0.161,0.858,0.244,1.723,0.997,2.126c0.798,0.428,3.299,3.155,1.992,20.274
					c-0.271,3.539-0.672,7.247-1.13,10.894c-2.316,4.118-5.252,8.889-8.102,12.262c0.325-5.034,1.289-9.821,2.88-14.282
					c0.026-0.073,0.049-0.148,0.066-0.225c0.063-0.271,1.467-6.707-4.413-10.792c-2.243-1.61-5.738-3.986-8.485-5.261
					c2.37-1.493,4.065-2.292,4.336-2.416c0.568-0.262,0.979-0.792,1.1-1.422s-0.063-1.281-0.494-1.745
					c-0.106-0.115-2.662-2.855-6.365-5.563c-3.988-2.676-9.131-3.181-9.348-3.201c-0.058-0.006-0.114-0.008-0.172-0.008
					c-0.062,0-0.124,0.003-0.186,0.009c-4.709,0.472-9.363,3.72-13.461,9.392C1768.126-354.992,1763.875-338.724,1765.876-328.236z
					 M1795.059-356.671l0.066,0.351c-4.939,12.842-10.877,26.562-13.943,31.531C1779.035-340.161,1787.688-350.673,1795.059-356.671
					z M1836.784-335.775c3.267-11.066,7.538-24.806,10.083-30.754c0.566,4.52,0.563,12.667-1.917,19.822
					C1843.15-341.513,1840.407-337.845,1836.784-335.775z"/>
				<path fill="#16546D" d="M1864.116-377.877c0.354,0.19,3.4,2.593,1.206,28.021c-1.283,14.869-3.829,31.75-5.197,40.818
					c-0.49,3.252-0.82,5.442-0.944,6.52c-0.399,1.799-4.021,19.469,6.667,24.294c0.047,0.022,0.097,0.042,0.146,0.06
					c1.421,0.502,2.637,0.939,3.688,1.317c4.147,1.492,5.865,2.11,7.536,2.11c0.219,0,0.434-0.011,0.646-0.032
					c0.735-0.074,1.363-0.577,1.616-1.293c0.251-0.715,0.08-1.517-0.439-2.059c-3.049-3.185-3.417-17.327-0.981-37.827
					c0.596-5.005,1.542-10.334,2.694-15.653c1.66,3.053,5.256,4.857,9.764,4.858c0.622,0,1.271-0.033,1.928-0.099
					c0.143-0.015,0.283-0.045,0.42-0.092c0.725-0.249,17.757-6.479,18.542-40.229c0.063-0.935,0.297-8.315-7.031-14.961
					c-0.051-0.047-0.105-0.09-0.16-0.131c-2.626-1.91-5.175-2.878-7.575-2.879c-5.348-0.001-9.398,4.57-12.1,13.618
					c-1.021-2.692-2.417-4.333-3.809-5.605c-2.806-2.413-6.271-4.646-12.578-4.647c-1.04,0-2.163,0.06-3.34,0.177
					c-0.844,0.084-1.533,0.731-1.695,1.589C1862.958-379.146,1863.363-378.28,1864.116-377.877z M1891.732-351.398
					c-1.935,5.581-4.955,9.401-8.989,11.37c3.639-14.283,8.234-27.211,10.78-32.067
					C1894.203-367.822,1894.383-359.044,1891.732-351.398z"/>
				<path fill="#16546D" d="M1914.06-385.274c0.246,0.275,2.798,3.567-0.062,18.596l-4.624,24.234
					c-0.069,0.366-0.037,0.745,0.094,1.093c0.136,0.361,3.484,8.843,18.583,11.743c0.266,0.096,0.627,0.183,1.068,0.183
					c1.797,0,3.533-1.262,5.233-3.826c-0.268,2.158-0.583,4.465-0.955,6.862c-2.847,2.511-5.719,4.9-8.271,7.023
					c-5.087,4.234-9.114,7.584-10.883,10.096c-1.397,1.753-3.564,6.584-1.643,10.861c1.949,4.337,7.235,6.537,15.713,6.539
					c1.932,0,4.063-0.114,6.334-0.34c2.034-0.107,11.136-2.799,17.353-40.899c2.298-2.937,12.607-16.341,16.079-24.931
					c0.02-0.049,0.037-0.099,0.053-0.15c0.424-1.344,1.664-5.925-0.117-8.451c-0.724-1.024-1.846-1.588-3.161-1.589l-0.159,0.002
					c-0.719,0.023-1.365,0.46-1.672,1.131c-0.044,0.098-3.251,7.075-7.188,13.6c0.02-0.115,0.04-0.229,0.06-0.344
					c1.496-8.564,3.043-17.421,4.278-22.942c0.011-0.052,0.021-0.104,0.028-0.156c0.037-0.258,0.845-6.361-4.089-10.127
					c-0.259-0.186-6.427-4.532-13.311-4.534c-0.527,0-1.053,0.026-1.563,0.077c-0.91,0.091-1.632,0.835-1.72,1.774
					c-0.069,0.728,0.257,1.416,0.816,1.814c0.306,0.604,1.706,4.623-2.851,22.036c-1.962,5.617-4.477,12.114-6.727,17.281
					c0.451-5.592,1.258-12.938,2.793-21.892c0.165-1.075,1.445-10.564-3.925-13.941c-0.709-0.505-6.551-4.511-13.138-4.512
					c-0.525,0-1.05,0.025-1.559,0.077c-0.847,0.085-1.537,0.735-1.696,1.596C1913.088-386.501,1913.42-385.709,1914.06-385.274z
					 M1922.991-300.216c-0.143,0.014-0.288,0.022-0.437,0.022c-0.759,0-1.381-0.205-1.581-0.522
					c-0.218-0.343-0.225-1.244,0.403-2.749c0.925-1.809,5.496-6.084,9.379-9.545
					C1927.892-302.414,1924.752-300.393,1922.991-300.216z"/>
				<path fill="#16546D" d="M2012.094-258.659c-0.709-1.006-1.812-1.56-3.102-1.561c-0.021,0-0.135,0.002-0.156,0.002
					c-0.719,0.023-1.365,0.46-1.672,1.131c-0.043,0.092-2.994,6.514-6.666,12.671c1.948-10.643,4.395-23.667,5.616-29.132
					c0.012-0.051,0.021-0.104,0.028-0.156c0.036-0.25,0.821-6.174-3.969-9.831c-0.251-0.179-6.214-4.381-12.87-4.382
					c-0.51,0-1.019,0.025-1.513,0.074c-0.562,0.056-1.07,0.366-1.392,0.845c-0.32,0.479-0.419,1.08-0.27,1.642
					c0.021,0.078,2.01,8.05-3.587,29.433c-1.733,4.965-3.914,10.643-5.937,15.388c0.895-7.768,2.308-17.974,3.851-26.972
					c0.159-1.041,1.399-10.229-3.813-13.508c-0.695-0.494-6.339-4.359-12.704-4.36c-0.508,0-1.016,0.025-1.508,0.074
					c-0.562,0.056-1.07,0.368-1.391,0.847s-0.419,1.083-0.271,1.644c0.024,0.09,2.354,9.208-0.866,26.144l-3.134,16.427
					c-2.009,3.456-4.371,7.157-6.681,9.926c0.326-4.766,1.249-9.302,2.758-13.533c0.025-0.073,0.049-0.148,0.066-0.225
					c0.061-0.264,1.425-6.513-4.282-10.476c-2.535-1.82-5.616-3.875-8.063-5.027c2.218-1.389,3.797-2.132,4.052-2.25
					c0.569-0.261,0.979-0.792,1.101-1.422c0.119-0.63-0.064-1.281-0.494-1.745c-0.104-0.111-2.57-2.756-6.147-5.372
					c-3.858-2.589-8.831-3.077-9.041-3.096c-0.057-0.005-0.115-0.008-0.172-0.008c-0.062,0-0.125,0.003-0.187,0.009
					c-4.557,0.457-9.061,3.597-13.023,9.081c-5.183,7.175-8.748,17.365-9.604,26.291c-2.133,4.003-4.887,8.743-7.496,12.132
					c0.153-4.838,0.664-9.89,1.529-15.065l6.748-36.471c0.299-0.987,1.569-5.948-1.911-9.12c-3.172-3.111-14.583-6.364-16.838-6.984
					c-0.164-0.045-0.331-0.067-0.495-0.067c-0.773,0-1.495,0.487-1.786,1.264c-0.32,0.854-0.025,1.809,0.683,2.323
					c0.293,0.367,3.305,4.789-0.159,26.73c-3.417-1.927-7.323-2.244-7.505-2.257c-0.046-0.003-0.092-0.005-0.139-0.005
					c-0.063,0-0.125,0.003-0.187,0.009c-4.28,0.429-8.505,3.372-12.218,8.511c-6.067,8.399-9.774,21.224-9.109,30.657
					c-1,1.639-2.044,3.234-3.091,4.652c0.363-5.434,1.191-13.116,2.961-23.501c0.143-0.985,1.237-9.695-3.844-12.975
					c-0.592-0.414-6.27-4.265-12.411-4.266c-0.474,0-0.945,0.023-1.402,0.068c-0.089,0.009-0.176,0.024-0.262,0.046
					c-0.744,0.184-2.44,1.038-4.679,4.809l2.57-14.169c0.34-1.056,1.663-5.997-1.994-9.426c-3.478-3.232-15.589-6.896-16.959-7.303
					c-0.197-0.059-0.402-0.087-0.604-0.088c-0.656,0-1.296,0.302-1.638,0.888c-0.437,0.751-0.407,1.629,0.162,2.269
					c0.226,0.456,1.79,4.122,1.044,16.121c-1.541,0.174-3.109,0.348-4.637,0.516l-0.36,0.04c0.19-2.039-0.079-4.885-2.428-6.927
					c-3.343-3.135-15.557-6.669-16.938-7.062c-0.19-0.054-0.387-0.081-0.582-0.081c-0.663,0-1.312,0.308-1.65,0.904
					c-0.43,0.755-0.392,1.63,0.183,2.264c0.212,0.419,1.563,3.492,1.235,13.111c-9.198,1.1-13.563,1.896-15.389,2.793
					c-4.688,2.332-4.842,5.826-4.214,7.566c0.733,3.48,3.07,5.551,6.284,5.551c1.275,0,3.05-0.394,3.856-1.504
					c0.313-0.431,0.431-0.957,0.363-1.457c0.833-0.468,2.954-1.349,8.271-2.58c-0.445,3.971-1.128,8.413-2.076,13.523
					c-0.782,5.211-1.815,11.266-2.726,16.608c-0.03,0.173-0.058,0.338-0.087,0.509c-2.087,3.71-4.74,8.065-7.351,11.35
					c0.326-5.852,1.137-14.005,2.988-24.528c0.007-0.041,0.013-0.08,0.018-0.12c0.099-0.863,0.476-5.275-1.835-7.478
					c-0.052-0.049-0.104-0.095-0.16-0.137c-0.246-0.188-6.102-4.608-13.668-5.761c-1.804-0.403-3.421-0.763-4.719-0.974
					c-2.548-5.4-6.69-7.578-8.472-7.79c-0.477-0.038-0.95-0.066-1.409-0.066c-0.726,0-2.937-0.001-4.34,1.718
					c-1.116,1.367-1.427,3.417-0.938,6.313c0.76,3.983,4.545,6.076,8.781,7.634c0.08,9.981-5.579,21.969-5.64,22.094
					c-0.141,0.296-0.181,0.623-0.168,0.949c-1.983,3.557-4.911,8.482-7.776,12.095c0.223-2.628,0.564-5.792,0.972-9.547
					c0.408-3.766,0.87-8.03,1.33-12.875c0.245-1.357,1.545-9.735-2.906-13.002c-0.039-0.029-0.079-0.056-0.12-0.082
					c-0.12-0.075-1.483-0.916-3.49-1.815c1.356,0.17,2.613,0.22,3.628,0.22c1.325,0,2.202-0.086,2.239-0.09
					c0.538-0.054,1.028-0.339,1.351-0.786c0.323-0.447,0.447-1.013,0.344-1.559c-0.013-0.067-1.266-6.771-0.414-11.43
					c0.204-1.082,0.196-4.894-8.527-8.571c-2.923-1.133-5.334-1.708-7.165-1.708c-1.687,0-2.518,0.496-2.863,0.792
					c-0.643,0.55-0.865,1.464-0.553,2.261c0.887,2.251,2.905,8.901,1.624,12.585c-0.029,0.082-0.052,0.167-0.07,0.251
					c-0.164,0.79-0.275,3.357,4.117,6.022c-0.928-0.163-1.87-0.259-2.804-0.259c-0.429,0-0.855,0.02-1.276,0.062
					c-0.841,0.084-1.528,0.726-1.693,1.58s0.231,1.718,0.977,2.127c0.032,0.018,2.931,3.188-0.317,17.397l-0.63,3.499
					c-0.229-0.625-0.512-1.258-0.861-1.892c-2.268-4.107-6.544-6.956-12.692-8.458c-2.464-0.633-4.933-1.081-7.455-1.352
					c8.785-7.139,19.699-17.645,19.221-25.463c0.038-1.007,0.06-6.383-3.504-10.317c-2.458-2.713-5.981-4.089-10.473-4.09
					c-0.782,0-1.605,0.042-2.446,0.126c-8.214,0.823-15.579,8.664-21.326,17.384l0.934-5.09c0.309-1.027,1.716-6.487-2.065-9.881
					c-1.559-1.512-6.854-6.073-10.122-7.397c-3.221-1.304-7.097-2.636-11.426-2.637c-8.765-0.001-18.071,5.313-31.086,17.739
					c-0.533,0.485-13.006,11.998-7.737,22.246c0.49,1.05,3.201,4.816,17.504,9.184c0.178,0.054,0.359,0.081,0.539,0.081
					c0.436,0,0.863-0.152,1.21-0.441c0.49-0.409,0.753-1.042,0.704-1.69c-0.014-0.186-1.187-18.752,17.526-36.079
					c0.849-0.708,3.48-2.546,5.445-2.545c0.652,0,1.1,0.202,1.47,0.679c0.121,1.96,0.056,5.107-0.781,9.586
					c-1.487,7.811-5.42,41.316-8.021,63.488c-1.059,9.019-1.895,16.142-2.15,17.958c-0.366,2.716,0.737,8.516,7.528,11.027
					c7.247,2.677,10.915,3.137,11.067,3.153c0.074,0.009,0.146,0.014,0.219,0.014c0.549,0,1.074-0.244,1.441-0.674
					c0.414-0.487,0.57-1.155,0.418-1.784c-0.016-0.063-1.543-6.562-0.267-18.969c0.004-0.035,0.007-0.07,0.009-0.105
					c0.004-0.085,0.119-2.313,0.335-5.73c3.288,7.356,12.506,9.118,15.853,9.119c0.025,0,0.05,0,0.074,0
					c1.08,0.204,2.163,0.309,3.226,0.309c1.391,0,2.738-0.178,4.007-0.528c0.06-0.018,0.119-0.036,0.177-0.059
					c0.594-0.23,12.667-5.078,20.432-19.827l-0.188,1.046c-0.061,0.338-0.035,0.687,0.075,1.011
					c0.109,0.324,2.853,7.948,17.402,10.886c0.123,0.025,0.246,0.037,0.368,0.037c0.573,0,1.125-0.265,1.492-0.735
					c0.375-0.48,7.513-9.64,12.123-17.604c0.351-0.165,0.659-0.424,0.863-0.781c3.784-6.613,6.124-12.295,7.51-17.089l-3.63,19.87
					c-0.068,0.373-0.03,0.76,0.108,1.111c0.137,0.343,3.507,8.452,18.248,11.349c0.119,0.022,0.239,0.034,0.357,0.034
					c0.55,0,1.08-0.243,1.448-0.68c0.249-0.297,3.166-3.776,6.566-8.357c0.955,2.126,2.833,4.306,6.278,5.64
					c6.727,2.31,10.35,3.004,10.501,3.033c0.115,0.021,0.229,0.032,0.344,0.032c0.574,0,1.125-0.267,1.492-0.735
					c0.271-0.347,4.03-5.174,7.86-10.904c1.095,1.44,2.751,2.774,5.196,3.699c6.784,2.451,10.303,3.039,10.449,3.063
					c0.101,0.016,0.202,0.024,0.301,0.024c0.872,0,1.653-0.615,1.862-1.515c2.997-12.925,6.462-26.606,9.149-35.933L1835-220.787
					c-0.068,0.358-0.037,0.729,0.087,1.07c0.125,0.342,3.223,8.412,17.845,11.063c0.112,0.021,0.223,0.03,0.333,0.03
					c0.563,0,1.106-0.257,1.474-0.713c0.244-0.302,3.236-4.03,6.586-8.85c3.889,5.95,10.152,6.748,13.196,6.748
					c1.526,0,2.628-0.178,2.993-0.246c1.32-0.156,3.935-1.516,6.664-8.833c0.661,1.784,1.664,3.411,3.167,4.523
					c0.145,0.107,0.303,0.193,0.47,0.254c4.981,1.84,8.278,2.115,9.801,2.116c0.595,0,0.937-0.041,1.027-0.053
					c0.485-0.068,0.928-0.325,1.234-0.718c0.287-0.366,4.555-5.836,8.623-11.997c3.658,9.607,11.961,10.756,15.686,10.756
					c1.641,0,2.87-0.203,3.291-0.283c1.439-0.14,4.015-1.542,6.764-8.521c0.898,1.41,2.459,2.965,5.164,4.228
					c0.105,0.049,0.216,0.089,0.329,0.118l8.696,2.218c0.152,0.039,0.307,0.058,0.46,0.058c0.555,0,1.091-0.248,1.459-0.693
					c0.293-0.354,4.349-5.278,8.513-11.169c2.615,2.5,7.112,5.381,14.629,6.828c0.266,0.098,0.62,0.18,1.058,0.181
					c1.696,0,3.337-1.15,4.94-3.484c-0.25,1.986-0.542,4.105-0.881,6.301c-2.736,2.413-5.496,4.709-7.949,6.75
					c-4.907,4.083-8.792,7.316-10.503,9.744c-1.356,1.702-3.457,6.388-1.592,10.54c1.891,4.21,7.008,6.345,15.208,6.346
					c1.863,0.001,3.919-0.109,6.111-0.328c1.98-0.106,10.789-2.729,16.783-39.461c2.238-2.859,12.154-15.758,15.498-24.033
					c0.021-0.049,0.038-0.1,0.054-0.15C2012.628-251.752,2013.831-256.197,2012.094-258.659z M1968.635-194.662
					c-0.136,0.014-0.275,0.021-0.416,0.021c-0.697-0.001-1.287-0.188-1.465-0.47c-0.191-0.301-0.2-1.156,0.394-2.581
					c0.875-1.709,5.152-5.721,8.85-9.023C1973.269-196.739,1970.303-194.83,1968.635-194.662z M1935.467-257.915l0.038,0.204
					c-4.702,12.225-10.35,25.289-13.324,30.195C1920.223-242.132,1928.427-252.157,1935.467-257.915z M1813.798-240.55
					c-0.695,4.193-1.402,8.456-2,12.219c-2.042,3.938-4.894,9.029-7.688,12.663c0.152-4.87,0.73-10.061,1.729-15.492l5.618-30.658
					c1.99-0.358,3.934-0.684,5.779-0.979c-0.445,3.771-1.064,8.076-1.918,13.01C1814.847-246.875,1814.323-243.72,1813.798-240.55z
					 M1884.892-250.759c-0.011,0.098-0.021,0.196-0.03,0.295c-4.17,10.757-9.399,22.741-12.221,27.455
					C1870.926-236.412,1878.348-245.494,1884.892-250.759z M1687.201-245.782c4.754-11.942,12.111-24.031,22.623-25.173
					c0.465,0.032,1.257,0.24,1.361,0.587C1711.348-269.829,1711.932-264.792,1687.201-245.782z M1682.804-232.831
					c2.229,1.45,5.057,2.688,8.208,2.688c0.953,0,1.898-0.117,2.813-0.348c0.465-0.083,3.847-0.664,7.54-0.663
					c4.372,0.001,7.488,0.816,8.774,2.295c0.591,0.68,0.81,1.522,0.688,2.659c-0.789,7.675-16.321,20.398-24.751,23.189
					c-0.116-0.198-0.236-0.529-0.211-1.024c0.051-1.019,0.959-4.731,10.451-9.909c1.225-0.441,2.251-1.766,1.904-3.579
					c-0.261-1.368-1.402-2.253-2.907-2.253c-0.185,0-0.3,0.014-0.3,0.014c-0.127,0.015-0.286,0.046-0.408,0.088
					c-0.536,0.179-10.545,3.622-14.566,10.729C1680.692-217.34,1681.636-227.116,1682.804-232.831z"/>
			</g>
			<path fill="#EC4842" d="M2020.355-265.649c-0.922-1.269-2.34-1.967-3.994-1.967l-0.191,0.003
				c-1.117,0.036-2.108,0.686-2.585,1.697c-0.022,0.046-1.617,3.417-3.931,7.609c1.564-8.203,3.591-18.597,4.705-23.433
				c0.017-0.075,0.03-0.151,0.042-0.228c0.04-0.274,0.923-6.766-4.504-10.786c-0.269-0.186-6.663-4.557-13.823-4.558
				c-0.556,0-1.112,0.026-1.654,0.079c-0.87,0.084-1.654,0.546-2.152,1.268c-0.496,0.722-0.648,1.619-0.419,2.452
				c0.02,0.078,1.933,8.066-3.67,28.848c-1.013,2.815-2.143,5.778-3.295,8.649c0.902-6.692,1.98-13.698,3.05-19.745
				c0.173-1.104,1.528-10.89-4.346-14.475c-0.673-0.464-6.775-4.534-13.65-4.535c-0.555,0-1.109,0.026-1.648,0.079
				c-0.869,0.084-1.652,0.546-2.152,1.27c-0.495,0.72-0.646,1.618-0.417,2.461c0.023,0.089,2.341,9.113-0.908,25.694l-3.195,16.257
				c-1.635,2.721-3.182,5.07-4.622,7.021c0.471-3.463,1.288-6.79,2.44-9.926c0.04-0.109,0.073-0.221,0.102-0.338
				c0.069-0.291,1.62-7.182-4.809-11.514c-2.63-1.832-4.908-3.268-6.799-4.284c1.431-0.799,2.371-1.223,2.505-1.282
				c0.877-0.392,1.512-1.189,1.699-2.134c0.186-0.944-0.101-1.922-0.763-2.616c-0.108-0.113-2.685-2.805-6.511-5.518
				c-4.185-2.725-9.541-3.232-9.767-3.252c-0.088-0.008-0.178-0.012-0.266-0.012c-0.096,0-0.192,0.004-0.287,0.014
				c-4.981,0.484-9.863,3.761-14.116,9.474c-5.254,7.058-9.102,17.224-10.066,26.581c-1.479,2.69-3.5,6.165-5.616,9.215
				c0.249-3.793,0.718-7.706,1.399-11.663l6.942-36.419c0.362-1.191,1.706-6.578-2.247-10.073
				c-3.354-3.192-14.454-6.335-17.776-7.223c-0.25-0.066-0.507-0.1-0.765-0.1c-1.214,0-2.323,0.761-2.762,1.895
				c-0.467,1.21-0.094,2.57,0.906,3.373c0.367,0.603,2.764,5.419-0.209,24.559c-3.366-1.494-6.74-1.753-6.899-1.765
				c-0.07-0.005-0.142-0.008-0.214-0.008c-0.096,0-0.193,0.004-0.287,0.014c-4.695,0.457-9.289,3.536-13.287,8.903
				c-6.188,8.313-10.195,21.285-9.601,30.992c-0.305,0.481-0.606,0.946-0.903,1.393c0.541-5.846,1.464-12.497,2.752-19.841
				c0.157-1.048,1.358-10.342-4.382-13.937c-0.67-0.454-6.733-4.435-13.343-4.436c-0.521,0-1.039,0.024-1.545,0.073
				c-0.137,0.014-0.272,0.037-0.401,0.068c-0.713,0.17-1.682,0.65-2.851,1.833l1.867-9.988c0.391-1.214,1.81-6.617-2.352-10.404
				c-1.352-1.219-3.813-2.467-6.497-3.591c0.736,0.16,1.378,0.236,2.026,0.236c0.257,0,0.51-0.012,0.762-0.037
				c1.13-0.11,2.11-0.871,2.497-1.938c0.387-1.067,0.121-2.28-0.677-3.089c-3.306-3.35-3.816-12.707-1.521-27.814
				c0.222-0.851,0.659-2.413,1.22-4.354c2.165,2.208,5.51,3.442,9.479,3.443c0.674,0,1.375-0.035,2.084-0.104
				c0.219-0.021,0.437-0.068,0.647-0.138c0.666-0.222,14.177-5.037,18.489-28.202c-1.333,14.738-3.914,31.354-5.309,40.323
				l-0.03,0.198c-0.486,3.131-0.81,5.216-0.94,6.304c-0.519,2.295-4.169,20.277,7.445,25.365c0.071,0.033,0.148,0.062,0.229,0.09
				c1.44,0.494,2.676,0.925,3.796,1.316c4.384,1.531,6.2,2.165,8.09,2.166c0.258,0,0.51-0.013,0.763-0.037
				c1.13-0.11,2.11-0.872,2.497-1.938c0.387-1.067,0.12-2.279-0.678-3.088c-2.265-2.296-3.647-13.225-0.734-37.014
				c0.503-4.11,1.276-8.629,2.303-13.46c2.166,2.242,5.578,3.53,9.554,3.531c0.674,0,1.375-0.035,2.084-0.104
				c0.22-0.022,0.437-0.068,0.647-0.138c0.58-0.193,10.905-3.859,16.412-20.1l-0.682,3.465c-0.106,0.55-0.057,1.117,0.145,1.638
				c0.147,0.38,3.782,9.331,19.818,12.344c0.428,0.141,0.883,0.213,1.352,0.213c1.368,0,2.696-0.559,3.973-1.667
				c-0.155,1.083-0.315,2.152-0.481,3.203c-2.841,2.422-5.696,4.728-8.233,6.776c-5.3,4.28-9.485,7.661-11.348,10.229
				c-1.814,2.208-3.913,7.392-1.826,11.902c2.185,4.717,7.934,7.11,17.088,7.111c2.019,0,4.247-0.116,6.576-0.342
				c2.783-0.142,12.348-3.56,18.761-41.466c3.206-3.987,13.056-16.579,16.552-24.976c0.03-0.073,0.057-0.146,0.08-0.218
				c0.605-1.866,1.791-6.512-0.263-9.336c-0.936-1.286-2.375-1.995-4.069-1.995l-0.181,0.003c-1.117,0.035-2.108,0.685-2.587,1.702
				c-0.023,0.05-1.908,4.028-4.561,8.76c1.237-6.833,2.462-13.392,3.481-17.813c0.018-0.076,0.03-0.152,0.042-0.227
				c0.042-0.282,0.967-6.94-4.627-11.084c-0.276-0.192-6.875-4.708-14.277-4.709c-0.574,0-1.149,0.027-1.706,0.082
				c-1.405,0.137-2.524,1.256-2.66,2.66c-0.095,0.964,0.289,1.907,1.014,2.53c0.285,0.854,1.194,5.311-3.057,21.083
				c-1.333,3.707-2.874,7.685-4.399,11.38c0.567-5.049,1.32-10.238,2.25-15.503c0.181-1.138,1.582-11.223-4.458-14.907
				c-0.693-0.479-6.987-4.686-14.099-4.687c-0.575,0-1.147,0.027-1.701,0.081c-1.3,0.126-2.377,1.111-2.622,2.395
				c-0.212,1.119,0.231,2.247,1.134,2.922c0.318,0.476,2.313,4.128-0.344,17.683l-1.009,5.127c0.143-1.709,0.247-3.483,0.292-5.355
				c0.061-0.878,0.356-8.785-7.577-15.768c-0.077-0.068-0.158-0.132-0.25-0.197c-2.876-2.03-5.692-3.059-8.374-3.06
				c-5.469-0.001-9.711,4.03-12.631,11.992c-1.014-1.74-2.157-2.889-3.13-3.75c-3.032-2.533-6.778-4.876-13.592-4.877
				c-1.104,0-2.294,0.061-3.538,0.182c-1.294,0.126-2.372,1.105-2.619,2.384c-0.248,1.278,0.386,2.589,1.474,3.147
				c0.083,0.073,1.463,1.418,1.582,10.32c-0.728-3.115-2.561-7.434-7.128-11.454c-0.079-0.07-0.161-0.135-0.25-0.197
				c-2.875-2.03-5.692-3.06-8.374-3.06c-5.469-0.001-9.711,4.031-12.631,11.991c-1.015-1.739-2.157-2.888-3.13-3.749
				c-3.031-2.532-6.775-4.876-13.591-4.877c-1.104,0-2.295,0.061-3.538,0.182c-1.295,0.126-2.373,1.106-2.621,2.384
				c-0.247,1.278,0.387,2.589,1.54,3.189c0.03,0.015,2.909,1.727,1.525,19.321c-0.248,3.149-0.629,6.731-1.133,10.647
				c-2.183,3.753-4.224,6.898-6.096,9.393c0.479-3.754,1.349-7.358,2.595-10.749c0.04-0.11,0.074-0.222,0.102-0.338
				c0.071-0.299,1.665-7.374-4.943-11.83c-2.02-1.407-4.75-3.211-7.231-4.527c1.592-0.896,2.647-1.374,2.793-1.438
				c0.879-0.392,1.515-1.189,1.7-2.134c0.186-0.945-0.101-1.923-0.764-2.617c-0.112-0.118-2.79-2.91-6.734-5.708
				c-4.33-2.82-9.852-3.336-10.075-3.356c-0.09-0.009-0.182-0.013-0.273-0.013c-0.096,0-0.191,0.004-0.287,0.014
				c-5.136,0.5-10.173,3.883-14.565,9.785c-3.696,4.966-6.629,11.311-8.48,17.752l6.956-37.305
				c0.477-1.409,2.236-7.695-2.593-11.628c-4.099-3.841-15.883-8.815-16.382-9.025c-0.359-0.152-0.739-0.229-1.131-0.229
				c-0.803,0-1.585,0.335-2.146,0.92c-0.843,0.877-1.06,2.213-0.544,3.311c0.02,0.044,1.931,4.541,0.031,15.292
				c-0.787,3.258-1.823,8.777-3.025,15.175l-0.065,0.351c-0.379,2.014-0.776,4.125-1.19,6.295
				c-4.721-0.778-10.264-1.205-15.735-1.206c-0.78,0-1.563,0.008-2.346,0.025l2.667-15.193c0.443-1.392,2.081-7.637-2.596-11.579
				c-1.885-1.755-5.151-3.656-8.125-5.292c-1.643-1.596-7.223-6.263-16.222-6.265c-8.53-0.001-17.411,4.206-26.388,12.497
				c-0.627,0.564-15.282,13.942-8.951,25.733c0.785,1.543,4.348,5.644,20.419,10.357c0.101,0.03,0.203,0.053,0.306,0.072
				c-3.648,2.035-7.185,4.37-10.533,6.966c-0.507,0.371-1.382,1.23-1.551,2.814c-0.253,2.364,0.838,6.305,11.605,15.872
				c0.542,0.481,1.24,0.747,1.965,0.747c0.31,0,0.615-0.048,0.91-0.143c0.992-0.321,1.752-1.152,1.979-2.168
				c0.016-0.067,1.438-5.995,6.785-11.854c-1.352,6.054-2.971,12.859-4.427,18.98c-2.431,10.222-3.93,16.583-4.097,18.429
				c-0.428,3.224,0.85,10.149,8.731,13.284c0.077,0.031,0.154,0.058,0.229,0.081c8.285,2.543,12.486,3.378,12.662,3.412
				c0.188,0.037,0.378,0.055,0.567,0.055c0.649,0,1.291-0.218,1.804-0.613c0.675-0.517,1.094-1.3,1.151-2.15
				c0.016-0.23,1.638-23.634,5.588-45.341l3.419-17.867c1.8-0.168,3.719-0.253,5.716-0.253c3.786,0,7.979,0.307,12.476,0.91
				c-2.741,16.07-8.998,53.93-9.402,58.043c-0.461,3.252,0.885,10.214,9.311,13.296c7.936,2.6,12.292,3.426,12.475,3.461
				c0.18,0.033,0.36,0.049,0.541,0.049c0.674,0,1.334-0.233,1.858-0.655c0.675-0.543,1.076-1.352,1.102-2.217
				c0.01-0.338,0.976-31.259,4.069-53.122c-0.131,2.773-0.001,5.402,0.459,7.741c2.889,14.697,14.199,16.285,18.929,16.286
				c1.819,0,3.185-0.216,3.598-0.297c1.854-0.17,4.583-1.73,7.388-7.96c1.227,1.356,2.87,2.505,4.906,3.427
				c0.164,0.075,0.335,0.134,0.511,0.177l9.298,2.301c0.232,0.058,0.472,0.087,0.711,0.087c0.869,0,1.692-0.379,2.254-1.041
				c0.061-0.07,1.063-1.247,2.567-3.104c-0.128,0.807-0.224,1.455-0.284,1.954c-0.503,2.222-3.939,19.127,6.371,24.834
				c-0.064-0.019-0.148-0.043-0.203-0.059c-0.29-0.084-0.592-0.127-0.897-0.127c-1.071,0-2.019,0.511-2.533,1.367
				c-0.659,1.101-0.585,2.385,0.177,3.317c0.265,0.61,1.57,4.218,0.978,14.688c-1.058,0.116-2.123,0.23-3.176,0.343
				c-0.009-2.104-0.607-4.64-2.876-6.553c-3.542-3.224-15.495-6.633-17.856-7.284c-0.278-0.077-0.569-0.116-0.861-0.116
				c-1.088,0-2.042,0.52-2.552,1.393c-0.647,1.105-0.562,2.386,0.208,3.311c0.241,0.546,1.351,3.518,1.144,11.681
				c-9.048,1.066-13.372,1.854-15.325,2.786c-5.366,2.59-5.59,6.671-4.863,8.73c0.876,3.923,3.647,6.262,7.425,6.263
				c1.616,0,3.717-0.499,4.764-1.9c0.319-0.425,0.514-0.917,0.572-1.432c0.926-0.409,2.771-1.058,6.387-1.918
				c-0.452,3.586-1.097,7.552-1.965,12.095c-0.8,5.166-1.855,11.176-2.787,16.48l-0.078,0.445c-1.926,3.314-3.742,6.156-5.424,8.489
				c0.51-6.443,1.463-13.54,2.842-21.15c0.011-0.06,0.021-0.119,0.027-0.18c0.157-1.329,0.462-5.854-2.199-8.316
				c-0.08-0.074-0.163-0.143-0.25-0.207c-0.262-0.194-6.499-4.758-14.462-5.933c-1.603-0.347-3.128-0.678-4.415-0.9
				c-2.738-5.268-7.104-7.629-9.309-7.882c-0.517-0.04-1.031-0.069-1.529-0.069c-0.861,0-3.484,0-5.227,2.07
				c-0.883,1.048-1.354,2.406-1.419,4.117c-0.082-1.733-0.05-3.587,0.248-5.171c0.316-1.625,0.035-5.821-9.407-9.684
				c-3.125-1.175-5.726-1.771-7.731-1.771c-1.945,0-3.021,0.554-3.581,1.02c-0.997,0.828-1.339,2.19-0.854,3.391
				c1.215,2.994,2.739,8.868,1.659,11.882c-0.044,0.123-0.08,0.249-0.108,0.378c-0.187,0.875-0.252,2.816,1.924,4.988
				c-0.344,0.008-0.685,0.029-1.016,0.062c-1.309,0.127-2.361,1.079-2.617,2.369c-0.243,1.213,0.281,2.421,1.309,3.074
				c0.359,0.576,2.227,4.323-0.633,16.462l-0.115,0.625c-2.561-3.992-7.029-6.768-13.29-8.253c-1.835-0.457-3.646-0.815-5.481-1.083
				c9.021-7.347,18.793-17.134,18.354-24.785c0.04-1.215-0.002-6.828-3.878-10.979c-2.728-2.921-6.602-4.403-11.513-4.404
				c-0.837,0-1.717,0.044-2.616,0.132c-6.662,0.647-13.405,5.411-20.083,14.173l0.125-0.66c0.387-1.281,1.846-7.131-2.411-10.836
				c-1.221-1.149-6.971-6.113-10.746-7.597c-3.404-1.338-7.508-2.705-12.134-2.706c-9.303-0.002-19.083,5.382-32.686,17.985
				c-0.573,0.506-13.981,12.519-8.208,23.414c0.704,1.464,3.931,5.341,18.646,9.703c0.271,0.08,0.552,0.121,0.835,0.121
				c0.678,0,1.341-0.235,1.867-0.661c0.758-0.613,1.165-1.561,1.09-2.531c-0.013-0.182-1.063-18.38,17.696-35.238
				c0.937-0.759,3.389-2.326,4.989-2.325c0.265,0,0.426,0.041,0.55,0.122c0.085,1.834-0.006,4.795-0.81,8.966
				c-1.541,7.86-5.594,41.379-8.275,63.56l-0.035,0.292c-1.072,8.86-1.919,15.857-2.18,17.649c-0.414,2.99,0.808,9.367,8.403,12.092
				c7.656,2.745,11.471,3.188,11.625,3.205c0.113,0.014,0.226,0.021,0.338,0.021c0.851,0,1.662-0.368,2.227-1.01
				c0.641-0.729,0.882-1.729,0.646-2.675c-0.015-0.063-1.538-6.483-0.251-18.62c0.007-0.058,0.011-0.116,0.016-0.214
				c0.013-0.229,0.063-1.146,0.148-2.567c4.387,5.563,12.305,6.916,15.53,6.942c1.144,0.204,2.292,0.309,3.413,0.309
				c1.52,0,2.994-0.189,4.396-0.564c0.088-0.025,0.174-0.053,0.264-0.086c0.509-0.191,11.841-4.58,20.006-17.597
				c1.131,2.162,5.379,8.223,18.323,10.758c0.19,0.038,0.381,0.056,0.57,0.056c0.901,0,1.741-0.401,2.307-1.104
				c0.313-0.388,7.641-9.515,12.428-17.478c0.434-0.254,0.788-0.604,1.035-1.024c1.49-2.528,2.816-5.009,3.972-7.433l-1.793,9.529
				c-0.106,0.562-0.048,1.139,0.168,1.669c0.149,0.363,3.835,8.95,19.533,11.943c0.184,0.035,0.369,0.052,0.552,0.052
				c0.858,0,1.675-0.372,2.237-1.02c0.299-0.345,2.797-3.239,5.889-7.216c1.107,1.685,3.012,3.558,6.29,4.79
				c6.797,2.264,10.547,2.992,10.958,3.068c0.177,0.032,0.354,0.047,0.528,0.047c0.9,0,1.741-0.401,2.307-1.103
				c0.396-0.493,3.78-4.719,7.427-9.929c1.287,1.288,2.938,2.306,4.931,3.037c6.917,2.424,10.547,3.044,10.941,3.106
				c0.155,0.025,0.311,0.037,0.464,0.037c1.375,0,2.558-0.935,2.878-2.272c1.004-4.199,2.038-8.401,3.069-12.47
				c0.032,0.171,0.078,0.34,0.14,0.504c0.136,0.364,3.516,8.94,19.142,11.689c0.172,0.031,0.343,0.045,0.513,0.045
				c0.884,0,1.714-0.389,2.28-1.07c0.313-0.379,2.96-3.588,6.033-7.806c4.209,5.241,10.239,6.061,13.59,6.062
				c1.642,0,2.828-0.184,3.197-0.253c1.735-0.198,4.256-1.694,6.822-7.4c0.715,1.199,1.592,2.174,2.621,2.912
				c0.224,0.161,0.468,0.289,0.727,0.382c5.272,1.89,8.799,2.173,10.431,2.173c0.657,0,1.051-0.043,1.192-0.062
				c0.755-0.104,1.433-0.486,1.906-1.075c0.172-0.214,3.965-4.915,7.93-10.604c4.326,8.74,12.77,9.729,16.351,9.73
				c1.756,0,3.082-0.208,3.484-0.288c1.792-0.168,4.427-1.662,7.13-7.593c1.181,1.27,2.742,2.348,4.662,3.216
				c0.162,0.074,0.333,0.133,0.508,0.177l8.963,2.217c0.233,0.058,0.472,0.087,0.71,0.087c0.869,0,1.691-0.379,2.254-1.042
				c0.434-0.508,4.166-4.917,8.179-10.355c2.711,2.255,7.306,4.947,14.664,6.333c0.421,0.14,0.872,0.21,1.342,0.21
				c1.267,0,2.499-0.487,3.682-1.454c-0.133,0.93-0.271,1.855-0.417,2.77c-2.718,2.319-5.462,4.534-7.893,6.496
				c-5.116,4.131-9.158,7.395-10.966,9.885c-1.764,2.148-3.805,7.192-1.772,11.581c2.124,4.59,7.697,6.917,16.566,6.919
				c1.951,0,4.103-0.112,6.349-0.329c2.702-0.142,11.981-3.45,18.173-40.028c2.408-2.998,12.514-15.82,15.952-24.076
				c0.03-0.074,0.057-0.148,0.081-0.223C2021.213-258.369,2022.363-262.887,2020.355-265.649z M1927.646-307.608
				c-0.114,0.011-0.232,0.017-0.352,0.017c-0.372,0-0.64-0.06-0.78-0.111c-0.009-0.212,0.026-0.747,0.439-1.712
				c0.343-0.651,1.707-2.395,6.818-6.959C1931.174-308.818,1928.681-307.709,1927.646-307.608z M1692.238-367.082
				c-0.42-0.482-10.044-12.029,10.094-29.892c0.839-0.688,3.69-2.65,5.719-2.649c0.449,0,0.744,0.093,1.002,0.331
				c0.165,2.85-0.141,6.234-0.936,10.332c-0.267,1.397-0.648,3.277-1.104,5.521c-0.801,3.938-1.885,9.281-2.924,14.906
				c-3.833,1.195-7.653,2.747-11.382,4.613C1693.171-364.958,1693-366.205,1692.238-367.082z M1840.685-344.604
				c2.001-6.504,5.335-17.074,7.936-23.992c0.093,4.515-0.442,10.16-2.223,15.145
				C1845.027-349.614,1843.111-346.651,1840.685-344.604z M1887.84-348.486c3.002-11.02,6.454-20.81,8.913-26.426
				c0.24,4.372-0.047,10.885-2.149,16.771C1893.04-353.765,1890.77-350.528,1887.84-348.486z M1793.837-360.022
				c-4.294,10.619-8.654,20.305-11.536,25.661C1781.727-345.879,1787.656-354.368,1793.837-360.022z M1974.682-202.055
				c-0.109,0.011-0.221,0.017-0.332,0.017c-0.287,0-0.507-0.04-0.644-0.079c0.004-0.229,0.066-0.719,0.411-1.525
				c0.32-0.605,1.577-2.216,6.242-6.403C1977.932-203.167,1975.636-202.148,1974.682-202.055z M1938.362-261.1
				c-3.976,9.804-8.016,18.787-10.749,23.934C1927.221-247.822,1932.639-255.747,1938.362-261.1z M1886.184-253.899
				c-3.44,8.377-7.063,16.363-9.588,21.155C1876.416-242.153,1881.129-249.137,1886.184-253.899z M1815.82-256.36
				c-0.464,2.777-0.977,5.777-1.493,8.799l-0.073,0.435c-0.707,4.136-1.426,8.338-2.035,12.063
				c-1.529,2.855-3.627,6.549-5.819,9.742c0.271-3.854,0.806-7.899,1.596-12.067l5.662-29.986c1.352-0.233,2.681-0.452,3.971-0.656
				C1817.159-264.388,1816.553-260.472,1815.82-256.36z M1745.584-256.026c0.498-0.668,0.691-1.521,0.532-2.336
				c-0.006-0.026-0.213-1.111-0.402-2.687c0.947,4.318,5.174,6.532,8.991,7.96c-0.179,9.597-5.649,20.855-5.706,20.97
				c-0.163,0.333-0.255,0.708-0.273,1.118c-1.514,2.625-3.563,5.998-5.71,9c0.19-1.83,0.418-3.857,0.665-6.075
				c0.397-3.558,0.893-7.983,1.36-12.804c0.313-1.691,1.615-10.236-3.247-13.88c0.929-0.02,1.557-0.073,1.702-0.087
				C1744.325-254.929,1745.086-255.358,1745.584-256.026z M1694.57-219.451c1.562-0.583,3.002-2.276,2.53-4.674
				c-0.359-1.824-1.952-3.049-3.964-3.049c-0.258,0-0.42,0.02-0.419,0.02c-0.101,0.012-0.363,0.046-0.615,0.13
				c-0.394,0.127-8.435,2.788-13.435,8.302c0.718-8.26,1.495-14.733,2.276-18.965c2.586,1.408,5.189,2.12,7.759,2.12
				c1.061,0,2.114-0.127,3.067-0.363c0.384-0.066,3.855-0.649,7.601-0.648c4.16,0.001,7.188,0.718,8.307,1.966
				c0.296,0.331,0.582,0.814,0.463,1.897c-0.731,6.908-15.298,18.631-23.688,21.944
				C1684.746-211.865,1686.307-215.065,1694.57-219.451z M1687.172-255.239c4.454-9.721,11.377-20.068,20.927-21.137
				c0.15,0.017,0.308,0.052,0.431,0.09C1708.364-275.169,1706.465-269.983,1687.172-255.239z"/>
			<g>
				<g>
					<path fill="#FFE9C8" d="M1769.304-395.94l-8.217,44.067c-3.924,22.284-5.027,59.366-5.027,59.366s-4.238-0.79-12.094-3.363
						c-8.36-3.06-7.295-10.107-7.295-10.107c0.348-3.775,7.223-45.426,9.896-60.909c-9.411-1.489-17.497-1.77-24.123-0.859
						l-3.827,20.002c-4.057,22.297-5.634,45.7-5.634,45.7s-4.105-0.803-12.361-3.337c-7.825-3.112-6.895-10.146-6.895-10.146
						c0.348-3.775,7.343-30.777,10.278-45.621c-11.826,7.694-14.363,19.027-14.363,19.027
						c-13.686-12.159-10.256-14.094-10.256-14.094c8.268-6.413,17.322-10.899,25.961-13.341c1.694-9.38,3.545-17.975,4.35-22.193
						c1.081-5.58,1.16-9.326,0.913-11.973c-3.403-5.545-11.486,1.117-11.486,1.117c-22.832,20.249-10.44,34.133-10.44,34.133
						c-16.753-4.913-18.62-8.872-18.62-8.872c-5.349-9.897,8.299-22.176,8.299-22.176c24.075-22.238,38.827-6.045,38.827-6.045
						c2.898,1.586,6.274,3.53,7.944,5.104c3.741,3.108,1.7,8.648,1.7,8.648l-3.34,19.022c9.693-0.543,18.442,0.342,23.984,1.539
						c2.023-10.479,3.693-19.99,4.821-24.641c2.197-12.365-0.251-17.202-0.251-17.202s11.87,4.989,15.555,8.503
						C1771.479-401.494,1769.304-395.94,1769.304-395.94z"/>
					<path fill="#FFE9C8" d="M1826.285-351.802c-4.125,9.484-17.396,25.063-17.396,25.063l-9.299-2.301
						c-5.826-2.639-5.612-6.398-5.612-6.398c1.788-7.521,2.556-14.005,2.912-19.115c-4.91,29.725-11.156,29.798-11.156,29.798
						s-15.933,3.42-19.28-13.615c-2.937-14.94,8.206-42.732,22.096-44.083c0,0,4.987,0.45,8.733,2.889
						c3.639,2.584,6.208,5.272,6.208,5.272s-30.418,13.508-24.83,41.945c0.052,0.262,0.052,0.262,0.104,0.524
						c1.493,7.601,17.94-34.062,17.94-34.062c-0.335-1.704-0.489-2.489-0.489-2.489c-0.278-2.11,6.181,1.669,11.227,5.184
						c5.021,3.385,3.755,8.715,3.755,8.715c-2.749,7.48-3.28,14.475-3.21,19.678c7.379-5.391,16.805-24.604,16.805-24.604
						C1828.875-359.399,1826.285-351.802,1826.285-351.802z"/>
					<path fill="#FFE9C8" d="M1864.299-372.326c-0.768,32.794-17.757,38.454-17.757,38.454c-9.75,0.948-12.584-5.854-9.812-9.062
						c15.875-6.484,14.359-33.582,12.227-37.514c-2.288-4.718-17.43,48.438-17.814,49.944c-1.961,12.876-2.611,25.494,2.317,30.489
						c-1.869,0.182-3.813-0.697-11.4-3.298c-9.979-4.372-5.713-22.147-5.713-22.147c0.74-6.616,10.747-54.731,2.104-59.231
						c7.612-0.74,11.364,1.03,14.946,4.021c2.307,2.045,4.846,5.272,4.831,14.888c3.946-25.623,13.174-24.386,19.494-19.925
						C1864.963-379.334,1864.299-372.326,1864.299-372.326z"/>
					<path fill="#FFE9C8" d="M1912.505-377.014c-0.769,32.794-17.758,38.454-17.758,38.454c-9.749,0.948-12.583-5.854-9.812-9.062
						c15.875-6.484,14.359-33.582,12.227-37.514c-2.288-4.718-15.866,33.543-19.007,59.196c-1.586,12.956-3.362,34.458,1.567,39.454
						c-1.869,0.182-3.813-0.697-11.4-3.299c-9.979-4.372-5.714-22.147-5.714-22.147c0.741-6.616,12.69-72.948,4.049-77.448
						c7.612-0.74,11.363,1.03,14.945,4.021c2.307,2.045,4.847,5.272,4.831,14.888c3.947-25.623,13.174-24.385,19.494-19.925
						C1913.169-384.021,1912.505-377.014,1912.505-377.014z"/>
					<path fill="#FFE9C8" d="M1971.053-368.551c-3.884,9.326-16.729,24.999-16.729,24.999c0.026,0.132,0.026,0.132,0.052,0.262
						c-6.579,39.235-16.083,39.358-16.083,39.358c-27.511,2.675-21.432-11.403-19.332-13.88c2.562-3.586,11.281-9.776,20.01-17.301
						c1.173-7.192,1.944-14.345,2.357-19.862c-5.293,16.007-9.146,13.711-9.146,13.711c-14.821-2.699-17.862-10.551-17.862-10.551
						l4.766-24.234c3.602-18.379-0.787-20.624-0.787-20.624c7.078-0.688,13.877,4.127,13.877,4.127
						c4.624,2.755,3.17,11.978,3.17,11.978c-2.642,14.947-3.196,25.284-3.481,31.454c2.752-4.006,7.938-16.397,11.369-25.944
						c6.223-23.041,2.175-24.251,2.175-24.251c7.079-0.688,14.011,4.114,14.011,4.114c4.142,3.069,3.385,8.218,3.385,8.218
						c-1.764,7.649-4.16,21.771-6.074,32.108c6.189-7.281,12.722-21.137,12.722-21.137
						C1973.509-376.134,1971.053-368.551,1971.053-368.551z M1937.746-328.186c-7.009,5.892-13.509,11.599-14.781,14.125
						c-2.252,5.162,1.103,6.305,3.641,6.058C1932.08-308.536,1935.507-317.416,1937.746-328.186z"/>
				</g>
				<g>
					<path fill="#FFE9C8" d="M1696.535-246.946c3.551,0.042,7.818,0.399,12.648,1.602c16.924,4.018,12.975,16.631,12.975,16.631
						c-6.836,20.617-23.45,26.867-23.45,26.867c-2.243,0.604-4.608,0.576-6.792,0.144c-1.159,0.113-13.681-0.856-15.566-10.455
						c-0.442-10.255,15.339-15.393,15.339-15.393s1.029-0.1,1.179,0.657c0.223,1.137-0.781,1.362-0.781,1.362
						c-17.122,9.002-11.302,15.258-9.936,14.868c8.843-2.403,26.641-15.978,27.605-25.081c1.129-10.278-19.893-6.432-19.893-6.432
						c-4.998,1.258-9.634-1.638-12.142-3.711c-2.922,9.167-4.682,42.675-4.682,42.675c-1.379,13.005,0.323,19.661,0.323,19.661
						s-3.625-0.419-10.965-3.051c-7.338-2.633-6.47-8.897-6.47-8.897c0.892-6.136,8.301-70.315,10.463-81.338
						c0.909-4.723,1.011-8.209,0.797-10.633c-2.948-4.992-10.299,1.001-10.299,1.001c-20.404,18.331-18.782,37.769-18.782,37.769
						c-15.044-4.458-16.817-8.146-16.817-8.146c-4.799-9.06,7.499-19.91,7.499-19.91c21.42-19.845,30.822-19.048,41.777-14.744
						c2.95,1.159,8.188,5.48,9.8,6.997c3.323,2.896,1.563,7.957,1.563,7.957l-3.022,15.998c4.615-8.557,14.559-24.714,26.144-25.84
						c15.705-1.527,14.756,12.339,14.756,12.339C1720.446-266.132,1705.588-253.617,1696.535-246.946z M1706.697-282.688
						c-13.518,1.314-22.331,17.874-27.428,32.658C1724.551-282.623,1706.697-282.688,1706.697-282.688z"/>
					<path fill="#FFE9C8" d="M1753.84-231.665c-3.483,8.32-15.188,22.845-15.188,22.845c-14.055-2.753-16.449-9.601-16.449-9.601
						l4.013-21.628c4.008-16.996-0.684-19.499-0.684-19.499c5.924-0.576,13.07,3.749,13.07,3.749
						c3.814,2.718,2.184,11.114,2.184,11.114c-1.307,13.385-2.657,22.528-2.669,27.806c6.261-4.856,14.532-20.849,14.532-20.849
						C1756.766-238.127,1753.84-231.665,1753.84-231.665z M1741.453-273.324c-0.963,5.113,0.428,12.188,0.428,12.188
						s-5.149,0.5-9.641-0.996c-5.487-2.555-5.008-4.79-5.008-4.79c1.864-5.201-1.701-13.993-1.701-13.993s1.579-1.313,8.378,1.245
						C1742.041-276.343,1741.453-273.324,1741.453-273.324z"/>
					<path fill="#FFE9C8" d="M1793.723-236.958c-3.823,9.252-16.87,24.294-16.87,24.294c-14.313-2.729-17.345-10.155-17.345-10.155
						l4.492-23.865c0.563-3.144,0.943-5.883,1.085-7.829c-0.223-1.137-1.788-1.756-4.021-2.441
						c0.646,6.632-1.223,16.468-9.194,29.986l-1.542-7.187c0,0,6.657-13.52,5.964-24.393c-4.211-1.393-8.366-3.177-9.036-6.587
						c-0.987-5.698,1.869-5.846,4.8-5.616c1.209,0.14,5.284,2.188,7.535,7.635c1.338,0.127,3.393,0.569,5.859,1.104
						c7.427,1.079,13.26,5.403,13.26,5.403c1.764,1.631,1.271,5.797,1.271,5.797c-2.518,13.89-3.206,23.74-3.301,29.927
						c6.908-5.563,15.653-23.147,15.653-23.147C1796.141-244.016,1793.723-236.958,1793.723-236.958z M1755.119-263.84
						c-0.506-1.239-1.117-2.339-1.982-3.413c0,0-3.3-2.768-2.941,1.06C1750.622-264.691,1752.781-264.387,1755.119-263.84z"/>
					<path fill="#FFE9C8" d="M1834.234-279.771c-0.69,3.156-3.522,3.432-3.522,3.432s-10.017,1.102-20.913,3.063l-6.042,31.997
						c-1.739,9.179-1.969,16.024-1.822,20.772c6.468-5.134,14.698-22.668,14.698-22.668c3.758-0.238,1.471,6.807,1.471,6.807
						c-3.536,8.712-15.349,23.375-15.349,23.375s-3.673-0.672-10.552-2.964c-6.799-2.555-5.96-8.3-5.96-8.3
						c0.813-5.873,3.405-19.382,5.023-29.838c1.23-6.427,2.014-11.78,2.434-16.326c-8.322,1.708-14.512,3.599-12.724,5.355
						c-0.623,0.833-5.905,1.99-6.973-3.44c0,0-1.367-2.958,3.305-5.213c2.039-0.972,8.812-1.888,16.897-2.802
						c0.685-13.196-1.584-16.065-1.584-16.065s13.454,3.711,16.649,6.619c3.146,2.656,1.44,7.327,1.44,7.327l-0.183,0.402
						c11.946-1.289,22.245-2.291,21.917-3.29C1832.198-282.792,1834.968-281.388,1834.234-279.771z"/>
					<path fill="#FFE9C8" d="M1869.992-243.99c-3.331,9.079-15.426,23.64-15.426,23.64c-14.133-2.487-16.883-9.813-16.883-9.813
						l4.434-22.829c0.942-5.885,1.385-10.305,1.226-13.122c-2.427-2.338-14.521,48.266-14.521,48.266s-3.52-0.557-10.424-2.977
						c-6.928-2.543-5.936-8.175-5.936-8.175c0.765-6.123,3.202-19.747,4.949-30.215c5.924-33.271,1.361-39.135,1.361-39.135
						s13.352,3.851,16.699,6.871c3.195,2.908,1.465,7.454,1.465,7.454l-7.035,37.627c6.196-24.545,11.581-25.84,11.581-25.84
						c6.438-0.626,12.965,3.886,12.965,3.886c4.329,2.67,3.086,11.029,3.086,11.029c-2.413,13.75-3.201,23.093-3.322,29.155
						c6.523-5.526,14.466-22.518,14.466-22.518C1872.305-250.908,1869.992-243.99,1869.992-243.99z"/>
					<path fill="#FFE9C8" d="M1916.249-248.231c-3.585,8.459-15.188,22.845-15.188,22.845s-3.451,0.465-10.228-1.965
						c-4.581-3.288-3.611-13.036-3.611-13.036s0,0,0.13-0.013c-3.902,16.856-8.072,17.004-8.072,17.004s-14.376,2.941-17.354-12.214
						c-2.656-13.516,7.376-38.562,19.862-39.775c0,0,4.526,0.332,7.854,2.583c0.459,0.342,1.051,0.669,1.484,0.884
						c5.096-28.813-0.16-31.521-0.16-31.521s13.43,3.586,16.498,6.506c3.016,2.668,1.414,7.199,1.414,7.199l-6.977,36.592
						c-1.531,8.902-1.734,15.871-1.639,20.369c6.365-4.997,14.645-22.278,14.645-22.278
						C1918.433-255.136,1916.249-248.231,1916.249-248.231z M1889.894-264.847c-7.702,4.867-20.569,16.159-16.97,34.473
						c0.05,0.255,0.074,0.38,0.1,0.507c1.365,6.946,16.037-29.88,16.037-29.88C1889.228-261.563,1889.574-263.142,1889.894-264.847z
						"/>
					<path fill="#FFE9C8" d="M1969.869-253.702c-3.976,9.142-16.768,24.157-16.768,24.157l-8.962-2.217
						c-5.615-2.543-5.411-6.167-5.411-6.167c1.724-7.25,2.465-13.5,2.808-18.425c-4.732,28.651-10.753,28.722-10.753,28.722
						s-15.357,3.296-18.584-13.124c-2.83-14.4,7.911-41.188,21.299-42.49c0,0,4.806,0.434,8.416,2.785
						c3.508,2.491,5.984,5.082,5.984,5.082s-29.319,13.02-23.933,40.429c0.05,0.252,0.05,0.252,0.099,0.505
						c1.44,7.326,17.293-32.832,17.293-32.832c-0.323-1.642-0.472-2.399-0.472-2.399c-0.268-2.034,5.958,1.608,10.82,4.996
						c4.841,3.263,3.621,8.401,3.621,8.401c-2.65,7.209-3.162,13.952-3.096,18.967c7.112-5.196,16.198-23.715,16.198-23.715
						C1972.367-261.024,1969.869-253.702,1969.869-253.702z"/>
					<path fill="#FFE9C8" d="M2016.479-260.809c-3.743,8.989-16.124,24.095-16.124,24.095c0.025,0.127,0.025,0.127,0.05,0.252
						c-6.341,37.817-15.503,37.936-15.503,37.936c-26.516,2.579-20.656-10.991-18.632-13.378
						c2.469-3.457,10.873-9.423,19.286-16.676c1.13-6.932,1.874-13.827,2.272-19.144c-5.102,15.429-8.817,13.216-8.817,13.216
						c-14.284-2.602-17.215-10.17-17.215-10.17l4.592-23.358c3.471-17.715,0.857-27.05,0.857-27.05
						c6.823-0.664,13.377,3.978,13.377,3.978c4.457,2.656,3.056,11.545,3.056,11.545c-2.547,14.406-4.698,31.542-4.974,37.489
						c2.652-3.861,7.652-15.804,10.959-25.006c5.999-22.208,3.714-30.547,3.714-30.547c6.822-0.664,13.504,3.966,13.504,3.966
						c3.991,2.958,3.262,7.921,3.262,7.921c-1.699,7.372-5.626,28.156-7.471,38.119c5.966-7.018,12.262-20.373,12.262-20.373
						C2018.848-268.119,2016.479-260.809,2016.479-260.809z M1984.375-221.903c-6.755,5.679-13.02,11.18-14.246,13.614
						c-2.17,4.976,1.063,6.077,3.51,5.839C1978.915-202.963,1982.219-211.522,1984.375-221.903z"/>
				</g>
			</g>
		</g>
		<g>
			<g>
				<path fill="#EC4842" d="M1604.535-307.823c0,50.496-39.236,107.026-70.87,107.026c-29.153,0-70.871-56.53-70.871-107.026
					c0-50.496,31.73-80.581,70.871-80.581S1604.535-358.319,1604.535-307.823z"/>
				<path fill="#EC4842" d="M1533.342-201.111c-0.48,0.949-2.377,5.632-3.985,9.351c-2.777,6.423-1.795,9.16-0.602,8.485
					c1.639-0.926,4.165-3.108,10.419-2.063c7.696,1.287,4.521,0.909-0.018-8.125c-2.13-4.239-2.674-6.699-2.674-6.699
					L1533.342-201.111z"/>
				<path fill="#16546D" d="M1531.804-199.7c-0.122-1.456,1.151-0.711,2.701-1.196c1.55-0.484,1.978,0,1.978,0v3.432
					c0,0-1.735,0-2.958,0s-1.729,0-1.729,0L1531.804-199.7z"/>
			</g>
			<path fill="none" stroke="#16546D" stroke-miterlimit="10" d="M1536.482-200.896c-1.132,12.128-4.12,96.728,0,161.316
				c5.91,92.652,37.8,148.898,37.8,148.898"/>
			<path fill="none" stroke="#16546D" stroke-miterlimit="10" d="M1534.658-199.288c-3.67,3.685-6.438,4.317-10.33,11.267
				c-3.891,6.949-1.667,13.898-1.667,13.898"/>
			<path opacity="0.4" fill="#FFFFFF" d="M1547.956-370.088c-0.92,5.837,7.782,10.007,25.572,31.132
				c17.79,21.125,20.014,71.327,6.115,91.813c0,0,23.422-35.769,11.675-79.915C1579.57-371.205,1549.899-382.429,1547.956-370.088z"
				/>
			<circle opacity="0.4" fill="#FFFFFF" cx="1537.278" cy="-375.37" r="5.003"/>
		</g>
		<g>
			<g>
				<path fill="#047B9A" d="M2183.027-415.405c0,49.452-38.425,104.813-69.404,104.813c-28.551,0-69.404-55.362-69.404-104.813
					s31.073-78.915,69.404-78.915S2183.027-464.857,2183.027-415.405z"/>
				<path fill="#047B9A" d="M2113.307-310.901c-0.471,0.93-2.327,5.516-3.902,9.158c-2.721,6.29-1.758,8.971-0.589,8.31
					c1.604-0.907,4.078-3.044,10.203-2.02c7.536,1.26,4.428,0.89-0.018-7.958c-2.086-4.151-2.618-6.561-2.618-6.561
					L2113.307-310.901z"/>
				<path fill="#16546D" d="M2111.801-309.518c-0.119-1.427,1.127-0.696,2.645-1.171c1.519-0.475,1.938,0,1.938,0v3.36
					c0,0-1.7,0-2.897,0s-1.692,0-1.692,0L2111.801-309.518z"/>
			</g>
			<path fill="none" stroke="#16546D" stroke-miterlimit="10" d="M2116.383-310.689c-1.109,11.876-4.035,94.727,0,157.979
				c5.788,90.736-21.461,187.026-21.461,187.026"/>
			<path fill="none" stroke="#16546D" stroke-miterlimit="10" d="M2114.596-309.115c-3.594,3.609-6.305,4.229-10.115,11.034
				c-3.812,6.806-1.634,13.611-1.634,13.611"/>
			<path opacity="0.4" fill="#FFFFFF" d="M2127.618-476.383c-0.9,5.717,7.622,9.8,25.044,30.488s19.6,69.852,5.989,89.914
				c0,0,22.937-35.029,11.433-78.262S2129.521-488.469,2127.618-476.383z"/>
			<circle opacity="0.4" fill="#FFFFFF" cx="2117.162" cy="-481.555" r="4.9"/>
		</g>
		<g>
			<path fill="#16546D" d="M1829.302-173.478c-30.147,0-54.707-8.343-69.492-19.446l-0.863,22.255l-15.126,11.818
				c21.854,14.055,51.868,22.615,85.481,22.615s63.628-8.561,85.481-22.615l-17.421-11.818l1.432-22.255
				C1884.009-181.82,1859.449-173.478,1829.302-173.478z"/>
			<g>
				<path fill="none" d="M1712.264-193.554c0,0,35.223,49.83,115.636,49.648c90.646-0.204,114.027-49.648,114.027-49.648"/>
				<text transform="matrix(0.9567 0.291 -0.291 0.9567 1769.5156 -153.5166)"><tspan x="0" y="0" fill="#FFFFFF" font-family="'BreeSerif-Regular'" font-size="34.6824">T</tspan><tspan x="19.378" y="0.06" fill="#FFFFFF" font-family="'BreeSerif-Regular'" font-size="34.6824" rotate="-8.087">O</tspan><tspan x="44.353" y="-3.975" fill="#FFFFFF" font-family="'BreeSerif-Regular'" font-size="34.6824" rotate="-13.661"> </tspan><tspan x="52.608" y="-5.838" fill="#FFFFFF" font-family="'BreeSerif-Regular'" font-size="34.6824" rotate="-17.752">Y</tspan><tspan x="71.971" y="-11.936" fill="#FFFFFF" font-family="'BreeSerif-Regular'" font-size="34.6824" rotate="-23.752">O</tspan><tspan x="95.773" y="-22.559" fill="#FFFFFF" font-family="'BreeSerif-Regular'" font-size="34.6824" rotate="-32.102">U</tspan></text>
			</g>
		</g>
	</g>
</g>
<g id="DESIGNED_BY_FREEPIK">
</g>
</svg>
