<?xml version="1.0" encoding="utf-8"?>
<!-- Generator: Adobe Illustrator 16.0.0, SVG Export Plug-In . SVG Version: 6.00 Build 0)  -->
<!DOCTYPE svg PUBLIC "-//W3C//DTD SVG 1.1//EN" "http://www.w3.org/Graphics/SVG/1.1/DTD/svg11.dtd">
<svg version="1.1" xmlns="http://www.w3.org/2000/svg" xmlns:xlink="http://www.w3.org/1999/xlink" x="0px" y="0px"
	 width="106.181px" height="106.18px" viewBox="0 0 106.181 106.18" enable-background="new 0 0 106.181 106.18"
	 xml:space="preserve">
<g id="background">
</g>
<g id="object">
	<g>
		<g>
			<path fill="#E8DB65" d="M35.279,88.168C24.639,111.477-10.838,66.989,13.07,60.317c-23.908,6.672-11.247-48.805,7.926-34.729
				C1.823,11.513,53.09-13.176,53.09,10.133c0-23.309,51.268,1.38,32.095,15.456c19.173-14.076,31.835,41.4,7.927,34.729
				c23.908,6.672-11.569,51.159-22.21,27.851C81.542,111.477,24.639,111.477,35.279,88.168z"/>
		</g>
		<g>
			<path fill="#FFFFFF" d="M36.538,85.976C26.649,107.64-6.325,66.292,15.896,60.093c-22.221,6.199-10.452-45.359,7.366-32.277
				C5.443,14.734,53.09-8.211,53.09,13.452c0-21.663,47.646,1.282,29.828,14.364c17.818-13.082,29.587,38.477,7.366,32.277
				c22.221,6.199-10.752,47.547-20.641,25.883C79.532,107.64,26.649,107.64,36.538,85.976z"/>
		</g>
		<g>
			<path fill="#93CCBF" d="M38.377,83.167c-8.789,19.256-38.098-17.493-18.348-23.005c-19.75,5.512-9.29-40.316,6.548-28.689
				C10.739,19.846,53.09-0.551,53.09,18.704c0-19.255,42.352,1.142,26.514,12.769c15.838-11.627,26.298,34.201,6.548,28.689
				c19.75,5.512-9.559,42.261-18.348,23.005C76.593,102.423,29.588,102.423,38.377,83.167z"/>
		</g>
		<g>
			<path fill="#FFFFFF" d="M39.54,80.672C31.444,98.404,4.454,64.561,22.644,59.484c-18.189,5.076-8.551-37.132,6.033-26.423
				C14.093,22.353,53.09,3.571,53.09,21.305c0-17.733,39.005,1.048,24.417,11.757c14.588-10.709,24.219,31.499,6.029,26.423
				c18.189,5.076-8.8,38.92-16.896,21.188C74.736,98.404,31.444,98.404,39.54,80.672z"/>
		</g>
	</g>
</g>
</svg>
