<?xml version="1.0" encoding="utf-8"?>
<!-- Generator: Adobe Illustrator 16.0.0, SVG Export Plug-In . SVG Version: 6.00 Build 0)  -->
<!DOCTYPE svg PUBLIC "-//W3C//DTD SVG 1.1//EN" "http://www.w3.org/Graphics/SVG/1.1/DTD/svg11.dtd">
<svg version="1.1" id="Layer_1" xmlns="http://www.w3.org/2000/svg" xmlns:xlink="http://www.w3.org/1999/xlink" x="0px" y="0px"
	 width="106.182px" height="106.18px" viewBox="0 0 106.182 106.18" enable-background="new 0 0 106.182 106.18"
	 xml:space="preserve">
<g id="background">
</g>
<g id="object">
	<g>
		<g>
			<path fill="#E8DB65" d="M35.279,88.168c-10.64,23.309-46.117-21.18-22.209-27.852c-23.908,6.672-11.247-48.805,7.926-34.729
				C1.823,11.513,53.09-13.176,53.09,10.133c0-23.309,51.269,1.38,32.096,15.456c19.173-14.076,31.835,41.399,7.927,34.729
				c23.908,6.673-11.569,51.159-22.21,27.852C81.542,111.477,24.639,111.477,35.279,88.168z"/>
		</g>
		<g>
			<path fill="#FFFFFF" d="M36.538,85.691c-9.889,21.664-42.863-19.684-20.642-25.883c-22.222,6.199-10.452-45.359,7.366-32.277
				C5.443,14.448,53.09-8.496,53.09,13.167c0-21.663,47.646,1.281,29.828,14.363c17.818-13.082,29.587,38.478,7.366,32.277
				c22.221,6.199-10.752,47.547-20.641,25.883C79.532,107.355,26.649,107.355,36.538,85.691z"/>
		</g>
		<g>
			<path fill="#93CCBF" d="M38.377,82.167c-8.789,19.256-38.098-17.493-18.348-23.005c-19.75,5.512-9.29-40.316,6.548-28.689
				C10.739,18.846,53.09-1.551,53.09,17.704c0-19.255,42.353,1.142,26.515,12.769c15.838-11.627,26.298,34.201,6.548,28.689
				c19.75,5.512-9.56,42.261-18.348,23.005C76.593,101.423,29.588,101.423,38.377,82.167z"/>
		</g>
		<g>
			<path fill="#FFFFFF" d="M39.54,79.878C31.444,97.61,4.454,63.767,22.644,58.69c-18.189,5.076-8.552-37.132,6.032-26.423
				C14.093,21.559,53.09,2.777,53.09,20.511c0-17.733,39.006,1.048,24.417,11.757c14.589-10.709,24.22,31.499,6.029,26.423
				c18.189,5.076-8.8,38.92-16.896,21.188C74.736,97.61,31.444,97.61,39.54,79.878z"/>
		</g>
	</g>
</g>
</svg>
