<?xml version="1.0" encoding="utf-8"?>
<!-- Generator: Adobe Illustrator 16.0.0, SVG Export Plug-In . SVG Version: 6.00 Build 0)  -->
<svg version="1.2" baseProfile="tiny" id="Í_xBC__xB2_ã_x5F_1"
	 xmlns="http://www.w3.org/2000/svg" xmlns:xlink="http://www.w3.org/1999/xlink" x="0px" y="0px" width="101.51px"
	 height="49.264px" viewBox="0 0 101.51 49.264" overflow="scroll" xml:space="preserve">
<g>
	<path d="M162.658-248.187c0,0,7.025,6.913,7.025,10.203c0,3.292,1.103,0.33,1.103,0.33s2.479-2.798-6.888-11.191
		C154.531-257.238,162.797-249.338,162.658-248.187z"/>
	<path d="M167.665-241.259c0,0-0.209,0-0.764,0.38c-0.556,0.378-0.973,0.152-1.597,0.91c-0.624,0.759-0.694,0.531-1.318,1.062
		c-0.625,0.532-1.318,1.442-1.318,1.442l0.276,0.455l0.069,0.379c0,0-0.901,0.152-1.11,0.455c-0.208,0.303-0.764,0.683-0.694,0.911
		s0.903,0.304,1.181,0.455c0.278,0.152,0,0.455-0.486,0.683c-0.484,0.227-0.484,0.151-0.764,0.682
		c-0.277,0.532-0.695,0.304-1.249,0.759c-0.555,0.455,0.208-1.518-0.555,0.455c-0.765,1.973-1.528,1.973-0.973,2.58
		c0.555,0.606,1.18,0.455,1.18,0.455s-1.942,0.625-1.997,0.854c-0.05,0.227-0.571,0.853-0.571,0.853s-0.989,0.74-0.989,1.081
		s0.208,0.968,0.47,0.796c0.261-0.17-0.417,0.512-0.729,0.74c-0.313,0.228-1.044-0.057-0.834,0.398
		c0.209,0.455,0.677,0.342,0.418,0.569c-0.262,0.228-1.044,0.455-1.044,0.455l0.262,0.284c0,0-0.105,0.342-0.262,0.797
		c-0.153,0.455-0.675,0.795-0.521,1.195c0.158,0.397,0.782,0.113,0.937,0.169c0.158,0.058,0.105,0.342-0.207,0.456
		c-0.311,0.114-0.729,0.227-0.884,0.684c-0.157,0.455-0.886,1.024-0.313,1.195c0.573,0.17,1.145-0.228,0.573,0.17
		c-0.573,0.398-1.146,0.967-1.249,1.422c-0.104,0.456,0.104,0.342,0.312,0.342c0.207,0-0.937,0.854-0.937,1.024
		c0,0.17,0.521,0,0.364,0.285c-0.157,0.285-0.572,0.569-0.417,0.911c0.156,0.341,0.781-0.057,0.781-0.057s-1.25,1.536-1.25,1.764
		c0,0.229,0.104,0.229,0.313,0.229c0.208,0,0.676,0.17,0.885,0.227c0,0-1.198,0.684-1.823,1.992c0,0,0.21,0.399,0.364,0.342
		c0.157-0.058-0.364,0.398-0.26,0.854c0.105,0.456,0.26,0.512,0.417,0.512c0.155,0,0.155,1.195,0.468,1.422
		c0.313,0.229,0-0.455,0.418-0.398c0.416,0.058,0.468,0,0.781,0.228c0.311,0.227,0.675-0.17-0.21,0.568
		c-0.885,0.74-1.404,0.854-1.04,1.024c0.363,0.171-0.052-0.114,0.363,0.171c0.418,0.285-0.572,0.74-0.625,1.65
		c-0.052,0.91-0.155,1.081-0.052,1.479c0.104,0.397,0.208,1.024,0.313,1.251c0.103,0.228,0.312,0.057,0.572-0.114
		c0.261-0.171,0.261-0.171,0.834-0.057c0.57,0.113,0.676,0.227,0.311,0.512s-0.884,0.74-0.78,0.967
		c0.104,0.228,0.313,0.341,0.624,0.398c0.313,0.057-0.103,0.74-0.154,1.195c-0.055,0.455-0.521,1.593-0.156,1.821
		c0.362,0.227,0.208,0.854,0.623,0.569c0.416-0.285,1.25-0.512,1.406-0.285c0.155,0.228-0.105,0.626-0.156,1.081
		c-0.052,0.456,0.312,1.082,0.521,0.911c0.208-0.171-0.262,0.17,0.208,1.366c0.468,1.195,0.521,1.82,0.677,0.967
		c0.156-0.854-0.261-0.74,0.364-1.139c0.625-0.398,1.404-1.65,0.883-0.512c-0.519,1.138-0.31,1.251-0.624,1.65
		c-0.313,0.398-1.248,0.569-0.675,0.91c0.57,0.341,0.208,0.341,0.57,0.341c0.367,0-0.052,0.513-0.052,1.139s0.156,1.423,0.262,1.764
		c0.104,0.341,0.052,0.512,0.573,0.341c0.521-0.17,1.092-0.227,1.51-0.341c0.415-0.113-0.157,0.797-0.209,1.138
		c-0.052,0.342,0,0.911,0.312,0.627c0.313-0.285,0.262-0.058,0.054,0.512c-0.209,0.569-0.262,0.967,0.051,0.854
		c0.312-0.114,0.105,0.57,0.312,0.911c0.21,0.341,0,0.227,0.625-0.057c0.626-0.284,0.991-0.398,0.991-0.398
		s-0.365-0.227-0.156,0.626c0.208,0.854,0.102,0.228,0.624,0.626c0.521,0.398-0.313,0.683-0.261,1.081
		c0.052,0.399-0.521,0.285,0.261,0.399c0.781,0.113-0.313,0.113-0.104,0.512c0.207,0.397,0.207,0.854,0.574,0.512
		c0.363-0.342,0.467-0.171,0.988-0.285c0.52-0.114,0.52-0.114,0.52-0.114s0.053,0.399,0,0.683c-0.052,0.284,0.053,0.569,0.313,0.513
		c0.261-0.057,0.626,0.227,0.417,0.739c-0.209,0.512-0.572,0.683-0.363,1.081c0.207,0.398,0.415,0.228,0.52,0
		s0.104-0.456,0.365-0.456c0.259,0,0.624-0.228,0.571,0.171c-0.052,0.397-0.155,0.625-0.155,0.796c0,0.171,0.208,0.684,0.415,0.569
		c0.209-0.113-0.207,0.17-0.26,0.684c-0.052,0.511,0.416,1.138,0.625,1.081c0.208-0.058,0,0.113,0.415-0.285
		c0.418-0.398,0.94-1.195,0.835-0.625c-0.104,0.568-0.469,0.91-0.052,1.137c0.417,0.228,0.363,0.57,0.259,0.797
		c-0.102,0.228-0.779,0.684,0,0.967c0.782,0.285,0.313,0.456,0.782,0.285c0.468-0.17,0.26,0.056,0.155,0.626
		c-0.103,0.568,0.052-0.114-0.155,1.138c-0.209,1.251,0.104,1.423,0.26,1.138c0.157-0.285-0.104,0.113-0.155,0.91
		c-0.052,0.797,0.468,0.341,0.208,0.967c-0.26,0.626-0.157,1.138-0.157,1.138s0.573-0.113,0.834-0.285
		c0.261-0.17,0.988-0.455,0.988-0.854s0.469-0.056,0.521-0.626c0.052-0.568,0.052-1.024,0.156-1.251
		c0.103-0.228,0.728-0.569,0.833-0.854c0.104-0.285,0.468-1.138,0.52-1.309c0.054-0.171,0.521,0.797,0.833,0
		s0.261-0.797,0.313-1.708c0.053-0.91,0.677,0,0.677-0.625c0-0.626,0.417,0.341,0.417,0.341s0.938-0.512,0.781-1.252
		c-0.156-0.739-0.104-1.479,0.157-1.877c0.26-0.398,0.207,0.17,0.623,0.341c0.416,0.17,0.522-0.113,0.886-0.569
		c0.365-0.455,0.365-0.854,0.573-1.081c0.207-0.228,0.624,0.398,0.624-0.342s-0.156-1.707,0.364-1.48
		c0.521,0.229,0.729,0.683,0.729,0.854c0,0.171,0.382-0.379,0.382-0.607c0-0.227,0.277,0.152,0.348-0.682
		c0.067-0.834,0.067-1.139,0.276-1.518c0.208-0.379,0.485-1.138,0.694-1.138c0.208,0,0.347,1.441,1.04,0.911
		c0.695-0.531,0.279-0.531,0.625-1.593c0.348-1.063-0.068-1.063,0.348-1.518c0.418-0.455-0.555-2.58,0.556-1.366
		c1.111,1.214,1.041,2.276,1.459,1.518c0.416-0.759,0.346-1.594,0.207-2.2c-0.139-0.608-0.277-1.442-0.139-1.669
		c0.139-0.229,0.833,0.152,0.763-0.532c-0.068-0.683-1.179-1.365-0.277-1.214c0.902,0.152,0.625,0.456,0.902,0.152
		c0.278-0.303,0.764-0.607,0.625-0.834c-0.139-0.229,0.417-0.076,0.277-0.758c-0.139-0.684-0.277-0.381-0.346-1.291
		c-0.07-0.911,0.415-0.911,0.207-1.745c-0.207-0.834-0.207-0.834-0.207-0.834s-0.139,1.062,0.554,0.607
		c0.695-0.456,0.902-0.911,1.042-1.594c0.139-0.683-0.208-1.517-0.069-1.973c0.139-0.455,0.555-0.228,0.416-0.834
		c-0.139-0.607-0.625-1.214-0.625-1.214s1.667,0.379,1.598,0c-0.068-0.379,0.069-0.911,0.069-1.518s0-0.53,0-1.213
		s-0.347-0.759-0.208-1.442c0.139-0.684,0.415-1.29,0.139-1.669c-0.277-0.38-0.693-0.304-0.277-0.38c0.415-0.075,0.763,0.38,0.971,0
		c0.208-0.379,0.278-0.607,0.487-1.213c0.208-0.608,0.14-0.684,0.14-1.29c0-0.608-0.487-1.366-0.487-1.366s0.693-0.38,0.487-0.987
		c-0.21-0.606-0.835-0.758-0.905-1.365c-0.068-0.607,0.486-0.076,0.766-0.684c0.277-0.605,0.625-0.53,0.346-1.213
		c-0.276-0.683-0.625-0.683-0.416-1.139c0.21-0.455-0.695-1.213-0.695-1.213s-0.068,0.075,0.278-0.607
		c0.348-0.683,0.487-0.986-0.07-1.289c-0.554-0.303-0.832-0.684-0.832-0.684s0.347-0.758,0.832-0.683
		c0.487,0.076,0.418,1.746,0.487,0.076c0.069-1.669,0.416-1.138-0.069-2.2c-0.487-1.062-0.765-0.91-0.833-1.138
		c-0.07-0.228-0.07,0.456-0.208-0.758c-0.139-1.215-0.416-1.291-0.765-1.821c-0.347-0.531,0.278-0.607,0.765-0.911
		c0.485-0.303,1.389,0.38,0.901-0.379c-0.486-0.759,0-0.684-0.555-1.138c-0.556-0.455-1.666-0.986-1.666-1.214
		s0.555-0.834,0.278-1.366c-0.278-0.532-0.278-0.532-0.765-0.532c-0.485,0-1.248-0.228-1.18-0.531c0.07-0.304,1.04-0.683,1.04-1.29
		s0.279-1.062-0.139-1.366c-0.416-0.303-0.348-0.606-0.485-0.91c-0.139-0.303-1.596-0.379-1.596-0.379s0.068-0.531-0.14-0.834
		c-0.207-0.304-0.484-0.684-0.902-0.607c-0.417,0.075-1.11,0.303-0.972-0.38c0.138-0.683,0.693-0.378,0.833-0.986
		c0.139-0.607,0.695-1.29,0.139-1.366c-0.555-0.075,0.07-0.303-0.902-0.379c-0.972-0.076-2.083,0.607-2.151-0.303
		c-0.07-0.911,1.111-0.834,0.207-0.834c-0.901,0-1.596-0.38-2.082-0.229c-0.485,0.152-0.416-0.303-0.278-0.986
		c0.141-0.683,0.625-1.668-0.415-1.213c-1.042,0.455-2.43,0.834-2.499,0.531c-0.07-0.304-0.07-0.531-0.07-0.835
		c0-0.303,0.07-0.455-0.556-0.379c-0.624,0.076-0.067-0.531-1.075-0.303c-1.007,0.227-1.215,2.048-1.423,1.138
		c-0.207-0.911,0.695-1.973-0.277-1.29c-0.972,0.684-1.11,0.986-1.597,1.366s-0.764,0-1.388,0.379
		c-0.626,0.379-0.903-0.228-1.043,0.91c-0.139,1.139,0.069,2.504-0.554,2.656C168.082-240.879,167.665-241.259,167.665-241.259z"/>
	<path d="M157.412-252.19c0,0-0.071-0.081-0.413-0.137c-0.342-0.057-0.39-0.314-0.907-0.236c-0.518,0.076-0.449-0.046-0.875-0.064
		c-0.426-0.02-1.029,0.094-1.029,0.094l-0.091,0.299l-0.13,0.187c0,0-0.365-0.287-0.559-0.24c-0.193,0.047-0.535-0.008-0.604,0.114
		c-0.068,0.123,0.183,0.478,0.216,0.649c0.031,0.172-0.185,0.191-0.442,0.098c-0.255-0.091-0.225-0.124-0.534-0.009
		c-0.308,0.116-0.357-0.142-0.729-0.165c-0.372-0.024,0.684-0.558-0.372-0.024c-1.057,0.534-1.313,0.237-1.371,0.708
		c-0.059,0.471,0.214,0.649,0.214,0.649s-0.908-0.491-1.02-0.416c-0.11,0.076-0.539,0.137-0.539,0.137s-0.633-0.073-0.772,0.072
		c-0.137,0.144-0.32,0.488-0.163,0.517c0.157,0.028-0.348,0.054-0.544,0.028c-0.199-0.026-0.329-0.429-0.442-0.156
		c-0.115,0.271,0.09,0.406-0.092,0.4c-0.18-0.004-0.536-0.211-0.536-0.211l-0.026,0.221c0,0-0.173,0.103-0.41,0.234
		c-0.236,0.131-0.55,0.072-0.658,0.3c-0.108,0.229,0.217,0.352,0.247,0.436c0.03,0.085-0.104,0.184-0.256,0.111
		c-0.15-0.073-0.337-0.187-0.574-0.056s-0.713,0.088-0.59,0.381c0.126,0.294,0.479,0.349,0.126,0.294
		c-0.354-0.055-0.779-0.038-0.999,0.113s-0.103,0.185-0.032,0.265c0.07,0.081-0.661-0.004-0.732,0.067
		c-0.068,0.072,0.178,0.203,0.01,0.262c-0.168,0.059-0.424,0.016-0.508,0.221c-0.086,0.205,0.285,0.279,0.285,0.279
		s-1.044,0.162-1.136,0.257c-0.092,0.096-0.058,0.136,0.013,0.217c0.072,0.082,0.161,0.335,0.207,0.44c0,0-0.679-0.177-1.421,0.131
		c0,0-0.09,0.249-0.015,0.285c0.076,0.036-0.285,0.026-0.433,0.258c-0.149,0.231-0.119,0.315-0.067,0.377
		c0.054,0.06-0.431,0.563-0.418,0.781c0.016,0.217,0.186-0.192,0.303-0.007c0.118,0.187,0.159,0.182,0.172,0.398
		c0.014,0.218,0.297,0.191-0.3,0.16c-0.599-0.033-0.82-0.187-0.768,0.026c0.056,0.214,0.029-0.067,0.056,0.214
		c0.024,0.281-0.494,0.09-0.879,0.452c-0.386,0.363-0.49,0.394-0.616,0.603c-0.127,0.208-0.345,0.512-0.4,0.648
		c-0.058,0.136,0.081,0.146,0.238,0.175c0.156,0.028,0.156,0.028,0.307,0.299c0.146,0.27,0.134,0.358-0.104,0.337
		c-0.239-0.022-0.597-0.033-0.656,0.104c-0.056,0.136-0.031,0.264,0.051,0.41c0.083,0.146-0.335,0.271-0.536,0.441
		c-0.201,0.172-0.82,0.47-0.788,0.707c0.029,0.237-0.276,0.44-0.021,0.481c0.258,0.042,0.63,0.27,0.591,0.426
		c-0.039,0.156-0.288,0.223-0.491,0.394c-0.202,0.172-0.332,0.577-0.191,0.586c0.14,0.009-0.158-0.029-0.483,0.655
		c-0.324,0.685-0.559,0.968-0.162,0.67c0.397-0.298,0.211-0.413,0.584-0.337c0.371,0.075,1.142-0.149,0.506,0.128
		c-0.637,0.277-0.611,0.405-0.879,0.452c-0.266,0.047-0.651-0.246-0.597,0.121c0.056,0.367-0.068,0.225,0.056,0.367
		c0.123,0.141-0.226,0.194-0.478,0.458c-0.254,0.263-0.522,0.659-0.628,0.843c-0.101,0.185-0.188,0.236,0.057,0.366
		c0.246,0.13,0.462,0.329,0.647,0.442c0.187,0.115-0.374,0.275-0.529,0.399s-0.368,0.382-0.149,0.384
		c0.222,0.001,0.112,0.077-0.188,0.236c-0.3,0.158-0.479,0.306-0.328,0.379c0.152,0.072-0.194,0.28-0.263,0.504
		c-0.066,0.224-0.092,0.095,0.236,0.218c0.325,0.123,0.494,0.217,0.494,0.217s-0.03-0.237-0.306,0.202
		c-0.276,0.44-0.058,0.137-0.042,0.506c0.014,0.37-0.383,0.167-0.526,0.355c-0.144,0.187-0.291-0.083-0.074,0.268
		c0.22,0.351-0.151-0.073-0.242,0.175c-0.09,0.248-0.273,0.439-0.013,0.438c0.261-0.002,0.228,0.109,0.449,0.264
		c0.223,0.154,0.223,0.154,0.223,0.154s-0.145,0.188-0.277,0.287c-0.132,0.1-0.213,0.26-0.102,0.337
		c0.111,0.077,0.119,0.337-0.157,0.473c-0.278,0.134-0.47,0.065-0.562,0.314c-0.09,0.247,0.049,0.257,0.175,0.201
		c0.129-0.055,0.221-0.15,0.309-0.049c0.088,0.1,0.303,0.146,0.124,0.293c-0.178,0.147-0.306,0.203-0.375,0.274
		c-0.069,0.073-0.206,0.369-0.089,0.402c0.116,0.033-0.141-0.009-0.364,0.186c-0.226,0.195-0.321,0.641-0.228,0.698
		s-0.045,0.047,0.257,0.042c0.301-0.006,0.8-0.138,0.535,0.061c-0.266,0.199-0.528,0.201-0.478,0.458
		c0.049,0.257-0.109,0.38-0.235,0.437c-0.127,0.056-0.539-0.016-0.391,0.407c0.148,0.423-0.079,0.313,0.148,0.423
		c0.228,0.109,0.065,0.125-0.2,0.324c-0.267,0.199,0.063-0.027-0.513,0.419c-0.579,0.446-0.541,0.639-0.373,0.579
		c0.167-0.058-0.081,0.008-0.42,0.323c-0.342,0.314,0.02,0.326-0.323,0.487c-0.341,0.163-0.514,0.418-0.514,0.418
		s0.241,0.175,0.398,0.204c0.157,0.029,0.517,0.192,0.678,0.025c0.162-0.168,0.183,0.157,0.43-0.062
		c0.248-0.218,0.433-0.41,0.56-0.465c0.127-0.057,0.477,0.043,0.626-0.037c0.151-0.079,0.619-0.297,0.706-0.348
		c0.086-0.053-0.146,0.537,0.281,0.322s0.411-0.234,0.797-0.597c0.387-0.363,0.229,0.263,0.481-0.001
		c0.254-0.263,0.003,0.305,0.003,0.305s0.525,0.148,0.77-0.224c0.247-0.372,0.563-0.663,0.814-0.729
		c0.248-0.067,0,0.153,0.071,0.386c0.072,0.233,0.222,0.153,0.529,0.104c0.308-0.049,0.468-0.218,0.631-0.233
		c0.163-0.014,0.051,0.411,0.351,0.099c0.299-0.311,0.638-0.779,0.721-0.481c0.084,0.298-0.029,0.571-0.099,0.643
		c-0.07,0.071,0.282-0.012,0.374-0.107c0.092-0.096,0.032,0.171,0.394-0.153c0.362-0.325,0.484-0.451,0.708-0.531
		c0.224-0.079,0.625-0.291,0.694-0.209c0.07,0.081-0.466,0.742-0.017,0.787s0.309-0.116,0.855-0.428
		c0.548-0.312,0.407-0.474,0.732-0.503c0.325-0.03,0.855-1.302,0.739-0.36c-0.115,0.941-0.57,1.362-0.121,1.204
		c0.448-0.157,0.763-0.535,0.961-0.845c0.198-0.309,0.49-0.714,0.628-0.756c0.139-0.042,0.222,0.387,0.474,0.072
		c0.252-0.313,0.153-1.033,0.396-0.617c0.245,0.414,0.027,0.433,0.245,0.414c0.214-0.021,0.502,0.041,0.547-0.109
		c0.046-0.149,0.172,0.13,0.401-0.211c0.228-0.341,0.06-0.267,0.404-0.677c0.345-0.41,0.509-0.221,0.776-0.654
		c0.268-0.432,0.268-0.432,0.268-0.432s-0.477,0.393-0.059,0.471c0.42,0.079,0.674-0.033,0.997-0.265
		c0.322-0.234,0.543-0.72,0.775-0.858c0.229-0.138,0.278,0.12,0.477-0.19c0.2-0.309,0.28-0.753,0.28-0.753s0.411,0.807,0.54,0.621
		c0.13-0.187,0.392-0.356,0.637-0.612c0.247-0.256,0.216-0.224,0.491-0.511c0.275-0.289,0.19-0.454,0.513-0.688
		c0.323-0.233,0.663-0.381,0.724-0.648c0.059-0.267-0.111-0.396,0.059-0.267c0.172,0.13,0.104,0.456,0.329,0.377
		c0.224-0.079,0.339-0.148,0.655-0.323c0.315-0.174,0.324-0.233,0.568-0.489c0.244-0.255,0.389-0.763,0.389-0.763
		s0.387,0.109,0.563-0.227c0.175-0.336,0.024-0.643,0.248-0.924c0.224-0.283,0.195,0.156,0.533,0.009
		c0.341-0.148,0.426,0.019,0.607-0.376c0.185-0.395,0.066-0.53,0.321-0.641c0.254-0.111,0.258-0.78,0.258-0.78
		s-0.056,0.004,0.338-0.148c0.393-0.152,0.563-0.226,0.499-0.569s-0.006-0.611-0.006-0.611s0.425-0.184,0.559,0.036
		c0.134,0.22-0.566,0.896,0.134,0.22c0.698-0.676,0.602-0.317,0.866-0.952c0.266-0.635,0.11-0.679,0.179-0.803
		s-0.208,0.165,0.236-0.4c0.444-0.563,0.381-0.704,0.479-1.062c0.097-0.358,0.339-0.147,0.626-0.087
		c0.288,0.061,0.315,0.699,0.457,0.191c0.145-0.507,0.277-0.287,0.274-0.695c-0.004-0.407-0.165-1.062-0.073-1.156
		c0.092-0.096,0.526-0.137,0.646-0.468c0.123-0.331,0.123-0.331-0.041-0.52c-0.166-0.188-0.331-0.58-0.185-0.682
		c0.146-0.1,0.629,0.118,0.874-0.138s0.523-0.339,0.504-0.628c-0.017-0.29,0.129-0.391,0.204-0.572
		c0.077-0.182-0.386-0.78-0.386-0.78s0.238-0.196,0.291-0.405s0.111-0.476-0.06-0.605c-0.171-0.129-0.497-0.303-0.176-0.537
		c0.325-0.233,0.389,0.11,0.683-0.092c0.292-0.201,0.755-0.273,0.598-0.52c-0.157-0.248,0.147-0.101-0.149-0.51
		c-0.298-0.41-0.952-0.553-0.606-0.963s0.715,0.08,0.408-0.271c-0.304-0.35-0.386-0.778-0.611-0.904
		c-0.226-0.124-0.018-0.289,0.306-0.522c0.322-0.233,0.886-0.459,0.349-0.673c-0.533-0.212-1.156-0.591-1.059-0.745
		c0.101-0.155,0.192-0.251,0.314-0.378c0.124-0.127,0.209-0.165-0.034-0.375c-0.242-0.21,0.191-0.251-0.239-0.546
		c-0.434-0.294-1.24,0.391-0.943-0.073c0.299-0.463,1.035-0.561,0.429-0.65c-0.604-0.09-0.773-0.016-1.092-0.045
		c-0.316-0.03-0.259-0.296-0.622-0.379c-0.363-0.083-0.213-0.446-0.721-0.021c-0.508,0.424-0.989,1.08-1.26,0.901
		C157.398-251.869,157.412-252.19,157.412-252.19z"/>
</g>
<path d="M260.529-251.646c0,0,1.087,0.158,1.526-0.123c0.572-0.368,1.048-1.225,1.048-1.225l1.621,11.514l6.102,6.86
	c0,0,8.482,4.9,9.915,6.737l1.237,0.857l-0.069,0.552c0,0,3.432,3.306,3.931,3.399l-0.499,1.103c0,0,3.003,3.674,2.858,4.594
	l-0.357,0.274l2.289,4.686l-0.5,0.275l1.502,4.042l-0.645,0.368l1.357,4.042l-0.785,0.275l0.357,4.134l-0.787-0.184
	c0,0,0.502,2.756-0.073,4.594l-0.856-0.459c0,0,0.072,2.664-0.07,3.399l-1.002,0.642l-0.931,2.757l-1.285,0.276l-0.429,2.818
	c0,0-0.812,0.795-1.479,0.244l-0.333,3.369l-1.668-0.429c0,0,0.141,2.512-0.81,3.798l-1.338-0.551c0,0-0.714,1.899-1.286,2.816
	c0,0-0.953,0-1.191-0.061c-0.238-0.062-0.334,0.856-0.477,1.163s-0.811,1.899-0.811,1.899s-1.145-0.795-1.287-0.612
	c-0.143,0.183-1.333,1.96-0.143,7.227c0,0-0.906-0.429-1.048-0.674c-0.143-0.245-1.669-2.634-3.241-3.613
	c-1.049-0.429-1.239,0.55-1.239,0.55s-2.384-1.455-2.99-2.374c0,0-0.859,1.241-1.073,1.333c-0.214,0.091-0.895-0.828-1.145-1.058
	c-0.25-0.23-0.752,0.735-0.786,0.597c-0.036-0.137-1.217-1.837-1.217-2.251c0,0-1.143,1.424-1.18,1.287
	c-0.035-0.138-1.608-2.435-1.644-2.94c-0.035-0.505-0.893,0.964-0.893,0.964s-1.003-1.286-0.93-1.516
	c0.069-0.229-0.752,0.184-0.752,0.184s-0.395-1.194-0.645-1.884c-0.25-0.688-1.68,0.643-1.68,0.643s-1.752-2.893-1.752-3.169
	c0-0.275-1.786,0.46-1.786,0.46s-0.93-2.619-0.93-4.227c0,0-1.109,0.919-1.287,0.598c-0.179-0.322-1.072-3.628-1.072-3.628
	l-1.143,0.321l-0.359-3.353l-0.894,0.184l0.215-3.17l-0.859,0.183l-0.069-2.985l-1.108-0.138l0.606-5.604l-1.072-0.413l1.967-5.788
	l0.034-0.184l-0.571-0.138c0,0-0.321-2.388,1.824-5.145l-0.609-0.138l2.289-4.778c0,0,0.25,0.184,0.25,0.046
	c0-0.138-0.107-1.056-0.071-1.194s2.895-7.396,5.576-9.095s4.54-5.329,5.721-7.166c1.18-1.838,3.183-4.73,3.183-5.558
	c0-0.826-0.43-6.339-0.967-7.625C261.816-249.027,261.639-250.911,260.529-251.646z"/>
<g>
	<path d="M145.008-319.58c0,0,0.771,2.417,0.732,3.444c-0.038,1.025-0.33,1.719-0.88,1.281c-0.036,2.747-0.219,4.615-1.94,4.651
		c-1.026-1.392-2.198-2.895-2.233-3.663c-3.368,1.537-7.288,2.638-11.646-0.037c-0.111-0.879-0.073-1.208-0.073-1.208
		s-4.433-1.429-5.129-2.967c-0.583-0.623-1.134-1.208-1.134-1.208s1.098-1.428,2.452-2.417c-0.034-1.721,1.685-3.516,1.871-3.589
		c-0.295-0.403,2.89-3.516,6.04-3.297c0-1.391-1.354-3.515-2.416-4.649c-1.062-1.136-3.994-3.993-3.994-3.993l0.075-0.843
		c0,0-2.563-3.516-2.638-4.394c-0.293-0.476,0.037-0.622,0.037-0.622s-0.806-1.428-0.733-1.831c0.074-0.404,0.771-0.806,0.771-0.806
		s-0.184-1.685,0.843-2.343c-0.329-1.502-1.244-5.75-0.661-6.226c-0.401-1.794,0.11-3.992,1.174-3.956
		c-0.769-2.417-0.952-4.761,0-5.017c-0.66-3.042-0.99-5.275-0.88-5.677c0.111-0.402,0.295-0.476,0.512-0.292
		c0.221,0.183,1.501,1.721,2.309,1.721c0.806,0,2.015,0.219,2.087,0.513c0.184-1.099,2.015-0.11,2.49,0.145
		c0.071-0.549,3.589,0.953,3.956,2.346c0.403-0.733,1.831-1.026,1.831-1.43c0.476,0.037,1.903,0.842,2.159,1.575
		c0.808-0.073,3.226,3.259,3.37,4.065c0.734,0.256,4.028,5.09,4.871,11.684c1.063-1.466,2.675-3.773,3.039-6.153
		c0.366-2.381,1.429-4.396,1.429-4.396s2.271-3.625,2.416-4.651c0.222-0.438,0.367-0.254,0.367-0.254s0.624-1.538,0.952-2.309
		c0.33-0.768,0.807-1.319,0.807-1.319h1.611c0,0,0.88-2.379,3.076-3.294c0.512-0.881,1.611-0.77,1.611-0.916
		c0.512-1.941,1.795-3.224,2.746-3.224c0.221,0.33,0.11,0.55,0.11,0.55s2.71,0.989,3.369,2.307c0.844-0.768,2.489-2.857,3.369-2.637
		c0.221-0.952,1.209-1.354,1.536-1.244c0.331,0.11,0.771,0.916,0.771,0.916s1.613-2.051,3.148-1.941
		c0.915-1.171,1.833-2.71,2.236-1.21c0.401,1.502,0.184,2.748,0.695,3.48c0.513,0.732,0.769,2.417,0.402,3.004
		c0.845,0.404,1.649,1.831,1.354,2.709c0.404,1.026-1.024,4.285-1.024,4.285s2.599,1.501,2.197,3.076
		c0.55,0.77-0.55,3.443-0.55,3.443s0.073,0.367-0.512,2.051c-0.587,1.684-0.549,3.15-1.026,3.187
		c0.293,0.696,0.88,2.782-0.476,3.442c-0.513,1.354-2.747,3.368-2.747,3.368s-1.098,2.382-2.636,3.992
		c-1.54,1.613-2.896,3.956-2.896,3.956s7.217-2.38,8.681-1.317c0.587-0.147,3.407,0.036,3.151,0.731
		c1.061-0.036,2.6,0.293,1.976,2.198c2.198,0.695,3.735,1.795,3.589,2.49c0.771,0.147,1.942,1.355,1.246,2.162
		c0.769,0.402,2.563,1.208,2.563,1.903c1.392,0.258,2.013,0.623,1.537,1.173c-0.474,0.548-3.003,1.208-3.003,1.208
		s0.038,1.137-0.951,1.5c-0.989,0.369-2.309,0.331-2.309,0.331s0.184,1.319-1.062,2.856c-1.243,1.539-2.526,1.686-2.526,1.686
		s-0.109,1.832-1.136,3.296c-1.024,1.464-1.428,1.428-1.428,1.428s0.184,0.842-1.832,1.099c-2.015,0.256-3.223,0.403-3.223,0.403
		s1.283,1.024-1.867,1.393c-3.15,0.365-9.082,0.073-9.082,0.073s2.049,3.955,1.024,5.749s-2.746,3.772-3.697,3.552
		c-0.038,0.55-0.11,0.733-0.11,0.733l-3.662-1.648l-0.44,1.1l-4.249-1.686l-0.401,0.404l-2.856-2.675c0,0-1.245,1.574-2.232,0.623
		c-2.126-1.063-1.833-6.884-1.467-10.108l0.037-0.403c0,0-2.235-1.722-2.38-1.794C147.352-320.02,144.972-320.42,145.008-319.58z"/>
	<path d="M149.76-321.698c0,0-9.957,27.16-10.329,29.21c-0.374,2.047-1.789,8.987-1.789,8.987"/>
</g>
<path d="M67.663-150.121c0,0-9.784,11.072-9.352,15.42c0,0,4.384,1.001,7.368-0.815c0,0,16.159-5.852,19.311,15.904
	c0,0,0.953,2.874,0.696,6.584c-0.201,2.915-0.114,4.644-0.55,6.097c-0.118,0.396-0.275,0.771-0.489,1.144
	c0,0-1.818,2.784-2.422,4.276c-0.604,1.49-1.779,3.569-2.921,4.743c-1.141,1.175-1.763,2.167-3.208,3.137
	c-1.446,0.971-5.813,4.124-7.507,7.045c0,0-5.685,5.707-11.842,9.954c0,0-16.802,10.638-19.939,26.083c0,0-1.239,0.008-1.608-2.269
	c-0.367-2.276-6.054-12.003-8.552-18.268c0,0-3.041-2.039-4.411-8.076l0.023-0.18c0,0-3.319-5.874-3.775-7.474
	c-0.454-1.599-2.148-9.411-1.837-11.406c0.31-1.997-1.458-5.361,1.515-16.536c0,0,0.847-4.02,0.347-6.559
	c0,0,0.044-5.059,5.109-11.508c0,0,0.922-2.256,1.911-3.532c0.99-1.276,1.686-2.839,3.304-3.868
	c1.618-1.031,5.045-2.654,6.479-2.883c1.432-0.228,3.495-0.872,5.932-0.559c2.436,0.311,6.487,0.253,11.255,8.129
	c0,0,1.543,0.857,2.6,0.334c1.056-0.524,6.728-10.61,10.307-15.352C65.406-150.554,66.64-151.572,67.663-150.121z"/>
<path d="M-182.809-242.354c0,0-4.619-19.947-2.89-20.854c0,0,2.128,17.908,3.478,20.271c0,0,0.508,0.02,1.318-0.765
	c0,0,1.664-0.372,2.21-1.484c0,0,0.329,0.139,0.539,0.503c0.211,0.369,0.97-0.731,0.97-0.731s1.883-0.341,1.951-0.164
	c0.067,0.177-0.124,0.581,0.586,0.443c0.71-0.144,0.978-0.539,1.473-0.601c0.498-0.063,2.292-1.094,2.955-0.444
	c0.666,0.653,1.39,1.177,1.953,1.573c0.569,0.396,1.719,0.671,2.232,1.207c0.514,0.537,1.296,0.67,1.632,1.274
	c0.335,0.604-0.612,0.828,1.246,1.627c1.88,0.809,1.679,0.579,1.955,1.301c0.277,0.723-0.267,1.199,0.76,1.989
	c1.033,0.788,1.4,0.675,1.736,1.275c0.336,0.602,0.877,0.938,1.179,1.449c0.299,0.507,0.668,1.195,1.458,2.456
	c0.789,1.255,1.495,1.731,1.835,2.623c0.341,0.894,0.58,1.519,0.75,1.964c0.17,0.447-0.218-0.026,0.492,0.74
	c0.706,0.765-0.498,1.693,0.542,2.238c1.036,0.543,1.572,0.849,1.479,1.691c-0.091,0.849,0.623,1.089,1.122,2.12
	c0.5,1.027-0.651-0.056,0.712,1.862c1.353,1.906,1.618,0.974,1.286,2.55c-0.333,1.583,0.086,0.79,1.225,1.839
	c1.127,1.045,0.502,0.502,0.53,1.936c0.049,2.192,1.316,1.509,1.25,3.272c-0.023,0.747,0.631,2.737,0.391,4.02
	c-0.243,1.285-0.718,0.034,0.046,2.847c0.768,2.815,0.72,1.877,0.36,3.664c-0.358,1.783,0.408,4.62,0.301,5.424
	c-0.109,0.802-0.25,1.511-0.427,2.968c-0.177,1.451-0.605,0.583-1.037,2.737c-0.427,2.122-0.625,1.879-0.943,3.799
	c-0.31,1.892-0.16,2.264-1.074,3.731c-0.898,1.424-5.565,5.561-6.715,7.495c-1.133,1.916-1.542,1.416-2.08,2.456
	c-0.54,1.042-0.285,2.795,0.061,3.701c0,0,0.925,1.368-1.477-0.735c-2.325-2.037-2.26-2.414-3.163-2.949
	c-0.89-0.524-3.108-0.147-3.657-0.61c-0.546-0.459-3.149-0.407-4.727-1.228c-1.547-0.812-1.86-1.378-3.459-1.788
	c-1.581-0.401-5.904-2.13-6.998-2.933c0,0-3.072-1.119-9.318-11.561c-6.452-10.785-3.899-9.112-4.878-11.956
	c-0.98-2.84-4.029-10.015-4.248-12.207c-0.214-2.171-0.072-2.114-0.471-4.503c-0.395-2.368-0.964-2.513-0.728-4.356
	c0.232-1.826-0.875-5.557,0.653-7.012c1.528-1.452,1.373-4.06,2.689-5.223c1.331-1.174,1.001-0.439,2.829-2.136
	c1.863-1.739,2.763-2.822,5.05-3.405C-185.596-239.536-184.716-241.109-182.809-242.354z"/>
<g>
	<path d="M64.13-253.618c0,0,28.055-4.056,36.263,3.657l-0.496,1.287c0,0-27.888-8.506-32.338-3.164
		C63.106-246.499,61.099-250.453,64.13-253.618z"/>
	<path d="M41.581-255.729"/>
	<path d="M64.13-253.618c0,0-6.459,2.109-22.549-1.452c0,0-9.624-1.978-18.591,0.792c0,0-4.351,0.262-5.143,1.053v2.375
		c0,0-6.725,2.902-6.988,4.615c0,0,0.397,2.375,1.319,2.637c0,0-3.165,1.979-4.616,4.352c0,0-1.713,2.241-2.243,2.637
		c-0.525,0.395,2.112,2.771,1.716,3.034c-0.396,0.262-5.011,5.142-4.879,5.538c0.133,0.396,2.375,2.109,2.375,2.109
		s-3.034,3.165-2.769,5.538c0.263,2.374,1.976,2.505,3.295,2.768c0,0-1.979,3.824,1.188,8.176c0,0-2.241,2.637-1.188,5.408
		c0,0-1.449,2.768-1.449,3.296c0,0.525,2.108,3.032,3.824,2.241c0,0-4.354,12.263,0.395,11.076c0,0-1.583,6.199,0.132,8.175
		c0,0-0.66,13.847,0,15.429c0.396-0.266,1.186-6.726,1.186-6.726s2.242-7.647,2.374-6.066v3.691c0,0,1.186-1.845,3.165-2.504
		c1.979-0.66,6.99-3.559,7.252-5.141c0,0,0.265,4.352,3.693,5.933c0,0,1.054-0.922,2.372-1.451c1.319-0.527,1.582-1.582,1.582-2.241
		c0-0.658,0.133,1.319,2.11,1.319c1.979,0,1.715-3.032,1.845-3.956c0.134-0.924,3.166,1.45,3.166,1.846s0,0.396,0,0.396
		s4.615-4.088,6.065-7.384c0,0,2.539,1.417,3.328,2.405c0,0,0.694-1.582,1.585-2.669c0.889-1.089,2.473-4.945,2.473-6.33
		c0-1.386,1.085,2.274,3.461,2.57c1.582-1.583,2.373-6.527,2.67-8.009c0,0,2.473,2.175,3.656,1.285
		c1.188-0.889,2.969-7.021,2.87-9.197c0,0,0.692,0.495,2.67,0c1.979-0.494,0.198-14.734,2.472-18.79
		c2.274-4.055-7.91-22.943-0.395-26.997C67.559-251.837,64.854-250.255,64.13-253.618z"/>
</g>
<g>
	<path d="M-30.206-252.842c0,0-5.398,3.773-13.458,39.667c0,0-4.295,12.473-10.35,21.45c0,0-4.204,9.428-11.788,13.62
		c0,0-3.628,1.706-7.658,5.176c0,0-0.803-0.059-5.251,3.021c0,0-17.278,7.782-18.167,6.458c0,0-0.562-2.107,2.602-22.879
		c0,0,7.535-30.065,21.011-39.835c0,0,31.141-18.54,43.625-27.038"/>
	<path d="M-37.164-246.362c0,0,17.003-12.53,13.632-14.055c-3.372-1.525-5.902,1.258-6.477,3.762
		c-0.573,2.504-6.948,10.096-6.948,10.096"/>
</g>
<g>
	<path d="M-149.117-380.681l2.362,0.645l-1.503,13.962l-1.503,2.361c0,0-0.537,1.074-0.751,1.611
		c-0.215,0.537-1.719,0.322-2.363-0.752c-0.644-1.074,0.429-1.396,1.074-3.436c0.645-2.04,0.43-1.718,0.858-4.403
		c0.431-2.686,1.397-7.84,1.612-9.343L-149.117-380.681z"/>
	<path d="M-151.049-365.002c0,0-9.451-0.965-21.049,6.767c0,0-13.317,7.517-18.256,17.719c0,0-8.914,10.524-8.484,21.908
		c0.43,11.384-0.859,6.443-0.429,8.162c1.161,4.65,1.948,8.103,1.288,6.121c-0.322-0.965,1.396,4.618,1.503,5.477
		c0.108,0.86,1.611,3.329,3.33,4.726c1.718,1.395,6.014,5.047,6.659,5.37c0.644,0.321,0.859,2.255,1.61,3.436
		c0.751,1.181,1.718,5.263,1.289,6.121c-0.43,0.86,3.007,0.215,2.363-1.609c-0.644-1.826-3.758-7.518-3.973-9.129
		c-0.215-1.611-0.43-4.188-0.215-5.906c0.215-1.718-0.107-5.047,4.833-6.874c4.941-1.825,6.122-4.833,6.659-6.98
		c0.537-2.147,5.074-5.021,9.37-3.41c0,0,11.762-2.609,14.793-10.122c3.812-9.449,4.403-9.558,4.51-11.383
		C-145.143-336.435-139.129-343.631-151.049-365.002z"/>
</g>
<g>
	<path d="M-58.731-314.449c0,0,6.67-0.682,9.256,2.313c2.586,2.996,3.539,4.492,6.397,4.083c2.858-0.409,8.167-1.087,10.073-2.857
		c1.905-1.771,8.031-6.398,8.167-12.251c0.137-5.853,0.817-17.559-2.858-25.318c-3.675-7.758-7.759-19.192-41.108-32.804
		c0,0-3.54,3.131-5.036,5.581c-1.498,2.451-3.403,4.764-5.446,6.806c-2.042,2.043-4.49,7.759-5.853,9.392
		c-1.362,1.634-5.444,9.256-6.67,11.843c-1.224,2.586-2.313,8.985-2.584,11.298c-0.273,2.313-2.451,15.381,1.088,19.056
		c0,0,0.817,2.722,2.041,5.036c1.226,2.315,2.043,4.356,4.357,6.262c2.313,1.906,7.214,3.676,9.256,3.676s7.759-1.498,8.984-2.858
		c1.224-1.363,5.172-3.131,6.125-5.717C-61.589-313.497-60.229-314.585-58.731-314.449"/>
	<path d="M-57.703-327.244c0,0,5.615-0.544,3.743,36.479C-55.833-253.741-60.323-316.355-57.703-327.244z"/>
</g>
<path d="M159.252-60.192c0,0-2.387-4.526-4.4-2.637c-2.014,1.883-4.272,4.778-4.78,5.532c-0.499,0.754-3.769,3.773-5.91,4.15
	c-2.136,0.375-7.166,1.508-12.696-2.518c-5.535-4.024-11.193-13.96-12.321-24.897c0,0-1.388-8.548,9.678-25.777
	c0,0,11.318-13.074,13.079-14.463c1.759-1.38,11.065-8.42,11.316-9.928c0.249-1.513,5.908-8.05,6.159-8.551
	c0.253-0.503,5.66,7.917,8.553,10.185c2.894,2.261,22.002,19.994,24.396,25.901c2.387,5.91,9.804,12.447,7.292,27.788
	c0,0-4.655,21.004-19.367,22.385c0,0-7.543,0.754-11.943-5.406c0,0-4.025-11.32-7.672-1.638c0,0,0.253,2.893,0.379,4.903
	c0.125,2.016-0.379,3.523-0.503,4.779c-0.125,1.261-0.757,5.406-0.757,5.406s-1.632,1.639-1.506-2.01
	c0.124-3.648,1.757-5.155,1.129-8.427C158.75-58.678,159.252-60.192,159.252-60.192z"/>
<g>
	<path d="M46.475-328.915c0,0-4.108,4.051-4.025,6.692c0.083,2.642-1.284,14.048-2.785,16.334
		c-1.502,2.288-4.97,11.452-12.58,14.155c0,0-3.275,1.96-4.083,2.961c-0.811,1.005-3.261,3.631-4.212,3.971
		c-0.951,0.336,0.107-4.146,0.632-5.009c0.527-0.864,2.55-5.487,2.932-7.021c0.385-1.532-0.746-6.67,6.7-14.654
		c7.446-7.988,9.757-9.803,13.354-12.794C46.003-327.268,46.475-328.915,46.475-328.915z"/>
	<path d="M44.188-325.649c0,0-2.377-1.054-3.657,0.324c-1.281,1.379-3.672,5.829-6.898,6.672c-3.228,0.846-8.366,1.532-11.436,1.128
		c-3.069-0.407-13.346-0.931-14.864-0.947c-1.513-0.014,0.346-1.272,3.051-1.678c2.705-0.407,6.683-4.087,8.191-5.113
		c1.504-1.026,1.504-1.026,1.504-1.026s5.836-4.083,14.908-1.429c0,0,6.648,2.077,9.539,1.648"/>
	<path d="M42.986-326.783c0,0,2.155,1.658,1.541,3.439c-0.617,1.778-3.473,5.947-2.622,9.236c0.852,3.287,2.808,8.218,4.719,10.792
		c1.915,2.581,7.557,11.582,8.334,12.939c0.775,1.355,0.988-0.891,0-3.504c-0.99-2.617,0.366-7.876,0.547-9.696
		c0.18-1.819,0.18-1.819,0.18-1.819s0.794-7.107-6.186-14.056c0,0-5.238-5.03-6.302-7.826"/>
	<path d="M41.976-323.253c0,0,17.941-20.885,19.404-22.42c1.466-1.542,7.463-8.715,8.597-9.841c1.133-1.127,5.444-5.358,4.203-5.221
		C72.938-360.602,43.256-327.655,41.976-323.253z"/>
	<path d="M56.764-356.377c0,0-5.724-0.736-7.75,0.959c-2.029,1.694-11.848,7.654-14.572,7.883
		c-2.726,0.232-12.077,3.158-18.899-1.167c0,0-3.564-1.367-4.856-1.383c-1.288-0.016-4.866-0.327-5.72-0.869
		c-0.852-0.54,3.327-2.471,4.333-2.586c1.005-0.121,5.892-1.384,7.333-2.028c1.442-0.639,4.788-4.701,15.666-3.767
		c10.879,0.929,13.736,1.628,18.309,2.612C55.18-355.739,56.764-356.377,56.764-356.377z"/>
	<path d="M52.784-356.167c0,0-0.639-2.521-2.514-2.674c-1.877-0.158-6.851,0.706-9.507-1.313c-2.658-2.019-6.368-5.641-7.942-8.307
		c-1.574-2.663-7.504-11.079-8.428-12.278c-0.922-1.205,1.212-0.516,3.203,1.362c1.987,1.878,7.339,2.744,9.078,3.295
		c1.736,0.547,1.736,0.547,1.736,0.547s6.813,2.074,10.324,10.85c0,0,2.463,6.518,4.586,8.528"/>
	<path d="M52.935-357.811c0,0,0.024,2.721-1.758,3.332c-1.779,0.613-6.825,0.942-8.887,3.638c-2.062,2.7-4.735,7.281-5.582,10.375
		c-0.85,3.095-4.451,13.089-5.041,14.539c-0.586,1.446,1.311,0.229,2.757-2.165c1.45-2.391,6.426-4.568,7.967-5.548
		c1.545-0.984,1.545-0.984,1.545-0.984s6.082-3.755,7.245-13.537c0,0,0.727-7.229,2.27-9.787"/>
	<path d="M49.53-356.428c0,0,9.934,1.01,10.695,1.195c0.763,0.188,4.14,0.403,4.711,0.591c0.57,0.182,2.731,0.913,2.423,0.028
		C67.05-355.498,51.082-358.173,49.53-356.428z"/>
	<path d="M65.969-339.459c0,0,1.942,5.432,0.718,7.774c-1.221,2.343-4.942,13.209-4.585,15.922c0.357,2.712-0.5,12.47,5.181,18.21
		c0,0,2.101,3.191,2.391,4.449c0.294,1.253,1.36,4.686,2.072,5.4c0.71,0.718,1.702-3.777,1.604-4.785
		c-0.1-1.005,0.087-6.053,0.406-7.598c0.32-1.545,3.572-5.683,0.333-16.108c-3.234-10.426-4.53-13.067-6.47-17.325
		C65.683-337.778,65.969-339.459,65.969-339.459z"/>
	<path d="M66.609-335.526c0,0,2.602,0.083,3.155,1.881c0.554,1.799,0.772,6.842,3.316,9.006c2.539,2.165,6.869,5.013,9.809,5.981
		c2.942,0.967,12.427,4.963,13.8,5.606c1.37,0.645,0.241-1.296-2.019-2.836c-2.261-1.542-4.246-6.584-5.154-8.162
		c-0.91-1.58-0.91-1.58-0.91-1.58s-3.48-6.213-12.806-7.767c0,0-6.892-1.014-9.313-2.654"/>
	<path d="M68.188-336.025c0,0-2.663,0.557-2.881,2.426c-0.22,1.868,0.538,6.869-1.655,9.462c-2.194,2.587-6.098,6.181-8.938,7.671
		c-2.842,1.491-11.835,7.144-13.123,8.029c-1.288,0.885-0.503-1.229,1.522-3.156c2.029-1.928,3.088-7.248,3.717-8.968
		c0.63-1.719,0.63-1.719,0.63-1.719s2.373-6.747,11.675-9.969c0,0,6.904-2.26,9.077-4.313"/>
	<path d="M67.562-332.406c0,0-3.109-9.489-3.455-10.194c-0.344-0.703-1.28-3.955-1.581-4.474c-0.3-0.52-1.479-2.471-0.549-2.36
		C62.907-349.32,68.934-334.298,67.562-332.406z"/>
</g>
<path d="M277.942-78.143c5.222-1.306,18.928-9.79,17.841-4.788c-1.088,5.006-19.147,14.579-16.755,17.84
	c2.613,1.089,9.357-1.737,6.53,1.089c0,0-4.571,8.267-7.616,9.354c-3.045,1.09-4.134,4.572-6.093,5.878
	c-1.958,1.306-2.83,0.218-2.611-0.653c0,0-10.008-14.361-13.706-18.71c0,0-2.828-6.967,8.268,0c0,0,2.61,2.172,2.395-0.219
	c-0.218-2.395-4.354-3.918-6.746-5.877c-2.395-1.959-4.352-1.741-6.962-5.22c-2.611-3.482-5.441-7.614-5.657-9.573
	c-0.218-1.959,9.356,1.307,12.184,3.043c2.828,1.742,6.311,5.441,7.833,6.313c1.521,0.87,4.351,0.436,2.393-1.306
	s-6.525-4.136-9.138-6.091c-2.61-1.959-2.393-3.7-5.438-3.918c-3.047-0.217-6.964-0.653-7.398-1.306
	c-0.435-0.653-3.264-0.435-1.305-2.83c1.958-2.391,2.175-2.825,0.217-4.566s-1.958-1.741-1.958-1.741s-6.31-4.354-4.787-10.227
	c3.047-1.523,5.223,1.523,7.833,3.483c0,0,3.047,0.435,6.311,3.478c3.263,3.048,7.179,6.53,10.226,8.268
	c3.046,1.741,5.655,5.006,5.438,2.395c-0.219-2.613,2.611-2.395-0.653-6.091c-3.262-3.7-5.872-4.354-8.919-6.53
	c-3.047-2.172-5.439-7.18-6.746-7.614c-1.305-0.436-0.651,0.435-2.176-2.612c-1.522-3.043-4.351-6.09-4.568-8.267
	c-0.217-2.177,1.306-4.349,3.482-3.479c2.175,0.87,10.66,11.097,12.618,11.314c1.959,0.214,2.828-0.653,2.176-3.048
	s-6.744-14.361-5.875-15.668c0.871-1.302,3.264,2.395,4.569-0.436c1.306-2.825-1.306-6.961,1.523-5.437s5.004,2.829,5.004,4.135
	c0,1.302,0.218,3.044,0.218,8.269c0,5.219,1.958,9.789,3.047,7.178c1.089-2.612,1.306-6.525,2.176-10.443s0.654-5.003,3.045-2.611
	c2.393,2.394,8.051,5.006,5.223,6.529c-2.83,1.52-3.265,4.131-2.178,5.873c1.09,1.741,1.96,1.522,0,5.441
	c-1.957,3.914-5.656,23.061-4.132,23.061c1.523,0,5.004-0.871,7.181-4.784c2.177-3.919,8.484-16.322,9.79-10.444
	c1.308,5.873-0.435,6.744,0.218,8.484"/>
<g>
	<path d="M-50.245-47.09c0,0-3.082-10.116-5.472-13.799c-0.793-1.222-1.215-3.276-2.363-4.765c-2.307-2.99-3.958-9.668-3.494-13.438
		c1.69-13.716,2.105-10.289,2.279-11.48c0,0-1.94,6.854-1.334,9.129c0.603,2.273,3.521,12.365,4.55,14.175
		c1.03,1.813,6.111,10.318,7.047,12.651c0.932,2.338,2.321,3.133,1.574,5.337C-48.204-47.075-50.245-47.09-50.245-47.09z"/>
	<path d="M-63.716-76.833c-6.393,7.74-7.03,7.335-9.637,12.266c-0.877,1.652,0.195,3.599-0.877,4.38
		c-1.07,0.776-2.531-2.631-2.822-3.503c-0.294-0.877-2.92,0.583-4.186,1.166c-1.265,0.583-5.063,5.061-6.815,4.576
		c-1.751-0.485-2.629-1.166-1.948-1.947c0.683-0.781,1.169-2.239,2.53-3.795c1.365-1.559,4.286-2.338,4.382-4.77
		c0.096-2.438-1.07-4.577-3.113-4.284c-2.046,0.29-10.515,0.873-10.515,0.487c0-0.39,0.682-1.561,1.07-1.754
		c0.391-0.192,1.851-0.391,2.532-1.557c0.68-1.171,1.362-2.238-0.682-2.238c-2.043,0-4.964,0.582-5.451,0
		c-0.487-0.584-0.391-2.239-0.196-2.923c0.196-0.682,2.047-1.265-0.973-1.462c-3.017-0.192-3.796-0.192-4.965-0.874
		c-1.168-0.683-3.895-1.364-0.974-1.459c2.922-0.098,3.991,0.292,5.842,0.095c1.849-0.192,3.018-0.292,2.918-1.458
		c-0.097-1.168-1.265-2.53,0.198-2.239c1.457,0.292,3.795,0.682,5.839,0.682s3.699,1.85,3.795-0.196
		c0.099-2.041,4.577-1.168-0.779-4.38c-5.354-3.212-6.911-6.326-10.318-6.815c-3.406-0.484-7.204-1.75-3.7-2.238
		c3.506-0.484,3.603,0.874,5.163-0.975c1.557-1.849,1.749-1.556,1.457-3.311c-0.291-1.75-1.848-2.625-2.239-3.114
		c-0.388-0.483-0.583-2.238,0.196-2.238c0.778,0,3.6-2.047,0.973-3.604c-2.629-1.557-5.938-3.213-4.868-4.577
		c1.07-1.357,0.1-2.14,3.213-0.484c3.116,1.656,3.602,3.993,3.7,2.047c0.098-1.947,0.877-4.186,1.947-2.239
		c1.07,1.948,1.655,3.307,3.017,4.379c1.365,1.072,3.018,1.458,3.603-0.099c0.583-1.557,0.682-4.478,2.822-0.391
		c2.143,4.092,2.629,6.331,5.063,7.014c2.435,0.682,3.601,2.63,3.408-1.755c-0.195-4.379,0.583-7.107-1.364-8.663
		c-1.946-1.559-2.626-2.823-3.503-4.577c-0.877-1.75-0.974-3.015,1.169-2.041c2.14,0.973,0.193,0.775,2.921,1.166
		c2.725,0.391,3.113,1.655,3.308,0.489c0.196-1.172,0.389-1.946,0.196-3.702c-0.196-1.749,1.265-3.993,2.53-3.02
		c1.265,0.974,1.752,2.827,1.557-1.359c-0.195-4.186-1.166-14.796,0.877-9.153c2.044,5.649,2.14,9.539,3.699,10.419
		c1.557,0.876,5.061-0.1,5.061,0.682c0,0.777-1.752,2.625-0.487,3.796c1.265,1.166,2.239,0.683,4.965,0
		c2.725-0.682,1.169,0.776,1.46,5.452c0.295,4.67-0.291,7.492,0.487,6.617c0.778-0.875,1.852-0.875,2.434-3.504
		c0.586-2.63-0.096-7.107,1.266-5.16c1.364,1.947,1.461,3.796,1.461,3.796s1.559,1.854,2.726-0.876
		c1.168-2.722-1.265-3.311,1.364-5.06c2.627-1.755,2.239,1.072,3.699,1.166c1.46,0.1,2.239,1.463,3.213-1.363
		c0.971-2.822,2.53-5.161,2.433-3.505c-0.099,1.655,0,4.186,0,6.426c0,2.238,1.266,3.312,2.822,2.729
		c1.561-0.583-0.778,0.483-0.875,2.92c-0.099,2.432-2.046,4.963,3.601,5.061c5.646,0.099,9.442-2.139,6.037,0.392
		c-3.407,2.531-12.85,8.466-12.17,10.804c0.683,2.338,0.877,2.921,3.991,2.145c3.117-0.78,6.233-2.728,6.719-2.338
		c0.487,0.392-2.824,2.338,0,4.28c2.823,1.947,0.68,2.146,4.381,1.072c3.7-1.072,7.883-2.921,6.523-1.362
		c-1.365,1.561-3.993,4.283-5.744,6.523c-1.754,2.238-6.038,3.795-3.602,4.576c2.434,0.78,2.434,2.046,0.39,2.629
		c-2.047,0.583-2.241,2.237-0.976,3.895c1.267,1.655-0.097,1.457-4.283,1.457c-4.186,0-9.344-1.165-10.124,0.584
		c-0.779,1.755,6.133,11.975,8.081,12.657c1.946,0.683,0.973,2.14-1.752,1.364c-2.726-0.782-4.187-0.88-8.177-2.437
		c-3.993-1.558-5.063-3.406-6.524-2.238c-1.461,1.17-1.168,5.258-2.92,3.603c-1.75-1.656-2.432-0.781-5.16-5.645
		c-2.724-4.868-3.213-9.253-5.84-9.346C-61.867-79.17-63.716-76.833-63.716-76.833z"/>
</g>
<g>
	<path d="M-207.985-132.662l12.559,16.599l0.639,1.041l6.658,10.861l2.155,0.056c0,0-1.578-2.663-2.923-3.054
		c-1.347-0.39-11.188-17.874-13.609-19.715c-2.422-1.843-4.382-6.004-4.382-6.004L-207.985-132.662z"/>
	<polygon points="-194.788,-115.022 -190.001,-117.837 -191.347,-118.229 	"/>
	<path d="M-185.975-104.105c0,0-0.981,16.516,7.677,29.99c0,0,11.664,16.729,34.504,19.829c0,0,10.608-0.125,11.836,0.548
		c1.229,0.677,5.4,2.741,5.4,2.741s-1.639-4.534-2.395-6.353c-0.754-1.82,1.722-15.874,1.051-17.493
		c-0.669-1.616-2.558-9.602-4.333-12.182C-134.013-89.606-154.641-118.262-185.975-104.105z"/>
	<path d="M-194.284-115.591l2.937-2.638c0,0,5.649,3.348,7.685,3.688c2.037,0.344,9.011-1.123,11.216-0.376
		c2.202,0.744,4.811,1.323,8.38,0.795c3.574-0.531,9.879-0.183,12.103-1.101c2.226-0.923,8.306-5.689,9.944-8.027
		c1.637-2.336,0.845-0.823-1.253-3.035c-2.104-2.21-6.352-7.322-9.258-9.196c-2.909-1.875-15.289-7.174-18.372-6.609
		c0,0-21.572,1.112-20.578,22.97"/>
	<path d="M-193.167-115.757c0,0,7.192,11.651,2.268,21.509c0,0-3.448,13.982-6.886,15.407c-3.439,1.424-7.163,2.729-9.589,3.733
		c-2.428,1.006-2.428,1.006-3.524,1.219c-0.956,0.19-0.379-1.158-0.841-3.767c-0.067-0.379-0.154-0.786-0.274-1.217
		c-0.935-3.406-4.349-10.936-4.423-11.971c-0.072-1.034,1.849-13.559,3.387-17.571c1.537-4.011,6.301-10.959,14.379-8.619
		C-198.67-117.033-191.806-117.979-193.167-115.757z"/>
</g>
<path d="M270.5-295.479c0,0,0.882,4.956,4.171,5.866c2.82,0.779,3.654,3.808,3.654,3.808s1.31-2.136,2.452-1.678
	c1.143,0.457,7.424,2.968,7.195,2.283c-0.228-0.687-1.484-4.34-1.484-4.34s7.65,2.284,10.049-0.799c0,0-2.739-3.655-4.11-3.883
	c-1.37-0.228,7.423-2.284,7.994-5.481c-2.74-1.142-6.852-1.941-6.852-1.941s7.536-2.969,7.536-6.51c0,0-5.025-0.57-6.737-0.456
	c0,0,5.367-7.652,4.568-11.078c0,0-4.798-0.115-6.054,0.685c0,0,6.054-6.852,5.483-9.479c-0.573-2.627-5.14-0.343-5.596-0.114
	c-0.458,0.228-0.458,0.228-0.458,0.228s4.454-6.738,2.056-10.048c0,0-4.226,1.484-5.596,2.511
	c-1.371,1.029,3.254-4.054,2.057-11.648c0,0-2.057-0.8-3.827,0.972c0,0,1.771-7.08,0.285-8.736c0,0-4.242,0.107-6.373,3.03
	c0,0,2.397-8.053,0.913-10.963c0,0-1.636-0.11-3.68,1.429c-0.049,0.036,0.415,0.014,0.369,0.054
	c-1.314,1.142,0.514-5.425-2.284-8.28c0,0-2.342-0.284-3.483,2.227c0,0,1.083-4.053-2.969-7.936c0,0-1.145-0.229-1.428,0.799
	c0,0-0.058-3.083-3.026-2.741c0,0-0.344-0.457-0.514-0.457c-0.173,0-0.229,0.343-0.515,0.457c-0.286,0.115-2.056,0.458-1.999,2.342
	c0,0-0.915-0.115-0.915-0.287c0-0.17-2.568,3.598-2.797,4.34c-0.228,0.742-1.255,2.168-1.143,2.968
	c0.115,0.8,0.971,2.341,0.971,2.341s-2.397-1.541-3.368-1.484c-0.971,0.058-1.142,2.17-0.971,2.97c0.17,0.8-2.113,4.167-0.457,6.567
	c0,0,0.856,1.027-1.198-0.229c-2.057-1.256-3.427-0.742-4.055-0.627c0,0-0.971,10.049,2.57,11.134c0,0-3.826-2.114-6.911-1.484
	c0,0-0.343,6.338,3.37,9.535c0,0-1.543-0.971-2.799-1.314c-1.256-0.341-2.911-0.456-3.54-0.398c-0.63,0.057-1.026,6.109,1.313,8.394
	c0,0,0.68,0.602-0.742,0.286c-2.057-0.457-3.368-0.971-4.168-0.229c-0.8,0.741,0.913,8.279,4.055,10.164
	c0,0-2.515-1.922-6.396-1.275c0,0,0,5.329,4.873,8.831c0,0-4.931-0.732-5.815,0.01c-0.878,0.738,1.6,6.387,6.99,9.287
	c0.029,0.018,0.061,0.032,0.093,0.049c0,0,1.396,0.6-0.259,0.571s-6.596,0.885-7.053,1.685c0,0-0.658,2.542,6.653,4.911
	c0,0,1.427,0.485,0.313,0.599c-1.113,0.115-3.026,0.829-3.598,1.342c-0.571,0.513-1.685,1.085-1.77,1.457
	c-0.086,0.37,1.97,3.054,9.678,2.825c0,0-2.14,2.485-2.512,3.513s-0.457,1.684-0.457,1.798c0,0.115,2.256-0.058,3.483-0.171
	c1.229-0.115,3.17-0.058,3.996-0.457c0.829-0.399,0.857-0.686,0.743-0.143s-0.827,2.513-0.798,3.227
	c0.027,0.713,0.427,0.769,1.055,0.342c0.629-0.429,1.885-1.056,2.342-1.542c0.456-0.484,1.37-0.884,2.057-1.313
	c0.684-0.427,7.336-2.711,7.052-7.365c0,0-0.374-1,0.256-1.6c0.629-0.599,1.742-0.828,2.171-0.399
	c0.428,0.429,1.083,0.086,0.971,1.286c-0.114,1.199-2.513,9.42-2.97,10.792c-0.458,1.37-0.572,1.483-0.484,1.57
	c0.084,0.085,1.37-0.057,1.684-0.057c0.313,0,1.598-4.911,1.741-5.454c0.142-0.543,0.856-5.396,1.141-6.024
	c0.287-0.627,0.431-1.114,0.829-1.199C267.523-295.618,269.65-296.225,270.5-295.479z"/>
<path fill="#020202" d="M-128.351,55.552c0-0.221,1.174,0.22,1.32-1.319s0.146-3.299-0.439-3.446
	c-0.587-0.146-1.687,1.98-1.467,0.44c0.22-1.539,0.22-2.64,0.367-3.667c0.146-1.026,1.393-3.811,0.146-3.224
	c-1.246,0.586-1.979,1.394-3.152,2.931c-1.173,1.54-6.012-5.791-7.259-7.33c-1.247-1.54-5.352-5.866-5.718-6.013
	c-0.367-0.146,0.954-1.027,2.712-1.614c1.759-0.586,4.766-1.759,6.085-1.393c1.32,0.369,3.52,1.32,5.06,1.32s2.713,0.293,3.52-0.073
	c0.806-0.366-1.027-1.027,0.659-1.905c1.687-0.88,3.006-0.587,3.373-1.907c0.368-1.319-1.54-2.418-0.586-3.299
	c0.954-0.881,3.226-2.419,3.226-3.887c0-1.465-0.293,0-1.467-1.026c-1.173-1.025-0.513-0.438-1.246-1.466
	c-0.733-1.026-0.439-0.879,0.22-1.906c0.66-1.026-1.1-2.054-1.1-2.054s0.954-1.026-0.586-2.125c-1.54-1.1-2.346-1.026-2.713-2.861
	c-0.367-1.831-0.146-3.298-1.247-2.858c-1.1,0.44-1.686,1.394-2.199,0.515c-0.513-0.881-0.733,0.146-1.027-1.54
	c-0.293-1.686-0.44-2.347-1.685-2.052c-1.247,0.293-1.467,0.071-1.98-1.027c-0.514-1.101-1.32-1.248-2.2-0.952
	c0,0-0.439-3.74-1.539-2.861c-1.1,0.881-0.807,1.834-1.907,0.954s-2.053-1.54-2.346-2.346c-0.293-0.808,0,1.026-1.1-0.221
	c-1.1-1.248-1.686-1.76-2.053-1.393c-0.367,0.365-0.073-2.713-1.026-2.273s-1.687,0.661-1.687,0.661s-1.173,0.879-1.466-1.101
	c-0.293-1.98-1.32-2.712-1.393-2.346c-0.073,0.365-0.66,0.805-0.807,1.246c-0.146,0.439-0.439-0.368-1.539-1.395
	c-1.1-1.025-0.881-1.173-2.126-0.804c-1.248,0.365-1.1,0.512-2.713-1.614c-1.613-2.128-3.079-4.326-3.079-2.859
	c0,1.465-0.22,1.613,0.073,3.518c0.293,1.908-1.026,2.494-0.954,3.3c0.074,0.808,0.734,1.833-0.073,1.98
	c-0.807,0.145-0.22-1.541-1.173-0.147c-0.954,1.394-1.54,2.273-1.907,1.026c-0.366-1.246-1.1-3.738-1.613-2.199
	c-0.514,1.54-0.514,1.54-0.514,1.54s1.32,2.784,0,1.611c0,0-1.833-2.125-2.786-1.687c-0.953,0.442-1.686,0.881-2.346,0
	c-0.66-0.878-1.687-1.465-2.713-2.197c-1.026-0.733-2.053-0.88-2.053,0.146s0,3.593-0.806,2.493c-0.807-1.1-1.54-1.688-2.126-1.395
	c-0.587,0.295-1.026-1.687-2.126-0.879c-1.1,0.807-1.174,2.199-2.346,1.539c-1.173-0.66-1.32-1.173-2.273-0.879
	c-0.953,0.293,0.221,0.879-0.806,0.585c-1.026-0.292-2.712-1.611-2.712-1.611s-1.466-0.221-1.98,0.512
	c-0.513,0.733-2.932,0.588-4.032-0.219c-1.1-0.808-1.393-1.026-1.393-0.439c0,0.586,1.466,2.859-5.353-0.146
	c-6.819-3.007-6.819-2.787-9.897-3.96c0,0-6.305-2.347-8.065-0.587c0,0,3.446,0.074,3.959,0.587c0.512,0.513,1.54,1.687,3.005,2.199
	c1.466,0.514,8.065,5.426,8.651,6.013c0.586,0.586,1.247,0.952,0.953,1.76c-0.293,0.807-0.367,1.979,0.366,2.711
	c0.733,0.734,0.733,0.734,0.733,0.734s1.467,1.614,2.126,2.2c0,0-1.906,1.832-1.32,2.346c0.586,0.513,3.446,1.613,4.986,2.932
	c1.54,1.321-0.293,2.348-0.953,2.714c-0.66,0.365-1.247,0.365,0.514,1.907c1.759,1.538,5.206,3.444,2.932,4.104
	c-2.273,0.66-5.718,1.466-2.639,1.835c3.08,0.365,2.126,0.145,2.42,0.805c0.293,0.661,0.073,0.808,1.026,2.053
	c0.953,1.247,0.953,1.102,0.807,1.906c-0.146,0.807-0.22,1.175-1.173,2.348c-0.953,1.173-1.32,1.687,0.146,2.125
	c1.467,0.441,1.906,0.734,2.346,2.2c0.44,1.465,1.32,0.587,0.733,2.2c-0.586,1.611-0.586,2.199,0.294,2.638
	c0.88,0.44,2.053,0.514-0.513,1.467c-2.566,0.954-5.279-0.073-4.766,0.954c0.514,1.026,0.514,2.491,2.2,3.005
	s1.979,2.273,1.979,2.641c0,0.366,1.172-0.294,2.346,0.438c1.173,0.734,0.733,1.247,0.44,2.346
	c-0.293,1.101-2.639,1.395,0.074,1.175c2.712-0.221,1.026-0.588,1.979,0.073c0.953,0.658,2.492,0.806,2.492,0.806
	s-0.733,1.246-0.733,1.761c0,0.513,0.293,1.245,1.76,0.879c1.466-0.366,1.393,1.32,1.393,1.32s1.832,0,2.419,0.66
	c0.586,0.659-2.2,2.639-0.88,2.785c1.32,0.146,3.08-1.319,3.593-0.072c0.512,1.246-0.587,2.419,1.026,2.052s2.933-1.613,3.079-0.073
	c0.147,1.54,0.953,2.347,2.199,1.319c1.247-1.024,2.933-1.907,2.859,0.44c-0.073,2.346,0.147,3.225,2.273,1.905
	c2.126-1.318,2.126-1.905,2.786-0.293c0.66,1.612,0.22,2.199,2.126,1.175c1.906-1.027,2.126,1.173,3.079,1.318
	c0.953,0.146-1.173-1.318,0.806-2.272c1.98-0.952,1.027,0.806,2.713,0.733s1.759-0.661,2.786-1.541
	c1.026-0.88,0.66-1.317,1.979-0.806c1.32,0.513,0.953-0.512,2.566-0.881c1.613-0.366-0.514,3.667,1.247,2.055
	c1.76-1.613,0.513-2.421,1.613-3.373c1.1-0.954,1.54,1.832,1.833,0.146c0.293-1.686,0.366-4.179,1.247-2.857
	c0.88,1.319,1.614,1.392,1.833-0.882c0.22-2.271-0.366-3.005-1.247-4.692c-0.88-1.685-1.76-1.611-2.565-4.691
	c-0.807-3.079-0.807-6.819-0.88-7.111c-0.073-0.294,6.966,8.211,9.385,10.191c0,0,4.252,7.112,7.772,8.064"/>
<path fill="#020202" d="M-76.665,22.992c0,0,0.822-0.72,1.438-1.543c0.616-0.82,0.925-2.156,1.234-2.567
	c0.307-0.409,1.539-0.821,2.363-0.821c0.82,0,1.333,1.541,0.614,2.568c-0.718,1.026-3.697,6.574-4.108,6.778
	c-0.411,0.206-4.621,4.52-4.621,5.035c0,0-1.128,5.34-1.747,6.983c-0.615,1.644-2.054,4.005-3.082,5.238
	c-1.026,1.231-2.977,3.594-2.977,3.594s-1.85,1.85-2.466,3.081c-0.616,1.233-2.158,0.515-2.877,2.569
	c-0.719,2.055-2.772,2.26-3.287,2.876c-0.513,0.617-1.026,1.54-2.053,2.054c-1.028,0.514-2.056,2.26-2.671,2.363
	c-0.617,0.103,3.8-0.411,4.52-0.411s0.923-0.616,0.719,0c-0.205,0.617,0.923,0.617,2.259,0.411c1.335-0.204,0.513,0.719,0.513,0.719
	l2.671-0.411l0.206,0.822c0,0,4.622-1.334,5.032-1.439c0.41-0.102-0.616,1.542,0,0.823c0.616-0.718,3.082-1.746,3.082-1.746
	l0.411,0.615c0,0,4.417-2.464,4.725-2.772l0.514,0.479c0,0,1.438-1.645,1.713-1.849c0.273-0.206,0.136,1.232,0.752,0.547
	c0.616-0.685,1.438-2.396,1.643-2.396c0.206,0,0.273,0.89,0.684,0.342c0.412-0.548,3.768-4.452,4.042-4.725
	c0.273-0.274,0.547-0.206,0.685-0.89c0.139-0.686,1.712-2.671,2.123-3.698c0.411-1.028,0.411-1.576,1.026-2.809
	c0.618-1.233,0.891-2.876,1.369-4.107c0,0,1.234-3.014,1.371-3.699c0.136-0.684,1.302-2.671,2.124-3.013
	c0.821-0.342,1.78-1.097,2.327,0.685c0.548,1.781,0.343,4.313,0.137,5.273c-0.206,0.96-0.958,1.712-1.163,3.013
	c-0.208,1.302-0.412,2.809-0.412,3.355c0,0.548-0.318,7.658,0.138,7.601c0.135-0.017,0.643,4.539,0.855,5.375
	c0.378,1.498,1.317,2.68,1.285,2.877c-0.052,0.309,0.206,1.797,0.206,1.797s0.565,1.13,0.872,1.849
	c0.308,0.72,0.564,0.823,0.564,0.823s-0.205,1.231,0.103,1.693c0.31,0.464,0.823,0.67,0.874,0.822c0.05,0.154,0,0.873,0.255,1.386
	c0.259,0.514,0.514,0.566,0.771,0.669c0.258,0.103,0.823,1.692,0.771,2.413c-0.052,0.719,0.462,1.593,0.875,0.771
	c0.409-0.821,0.923-2.311,1.488-2.208c0.564,0.103,0.924-0.667,1.181-1.232c0.257-0.564,0.667,0.257,0.923-0.052
	c0.258-0.308,0.513-1.335,0.978-1.231c0.461,0.102,0.255,0.821,0.461,0.102c0.206-0.719,0.977-2.566,1.233-2.105
	c0.258,0.462,0.462,0.874,0.718,0.513c0.257-0.358,1.13-3.389,1.748-3.235c0.615,0.154,0.719,0.822,0.873,0.411
	c0,0,0.874-2.26,1.438-3.029s0.102-0.821,0.154-1.028c0,0,1.231-1.692,1.077-2.104c-0.151-0.411,0.463-3.439,0.36-3.801
	c-0.102-0.358,0.412-0.258,0.565-0.153c0.154,0.103,0.257-2.312,0.154-3.081c-0.102-0.771,0.513-0.719,0.565-0.515
	c0.052,0.205,0-2.722,0.052-3.132c0.05-0.41,0.769,0.256,0.667-0.104c-0.103-0.359-0.412-2.363-0.667-3.392
	c-0.258-1.026-0.104-0.769,0.05-1.283c0.155-0.512-0.154-3.749-1.284-4.93c-1.129-1.181-2.157-2.823-2.722-4.827
	c-0.564-2.004-1.849-4.879-0.668-5.752c1.182-0.871,2.055-1.026,3.75,0.102c1.695,1.131,3.595,2.569,4.828,3.135
	c1.231,0.564,2.875,1.693,4.416,2.31c1.54,0.618,1.232-0.77,1.232-0.924s2.568,1.336,2.465,1.078
	c-0.103-0.255,0.719-1.387,1.591-1.333c0.874,0.05,2.003,0.513,2.157,0c0.155-0.515,0.155-0.515,0.155-0.515s1.54-0.155,2.053-0.515
	c0.513-0.359-0.153-0.667,0.719-0.821c0.873-0.153,3.75-0.359,3.8-0.82c0.053-0.464-0.051-1.184-0.77-1.954
	c-0.72-0.769-0.72-0.923-0.82-1.593c-0.104-0.665,0.101-0.306-0.721-0.871c-0.821-0.564-2.054-1.49-1.899-2.105
	c0.154-0.616-2.413-1.643-3.133-2.26c-0.718-0.616-0.77-1.132-0.514-1.233c0.257-0.103-1.027-0.925-2.207-1.129
	C-25,16.57-25.152,16.366-25,16.263c0.156-0.103-0.974-1.181-3.029-1.796c-2.054-0.618-5.136-0.976-6.162-1.953
	c0,0-2.569-1.464-0.745-2.311c0,0,2.181-0.41,3.363-0.154c1.182,0.258,3.055,0.721,4.288,0.721c1.233,0,4.033-0.155,4.929-0.437
	c0.9-0.284,2.081-0.489,2.081-0.928c0-0.434-0.847-0.332-0.283-0.666s1.979-1.154,2.002-1.464c0.027-0.309-0.564-0.437-0.564-0.437
	s0.796-0.797,1.31-1.104c0,0,0.129-0.205,0.256-0.359c0.129-0.152,1.542-0.514,1.542-0.897c0-0.386-1.875-1.311-1.565-1.566
	c0.307-0.259,0.896-0.077,0.435-0.488c-0.462-0.411-1.798-1.156-1.386-1.31c0.41-0.154,0.746-0.103,0.36-0.438
	c-0.387-0.333-2.954-1.487-3.261-1.669c-0.308-0.179,0.308-0.024,0.333-0.462c0.025-0.436-3.288-1.207-3.827-1.334
	c-0.539-0.13-0.308-0.13-0.384-0.464c-0.077-0.332-3.234-0.051-3.57-0.181c-0.333-0.127-0.206-0.306-0.05-0.486
	c0.154-0.18-8.423,2.131-8.835,1.515c0,0,0.309-5.443,0.027-6.701c-0.283-1.259-3.082,1.026-3.596,1.053
	c-0.515,0.025-0.564-0.566-0.564-0.566s-1.335,1.438-1.517,1.027c-0.179-0.411,0.155-1.154-0.102-1.514
	c-0.257-0.36,0.129-0.926-0.103-1.413c-0.231-0.488-0.487-1.926-0.771-2.209c-0.279-0.282-4.339,3.52-5.083,2.414
	c-0.745-1.103-1.079-4.647-1.438-5.162c-0.358-0.512-0.59-2.49-1.104-2.592c0,0-0.462,0.358-0.564,0.102
	c-0.104-0.256,0.077-1.745-0.746-2.362c-0.821-0.615-0.488,0.438-0.666,0.31c0,0-1.646-1.207-2.723-2.209
	c-1.078-1.002-0.746-0.231-0.668,0.206c0,0-1.542-0.336-1.978-0.746c-0.438-0.41-0.926-0.591-1.978-1.798
	c-1.052-1.207-1.463-2.131-1.643-1.693c-0.181,0.435-0.489,1.771-0.514,2.028c-0.026,0.257-0.206,0.359-0.255,0.924
	c-0.052,0.565-0.104,1.823-0.464,2.593c-0.359,0.772-0.949,0.925-0.924,1.079c0.027,0.153,0.077,4.159,0.334,4.623
	c0.258,0.462-0.617,0.154-0.359,0.667c0.258,0.515,1.927,4.597,3.338,5.573c1.412,0.975,2.027,2.003,2.027,2.235
	c0,0.229-0.616,0.947-1.076,0.64c-0.464-0.308-1.67-1.797-1.927-2.542c-0.257-0.744-0.078-1.104-0.977-1.823
	c-0.898-0.719-2.028-1.696-2.979-2.515c-0.95-0.824-1.85-1.749-2.233-1.876c-0.387-0.127-1.131-0.437-1.002-0.027
	c0.128,0.412-2.338-0.692-2.542,0.154c-0.205,0.848-2.85-1.667-3.03-0.872s-2.952-1.079-3.184,0.281
	c-0.232,1.361-1.825-1.334-2.645,0.437c-0.771,0.335-1.696-0.819-2.03,0.104c0,0-3.696-0.308-3.696,0.207
	c0,0.514,1.744,2.079,2.592,3.054c0.85,0.978,1.62,2.877,2.647,3.724c1.025,0.848,1.821,1.927,2.463,2.44
	c0.642,0.514,2.544,1.927,4.032,3.004c1.488,1.078,5.393,2.927,5.548,3.467c0.152,0.539,0.306,1.488-0.359,1.593
	c-0.669,0.103-1.209,0.409-2.981,0.385c-1.771-0.026-6.418-0.462-7.472-0.435c-1.053,0.022-1.208-0.337-1.978,0.05
	c-0.77,0.385-0.847,0.975-1.771,0.924c-0.926-0.05-1.338-0.821-1.388,0.104c-0.05,0.923-0.821,1.025-1.386,0.923
	c-0.565-0.102-1.104-0.718-1.052-0.052c0.05,0.669-0.309,0.848-0.438,0.925c-0.128,0.077-1.617,0.23-2.335,0.386
	c-0.719,0.154-0.541,0.745-0.617,1.052c-0.078,0.309-0.643,0.464-1.386,0.874c-0.746,0.412-1.028,0.668-1.028,0.668
	s0.437,0.411-0.103,0.593c-0.539,0.177-2.902,1.771-2.824,1.925c0.077,0.153,0.385,0.385,0.54,0.589
	c0.152,0.207-2.287,1.386-2.593,1.618c-0.31,0.231,0.666,0.103,0.487,0.72c-0.181,0.615-2.544,2.26-2.774,2.361
	c-0.231,0.103,0.206,0.232,0.206,0.386c0,0.154-2.901,2.234-2.464,2.799c0.436,0.566,0.897,0.566,0.436,0.898
	c-0.462,0.335-0.693,0.54-0.693,0.54s-0.052,0.411-0.052,0.615c0,0.206-2.08,2.645-2.387,2.928s3.594,0.31,4.16,0.31
	c0.565,0,0.284,0.255,0.335,0.537c0.051,0.283,4.364,0.182,5.006,0.182c0.643,0,0.487,0.255,0.309,0.437
	c-0.182,0.178,2.413-0.258,3.491-0.361c1.079-0.102,0.565,0.258,1.489,0.207c0.924-0.053,0.513-0.257,1.182-0.592
	c0.667-0.332,0.642-0.358,1.516-0.076c0.871,0.281,1.128,0.359,1.848-0.104c0.719-0.462,1.079-0.437,1.616-0.437
	c0.542,0,0.719,0.129,1.438-0.05c0.719-0.18,1.875-0.489,2.491-0.617c0.618-0.127,1.207-0.104,1.49-0.309
	c0.283-0.206,1.721-0.642,2.362-0.488C-76.869,23.479-76.665,22.992-76.665,22.992z"/>
<path fill="#F39800" d="M8.485,24.256c0,0,5.198-19.147,34.295-22.734c0,0,3.87,0.006,8.803-1.521c0,0,14.06-0.307,34.606,9.388
	c0,0,3.3,3.569,4.856,4.061c1.559,0.492,5.991,8.119,10.464,11.018c0,0-5.77,4.506-6.387,5.627
	c-0.617,1.123-8.025,7.281-8.638,8.261c0,0-8.967,5.741-11.113,5.583c0,0-14.776,6.398-31.45,5.17c0,0-34.661-3.176-35.044-22.59
	c0,0-6.188,1.764-7.521,1.711c-1.335-0.053-1.959-1.223-0.582-2.222C2.151,25.011,8.485,24.256,8.485,24.256z"/>
<g>
	<path d="M271.742-20.193c0,0,1.565,8.449,5.216,9.807c0,0,3.233-0.731,6.467-2.608c0,0-1.146,5.424-1.772,7.613
		c-0.626,2.192-3.025,9.807-2.608,13.04c0.418,3.233-0.313,3.547,0.521,4.382c0.836-0.313,4.694-7.199,5.007-8.764
		c0,0,2.817-4.382,3.443-8.449c0,0,2.607,5.007,8.136,1.878c0,0,1.044-1.773,1.878-2.712c0.834-0.939,0.521-0.313,2.189,0.209
		c1.669,0.521,4.695-1.044,6.155-2.191c0,0-2.504,3.756-0.626,5.319c1.877,1.564,3.65,1.254,2.816,3.757
		c-0.835,2.504-1.982,1.878-1.669,3.442s1.147,1.98,1.147,1.98s-2.295,1.773-2.087,2.922c0.209,1.146,0.626,2.189,4.382,3.129
		c3.755,0.938,3.547,0.418,3.547,0.418s-6.468,4.589-3.86,8.553c0,0-8.554,2.816-13.353,10.014c0,0,8.659,3.026,11.579,2.295
		c0,0-2.295,4.694,8.867,6.154c0,0-3.025-0.104-7.929,2.19c0,0-3.233,3.026-4.798,3.756s-2.189-0.729-2.816,0.938
		c-0.625,1.669-0.625,3.233,1.461,1.669c0,0-0.73,2.608-4.902,1.461c0,0-9.389-3.548-9.91,0.625c0,0-0.104,4.901,4.276,7.72
		c0,0,1.878,1.772,1.878,2.398s-2.816-1.773-5.737-2.19c-2.92-0.417-5.841-0.522-6.05,1.044c-0.208,1.564-5.842-6.469-10.326-4.381
		c0,0-1.044-3.964-4.381-4.068c0,0-1.67-0.626-3.548,3.754c0,0-5.841,3.964-7.719,5.007c-1.878,1.044-4.902,5.216-6.675,5.216
		c2.606-8.762,1.355-6.988,1.876-8.553c0,0,0.522-3.234-1.564-4.068c0,0-6.363-0.729-15.125,4.798c0,0,3.652-6.153,0.522-7.928
		c0,0-5.737-0.521-6.78,0.21c0,0,4.275-5.217-10.953-7.824c0,0,9.492-1.878,11.578-6.885c0,0,1.565,1.044,6.781-0.209
		c0,0,3.338-0.313,4.588-0.834c0,0,0.314-1.982-1.668-4.068c0,0-2.086-3.755-3.859-4.38c-1.772-0.627-3.233-2.296-4.485-2.713
		c-1.251-0.418-1.773-3.128-3.547-4.485c0,0-2.398-2.399-3.964-2.921c0,0,1.356-0.625,4.486-0.625c0,0,6.257-0.939,3.65-8.032
		c0,0-2.086-4.382-4.276-6.363c0,0-1.147-0.209,1.877-0.418c0,0,2.921-0.416,0.938-7.196c0,0,0.313-0.209,1.253,0.416
		c0.938,0.626,3.338-0.73,4.381,0.418c0,0,1.668,0.939,3.755,3.13c0,0,1.459,0.104,2.189-0.939c0,0,2.295-2.713,2.504-3.651
		c0,0,0.417,3.235,1.253,5.009c0.834,1.771,0.938,4.589,2.294,5.526c1.356,0.939,2.607,1.356,3.755,1.252
		c0,0,0.522,6.989,1.461,7.72c0.939,0.729,2.189,2.087,2.92,1.981c0.731-0.104,0.731-6.363,0.313-7.51
		c-0.417-1.148-2.607-6.989-2.816-8.45c-0.209-1.459-1.355-5.425-0.209-6.884c0,0,3.13,4.276,4.277,4.276s2.921-3.024,2.816-9.49
		c0,0-0.209-4.07-0.73-4.696c-0.521-0.625,1.564,0.939,2.504,0.939s4.693-2.922,5.007-8.345c0,0,0.625,10.223,4.902,5.946"/>
	<path d="M267.675,48.964c0,0-0.313,6.155-0.521,7.929c-0.209,1.774,0.521,4.068,0.625,4.903c0.105,0.834,0.314,3.858,0.625,5.632
		c0.314,1.773,0.418,7.406,0.418,7.824c0,0.416,1.565,0,1.565-0.626c0-0.627-1.669-8.448-1.669-10.327c0-1.878,0-6.362-0.105-7.928
		c-0.104-1.564,0-5.633,0.73-7.093S267.884,47.818,267.675,48.964z"/>
</g>
<g>
	<path d="M187.664,56.464h-11.579l0.808-1.616l-5.652,0.269l0.266-1.884l-4.035,0.268l0.539-2.153l-3.771,0.538l1.078-2.154h-2.425
		v-1.884l-2.151,0.269l-1.888-2.692l-2.421,0.269l0.269-2.961h-2.153l0.808-4.31l-1.347-1.347l-2.962-1.346l-0.27-2.155H149.7
		l-1.886-3.77l-1.615,0.808l-0.538-2.962l-1.346,0.27l-1.077-2.692l-0.81-2.148l-0.807-1.085l-0.27-2.417l-0.539-2.692l3.231,0.269
		c0,0,1.077,0,0-2.423c-1.076-2.424-2.962-5.116-2.962-7.001s-1.076-5.116-1.885-7.002c-0.808-1.885,0-4.31,1.347-4.039
		c1.347,0.269,1.347,0.269,1.347,0.269l-0.539-4.577c0,0,0.539-2.423-3.231-4.31c-3.771-1.884-2.424-3.23-7.001-5.654
		c-4.579-2.423-2.964-2.423-6.195-3.501c-3.228-1.077-6.189-2.154-5.116-2.154c1.081,0,3.232,0.27,4.848,0.27
		c1.616,0,1.078,0,4.849-0.27c3.769-0.27,11.309-0.808,17.771-0.808c6.464,0,7.81-0.809,12.657,0.538
		c4.844,1.347,5.921,0.539,8.884,3.232c2.959,2.692,4.036,5.386,5.117,5.654c1.072,0.269,1.881-0.269,2.688-0.538
		s2.692,0.538,3.231,2.423c0.538,1.885,2.962,4.578,4.039,6.194c1.078,1.615,1.886,3.231,1.886,3.231l0.538,1.076l1.615-1.615
		c0,0,3.771,4.039,4.31,5.116c0.538,1.077,1.616,6.194,1.616,7.541c0,1.346,2.961-3.232,2.961-3.232l-1.077,4.578
		c0,0-0.776,3.005,0.27,4.578c1.616,2.423-1.076,8.349-1.076,9.694c0,1.34,0,1.07,2.424,0.538c2.423-0.538,2.423,2.418,2.152,3.226
		c-0.268,0.809-0.268,3.231-1.346,8.079c-1.077,4.847-4.577,8.079-5.655,10.771C191.434,49.73,189.279,54.04,187.664,56.464z"/>
	<path d="M184.684,53.5c0,0,9.083,6.531,11.273,11.464c2.193,4.933,1.806,5.569,0.729,5.031c-1.081-0.532-4.297-2.638-5.63-5.974
		C189.714,60.68,187.058,58.36,184.684,53.5z"/>
	<path d="M183.894,48.115c-0.808-2.962-5.386-5.655-0.808-1.615"/>
</g>
</svg>
