<?xml version="1.0" encoding="utf-8"?>
<!-- Generator: Adobe Illustrator 16.0.0, SVG Export Plug-In . SVG Version: 6.00 Build 0)  -->
<!DOCTYPE svg PUBLIC "-//W3C//DTD SVG 1.1//EN" "http://www.w3.org/Graphics/SVG/1.1/DTD/svg11.dtd">
<svg version="1.1" xmlns="http://www.w3.org/2000/svg" xmlns:xlink="http://www.w3.org/1999/xlink" x="0px" y="0px"
	 width="519.094px" height="349.283px" viewBox="0 0 519.094 349.283" enable-background="new 0 0 519.094 349.283"
	 xml:space="preserve">
<g id="BACKGROUND">
</g>
<g id="DESIGNED_BY_FREEPIK">
</g>
<g id="OBJECTS">
	<g>
		<g>
			<path opacity="0.9" fill="#FFFFFF" d="M517.499,153.7c-6.718-23.797-23.089-54.005-67.581-53.004
				c8.957-44.35-9.248-90.179-67.133-99.41C334.642-6.392,307,21.732,301.037,47.693c-3.359-34.614-59.325-58.412-89.549-40.023
				c-11.677,7.522-27.239,29.206-26.361,59.999C163.292,14.161,73.22,19.898,67.083,69.327c-1.12,14.062,6.716,41.104,19.03,48.677
				c-73.803,11.899-91.517,56.248-84.8,89.781c11.193,47.595,67.443,63.82,102.71,40.022
				c-36.94,46.514,19.058,95.369,74.275,100.393c100.87,9.176,113.79-41.98,110.425-76.595
				c22.388,85.771,182.464,51.921,150.001-32.451C505.142,257.543,525.333,182.906,517.499,153.7z"/>
			<g>
				<g>
					<g>
						<path fill="#79C9CB" d="M262.691,317.087c0.102,0.083-0.644,1.107-2.178,3.005c-0.789,0.927-1.893,1.956-3.15,3.228
							c-1.387,1.116-2.908,2.532-4.871,3.781c-3.825,2.635-8.951,5.25-15.24,7.258c-6.277,2.057-13.702,3.386-21.924,4.152
							c-4.116,0.364-8.429,0.576-12.928,0.673c-4.503,0.103-9.197,0.023-14.048-0.281c-9.693-0.614-20.068-2.082-30.608-5.261
							c-5.263-1.594-10.557-3.627-15.724-6.241c-5.172-2.598-10.188-5.844-14.793-9.778c-4.606-3.924-8.807-8.549-12.187-13.839
							c-3.401-5.268-6.084-11.11-7.875-17.272c-0.393-1.554-0.864-3.086-1.185-4.645c-0.302-1.555-0.672-3.123-0.912-4.654
							c-0.522-3.073-0.949-6.151-1.269-9.225c-0.619-6.147-0.787-12.307-0.056-18.348c0.714-6.019,2.391-11.971,5.479-17.123
							c1.542-2.566,3.42-4.911,5.564-6.921c2.167-2.015,4.478-3.685,7.166-5.007c0.688-0.316,1.398-0.61,2.209-0.812l0.613-0.142
							l0.679-0.077c0.202-0.035,0.516-0.014,0.79,0.003l0.419,0.039c0.153,0.035,0.307,0.075,0.459,0.12
							c1.229,0.328,2.182,1.373,2.386,2.622c0.042,0.309,0.04,0.625,0.062,0.936c0.006,0.293-0.05,0.49-0.079,0.739
							c-0.083,0.458-0.209,0.873-0.357,1.257c-0.605,1.525-1.468,2.717-2.391,3.804c-0.932,1.075-1.935,2.037-2.991,2.896
							c-4.216,3.436-9.094,5.542-13.706,7.06c-4.683,1.606-9.334,2.544-13.802,3.246c-4.475,0.694-8.799,1.078-12.93,1.279
							c-16.518,0.78-30.058-1.706-38.492-5.744c-4.249-1.943-7.098-4.323-8.775-6.092c-0.404-0.458-0.762-0.863-1.07-1.212
							c-0.263-0.382-0.483-0.705-0.663-0.965c-0.343-0.524-0.491-0.808-0.438-0.847c0.053-0.039,0.305,0.169,0.74,0.604
							c0.214,0.222,0.477,0.496,0.79,0.821c0.337,0.302,0.728,0.652,1.171,1.048c1.795,1.537,4.651,3.621,8.843,5.293
							c8.302,3.485,21.562,5.52,37.739,4.415c4.041-0.282,8.267-0.739,12.613-1.491c4.343-0.758,8.831-1.742,13.239-3.328
							c1.103-0.416,2.241-0.813,3.341-1.259c1.094-0.446,2.178-0.936,3.241-1.479c2.121-1.089,4.181-2.375,6.028-3.919
							c0.925-0.769,1.781-1.615,2.543-2.513c0.753-0.893,1.41-1.883,1.766-2.819c0.355-1.17,0.187-0.977,0.09-1.061
							c-0.002-0.003-0.034-0.005-0.101-0.006c-0.061,0-0.082-0.011-0.212,0.013l-0.321,0.038l-0.367,0.093
							c-0.495,0.124-1.038,0.349-1.575,0.603c-2.16,1.082-4.346,2.658-6.213,4.44c-1.885,1.798-3.531,3.88-4.894,6.179
							c-2.724,4.61-4.256,10.052-4.902,15.709c-0.663,5.669-0.494,11.57,0.12,17.521c0.317,2.977,0.736,5.972,1.251,8.981
							c0.239,1.518,0.588,2.963,0.876,4.457c0.304,1.483,0.755,2.932,1.125,4.407c3.391,11.678,10.077,21.966,18.839,29.354
							c8.684,7.519,18.997,12.318,29.125,15.501c10.179,3.17,20.299,4.728,29.796,5.463c9.504,0.734,18.448,0.568,26.549,0.073
							c8.089-0.584,15.365-1.699,21.521-3.508c6.169-1.761,11.216-4.097,15.051-6.466c1.968-1.118,3.513-2.404,4.944-3.402
							c1.3-1.152,2.466-2.072,3.33-2.898C261.646,317.866,262.59,317.005,262.691,317.087z"/>
					</g>
				</g>
			</g>
			<g>
				<g>
					<g>
						<path fill="#79C9CB" d="M94.433,240.203c0.027,0.128-1.502,0.517-4.461,1.141c-1.484,0.268-3.339,0.482-5.53,0.779
							c-1.101,0.083-2.286,0.171-3.553,0.267c-0.634,0.044-1.29,0.09-1.965,0.138c-0.676,0.016-1.373,0.031-2.09,0.048
							c-5.73,0.151-12.78-0.025-20.867-1.325c-4.015-0.638-8.418-1.624-12.733-3.592c-4.315-1.946-8.522-4.863-12.139-8.693
							c-7.282-7.663-12.047-18.68-13.686-30.794c-0.163-1.524-0.419-3.042-0.453-4.623c-0.04-0.785-0.079-1.574-0.119-2.365
							c-0.051-0.792,0.028-1.588,0.037-2.387c0.028-0.799,0.057-1.601,0.086-2.406c0.091-0.801,0.183-1.604,0.274-2.412
							c0.129-1.623,0.51-3.218,0.818-4.838c1.354-6.464,4.182-12.77,8.037-18.543c3.839-5.805,8.968-10.904,14.855-15.146
							c0.719-0.557,1.483-1.05,2.259-1.531c0.771-0.489,1.543-0.979,2.318-1.471c1.608-0.861,3.229-1.807,4.862-2.588
							c1.634-0.792,3.27-1.602,4.949-2.347c1.662-0.777,3.357-1.508,5.069-2.222c6.832-2.883,14.032-5.324,21.568-6.987
							c3.758-0.87,7.622-1.428,11.527-1.831l2.948-0.196c0.492-0.028,0.984-0.073,1.478-0.088l1.486-0.01l2.978-0.018l2.987,0.169
							c1.999,0.053,3.97,0.415,5.945,0.634c0.985,0.137,1.954,0.372,2.928,0.553c0.969,0.213,1.955,0.342,2.901,0.641l2.855,0.794
							c0.925,0.244,1.959,0.583,2.945,1.043c0.992,0.426,1.967,1.048,2.891,1.83c0.45,0.456,0.897,0.908,1.264,1.556
							c0.37,0.618,0.642,1.434,0.637,2.344c-0.022,0.44-0.13,0.92-0.277,1.336c-0.195,0.376-0.401,0.819-0.669,1.098
							c-0.531,0.63-1.123,1.01-1.707,1.335c-1.161,0.566-2.28,0.793-3.356,0.923c-0.546,0.085-1.06,0.066-1.59,0.1
							c-0.521,0.027-1.128-0.053-1.686-0.087c-0.538-0.108-1.094-0.193-1.611-0.34c-0.502-0.166-1.036-0.294-1.508-0.501
							c-3.882-1.551-6.913-4-9.748-6.498c-5.595-5.094-10.184-10.819-14.299-16.681c-2.039-2.948-3.942-5.943-5.617-9.075
							c-0.828-1.561-1.63-3.19-2.235-4.898c-0.286-0.841-0.571-1.679-0.855-2.514c-0.275-0.838-0.447-1.719-0.672-2.573
							c-1.462-6.909-1.292-13.767-0.206-20.231c0.517-3.241,1.354-6.382,2.404-9.398c1.022-3.026,2.394-5.896,4.017-8.565
							c1.596-2.672,3.598-5.128,5.916-7.121c2.304-2.003,4.849-3.588,7.458-4.847c2.632-1.212,5.319-2.101,7.985-2.775
							c2.679-0.611,5.329-1.044,7.931-1.247c5.204-0.442,10.175-0.112,14.792,0.574c4.62,0.702,8.893,1.823,12.768,3.19
							c7.752,2.753,13.919,6.415,18.42,10.022c4.526,3.6,7.453,7.049,9.207,9.507c0.916,1.206,1.478,2.219,1.866,2.888
							c0.383,0.673,0.551,1.033,0.495,1.068c-0.055,0.035-0.332-0.255-0.817-0.852c-0.491-0.593-1.148-1.522-2.146-2.632
							c-1.919-2.268-4.956-5.476-9.5-8.803c-4.52-3.337-10.621-6.705-18.205-9.187c-3.791-1.231-7.954-2.224-12.427-2.81
							c-4.469-0.57-9.258-0.797-14.209-0.291c-2.478,0.234-4.98,0.688-7.494,1.299c-2.495,0.673-4.987,1.541-7.397,2.689
							c-2.383,1.194-4.672,2.668-6.71,4.486c-2.044,1.803-3.793,3.991-5.24,6.476c-1.459,2.462-2.71,5.14-3.639,7.992
							c-0.955,2.838-1.72,5.809-2.178,8.878c-0.978,6.109-1.058,12.635,0.323,18.915c0.213,0.772,0.364,1.556,0.625,2.326
							c0.268,0.768,0.536,1.537,0.805,2.309c0.543,1.505,1.269,2.96,2.065,4.44c1.597,2.946,3.458,5.844,5.448,8.686
							c4.008,5.654,8.527,11.218,13.809,15.986c2.64,2.333,5.521,4.56,8.607,5.763c0.382,0.17,0.766,0.247,1.147,0.38
							c0.381,0.108,0.755,0.153,1.132,0.24c0.376,0.005,0.703,0.075,1.119,0.05c0.404-0.032,0.836-0.01,1.218-0.078
							c0.787-0.089,1.529-0.277,2.07-0.538c0.126-0.067,0.208-0.146,0.323-0.205c0.125-0.061,0.112-0.133,0.196-0.178
							c0.073-0.052,0.016-0.082,0.075-0.101c-0.013-0.028-0.006-0.021,0.007-0.044c0.021-0.056-0.176-0.543-0.67-0.99
							c-0.538-0.429-1.164-0.87-1.931-1.189c-1.437-0.674-3.384-1.076-5.139-1.598c-0.888-0.283-1.82-0.398-2.731-0.6
							c-0.919-0.169-1.829-0.393-2.758-0.521c-1.865-0.201-3.72-0.55-5.615-0.596l-2.827-0.162l-2.828,0.018l-1.411,0.007
							c-0.47,0.015-0.939,0.058-1.408,0.085l-2.81,0.184c-3.73,0.384-7.433,0.911-11.057,1.744
							c-7.262,1.589-14.263,3.937-20.948,6.732c-1.675,0.691-3.334,1.4-4.967,2.156c-1.646,0.723-3.255,1.511-4.863,2.282
							c-1.616,0.765-3.094,1.628-4.632,2.438c-0.732,0.46-1.462,0.919-2.19,1.377c-0.734,0.449-1.459,0.909-2.137,1.432
							c-5.565,3.968-10.422,8.733-14.06,14.156c-3.653,5.393-6.354,11.274-7.672,17.311c-0.3,1.513-0.677,3.003-0.808,4.521
							c-0.094,0.754-0.188,1.506-0.282,2.255c-0.034,0.754-0.068,1.505-0.101,2.253c-0.015,0.749-0.102,1.494-0.06,2.237
							c0.03,0.743,0.06,1.483,0.089,2.22c0.01,1.472,0.244,2.945,0.381,4.401c1.437,11.614,5.839,22.096,12.526,29.371
							c3.325,3.641,7.193,6.432,11.206,8.341c4.019,1.929,8.115,2.955,12.069,3.686c7.88,1.471,14.838,1.864,20.494,1.938
							C88.183,241.324,94.368,239.804,94.433,240.203z"/>
					</g>
				</g>
			</g>
			<g>
				<g>
					<g>
						<path fill="#79C9CB" d="M82.645,83.625c-0.131,0-0.211-1.367-0.242-3.991c-0.029-0.657,0.018-1.389,0.086-2.196
							c0.063-0.81,0.133-1.694,0.208-2.653c0.064-0.961,0.306-1.975,0.474-3.074c0.095-0.548,0.194-1.114,0.295-1.697
							c0.155-0.573,0.315-1.163,0.48-1.77c0.166-0.607,0.337-1.232,0.513-1.874c0.198-0.635,0.471-1.264,0.715-1.922
							c0.26-0.651,0.492-1.334,0.797-2.005c0.336-0.658,0.681-1.331,1.033-2.018c0.178-0.344,0.358-0.69,0.54-1.042
							c0.217-0.33,0.437-0.664,0.659-1.002c0.454-0.668,0.881-1.378,1.387-2.051c0.54-0.648,1.091-1.309,1.652-1.982
							c0.543-0.691,1.25-1.25,1.887-1.899c2.66-2.476,5.97-4.643,9.778-6.214c3.805-1.581,8.076-2.581,12.591-3
							c9.044-0.827,19.034,0.543,29.051,3.996c5.008,1.737,10.046,4.003,14.853,7.08c1.221,0.733,2.371,1.615,3.555,2.455
							c1.136,0.919,2.3,1.842,3.351,2.795c2.156,1.901,4.291,3.876,6.419,5.909c8.479,8.164,16.937,17.157,24.911,27.239
							c1.979,2.536,3.923,5.143,5.739,7.923c0.905,1.395,1.78,2.827,2.565,4.383c0.391,0.782,0.761,1.589,1.066,2.499
							c0.155,0.449,0.285,0.943,0.381,1.481c0.034,0.226,0.098,0.736,0.062,1.114c0.001,0.405-0.071,0.805-0.209,1.17
							c-0.251,0.727-0.768,1.43-1.488,1.696c-0.355,0.151-0.733,0.282-1.11,0.382c-0.199,0.055-0.379,0.093-0.486,0.101l-0.387,0.05
							c-1.023,0.165-2.125,0.064-3.167-0.179c-2.102-0.564-3.82-1.903-5.018-3.384c-2.428-3.004-3.6-6.439-4.501-9.84
							c-1.677-6.856-1.886-13.732-1.544-20.423c0.392-6.696,1.472-13.236,3.163-19.505c1.704-6.263,4.045-12.262,7.115-17.758
							c3.069-5.485,6.901-10.479,11.541-14.442c4.627-3.965,10.077-6.795,15.702-8.188c1.403-0.354,2.821-0.617,4.223-0.812
							c1.394-0.132,2.778-0.263,4.151-0.394c1.369-0.182,2.74-0.14,4.097-0.141c0.678,0.001,1.354,0.001,2.026,0.002
							c0.672,0.002,1.343-0.017,2.006,0.073c10.647,0.763,20.308,3.987,28.032,8.628c7.79,4.567,13.855,10.123,18.57,15.43
							c1.131,1.371,2.224,2.694,3.274,3.968c1.032,1.288,1.891,2.626,2.783,3.855c0.437,0.621,0.863,1.229,1.281,1.823
							c0.417,0.594,0.752,1.223,1.117,1.81c0.71,1.188,1.386,2.317,2.025,3.387c2.388,4.372,4.056,7.857,4.959,10.316
							c0.964,2.431,1.409,3.726,1.288,3.776c-0.121,0.05-0.803-1.146-1.984-3.458c-1.12-2.34-2.986-5.685-5.532-9.878
							c-0.675-1.025-1.386-2.107-2.135-3.244c-0.382-0.563-0.733-1.166-1.165-1.734c-0.432-0.567-0.873-1.147-1.323-1.741
							c-0.918-1.173-1.801-2.455-2.85-3.681c-1.064-1.212-2.169-2.471-3.313-3.775c-4.745-5.041-10.752-10.277-18.324-14.52
							c-7.51-4.32-16.768-7.221-26.875-7.818c-0.629-0.079-1.266-0.051-1.904-0.044c-0.638,0.007-1.279,0.015-1.922,0.022
							c-1.287,0.017-2.585-0.012-3.883,0.18c-1.3,0.138-2.61,0.276-3.931,0.416c-1.298,0.196-2.583,0.448-3.862,0.786
							c-5.116,1.328-10.024,3.93-14.25,7.606c-4.232,3.675-7.785,8.351-10.653,13.552c-2.87,5.21-5.083,10.949-6.693,16.964
							c-1.598,6.02-2.621,12.324-2.983,18.748c-0.322,6.405-0.086,13.012,1.455,19.286c0.796,3.088,1.933,6.141,3.729,8.336
							c0.886,1.104,1.955,1.844,3.06,2.151c0.563,0.116,1.135,0.199,1.744,0.091l0.226-0.025l0.1-0.01l0.007-0.002l0.03-0.007
							c0.023-0.005,0.009-0.003,0.015-0.006l0.001-0.003c-0.001-0.026,0.006,0.074-0.013-0.105c-0.051-0.268-0.121-0.57-0.234-0.895
							c-0.213-0.644-0.519-1.328-0.856-2.004c-0.68-1.357-1.493-2.705-2.346-4.025c-1.714-2.643-3.599-5.194-5.523-7.678
							c-7.772-9.91-16.113-18.893-24.406-27.008c-2.082-2.022-4.168-3.986-6.267-5.873c-1.051-0.97-2.1-1.81-3.138-2.671
							c-1.1-0.792-2.156-1.627-3.305-2.331c-4.498-2.948-9.306-5.187-14.092-6.916c-9.582-3.447-19.181-4.91-27.775-4.288
							c-4.294,0.315-8.331,1.175-11.918,2.568c-3.592,1.385-6.708,3.314-9.25,5.545c-0.607,0.587-1.288,1.085-1.811,1.716
							c-0.543,0.612-1.078,1.213-1.601,1.803c-0.494,0.614-0.914,1.269-1.363,1.882c-0.221,0.31-0.439,0.617-0.655,0.921
							c-0.183,0.326-0.364,0.647-0.542,0.966c-0.358,0.639-0.708,1.264-1.051,1.875c-0.314,0.626-0.559,1.27-0.833,1.882
							c-0.257,0.619-0.546,1.209-0.762,1.811c-0.196,0.609-0.387,1.203-0.572,1.781c-0.188,0.578-0.37,1.141-0.546,1.686
							c-0.127,0.561-0.25,1.104-0.369,1.631c-0.219,1.058-0.514,2.033-0.634,2.968c-0.138,0.933-0.265,1.794-0.381,2.582
							c-0.128,0.788-0.235,1.504-0.267,2.151C82.953,82.259,82.776,83.625,82.645,83.625z"/>
					</g>
				</g>
			</g>
			<g>
				<g>
					<g>
						<path fill="#79C9CB" d="M231.266,20.631c-0.006-0.13,1.321-0.289,3.868-0.471c2.546-0.164,6.32-0.184,11.173,0.212
							c4.836,0.484,10.769,1.51,17.327,3.877c3.239,1.262,6.687,2.725,10.08,4.773c1.743,0.947,3.396,2.14,5.133,3.309
							c0.848,0.612,1.666,1.287,2.517,1.941c0.419,0.334,0.854,0.656,1.269,1.008c0.404,0.362,0.813,0.726,1.222,1.093
							c0.804,0.749,1.684,1.441,2.452,2.264c0.789,0.803,1.586,1.616,2.393,2.437c1.514,1.73,3.102,3.472,4.516,5.409
							c1.419,1.876,2.865,3.79,4.34,5.74c1.487,1.931,3.02,3.918,4.532,5.986c1.521,2.062,2.992,4.245,4.378,6.551
							c1.396,2.298,2.628,4.792,3.583,7.477c0.942,2.681,1.582,5.609,1.491,8.664c-0.075,0.76-0.151,1.522-0.228,2.287
							c-0.1,0.761-0.274,1.508-0.481,2.26c-0.419,1.499-1.052,2.994-2.022,4.368c-0.949,1.366-2.302,2.635-4.111,3.32
							c-0.905,0.328-1.929,0.478-2.947,0.354c-1.019-0.117-2.007-0.513-2.819-1.084c-1.648-1.16-2.575-2.845-3.128-4.469
							c-0.532-1.646-0.728-3.309-0.747-4.936c0.008-6.444,2.056-12.562,4.646-18.336c2.633-5.787,5.946-11.292,9.529-16.671
							c0.864-1.347,1.873-2.674,2.876-4.006l1.502-2.001l1.674-1.866l1.684-1.869c0.551-0.635,1.206-1.166,1.807-1.755
							c1.243-1.131,2.413-2.36,3.774-3.366c10.438-8.651,22.951-13.9,35.42-16.175c6.249-1.128,12.538-1.494,18.663-0.995
							c1.526,0.188,3.044,0.374,4.554,0.56c1.495,0.28,2.974,0.616,4.447,0.921c1.466,0.336,2.884,0.807,4.313,1.203
							c1.413,0.452,2.786,1.006,4.166,1.502c10.927,4.395,19.779,11.681,26.314,19.675c6.554,8.033,10.981,16.77,13.601,25.144
							c1.295,4.197,2.157,8.302,2.669,12.225c0.436,3.936,0.533,7.676,0.321,11.162c-0.495,6.974-2.251,12.838-4.368,17.256
							c-2.122,4.44-4.561,7.413-6.253,9.325c-1.814,1.819-2.842,2.678-2.926,2.59c-0.099-0.1,0.748-1.143,2.342-3.083
							c1.473-2.035,3.646-5.061,5.489-9.438c1.84-4.357,3.316-10.043,3.596-16.761c0.104-3.359-0.086-6.955-0.595-10.731
							c-0.585-3.767-1.502-7.701-2.829-11.718c-2.682-8.015-7.089-16.351-13.466-23.957c-6.361-7.573-14.861-14.39-25.191-18.44
							c-1.307-0.453-2.6-0.967-3.937-1.383c-1.354-0.359-2.698-0.798-4.079-1.104c-1.387-0.273-2.774-0.581-4.181-0.836
							c-1.421-0.165-2.85-0.331-4.286-0.498c-5.779-0.434-11.752-0.059-17.698,1.041c-11.866,2.21-23.813,7.261-33.672,15.444
							c-1.292,0.949-2.388,2.111-3.563,3.176c-0.565,0.555-1.189,1.053-1.706,1.652l-1.582,1.757l-1.579,1.75l-1.407,1.876
							c-0.939,1.244-1.885,2.472-2.755,3.82c-3.528,5.271-6.757,10.614-9.285,16.116c-2.501,5.475-4.377,11.21-4.404,16.763
							c0.004,1.352,0.168,2.669,0.536,3.838c0.379,1.155,0.992,2.144,1.755,2.674c0.754,0.539,1.617,0.644,2.528,0.33
							c0.901-0.333,1.791-1.063,2.459-2.025c1.39-1.904,2.011-4.545,2.161-7.014c0.099-2.515-0.409-5.038-1.227-7.446
							c-1.65-4.842-4.495-9.196-7.362-13.278c-1.452-2.044-2.935-4.024-4.403-5.991c-1.445-1.975-2.863-3.913-4.254-5.813
							c-1.331-1.89-2.828-3.585-4.252-5.278c-0.76-0.803-1.511-1.597-2.254-2.382c-0.724-0.806-1.554-1.482-2.312-2.218
							c-0.387-0.36-0.771-0.718-1.152-1.074c-0.39-0.346-0.801-0.661-1.197-0.991c-0.803-0.645-1.574-1.312-2.376-1.917
							c-1.642-1.155-3.204-2.343-4.857-3.292c-3.215-2.051-6.501-3.546-9.599-4.862c-6.275-2.477-12.02-3.693-16.741-4.392
							c-4.739-0.612-8.464-0.831-10.992-0.915C232.611,20.859,231.272,20.762,231.266,20.631z"/>
					</g>
				</g>
			</g>
			<g>
				<g>
					<g>
						<path fill="#79C9CB" d="M402.06,212.812c0.082-0.102,0.973,0.42,2.581,1.499c0.807,0.536,1.842,1.143,3.027,1.904
							c1.232,0.688,2.613,1.546,4.257,2.341c0.406,0.206,0.824,0.418,1.253,0.635c0.438,0.195,0.889,0.396,1.351,0.601
							c0.912,0.433,1.9,0.809,2.934,1.196c1.019,0.426,2.137,0.708,3.266,1.09c1.158,0.28,2.343,0.647,3.606,0.85
							c4.999,1.019,10.938,1.081,17.095-0.625c6.141-1.715,12.422-5.21,17.952-10.351c2.785-2.545,5.378-5.497,7.741-8.759
							c0.578-0.822,1.177-1.64,1.696-2.514c0.508-0.88,1.02-1.766,1.535-2.659c1.118-1.736,1.859-3.708,2.76-5.622
							c3.379-7.779,4.889-16.773,4.646-26.007c0.042-2.317-0.325-4.633-0.528-6.977c-0.04-0.588-0.146-1.168-0.258-1.749
							l-0.318-1.748l-0.318-1.754c-0.097-0.587-0.21-1.173-0.38-1.747c-0.632-2.305-1.144-4.665-2.025-6.927
							c-0.418-1.137-0.762-2.308-1.24-3.428c-0.492-1.115-0.986-2.234-1.48-3.356c-0.456-1.142-1.066-2.202-1.646-3.273
							c-0.593-1.063-1.129-2.158-1.761-3.188c-0.662-1.012-1.322-2.021-1.979-3.026c-0.338-0.496-0.635-1.021-1.004-1.491
							l-1.105-1.408c-0.74-0.933-1.457-1.881-2.206-2.794c-0.81-0.86-1.615-1.717-2.418-2.57c-1.551-1.77-3.33-3.247-5.106-4.706
							c-3.588-2.874-7.488-5.22-11.508-6.988c-4.04-1.69-8.223-2.839-12.336-2.959c-2.063-0.126-4.057,0.104-6.04,0.44
							c-2.035,0.382-4.007,0.881-5.891,1.493c-1.878,0.619-3.683,1.354-5.261,2.3c-1.566,0.926-2.989,2.095-3.673,3.376
							c-0.661,1.3-0.476,2.323,0.596,3.102c1.075,0.771,2.714,1.056,4.319,0.936c3.268-0.086,6.192-1.577,8.528-3.563
							c2.313-2.049,4.114-4.52,5.519-7.032c1.419-2.51,2.496-5.047,3.356-7.473c1.709-4.866,2.576-9.274,3.091-12.884
							c1.033-7.262,0.277-11.308,0.557-11.354c0.228-0.089,1.514,4.021,0.912,11.511c-0.3,3.725-0.969,8.281-2.546,13.395
							c-0.795,2.552-1.825,5.242-3.25,7.962c-1.415,2.718-3.275,5.473-5.856,7.882c-1.317,1.172-2.823,2.238-4.533,3.049
							c-1.701,0.833-3.641,1.297-5.611,1.432c-1.948,0.149-4.196-0.014-6.245-1.38c-1.012-0.669-1.911-1.817-2.217-3.189
							c-0.297-1.375,0.032-2.752,0.584-3.836c0.558-1.1,1.325-1.979,2.146-2.738c0.828-0.752,1.712-1.42,2.644-1.973
							c1.852-1.146,3.84-1.981,5.878-2.687c2.042-0.695,4.143-1.254,6.285-1.685c2.201-0.41,4.518-0.694,6.824-0.581
							c4.641,0.091,9.248,1.32,13.641,3.119c4.367,1.877,8.548,4.361,12.398,7.41c1.901,1.541,3.831,3.14,5.483,5.001
							c0.855,0.905,1.715,1.813,2.578,2.725c0.799,0.965,1.563,1.966,2.351,2.955l1.174,1.492c0.392,0.499,0.709,1.05,1.068,1.575
							c0.696,1.063,1.396,2.13,2.099,3.2c0.67,1.089,1.239,2.241,1.865,3.365c0.613,1.132,1.255,2.254,1.739,3.456
							c0.521,1.184,1.041,2.364,1.56,3.541c0.503,1.183,0.868,2.415,1.305,3.614c0.922,2.387,1.465,4.872,2.118,7.303
							c0.177,0.605,0.294,1.222,0.396,1.842l0.33,1.849l0.327,1.842c0.115,0.612,0.223,1.223,0.265,1.843
							c0.209,2.471,0.575,4.911,0.524,7.356c0.205,9.741-1.471,19.248-5.146,27.478c-0.976,2.028-1.795,4.101-3.005,5.944
							c-0.563,0.942-1.121,1.879-1.676,2.809c-0.565,0.92-1.212,1.781-1.836,2.641c-2.54,3.405-5.325,6.476-8.322,9.122
							c-5.947,5.337-12.745,8.947-19.378,10.611c-6.651,1.661-13.008,1.379-18.225,0.105c-1.321-0.267-2.55-0.698-3.747-1.045
							c-1.163-0.448-2.313-0.797-3.35-1.289c-1.053-0.453-2.055-0.895-2.972-1.392c-0.463-0.238-0.915-0.47-1.355-0.697
							c-0.427-0.249-0.843-0.492-1.248-0.728c-1.634-0.918-2.981-1.894-4.171-2.696c-1.141-0.875-2.119-1.59-2.861-2.232
							C402.708,213.636,401.978,212.914,402.06,212.812z"/>
					</g>
				</g>
			</g>
			<g>
				<g>
					<g>
						<path fill="#79C9CB" d="M448.312,221.265c0.04,0.052-0.327,0.37-1.097,0.949c-0.194,0.142-0.407,0.312-0.657,0.478
							c-0.265,0.139-0.555,0.292-0.87,0.458c-0.318,0.164-0.662,0.342-1.031,0.532c-0.385,0.153-0.804,0.295-1.247,0.456
							c-3.541,1.333-9.248,1.809-16.262,0.638c-3.509-0.582-7.347-1.547-11.441-2.926c-1.018-0.363-2.063-0.721-3.11-1.139
							l-0.796-0.309c-0.281-0.129-0.583-0.252-0.841-0.396c-0.542-0.275-1.054-0.574-1.563-0.886
							c-2.03-1.25-4.001-2.684-5.981-4.257c-1.979-1.573-3.954-3.294-5.881-5.217c-1.896-1.957-3.845-4.006-5.255-6.811
							c-0.341-0.709-0.633-1.496-0.748-2.41c-0.153-0.887,0.068-2.058,0.71-2.918c0.169-0.201,0.327-0.443,0.524-0.594l0.598-0.456
							c0.406-0.258,0.83-0.438,1.247-0.609c0.41-0.115,0.833-0.262,1.241-0.34l1.226-0.193c1.694-0.162,3.441,0.093,5.047,0.692
							c1.628,0.579,3.033,1.558,4.342,2.606c2.591,2.156,4.63,4.843,6.438,7.689c1.815,2.852,3.36,5.913,4.781,9.089
							c2.829,6.361,5.12,13.203,7.039,20.412c0.475,1.806,0.923,3.633,1.316,5.511c0.188,0.943,0.306,1.921,0.461,2.887
							c0.13,0.972,0.343,1.939,0.35,2.932c0.049,0.989,0.098,1.982,0.147,2.979c0.062,0.997-0.067,1.998-0.094,3.002
							c-0.016,2.019-0.432,4.011-0.711,6.034c-0.872,3.984-2.105,7.967-3.985,11.718c-0.408,0.968-0.996,1.843-1.49,2.773
							c-0.511,0.922-1.024,1.846-1.645,2.705c-0.597,0.874-1.18,1.764-1.795,2.632c-0.664,0.832-1.329,1.667-1.997,2.503
							c-5.487,6.57-12.526,12.077-20.536,16.023c-7.995,4.044-17.196,6.168-26.489,6.126c-9.312-0.003-18.647-1.991-27.577-5.188
							c-2.237-0.756-4.45-1.771-6.676-2.732c-1.069-0.557-2.141-1.115-3.214-1.673c-0.531-0.288-1.081-0.549-1.599-0.859
							l-1.548-0.941c-4.187-2.436-8.064-5.352-11.896-8.348c-7.526-6.162-14.359-12.959-20.282-20.357
							c-5.856-7.424-11.114-15.322-14.063-24.343c-0.704-2.264-1.189-4.555-1.519-6.862c-0.315-2.314-0.515-4.626-0.338-7.067
							c0.054-0.615,0.118-1.232,0.266-1.889c0.062-0.326,0.164-0.653,0.28-1.022c0.08-0.212,0.167-0.424,0.259-0.631
							c0.11-0.215,0.271-0.452,0.403-0.677c0.586-0.865,1.536-1.504,2.582-1.477c0.513-0.003,1.028,0.099,1.514,0.31l0.706,0.378
							c0.259,0.13,0.333,0.231,0.507,0.351c1.15,0.92,1.849,1.845,2.567,2.795c0.352,0.466,0.676,0.954,0.978,1.458
							c0.299,0.503,0.646,0.982,0.9,1.504c1.135,2.04,1.921,4.202,2.582,6.363c0.605,2.176,1.043,4.369,1.312,6.556
							c0.553,4.377,0.503,8.708,0.197,12.935c-0.649,8.461-2.488,16.509-4.819,24.119c-2.371,7.604-5.265,14.798-8.855,21.412
							c-1.79,3.32-3.861,6.419-6.041,9.307c-1.056,1.478-2.249,2.828-3.369,4.212c-1.208,1.311-2.349,2.659-3.61,3.87
							c-4.9,4.99-10.345,9.008-15.86,12.223c-11.127,6.371-22.499,9.291-32.445,10.645c-4.992,0.677-9.672,0.956-13.973,1.023
							c-4.302,0.071-8.23-0.074-11.749-0.337c-7.041-0.502-12.453-1.361-16.095-2.041c-3.644-0.681-5.527-1.183-5.506-1.297
							c0.026-0.144,1.955,0.106,5.621,0.54c3.665,0.434,9.076,1.052,16.062,1.322c3.491,0.147,7.377,0.181,11.617,0.004
							c4.239-0.174,8.836-0.553,13.717-1.314c9.728-1.523,20.745-4.566,31.396-10.861c5.28-3.178,10.467-7.105,15.125-11.957
							c1.201-1.177,2.282-2.489,3.432-3.759c1.062-1.346,2.197-2.654,3.198-4.088c1.059-1.392,2.024-2.869,3.004-4.356
							c0.967-1.487,1.858-3.028,2.708-4.63c3.4-6.399,6.18-13.465,8.434-20.891c2.218-7.433,3.95-15.288,4.522-23.4
							c0.27-4.047,0.29-8.167-0.246-12.228c-0.26-2.032-0.674-4.039-1.229-6.003c-0.606-1.94-1.313-3.861-2.305-5.62
							c-0.221-0.457-0.525-0.857-0.781-1.291c-0.259-0.431-0.539-0.852-0.848-1.256c-0.587-0.793-1.269-1.6-1.844-2.043
							l-0.159-0.127l-0.014-0.007c-0.009-0.003-0.019-0.007-0.029-0.007c-0.021-0.001-0.037,0.016-0.045,0.032l-0.063,0.162
							c-0.038,0.159-0.114,0.358-0.149,0.578c-0.096,0.422-0.147,0.911-0.188,1.399c-0.143,1.987,0.033,4.143,0.333,6.257
							c0.31,2.123,0.768,4.246,1.412,6.292c1.292,4.108,3.344,8.074,5.604,11.938c1.197,1.903,2.375,3.828,3.73,5.66
							c1.272,1.883,2.713,3.664,4.121,5.477c5.75,7.166,12.423,13.792,19.719,19.766c3.71,2.899,7.464,5.725,11.463,8.051
							l1.48,0.903c0.494,0.297,1.014,0.542,1.519,0.815c1.017,0.532,2.031,1.062,3.045,1.592c2.089,0.897,4.131,1.849,6.317,2.592
							c8.611,3.098,17.526,4.999,26.31,5.025c17.626,0.285,33.948-8.476,44.336-20.675c0.632-0.781,1.262-1.561,1.889-2.337
							c0.58-0.811,1.129-1.64,1.693-2.454c0.59-0.8,1.071-1.66,1.552-2.518c0.464-0.865,1.027-1.678,1.408-2.577
							c1.776-3.482,2.936-7.168,3.778-10.852c0.265-1.87,0.677-3.712,0.698-5.581c0.03-0.93,0.164-1.855,0.111-2.78
							c-0.039-0.924-0.077-1.844-0.115-2.761c0.007-0.921-0.19-1.821-0.303-2.725c-0.139-0.903-0.233-1.801-0.403-2.7
							c-0.361-1.799-0.783-3.594-1.231-5.362c-1.813-7.074-3.998-13.822-6.673-20.02c-1.343-3.094-2.8-6.063-4.482-8.778
							c-1.672-2.713-3.553-5.223-5.779-7.12c-1.117-0.919-2.29-1.759-3.56-2.221c-1.258-0.484-2.562-0.691-3.852-0.596
							c-1.323,0.114-2.668,0.502-3.093,1.13c-0.474,0.515-0.322,1.69,0.229,2.83c1.091,2.294,2.917,4.366,4.689,6.242
							c1.813,1.876,3.701,3.589,5.596,5.158c1.892,1.568,3.794,3.012,5.687,4.236c0.472,0.305,0.947,0.595,1.413,0.846
							c0.236,0.138,0.459,0.23,0.686,0.344l0.763,0.317c1.013,0.432,2.024,0.807,3.01,1.187c3.971,1.449,7.699,2.5,11.101,3.177
							c6.803,1.359,12.297,1.133,15.768,0.086c0.437-0.125,0.848-0.242,1.232-0.352c0.368-0.154,0.711-0.296,1.029-0.429
							c0.32-0.13,0.615-0.25,0.885-0.36c0.252-0.142,0.48-0.269,0.685-0.383C447.827,221.427,448.272,221.213,448.312,221.265z"/>
					</g>
				</g>
			</g>
		</g>
	</g>
</g>
</svg>
