<?xml version="1.0" encoding="utf-8"?>
<!-- Generator: Adobe Illustrator 16.0.0, SVG Export Plug-In . SVG Version: 6.00 Build 0)  -->
<!DOCTYPE svg PUBLIC "-//W3C//DTD SVG 1.1//EN" "http://www.w3.org/Graphics/SVG/1.1/DTD/svg11.dtd">
<svg version="1.1" id="Layer_1" xmlns="http://www.w3.org/2000/svg" xmlns:xlink="http://www.w3.org/1999/xlink" x="0px" y="0px"
	 width="527.786px" height="351.512px" viewBox="2.261 2.804 527.786 351.512" enable-background="new 2.261 2.804 527.786 351.512"
	 xml:space="preserve">
<g>
	<path fill="#FFFFFF" d="M82.713,105.475c0,0-11.333-24,11-45.333c36.53-34.895,96.261,6.669,99.458,14.438
		c8.875,21.563-12.74,15.629-9.75-4.188c3.175-21.038,22.001-44.127,41.313-49.938s53.134-5.612,77.852,38.447
		c13.46,23.992-31.687,27.238-3.54-2.008c32-33.25,69.697-42.438,104.667-25.417s40.501,27,47.834,44.5
		c20.369,48.609-36,9.833-3.167,12.167c46.141,3.279,66.666,47.5,66.666,90.418c0,51.082-22.588,71.364-67.416,81.269
		c-21.5,4.75-3.747-51.365,1.75-8.353c5.666,44.333-27.982,64.681-46,67.333c-32.834,4.833-72.084-8.185-104.584-39.426
		s16.5-36.741,3.25-5.741s-42.503,62.293-99.251,65.396S94.335,319.409,98.38,260.809c3.293-47.716,34.25-0.75,5.25,2.5
		c0,0-88.093-1.436-86.343-79.88c1.426-63.954,59.208-72.084,78.093-70.62C115.602,114.376,101.047,140.475,82.713,105.475z"/>
	<path fill="none" stroke="#FFFFFF" stroke-width="30" stroke-miterlimit="10" d="M82.713,105.475c0,0-11.333-24,11-45.333
		c36.53-34.895,96.261,6.669,99.458,14.438c8.875,21.563-12.74,15.629-9.75-4.188c3.175-21.038,22.001-44.127,41.313-49.938
		s53.134-5.612,77.852,38.447c13.46,23.992-31.687,27.238-3.54-2.008c32-33.25,69.697-42.438,104.667-25.417s40.501,27,47.834,44.5
		c20.369,48.609-36,9.833-3.167,12.167c46.141,3.279,66.666,47.5,66.666,90.418c0,51.082-22.588,71.364-67.416,81.269
		c-21.5,4.75-3.747-51.365,1.75-8.353c5.666,44.333-27.982,64.681-46,67.333c-32.834,4.833-72.084-8.185-104.584-39.426
		s16.5-36.741,3.25-5.741s-42.503,62.293-99.251,65.396S94.335,319.409,98.38,260.809c3.293-47.716,34.25-0.75,5.25,2.5
		c0,0-88.093-1.436-86.343-79.88c1.426-63.954,59.208-72.084,78.093-70.62C115.602,114.376,101.047,140.475,82.713,105.475z"/>
	<path fill="none" stroke="#79C9CB" stroke-width="3" stroke-miterlimit="10" d="M82.713,105.475c0,0-11.333-24,11-45.333
		c36.53-34.895,96.261,6.669,99.458,14.438c8.875,21.563-12.74,15.629-9.75-4.188c3.175-21.038,22.001-44.127,41.313-49.938
		s53.134-5.612,77.852,38.447c13.46,23.992-31.687,27.238-3.54-2.008c32-33.25,69.697-42.438,104.667-25.417s40.501,27,47.834,44.5
		c20.369,48.609-36,9.833-3.167,12.167c46.141,3.279,66.666,47.5,66.666,90.418c0,51.082-22.588,71.364-67.416,81.269
		c-21.5,4.75-3.747-51.365,1.75-8.353c5.666,44.333-27.982,64.681-46,67.333c-32.834,4.833-72.084-8.185-104.584-39.426
		s16.5-36.741,3.25-5.741s-42.503,62.293-99.251,65.396S94.335,319.409,98.38,260.809c3.293-47.716,34.25-0.75,5.25,2.5
		c0,0-88.093-1.436-86.343-79.88c1.426-63.954,59.208-72.084,78.093-70.62C115.602,114.376,101.047,140.475,82.713,105.475z"/>
</g>
</svg>
