<?xml version="1.0" encoding="utf-8"?>
<!-- Generator: Adobe Illustrator 16.0.0, SVG Export Plug-In . SVG Version: 6.00 Build 0)  -->
<!DOCTYPE svg PUBLIC "-//W3C//DTD SVG 1.1//EN" "http://www.w3.org/Graphics/SVG/1.1/DTD/svg11.dtd">
<svg version="1.1" id="Layer_1" xmlns="http://www.w3.org/2000/svg" xmlns:xlink="http://www.w3.org/1999/xlink" x="0px" y="0px"
	 width="1465.285px" height="934.764px" viewBox="0 0 1465.285 934.764" enable-background="new 0 0 1465.285 934.764"
	 xml:space="preserve">
<g id="art">
	
		<linearGradient id="SVGID_1_" gradientUnits="userSpaceOnUse" x1="1424.6426" y1="611.3281" x2="1424.6425" y2="-323.4678" gradientTransform="matrix(1 0 0 1 -692 323.7637)">
		<stop  offset="0" style="stop-color:#DEEAAD"/>
		<stop  offset="0.1698" style="stop-color:#EBEBA9"/>
		<stop  offset="0.3943" style="stop-color:#E5E0C2"/>
		<stop  offset="1" style="stop-color:#FFF4DE"/>
	</linearGradient>
	<rect y="0.296" fill="url(#SVGID_1_)" width="1465.285" height="934.796"/>
	<path fill="#FDFFEB" d="M1074.476,855.276c0,0,1.604-17.067,20.639-10.079c0,0-9.821-32.664,23.907-13.088
		c0,0,29.364-80.541,53.714-7.41c0,0,19.334-36.088,21.736,0.994c0,0,14.96-9.74,19.593,3.527L1074.476,855.276z"/>
	<path fill="#FDFFEB" d="M306.417,823.423l137.319,20.928c0,0-0.285-15.463-23.92-8.546c0,0,5.627-30.584-26.965-12.745
		c0,0-16.387-79.315-62.094-6.93C330.758,816.13,297.718,790.088,306.417,823.423z"/>
	<path fill="#FDFFEB" d="M1202.063,716.534l-97.877,20.229c0,0-0.379-11.121,16.865-7.045c0,0-5.199-21.763,18.895-10.178
		c0,0,8.772-57.611,44.354-7.327C1184.298,712.215,1207.053,692.253,1202.063,716.534z"/>
	<path fill="#FDFFEB" d="M1024.756,805.628c0,0-3.867-13.368-25.246-6.327c0,0-42.566-79.438-74.021-2.104
		c0,0-25.864-20.016-27.824,10.233c0,0-20.91-5.45-26.555,10.099L1024.756,805.628z"/>
	<path fill="#B7B84A" d="M1036.157,935.092c0,0,159.375-88.785,433.222-87.831v87.831H1036.157z"/>
	<g>
		<path fill="#A89E46" d="M782.277,857.793c13.119-3.977,37.949-4.333,47.189-4.363c7.095-0.021,26.839,2.112,18.481,3.969
			c-8.358,1.852-23.506,5.864-16.832,6.446c6.677,0.584,25.546,4.898,7.479,7.844c-13.004,2.111-43.288,0.441-57.213-3.685
			L782.277,857.793z"/>
		<path fill="#A89E46" d="M846.68,857.302c8.457,0.778,33.076,7.733,22.07,8.243C857.74,866.056,830.675,855.827,846.68,857.302z"/>
		<path fill="#A89E46" d="M875.141,875.449c10.381-1.022,41.768,1.813,28.64,5.036C890.646,883.71,855.498,877.387,875.141,875.449z
			"/>
		<path fill="#757844" d="M813.267,817.697c-1.131,9.767-3.927,16.329-3.927,16.329s2.006-2.033,3.329-1.752
			c-3.894,7.816-7.567,13.107-7.567,13.107s2.495-2.045,3.977-1.481c-2.895,5.267-7.661,12.68-7.661,12.68s6.205,1.027,13.923,1.039
			c7.715,0.01,12.852,0.019,12.852,0.019s-4.873-6.521-8.363-13.584c1.359-0.342,4.586,1.399,4.586,1.399s-4.126-4.866-7.761-12.551
			c1.247-0.265,3.919,1.306,3.919,1.306S814.989,825.199,813.267,817.697z"/>
		<path fill="#757844" d="M893.52,841.401c0.145,9.053,2.105,15.32,2.105,15.32s-1.652-2.047-2.892-1.906
			c2.853,7.52,5.732,12.7,5.732,12.7s-2.099-2.099-3.505-1.722c2.166,5.09,5.86,12.318,5.86,12.318s-5.778,0.375-12.854-0.32
			c-7.068-0.695-11.775-1.158-11.775-1.158s5.063-5.528,8.904-11.683c-1.214-0.438-4.329,0.861-4.329,0.861
			s4.228-4.079,8.261-10.788c-1.118-0.355-3.71,0.837-3.71,0.837S891.253,848.12,893.52,841.401z"/>
		<path fill="#757844" d="M848.404,825.211c-1.822,8.032-6.454,12.138-6.454,12.138s2.038-0.586,2.922-0.158
			c-4.079,4.719-7.814,6.73-7.814,6.73s1.168,0.199,2.116,0.846c-2.938,3.135-6.628,6.245-6.628,6.245s3.542,2.964,8.981,4.322
			c5.438,1.358,9.719,1.089,9.719,1.089s-0.97-4.51-2.225-10.002c1.018,0.002,2.647,1.758,2.647,1.758s-0.971-3.999-2.223-9.943
			c0.924,0.038,2.527,1.75,2.527,1.75S850.325,832.089,848.404,825.211z"/>
		<path fill="#898D50" d="M922.193,855.737c-1.486,3.043-4.727,5.843-4.727,5.843s1.495-0.657,2.021-0.633
			c-2.463,2.929-5.122,5.215-5.122,5.215s2.58-0.795,3.079-0.543c-1.772,1.943-5.558,4.929-5.558,4.929s1.921,1.213,5.134,2.021
			c3.217,0.809,5.759,1.053,5.759,1.053s-1.212-2.807-1.905-6.188c0.792,0.08,2.253,1.813,2.253,1.813s-1.494-3.955-1.983-7.479
			c0.553,0.018,1.366,1.041,1.366,1.041S922.104,859.118,922.193,855.737z"/>
		<path fill="#898D50" d="M867.08,832.008c-4.95,5.871-11.205,12.786-11.205,12.786s3.645-1.854,4.334-1.271
			c-4.183,4.436-8.462,7.146-8.462,7.146s3.661,0.285,4.448,0.728c-3.074,3.83-9.148,7.224-9.148,7.224s4.492,1.114,9.637,2.686
			c5.146,1.569,8.679,3.24,8.679,3.24s-0.983-4.285-1.878-9.711c1.275,0.195,3.57,2.341,3.57,2.341s-2.271-6.688-2.824-12.327
			c0.889,0.073,2.619,2.649,2.619,2.649C866.092,843.997,866.066,840.768,867.08,832.008z"/>
		<path fill="#898D50" d="M784.391,833.564c0.537-0.915,1.076-1.851,1.61-2.804c-0.368-0.072-0.853,0.012-1.381,0.188l0.673-7.729
			c2.104-3.959,4.525-8.478,6.748-12.5c-0.169,13.816,4.891,22.795,4.891,22.795s-3.077-1.645-4.903-2.437
			c4.448,10.521,11.21,17.795,11.21,17.795s-3.775-1.763-7.61-2.248c3.969,7.788,12.149,16.615,12.149,16.615
			s-8.649,1.015-19.846,0.862c-2.211-0.028-4.284-0.052-6.197-0.065L784.391,833.564z"/>
		<path fill="#898D50" d="M832.705,816.327c0.997,9.697,6.807,20.426,6.807,20.426s-3.288-3.229-4.68-3.672
			c3.658,10.338,8.439,19.107,8.439,19.107s-5.998-4.646-7.537-4.445c2.786,6.989,9.842,18.752,9.842,18.752
			s-6.169,1.432-15.347,0.521c-9.179-0.906-16.059-2.697-16.059-2.697s5.839-6.453,10.862-14.951
			c-2.148-0.555-7.613,2.742-7.613,2.742s7.662-9.297,12.289-18.389c-1.451-0.482-4.56,1.51-4.56,1.51
			S829.729,825.593,832.705,816.327z"/>
	</g>
	<path fill="#B7B84A" d="M-3.301,850.692c0,0,234.643-28.336,546.633,84.397H-3.301V850.692z"/>
	<path fill="#A19638" d="M57.018,935.092c0,0,311.776-114.361,679.401-114.361s714.527,114.361,714.527,114.361H57.018z"/>
	<g>
		<path fill="#A89E46" d="M337.147,862.459c6.409-0.439,26.594,3.447,18.754,5.701C348.06,870.411,325.023,863.291,337.147,862.459z
			"/>
		<path fill="#A89E46" d="M301.578,869.227c8.245-2.958,36.753-4.921,27.495,1.094C319.809,876.327,285.979,874.822,301.578,869.227
			z"/>
		<path fill="#A89E46" d="M318.028,874.952c10.542-2.758,46.231-1.929,34.146,4.544
			C340.082,885.964,298.084,880.171,318.028,874.952z"/>
		<path fill="#A89E46" d="M345.987,867.051c8.493,0.041,33.623,4.83,22.703,6.295C357.768,874.811,329.915,866.973,345.987,867.051z
			"/>
		<path fill="#A89E46" d="M375.918,882.656c10.253-1.922,41.765-1.824,28.968,2.527
			C392.084,889.537,356.519,886.293,375.918,882.656z"/>
		<path fill="#757844" d="M309.26,830.5c-0.278,9.828-2.493,16.609-2.493,16.609s1.821-2.201,3.164-2.035
			c-3.199,8.127-6.399,13.717-6.399,13.717s2.308-2.253,3.831-1.822c-2.424,5.496-6.531,13.297-6.531,13.297
			s6.271,0.484,13.961-0.175c7.687-0.66,12.804-1.099,12.804-1.099s-5.423-6.072-9.513-12.808c1.325-0.459,4.689,0.995,4.689,0.995
			s-4.533-4.486-8.821-11.827c1.22-0.369,4.018,0.96,4.018,0.96S311.628,837.824,309.26,830.5z"/>
		<path fill="#757844" d="M391.269,847.141c0.929,9.006,3.429,15.082,3.429,15.082s-1.823-1.896-3.046-1.649
			c3.495,7.241,6.816,12.154,6.816,12.154s-2.271-1.907-3.642-1.408c2.601,4.882,6.909,11.763,6.909,11.763
			s-5.727,0.875-12.833,0.797c-7.104-0.078-11.833-0.13-11.833-0.13s4.564-5.948,7.857-12.412c-1.248-0.331-4.238,1.235-4.238,1.235
			s3.855-4.435,7.29-11.469c-1.146-0.257-3.623,1.156-3.623,1.156S389.595,854.03,391.269,847.141z"/>
		<path fill="#757844" d="M344.917,834.932c-1.117,8.159-5.374,12.652-5.374,12.652s1.979-0.762,2.896-0.414
			c-3.654,5.057-7.2,7.387-7.2,7.387s1.181,0.1,2.182,0.658c-2.655,3.377-6.061,6.799-6.061,6.799s3.786,2.646,9.324,3.525
			c5.536,0.879,9.775,0.24,9.775,0.24s-1.357-4.41-3.084-9.771c1.014-0.087,2.792,1.521,2.792,1.521s-1.315-3.9-3.079-9.715
			c0.924-0.043,2.672,1.521,2.672,1.521S347.429,841.616,344.917,834.932z"/>
		<path fill="#898D50" d="M421.08,858.931c-1.217,3.16-4.199,6.23-4.199,6.23s1.435-0.785,1.958-0.808
			c-2.199,3.134-4.647,5.642-4.647,5.642s2.502-1.015,3.02-0.81c-1.597,2.092-5.104,5.395-5.104,5.395s2.019,1.041,5.288,1.566
			c3.272,0.524,5.826,0.55,5.826,0.55s-1.451-2.691-2.436-5.996c0.796,0.01,2.4,1.606,2.4,1.606s-1.831-3.81-2.626-7.276
			c0.552-0.029,1.451,0.921,1.451,0.921S421.283,862.306,421.08,858.931z"/>
		<path fill="#898D50" d="M364.112,840.079c-4.421,6.28-10.051,13.712-10.051,13.712s3.47-2.164,4.207-1.646
			c-3.781,4.783-7.809,7.854-7.809,7.854s3.672-0.033,4.494,0.338c-2.73,4.084-8.486,7.99-8.486,7.99s4.571,0.719,9.834,1.838
			c5.263,1.117,8.926,2.474,8.926,2.474s-1.353-4.184-2.715-9.511c1.289,0.084,3.762,2.021,3.762,2.021s-2.843-6.471-3.887-12.035
			c0.892-0.004,2.842,2.412,2.842,2.412C364.171,852.109,363.864,848.895,364.112,840.079z"/>
		<path fill="#898D50" d="M328.505,827.445c1.837,9.572,8.557,19.758,8.557,19.758s-3.557-2.932-4.982-3.252
			c4.544,9.979,10.068,18.302,10.068,18.302s-6.379-4.106-7.895-3.774c3.383,6.725,11.434,17.826,11.434,17.826
			s-6.021,1.963-15.242,1.855c-9.221-0.107-16.23-1.293-16.23-1.293s5.256-6.938,9.521-15.84c-2.188-0.364-7.347,3.395-7.347,3.395
			s6.826-9.928,10.646-19.386c-1.488-0.356-4.411,1.896-4.411,1.896S326.345,836.936,328.505,827.445z"/>
	</g>
	<g>
		<path fill="#A89E46" d="M1168.069,884.092c22.515,6.34,32.966,10.107,32.271,16.233c-0.267,2.398-10.854,7.539-46.208-0.18
			c-26.728-5.836-42.96-15.138-38.873-20.313C1118.497,875.737,1146.813,878.099,1168.069,884.092z"/>
		<path fill="#898D50" d="M1035.554,863.262c1.313,4.732,5.098,9.572,5.098,9.572s-1.904-1.327-2.635-1.431
			c2.687,4.829,5.794,8.778,5.794,8.778s-3.367-1.803-4.114-1.572c1.971,3.235,6.461,8.483,6.461,8.483s-2.942,1.229-7.576,1.549
			c-4.635,0.317-8.2,0.009-8.2,0.009s2.358-3.695,4.138-8.338c-1.109-0.096-3.55,2.003-3.55,2.003s3.026-5.263,4.561-10.163
			c-0.762-0.117-2.139,1.131-2.139,1.131S1034.854,868.113,1035.554,863.262z"/>
		<path fill="#A89E46" d="M1087.551,877.078c8.549,0.111,12.596,0.496,12.935,3.054c0.134,1.001-3.114,4.237-16.325,4.97
			c-9.986,0.555-16.602-1.441-15.649-3.984C1069.262,879.104,1079.479,876.97,1087.551,877.078z"/>
		<path fill="#757844" d="M1092.423,853.42c1.902,5.762,4.454,12.67,4.454,12.67s-2.127-2.431-2.802-2.205
			c1.761,4.482,4.1,7.729,4.1,7.729s-2.766-0.867-3.474-0.775c1.129,3.714,4.586,7.988,4.586,7.988s-3.621-0.506-7.856-0.869
			c-4.234-0.359-7.314-0.175-7.314-0.175s1.98-2.854,4.231-6.567c-0.993-0.232-3.307,0.666-3.307,0.666s3.631-4.236,5.697-8.207
			c-0.672-0.209-2.703,1.174-2.703,1.174C1089.619,862.502,1090.588,860.142,1092.423,853.42z"/>
		<path fill="#898D50" d="M1082.072,854.213c-2.902,6.758-6.707,14.832-6.707,14.832s2.822-2.712,3.615-2.37
			c-2.599,5.229-5.764,8.9-5.764,8.9s3.432-0.757,4.277-0.573c-1.754,4.367-6.376,9.164-6.376,9.164s4.427-0.229,9.578-0.223
			c5.149,0.009,8.851,0.555,8.851,0.555s-2.091-3.652-4.422-8.376c1.225-0.175,3.924,1.153,3.924,1.153s-3.939-5.496-6.018-10.51
			c0.834-0.18,3.139,1.699,3.139,1.699C1084.505,865.471,1083.584,862.521,1082.072,854.213z"/>
		<path fill="#757844" d="M1167.971,833.551c0.08,11.912,2.585,20.184,2.585,20.184s-2.147-2.715-3.78-2.551
			c3.662,9.932,7.391,16.783,7.391,16.783s-2.732-2.788-4.589-2.309c2.788,6.722,7.559,16.276,7.559,16.276
			s-7.608,0.421-16.901-0.577c-9.296-1.004-15.479-1.668-15.479-1.668s6.729-7.215,11.857-15.263
			c-1.594-0.591-5.707,1.081-5.707,1.081s5.607-5.313,10.995-14.092c-1.47-0.479-4.891,1.058-4.891,1.058
			S1164.911,842.357,1167.971,833.551z"/>
		<path fill="#757844" d="M1121.223,835.344c0.988,9.931,5.941,15.559,5.941,15.559s-2.361-1.012-3.49-0.633
			c4.199,6.285,8.392,9.266,8.392,9.266s-1.436,0.063-2.671,0.701c3.063,4.207,7.032,8.5,7.032,8.5s-4.702,3.035-11.442,3.854
			c-6.742,0.817-11.848-0.146-11.848-0.146s1.84-5.279,4.169-11.692c-1.224-0.15-3.446,1.716-3.446,1.716s1.766-4.661,4.158-11.62
			c-1.116-0.098-3.302,1.723-3.302,1.723S1117.883,843.324,1121.223,835.344z"/>
		<path fill="#898D50" d="M1140.6,829.168c-2.846,10.281-11.069,20.801-11.069,20.801s4.137-2.885,5.722-3.107
			c-5.834,10.491-12.592,19.08-12.592,19.08s7.318-3.918,8.941-3.423c-4.279,7.034-14.038,18.438-14.038,18.438
			s6.396,2.672,16.465,3.366c10.067,0.688,17.817,0.015,17.817,0.015s-5.125-8.028-8.992-18.117
			c2.418-0.204,7.716,4.354,7.716,4.354s-6.575-11.433-9.909-22.084c1.652-0.258,4.646,2.457,4.646,2.457
			S1142.123,839.711,1140.6,829.168z"/>
		<path fill="#898D50" d="M1183.62,852.335c-5.132,8.28-11.665,18.04-11.665,18.04s4.035-2.668,4.896-1.877
			c-4.39,6.266-9.069,10.138-9.069,10.138s4.272,0.302,5.238,0.895c-3.171,5.397-9.865,10.263-9.865,10.263
			s5.332,1.433,11.471,3.479c6.137,2.051,10.409,4.272,10.409,4.272s-1.588-5.922-3.196-13.435c1.502,0.239,4.391,3.161,4.391,3.161
			s-3.337-9.229-4.569-17.04c1.038,0.077,3.317,3.611,3.317,3.611C1183.732,869.004,1183.364,864.523,1183.62,852.335z"/>
	</g>
	<path fill="#FDFFEB" d="M306.271,701.576l101.886,24.326c0,0,0.754-11.64-17.441-7.92c0,0,6.146-22.633-19.463-11.269
		c0,0-7.35-60.634-46.232-9.096C325.02,697.62,301.82,675.98,306.271,701.576z"/>
	<g>
		<path fill="#A89E46" d="M92.507,852.604c5.471-0.466,23.299,3.207,16.797,5.446C102.799,860.289,82.153,853.484,92.507,852.604z"
			/>
		<path fill="#A89E46" d="M73.121,855.703c9.187-2.185,41.365,0.229,31.184,5.927C94.118,867.321,55.738,859.834,73.121,855.703z"/>
		<path fill="#A89E46" d="M102.456,855.585c4.933,0.349,19.349,4.095,12.949,4.527C109.002,860.544,93.122,854.924,102.456,855.585z
			"/>
		<path fill="#A89E46" d="M119.247,865.798c6.03-0.724,24.334,0.541,16.732,2.58C128.375,870.416,107.837,867.167,119.247,865.798z"
			/>
		<path fill="#757844" d="M82.52,832.942c-0.539,5.698-2.085,9.555-2.085,9.555s1.143-1.209,1.917-1.063
			c-2.17,4.602-4.244,7.726-4.244,7.726s1.427-1.222,2.296-0.911c-1.619,3.1-4.304,7.475-4.304,7.475s3.625,0.521,8.117,0.436
			c4.491-0.089,7.481-0.148,7.481-0.148s-2.918-3.733-5.037-7.804c0.788-0.216,2.687,0.758,2.687,0.758s-2.462-2.781-4.671-7.21
			c0.723-0.168,2.297,0.712,2.297,0.712S83.614,837.289,82.52,832.942z"/>
		<path fill="#757844" d="M129.526,845.753c0.194,5.269,1.414,8.894,1.414,8.894s-0.987-1.172-1.707-1.074
			c1.753,4.342,3.494,7.322,3.494,7.322s-1.248-1.195-2.061-0.959c1.323,2.938,3.563,7.101,3.563,7.101s-3.359,0.288-7.486-0.029
			c-4.124-0.315-6.87-0.529-6.87-0.529s2.88-3.278,5.041-6.907c-0.712-0.24-2.51,0.556-2.51,0.556s2.409-2.428,4.674-6.384
			c-0.656-0.192-2.149,0.534-2.149,0.534S128.29,849.691,129.526,845.753z"/>
		<path fill="#757844" d="M103.065,836.884c-0.962,4.697-3.607,7.146-3.607,7.146s1.178-0.367,1.698-0.13
			c-2.317,2.798-4.466,4.016-4.466,4.016s0.682,0.102,1.242,0.465c-1.672,1.861-3.781,3.719-3.781,3.719s2.098,1.683,5.282,2.405
			c3.183,0.724,5.67,0.514,5.67,0.514s-0.62-2.611-1.417-5.795c0.592-0.012,1.563,0.99,1.563,0.99s-0.615-2.313-1.417-5.762
			c0.539,0.012,1.494,0.987,1.494,0.987S104.268,840.864,103.065,836.884z"/>
		<path fill="#898D50" d="M146.394,853.745c-0.828,1.789-2.678,3.458-2.678,3.458s0.862-0.401,1.168-0.395
			c-1.398,1.735-2.917,3.1-2.917,3.1s1.492-0.492,1.785-0.354c-1.007,1.154-3.172,2.938-3.172,2.938s1.132,0.682,3.013,1.111
			c1.881,0.433,3.363,0.544,3.363,0.544s-0.74-1.619-1.185-3.577c0.462,0.036,1.334,1.024,1.334,1.024s-0.919-2.282-1.247-4.329
			c0.32,0.006,0.808,0.593,0.808,0.593S146.383,855.714,146.394,853.745z"/>
		<path fill="#898D50" d="M114.02,840.609c-2.809,3.479-6.364,7.581-6.364,7.581s2.099-1.124,2.507-0.794
			c-2.38,2.635-4.837,4.264-4.837,4.264s2.135,0.122,2.598,0.369c-1.743,2.268-5.237,4.314-5.237,4.314s2.629,0.594,5.643,1.444
			c3.015,0.851,5.091,1.779,5.091,1.779s-0.625-2.482-1.213-5.631c0.746,0.1,2.108,1.318,2.108,1.318s-1.404-3.868-1.796-7.142
			c0.518,0.03,1.558,1.511,1.558,1.511C113.593,847.602,113.538,845.722,114.02,840.609z"/>
		<path fill="#898D50" d="M93.817,831.905c0.7,5.633,4.213,11.808,4.213,11.808s-1.954-1.84-2.77-2.081
			c2.257,5.976,5.148,11.021,5.148,11.021s-3.549-2.63-4.441-2.495c1.707,4.035,5.959,10.794,5.959,10.794s-3.573,0.91-8.926,0.494
			s-9.38-1.372-9.38-1.372s3.32-3.83,6.139-8.838c-1.258-0.297-4.398,1.688-4.398,1.688s4.346-5.506,6.928-10.854
			c-0.851-0.267-2.635,0.933-2.635,0.933S92.198,837.336,93.817,831.905z"/>
	</g>
</g>
<g id="text">
</g>
</svg>
