<?xml version="1.0" encoding="utf-8"?>
<!-- Generator: Adobe Illustrator 16.0.0, SVG Export Plug-In . SVG Version: 6.00 Build 0)  -->
<!DOCTYPE svg PUBLIC "-//W3C//DTD SVG 1.1//EN" "http://www.w3.org/Graphics/SVG/1.1/DTD/svg11.dtd">
<svg version="1.1" id="Layer_1" xmlns="http://www.w3.org/2000/svg" xmlns:xlink="http://www.w3.org/1999/xlink" x="0px" y="0px"
	 width="1196.428px" height="800px" viewBox="0 0 1196.428 800" enable-background="new 0 0 1196.428 800" xml:space="preserve">
<g id="BACKGROUND">
	<rect fill="#77B27A" width="1196.428" height="800"/>
</g>
<g id="OBJECTS">
	<g>
		<g>
			<g>
				<polygon fill="#72AA70" points="31.569,0 0,36.646 31.569,73.292 63.138,36.646 				"/>
				<polygon fill="#72AA70" points="94.53,0 62.961,36.646 94.53,73.292 126.099,36.646 				"/>
				<polygon fill="#72AA70" points="157.49,0 125.921,36.646 157.49,73.292 189.059,36.646 				"/>
				<polygon fill="#72AA70" points="220.451,0 188.883,36.646 220.451,73.292 252.02,36.646 				"/>
				<polygon fill="#72AA70" points="283.412,0 251.842,36.646 283.412,73.292 314.98,36.646 				"/>
				<polygon fill="#72AA70" points="346.373,0 314.803,36.646 346.373,73.292 377.941,36.646 				"/>
				<polygon fill="#72AA70" points="409.332,0 377.764,36.646 409.332,73.292 440.901,36.646 				"/>
				<polygon fill="#72AA70" points="472.293,0 440.725,36.646 472.293,73.292 503.863,36.646 				"/>
				<polygon fill="#72AA70" points="535.254,0 503.685,36.646 535.254,73.292 566.823,36.646 				"/>
				<polygon fill="#72AA70" points="598.214,0 566.646,36.646 598.214,73.292 629.785,36.646 				"/>
				<polygon fill="#72AA70" points="661.176,0 629.605,36.646 661.176,73.292 692.744,36.646 				"/>
				<polygon fill="#72AA70" points="724.136,0 692.567,36.646 724.136,73.292 755.704,36.646 				"/>
				<polygon fill="#72AA70" points="787.095,0 755.528,36.646 787.095,73.292 818.666,36.646 				"/>
				<polygon fill="#72AA70" points="850.057,0 818.488,36.646 850.057,73.292 881.626,36.646 				"/>
				<polygon fill="#72AA70" points="913.017,0 881.449,36.646 913.017,73.292 944.586,36.646 				"/>
				<polygon fill="#72AA70" points="975.979,0 944.409,36.646 975.979,73.292 1007.547,36.646 				"/>
				<polygon fill="#72AA70" points="1038.938,0 1007.371,36.646 1038.938,73.292 1070.507,36.646 				"/>
				<polygon fill="#72AA70" points="1101.899,0 1070.331,36.646 1101.899,73.292 1133.469,36.646 				"/>
				<polygon fill="#72AA70" points="1164.861,0 1133.29,36.646 1164.861,73.292 1196.428,36.646 				"/>
			</g>
			<g>
				<polygon fill="#72AA70" points="31.569,72.838 0,109.484 31.569,146.13 63.138,109.484 				"/>
				<polygon fill="#72AA70" points="94.53,72.838 62.961,109.484 94.53,146.13 126.099,109.484 				"/>
				<polygon fill="#72AA70" points="157.49,72.838 125.921,109.484 157.49,146.13 189.059,109.484 				"/>
				<polygon fill="#72AA70" points="220.451,72.838 188.883,109.484 220.451,146.13 252.02,109.484 				"/>
				<polygon fill="#72AA70" points="283.412,72.838 251.842,109.484 283.412,146.13 314.98,109.484 				"/>
				<polygon fill="#72AA70" points="346.373,72.838 314.803,109.484 346.373,146.13 377.941,109.484 				"/>
				<polygon fill="#72AA70" points="409.332,72.838 377.764,109.484 409.332,146.13 440.901,109.484 				"/>
				<polygon fill="#72AA70" points="472.293,72.838 440.725,109.484 472.293,146.13 503.863,109.484 				"/>
				<polygon fill="#72AA70" points="535.254,72.838 503.685,109.484 535.254,146.13 566.823,109.484 				"/>
				<polygon fill="#72AA70" points="598.214,72.838 566.646,109.484 598.214,146.13 629.785,109.484 				"/>
				<polygon fill="#72AA70" points="661.176,72.838 629.605,109.484 661.176,146.13 692.744,109.484 				"/>
				<polygon fill="#72AA70" points="724.136,72.838 692.567,109.484 724.136,146.13 755.704,109.484 				"/>
				<polygon fill="#72AA70" points="787.095,72.838 755.528,109.484 787.095,146.13 818.666,109.484 				"/>
				<polygon fill="#72AA70" points="850.057,72.838 818.488,109.484 850.057,146.13 881.626,109.484 				"/>
				<polygon fill="#72AA70" points="913.017,72.838 881.449,109.484 913.017,146.13 944.586,109.484 				"/>
				<polygon fill="#72AA70" points="975.979,72.838 944.409,109.484 975.979,146.13 1007.547,109.484 				"/>
				<polygon fill="#72AA70" points="1038.938,72.838 1007.371,109.484 1038.938,146.13 1070.507,109.484 				"/>
				<polygon fill="#72AA70" points="1101.899,72.838 1070.331,109.484 1101.899,146.13 1133.469,109.484 				"/>
				<polygon fill="#72AA70" points="1164.861,72.838 1133.29,109.484 1164.861,146.13 1196.428,109.484 				"/>
			</g>
			<g>
				<polygon fill="#72AA70" points="31.569,145.677 0,182.323 31.569,218.968 63.138,182.323 				"/>
				<polygon fill="#72AA70" points="94.53,145.677 62.961,182.323 94.53,218.968 126.099,182.323 				"/>
				<polygon fill="#72AA70" points="157.49,145.677 125.921,182.323 157.49,218.968 189.059,182.323 				"/>
				<polygon fill="#72AA70" points="220.451,145.677 188.883,182.323 220.451,218.968 252.02,182.323 				"/>
				<polygon fill="#72AA70" points="283.412,145.677 251.842,182.323 283.412,218.968 314.98,182.323 				"/>
				<polygon fill="#72AA70" points="346.373,145.677 314.803,182.323 346.373,218.968 377.941,182.323 				"/>
				<polygon fill="#72AA70" points="409.332,145.677 377.764,182.323 409.332,218.968 440.901,182.323 				"/>
				<polygon fill="#72AA70" points="472.293,145.677 440.725,182.323 472.293,218.968 503.863,182.323 				"/>
				<polygon fill="#72AA70" points="535.254,145.677 503.685,182.323 535.254,218.968 566.823,182.323 				"/>
				<polygon fill="#72AA70" points="598.214,145.677 566.646,182.323 598.214,218.968 629.785,182.323 				"/>
				<polygon fill="#72AA70" points="661.176,145.677 629.605,182.323 661.176,218.968 692.744,182.323 				"/>
				<polygon fill="#72AA70" points="724.136,145.677 692.567,182.323 724.136,218.968 755.704,182.323 				"/>
				<polygon fill="#72AA70" points="787.095,145.677 755.528,182.323 787.095,218.968 818.666,182.323 				"/>
				<polygon fill="#72AA70" points="850.057,145.677 818.488,182.323 850.057,218.968 881.626,182.323 				"/>
				<polygon fill="#72AA70" points="913.017,145.677 881.449,182.323 913.017,218.968 944.586,182.323 				"/>
				<polygon fill="#72AA70" points="975.979,145.677 944.409,182.323 975.979,218.968 1007.547,182.323 				"/>
				<polygon fill="#72AA70" points="1038.938,145.677 1007.371,182.323 1038.938,218.968 1070.507,182.323 				"/>
				<polygon fill="#72AA70" points="1101.899,145.677 1070.331,182.323 1101.899,218.968 1133.469,182.323 				"/>
				<polygon fill="#72AA70" points="1164.861,145.677 1133.29,182.323 1164.861,218.968 1196.428,182.323 				"/>
			</g>
			<g>
				<polygon fill="#72AA70" points="31.569,218.516 0,255.162 31.569,291.807 63.138,255.162 				"/>
				<polygon fill="#72AA70" points="94.53,218.516 62.961,255.162 94.53,291.807 126.099,255.162 				"/>
				<polygon fill="#72AA70" points="157.49,218.516 125.921,255.162 157.49,291.807 189.059,255.162 				"/>
				<polygon fill="#72AA70" points="220.451,218.516 188.883,255.162 220.451,291.807 252.02,255.162 				"/>
				<polygon fill="#72AA70" points="283.412,218.516 251.842,255.162 283.412,291.807 314.98,255.162 				"/>
				<polygon fill="#72AA70" points="346.373,218.516 314.803,255.162 346.373,291.807 377.941,255.162 				"/>
				<polygon fill="#72AA70" points="409.332,218.516 377.764,255.162 409.332,291.807 440.901,255.162 				"/>
				<polygon fill="#72AA70" points="472.293,218.516 440.725,255.162 472.293,291.807 503.863,255.162 				"/>
				<polygon fill="#72AA70" points="535.254,218.516 503.685,255.162 535.254,291.807 566.823,255.162 				"/>
				<polygon fill="#72AA70" points="598.214,218.516 566.646,255.162 598.214,291.807 629.785,255.162 				"/>
				<polygon fill="#72AA70" points="661.176,218.516 629.605,255.162 661.176,291.807 692.744,255.162 				"/>
				<polygon fill="#72AA70" points="724.136,218.516 692.567,255.162 724.136,291.807 755.704,255.162 				"/>
				<polygon fill="#72AA70" points="787.095,218.516 755.528,255.162 787.095,291.807 818.666,255.162 				"/>
				<polygon fill="#72AA70" points="850.057,218.516 818.488,255.162 850.057,291.807 881.626,255.162 				"/>
				<polygon fill="#72AA70" points="913.017,218.516 881.449,255.162 913.017,291.807 944.586,255.162 				"/>
				<polygon fill="#72AA70" points="975.979,218.516 944.409,255.162 975.979,291.807 1007.547,255.162 				"/>
				<polygon fill="#72AA70" points="1038.938,218.516 1007.371,255.162 1038.938,291.807 1070.507,255.162 				"/>
				<polygon fill="#72AA70" points="1101.899,218.516 1070.331,255.162 1101.899,291.807 1133.469,255.162 				"/>
				<polygon fill="#72AA70" points="1164.861,218.516 1133.29,255.162 1164.861,291.807 1196.428,255.162 				"/>
			</g>
			<g>
				<polygon fill="#72AA70" points="31.569,291.354 0,328 31.569,364.646 63.138,328 				"/>
				<polygon fill="#72AA70" points="94.53,291.354 62.961,328 94.53,364.646 126.099,328 				"/>
				<polygon fill="#72AA70" points="157.49,291.354 125.921,328 157.49,364.646 189.059,328 				"/>
				<polygon fill="#72AA70" points="220.451,291.354 188.883,328 220.451,364.646 252.02,328 				"/>
				<polygon fill="#72AA70" points="283.412,291.354 251.842,328 283.412,364.646 314.98,328 				"/>
				<polygon fill="#72AA70" points="346.373,291.354 314.803,328 346.373,364.646 377.941,328 				"/>
				<polygon fill="#72AA70" points="409.332,291.354 377.764,328 409.332,364.646 440.901,328 				"/>
				<polygon fill="#72AA70" points="472.293,291.354 440.725,328 472.293,364.646 503.863,328 				"/>
				<polygon fill="#72AA70" points="535.254,291.354 503.685,328 535.254,364.646 566.823,328 				"/>
				<polygon fill="#72AA70" points="598.214,291.354 566.646,328 598.214,364.646 629.785,328 				"/>
				<polygon fill="#72AA70" points="661.176,291.354 629.605,328 661.176,364.646 692.744,328 				"/>
				<polygon fill="#72AA70" points="724.136,291.354 692.567,328 724.136,364.646 755.704,328 				"/>
				<polygon fill="#72AA70" points="787.095,291.354 755.528,328 787.095,364.646 818.666,328 				"/>
				<polygon fill="#72AA70" points="850.057,291.354 818.488,328 850.057,364.646 881.626,328 				"/>
				<polygon fill="#72AA70" points="913.017,291.354 881.449,328 913.017,364.646 944.586,328 				"/>
				<polygon fill="#72AA70" points="975.979,291.354 944.409,328 975.979,364.646 1007.547,328 				"/>
				<polygon fill="#72AA70" points="1038.938,291.354 1007.371,328 1038.938,364.646 1070.507,328 				"/>
				<polygon fill="#72AA70" points="1101.899,291.354 1070.331,328 1101.899,364.646 1133.469,328 				"/>
				<polygon fill="#72AA70" points="1164.861,291.354 1133.29,328 1164.861,364.646 1196.428,328 				"/>
			</g>
			<g>
				<polygon fill="#72AA70" points="31.569,364.193 0,400.838 31.569,437.484 63.138,400.838 				"/>
				<polygon fill="#72AA70" points="94.53,364.193 62.961,400.838 94.53,437.484 126.099,400.838 				"/>
				<polygon fill="#72AA70" points="157.49,364.193 125.921,400.838 157.49,437.484 189.059,400.838 				"/>
				<polygon fill="#72AA70" points="220.451,364.193 188.883,400.838 220.451,437.484 252.02,400.838 				"/>
				<polygon fill="#72AA70" points="283.412,364.193 251.842,400.838 283.412,437.484 314.98,400.838 				"/>
				<polygon fill="#72AA70" points="346.373,364.193 314.803,400.838 346.373,437.484 377.941,400.838 				"/>
				<polygon fill="#72AA70" points="409.332,364.193 377.764,400.838 409.332,437.484 440.901,400.838 				"/>
				<polygon fill="#72AA70" points="472.293,364.193 440.725,400.838 472.293,437.484 503.863,400.838 				"/>
				<polygon fill="#72AA70" points="535.254,364.193 503.685,400.838 535.254,437.484 566.823,400.838 				"/>
				<polygon fill="#72AA70" points="598.214,364.193 566.646,400.838 598.214,437.484 629.785,400.838 				"/>
				<polygon fill="#72AA70" points="661.176,364.193 629.605,400.838 661.176,437.484 692.744,400.838 				"/>
				<polygon fill="#72AA70" points="724.136,364.193 692.567,400.838 724.136,437.484 755.704,400.838 				"/>
				<polygon fill="#72AA70" points="787.095,364.193 755.528,400.838 787.095,437.484 818.666,400.838 				"/>
				<polygon fill="#72AA70" points="850.057,364.193 818.488,400.838 850.057,437.484 881.626,400.838 				"/>
				<polygon fill="#72AA70" points="913.017,364.193 881.449,400.838 913.017,437.484 944.586,400.838 				"/>
				<polygon fill="#72AA70" points="975.979,364.193 944.409,400.838 975.979,437.484 1007.547,400.838 				"/>
				<polygon fill="#72AA70" points="1038.938,364.193 1007.371,400.838 1038.938,437.484 1070.507,400.838 				"/>
				<polygon fill="#72AA70" points="1101.899,364.193 1070.331,400.838 1101.899,437.484 1133.469,400.838 				"/>
				<polygon fill="#72AA70" points="1164.861,364.193 1133.29,400.838 1164.861,437.484 1196.428,400.838 				"/>
			</g>
			<g>
				<polygon fill="#72AA70" points="31.569,437.031 0,473.677 31.569,510.323 63.138,473.677 				"/>
				<polygon fill="#72AA70" points="94.53,437.031 62.961,473.677 94.53,510.323 126.099,473.677 				"/>
				<polygon fill="#72AA70" points="157.49,437.031 125.921,473.677 157.49,510.323 189.059,473.677 				"/>
				<polygon fill="#72AA70" points="220.451,437.031 188.883,473.677 220.451,510.323 252.02,473.677 				"/>
				<polygon fill="#72AA70" points="283.412,437.031 251.842,473.677 283.412,510.323 314.98,473.677 				"/>
				<polygon fill="#72AA70" points="346.373,437.031 314.803,473.677 346.373,510.323 377.941,473.677 				"/>
				<polygon fill="#72AA70" points="409.332,437.031 377.764,473.677 409.332,510.323 440.901,473.677 				"/>
				<polygon fill="#72AA70" points="472.293,437.031 440.725,473.677 472.293,510.323 503.863,473.677 				"/>
				<polygon fill="#72AA70" points="535.254,437.031 503.685,473.677 535.254,510.323 566.823,473.677 				"/>
				<polygon fill="#72AA70" points="598.214,437.031 566.646,473.677 598.214,510.323 629.785,473.677 				"/>
				<polygon fill="#72AA70" points="661.176,437.031 629.605,473.677 661.176,510.323 692.744,473.677 				"/>
				<polygon fill="#72AA70" points="724.136,437.031 692.567,473.677 724.136,510.323 755.704,473.677 				"/>
				<polygon fill="#72AA70" points="787.095,437.031 755.528,473.677 787.095,510.323 818.666,473.677 				"/>
				<polygon fill="#72AA70" points="850.057,437.031 818.488,473.677 850.057,510.323 881.626,473.677 				"/>
				<polygon fill="#72AA70" points="913.017,437.031 881.449,473.677 913.017,510.323 944.586,473.677 				"/>
				<polygon fill="#72AA70" points="975.979,437.031 944.409,473.677 975.979,510.323 1007.547,473.677 				"/>
				<polygon fill="#72AA70" points="1038.938,437.031 1007.371,473.677 1038.938,510.323 1070.507,473.677 				"/>
				<polygon fill="#72AA70" points="1101.899,437.031 1070.331,473.677 1101.899,510.323 1133.469,473.677 				"/>
				<polygon fill="#72AA70" points="1164.861,437.031 1133.29,473.677 1164.861,510.323 1196.428,473.677 				"/>
			</g>
			<g>
				<polygon fill="#72AA70" points="31.569,509.87 0,546.516 31.569,583.161 63.138,546.516 				"/>
				<polygon fill="#72AA70" points="94.53,509.87 62.961,546.516 94.53,583.161 126.099,546.516 				"/>
				<polygon fill="#72AA70" points="157.49,509.87 125.921,546.516 157.49,583.161 189.059,546.516 				"/>
				<polygon fill="#72AA70" points="220.451,509.87 188.883,546.516 220.451,583.161 252.02,546.516 				"/>
				<polygon fill="#72AA70" points="283.412,509.87 251.842,546.516 283.412,583.161 314.98,546.516 				"/>
				<polygon fill="#72AA70" points="346.373,509.87 314.803,546.516 346.373,583.161 377.941,546.516 				"/>
				<polygon fill="#72AA70" points="409.332,509.87 377.764,546.516 409.332,583.161 440.901,546.516 				"/>
				<polygon fill="#72AA70" points="472.293,509.87 440.725,546.516 472.293,583.161 503.863,546.516 				"/>
				<polygon fill="#72AA70" points="535.254,509.87 503.685,546.516 535.254,583.161 566.823,546.516 				"/>
				<polygon fill="#72AA70" points="598.214,509.87 566.646,546.516 598.214,583.161 629.785,546.516 				"/>
				<polygon fill="#72AA70" points="661.176,509.87 629.605,546.516 661.176,583.161 692.744,546.516 				"/>
				<polygon fill="#72AA70" points="724.136,509.87 692.567,546.516 724.136,583.161 755.704,546.516 				"/>
				<polygon fill="#72AA70" points="787.095,509.87 755.528,546.516 787.095,583.161 818.666,546.516 				"/>
				<polygon fill="#72AA70" points="850.057,509.87 818.488,546.516 850.057,583.161 881.626,546.516 				"/>
				<polygon fill="#72AA70" points="913.017,509.87 881.449,546.516 913.017,583.161 944.586,546.516 				"/>
				<polygon fill="#72AA70" points="975.979,509.87 944.409,546.516 975.979,583.161 1007.547,546.516 				"/>
				<polygon fill="#72AA70" points="1038.938,509.87 1007.371,546.516 1038.938,583.161 1070.507,546.516 				"/>
				<polygon fill="#72AA70" points="1101.899,509.87 1070.331,546.516 1101.899,583.161 1133.469,546.516 				"/>
				<polygon fill="#72AA70" points="1164.861,509.87 1133.29,546.516 1164.861,583.161 1196.428,546.516 				"/>
			</g>
			<g>
				<polygon fill="#72AA70" points="31.569,582.709 0,619.354 31.569,656 63.138,619.354 				"/>
				<polygon fill="#72AA70" points="94.53,582.709 62.961,619.354 94.53,656 126.099,619.354 				"/>
				<polygon fill="#72AA70" points="157.49,582.709 125.921,619.354 157.49,656 189.059,619.354 				"/>
				<polygon fill="#72AA70" points="220.451,582.709 188.883,619.354 220.451,656 252.02,619.354 				"/>
				<polygon fill="#72AA70" points="283.412,582.709 251.842,619.354 283.412,656 314.98,619.354 				"/>
				<polygon fill="#72AA70" points="346.373,582.709 314.803,619.354 346.373,656 377.941,619.354 				"/>
				<polygon fill="#72AA70" points="409.332,582.709 377.764,619.354 409.332,656 440.901,619.354 				"/>
				<polygon fill="#72AA70" points="472.293,582.709 440.725,619.354 472.293,656 503.863,619.354 				"/>
				<polygon fill="#72AA70" points="535.254,582.709 503.685,619.354 535.254,656 566.823,619.354 				"/>
				<polygon fill="#72AA70" points="598.214,582.709 566.646,619.354 598.214,656 629.785,619.354 				"/>
				<polygon fill="#72AA70" points="661.176,582.709 629.605,619.354 661.176,656 692.744,619.354 				"/>
				<polygon fill="#72AA70" points="724.136,582.709 692.567,619.354 724.136,656 755.704,619.354 				"/>
				<polygon fill="#72AA70" points="787.095,582.709 755.528,619.354 787.095,656 818.666,619.354 				"/>
				<polygon fill="#72AA70" points="850.057,582.709 818.488,619.354 850.057,656 881.626,619.354 				"/>
				<polygon fill="#72AA70" points="913.017,582.709 881.449,619.354 913.017,656 944.586,619.354 				"/>
				<polygon fill="#72AA70" points="975.979,582.709 944.409,619.354 975.979,656 1007.547,619.354 				"/>
				<polygon fill="#72AA70" points="1038.938,582.709 1007.371,619.354 1038.938,656 1070.507,619.354 				"/>
				<polygon fill="#72AA70" points="1101.899,582.709 1070.331,619.354 1101.899,656 1133.469,619.354 				"/>
				<polygon fill="#72AA70" points="1164.861,582.709 1133.29,619.354 1164.861,656 1196.428,619.354 				"/>
			</g>
		</g>
		<polygon fill="#DC9D56" points="0.177,800 694.756,800 1196.428,800 1196.428,733.368 1196.428,656.995 0.177,656.995 
			0.177,742.524 		"/>
		<path fill="#E1AB5B" d="M0.177,693.217v56.08v33.398c388.559,11.059,827.717,6.999,1196.251-4.992V741.47v-50.662
			C775.205,682.035,349.399,685.896,0.177,693.217z"/>
		<path fill="#E3BC6F" d="M0.177,698.404v44.12v24.169c425.071,14.985,871.852,7.991,1196.251-1.869v-31.456v-39.75
			C819.499,674.45,348.266,681.091,0.177,698.404z"/>
		<polygon fill="#FFFFFF" points="0.177,652.253 694.756,652.253 1196.428,652.253 1196.428,663.455 1196.428,677.039 
			0.177,677.039 0.177,667.43 		"/>
		<polygon fill="#577B5F" points="0.177,652.253 694.756,652.253 1196.428,652.253 1196.428,650.321 1196.428,649.688 
			0.177,649.688 0.177,649.636 		"/>
		<polygon fill="#D4D6D3" points="0.177,654.817 694.756,654.817 1196.428,653.962 1196.428,655.895 1196.428,658.236 
			0.177,658.236 0.177,656.579 		"/>
		<g>
			<ellipse fill="#DC9D56" cx="801.643" cy="730.979" rx="102.192" ry="7.569"/>
			<ellipse fill="#DC9D56" cx="1027.653" cy="730.979" rx="102.189" ry="7.569"/>
			<g>
				<polygon fill="#982003" points="861.125,670.385 872.209,585.396 810.317,585.396 802.588,670.385 				"/>
				<polygon fill="#CC470D" points="853.735,670.385 864.82,585.396 802.927,585.396 795.198,670.385 				"/>
				<rect x="828.792" y="670.385" fill="#982003" width="32.18" height="11.353"/>
				<rect x="850.756" y="681.735" fill="#982003" width="10.216" height="49.615"/>
				<rect x="775.474" y="670.385" fill="#CC470D" width="61.479" height="11.353"/>
				<rect x="775.474" y="681.735" fill="#982003" width="10.217" height="49.615"/>
				<rect x="826.739" y="681.735" fill="#982003" width="10.215" height="49.615"/>
				<rect x="716.555" y="626.967" fill="#982003" width="178.287" height="7.393"/>
				<rect x="723.945" y="634.357" fill="#CC470D" width="163.506" height="24.939"/>
				<rect x="848.192" y="634.357" fill="#BD3D0D" width="39.26" height="24.939"/>
				<rect x="723.483" y="659.299" fill="#982003" width="8.313" height="72.055"/>
				<rect x="878.676" y="659.299" fill="#8A1B03" width="8.314" height="72.055"/>
				<rect x="848.192" y="659.299" fill="#8A1B03" width="8.313" height="72.055"/>
			</g>
			<g>
				<polygon fill="#982003" points="1085.995,670.385 1097.081,585.396 1035.188,585.396 1027.458,670.385 				"/>
				<polygon fill="#CC470D" points="1078.605,670.385 1089.689,585.396 1027.797,585.396 1020.068,670.385 				"/>
				<rect x="1053.663" y="670.385" fill="#982003" width="32.18" height="11.353"/>
				<rect x="1075.626" y="681.735" fill="#982003" width="10.216" height="49.615"/>
				<rect x="1000.344" y="670.385" fill="#CC470D" width="61.479" height="11.353"/>
				<rect x="1000.344" y="681.735" fill="#982003" width="10.216" height="49.615"/>
				<rect x="1051.609" y="681.735" fill="#982003" width="10.215" height="49.615"/>
				<rect x="941.425" y="626.967" fill="#982003" width="178.287" height="7.393"/>
				<rect x="948.815" y="634.357" fill="#CC470D" width="163.507" height="24.939"/>
				<rect x="1073.063" y="634.357" fill="#BD3D0D" width="39.261" height="24.939"/>
				<rect x="948.354" y="659.299" fill="#982003" width="8.313" height="72.055"/>
				<rect x="1103.546" y="659.299" fill="#8A1B03" width="8.314" height="72.055"/>
				<rect x="1073.063" y="659.299" fill="#8A1B03" width="8.313" height="72.055"/>
			</g>
		</g>
	</g>
</g>
<g id="DESIGNED_BY_FREEPIK">
</g>
<g>
	<g>
		<g>
			<ellipse opacity="0.2" fill="#91959D" cx="505.661" cy="752.192" rx="79.758" ry="5.242"/>
			<g>
				<g>
					<path fill="#FFD2B2" d="M507.981,588.103c0,0,15.861-3.919,21.042,2.692c5.18,6.612-0.717,5.896-0.272,10.683
						c0.442,4.785,9.792,8.709,15.195,3.308c5.404-5.401-2.41-43.665-40.427-32.793L507.981,588.103z"/>
					<path fill="#FF975F" d="M542.331,602.082c-0.859-1.36-1.993-2.609-3.643-2.135c0.023-0.06,0.058-0.118,0.076-0.18
						c0.099-0.317-0.164-0.589-0.466-0.61c-1.15-0.084-1.807,1.097-2.756,1.67c-1.097,0.661-2.854,1.826-3.735,0.076
						c-0.659-1.445,0.22-2.579,0.909-3.784c0.688-1.2,1.871-2.114,2.44-3.362c0.061-0.133-0.069-0.305-0.216-0.215
						c-2.505,1.553-5.788,6.486-4.138,8.472c1.189,1.43,2.699,1.538,4.51,0.824c0.956-0.376,2.089-1.073,2.815-1.955
						c0.053,0.025,0.102,0.059,0.17,0.054c0.709-0.043,1.284-0.17,1.981,0.06c0.766,0.252,1.313,0.947,1.725,1.598
						C542.377,603.184,542.704,602.674,542.331,602.082z"/>
				</g>
				<g>
					<path fill="#FFD2B2" d="M420.554,613.353c0,0-12.817,10.135-20.27,6.26c-7.452-3.876-1.788-5.663-4.173-9.837
						c-2.385-4.175-12.52-3.876-15.202,3.278c-2.684,7.154,20.269,38.753,50.375,13.115L420.554,613.353z"/>
					<path fill="#FF975F" d="M396.625,611.074c-0.124-0.267-0.801-0.491-0.798-0.186c0.036,2.855-0.385,5.143-2.718,6.924
						c-4.196,3.201-7.095-0.284-7.686-0.926c-0.045-0.05-0.113,0.008-0.093,0.071c0.365,1.191,1.636,4.622,7.228,3.141
						C395.692,619.268,398.15,614.38,396.625,611.074z"/>
					<path fill="#FF975F" d="M393.874,619.372c-0.017-0.072-0.131-0.113-0.181-0.048c-0.323,0.414-0.422,0.901-0.644,1.379
						c-0.314,0.685-0.813,1.271-1.407,1.727c-0.956,0.729-2.617,0.506-3.723,0.77c-0.654,0.155-0.682,1.21,0,1.346
						c1.722,0.347,2.933-0.52,4.178-1.525C393.032,622.268,394.164,620.627,393.874,619.372z"/>
				</g>
				<g>
					<g>
						<polygon fill="#FFD2B2" points="453.776,727.538 462.827,678.019 488.036,684.286 462.08,730.813 						"/>
						<path fill="#00AEEC" d="M461.99,729.475c0,0,0.389,6.582-3.99,10.66c0,0-24.105-5.096-31.91-11.166
							c0,0,16.582-5.494,27.664-5.51L461.99,729.475z"/>
						<path d="M448.301,724.333c-0.588-1.221-2.269-2.341-3.489-1.414c-0.106,0.085-0.143,0.262-0.106,0.386
							c0.238,0.843,0.8,1.508,1.126,2.326c0.527,1.323,0.317,2.756,0.204,4.13c-0.136,1.658,2.501,1.995,2.88,0.4
							C449.375,728.212,449.17,726.133,448.301,724.333z"/>
						<path d="M442.607,729.695c0.003-1.285-0.465-2.649-1.146-3.726c-0.297-0.473-1.859-2.394-2.506-1.348
							c-0.437,0.704-0.233,1.641-0.12,2.411c0.131,0.887,0.323,1.759,0.414,2.649c0.095,0.908,0.684,1.682,1.674,1.684
							C441.834,731.372,442.605,730.609,442.607,729.695z"/>
						<path fill="#FFFFFF" d="M453.71,729.575c1.491,2.312,2.602,5.553,2.792,8.296c0.011,0.153-0.206,0.163-0.251,0.034
							c-0.974-2.711-1.784-5.521-2.721-8.255C453.494,729.541,453.652,729.483,453.71,729.575z"/>
						<path fill="#FFFFFF" d="M451.468,732.35c0.873,1.926,1.654,3.857,2.166,5.918c0.188,0.745-0.843,0.983-1.118,0.308
							c-0.807-1.984-1.004-4.093-1.14-6.201C451.374,732.326,451.448,732.307,451.468,732.35z"/>
						<path fill="#FFFFFF" d="M448.554,733.438c0.035-0.088,0.186-0.143,0.234-0.029c0.487,1.132,0.929,2.266,1.462,3.386
							c0.362,0.76-0.749,1.429-1.14,0.667C448.492,736.252,448.041,734.769,448.554,733.438z"/>
					</g>
					<g>
						<polygon fill="#FFD2B2" points="571.779,646.912 536.234,661.297 537.739,641.352 568.766,638.631 						"/>
						<path fill="#00AEEC" d="M565.126,638.837c0,0,3.277-5.723,9.174-6.739c0,0,17.389,17.457,20.597,26.812
							c0,0-16.883-4.479-26.167-10.529L565.126,638.837z"/>
						<path d="M575.569,645.805c-1.057,1.027-1.443,2.412-1.629,3.839c-0.169,1.29-0.221,3.253,0.851,4.155
							c0.447,0.374,1.311,0.127,1.46-0.45c0.264-1.007-0.194-2.09-0.164-3.137c0.036-1.216,0.46-2.3,0.882-3.419
							C577.27,645.997,576.224,645.166,575.569,645.805z"/>
						<path d="M580.353,649.87c-1.431,1.034-2.068,3.526-1.983,5.195c0.071,1.421,2.193,1.187,2.387-0.085
							c0.119-0.771,0.148-1.512,0.371-2.265c0.209-0.705,0.564-1.348,0.675-2.083C581.925,649.808,580.936,649.446,580.353,649.87z"
							/>
						<path fill="#FFFFFF" d="M572.947,637.202c0.519,0.116,1.274,0.064,1.806,0.046c0.68-0.021,1.317,0.31,1.921,0.576
							c1.028,0.453,2.673,1.159,3.155,2.237c0.287,0.643-0.037,1.506-0.851,1.48c-1.107-0.032-2.095-0.96-2.927-1.635
							c-0.506-0.408-1.036-0.781-1.531-1.203c-0.537-0.458-0.88-1.149-1.605-1.389C572.841,637.293,572.872,637.185,572.947,637.202
							z"/>
						<path fill="#FFFFFF" d="M576.279,642.577c0.323,0.127,0.645,0.254,0.968,0.38c0.29,0.113,0.862,0.479,1.176,0.389
							c0.569-0.164,1.185,0.432,1.462,0.853c0.184,0.278-0.063,0.604-0.355,0.621c-0.489,0.028-1.199-0.111-1.472-0.576
							c-0.334-0.571-1.352-0.974-1.922-1.324C575.961,642.813,576.076,642.496,576.279,642.577z"/>
						<path fill="#FFFFFF" d="M577.917,645.923c1.216,0.427,2.782,0.313,3.686,1.357c0.314,0.364,0.14,1.064-0.425,1.025
							c-1.436-0.099-2.252-1.383-3.367-2.131C577.686,646.091,577.76,645.868,577.917,645.923z"/>
					</g>
					<g>
						<path fill="#004774" d="M506.611,627.679c-0.227-0.32-0.537-0.439-0.839-0.439l6.276-3.401
							c9.316,12.589,17.276,14.439,28.702,14.88c0.075,0.797,0.144,1.664,0.204,2.578c-5.785,0.092-11.601-0.104-16.822-3.003
							c-4.919-2.73-8.193-6.068-11.85-10.244c-0.562-0.641-1.49,0.175-1.13,0.87c5.397,10.402,18.365,16.964,29.945,15.002
							c0.054,1.21,0.098,2.471,0.124,3.757c-6.514-1.107-12.487-1.097-18.607-4.579
							C515.773,639.205,511.115,634.028,506.611,627.679z"/>
						<path fill="#004774" d="M459.178,652.496l45.722-24.783c-0.162,0.262-0.209,0.599-0.005,0.97
							c6.272,11.394,22.476,23.114,36.347,19.999c0.133,8.339-0.316,17.415-1.621,19.765c-30.857,6.021-43.573-5.147-43.573-5.147
							l-3.28,26.503c-10.587,2.648-21.477,3.961-32.514,4.318c0.752-5.874-0.415-12.063-0.045-18.021
							c0.479-7.745,1.559-15.254,3.076-22.859c0.209-1.049-1.369-1.502-1.613-0.445c-1.58,6.832-2.911,13.958-3.372,20.966
							c-0.422,6.419-1.339,14.205,0.945,20.386c-0.912,0.023-1.823,0.055-2.737,0.066
							C455.599,669.198,459.178,652.496,459.178,652.496z"/>
						<path fill="#FFFFFF" d="M511.153,628.919c-0.36-0.695,0.568-1.511,1.13-0.87c3.656,4.176,6.931,7.514,11.85,10.244
							c5.222,2.899,11.037,3.095,16.822,3.003c0.054,0.836,0.102,1.716,0.144,2.625C529.518,645.883,516.55,639.321,511.153,628.919
							z"/>
						<path fill="#FFFFFF" d="M505.772,627.239l-0.872,0.474C505.083,627.421,505.415,627.241,505.772,627.239z"/>
						<path fill="#FFFFFF" d="M542.68,647.944c0.19,0.037,0.167,0.31,0,0.361c-0.477,0.146-0.956,0.268-1.438,0.376
							c-0.006-0.335-0.012-0.67-0.02-1.004C541.706,647.76,542.192,647.849,542.68,647.944z"/>
						<path fill="#FFFFFF" d="M504.895,628.683c-0.204-0.371-0.157-0.708,0.005-0.97l0.872-0.474c0.302,0,0.612,0.119,0.839,0.439
							c4.504,6.35,9.162,11.526,16.004,15.42c6.12,3.482,12.094,3.472,18.607,4.579c0.008,0.334,0.014,0.669,0.02,1.004
							C527.371,651.797,511.167,640.076,504.895,628.683z"/>
						<path fill="#FFFFFF" d="M460.167,694.877c-0.059,0.369-0.535,0.263-0.645,0c-0.101-0.24-0.188-0.486-0.277-0.73
							c0.336-0.011,0.673-0.016,1.009-0.026C460.221,694.372,460.207,694.626,460.167,694.877z"/>
						<path fill="#FFFFFF" d="M458.299,673.761c0.461-7.008,1.792-14.134,3.372-20.966c0.244-1.057,1.822-0.604,1.613,0.445
							c-1.518,7.605-2.597,15.114-3.076,22.859c-0.37,5.958,0.797,12.146,0.045,18.021c-0.336,0.011-0.673,0.016-1.009,0.026
							C456.96,687.966,457.877,680.18,458.299,673.761z"/>
					</g>
					<path fill="#FFBB04" d="M433.074,600.832l-16.692,11.03c0,0,2.087,16.99,14.011,21.461l14.01-10.731l10.73,31.896
						c0,0,28.021,1.193,61.108-29.211l-19.078-30.704l17.886-1.788c0,0,0.597-14.011-6.855-23.848
						C508.193,568.937,474.806,573.706,433.074,600.832z"/>
				</g>
			</g>
		</g>
		<g>
			<g>
				<path fill="#FFD2B2" d="M411.245,524.411c0,0-8.887,23.039-11.848,30.607c-2.964,7.57,0.19,24.811,13.354,33.697
					c13.163,8.887,47.202,15.343,55.431,8.432c8.227-6.912,15.469-12.836,15.469-12.836s8.227,3.948,15.469-4.607
					c6.964-8.23,2.053-17.676-5.942-21.021c-0.318-0.135-1.295-0.494-0.97-0.371c0.97,0.371,13.773-24.271-2.023-35.462
					C474.386,511.66,429.676,486.233,411.245,524.411z"/>
				<path opacity="0.2" fill="#FFD2B2" d="M467.491,590.633c5.389-6.872,11.032-14.248,14.544-22.274
					c6.604-15.104,0.618-30.85-13.149-37.35c-10.73-5.068-21.462,3.875-43.224,0.894c-10.672-1.462-10.862-11.202-14.01-6.26
					c-2.457,3.857-5.479,13.484-7.664,17.552c3.458-8.936,7.257-18.783,7.257-18.783c18.432-38.178,63.142-12.751,78.939-1.562
					c15.784,11.183,3.013,35.794,2.026,35.462c0.186,0.066,0.741,0.275,0.967,0.371c7.995,3.346,12.906,12.791,5.942,21.021
					c-7.242,8.556-15.469,4.607-15.469,4.607s-7.242,5.924-15.469,12.836c-2.138,1.796-5.884,2.428-10.477,2.236
					C461.467,597.3,464.714,594.172,467.491,590.633z"/>
			</g>
			<g>
				<path fill="#383838" d="M459.205,558.351c-1.799-1.105-4.023-1.696-5.889-1.258c-0.209-1.141-0.021-2.505,0.617-3.809
					c1.252-2.547,3.74-3.888,5.561-2.994c1.817,0.896,2.278,3.684,1.027,6.229C460.168,557.237,459.711,557.846,459.205,558.351z"/>
				
					<ellipse transform="matrix(-0.8988 -0.4383 0.4383 -0.8988 623.927 1250.7028)" fill="#FFFFFF" cx="456.326" cy="553.334" rx="1.743" ry="2.477"/>
				<g>
					
						<ellipse transform="matrix(-0.9891 -0.1475 0.1475 -0.9891 821.9897 1188.0549)" opacity="0.1" fill="#FF975F" cx="455.047" cy="563.549" rx="11.063" ry="6.162"/>
					<path fill="#FF975F" d="M466.442,563.517c0,0-7.868-8.143-20.014-4.568C446.428,558.948,455.27,550.847,466.442,563.517z"/>
				</g>
			</g>
			<g>
				<g>
					<path fill="#383838" d="M417.967,542.897c1.855,0.479,3.653,1.598,4.563,3.173c0.864-0.636,1.619-1.69,2.048-3.015
						c0.837-2.59,0.106-5.203-1.627-5.84c-1.732-0.637-3.814,0.945-4.649,3.535C418.066,541.481,417.967,542.208,417.967,542.897z"
						/>
					<path fill="#FFFFFF" d="M422.238,540.698c-0.407,1.246-1.403,2.01-2.226,1.704c-0.821-0.304-1.159-1.562-0.755-2.808
						c0.406-1.248,1.402-2.012,2.224-1.707C422.305,538.192,422.641,539.452,422.238,540.698z"/>
				</g>
				<g>
					<path opacity="0.1" fill="#FF975F" d="M424.202,553.985c-1.839,2.633-7.494,2.053-11.927-1.469
						c-4.435-3.521-5.692-7.09-3.853-9.725c1.838-2.633,7.89-2.568,11.084,0.049C423.883,546.428,426.041,551.351,424.202,553.985z"
						/>
					<path fill="#FF975F" d="M410.921,541.235c0,0,9.344,0.063,14.38,11.281C425.301,552.517,422.587,538.29,410.921,541.235z"/>
				</g>
			</g>
			<path fill="#910A3D" d="M501.675,535.777c0,0,4.173-7.75-1.79-17.288c-5.961-9.539-9.539-12.223-9.539-12.223l2.684,11.029
				c0,0-8.049-15.202-28.021-18.481c-19.972-3.278-35.173,1.79-42.923-1.191c-7.751-2.981-10.137-6.261-10.137-6.261
				s-0.298,8.943,3.279,11.924c3.578,2.98-9.539-1.788-9.539-1.788s2.98,23.548,27.423,27.423
				c24.443,3.875,35.771-7.451,44.714,9.242c0.629,1.174,1.192,0.596,1.192,0.596s-6.856,12.521,2.086,26.529
				c0,0,8.05-8.048,14.904-4.471c0,0,7.154-0.597,11.626-10.136C512.108,541.144,501.675,535.777,501.675,535.777z"/>
			<path opacity="0.5" fill="#FFD2B2" d="M491.53,569.067c3.336-1.494,0.999,8.163-0.159,9.141
				c-2.178,1.838-6.424,1.179-6.761-1.138C484.212,574.325,488.041,570.633,491.53,569.067z"/>
		</g>
		<path fill="#FFFFFF" d="M429.749,560.116c6.395,0,11.893,3.648,14.425,8.903c-7.873-1.021-15.612-2.366-22.021-7.042
			C424.411,560.79,426.999,560.116,429.749,560.116z"/>
		<path fill="#FF975F" d="M422.153,561.978c6.408,4.676,14.147,6.021,22.021,7.042c0.95,1.97,1.494,4.159,1.494,6.476
			c0,8.494-7.126,15.38-15.919,15.38c-8.79,0-15.918-6.886-15.918-15.38C413.831,569.659,417.195,564.582,422.153,561.978z"/>
		<g>
			<path fill="#FFFFFF" d="M394.777,545.921c-4.337-5.106-8.831-10.09-13.321-15.063c-0.578-0.639-1.483,0.293-0.937,0.938
				c4.34,5.109,8.689,10.225,13.181,15.201C394.364,547.732,395.405,546.66,394.777,545.921z"/>
			<path fill="#FFFFFF" d="M387.701,559.523c-6.333-0.065-12.673-0.044-19.005,0.04c-0.818,0.011-0.818,1.258,0,1.269
				c6.332,0.084,12.672,0.104,19.005,0.04C388.57,560.863,388.57,559.532,387.701,559.523z"/>
			<path fill="#FFFFFF" d="M389.129,573.939c-2.589,4.615-4.761,9.522-7.028,14.303c-0.317,0.67,0.662,1.261,1.005,0.587
				c2.401-4.715,4.958-9.432,7.033-14.3C390.426,573.856,389.509,573.263,389.129,573.939z"/>
		</g>
	</g>
	<g>
		<g>
			<g>
				<path fill="#BC062C" d="M214.582,641.915l17.849-10.597c13.861-8.229,11.329-22.063,3.1-35.925l-13.24-22.303
					c-8.229-13.861-26.303-18.47-40.165-10.24l-3.568,2.118c-13.862,8.229-18.47,26.303-10.241,40.164l13.241,22.303
					C189.787,641.298,200.72,650.146,214.582,641.915z"/>
			</g>
			<g>
				<path fill="#FFB136" d="M222.944,604.676l-13.24-22.302c-8.229-13.862-26.303-18.471-40.165-10.241l-3.568,2.118
					c-1.742,1.034-3.337,2.224-4.779,3.541c1.817-1.924,3.917-3.633,6.298-5.046l3.569-2.118
					c13.861-8.229,31.935-3.621,40.164,10.24l13.241,22.303c7.341,12.366,10.138,24.707,0.815,33.07
					C232.745,627.941,229.856,616.319,222.944,604.676z"/>
				<path fill="#A90329" d="M203.514,649.693c-13.861,8.229-20.51-3.163-28.739-17.023l-13.241-22.303
					c-6.815-11.48-9.102-23.302-0.342-32.575c1.442-1.317,3.038-2.507,4.779-3.541l3.568-2.118
					c13.861-8.229,31.936-3.621,40.165,10.241l13.24,22.302c6.913,11.644,9.801,23.266,2.335,31.565
					c-1.127,1.011-2.42,1.968-3.915,2.855L203.514,649.693z"/>
			</g>
			<path fill="#FFB136" d="M227.789,586.417l-8.475,5.031c0,0,5.993,12.127,10.454,9.479
				C234.228,598.278,231.05,592.927,227.789,586.417z"/>
		</g>
		<g>
			<g>
				<ellipse opacity="0.2" fill="#91959D" cx="202.09" cy="732.153" rx="73.879" ry="4.855"/>
				<g>
					<g>
						<path fill="#FFD2B2" d="M204.237,580.159c0,0,14.695-3.633,19.492,2.493c4.797,6.125-0.664,5.461-0.252,9.896
							c0.41,4.432,9.07,8.068,14.075,3.064c5.006-5.005-2.232-40.447-37.449-30.375L204.237,580.159z"/>
						<path fill="#FF975F" d="M236.056,593.107c-0.796-1.261-1.849-2.417-3.375-1.978c0.023-0.056,0.053-0.108,0.072-0.167
							c0.09-0.293-0.153-0.544-0.43-0.563c-1.069-0.079-1.675,1.015-2.556,1.544c-1.016,0.613-2.642,1.693-3.458,0.072
							c-0.611-1.34,0.203-2.39,0.842-3.505c0.636-1.112,1.732-1.959,2.26-3.115c0.055-0.123-0.065-0.282-0.199-0.199
							c-2.32,1.439-5.362,6.01-3.833,7.849c1.102,1.323,2.499,1.425,4.178,0.764c0.884-0.35,1.934-0.995,2.607-1.812
							c0.048,0.023,0.095,0.054,0.16,0.049c0.654-0.039,1.187-0.157,1.834,0.056c0.708,0.233,1.216,0.879,1.598,1.48
							C236.098,594.127,236.403,593.655,236.056,593.107z"/>
					</g>
					<g>
						<path fill="#FFD2B2" d="M123.256,603.547c0,0-11.873,9.389-18.775,5.799c-6.903-3.59-1.657-5.246-3.866-9.111
							c-2.208-3.868-11.597-3.59-14.082,3.037c-2.485,6.624,18.775,35.895,46.663,12.148L123.256,603.547z"/>
						<path fill="#FF975F" d="M101.091,601.438c-0.115-0.248-0.743-0.456-0.74-0.174c0.033,2.646-0.357,4.765-2.517,6.414
							c-3.887,2.966-6.573-0.261-7.121-0.858c-0.041-0.044-0.104,0.007-0.085,0.067c0.338,1.104,1.516,4.281,6.695,2.91
							C100.226,609.026,102.503,604.497,101.091,601.438z"/>
						<path fill="#FF975F" d="M98.541,609.123c-0.016-0.069-0.121-0.104-0.167-0.043c-0.299,0.384-0.391,0.832-0.595,1.276
							c-0.292,0.634-0.754,1.177-1.305,1.599c-0.884,0.678-2.423,0.47-3.447,0.712c-0.606,0.146-0.633,1.122,0,1.249
							c1.594,0.319,2.716-0.483,3.869-1.413C97.761,611.805,98.811,610.284,98.541,609.123z"/>
					</g>
					<g>
						<g>
							
								<rect x="165.538" y="713.14" transform="matrix(-0.1029 0.9947 -0.9947 -0.1029 900.0301 622.8317)" fill="#FFD2B2" width="7.236" height="8.269"/>
							<path fill="#BC062C" d="M172.782,720.907c0,0,1.987,5.773-0.902,10.504c0,0-22.775,1.466-31.252-2.004
								c0,0,13.423-9.034,23.305-11.812L172.782,720.907z"/>
							<path d="M159.289,719.734c-0.83-0.942-2.609-1.521-3.466-0.389c-0.074,0.1-0.061,0.267,0,0.368
								c0.425,0.693,1.09,1.142,1.586,1.793c0.802,1.052,0.969,2.379,1.212,3.634c0.293,1.514,2.729,1.156,2.668-0.36
								C161.214,722.929,160.514,721.122,159.289,719.734z"/>
							<path d="M155.545,725.938c-0.318-1.147-1.076-2.246-1.952-3.038c-0.381-0.347-2.254-1.672-2.57-0.578
								c-0.214,0.739,0.2,1.521,0.493,2.183c0.338,0.758,0.726,1.486,1.032,2.26c0.31,0.788,1.029,1.33,1.912,1.084
								C155.274,727.627,155.772,726.755,155.545,725.938z"/>
						</g>
						<g>
							
								<rect x="252.482" y="627.953" transform="matrix(0.9398 -0.3416 0.3416 0.9398 -200.4983 125.5044)" fill="#FFD2B2" width="7.236" height="8.161"/>
							<path fill="#BC062C" d="M254.732,627.154c0,0,3.035-5.302,8.499-6.243c0,0,16.106,16.169,19.079,24.834
								c0,0-15.639-4.147-24.239-9.753L254.732,627.154z"/>
							<path d="M264.406,633.607c-0.979,0.951-1.337,2.232-1.51,3.556c-0.155,1.196-0.204,3.014,0.788,3.849
								c0.414,0.348,1.215,0.119,1.354-0.418c0.243-0.931-0.181-1.935-0.153-2.906c0.033-1.126,0.426-2.128,0.817-3.166
								C265.981,633.784,265.012,633.015,264.406,633.607z"/>
							<path d="M268.835,637.371c-1.323,0.963-1.915,3.268-1.836,4.813c0.067,1.319,2.033,1.1,2.211-0.078
								c0.108-0.713,0.136-1.399,0.342-2.096c0.194-0.655,0.523-1.25,0.625-1.932C270.293,637.316,269.377,636.98,268.835,637.371z"
								/>
						</g>
						<path fill="#00AEEC" d="M245.306,653.015c-1.084-8.266-1.994-16.58-2.785-24.898c-10.585-0.409-25.885-3.193-34.515-14.856
							l-48.973,26.547c0,0-5.579,25.985-0.439,61.063c9.861,0.517,19.292-0.896,28.611-2.755l5.979-48.304
							C193.184,649.812,214.901,661.262,245.306,653.015z"/>
						<path fill="#0071BD" d="M253.511,625.894c0,0-5.607,0.808-13.419,0.505c0.92,9.679,1.978,19.353,3.241,28.973
							c4.525-1.225,9.205-2.806,14.03-4.859L253.511,625.894z"/>
						<path fill="#0071BD" d="M155.978,698.665c0.83,5.654,1.899,11.517,3.268,17.53c0,0,20.729-3.636,27.571-7.484
							c0.095-0.051,0.187-0.105,0.275-0.158l1.614-13.037C178.047,697.64,167.259,699.257,155.978,698.665z"/>
						<path fill="#0071BD" d="M134.853,591.948l-15.463,10.218c0,0,1.933,15.738,12.978,19.881l12.978-9.941l9.94,29.545
							c0,0,25.955,1.103,56.604-27.059l-17.671-28.44l16.567-1.656c0,0,0.553-12.979-6.351-22.09
							C204.434,562.405,173.509,566.823,134.853,591.948z"/>
						<path opacity="0.6" fill="#00AEEC" d="M170.766,597.549c-5.091-1.358-11.12-1.631-18.063,0.227c0,0,2.355,9.539,8.936,16.092
							C166.833,610.113,170.297,603.942,170.766,597.549z"/>
						<path opacity="0.6" fill="#00AEEC" d="M189.393,613.347c0,0,0,0,1.458-0.582l7.319,0.827l-5.861-5.787l-3.208,2.626
							c-2.833-3.176-8.792-9.66-16.065-12.184c-0.658,6.706-4.255,13.148-9.627,17.217c1.674,1.364,3.576,2.521,5.735,3.308
							c4.779,1.744,6.594,1.996,9.165,2.16l-0.814,2.873l7.064,6.386l-3.042-7.799c2.107,0,3.952-2.399,3.952-2.399l6.801,2.07
							l-4.879-4.929L189.393,613.347z M175.288,616.884c-2.402,0-4.35-1.947-4.35-4.351s1.948-4.351,4.35-4.351
							c2.403,0,4.351,1.947,4.351,4.351S177.691,616.884,175.288,616.884z"/>
					</g>
				</g>
			</g>
			<g>
				<g>
					<path fill="#FFD2B2" d="M180.238,523.161c0,0,8.231,21.341,10.973,28.352c2.745,7.012-2.134,19.512-14.327,27.742
						c-12.194,8.231-41.766,17.683-49.388,11.28c-7.621-6.403-14.328-11.89-14.328-11.89s-7.621,3.657-14.328-4.268
						c-6.45-7.624-1.903-16.374,5.502-19.475c0.296-0.122,1.2-0.457,0.899-0.342c-0.899,0.342-12.758-22.48,1.875-32.847
						C121.75,511.351,163.165,487.798,180.238,523.161z"/>
					<path opacity="0.2" fill="#FFD2B2" d="M128.138,584.501c-4.992-6.366-10.22-13.197-13.472-20.634
						c-6.118-13.987-0.573-28.573,12.18-34.595c9.94-4.694,19.88,3.59,40.037,0.828c9.886-1.354,10.062-10.377,12.979-5.799
						c2.274,3.573,5.074,12.491,7.099,16.259c-3.204-8.277-6.722-17.399-6.722-17.399c-17.073-35.363-58.487-11.811-73.121-1.446
						c-14.622,10.358-2.792,33.154-1.877,32.847c-0.172,0.063-0.686,0.255-0.897,0.342c-7.406,3.101-11.953,11.851-5.502,19.475
						c6.707,7.925,14.328,4.268,14.328,4.268s6.708,5.486,14.328,11.89c1.981,1.663,5.451,2.248,9.705,2.07
						C133.716,590.676,130.709,587.778,128.138,584.501z"/>
				</g>
				<path fill="#FF975F" d="M184.38,551.575c0,0-15.296,25.322-45.039,15.466c0,0-0.34-1.021,1.53-4.081c0,0-4.248,1.701-4.588,6.63
					c-0.34,4.93,1.358,5.95,1.358,5.95s-0.339-6.631,1.36-5.95C140.702,570.271,170.784,582.338,184.38,551.575z"/>
				<g>
					<path fill="#383838" d="M135.812,554.599c1.667-1.024,3.726-1.57,5.454-1.164c0.194-1.059,0.021-2.322-0.571-3.529
						c-1.159-2.359-3.465-3.6-5.15-2.771c-1.686,0.826-2.111,3.41-0.952,5.77C134.919,553.569,135.342,554.132,135.812,554.599z"/>
					
						<ellipse transform="matrix(0.8988 -0.4384 0.4384 0.8988 -227.0933 116.3844)" fill="#FFFFFF" cx="138.478" cy="549.951" rx="1.615" ry="2.294"/>
					<g>
						<path opacity="0.1" fill="#FF975F" d="M149.798,557.901c0.465,3.119-3.695,6.322-9.292,7.157
							c-5.598,0.837-10.512-1.016-10.977-4.134c-0.465-3.118,3.695-6.322,9.293-7.156
							C144.417,552.931,149.333,554.784,149.798,557.901z"/>
						<path fill="#FF975F" d="M129.108,559.385c0,0,7.289-7.544,18.537-4.231C147.646,555.153,139.456,547.647,129.108,559.385z"/>
					</g>
				</g>
				<g>
					<g>
						<path fill="#383838" d="M174.011,540.285c-1.72,0.442-3.384,1.48-4.226,2.938c-0.803-0.587-1.501-1.564-1.898-2.792
							c-0.774-2.397-0.1-4.819,1.507-5.409c1.605-0.589,3.532,0.876,4.307,3.276C173.919,538.974,174.011,539.646,174.011,540.285z"
							/>
						<path fill="#FFFFFF" d="M170.055,538.248c0.376,1.154,1.299,1.861,2.06,1.579c0.762-0.282,1.074-1.447,0.7-2.603
							c-0.376-1.155-1.299-1.862-2.06-1.579C169.992,535.927,169.679,537.093,170.055,538.248z"/>
					</g>
					<g>
						<path opacity="0.1" fill="#FF975F" d="M168.235,550.556c1.704,2.439,6.941,1.9,11.047-1.36
							c4.107-3.262,5.273-6.567,3.569-9.007c-1.702-2.44-7.308-2.381-10.266,0.043C168.53,543.554,166.531,548.115,168.235,550.556z
							"/>
						<path fill="#FF975F" d="M180.536,538.745c0,0-8.654,0.059-13.32,10.45C167.216,549.195,169.731,536.017,180.536,538.745z"/>
					</g>
				</g>
				<path fill="#FFBB04" d="M96.473,533.69c0,0-3.866-7.18,1.657-16.015c5.522-8.836,8.835-11.321,8.835-11.321l-2.485,10.217
					c0,0,7.456-14.082,25.955-17.119c18.499-3.037,32.581,1.656,39.76-1.104c7.179-2.762,9.388-5.799,9.388-5.799
					s0.277,8.284-3.038,11.045c-3.313,2.761,8.836-1.657,8.836-1.657s-2.762,21.813-25.402,25.403
					c-22.642,3.589-33.134-6.903-41.417,8.56c-0.583,1.088-1.105,0.552-1.105,0.552s6.352,11.597-1.932,24.573
					c0,0-7.456-7.455-13.807-4.141c0,0-6.626-0.553-10.768-9.389C86.809,538.66,96.473,533.69,96.473,533.69z"/>
				<path opacity="0.5" fill="#FFD2B2" d="M105.87,564.526c-3.09-1.385-0.925,7.56,0.147,8.467c2.017,1.699,5.951,1.089,6.262-1.055
					C112.649,569.396,109.102,565.975,105.87,564.526z"/>
			</g>
		</g>
		<g>
			<g>
				<g>
					<path fill="#00A090" d="M331.836,651.07l18.804-8.792c14.603-6.827,13.443-20.844,6.614-35.446l-10.985-23.496
						c-6.828-14.603-24.361-20.964-38.964-14.137l-3.759,1.758c-14.603,6.827-20.964,24.361-14.136,38.964l10.985,23.496
						C307.223,648.02,317.234,657.899,331.836,651.07z"/>
				</g>
				<g>
					<path fill="#AFC236" d="M343.816,614.833l-10.985-23.496c-6.828-14.603-24.361-20.964-38.964-14.137l-3.759,1.758
						c-1.835,0.857-3.539,1.886-5.104,3.055c1.997-1.736,4.255-3.23,6.764-4.403l3.759-1.757
						c14.603-6.828,32.137-0.467,38.964,14.136l10.985,23.496c6.091,13.028,7.663,25.585-2.436,32.99
						C351.284,638.95,349.552,627.099,343.816,614.833z"/>
					<path fill="#007E9A" d="M320.058,657.723c-14.603,6.829-20.101-5.161-26.928-19.763l-10.986-23.496
						c-5.655-12.095-6.77-24.084,2.859-32.451c1.564-1.169,3.269-2.197,5.104-3.055l3.759-1.758
						c14.603-6.827,32.137-0.466,38.964,14.137l10.985,23.496c5.735,12.266,7.468,24.117-0.776,31.642
						c-1.222,0.896-2.603,1.72-4.177,2.456L320.058,657.723z"/>
				</g>
				<path fill="#AFC236" d="M350.432,597.138l-8.928,4.174c0,0,4.772,12.658,9.471,10.461
					C355.675,609.575,353.038,603.936,350.432,597.138z"/>
			</g>
			<g>
				<ellipse opacity="0.2" fill="#91959D" cx="324.588" cy="753.011" rx="73.88" ry="4.855"/>
				<g>
					<g>
						<path fill="#FFD2B2" d="M333.488,594.261c0,0,14.694-3.631,19.493,2.494c4.798,6.125-0.664,5.461-0.252,9.896
							c0.41,4.432,9.07,8.065,14.076,3.063c5.007-5.004-2.232-40.447-37.449-30.374L333.488,594.261z"/>
						<path fill="#FF975F" d="M365.308,607.21c-0.798-1.261-1.848-2.419-3.375-1.978c0.023-0.056,0.054-0.111,0.071-0.167
							c0.091-0.294-0.151-0.546-0.432-0.564c-1.067-0.078-1.673,1.016-2.554,1.545c-1.016,0.613-2.642,1.691-3.46,0.072
							c-0.609-1.34,0.204-2.39,0.843-3.507c0.637-1.11,1.732-1.957,2.26-3.113c0.057-0.125-0.065-0.282-0.198-0.199
							c-2.321,1.438-5.364,6.01-3.834,7.847c1.103,1.325,2.5,1.425,4.179,0.763c0.885-0.349,1.933-0.992,2.606-1.812
							c0.048,0.026,0.095,0.057,0.158,0.052c0.656-0.04,1.188-0.157,1.834,0.055c0.71,0.234,1.217,0.877,1.6,1.481
							C365.352,608.23,365.655,607.758,365.308,607.21z"/>
					</g>
					<g>
						<path fill="#FFD2B2" d="M252.509,617.649c0,0-11.873,9.386-18.775,5.799c-6.903-3.59-1.657-5.246-3.866-9.114
							c-2.209-3.865-11.597-3.587-14.081,3.037c-2.487,6.628,18.775,35.896,46.662,12.151L252.509,617.649z"/>
						<path fill="#FF975F" d="M230.342,615.539c-0.114-0.247-0.742-0.455-0.739-0.173c0.034,2.646-0.357,4.765-2.518,6.411
							c-3.886,2.969-6.571-0.259-7.12-0.855c-0.042-0.044-0.104,0.008-0.085,0.066c0.337,1.104,1.515,4.282,6.695,2.909
							C229.479,623.128,231.756,618.6,230.342,615.539z"/>
						<path fill="#FF975F" d="M227.793,623.225c-0.017-0.068-0.121-0.105-0.168-0.042c-0.299,0.384-0.391,0.832-0.596,1.275
							c-0.292,0.635-0.754,1.178-1.305,1.6c-0.883,0.675-2.424,0.468-3.447,0.712c-0.606,0.144-0.633,1.121,0,1.246
							c1.595,0.322,2.717-0.48,3.87-1.41C227.014,625.906,228.064,624.388,227.793,623.225z"/>
					</g>
					<g>
						<path fill="#FFD2B2" d="M304.252,729.324c0,0,0.073-31.409,6.827-47.451l-23.641,1.267c0,0-0.729,24.403,7.658,48.509
							L304.252,729.324z"/>
						<g>
							<path fill="#9AB200" d="M304.252,729.324c0,0,4.926,3.613,5.249,9.146c0,0-17.875,14.188-26.818,16.172
								c0,0,5.876-15.078,12.413-22.993L304.252,729.324z"/>
							<path d="M292.498,736.053c-1.219-0.299-3.012,0.238-3.068,1.658c-0.006,0.123,0.102,0.255,0.209,0.301
								c0.745,0.328,1.547,0.319,2.326,0.571c1.257,0.405,2.152,1.402,3.066,2.295c1.104,1.075,2.903-0.605,1.987-1.818
								C295.901,737.579,294.295,736.496,292.498,736.053z"/>
							<path d="M292.959,743.286c-0.915-0.761-2.164-1.233-3.334-1.384c-0.513-0.066-2.806-0.088-2.443,0.99
								c0.245,0.729,1.033,1.137,1.649,1.511c0.71,0.43,1.446,0.809,2.136,1.27c0.704,0.469,1.602,0.506,2.189-0.199
								C293.7,744.825,293.611,743.826,292.959,743.286z"/>
						</g>
						<g>
							<polygon fill="#FFD2B2" points="390.432,650.532 358.363,664.563 360.473,645.145 389.728,642.402 							"/>
							<path fill="#9AB200" d="M386.421,641.709c0,0,4.308-4.329,9.825-3.82c0,0,11.362,19.794,11.984,28.932
								c0,0-14.026-8.063-20.878-15.707L386.421,641.709z"/>
							<path d="M394.088,650.453c-1.191,0.666-1.87,1.81-2.379,3.042c-0.462,1.115-0.98,2.858-0.236,3.923
								c0.308,0.442,1.14,0.429,1.414-0.053c0.478-0.835,0.328-1.915,0.606-2.846c0.325-1.077,0.963-1.944,1.61-2.845
								C395.564,651.034,394.828,650.04,394.088,650.453z"/>
							<path d="M397.391,655.24c-1.528,0.581-2.697,2.657-3.022,4.172c-0.279,1.288,1.678,1.587,2.157,0.494
								c0.288-0.658,0.492-1.316,0.874-1.933c0.356-0.58,0.829-1.07,1.104-1.702C398.814,655.563,398.014,655,397.391,655.24z"/>
						</g>
						<path fill="#00A090" d="M368.072,667.096c0,0,1.267-24.063,1.267-25.752c-10.582-0.409-23.452-2.321-32.082-13.982
							l-48.972,26.546c0,0-6.636,17.594-1.496,52.672c9.861,0.516,20.459-0.896,29.779-2.753l5.868-39.912
							C322.437,663.914,337.666,675.34,368.072,667.096z"/>
						<path fill="#FFC633" d="M282.45,649.551c19.217-6.411,38.77-14.931,53.459-29.276l-6.302-10.143
							c-14.271,13.542-31.477,22.257-50.706,28.869L282.45,649.551z"/>
						<path fill="#FFC633" d="M255.08,612.015l-6.438,4.254c0,0,1.934,15.738,12.979,19.88l3.903-2.989
							C259.395,628.423,256.432,620.165,255.08,612.015z"/>
						<path fill="#FFB700" d="M264.104,606.051l-9.024,5.964c1.352,8.15,4.315,16.408,10.443,21.145l9.073-6.951l4.305,12.793
							c19.229-6.612,36.436-15.327,50.706-28.869l-6.138-9.878l8.648-0.864c-1.208-6.97-1.473-15.492-5.262-21.469
							C315.666,580.634,291.882,587.997,264.104,606.051z"/>
						<path fill="#FFC633" d="M333.686,576.508c0,0-2.45,0.35-6.831,1.413c3.789,5.977,4.054,14.499,5.262,21.469l7.919-0.794
							C340.036,598.596,340.588,585.619,333.686,576.508z"/>
						<path fill="#FFB700" d="M335.91,620.274c-14.689,14.346-34.242,22.865-53.459,29.276l2.086,6.203
							c0,0,25.956,1.103,56.604-27.061L335.91,620.274z"/>
					</g>
				</g>
			</g>
			<g>
				<path fill="#FFC9A3" d="M273.08,593.699l7.447,10.105c0,0,7.943,9.773,17.803-7.196l-0.825-6.624
					C297.505,589.984,276.639,595.274,273.08,593.699z"/>
				<g>
					<g>
						<path fill="#FFD2B2" d="M236.655,542.485c0,0,0.405,22.875,0.144,30.4c-0.442,12.733,7.996,19.656,22.355,22.865
							c14.359,3.206,46.459-1.081,51.214-9.824c4.755-8.746,8.993-16.303,8.993-16.303s8.432,0.617,11.777-9.209
							c3.219-9.453-4.211-15.936-12.237-16.115c-0.321-0.006-1.285,0.012-0.962,0.009c0.962-0.009,3.66-25.589-13.748-29.89
							C286.78,510.118,239.624,503.329,236.655,542.485z"/>
						<path opacity="0.2" fill="#FFD2B2" d="M307.566,580.544c2.321-7.751,4.691-16.018,5-24.129
							c0.583-15.256-13.382-26.168-27.382-27.866c-1.004-0.122-1.709,0.809-1.401,1.746c2.156,6.554-10.523,0.726-12.779,0.095
							c-0.749-0.211-1.658,0.647-1.483,1.41c1.147,4.962-10.262-1.404-12.24-2.176c-3.958-1.545-8.437-0.658-11.788,1.769
							c-4.908,3.553-5.547,11.79-6.588,17.118c-0.812,4.157-1.642,8.379-2.15,12.625c-0.043-8.874-0.101-18.65-0.101-18.65
							c2.969-39.156,50.125-32.367,67.535-28.066c17.396,4.298,14.715,29.842,13.75,29.889c0.183-0.004,0.731-0.013,0.96-0.008
							c8.026,0.18,15.456,6.662,12.237,16.115c-3.345,9.826-11.777,9.209-11.777,9.209s-4.238,7.557-8.993,16.303
							c-1.235,2.271-4.252,4.085-8.275,5.476C304.63,588.33,306.37,584.534,307.566,580.544z"/>
					</g>
					<g>
						<path fill="#383838" d="M289.495,555.514c-1.926-0.343-4.042-0.099-5.502,0.91c-0.567-0.915-0.868-2.153-0.756-3.493
							c0.215-2.62,1.909-4.617,3.78-4.464c1.872,0.156,3.21,2.403,2.994,5.024C289.949,554.229,289.762,554.909,289.495,555.514z"/>
						<path fill="#FFFFFF" d="M283.484,551.624c-0.24,1.176,0.234,2.268,1.059,2.438c0.831,0.172,1.696-0.646,1.938-1.82
							c0.243-1.177-0.231-2.27-1.06-2.438C284.594,549.63,283.727,550.448,283.484,551.624z"/>
						<g>
							
								<ellipse transform="matrix(-0.9746 0.2241 -0.2241 -0.9746 693.836 1044.0603)" opacity="0.1" fill="#FF975F" cx="287.67" cy="561.404" rx="10.247" ry="5.707"/>
							<path fill="#FF975F" d="M297.483,557.52c0,0-9.539-4.358-18.801,2.835C278.682,560.354,286.786,549.907,297.483,557.52z"/>
						</g>
					</g>
					<g>
						<g>
							<path fill="#383838" d="M248.708,556.149c1.763-0.217,3.691,0.141,5.008,1.191c0.531-0.842,0.825-2.006,0.745-3.293
								c-0.155-2.516-1.667-4.523-3.379-4.485c-1.709,0.038-2.968,2.106-2.813,4.622
								C248.313,554.894,248.475,555.554,248.708,556.149z"/>
							<path fill="#FFFFFF" d="M251.455,552.672c-0.211,1.13-0.991,1.908-1.74,1.736c-0.752-0.171-1.189-1.228-0.979-2.358
								c0.21-1.133,0.993-1.911,1.741-1.738C251.23,550.482,251.667,551.54,251.455,552.672z"/>
						</g>
						<g>
							<path opacity="0.1" fill="#FF975F" d="M257.836,563.599c-0.694,2.894-5.767,4.307-10.779,2.771
								c-5.015-1.537-7.308-4.188-6.615-7.081c0.694-2.894,5.934-4.885,9.573-3.71C255.005,557.19,258.531,560.704,257.836,563.599z
								"/>
							<path fill="#FF975F" d="M241.656,557.241c0,0,6.317-3.61,15.344,3.498C257,560.739,250.043,550.64,241.656,557.241z"/>
						</g>
					</g>
					<g>
						<path fill="#FF975F" d="M243.668,569.222c0,0,17.723,6.061,47.745-4.661c0,0-0.162-1.062-3.22-2.933
							c0,0,4.557-0.424,7.104,3.81c2.548,4.23,1.501,5.915,1.501,5.915s-3.713-6.496-3.922-4.678
							C291.285,580.588,268.454,609.842,243.668,569.222z"/>
						<path fill="#FFFFFF" d="M245.743,570.716c0,0,20.272,6.602,45.258-4.386c0,0-1.997,17.548-15.978,21.771
							C261.044,592.325,248.647,577.116,245.743,570.716z"/>
					</g>
				</g>
				<path fill="#6B2308" d="M246.066,524.403c0,0,7.599,4.223,14.354,5.488c6.754,1.268,3.799-4.644,3.799-4.644
					s4.078,1.708,11.82,3.378c7.744,1.669,5.488-3.378,5.488-3.378s16.465,5.066,21.531,6.755
					c5.067,1.689,5.489,17.309,5.489,26.175c0,8.864,3.377,7.177,3.377,7.177l2.533-16.043c0,0,2.463-4.035,7.178-3.8
					c8.443,0.423,11.82,12.243,6.332,19.421c-5.192,6.789-8.606,4.691-8.606,4.691s5.651,4.596,11.983,2.908
					c6.334-1.689-0.421-5.49,3.799-6.334c4.223-0.844-1.688-6.754,1.688-8.021c3.378-1.267-6.332-7.599-5.909-18.998
					c0.421-11.399,1.688-24.907-6.333-31.663c-8.021-6.754-87.39-14.354-93.3,2.533c0,0,0.001,2.111,9.709,0.845
					c9.71-1.267-23.219,6.755-13.086,12.243c10.132,5.488,10.554,0,10.554,0s-10.132,10.132-4.644,15.62
					c0,0,0.573,1.455,5.488-2.533C244.227,532.237,248.177,526.937,246.066,524.403z"/>
				<g>
					<path fill="#FFD2B2" d="M319.332,555.832c0.003-0.007,0.006-0.013,0.008-0.021
						C319.448,555.565,319.543,555.166,319.332,555.832z"/>
					<path fill="#FFD2B2" d="M325.343,558.099c-0.013,0.016-0.024,0.031-0.038,0.048
						C325.339,558.111,325.348,558.099,325.343,558.099z"/>
					<path opacity="0.3" fill="#FFD2B2" d="M325.343,558.099c0.343-0.42,0.51-1.001,0.325-1.719
						c-0.001-0.006-0.002-0.012-0.004-0.02c-0.139-0.537-0.558-1.023-1.073-1.278c-0.597-0.354-1.333-0.505-2.081-0.561
						c-0.034-0.001-0.066-0.006-0.1-0.005c-0.191-0.012-0.383-0.023-0.57-0.027c-0.888-0.278-1.753,0.157-2.321,0.908
						c-0.017,0.021-0.029,0.055-0.041,0.078c-0.066,0.133-0.108,0.27-0.146,0.408c-0.006-0.002-0.01-0.004-0.015-0.006
						c0.006-0.02,0.009-0.029,0.015-0.046c-0.141,0.319-0.281,0.639-0.417,0.958c-0.358,0.83-0.713,1.663-1.014,2.516
						c-0.293,0.824-0.48,1.765-0.008,2.567c0.352,0.599,0.876,0.896,1.441,0.974c0.234,0.296,0.548,0.529,0.962,0.647
						c1.269,0.363,2.098-0.536,2.736-1.517c0.425-0.262,0.807-0.6,1.098-1.055c0.355-0.556,0.512-1.145,0.528-1.738
						c0.013-0.022,0.026-0.045,0.037-0.066c0.139-0.244,0.279-0.488,0.421-0.729c0.035-0.06,0.066-0.097,0.097-0.14
						c0.034-0.032,0.063-0.068,0.093-0.103c-0.012,0.011-0.04,0.036-0.057,0.052C325.305,558.128,325.337,558.098,325.343,558.099z"
						/>
				</g>
			</g>
			<path fill="#00A090" d="M320.916,577.983l-8.256,3.303c0,0-4.674,5.338,2.971,18.216s22.226,14.066,22.226,14.066
				s-9.884-8.52-16.2-19.158C318.998,589.931,318.117,583.431,320.916,577.983z"/>
			<path fill="#00A090" d="M274.681,599.449l-8.256,3.303c0,0-4.674,5.338,2.972,18.216c7.645,12.878,7.761,8.203,7.761,8.203
				S271.882,604.897,274.681,599.449z"/>
		</g>
		<path fill="#BC062C" d="M191.294,562.297l-8.291,10.844c0,0-2.791,2.413,4.855,15.292c7.646,12.877,22.227,14.065,22.227,14.065
			s-9.885-8.52-16.2-19.158C191.226,578.86,188.496,567.745,191.294,562.297z"/>
		<g>
			<g>
				<path fill="#0071BD" d="M125.515,689.983l-20.045,5.395c-15.566,4.188-23.71-7.277-27.899-22.844l-6.74-25.046
					c-4.189-15.566,5.119-31.729,20.686-35.919l4.007-1.078c15.566-4.189,31.729,5.119,35.918,20.685l6.74,25.047
					C142.371,671.789,141.082,685.794,125.515,689.983z"/>
			</g>
			<g>
				<path fill="#FFB136" d="M93.331,671.154l-6.608-24.145c-4.107-15.005,4.507-30.448,19.143-34.317l3.768-0.996
					c1.838-0.486,3.688-0.768,5.526-0.857c-2.495-0.065-5.028,0.208-7.542,0.873l-3.768,0.996
					c-14.636,3.869-23.25,19.313-19.143,34.317l6.608,24.143c3.664,13.388,10.269,23.659,22.042,22.974
					C102.835,693.605,96.781,683.757,93.331,671.154z"/>
				<path fill="#00AEEC" d="M136.7,686.05c11.738-9.652,8.49-22.904,4.383-37.909l-3.911-14.986
					c-3.402-12.429-9.982-22-22.012-22.315c-1.837,0.09-3.688,0.371-5.526,0.857l-3.768,0.996
					c-14.636,3.869-23.25,19.313-19.143,34.317l6.608,24.145c3.45,12.603,9.504,22.451,20.026,22.987
					c1.423-0.083,2.917-0.315,4.496-0.732L136.7,686.05z"/>
			</g>
			<g>
				<path fill="#FFB136" d="M103.634,676.781l-4.484-18.042c-2.788-11.216,5.118-23.32,17.567-26.901l3.205-0.922
					c1.564-0.45,3.128-0.744,4.674-0.893c-2.09,0.059-4.228,0.378-6.367,0.993l-3.205,0.922
					c-12.449,3.581-20.355,15.686-17.567,26.899l4.485,18.044c2.487,10.005,7.577,17.514,17.486,16.478
					C110.623,693.412,105.976,686.201,103.634,676.781z"/>
				<path fill="#0071BD" d="M139.369,686.188c10.272-7.843,8.128-17.764,5.341-28.978l-2.624-11.21
					c-2.309-9.288-7.41-16.267-17.489-15.978c-1.546,0.148-3.11,0.442-4.674,0.893l-3.205,0.922
					c-12.45,3.581-20.355,15.686-17.567,26.901l4.484,18.042c2.341,9.42,6.989,16.631,15.794,16.578
					c1.198-0.127,2.461-0.368,3.805-0.755L139.369,686.188z"/>
			</g>
			<path fill="#FFB136" d="M76.542,660.725l9.518-2.562c0,0,4.506,12.755-0.502,14.102C80.547,673.614,78.93,667.602,76.542,660.725
				z"/>
			<path fill="#0071BD" d="M85.342,616.786h5.032c0,0-1.161-5.419,1.548-8.129l-1.548-1.936
				C90.375,606.722,85.729,607.496,85.342,616.786z"/>
			<polygon fill="#0071BD" points="104.31,609.818 100.826,604.786 100.052,607.108 100.826,610.593 			"/>
		</g>
	</g>
</g>
</svg>
