<?xml version="1.0" encoding="utf-8"?>
<!-- Generator: Adobe Illustrator 16.0.0, SVG Export Plug-In . SVG Version: 6.00 Build 0)  -->
<!DOCTYPE svg PUBLIC "-//W3C//DTD SVG 1.1//EN" "http://www.w3.org/Graphics/SVG/1.1/DTD/svg11.dtd">
<svg version="1.1" id="Layer_1" xmlns="http://www.w3.org/2000/svg" xmlns:xlink="http://www.w3.org/1999/xlink" x="0px" y="0px"
	 width="1196.428px" height="800px" viewBox="0 0 1196.428 800" enable-background="new 0 0 1196.428 800" xml:space="preserve">
<g id="BACKGROUND">
	<rect fill="#77B27A" width="1196.428" height="800"/>
</g>
<g id="OBJECTS">
	<g>
		<g>
			<g>
				<polygon fill="#72AA70" points="31.569,0 0,36.646 31.569,73.292 63.138,36.646 				"/>
				<polygon fill="#72AA70" points="94.53,0 62.961,36.646 94.53,73.292 126.099,36.646 				"/>
				<polygon fill="#72AA70" points="157.49,0 125.921,36.646 157.49,73.292 189.059,36.646 				"/>
				<polygon fill="#72AA70" points="220.451,0 188.883,36.646 220.451,73.292 252.02,36.646 				"/>
				<polygon fill="#72AA70" points="283.412,0 251.842,36.646 283.412,73.292 314.98,36.646 				"/>
				<polygon fill="#72AA70" points="346.373,0 314.803,36.646 346.373,73.292 377.941,36.646 				"/>
				<polygon fill="#72AA70" points="409.332,0 377.764,36.646 409.332,73.292 440.901,36.646 				"/>
				<polygon fill="#72AA70" points="472.293,0 440.725,36.646 472.293,73.292 503.863,36.646 				"/>
				<polygon fill="#72AA70" points="535.254,0 503.685,36.646 535.254,73.292 566.823,36.646 				"/>
				<polygon fill="#72AA70" points="598.214,0 566.646,36.646 598.214,73.292 629.785,36.646 				"/>
				<polygon fill="#72AA70" points="661.176,0 629.605,36.646 661.176,73.292 692.744,36.646 				"/>
				<polygon fill="#72AA70" points="724.136,0 692.567,36.646 724.136,73.292 755.704,36.646 				"/>
				<polygon fill="#72AA70" points="787.095,0 755.528,36.646 787.095,73.292 818.666,36.646 				"/>
				<polygon fill="#72AA70" points="850.057,0 818.488,36.646 850.057,73.292 881.626,36.646 				"/>
				<polygon fill="#72AA70" points="913.017,0 881.449,36.646 913.017,73.292 944.586,36.646 				"/>
				<polygon fill="#72AA70" points="975.979,0 944.409,36.646 975.979,73.292 1007.547,36.646 				"/>
				<polygon fill="#72AA70" points="1038.938,0 1007.371,36.646 1038.938,73.292 1070.507,36.646 				"/>
				<polygon fill="#72AA70" points="1101.899,0 1070.331,36.646 1101.899,73.292 1133.469,36.646 				"/>
				<polygon fill="#72AA70" points="1164.861,0 1133.29,36.646 1164.861,73.292 1196.428,36.646 				"/>
			</g>
			<g>
				<polygon fill="#72AA70" points="31.569,72.838 0,109.484 31.569,146.13 63.138,109.484 				"/>
				<polygon fill="#72AA70" points="94.53,72.838 62.961,109.484 94.53,146.13 126.099,109.484 				"/>
				<polygon fill="#72AA70" points="157.49,72.838 125.921,109.484 157.49,146.13 189.059,109.484 				"/>
				<polygon fill="#72AA70" points="220.451,72.838 188.883,109.484 220.451,146.13 252.02,109.484 				"/>
				<polygon fill="#72AA70" points="283.412,72.838 251.842,109.484 283.412,146.13 314.98,109.484 				"/>
				<polygon fill="#72AA70" points="346.373,72.838 314.803,109.484 346.373,146.13 377.941,109.484 				"/>
				<polygon fill="#72AA70" points="409.332,72.838 377.764,109.484 409.332,146.13 440.901,109.484 				"/>
				<polygon fill="#72AA70" points="472.293,72.838 440.725,109.484 472.293,146.13 503.863,109.484 				"/>
				<polygon fill="#72AA70" points="535.254,72.838 503.685,109.484 535.254,146.13 566.823,109.484 				"/>
				<polygon fill="#72AA70" points="598.214,72.838 566.646,109.484 598.214,146.13 629.785,109.484 				"/>
				<polygon fill="#72AA70" points="661.176,72.838 629.605,109.484 661.176,146.13 692.744,109.484 				"/>
				<polygon fill="#72AA70" points="724.136,72.838 692.567,109.484 724.136,146.13 755.704,109.484 				"/>
				<polygon fill="#72AA70" points="787.095,72.838 755.528,109.484 787.095,146.13 818.666,109.484 				"/>
				<polygon fill="#72AA70" points="850.057,72.838 818.488,109.484 850.057,146.13 881.626,109.484 				"/>
				<polygon fill="#72AA70" points="913.017,72.838 881.449,109.484 913.017,146.13 944.586,109.484 				"/>
				<polygon fill="#72AA70" points="975.979,72.838 944.409,109.484 975.979,146.13 1007.547,109.484 				"/>
				<polygon fill="#72AA70" points="1038.938,72.838 1007.371,109.484 1038.938,146.13 1070.507,109.484 				"/>
				<polygon fill="#72AA70" points="1101.899,72.838 1070.331,109.484 1101.899,146.13 1133.469,109.484 				"/>
				<polygon fill="#72AA70" points="1164.861,72.838 1133.29,109.484 1164.861,146.13 1196.428,109.484 				"/>
			</g>
			<g>
				<polygon fill="#72AA70" points="31.569,145.677 0,182.323 31.569,218.968 63.138,182.323 				"/>
				<polygon fill="#72AA70" points="94.53,145.677 62.961,182.323 94.53,218.968 126.099,182.323 				"/>
				<polygon fill="#72AA70" points="157.49,145.677 125.921,182.323 157.49,218.968 189.059,182.323 				"/>
				<polygon fill="#72AA70" points="220.451,145.677 188.883,182.323 220.451,218.968 252.02,182.323 				"/>
				<polygon fill="#72AA70" points="283.412,145.677 251.842,182.323 283.412,218.968 314.98,182.323 				"/>
				<polygon fill="#72AA70" points="346.373,145.677 314.803,182.323 346.373,218.968 377.941,182.323 				"/>
				<polygon fill="#72AA70" points="409.332,145.677 377.764,182.323 409.332,218.968 440.901,182.323 				"/>
				<polygon fill="#72AA70" points="472.293,145.677 440.725,182.323 472.293,218.968 503.863,182.323 				"/>
				<polygon fill="#72AA70" points="535.254,145.677 503.685,182.323 535.254,218.968 566.823,182.323 				"/>
				<polygon fill="#72AA70" points="598.214,145.677 566.646,182.323 598.214,218.968 629.785,182.323 				"/>
				<polygon fill="#72AA70" points="661.176,145.677 629.605,182.323 661.176,218.968 692.744,182.323 				"/>
				<polygon fill="#72AA70" points="724.136,145.677 692.567,182.323 724.136,218.968 755.704,182.323 				"/>
				<polygon fill="#72AA70" points="787.095,145.677 755.528,182.323 787.095,218.968 818.666,182.323 				"/>
				<polygon fill="#72AA70" points="850.057,145.677 818.488,182.323 850.057,218.968 881.626,182.323 				"/>
				<polygon fill="#72AA70" points="913.017,145.677 881.449,182.323 913.017,218.968 944.586,182.323 				"/>
				<polygon fill="#72AA70" points="975.979,145.677 944.409,182.323 975.979,218.968 1007.547,182.323 				"/>
				<polygon fill="#72AA70" points="1038.938,145.677 1007.371,182.323 1038.938,218.968 1070.507,182.323 				"/>
				<polygon fill="#72AA70" points="1101.899,145.677 1070.331,182.323 1101.899,218.968 1133.469,182.323 				"/>
				<polygon fill="#72AA70" points="1164.861,145.677 1133.29,182.323 1164.861,218.968 1196.428,182.323 				"/>
			</g>
			<g>
				<polygon fill="#72AA70" points="31.569,218.516 0,255.162 31.569,291.807 63.138,255.162 				"/>
				<polygon fill="#72AA70" points="94.53,218.516 62.961,255.162 94.53,291.807 126.099,255.162 				"/>
				<polygon fill="#72AA70" points="157.49,218.516 125.921,255.162 157.49,291.807 189.059,255.162 				"/>
				<polygon fill="#72AA70" points="220.451,218.516 188.883,255.162 220.451,291.807 252.02,255.162 				"/>
				<polygon fill="#72AA70" points="283.412,218.516 251.842,255.162 283.412,291.807 314.98,255.162 				"/>
				<polygon fill="#72AA70" points="346.373,218.516 314.803,255.162 346.373,291.807 377.941,255.162 				"/>
				<polygon fill="#72AA70" points="409.332,218.516 377.764,255.162 409.332,291.807 440.901,255.162 				"/>
				<polygon fill="#72AA70" points="472.293,218.516 440.725,255.162 472.293,291.807 503.863,255.162 				"/>
				<polygon fill="#72AA70" points="535.254,218.516 503.685,255.162 535.254,291.807 566.823,255.162 				"/>
				<polygon fill="#72AA70" points="598.214,218.516 566.646,255.162 598.214,291.807 629.785,255.162 				"/>
				<polygon fill="#72AA70" points="661.176,218.516 629.605,255.162 661.176,291.807 692.744,255.162 				"/>
				<polygon fill="#72AA70" points="724.136,218.516 692.567,255.162 724.136,291.807 755.704,255.162 				"/>
				<polygon fill="#72AA70" points="787.095,218.516 755.528,255.162 787.095,291.807 818.666,255.162 				"/>
				<polygon fill="#72AA70" points="850.057,218.516 818.488,255.162 850.057,291.807 881.626,255.162 				"/>
				<polygon fill="#72AA70" points="913.017,218.516 881.449,255.162 913.017,291.807 944.586,255.162 				"/>
				<polygon fill="#72AA70" points="975.979,218.516 944.409,255.162 975.979,291.807 1007.547,255.162 				"/>
				<polygon fill="#72AA70" points="1038.938,218.516 1007.371,255.162 1038.938,291.807 1070.507,255.162 				"/>
				<polygon fill="#72AA70" points="1101.899,218.516 1070.331,255.162 1101.899,291.807 1133.469,255.162 				"/>
				<polygon fill="#72AA70" points="1164.861,218.516 1133.29,255.162 1164.861,291.807 1196.428,255.162 				"/>
			</g>
			<g>
				<polygon fill="#72AA70" points="31.569,291.354 0,328 31.569,364.646 63.138,328 				"/>
				<polygon fill="#72AA70" points="94.53,291.354 62.961,328 94.53,364.646 126.099,328 				"/>
				<polygon fill="#72AA70" points="157.49,291.354 125.921,328 157.49,364.646 189.059,328 				"/>
				<polygon fill="#72AA70" points="220.451,291.354 188.883,328 220.451,364.646 252.02,328 				"/>
				<polygon fill="#72AA70" points="283.412,291.354 251.842,328 283.412,364.646 314.98,328 				"/>
				<polygon fill="#72AA70" points="346.373,291.354 314.803,328 346.373,364.646 377.941,328 				"/>
				<polygon fill="#72AA70" points="409.332,291.354 377.764,328 409.332,364.646 440.901,328 				"/>
				<polygon fill="#72AA70" points="472.293,291.354 440.725,328 472.293,364.646 503.863,328 				"/>
				<polygon fill="#72AA70" points="535.254,291.354 503.685,328 535.254,364.646 566.823,328 				"/>
				<polygon fill="#72AA70" points="598.214,291.354 566.646,328 598.214,364.646 629.785,328 				"/>
				<polygon fill="#72AA70" points="661.176,291.354 629.605,328 661.176,364.646 692.744,328 				"/>
				<polygon fill="#72AA70" points="724.136,291.354 692.567,328 724.136,364.646 755.704,328 				"/>
				<polygon fill="#72AA70" points="787.095,291.354 755.528,328 787.095,364.646 818.666,328 				"/>
				<polygon fill="#72AA70" points="850.057,291.354 818.488,328 850.057,364.646 881.626,328 				"/>
				<polygon fill="#72AA70" points="913.017,291.354 881.449,328 913.017,364.646 944.586,328 				"/>
				<polygon fill="#72AA70" points="975.979,291.354 944.409,328 975.979,364.646 1007.547,328 				"/>
				<polygon fill="#72AA70" points="1038.938,291.354 1007.371,328 1038.938,364.646 1070.507,328 				"/>
				<polygon fill="#72AA70" points="1101.899,291.354 1070.331,328 1101.899,364.646 1133.469,328 				"/>
				<polygon fill="#72AA70" points="1164.861,291.354 1133.29,328 1164.861,364.646 1196.428,328 				"/>
			</g>
			<g>
				<polygon fill="#72AA70" points="31.569,364.193 0,400.838 31.569,437.484 63.138,400.838 				"/>
				<polygon fill="#72AA70" points="94.53,364.193 62.961,400.838 94.53,437.484 126.099,400.838 				"/>
				<polygon fill="#72AA70" points="157.49,364.193 125.921,400.838 157.49,437.484 189.059,400.838 				"/>
				<polygon fill="#72AA70" points="220.451,364.193 188.883,400.838 220.451,437.484 252.02,400.838 				"/>
				<polygon fill="#72AA70" points="283.412,364.193 251.842,400.838 283.412,437.484 314.98,400.838 				"/>
				<polygon fill="#72AA70" points="346.373,364.193 314.803,400.838 346.373,437.484 377.941,400.838 				"/>
				<polygon fill="#72AA70" points="409.332,364.193 377.764,400.838 409.332,437.484 440.901,400.838 				"/>
				<polygon fill="#72AA70" points="472.293,364.193 440.725,400.838 472.293,437.484 503.863,400.838 				"/>
				<polygon fill="#72AA70" points="535.254,364.193 503.685,400.838 535.254,437.484 566.823,400.838 				"/>
				<polygon fill="#72AA70" points="598.214,364.193 566.646,400.838 598.214,437.484 629.785,400.838 				"/>
				<polygon fill="#72AA70" points="661.176,364.193 629.605,400.838 661.176,437.484 692.744,400.838 				"/>
				<polygon fill="#72AA70" points="724.136,364.193 692.567,400.838 724.136,437.484 755.704,400.838 				"/>
				<polygon fill="#72AA70" points="787.095,364.193 755.528,400.838 787.095,437.484 818.666,400.838 				"/>
				<polygon fill="#72AA70" points="850.057,364.193 818.488,400.838 850.057,437.484 881.626,400.838 				"/>
				<polygon fill="#72AA70" points="913.017,364.193 881.449,400.838 913.017,437.484 944.586,400.838 				"/>
				<polygon fill="#72AA70" points="975.979,364.193 944.409,400.838 975.979,437.484 1007.547,400.838 				"/>
				<polygon fill="#72AA70" points="1038.938,364.193 1007.371,400.838 1038.938,437.484 1070.507,400.838 				"/>
				<polygon fill="#72AA70" points="1101.899,364.193 1070.331,400.838 1101.899,437.484 1133.469,400.838 				"/>
				<polygon fill="#72AA70" points="1164.861,364.193 1133.29,400.838 1164.861,437.484 1196.428,400.838 				"/>
			</g>
			<g>
				<polygon fill="#72AA70" points="31.569,437.031 0,473.677 31.569,510.323 63.138,473.677 				"/>
				<polygon fill="#72AA70" points="94.53,437.031 62.961,473.677 94.53,510.323 126.099,473.677 				"/>
				<polygon fill="#72AA70" points="157.49,437.031 125.921,473.677 157.49,510.323 189.059,473.677 				"/>
				<polygon fill="#72AA70" points="220.451,437.031 188.883,473.677 220.451,510.323 252.02,473.677 				"/>
				<polygon fill="#72AA70" points="283.412,437.031 251.842,473.677 283.412,510.323 314.98,473.677 				"/>
				<polygon fill="#72AA70" points="346.373,437.031 314.803,473.677 346.373,510.323 377.941,473.677 				"/>
				<polygon fill="#72AA70" points="409.332,437.031 377.764,473.677 409.332,510.323 440.901,473.677 				"/>
				<polygon fill="#72AA70" points="472.293,437.031 440.725,473.677 472.293,510.323 503.863,473.677 				"/>
				<polygon fill="#72AA70" points="535.254,437.031 503.685,473.677 535.254,510.323 566.823,473.677 				"/>
				<polygon fill="#72AA70" points="598.214,437.031 566.646,473.677 598.214,510.323 629.785,473.677 				"/>
				<polygon fill="#72AA70" points="661.176,437.031 629.605,473.677 661.176,510.323 692.744,473.677 				"/>
				<polygon fill="#72AA70" points="724.136,437.031 692.567,473.677 724.136,510.323 755.704,473.677 				"/>
				<polygon fill="#72AA70" points="787.095,437.031 755.528,473.677 787.095,510.323 818.666,473.677 				"/>
				<polygon fill="#72AA70" points="850.057,437.031 818.488,473.677 850.057,510.323 881.626,473.677 				"/>
				<polygon fill="#72AA70" points="913.017,437.031 881.449,473.677 913.017,510.323 944.586,473.677 				"/>
				<polygon fill="#72AA70" points="975.979,437.031 944.409,473.677 975.979,510.323 1007.547,473.677 				"/>
				<polygon fill="#72AA70" points="1038.938,437.031 1007.371,473.677 1038.938,510.323 1070.507,473.677 				"/>
				<polygon fill="#72AA70" points="1101.899,437.031 1070.331,473.677 1101.899,510.323 1133.469,473.677 				"/>
				<polygon fill="#72AA70" points="1164.861,437.031 1133.29,473.677 1164.861,510.323 1196.428,473.677 				"/>
			</g>
			<g>
				<polygon fill="#72AA70" points="31.569,509.87 0,546.516 31.569,583.161 63.138,546.516 				"/>
				<polygon fill="#72AA70" points="94.53,509.87 62.961,546.516 94.53,583.161 126.099,546.516 				"/>
				<polygon fill="#72AA70" points="157.49,509.87 125.921,546.516 157.49,583.161 189.059,546.516 				"/>
				<polygon fill="#72AA70" points="220.451,509.87 188.883,546.516 220.451,583.161 252.02,546.516 				"/>
				<polygon fill="#72AA70" points="283.412,509.87 251.842,546.516 283.412,583.161 314.98,546.516 				"/>
				<polygon fill="#72AA70" points="346.373,509.87 314.803,546.516 346.373,583.161 377.941,546.516 				"/>
				<polygon fill="#72AA70" points="409.332,509.87 377.764,546.516 409.332,583.161 440.901,546.516 				"/>
				<polygon fill="#72AA70" points="472.293,509.87 440.725,546.516 472.293,583.161 503.863,546.516 				"/>
				<polygon fill="#72AA70" points="535.254,509.87 503.685,546.516 535.254,583.161 566.823,546.516 				"/>
				<polygon fill="#72AA70" points="598.214,509.87 566.646,546.516 598.214,583.161 629.785,546.516 				"/>
				<polygon fill="#72AA70" points="661.176,509.87 629.605,546.516 661.176,583.161 692.744,546.516 				"/>
				<polygon fill="#72AA70" points="724.136,509.87 692.567,546.516 724.136,583.161 755.704,546.516 				"/>
				<polygon fill="#72AA70" points="787.095,509.87 755.528,546.516 787.095,583.161 818.666,546.516 				"/>
				<polygon fill="#72AA70" points="850.057,509.87 818.488,546.516 850.057,583.161 881.626,546.516 				"/>
				<polygon fill="#72AA70" points="913.017,509.87 881.449,546.516 913.017,583.161 944.586,546.516 				"/>
				<polygon fill="#72AA70" points="975.979,509.87 944.409,546.516 975.979,583.161 1007.547,546.516 				"/>
				<polygon fill="#72AA70" points="1038.938,509.87 1007.371,546.516 1038.938,583.161 1070.507,546.516 				"/>
				<polygon fill="#72AA70" points="1101.899,509.87 1070.331,546.516 1101.899,583.161 1133.469,546.516 				"/>
				<polygon fill="#72AA70" points="1164.861,509.87 1133.29,546.516 1164.861,583.161 1196.428,546.516 				"/>
			</g>
			<g>
				<polygon fill="#72AA70" points="31.569,582.709 0,619.354 31.569,656 63.138,619.354 				"/>
				<polygon fill="#72AA70" points="94.53,582.709 62.961,619.354 94.53,656 126.099,619.354 				"/>
				<polygon fill="#72AA70" points="157.49,582.709 125.921,619.354 157.49,656 189.059,619.354 				"/>
				<polygon fill="#72AA70" points="220.451,582.709 188.883,619.354 220.451,656 252.02,619.354 				"/>
				<polygon fill="#72AA70" points="283.412,582.709 251.842,619.354 283.412,656 314.98,619.354 				"/>
				<polygon fill="#72AA70" points="346.373,582.709 314.803,619.354 346.373,656 377.941,619.354 				"/>
				<polygon fill="#72AA70" points="409.332,582.709 377.764,619.354 409.332,656 440.901,619.354 				"/>
				<polygon fill="#72AA70" points="472.293,582.709 440.725,619.354 472.293,656 503.863,619.354 				"/>
				<polygon fill="#72AA70" points="535.254,582.709 503.685,619.354 535.254,656 566.823,619.354 				"/>
				<polygon fill="#72AA70" points="598.214,582.709 566.646,619.354 598.214,656 629.785,619.354 				"/>
				<polygon fill="#72AA70" points="661.176,582.709 629.605,619.354 661.176,656 692.744,619.354 				"/>
				<polygon fill="#72AA70" points="724.136,582.709 692.567,619.354 724.136,656 755.704,619.354 				"/>
				<polygon fill="#72AA70" points="787.095,582.709 755.528,619.354 787.095,656 818.666,619.354 				"/>
				<polygon fill="#72AA70" points="850.057,582.709 818.488,619.354 850.057,656 881.626,619.354 				"/>
				<polygon fill="#72AA70" points="913.017,582.709 881.449,619.354 913.017,656 944.586,619.354 				"/>
				<polygon fill="#72AA70" points="975.979,582.709 944.409,619.354 975.979,656 1007.547,619.354 				"/>
				<polygon fill="#72AA70" points="1038.938,582.709 1007.371,619.354 1038.938,656 1070.507,619.354 				"/>
				<polygon fill="#72AA70" points="1101.899,582.709 1070.331,619.354 1101.899,656 1133.469,619.354 				"/>
				<polygon fill="#72AA70" points="1164.861,582.709 1133.29,619.354 1164.861,656 1196.428,619.354 				"/>
			</g>
		</g>
		<polygon fill="#DC9D56" points="0.177,800 694.756,800 1196.428,800 1196.428,733.368 1196.428,656.995 0.177,656.995 
			0.177,742.524 		"/>
		<path fill="#E1AB5B" d="M0.177,693.217v56.08v33.398c388.559,11.059,827.717,6.999,1196.251-4.992V741.47v-50.662
			C775.205,682.035,349.399,685.896,0.177,693.217z"/>
		<path fill="#E3BC6F" d="M0.177,698.404v44.12v24.169c425.071,14.986,871.851,7.992,1196.251-1.869v-31.456v-39.75
			C819.499,674.45,348.266,681.091,0.177,698.404z"/>
		<polygon fill="#FFFFFF" points="0.177,652.253 694.756,652.253 1196.428,652.253 1196.428,663.455 1196.428,677.039 
			0.177,677.039 0.177,667.43 		"/>
		<polygon fill="#577B5F" points="0.177,652.253 694.756,652.253 1196.428,652.253 1196.428,650.321 1196.428,649.688 
			0.177,649.688 0.177,649.636 		"/>
		<polygon fill="#D4D6D3" points="0.177,654.817 694.756,654.817 1196.428,653.962 1196.428,655.895 1196.428,658.236 
			0.177,658.236 0.177,656.579 		"/>
		<g>
			<ellipse fill="#DC9D56" cx="801.643" cy="730.979" rx="102.192" ry="7.569"/>
			<ellipse fill="#DC9D56" cx="1027.653" cy="730.979" rx="102.19" ry="7.569"/>
			<g>
				<polygon fill="#982003" points="861.125,670.385 872.209,585.396 810.317,585.396 802.588,670.385 				"/>
				<polygon fill="#CC470D" points="853.735,670.385 864.82,585.396 802.927,585.396 795.198,670.385 				"/>
				<rect x="828.792" y="670.385" fill="#982003" width="32.18" height="11.352"/>
				<rect x="850.756" y="681.735" fill="#982003" width="10.216" height="49.616"/>
				<rect x="775.474" y="670.385" fill="#CC470D" width="61.479" height="11.352"/>
				<rect x="775.474" y="681.735" fill="#982003" width="10.216" height="49.616"/>
				<rect x="826.739" y="681.735" fill="#982003" width="10.215" height="49.616"/>
				<rect x="716.555" y="626.967" fill="#982003" width="178.287" height="7.392"/>
				<rect x="723.945" y="634.357" fill="#CC470D" width="163.506" height="24.94"/>
				<rect x="848.192" y="634.357" fill="#BD3D0D" width="39.26" height="24.94"/>
				<rect x="723.483" y="659.299" fill="#982003" width="8.313" height="72.055"/>
				<rect x="878.676" y="659.299" fill="#8A1B03" width="8.314" height="72.055"/>
				<rect x="848.192" y="659.299" fill="#8A1B03" width="8.313" height="72.055"/>
			</g>
			<g>
				<polygon fill="#982003" points="1085.995,670.385 1097.081,585.396 1035.188,585.396 1027.458,670.385 				"/>
				<polygon fill="#CC470D" points="1078.605,670.385 1089.689,585.396 1027.797,585.396 1020.068,670.385 				"/>
				<rect x="1053.663" y="670.385" fill="#982003" width="32.18" height="11.352"/>
				<rect x="1075.626" y="681.735" fill="#982003" width="10.216" height="49.616"/>
				<rect x="1000.344" y="670.385" fill="#CC470D" width="61.479" height="11.352"/>
				<rect x="1000.344" y="681.735" fill="#982003" width="10.216" height="49.616"/>
				<rect x="1051.609" y="681.735" fill="#982003" width="10.215" height="49.616"/>
				<rect x="941.425" y="626.967" fill="#982003" width="178.287" height="7.392"/>
				<rect x="948.815" y="634.357" fill="#CC470D" width="163.507" height="24.94"/>
				<rect x="1073.063" y="634.357" fill="#BD3D0D" width="39.26" height="24.94"/>
				<rect x="948.354" y="659.299" fill="#982003" width="8.313" height="72.055"/>
				<rect x="1103.546" y="659.299" fill="#8A1B03" width="8.314" height="72.055"/>
				<rect x="1073.063" y="659.299" fill="#8A1B03" width="8.313" height="72.055"/>
			</g>
		</g>
	</g>
</g>
<g id="DESIGNED_BY_FREEPIK">
</g>
</svg>
