<?xml version="1.0" encoding="utf-8"?>
<!-- Generator: Adobe Illustrator 16.0.0, SVG Export Plug-In . SVG Version: 6.00 Build 0)  -->
<!DOCTYPE svg PUBLIC "-//W3C//DTD SVG 1.1//EN" "http://www.w3.org/Graphics/SVG/1.1/DTD/svg11.dtd">
<svg version="1.1" xmlns="http://www.w3.org/2000/svg" xmlns:xlink="http://www.w3.org/1999/xlink" x="0px" y="0px"
	 width="559.074px" height="358.327px" viewBox="0 0 559.074 358.327" enable-background="new 0 0 559.074 358.327"
	 xml:space="preserve">
<g id="BACKGROUND">
</g>
<g id="OBJECTS">
	<g>
		<path fill="#578667" d="M23.156,14.201c-5.962,4.77-7.155,3.577-8.347,10.732s16.694,264.729,26.234,298.119
			c0,0-27.427,26.137-26.234,32.1c1.192,5.961,513.956,2.346,519.918-1.23c5.962-3.578-22.657-29.678-22.657-29.678
			s21.465-121.632,26.234-211.067c4.771-89.436,4.771-102.553-7.154-103.745S23.156,14.201,23.156,14.201z"/>
		<g>
			<g>
				<polygon fill="#DF9031" points="0,340.585 40.464,323.417 521.309,323.417 559.074,342.493 				"/>
				<path fill="#B86D1B" d="M524.108,327.53c-28.054,5.082-56.093,9.354-84.263,12.17l109.148,0.373l-24.848-12.551
					C524.134,327.526,524.121,327.528,524.108,327.53z"/>
				<path fill="#B86D1B" d="M130.479,324.243l-50.084,5.963c0,0,21.464,8.348,21.028,8.34l70.702,0.24
					C158.676,335.218,143.464,329.362,130.479,324.243z"/>
				<polyline fill="#9F5214" points="0,340.585 2.698,349.325 555.703,346.782 559.074,342.493 0,340.585 				"/>
				<path fill="#F5AE4C" d="M40.464,323.417c0,0-22.716-202.829-20.268-313.813c0.02-0.877,0.757-1.584,1.687-1.622
					C47.321,6.947,360.675-5.492,532.447,2.881c0.94,0.046,1.672,0.777,1.668,1.666c-0.093,19.202-1.293,208.506-12.807,318.87
					H40.464z"/>
				<path fill="#DF9031" d="M528.736,59.391c-1.071,67.591-3.972,181.732-11.735,259.257H44.74
					c-1.262-11.664-5.046-47.447-8.985-92.615c-1.252-4.454-2.433-8.924-3.545-13.409c4.595,54.581,9.3,98.433,10.391,108.409
					h476.557c8.178-80.014,11.055-199.706,12.057-267.253C530.374,55.643,529.549,57.514,528.736,59.391z"/>
				<path fill="#DF9031" d="M393.396,4.779c7.525-0.801,15.055-1.561,22.587-2.295c-10.251-0.066-20.821-0.099-31.71-0.099
					c-42.46,0-86.243,0.495-128.086,1.24c-8.804,0.875-17.597,1.843-26.379,2.896c49.6-1.02,103.058-1.751,154.465-1.751
					C387.344,4.77,390.376,4.774,393.396,4.779z"/>
				<path fill="#9A5409" d="M46.55,317.06c-3.572-33.174-21.264-203.252-19.694-302.913c35.006-1.388,204.759-7.789,357.42-7.789
					c56.621,0,104.721,0.891,143.07,2.648c-0.224,34.822-1.822,203.36-12.166,308.053H46.55z"/>
				<path fill="#395A4B" d="M48.988,314.517c-4.023-37.652-20.694-200.238-19.469-297.929c38.317-1.502,205.23-7.686,354.756-7.686
					c55.281,0,102.482,0.85,140.356,2.528c-0.27,37.907-1.985,200.436-11.913,303.086H48.988z"/>
				<g>
					<path fill="#3A5255" d="M468.309,268.921l-4.354-6.639l-2.159,6.805C462.493,271.468,466.582,273.081,468.309,268.921z"/>
					<path fill="#3A5255" d="M473.188,265.325c1.588-0.342,3.02-0.863,4.313-1.549l-3.512-4.184
						C472.859,261.124,471.865,262.948,473.188,265.325z"/>
					<path fill="#3A5255" d="M470.298,276.599c-2.14-0.824-1.441-3.201-1.632-4.586c-3.37,5.311-6.409,13.396-0.653,18.201
						c1.945-8.475,4.251-6.291,6.025-16.15c3.728-2.541,8.021-0.926,8.403,1.832c0.327-1.105,1.899-1.447,3.51-2.049l-4.429-5.277
						C477.301,269.319,473.482,272.071,470.298,276.599z"/>
					<path fill="#3A5255" d="M478.979,262.886c-0.468,0.326-0.966,0.618-1.479,0.891l4.022,4.793
						c0.674-0.119,1.357-0.193,2.051-0.209L478.979,262.886z"/>
					<path fill="#3A5255" d="M467.006,127.82c1.811-0.984,2.304-1.996,2.133-2.643C467.585,126.384,466.331,127.424,467.006,127.82z
						"/>
					<path fill="#3A5255" d="M440.387,225.717c1.018,2.607,0.83,4.542-0.082,6.164c0.821,0.846,2.017,1.635,3.783,2.397
						C445.712,232.997,441.775,228.167,440.387,225.717z"/>
					<path fill="#3A5255" d="M477.015,247.977c-0.052,0.321-0.1,0.628-0.117,0.882C476.935,248.563,476.975,248.271,477.015,247.977
						z"/>
					<path fill="#3A5255" d="M147.419,20.833c0.256,0.366,0.526,0.493,0.776,0.782C148.135,20.8,147.943,20.372,147.419,20.833z"/>
					<path fill="#3A5255" d="M72.94,83.525l1.182-0.915c-0.352-1.128-0.691-2.241-1.174-3.28L72.94,83.525z"/>
					<path fill="#3A5255" d="M405.626,147.828c-0.601-0.173-1.248-0.177-1.868-0.258c-0.56,0.528-1.239,1.106-1.824,1.637
						C403.167,148.749,404.383,148.267,405.626,147.828z"/>
					<path fill="#3A5255" d="M365.526,119.265c-2.89,0.852-5.728,1.791-8.594,2.699c3.105,0.498,5.771,0.146,8.282-0.559
						C365.371,120.708,365.644,120.05,365.526,119.265z"/>
					<path fill="#3A5255" d="M451.92,284.104l1.574-0.085C453.076,283.78,452.555,283.76,451.92,284.104z"/>
					<g>
						<path fill="#396250" d="M490.051,110.409c-2.144,4.105-4.062,8.496-11.796,10.26c1.812,1.057,4.271,3.777,3.332,7.376
							c-1.067-2.634-1.588-6.068-2.875-6.672c-0.421,4.21-5.235,7.506-10.135,10.973c-0.756,0.55-1.514,1.102-2.259,1.659
							c-3.277-2.111-4.175-6.037-1.104-8.734c2.219-1.217,3.667-0.945,3.924-0.093c2.726-2.234,6.36-5.062,1.413-5.981l-0.202,2.945
							c-4.338-0.259-12.686,3.033-16.15,2.596c4.435-1.958,8.869-3.903,13.286-5.842c6.475-2.811,12.854-5.746,18.993-9.076
							l-2.514-5.132c0.604-0.536,1.207-1.112,1.812-1.72L467.38,65.416c-0.622,0.504-1.248,1.035-1.88,1.582l-3.104-6.336
							c-4.957,3.339-9.703,6.914-14.14,10.859c0.941-2.457-0.087-4.383,2.842-6.003c-2.228-0.26-4.815,0.418-7.404,1.647
							c-2.569,1.266-5.139,3.08-7.361,5.038c-4.445,3.921-7.492,8.399-6.43,10.293c-4.802,2.344-3.057-2.705-6.998-2.877
							c-3.917,0.555-6.953,4.374-9.739,7.728c-2.789,3.357-5.278,6.344-8.318,5.134c-0.639-0.235-0.145-1.188,0.536-2.123
							c-2.015,1.999-5.608,4.197-8.432,6.241c-2.243,1.61-3.961,3.163-4.033,4.418c-2.796,2.371-5.292,5.357-8.156,6.022
							l-0.849-3.406c-3.747,2.13-6.3,4.272-8.298,6.372c-2.001,2.093-3.45,4.14-4.954,6.154c-1.211,1.621-2.465,3.22-4.065,4.807
							c-0.456,0.157-0.91,0.317-1.382,0.441c-0.066,0.376-0.167,0.734-0.283,1.084c-2.172,1.83-4.932,3.688-8.808,5.579l2.264,1.114
							c-1.069,0.641-2.171,1.247-3.233,1.85c-2.149,1.222-4.132,2.436-5.335,3.91c-0.018,0.022-0.032,0.047-0.05,0.07
							c-1.7-0.073-3.467,0.351-5.338,2.901c-0.722,0.02-1.485,0.148-2.278,0.361l-5.5-5.04c-2.519,2.621-6.851,7.491-11.751,12.592
							c-2.728,1.571-5.758,3.6-8.634,5.762l8.135-5.245c-2.684,2.779-5.519,5.602-8.319,8.156c-0.577-0.309-0.948-0.924-0.945-2.06
							c-0.826,0.661-1.629,1.334-2.399,2.011c1.646-3.018,3.905-6.072,6.353-9.044c3.417-4.069,7.144-7.995,9.968-11.516
							c1.792-1.259,3.5-2.545,5.135-3.852c2.385-1.808,4.616-3.673,6.738-5.586c4.246-3.823,8.022-7.889,11.845-11.838
							c1.893-2.003,3.758-4.035,5.634-6.086c1.885-2.038,3.743-4.156,5.745-6.132c1.627-1.646,3.303-3.296,5.021-4.943
							c1.229-0.398,2.464-0.787,3.706-1.16c4.99-1.445,10.052-2.814,15.178-3.975c-2.354-0.131-4.001-0.981-5.008-2.157
							c4.334-0.643,9.04-2.218,14.03-4.358l-17.815-47.803c-4.479,0.539-9.241,1.365-14.14,2.303
							c-1.541,0.304-3.101,0.612-4.667,0.921c-0.004-0.013-0.006-0.024-0.009-0.037c-0.004,0.015-0.011,0.027-0.015,0.042
							c-0.913,0.181-1.826,0.361-2.746,0.542c-2.485,0.568-4.988,1.141-7.488,1.712c-5.001,1.135-10.02,2.157-14.894,3.023
							c-4.851,0.949-9.584,1.649-14.084,1.921c4.284,0.584,1.527,7.424-2.526,9.626c-3.167-0.104-6.591,2.844-9.45,4.607
							c-2.855,1.783-5.147,2.474-6.089-1.896l2.09-0.498c-3.496-3.432-8.068-3.689-12.877-2.61
							c-4.792,1.134-9.844,3.488-14.461,5.008l2.505,11.457c-3.691-0.969-7.363-1.106-11.039-0.767
							c-3.676,0.342-7.345,1.188-10.97,2.362c-0.801,0.249-1.594,0.531-2.383,0.824c-0.684-3.326,2.066-5.44-4.216-5.926
							c0.75-3.189,1.236-6.669,3.302-9.107c3.223,0.205,6.468,0.153,9.461,0.092c-0.252,2.046-0.498,4.097-0.737,6.137
							c2.824-0.85,4.764-1.833,6.157-2.927c1.193-0.941,1.983-1.961,2.596-2.989c1.951,0.241,3.532,0.683,4.569,1.501
							c2.022-1.938,4.263-3.854,6.624-5.787L264.331,12.6c-1.646,0.773-3.32,1.561-5.001,2.351l-0.42-0.928
							c-4.603,0.447-5.85,2.068-6.315,4.115c-2.878,1.4-5.668,2.923-8.31,4.507l-1.121-1.083c-3.622,2.703-7.191,5.69-10.746,8.83
							c-2.969,2.64-5.865,5.483-8.794,8.333c-1.304-0.796-2.439-1.992-3.562-2.481c2.192-2.116,5.365-3.209,6.199-5.298
							c-2.02,1.563-4.665,3.119-7.511,4.641c-2.84,1.537-5.882,3.036-8.597,4.706c-5.45,3.301-9.786,6.785-9.211,11.011
							c-12.65,1.567,3.326-9.64-11.568-1.625l1.076-3.189c-4.482,0.168-8.462,1.047-12.098,2.345
							c-0.371,0.132-0.724,0.288-1.088,0.429l-15.674-22.668c-2.36,0.377-4.708,0.996-7.008,1.998l-3.562-5.151
							c-0.97-0.155-1.89-0.742-2.827-1.827c0.222,3.037-2.537,13.162-6.36,17.476c-0.636-15.653-15.847,14.584-22.588,3.744
							c0.403,2.944-0.261,5.741-1.583,8.469L106.17,61.754c-14.449,3.927-3.717-13.504-23.542-5.056
							c-6.7,4.583-16.42,18.785-12.713,19.631c3.004-1.204,8.403-1.503,10.089,1.556l-5.881,4.726
							c2.003,6.349,2.438,13.535,7.644,17.569c-0.775,2.332-1.458,4.641-1.7,6.846c-12.611,0.709-2.978-11.277-10.706-14.897
							c5.239,4.66-6.899,16.542-0.511,18.44c-8.796,1.41-6.221,2.6-13.905,0.109c2.327,3.011,2.59,4.654,1.947,5.919l30.757,36.847
							c1.455-2.029,5.671-2.181,6.349-7.888c5.684-0.725,7.663,1.071,9.113,1.832c0.354,0.188,0.679,0.318,1.021,0.347
							c-1.526,2.149-3.098,4.254-4.727,6.258c-1.813,2.313-3.665,4.53-5.583,6.563c-1.914,2.035-3.881,3.898-5.891,5.536
							c-1.964,1.676-3.973,3.124-6.019,4.288l0.652-3.876c-4.542,3.88-5.104,8.144-5.155,12.252c-0.127,0.218-0.26,0.429-0.384,0.65
							c-0.58-1.275-1.768-3.767,0.637-6.131c-2.614,1.946-7.239,4.64-11.861,7.684l9.305,8.935c-0.934,1.12-2.236,2.161-4.078,3.103
							l0.545-2.602c-0.729,0.789-1.453,1.588-2.184,2.415l26.831,25.762c1.711-1.135,3.4-2.321,5.079-3.528l6.907,6.631
							c3.381-3.671,6.629-7.62,8.042-11.104c1.044-2.525,1.146-4.788-0.427-6.528c4.422-3.326,8.792-6.659,13.152-9.776
							c5.493-3.703,10.95-7.107,16.396-9.815c5.52-2.599,11.071-4.436,16.579-5.221c-0.4-2.489,0.938-4.522,3.198-6.167
							c2.252-1.66,5.338-3.061,8.297-4.52c2.96-1.46,5.794-2.979,7.577-4.893c1.817-1.856,2.586-4.118,1.351-7.152
							c8.542-1.15,12.051-0.626,16.135-0.733c4.09-0.075,8.828-0.637,19.557-3.902c2.721-1.146,3.798-3.855,4.907-6.958
							c1.116-3.083,2.309-6.476,5.324-8.72l1.841,3.54c-2.44,2.527-4.626,4.869-6.84,7.383c-2.324,2.578-4.577,5.464-7.191,8.949
							c-1.308,1.741-2.703,3.634-4.224,5.731c-0.757,1.05-1.548,2.149-2.38,3.304c-0.831,1.152-1.694,2.367-2.557,3.685
							c1.742-0.155,3.335-0.566,4.531-0.625c1.188-0.066,1.962,0.205,2.083,1.428c-1.291,1.854-3.442,3.275-5.517,3.892
							c-2.066,0.623-4.021,0.479-4.765-0.701l0.407-1.258c-3.31,6.467-8.548,11.715-14.354,16.745
							c-2.937,2.482-6.09,4.835-9.335,7.126c-3.236,2.318-6.474,4.636-9.673,6.928c-3.212,2.3-6.408,4.579-9.387,6.938
							c-2.924,2.406-5.674,4.859-8.109,7.401c-2.429,2.546-4.568,5.162-6.202,7.944c-1.358,2.403-2.38,4.899-2.984,7.507
							c-0.375,0.069-0.764,0.15-1.189,0.259c0.324,0.209,0.595,0.436,0.826,0.675l-3.495,8.348c-1.339,0.962-2.93,1.858-4.708,2.615
							l3.822-0.468c-1.006,2.525-1.98,5.063-2.95,7.596c-1.583,0.245-3.154,0.28-4.733,0.352c-0.298-1.321-1.15-2.039-3.575-0.631
							c-0.854,3.125-1.849,5.94-2.949,8.506l36.246,35.369c1.981-2.307,4.015-4.283,6.079-6.035l1.541,1.504
							c3.125-1.26,6.047-3.188,8.136-8.362c0.374-0.229,0.748-0.457,1.121-0.683l0.004,4.516c0.706-1.834,1.968-4.079,3.496-6.602
							c6.404-3.738,12.5-7.586,17.753-14.498c8.879,2.107,17.571-2.619,26.449-9.018l21.415,28.119
							c1.37-1.432,2.722-2.836,4.08-4.211l0.835,1.096c1.325-1.725,2.526-3.587,3.719-5.521c1.34-1.24,2.709-2.453,4.141-3.628
							c4.609-3.741,9.829-7.1,16.394-9.99c5.757-1.689-0.763,5.385-1.617,7.848c15.076-12.605,32.518-18.704,46.787-29.043
							l17.268,21.773c2.548-2.542,5.26-5.249,8.166-8.149c2.954-2.847,6.084-5.945,9.6-9.042l-0.644,3.938
							c8.41-2.166,19.354-10.11,27.77-13.393c0.801-3.9,5.508-6.013,0.639-8.267c4.066,0.138,7.744-0.269,11.162-1.051
							c3.407-0.799,6.522-2.029,9.479-3.489c5.881-2.974,11.052-7.024,16.161-11.084c3.284-2.61,6.563-5.219,9.969-7.506
							c2.444,16.991-13.515,16.672-16.312,33.589c2.973-16.693-2.326-5.503-6.353-10.926c-3.901,1.347-9.299,3.913-9.53,1.46
							c-0.903,8.643-10.987,5.201-12.066,17.592c-0.607-0.393-1.385,0.027-2.268,0.604l-52.46,34.337l70.039-5.91
							c2.079-0.176,4.79-0.704,4.906,3.053c7.939-4.309-3.135-2.923-3.242-5.716c8.818-9.104,25.465-4.21,39.813-10.594
							c-0.293,0.883-0.593,1.773-0.907,2.671c-1.217,3.467-2.783,6.898-4.926,9.969c-1.941-0.855-1.957-2.602-1.615-4.592
							c0.176-0.995,0.47-2.028,0.713-3.025c0.224-1.021,0.406-1.994,0.404-2.833c-1.433,2.238-3.43,4.722-5.389,7.284l15.274,25.699
							c5.718-4.047,10.971-8.578,11.077-12.828l-4.497,0.242c1.465,0.838,1.586,4.521,0.215,6.033
							c-2.802,3.973-5.785,4.352-8.089,3.568l-11.977-20.15c1.917,0.197,3.713,1.215,4.479,1.857l-1.461,2.001l7.012,11.796
							l2.507-1.9c-1.438-1.291-2.861-2.011-4.313-2.268l-2.406-4.049c4.367-0.238,7.576-4.871,9.865-10.141
							c0.602-1.298,1.09-2.699,1.626-4.024c0.515-1.345,0.977-2.704,1.499-3.962c0.483-1.289,0.989-2.512,1.565-3.619
							c0.539-1.136,1.154-2.152,1.876-3.027c1.652,2.914,3.264,5.976,4.71,9.09c0.351-4.684,0.404-9.236,0.074-13.677
							c1.634-0.376,3.729-0.351,5.279,0.48c1.523,0.818,2.522,2.501,1.578,5.311c2.08-1.183,3.131-2.366,3.713-3.431
							c0.595-1.063,0.65-2.055,0.707-2.99c0.13-1.817,0.184-3.376,3.572-5.561l1.618,1.598c-0.042,0.34-0.083,0.683-0.129,1.023
							c0.053-0.324,0.106-0.66,0.154-0.999l1.929,1.905c0.341-0.1,0.703-0.176,1.083-0.231l-2.906-2.869
							c0.113-1.401,0.247-2.777,0.313-4.162c0.05-1.473,0.143-2.911,0.134-4.366c0.658,1.081,2.292,1.288,3.409,1.769
							c1.126,0.481,1.688,1.271,0.139,3.541c0.853-1.059,1.624-2.122,2.207-3.208c0.587-1.085,1.065-2.165,1.451-3.217l6.565-17.945
							l-19.33,5.345c-4.768,1.318-8.222,4.07-11.176,6.167l-1.275-1.258c-0.149,0.263-0.328,0.526-0.517,0.789l1.021,1.007
							c-1.311,0.896-2.533,1.614-3.742,1.962c0.441-0.42,0.896-0.851,1.328-1.296c0.506-0.546,0.985-1.108,1.394-1.673l-1.388-1.37
							c-1.28,1.41-2.817,2.831-3.939,4.437c-0.657-0.154-1.326-0.448-2.02-0.926l0.963-0.899
							c-17.895,8.964,0.225,6.989-11.504,19.021l-5.521-4.843c1.472-4.086,1.523-5.04-3.211-2.817l-3.31-2.903
							c4.244-2.101,9.17-3.809,11.04-7.053c-5.484-5.837,9.087-14.116,16.034-25.072c1.369,2.455,19.821-14.046,30.134-20.487
							l0.72,1.187c-1.861-3.227-1.013-6.529,0.978-9.895l-9.106-13.713c1.134,0.031,2.318,0.155,3.563,0.395
							c2.4-7.339-11.894,2.85-10.809-4.542l1.41-0.772c4.434-1.66,9.724-1.871,14.375-1.649c5.138,0.224,9.409,0.806,10.788,0.025
							c6.789-1.547,8.444-5.211,9.946-9.154L490.051,110.409z M448.897,263.948c-0.467-1.293-1.147-2.854-1.757-4.525
							c1.567-0.974,3.092-2.123,4.562-3.479c0.176,0.789,0.448,1.547,0.628,2.287C452.767,260.065,452.671,261.978,448.897,263.948z
							 M457.357,251.92c0.59-0.438,1.153-0.873,1.693-1.305c-0.229,0.85-0.452,1.726-0.676,2.644
							C458.146,252.599,457.802,252.181,457.357,251.92z M469.682,240.184c0.098-0.102,0.196-0.204,0.294-0.306l1.557,1.537
							C470.756,241.362,470.156,240.873,469.682,240.184z M477.228,245.737l-0.783-0.773
							C476.948,244.912,477.157,245.226,477.228,245.737z M474.035,235.959c0.001,0.131,0.004,0.257,0.004,0.391
							c-0.025,1.324-0.179,2.756-0.381,4.311c-0.361,0.253-0.697,0.43-1.013,0.554l-2.026-2
							C471.683,238.128,472.801,237.044,474.035,235.959z M410.685,250.488c1.537-3.297,3.383-6.967,7.737-8.153
							c0.328,0.859,0.444,1.672,0.438,2.432c-0.289,0.602-0.28,0.974-0.116,1.235c-0.283,1.556-0.982,2.792-1.198,3.573
							C415.295,249.457,412.981,249.859,410.685,250.488z M426.944,243.725c-1.084,0.209-2.736,0.517-4.053,0.329
							c0.802-1.543,2.232-2.754,3.957-3.806L426.944,243.725z M326.929,232.334c-1.169-5.275,8.696-16.32,9.146-19.895
							c0.396,11.208,13.432-0.807,16.68,5.834c-4.705,1.363-9.888,3.17-11.815,8.073c1.384-2.385-1.67-7.149-1.356-5.706
							c-3.451,2.326-6.581,5.112-9.636,8.292C328.932,230.012,327.929,231.158,326.929,232.334z M108.823,137.21
							c1.668-1.51,3.014-2.476,4.133-3.042c-1.04,1.731-2.109,3.473-3.24,5.216c-0.033,0.051-0.066,0.103-0.1,0.153
							C109.208,138.791,108.909,138.021,108.823,137.21z M289.55,118.017c-0.524,0.514-1.056,1.036-1.561,1.57
							C288.561,118.97,289.079,118.449,289.55,118.017z M300.043,210.034c-0.217,0.286-0.447,0.554-0.694,0.797
							C299.542,210.554,299.783,210.286,300.043,210.034z M238.774,132.354l2.116,1.323
							C239.329,134.162,238.394,134.06,238.774,132.354z M244.122,129.876c1.672-1.428,3.688-2.55,5.853-3.413
							c0.093,0.212,0.204,0.409,0.344,0.585c0.82,1.032,2.211,1.661,1.714,4.358l-0.321,0.268c-1.425-1.022-3.564-0.649-5.705,0.069
							C245.026,131.296,244.296,130.653,244.122,129.876z M251.942,131.843c-0.005-0.004-0.012-0.007-0.017-0.012
							c0.008-0.004,0.015-0.01,0.022-0.014C251.946,131.826,251.945,131.833,251.942,131.843z M242.595,76.292
							c-0.206,0.152-0.406,0.301-0.617,0.457c-1.776,1.348-3.722,2.825-5.791,4.395c0.667-2.119,1.429-4.19,2.595-5.93
							C240.057,75.792,241.313,76.21,242.595,76.292z M212.144,96.062c-0.337,0.061-0.671,0.114-1.005,0.157
							c-1.057,0.135-2.096,0.174-3.119,0.117c0.995-0.424,2.083-0.762,3.29-0.998C211.597,95.625,211.873,95.857,212.144,96.062z
							 M144.096,81.16c-0.167,0.209-0.344,0.419-0.537,0.63C143.729,81.576,143.91,81.367,144.096,81.16z M237.349,131.463
							l0.675,0.421c-0.699,0.663-1.368,1.299-2.017,1.92C236.45,133.019,236.896,132.236,237.349,131.463z M413.798,140.255
							l-2.142,9.157c4.444-3.816,9.147-7.237,14.068-10.277c2.165,0.7,4.011,2.148,2.354,2.885
							c-19.833,5.642-6.032,8.283-18.006,15.149c-8.373-0.223-2.183-8.952-11.254-1.896c0.637-2.599,0.688-5.304,1.365-7.692
							c1.185-0.123,2.375-0.138,3.573-0.01c2.714-2.337,5.642-4.787,8.63-7.236C412.843,140.302,413.309,140.274,413.798,140.255z
							 M347.7,181.622c0.195-0.307,0.422-0.611,0.699-0.91c0.751-0.297,1.501-0.594,2.251-0.892c0.133,0.147,0.236,0.31,0.319,0.471
							C349.851,180.903,348.754,181.396,347.7,181.622z M351.133,180.201c0.037-0.199,0.101-0.415,0.185-0.644
							c0.888-0.352,1.775-0.704,2.663-1.055C353.024,179.085,352.071,179.68,351.133,180.201z M351.259,181.113
							c-0.109-0.148-0.156-0.332-0.16-0.539C351.215,180.875,351.259,181.113,351.259,181.113z M355.483,217.497
							c-0.063-0.095-0.12-0.191-0.193-0.284c0.455-0.118,0.881-0.206,1.278-0.265c-0.119,0.111-0.229,0.221-0.341,0.331
							C355.983,217.352,355.736,217.425,355.483,217.497z M392.808,199.226c-0.201,0.129-0.429,0.261-0.716,0.397
							C392.335,199.494,392.569,199.358,392.808,199.226z M421.038,195.648c1.898-1.671,3.819-3.1,5.767-4.375
							c1.039,1.245,1.721,2.597,1.671,4.133l-7.372,0.985C421.066,196.142,421.043,195.894,421.038,195.648z M463.677,187.324
							c-0.789-0.127-1.729-0.336-2.923-0.738c1.023-3.2,4.382-6.797,8.267-9.081C467.482,180.933,466.182,184.513,463.677,187.324z
							 M454.788,127.195c-5.627,1.131-9.844,3.027-14.044,5.036c-3.855,1.854-7.699,3.839-12.606,5.454
							c0.317-0.185,0.632-0.375,0.95-0.558c3.067-1.776,6.191-3.453,9.353-5.063c3.156-1.619,6.357-3.153,9.6-4.596
							c0.607-0.272,1.216-0.538,1.824-0.809C450.178,127.575,452.193,127.574,454.788,127.195z M317.803,140.446
							c-4.229,3.134-7.795,6.626-8.242,9.329c1.899-2.036,3.779-5.543,6.718-5.664c-1.863,4.976-4.681,9.494-8.462,13.554
							c-1.891,2.03-4.022,3.945-6.397,5.746c-2.358,1.829-4.95,3.561-7.791,5.173c-2.558-6.247-8.103-5.412-14.76-2.49
							c1.131-1.762,2.164-3.563,3.15-5.389c2.085-3.802,4.07-7.594,6.298-11.379c2.258-3.747,4.729-7.53,8.158-10.813
							c2.98,3.824,8.436,3.672,14.078,2.09c5.6-1.648,11.621-4.457,15.576-6.386l0.278,0.636
							C323.774,136.391,320.655,138.349,317.803,140.446z M388.73,82.507l-0.845-2.267c0.088-0.151,0.188-0.31,0.311-0.485
							l1.113,2.987C389.118,82.66,388.922,82.584,388.73,82.507z M375.525,45.757c-0.079,0.183-0.169,0.378-0.272,0.586
							l-1.688-4.529c0.167,0.033,0.34,0.058,0.519,0.073L375.525,45.757z M251.739,68.909c0.021-0.083,0.04-0.168,0.06-0.253
							C251.828,68.71,251.81,68.794,251.739,68.909z M251.517,68.59c0.107-0.012,0.182-0.004,0.23,0.019
							C251.669,68.603,251.598,68.595,251.517,68.59z M278.484,57.229l-1.729-3.814c0.05-0.035,0.103-0.069,0.153-0.104l1.737,3.833
							C278.589,57.174,278.539,57.2,278.484,57.229z M259.733,15.397l1.828,4.035c-0.05,0.041-0.095,0.082-0.146,0.122l-1.828-4.035
							C259.636,15.479,259.688,15.436,259.733,15.397z M97.783,75.734c-0.167,0.131-0.326,0.242-0.49,0.365
							C97.43,75.943,97.584,75.809,97.783,75.734z M141.635,161.38c-0.226,0.157-0.476,0.311-0.784,0.454
							C141.128,161.682,141.389,161.531,141.635,161.38z M196.736,110.781c0.026,0.031,0.056,0.057,0.083,0.087
							C196.728,110.896,196.695,110.87,196.736,110.781z M131.367,253.903l1.886,1.84
							C131.316,257.462,131.352,255.852,131.367,253.903z M246.026,282.136l-20.345-26.716c0.12-0.087,0.239-0.175,0.359-0.263
							l18.076,23.734c1.021-0.732,1.918-1.378,2.814-2.021C247.821,278.743,247.372,280.45,246.026,282.136z M328.433,234.342
							c0.004,0.008,0.001,0.021,0.005,0.029c-0.008-0.004-0.015-0.009-0.022-0.013C328.421,234.353,328.427,234.348,328.433,234.342
							z M424.001,202.25c-0.437-0.588-0.927-1.29-1.383-2.052c2.339-1.279,4.604-3.068,5.853-4.696
							C428.371,197.416,427.135,199.614,424.001,202.25z M449.506,196.703c1.275-0.097,2.585-0.114,3.93-0.043
							c-1.311,1.943-3.113,3.351-5.864,3.769C448.021,199.188,448.723,197.946,449.506,196.703z M475.521,164.144
							c-3.417,1.979-7.415,3.726-10.703,5.815c1.336-1.241,2.727-2.36,4.213-3.288C470.987,165.433,473.128,164.551,475.521,164.144
							z"/>
					</g>
					<path fill="#3A5255" d="M406.577,88.879c-0.337,0.39-0.797,0.93-1.193,1.477C405.894,89.849,406.308,89.355,406.577,88.879z"/>
					<path fill="#3A5255" d="M406.842,224.16c0.404,1.14,0.884,1.819,1.326,2.445c0.034-0.013,0.05-0.029,0.085-0.033
						L406.842,224.16z"/>
					<path fill="#3A5255" d="M315.092,152.338c0.004,0.044,0.032,0.042,0.047,0.101c0.379-0.313,0.738-0.556,1.13-0.851
						L315.092,152.338z"/>
					<path fill="#3A5255" d="M457.662,296.849c-0.193-0.363-0.216-0.715-0.173-1.01l-1.794,1.586L457.662,296.849z"/>
					<path fill="#3A5255" d="M457.489,295.839l1.782-1.57C458.318,294.683,457.513,295.083,457.489,295.839z"/>
					<path fill="#3A5255" d="M463.016,290.948l-3.744,3.32C460.788,293.628,462.729,292.999,463.016,290.948z"/>
					<path fill="#3A5255" d="M476.707,250.664c1.141-0.211,2.532-0.184,4.078-0.115l-1.688-1.666
						C478.04,249.192,477.195,249.738,476.707,250.664z"/>
					<path fill="#3A5255" d="M343.451,127.749c4.878-2.032,10.767-2.079,12.716-4.116
						C352.318,121.741,345.438,122.846,343.451,127.749z"/>
					<polygon fill="#3A5255" points="266.141,68.171 269.816,64.246 262.021,69.36 					"/>
				</g>
			</g>
			<g>
				<path fill="#394D4B" d="M77.21,319.981l0.488,7.328c0.121,1.807,1.609,3.221,3.421,3.246l40.974,0.594
					c2.677,0.039,5.218-1.178,6.866-3.287l4.245-5.434c1.236-1.58,1.876-3.547,1.809-5.553l-0.248-7.424L77.21,319.981z"/>
				<polygon fill="#81DFEA" points="72.999,317.173 74.402,323.491 124.238,324.192 124.238,315.771 				"/>
				<polygon fill="#4A90B6" points="136.872,305.942 136.872,311.558 124.238,324.192 124.238,315.771 				"/>
				<polygon fill="#4ACDDB" points="72.999,317.173 91.95,306.646 136.872,305.942 124.238,315.771 				"/>
			</g>
		</g>
	</g>
</g>
<g id="DESIGNED_BY_FREEPIK">
</g>
</svg>
