<?xml version="1.0" encoding="utf-8"?>
<!-- Generator: Adobe Illustrator 16.0.0, SVG Export Plug-In . SVG Version: 6.00 Build 0)  -->
<!DOCTYPE svg PUBLIC "-//W3C//DTD SVG 1.1//EN" "http://www.w3.org/Graphics/SVG/1.1/DTD/svg11.dtd">
<svg version="1.1" id="Objects_1_" xmlns="http://www.w3.org/2000/svg" xmlns:xlink="http://www.w3.org/1999/xlink" x="0px" y="0px"
	 width="238.583px" height="214.121px" viewBox="0 0 238.583 214.121" enable-background="new 0 0 238.583 214.121"
	 xml:space="preserve">
<g>
	<g>
		<path fill="#7DB37E" d="M1.081,28.521C0.542,28.155,0.189,30.153,0,30.47C1.092,30.369,1.208,28.013,1.081,28.521z"/>
		<polygon fill="#7DB37E" points="12.392,27.583 11.925,28.276 14.1,27.007 		"/>
		<path fill="#7DB37E" d="M21.487,31.52c0.622-3.589-3.516-0.98-4.646-2.764l0.033-0.831l-1.798,2.234
			C17.177,30.597,20.563,29.896,21.487,31.52z"/>
		<path fill="#7DB37E" d="M22.817,40.461c0.335-1.321,1.501-0.533-0.858-0.894c0.036,0.181,0.027,0.27,0.037,0.396
			C22.187,40.037,22.436,40.164,22.817,40.461z"/>
		<path fill="#7DB37E" d="M21.997,39.963C21.068,39.607,22.068,41.25,21.997,39.963L21.997,39.963z"/>
		<path fill="#7DB37E" d="M26.435,41.397c0,0-0.427,0.093-0.853,0.187c-0.421,0.085-0.858,0.21-0.858,0.21
			c-0.118,0.789,0.776,1.563,0.136,1.835C26.316,43.734,26.473,42.919,26.435,41.397z"/>
		<path fill="#7DB37E" d="M28.739,39.856l-0.845,0.087C27.839,40.293,27.938,40.485,28.739,39.856z"/>
		<path fill="#7DB37E" d="M26.12,40.13l1.774-0.187c0.104-0.581,0.62-1.563-0.767-0.006C27.721,39.111,26.998,39.814,26.12,40.13z"
			/>
		<path fill="#7DB37E" d="M25.633,39.298c-0.312-0.986-0.974-1.839,0.792-2.282C23.891,36.278,23.147,38.597,25.633,39.298z"/>
		<path fill="#7DB37E" d="M23.46,28.55l-0.523-1.382l-1.303,0.63C22.285,27.488,23.061,29.549,23.46,28.55z"/>
		<path fill="#7DB37E" d="M32.576,47.053c0.462-0.578,0.658-1.872,1.063-2.71l-1.286,0.217
			C32.524,45.241,33.103,46.097,32.576,47.053z"/>
		<path fill="#7DB37E" d="M33.64,44.343c0,0,0.491-0.095,0.96-0.142c0.475-0.056,0.95-0.111,0.95-0.111
			C34.534,43.207,33.988,43.629,33.64,44.343z"/>
		<polygon fill="#7DB37E" points="30.817,36.671 27.405,37.711 31.25,36.884 		"/>
		<polygon fill="#7DB37E" points="37.107,50.223 35.482,51.161 38.128,49.872 		"/>
		<path fill="#7DB37E" d="M40.313,52.042c-1.296,0.764-0.724,2.42-1.735,2.728c0.924,0.396,2.304-0.059,3.561-0.454
			C41.13,54.301,40.542,53.656,40.313,52.042z"/>
		<path fill="#7DB37E" d="M44.116,53.849c-0.53,0.016-1.23,0.236-1.977,0.466C42.677,54.32,43.296,54.209,44.116,53.849z"/>
		<path fill="#7DB37E" d="M37.451,45.809c-0.148,0.431-0.602,1.515-0.193,2.377l0.661-2.024
			C37.776,46.054,37.615,45.933,37.451,45.809z"/>
		<path fill="#7DB37E" d="M37.938,46.095l-0.02,0.066c0.5,0.391,0.838,0.675,0.981,0.799C38.779,46.852,38.489,46.591,37.938,46.095
			z"/>
		<path fill="#7DB37E" d="M37.334,45.719c0.043,0.033,0.075,0.058,0.117,0.09C37.516,45.61,37.525,45.535,37.334,45.719z"/>
		<path fill="#7DB37E" d="M33.304,40.277c1.345-0.54,3.623-0.63,2.963-3.04C34.98,38.109,35.349,39.477,33.304,40.277z"/>
		<path fill="#7DB37E" d="M38.136,43.171l-1.077-1.292c-0.264,0.474-0.453,1.298-1.121,1.533L38.136,43.171z"/>
		<polygon fill="#7DB37E" points="39.146,43.068 38.136,43.171 38.534,43.648 		"/>
		<path fill="#7DB37E" d="M43.132,50.684c1.07-0.304,1.712,0.092,2.471,0.492c-0.479-0.872-1.099-1.62-1.812-2.16
			C43.31,49.458,42.322,50.155,43.132,50.684z"/>
		<path fill="#7DB37E" d="M40.748,48.264c0.066-0.012,0.129,0.002,0.193-0.011C40.963,48.06,40.933,47.972,40.748,48.264z"/>
		<path fill="#7DB37E" d="M52.126,56.39c0.046-0.124,0.09-0.244,0.137-0.373c-0.085,0.085-0.163,0.163-0.251,0.25L52.126,56.39z"/>
		<path fill="#7DB37E" d="M43.895,48.615c-0.317-0.731-0.925-0.598-1.621-0.29c0.544,0.114,1.04,0.357,1.517,0.691
			C44.007,48.816,44.129,48.668,43.895,48.615z"/>
		<path fill="#7DB37E" d="M46.523,54.479c-0.015-0.55-0.11-1.078-0.24-1.598C46.163,53.604,46.096,54.824,46.523,54.479z"/>
		<path fill="#7DB37E" d="M40.803,48.843c-0.047,0.008-0.094,0.021-0.136,0.018C40.597,49.344,40.698,49.152,40.803,48.843z"/>
		<path fill="#7DB37E" d="M40.803,48.843c0.458-0.047,0.979-0.307,1.471-0.518c-0.438-0.1-0.884-0.134-1.333-0.072
			C40.927,48.418,40.87,48.645,40.803,48.843z"/>
		<path fill="#7DB37E" d="M62.658,48.09c-1.35,1.343-3.927,1.452-3.879-1.185c-2.15,0.035-5.279,5.575-6.515,9.113
			c0.57-0.603,1.055-1.195,3-1.008c0.255-1.146-1.167-4.186,0.975-4.616c2.284,0.664,0.924,1.672,1.065,3.114
			c0.852-2.385,4.358-0.808,6.306-3.718l-2.291-0.347C61.643,49.008,62.75,48.817,62.658,48.09z"/>
		<path fill="#7DB37E" d="M50.1,53.911L49.439,53.7c0.389,0.689,0.295,1.656,0.087,3.42c1.399-0.021,2.024-0.414,2.486-0.852
			c0,0-0.564-0.57-1.129-1.14c-0.282-0.285-0.565-0.571-0.777-0.785c-0.209-0.218-0.358-0.35-0.358-0.35L50.1,53.911z"/>
		<path fill="#7DB37E" d="M47.124,51.947c1.661-1.332,3.472-1.057,4.078-3.405c-1.645-1.074-2.147,0.533-3.608,0.546
			c2.781,1.477-1.404,0.378-0.344,2.658c-0.694-0.088-1.188-0.33-1.646-0.57c0.287,0.534,0.519,1.102,0.681,1.705
			c0.009-0.057,0.015-0.096,0.023-0.144l-0.016-0.003l0.022-0.024c0.053-0.283,0.114-0.434,0.141-0.226
			c0.023-0.014,0.059,0.001,0.076,0.005c0.192-0.215,0.391-0.379,0.586-0.533c0.444,0.874-0.218,0.508-0.586,0.533
			c-0.069,0.074-0.148,0.137-0.217,0.22c-0.005,0.011-0.006,0.019-0.007,0.027l3.132,0.963
			C49.102,53.083,48.415,52.634,47.124,51.947z"/>
		<path fill="#7DB37E" d="M40.084,34.326c-0.009,0.206-0.092,0.328-0.165,0.459C40.236,34.677,40.397,34.571,40.084,34.326z"/>
		<path fill="#7DB37E" d="M40.538,36.109c-0.354,0.116-0.949,0.689-1.478,0.105c-0.241-0.859,0.528-0.837,0.86-1.429
			c-0.694,0.227-2.169,0.446-1.465,2.021l0.345-0.124c0.713,1.311,0.655,4.398,0.315,4.505
			C39.823,39.424,40.273,38.13,40.538,36.109z"/>
		<path fill="#7DB37E" d="M44.474,43.621c0,0,0.692,0.163,1.384,0.325c0.674,0.197,1.349,0.393,1.349,0.393l-0.029-2.271
			l-0.573,0.914C45.604,41.782,45.104,43.052,44.474,43.621z"/>
		<polygon fill="#7DB37E" points="51.688,57.367 50.028,58.819 53.132,57.418 		"/>
		<polygon fill="#7DB37E" points="54.376,59.318 53.033,60.667 54.45,60.371 		"/>
		<path fill="#7DB37E" d="M158.248,165.323l-0.131-0.776C158.136,164.819,158.185,165.074,158.248,165.323z"/>
		<path fill="#7DB37E" d="M156.928,166.992l0.3,1.228C157.112,167.473,156.993,166.971,156.928,166.992z"/>
		<path fill="#7DB37E" d="M105.177,124.318c-0.98,1.832-2.834,4.26-1.016,3.115l1.663-1.3
			C105.133,125.614,105.042,124.978,105.177,124.318z"/>
		<path fill="#7DB37E" d="M140.523,172.451c0.122-0.26,0.25-0.532,0.377-0.802c-0.644,0.299-1.256,0.545-1.839,0.772
			C139.524,172.44,140.021,172.457,140.523,172.451z"/>
		<path fill="#7DB37E" d="M147.307,166.033c0,0-0.182,0.477-0.364,0.953c-0.175,0.504-0.35,1.008-0.35,1.008
			C146.868,167.377,147.109,166.721,147.307,166.033z"/>
		<path fill="#7DB37E" d="M169.049,143.141l-1.425-1.813C166.964,142.565,168.193,142.541,169.049,143.141z"/>
		<path fill="#7DB37E" d="M78.599,83.567c-0.027,1.259,0.184,2.063,0.525,2.645C79.336,84.576,80.135,82.714,78.599,83.567z"/>
		<path fill="#7DB37E" d="M167.95,190.11c0.274-1.014,0.253-1.707,0.019-2.176C167.701,188.907,167.624,189.69,167.95,190.11z"/>
		<path fill="#7DB37E" d="M80.862,88.357c0.065-0.265,0.042-0.455,0.072-0.697c-0.716-0.33-1.378-0.702-1.811-1.448
			C78.961,87.43,79.142,88.507,80.862,88.357z"/>
		<path fill="#7DB37E" d="M208.66,39.9c0.106-0.062,0.167-0.148,0.289-0.2C208.678,39.623,208.644,39.73,208.66,39.9z"/>
		<path fill="#7DB37E" d="M234.304,9.999c0.098,0.35,0.051,0.9,0.032,1.421C234.5,11.183,234.525,10.757,234.304,9.999z"/>
		<path fill="#7DB37E" d="M63.478,69.127C62.893,68.713,63.237,69.208,63.478,69.127L63.478,69.127z"/>
		<path fill="#7DB37E" d="M66.796,60.829c0.277-0.061,0.571-0.191,0.92-0.521C67.322,60.624,67.025,60.781,66.796,60.829z"/>
		<path fill="#7DB37E" d="M95.582,86.429c0.011,0.02,0.021,0.034,0.033,0.057C95.81,86.066,95.77,86.142,95.582,86.429z"/>
		<path fill="#7DB37E" d="M63.413,67.692c0.003,0.373,0.064,0.744,0.188,1.09C63.614,68.563,63.567,68.223,63.413,67.692z"/>
		<path fill="#7DB37E" d="M62.815,68.491c-0.102-0.242-0.198-0.417-0.284-0.589C62.225,68.083,62.125,68.294,62.815,68.491z"/>
		<path fill="#7DB37E" d="M64.239,69.759c-0.303-0.269-0.493-0.609-0.638-0.978c-0.003,0.199-0.047,0.324-0.123,0.346
			C63.645,69.254,63.876,69.436,64.239,69.759z"/>
		<path fill="#7DB37E" d="M197.459,99.108c0.079-0.022,0.139-0.061,0.241-0.078C197.162,98.029,197.172,98.382,197.459,99.108z"/>
		<path fill="#7DB37E" d="M133.313,131.71c-0.034-0.023-0.091-0.018-0.128-0.036c-0.005,0.043-0.012,0.097-0.017,0.135
			L133.313,131.71z"/>
		<path fill="#7DB37E" d="M135.901,133.548c-2.846,0.043-2.843-0.692-2.734-1.739l-5.013,3.426L135.901,133.548z"/>
		<path fill="#7DB37E" d="M161.749,158.757l-2.546,0.563c-1.45-3.5,0.271-4.264-2.853-4.213c1.351,0.911,1.83,1.763,1.872,2.586
			c0.021,0.412-0.067,0.816-0.209,1.218c-0.071,0.179-0.145,0.363-0.219,0.551l-0.054,0.211c-0.163,0.56-0.321,1.11,1.991,3.527
			c0,0-0.33-0.121-0.647-0.261c-0.321-0.133-0.618-0.307-0.618-0.307c0.11-0.051-0.139-0.375-0.021-0.437
			c-0.695-0.359-0.797-0.382-0.658-0.082c0.142,0.295,0.54,0.887,0.96,1.569c0.854,1.345,1.735,3.145,1.006,3.397
			c-0.6,0-1.261-0.736-1.504-1.758c0,0,0.085,0.594,0.137,1.235c0.055,0.638,0.077,1.323,0.077,1.323
			c-0.249,0.136-0.699-1.227-0.485-1.316c0,0-0.163,0.468-0.326,0.935c-0.181,0.486-0.362,0.973-0.362,0.973l-0.061-0.253
			c0.248,1.455,0.379,4.054,0.345,5.285c-0.578-0.837-0.034-1.17-0.353-2.155c0,0-0.055,0.772-0.11,1.545
			c-0.084,0.806-0.168,1.611-0.168,1.611c-0.337-1.021-0.424-2.358-0.421-3.396c0.011-1.045,0.107-1.798,0.324-1.888
			c-1.178-4.081-1.037-3.554-1.022-2.265c0.018,0.63,0.023,1.426-0.088,1.801c-0.106,0.366-0.341,0.335-0.654-0.911
			c0,0,0.065-0.449,0.131-0.897c0.052-0.433,0.104-0.864,0.104-0.864c-0.417-2.67-0.54-3.532-0.65-4.113
			c-0.097-0.598-0.196-0.889-0.236-2.848c0.001,1.05,0.085,3.473,0.32,5.79c0.213,2.346,0.544,4.626,0.32,6.338
			c-0.217-0.575-0.365-0.781-0.699,1.937c-0.001-4.041-0.241-2.739-0.604-2.049l0.304-5.743c-0.305,1.928-0.515,4.92-0.974,7.909
			c-0.438,0.001,0.062-4.775,0.541-8.871c-0.072-0.345-0.322,1.63-0.552,3.814c-0.238,2.193-0.422,4.563-0.954,5.694
			c-0.04-0.311-0.115-0.387-0.101-0.774c-0.012-0.281-0.043-0.426-0.093-0.465c-0.101-0.079-0.28,0.263-0.532,0.791
			c-0.243,0.513-0.558,1.198-0.94,1.853c0.11-1.366,0.332-2.151,0.548-2.882c0.219-0.723,0.434-1.386,0.592-2.291
			c0,0-0.307,0.969-0.613,1.938c-0.321,0.923-0.643,1.846-0.643,1.846c-0.025-0.27,0.336-1.518,0.515-2.155
			c-0.292,0.573-0.656,1.858-1.023,3.083c-0.37,1.22-0.745,2.37-1.127,2.464c-0.867,2.606-0.5-0.136-0.094-2.59
			c0.386-2.518,0.853-4.588-0.491-2.695c0.417-1.434,1.163-2.309,1.831-3.966c-0.965,0.986-1.386,1.131-1.849,1.488
			c-0.479,0.316-1,0.853-2.46,1.743c0,0,0.214-0.896,0.45-1.728c0.234-0.837,0.492-1.608,0.492-1.608
			c-0.674,1.52-1.568,2.728-2.621,3.454c-1.044,0.739-2.262,0.99-3.449,1.003c-0.658,1.429-1.218,2.802-1.436,3.569
			c0,0-0.597-0.427-1.217-0.926c-0.618-0.492-1.259-1.058-1.259-1.058c0.258-0.779,1.247-1.15,2.449-1.615
			c-0.276-0.016-0.55-0.03-0.794-0.021c0.524-1.908,2.209-2.429,3.791-3.071c-0.376,0.724-0.773,1.511-1.158,2.32
			c1.698-0.764,3.416-2.048,4.729-3.664c-0.309,0.181-0.625,0.197-0.854,0.066c0.436-0.274,0.808-0.569,1.024-0.866
			c0.226-0.318-0.356,0.06-1.083,0.338c0,0,0.637-0.737,1.273-1.475c0.647-0.708,1.295-1.416,1.295-1.416l-1.115,0.89
			c0,0,0.236-0.903,0.517-1.688c0.279-0.798,0.589-1.471,0.589-1.471c-0.864,0.149-1.851,0.263-2.9,0.268
			c-0.532-0.017-1.045,0.026-1.626-0.12c-0.588-0.166-1.174-0.34-1.749-0.531c-2.288-0.77-4.47-1.777-5.959-3.598
			c2.742,0.094,3.885-1.314,6.66-2.377c-2.459,2.333,2.591,2.774,2.836,5.243c-0.137-1.276,1.279-1.54,1.853-1.423
			c0,0-1.054-0.729-2.107-1.456c-1.061-0.717-2.123-1.434-2.123-1.434c2.29-0.818,1.352-1.515,1.865-2.925
			c-4.128,2.587-4.137-1.715-6.188-2.713c1.444-0.728,3.122-0.987,3.589,1.102c2.418-3.547-6.369-0.563-4.428-3.843
			c0.237,0.455,0.117,0.805,0.949,0.668c-1.78-0.533-1.89-3.66-0.337-3.596l0.238,0.455c-0.86-3.344-4.232-9.492-8.17-8.18
			c0.461-0.257,4.639-1.691,5.475-1.853c0,0-3.75,0.101-7.5,0.201c-3.726,0.149-7.453,0.299-7.453,0.299
			c3.377-1.049,9.987-6.571,12.984-4.878c0.106-0.955,0.186-2.126-1.703-3.112c-0.195,0.723-3.922,3.472-4.547,2.942
			c2.567-3.577,1.229-2.199,3.044-5.988c-0.296,1.083-5.613,2.735-6.036,1.504c0.823-0.192,4.777-2.567,5.502-2.397
			c0,0-1.566-0.114-3.133-0.229c-1.573-0.098-3.146-0.195-3.146-0.195c1.241,0.264,4.122-1.981,5.124-3.341
			c-0.774,0.792-1.251-2.556-2.136-3.078l-0.447,1.816c-1.046-3.651-8.342,0.376-9.875-2.867c1.185-0.17,6.525-2.388,6.194-4.348
			c-2.854,0.594-13.379,3.276-16.774,1.719l1.049-1.313l-2.778-1.117c2.162-0.44,5.663-0.883,9.166-1.142
			c3.48-0.251,6.927-0.3,8.999-0.104c0.399-1.829,1.424-1.261,0.269-3.007c0.914-1.387,2.507-0.13,2.89,0.367
			c0,0-0.399-1.186-0.797-2.37c-0.386-1.193-0.838-2.359-0.838-2.359c-2.666,1.824-4.714-1.549-6.912,0.007l5.597,2.813
			c-2.665,1.78-9.451,2.042-10.693-1.115c0.647-1.408,5.229-2.441,6.114-3.056c-1.182,0.192-3.491-1.676-2.987-2.36l2.219,0.338
			c0.045-2.304-5.279-0.371-3.922-3.952c-0.254-0.772,2.187-4.26,0.513-3.335c-2.365,3.115-11.799,9.479-14.557,10.3
			c0.058-0.34,0.809-5.285,1.775-7.013c1.657-2.67,6.798-2.257,8.233-4.533c-0.759,0.45-2.07,0.467-2.529,0.417
			c0.15-1.102,2.456-1.245,1.094-2.509c-2.869,1.598-1.863-3.169-2.764,0.862c-1.768-0.908-0.511-1.914-1.806-3.53
			c-1.373,1.761-6.872,2.624-8.667,1.839c0.732-0.408,1.376-1.354,1.662-1.796c-1.888-2.988-1.8-5.445-3.83-8.074
			c0.432-0.724,0.17-2.571,1.704-2.911c-0.757-0.018-1.901,0.329-2.61-0.421c0.943-3.329,1.793,1.519,3.484-1.791
			c-1.568,1.081-3.733-0.45-5.568-0.832c-1.979,2.218,1.68,2.972,3.54,3.388c-3.171,2.512-8.064,3.199-11.598,1.802
			c-2.463-1.405,1.251-2.57,0.52-2.559c-2.814-4.272-8.13,1.452-8.66-3.576c0.793-2.949,3.735-3.529,4.861-5.052
			c2.189,1.012,1.027,3.648,2.083,4.694l-0.302-2.191c1.102-0.044,2.574,0.646,2.543,1.743c0.408-1.29-0.945-2.999-2.524-4.932
			c-1.617-1.901-3.543-3.939-4.151-6.136c-1.111,0.09-2.587-0.156-2.927,0.987l1.122,0.648c-0.702,2.271-3.665,0.333-3.275,2.142
			c-1.096-0.076-2.346-0.059-3.453-0.282c-1.116-0.216-2.05-0.713-2.472-1.921l1.719-2.422c-0.555,0.658-0.119,2.298,0.975,2.103
			c-1.587,0.29,0.161-5.327-3.246-3.254l-0.225,2.593c-2.222-0.04-5.717,0.853-6.587-1.124c-1.259,2.748,0.592,0.035-0.678,3.517
			c1.967-3.956,3.529,3.591,5.145-0.996c-1.659,3.858,0.677,2.944-0.317,6.627c0.636-0.726,0.827-1.782,1.675-0.297
			c0.251-0.146,0.628-0.273,0.855-0.342c0.017,0.055,0.018,0.079,0.026,0.132c0.006-0.053,0.011-0.094,0.018-0.146
			c0.152-0.051,0.178-0.067,0.004-0.053c0.029-0.589,0.161-1.178,0.444-1.647c2.161-1.003,3.963,1.008,5.428,0.861
			c0.366,1.046-1.091,0.469-1.456,1.583l2.185-0.213c-1.458,1.591-0.772,4.358-3.3,3.55l1.375,1.568
			c-0.012,1.684,0.71,3.29,2.077,3.463c0.297,1.045,3.43,0.294,1.597,0.762l3.181,1.598l-0.389,0.372
			c0.991,1.283,2.697,2.048,4.143,3.122c1.436,1.077,2.575,2.505,2.215,5.148c1.105,0.528,2.305,1.056,2.927,2.898l-1.274,1.407
			c1.368,0.744,1.021,4.476,2.953,3.817c-3.204,4.157,2.989,6.215,3.672,8.763l2.072-1.273c0.816,1.518,2.283,2.515,4.269,3.785
			l1.737-1.271c1.248,0.305,1.582,1.518,1.813,2.941c0.202,1.446,0.303,3.099,1.156,4.296c-0.806,0.255-1.006-0.491-0.855-1.2
			c-1.166,2.764,0.532,3.862,2.372,4.878c1.82,1.021,3.734,1.985,2.989,4.24c1.072,0.305,1.125,0.938,0.928,1.686
			c-0.041-0.062-0.108-0.1-0.195-0.116c0.017,0.083,0.073,0.19,0.138,0.296c-0.15,0.484-0.349,1.007-0.458,1.512
			c0.293-0.54,0.513-1.025,0.55-1.363c0.335,0.514,1.046,1.178,1.94,1.729l-1.843,1.449c0.062,0.05,0.085,0.104,0.156,0.153
			c-0.331,1.191,1.298,0.111,2.599-1.141c0.55,0.225,1.15,0.381,1.795,0.405c-2.94,2.406,2.242,1.536-0.802,4.274
			c1-0.18,1.869,0.66,2.958,1.375c1.071,0.725,2.377,1.319,4.306,0.617c-0.459,0.27-0.563,0.627-0.816,0.196
			c0.048,1.132,0.094,2.255,1.537,2.567l-2.432,1.697l4.549,0.26c-1.012,2.022-1.716,2.976-4.322,2.749
			c4.523,1.428,2.306,1.807,6.615,2.853l-1.777,0.684c0.49,0.862,3.488,1.235,2.299,2.446c-1.184,1.771-0.168,4.318,1.042,7.26
			c1.148,2.966,2.556,6.308,2.04,9.581c4.765-3.121-1.333,3.384,2.77,1.977c-1.102,0.798-1.501,1.802-2.913,1.377
			c1.154,1.095,1.037,2.308,1.176,3.294c0.005,0.095,0.06,0.302,0.115,0.493c0.055,0.188,0.116,0.372,0.186,0.551
			c0.14,0.357,0.316,0.694,0.55,1.002c0.47,0.609,1.162,1.12,2.238,1.397c-0.979,1.178-2.063,0.008-2.592,0.838
			c0.396,0.249,1.545,0.865,1.037,1.765c-0.504,0.907-1.21-0.072-2.003-0.558c1.031,2.429,2.39,3.193,3.917,2.92
			c1.522-0.258,3.2-1.441,4.815-2.612c-0.803,3.155-0.158,4.237,2.219,3.376c-0.743,1.694-1.288,4.157-2.505,1.996
			c0.195,0.748,0.559,3.451,1.205,5.644c0.641,2.196,1.513,3.741,2.542,1.94c-0.387,1.41,0.45,2.345,0.786,2.23
			c0.827,3.461,0.757,4.214,1.85,6.986l0.04-1.706c1.266-2.378,1.546-2.195,1.653-1.102c0.102,1.073,0.04,3.09,0.5,3.886
			l-0.222,0.642c0.092,5.181,0.453,5.522,0.737,5.539c0.303,0.094,0.551-0.097,0.688,5.242c0.005,0.215,0.044,0.454,0.087,0.707
			l0.871-5.186c1.188-5.497,1.179-3.045,1.32-0.247c0.029,0.707,0.08,1.429,0.131,2.103c0.015,0.161,0.023,0.348,0.048,0.476
			c0.048,0.047,0.097,0.09,0.147,0.127c0.101,0.074,0.205,0.127,0.316,0.147c0.444,0.087,0.975-0.326,1.571-1.729
			c0,0-0.108-0.367-0.216-0.735c-0.1-0.378-0.199-0.755-0.199-0.755c0.709-2.091,1.014,0.057,1.507,2.457
			c0.462,2.426,1.111,5.103,1.746,4.842c0.25,0.367-0.506,1.638-0.95,2.632c1.629,0.348,1.833-1.037,1.884-2.941
			c0.062-1.916,0.076-4.46,1.23-6.365c0.434,1.991-0.704,7.163,1.067,5.58c0.457,0.486,1.75-3.045,3.021-6.254
			c1.311-3.275,2.553-6.158,4.058-5.496c-0.822-1.005-1.503-2.16-0.715-4.695c0.707-1.291,2.089-1.151,3.473-1.699
			c1.355-0.526,2.661-1.83,2.458-4.898c0.36,0.087,0.596,0.322,0.753,0.637c0.793-2.746,3.022-7.266,2.239-9.897
			c1.52,1.281,2.667,0.984,3.44,0.02c0.776-0.966,1.233-2.588,1.58-4.078c0.176-0.748,0.328-1.47,0.503-2.097
			c0.088-0.313,0.182-0.604,0.289-0.864c0.084-0.231,0.159-0.402,0.271-0.559c0.432-0.607,1.224-0.677,2.772,0.3l2.057-4.065
			l0.577,0.49c1.903-2.247,0.922-4.033-0.075-5.794c0.77-0.319,1.11,0.444,1.413,0.688c3.417-2.893,3.342-3.471,1.916-8.311
			l2.255,0.84c-0.373-0.758,1.17-1.641,2.76-2.973c1.598-1.324,3.225-3.115,2.942-5.608c0.219,0.161,0.588,0.451,0.732,0.9
			c-0.162-2.724,2.616-4.43,4.497-6.224c1.899-1.777,2.988-3.572-0.533-6.215l-0.622-3.692c-2.28,3.285-3.145-2.14-5.129-1.29
			c0.188-1.599,4.049-2.493,3.648-0.588l-0.518,0.085c3.784,2.551,3.531-3.761,6.271-2.395c1.46-3.632,3.607-6.903,5.603-10.202
			c1.016-1.641,2.042-3.266,2.997-4.905c0.918-1.655,1.77-3.322,2.48-5.024l-3.578-0.473l1.109-2.306
			c1.005-0.335,2.893,0.127,2.095,1.785c2.204-0.198-0.44-3.451-1.156-3.765c2.543-2.872,3.36,2.74,3.809,1.741l0.262-1.503
			l-0.499,0.176c-0.933-1.64-2.324-2.259-1.419-4.263c1.13-1.069,2.278,0.058,2.591-0.413c0.233,0.086,0.406-0.05,0.38-0.76
			c0,0,0.345-0.738,0.689-1.477c0.352-0.735,0.674-1.482,0.674-1.482l-3.039,0.317c-0.812-1.792,1.097-2.819-2.33-2.43
			c2.627-0.241,3.987-2.96,4.914-5.706c0.942-2.742,1.308-5.55,2.239-5.967c-1.364-2.504-0.724-4.351,0.16-6.634
			c-0.714,0.427-3.801-0.089-2.885-1.99c5.981,2.479,3.697-2.941,8.612-3.397c-1.683,0.344-1.468-1.158-1.439-2.589
			c0.003-1.44-0.196-2.808-2.585-2.188c0.919-1.573,2.355,0.492,4.139-0.437c-0.708-2.345,0.231-4.483,1.405-6.718
			c1.152-2.235,2.458-4.587,2.603-7.221c-0.808-0.251-2.251,0.329-3.247-1.014l4.704-1.832c-0.186-1.094-4.58-1.874-1.367-3.152
			c-0.745,0.126-1.866,0.307-2.006-0.417c1.467-2.293,2.231-4.77,2.696-7.311c0.46-2.542,0.5-5.17,0.716-7.768
			c0.477-5.201,1.036-10.33,5.535-15.067c-1.798,1.221-1.834,0.272-1.781-0.797c-0.454,0.651-2.069-0.235-3.219-0.219l3.546-3.981
			c-3.087-1.075,0.202-4.641-2.779-5.336l0.421,1.4c-3.407-2.077-8.152,1.832-12.701,1.137c1.938,1.159,0.321,2.319-1.088,3.627
			c-1.392,1.316-2.64,2.765,0.052,4.684c-1.016,0.596-1.396-0.766-2.501-0.51c1.858,1.023,2.146,2.054,1.05,3.75l-0.458-0.264
			c-0.1,5.127-2.402,7.032-4.535,12.438l2.306-0.057c-0.486,1.166-1.228,1.306-1.875,1.779c3.184,1.955,0.713-3.374,4.268-1.503
			c-4.74,0.879-1.55,8.576-6.915,8.701c-0.367,1.841,2.684-0.055,2.313,1.792l-1.486,0.222l1.711,0.818
			c-0.516,1.164-2.38,1.425-3.575,1.232c0.208-0.262-0.167-0.896-0.21-1.23c-1.929,1.232-0.369,4.499-1.008,4.928l1.235-1.58
			c0.106,2.637-0.599,5.401-1.163,8.169c-0.612,2.759-1.027,5.536-0.218,8.311l1.129-0.103c0.997,4.203-1.923,2.654-2.121,6.927
			l-0.206-0.214c0.808,1.09,1.03,2.32,0.609,3.396c-0.929-1.36-2.869,1.244-3.838-0.473c0.879,4.538,1.026,2.405,4.053,6.171
			l-1.885,0.093c1.268,1.361,2.056,1.686,1.883,3.846c-0.957-2.106-2.973,0.474-4.342-1.971c-2.47,1.521-2.065,3.336-1.762,4.837
			c0.302,1.495,0.478,2.656-2.532,2.699c4.028,3.486,3.786-2.739,4.43-1.335c1.828-0.405,2.965,2.745,2.056,3.916
			c-0.551,1.321-6.695,0.257-7.806,3.572c0.141-0.321-0.203-0.469-0.065-0.789c-1.625,0.81,0.728,3-1.733,3.818
			c2.484,1.879-0.86,1.909,2.594,3.479l0.279-3.354c0.326,2.061,3.887,5.261,0.752,7.342c-0.628-0.497-1.242-1.701-1.543-2.478
			c-1.366,0.427,0.076,1.858-1.329,2.302c-3.465-1.616,0.685-3.956-1.39-6.813c-1.799,0.329,1.274,4.421-2.22,2.057
			c4.378,3.176-1.857,2.965,1.005,6.633l-2.059-0.982c0.197,0.479,0.918,1.604,0.609,2.228l-2.287-2.258
			c1.653,2.728-3.436,2.579-2.854,4.783c1.401-3.563,2.864,0.25,5.025-0.627c0.967,5.576-6.517,0.27-7.591,5.53
			c0.003-0.772,2.325-1.925,2.856-0.479c-0.837,0.742-2.179,1.613-3.52,1.697c-0.981,3.393,2.36,0.449,3.036,2.378
			c-3.02-0.023,0.333,2.039,0.512,3.832l-2.113-0.942c-3.013,3.041,3.942,2.978,0.776,5.534l-2.257-2.742l-0.049,2.06l-2.218-1.467
			c0.897,2.676,0.178,3.057-1.354,4.54c1.675,0.289,3.664,2.059,2.932,3.704c-1.775,0.489-1.671-1.58-2.497,0.836
			c-1.042-1.158-2.399-2.512,0.001-2.559c-0.628-0.432-1.057-1.14-1.675-1.568c-1.996,0.472-1.769,2.765-2.154,3.591
			c0.232-0.274,0.529-0.593,0.919-0.639c0,0,0.313,1.176,0.625,2.352c0.303,1.18,0.605,2.359,0.605,2.359
			c-1.041,0.117-1.45-0.607-1.851-1.316c-0.118,0.769,0.592,1.707,0.265,2.767c-1.541-1.113-3.295-1.946-3.379-3.701l0.259,4.022
			c-0.832-0.171-2.805,0.528-3.211-0.192c-1.829,1.169,0.983,5.845-1.505,7.392c0.256,0.292,0.434,0.694,0.41,1.301
			c-1.561,1.88-4.59,2.557-3.781,6.301l-3.724-0.336c-0.473,2.291,4.77,0.29,3.967,4.123c-0.426,2.815-2.965-0.64-4.237-0.338
			c0.798,1.981,2.519,5.735-1.072,6.333C160.818,159.788,161.569,159.522,161.749,158.757z M155.087,171.301
			c0.127-1.014,0.156-3.669,0.439-1.665C155.757,173.967,155.38,172.25,155.087,171.301z M142.9,166.057
			c0.753-0.161,0.57,0.439,0.042,1.535C142.653,167.351,142.562,166.85,142.9,166.057z M70.218,73.448
			c0.042-0.009,0.073-0.016,0.12-0.033C70.439,74.897,70.43,74.347,70.218,73.448z M69.289,71.013
			c-0.404,0.046-0.626,0.277-0.791,0.572c0.543-0.279,0.95,0.086,1.258,0.643C70.082,71.693,70.168,71.182,69.289,71.013z
			 M214.844,96.898l-0.741,0.274C213.861,95.874,214.32,96.375,214.844,96.898z"/>
		<path fill="#7DB37E" d="M146.532,166.805c-0.266,0.406-0.582,0.793-0.902,1.18C145.97,167.788,146.302,167.394,146.532,166.805z"
			/>
		<path fill="#7DB37E" d="M169.312,143.477c0.029-0.015,0.036-0.043,0.063-0.06c-0.1-0.107-0.211-0.197-0.325-0.276L169.312,143.477
			z"/>
		<path fill="#7DB37E" d="M108.988,89.623c0.033,0.631-0.146,1.115-0.396,1.523C109.079,90.855,109.335,90.387,108.988,89.623z"/>
		<path fill="#7DB37E" d="M57.535,64.827l1.514,0.605c-0.612-0.422-0.455-0.97-0.474-1.493
			C58.23,64.357,57.904,65.125,57.535,64.827z"/>
		<path fill="#7DB37E" d="M56.67,45.053c-0.367,0.076-0.421-0.283-0.788-0.201l-0.619,0.879C56.11,46.282,57.21,46.054,56.67,45.053
			z"/>
		<path fill="#7DB37E" d="M61.729,58.213c1.229-1.516,0.055-1.719-0.991-2.213c0.053,0.041,0.11,0.072,0.143,0.135
			C58.822,57.934,60.27,58.066,61.729,58.213z"/>
		<path fill="#7DB37E" d="M60.501,55.878c-0.321-0.153-0.62-0.341-0.812-0.627C58.867,55.982,59.853,55.688,60.501,55.878z"/>
		<path fill="#7DB37E" d="M66.232,69.693c0.005-0.718-2.01,1.5-1.639,0.74C62.414,71.739,69.106,70.807,66.232,69.693z"/>
		<polygon fill="#7DB37E" points="65.404,52.867 64.077,54.918 65.85,53.93 		"/>
		<path fill="#7DB37E" d="M70.681,60.333c0,0-0.187-0.453-0.401-0.88c-0.212-0.43-0.425-0.86-0.425-0.86
			c-0.262,0.307-0.595,0.317-0.926,0.252C69.694,59.656,70.216,60.855,70.681,60.333z"/>
		<path fill="#7DB37E" d="M68.929,58.844c-0.388-0.432-0.825-0.774-1.332-0.713C67.842,58.329,68.387,58.734,68.929,58.844z"/>
		<polygon fill="#7DB37E" points="67.708,54.055 67.757,54.792 68.572,55.805 		"/>
		<path fill="#7DB37E" d="M83.435,74.993l1.771,1.097c0.764-0.366,0.812-1.107,0.094-1.474
			C84.559,74.612,83.854,74.246,83.435,74.993z"/>
		<path fill="#7DB37E" d="M84.456,66.142c-0.012,0.742-0.391,1.123-0.784,1.875l2.282-1.915L84.456,66.142z"/>
		<path fill="#7DB37E" d="M88.875,70.155c0.757-0.378,3.688,0.789,1.911-1.11C90.032,69.4,88.204,68.276,88.875,70.155z"/>
		<polygon fill="#7DB37E" points="103.936,96.769 103.628,96.364 99.598,99.123 		"/>
		<path fill="#7DB37E" d="M127.861,113.909c-0.142-2.717-2.914,0.941-2.715-1.688c-1.29,0.065-0.155,2.143-1.316,2.115
			C125.615,115.023,125.355,116.048,127.861,113.909z"/>
		<path fill="#7DB37E" d="M123.83,114.336c-0.284-0.111-0.611-0.214-1.017-0.29C123.288,114.267,123.591,114.328,123.83,114.336z"/>
		<polygon fill="#7DB37E" points="237.428,4.547 238.583,3.068 236.857,3.941 		"/>
		<path fill="#7DB37E" d="M234.086,1.271l3.135-0.126L234.497,0C234.604,0.359,234.811,1.059,234.086,1.271z"/>
		<path fill="#7DB37E" d="M154.326,161.349l-0.052,1.374c-0.028,1.45,0.013,1.505,0.091,1.625c0,0-0.019-0.738-0.037-1.478
			C154.327,162.11,154.326,161.349,154.326,161.349z"/>
		<path fill="#7DB37E" d="M156.844,161.918l-0.08,0.007c0,0,0.438,0.616,0.876,1.231c0.452,0.596,0.904,1.19,0.904,1.19
			s-0.429-0.603-0.857-1.205C157.266,162.531,156.844,161.918,156.844,161.918z"/>
		<path fill="#7DB37E" d="M159.231,151.299c-0.444,0.513-0.304,1.518-0.757,2.029C158.791,151.819,162.331,152.948,159.231,151.299z
			"/>
	</g>
</g>
</svg>
