<?xml version="1.0" encoding="utf-8"?>
<!-- Generator: Adobe Illustrator 16.0.0, SVG Export Plug-In . SVG Version: 6.00 Build 0)  -->
<!DOCTYPE svg PUBLIC "-//W3C//DTD SVG 1.1//EN" "http://www.w3.org/Graphics/SVG/1.1/DTD/svg11.dtd">
<svg version="1.1" id="Objects_1_" xmlns="http://www.w3.org/2000/svg" xmlns:xlink="http://www.w3.org/1999/xlink" x="0px" y="0px"
	 width="230.553px" height="151.496px" viewBox="0 0 230.553 151.496" enable-background="new 0 0 230.553 151.496"
	 xml:space="preserve">
<g>
	<g>
		<path fill="#AA2A3E" d="M228.688,151.443c0.194,0.342,1.552-1.078,1.865-1.285C229.687,150.079,228.318,151.801,228.688,151.443z"
			/>
		<polygon fill="#AA2A3E" points="220.014,150.785 220.709,150.305 218.45,151.099 		"/>
		<path fill="#AA2A3E" d="M215.058,147.302c-2.039,2.609,2.211,0.885,2.206,2.313l-0.426,0.621l2.42-1.558
			C217.86,148.22,215.117,148.466,215.058,147.302z"/>
		<path fill="#AA2A3E" d="M217.832,140.521c-0.813,1.002-1.417,0.365,0.313,0.708c0.046-0.139,0.09-0.207,0.135-0.303
			C218.158,140.863,218.013,140.759,217.832,140.521z"/>
		<path fill="#AA2A3E" d="M218.28,140.926C218.876,141.226,218.759,139.94,218.28,140.926L218.28,140.926z"/>
		<path fill="#AA2A3E" d="M215.297,139.752l1.563-0.313c0.433-0.625-0.052-1.171,0.596-1.393
			C216.27,137.987,215.842,138.61,215.297,139.752z"/>
		<path fill="#AA2A3E" d="M212.81,140.963l0.728-0.087C213.717,140.613,213.705,140.47,212.81,140.963z"/>
		<path fill="#AA2A3E" d="M215.076,140.695l-1.539,0.181c-0.306,0.438-1.108,1.186,0.63-0.014
			C213.361,141.495,214.226,140.95,215.076,140.695z"/>
		<path fill="#AA2A3E" d="M215.123,141.341c-0.158,0.767-0.001,1.427-1.563,1.734C215.227,143.68,216.798,141.939,215.123,141.341z"
			/>
		<path fill="#AA2A3E" d="M212.207,149.485l-0.218,1.028l1.29-0.454C212.639,150.283,212.962,148.748,212.207,149.485z"/>
		<path fill="#AA2A3E" d="M212.291,135.582c-0.577,0.455-1.191,1.455-1.823,2.111l1.123-0.202
			C211.694,136.977,211.534,136.325,212.291,135.582z"/>
		<path fill="#AA2A3E" d="M210.468,137.693l-1.682,0.304C209.361,138.569,209.922,138.26,210.468,137.693z"/>
		<polygon fill="#AA2A3E" points="209.899,143.412 213.08,142.531 209.631,143.268 		"/>
		<polygon fill="#AA2A3E" points="209.439,133.495 211.109,132.672 208.471,133.834 		"/>
		<path fill="#AA2A3E" d="M207.288,132.349c1.345-0.709,1.294-1.881,2.263-2.219c-0.708-0.199-2.037,0.29-3.231,0.729
			C207.19,130.755,207.534,131.176,207.288,132.349z"/>
		<path fill="#AA2A3E" d="M204.488,131.435c0.46-0.074,1.122-0.32,1.831-0.576C205.854,130.914,205.291,131.068,204.488,131.435z"/>
		<path fill="#AA2A3E" d="M207.75,136.854c0.264-0.334,0.995-1.181,0.925-1.803l-1.203,1.574
			C207.554,136.696,207.652,136.774,207.75,136.854z"/>
		<path fill="#AA2A3E" d="M207.435,136.676l0.037-0.051c-0.293-0.257-0.485-0.445-0.565-0.527
			C206.976,136.168,207.137,136.34,207.435,136.676z"/>
		<path fill="#AA2A3E" d="M207.818,136.913c-0.023-0.022-0.041-0.04-0.068-0.06C207.631,137.008,207.599,137.065,207.818,136.913z"
			/>
		<path fill="#AA2A3E" d="M209.257,140.785c-1.289,0.452-3.127,0.622-3.503,2.415C207.105,142.489,207.316,141.466,209.257,140.785z
			"/>
		<path fill="#AA2A3E" d="M206.313,138.88l0.469,0.875c0.381-0.371,0.813-0.999,1.452-1.224L206.313,138.88z"/>
		<polygon fill="#AA2A3E" points="205.438,139.038 206.313,138.88 206.14,138.556 		"/>
		<path fill="#AA2A3E" d="M204.472,133.678c-1.004,0.352-1.442,0.135-1.98-0.07c0.169,0.591,0.489,1.069,0.947,1.383
			C203.976,134.605,205.022,133.975,204.472,133.678z"/>
		<path fill="#AA2A3E" d="M205.779,135.255c-0.058,0.015-0.106,0.009-0.163,0.024C205.536,135.428,205.533,135.491,205.779,135.255z
			"/>
		<path fill="#AA2A3E" d="M198.237,130.639c-0.059,0.092-0.142,0.199-0.204,0.296c0.094-0.076,0.181-0.15,0.275-0.225
			L198.237,130.639z"/>
		<path fill="#AA2A3E" d="M203.237,135.299c0.059,0.506,0.635,0.316,1.297,0.033c-0.412-0.044-0.786-0.147-1.096-0.342
			C203.197,135.164,203.051,135.287,203.237,135.299z"/>
		<path fill="#AA2A3E" d="M202.597,131.247c-0.133,0.412-0.192,0.797-0.222,1.171C202.673,131.861,203.052,130.937,202.597,131.247z
			"/>
		<path fill="#AA2A3E" d="M205.914,134.818c0.041-0.009,0.084-0.023,0.119-0.023C206.241,134.422,206.098,134.575,205.914,134.818z"
			/>
		<path fill="#AA2A3E" d="M205.914,134.818c-0.396,0.073-0.909,0.312-1.38,0.514c0.331,0.039,0.688,0.03,1.082-0.053
			C205.68,135.151,205.797,134.976,205.914,134.818z"/>
		<path fill="#AA2A3E" d="M187.298,138.513c1.454-1.223,3.659-1.758,2.957,0.15c1.823-0.408,5.896-4.928,7.778-7.729
			c-0.633,0.536-1.193,1.046-2.819,1.237c-0.479,0.887,0.001,2.853-1.936,3.529c-1.78-0.085-0.378-1.053-0.158-2.081
			c-1.296,1.884-3.877,1.358-6.198,3.839l1.83-0.169C188.372,137.662,187.401,138.004,187.298,138.513z"/>
		<path fill="#AA2A3E" d="M199.418,132.124l0.504,0.072c-0.134-0.481,0.152-1.175,0.748-2.51c-1.229,0.236-1.86,0.628-2.361,1.023
			l1.431,1.304L199.418,132.124z"/>
		<path fill="#AA2A3E" d="M201.408,133.22c-1.773,1.199-3.211,1.234-4.365,3.063c1.072,0.577,1.943-0.68,3.181-0.876
			c-1.939-0.743,1.293-0.457,1.023-2.021c0.563-0.021,0.92,0.099,1.244,0.222c-0.098-0.362-0.142-0.758-0.116-1.189
			c-0.02,0.04-0.036,0.071-0.059,0.11h0.012c-0.01,0.01-0.016,0.012-0.025,0.021c-0.121,0.219-0.214,0.34-0.181,0.187
			c-0.023,0.014-0.049,0.007-0.063,0.006c-0.223,0.185-0.435,0.331-0.643,0.471c-0.141-0.599,0.322-0.407,0.643-0.471
			c0.079-0.064,0.163-0.121,0.243-0.192c0.008-0.009,0.01-0.015,0.014-0.021l-2.395-0.332
			C200.042,132.617,200.499,132.866,201.408,133.22z"/>
		<path fill="#AA2A3E" d="M201.66,145.584c0.085-0.156,0.195-0.252,0.302-0.355C201.676,145.327,201.511,145.417,201.66,145.584z"/>
		<path fill="#AA2A3E" d="M201.932,144.306c0.325-0.114,1.026-0.599,1.24-0.2c-0.135,0.637-0.729,0.659-1.21,1.123
			c0.625-0.21,1.867-0.446,1.905-1.602l-0.316,0.11c-0.11-0.91,0.971-3.191,1.289-3.304
			C203.659,141.801,202.851,142.798,201.932,144.306z"/>
		<path fill="#AA2A3E" d="M201.239,139.082l-2.048-0.229l-0.647,1.653l0.754-0.74C199.73,140.563,200.54,139.569,201.239,139.082z"
			/>
		<polygon fill="#AA2A3E" points="198.842,129.85 200.615,128.515 197.603,130.047 		"/>
		<polygon fill="#AA2A3E" points="196.956,128.849 198.412,127.626 197.125,128.079 		"/>
		<path fill="#AA2A3E" d="M84.104,78.196l-0.777,0.093C83.629,78.304,83.878,78.264,84.104,78.196z"/>
		<path fill="#AA2A3E" d="M86.781,80.207l0.754-0.576C87.028,79.885,86.697,80.102,86.781,80.207z"/>
		<path fill="#AA2A3E" d="M155.2,100.113c0.742-1.569,2.136-3.835,0.636-2.365l-1.353,1.506
			C155.145,99.276,155.274,99.638,155.2,100.113z"/>
		<path fill="#AA2A3E" d="M117.6,88.617c-0.095,0.171-0.199,0.354-0.301,0.535c0.658-0.38,1.27-0.732,1.837-1.065
			C118.661,88.259,118.144,88.433,117.6,88.617z"/>
		<path fill="#AA2A3E" d="M110.892,94.085l0.248-1.405C110.961,93.107,110.87,93.569,110.892,94.085z"/>
		<path fill="#AA2A3E" d="M67.342,69.154l-2.001,1.103C66.049,70.734,66.524,69.809,67.342,69.154z"/>
		<path fill="#AA2A3E" d="M179.046,117.316c0.114-0.876-0.017-1.369-0.279-1.671C178.471,116.845,177.624,118.363,179.046,117.316z"
			/>
		<path fill="#AA2A3E" d="M101.387,64.231c-0.511,0.089-0.922,0.302-1.255,0.616C100.635,64.778,101.063,64.607,101.387,64.231z"/>
		<path fill="#AA2A3E" d="M177.371,114.686c-0.069,0.197-0.063,0.325-0.104,0.503c0.607,0.012,1.168,0.07,1.5,0.457
			C178.99,114.755,178.901,114.05,177.371,114.686z"/>
		<path fill="#AA2A3E" d="M13.686,29.88c0.027-0.09,0.013-0.153,0.058-0.253C13.525,29.806,13.569,29.854,13.686,29.88z"/>
		<path fill="#AA2A3E" d="M13.082,4.774c0.253,0.022,0.511,0.2,0.774,0.35C13.843,4.946,13.634,4.818,13.082,4.774z"/>
		<path fill="#AA2A3E" d="M190.807,123.512C191.267,123.671,191.032,123.398,190.807,123.512L190.807,123.512z"/>
		<path fill="#AA2A3E" d="M186.52,130.21c-0.248,0.104-0.523,0.263-0.885,0.575C186.031,130.473,186.314,130.294,186.52,130.21z"/>
		<path fill="#AA2A3E" d="M164.295,120.836c-0.01-0.008-0.014-0.019-0.025-0.027C164.077,121.154,164.116,121.09,164.295,120.836z"
			/>
		<path fill="#AA2A3E" d="M190.654,124.519c0.053-0.265,0.054-0.515-0.006-0.731C190.604,123.946,190.596,124.177,190.654,124.519z"
			/>
		<path fill="#AA2A3E" d="M191.303,123.812c0.055,0.148,0.115,0.25,0.166,0.353C191.769,123.964,191.888,123.791,191.303,123.812z"
			/>
		<path fill="#AA2A3E" d="M190.225,123.239c0.229,0.121,0.35,0.319,0.424,0.548c0.032-0.144,0.089-0.242,0.158-0.275
			C190.679,123.461,190.499,123.386,190.225,123.239z"/>
		<path fill="#AA2A3E" d="M47.195,46.595c0.024-0.061,0.028-0.107,0.067-0.185C46.267,46.734,46.527,46.753,47.195,46.595z"/>
		<path fill="#AA2A3E" d="M130.005,108.027c0.031-0.001,0.08-0.031,0.114-0.038c-0.001-0.025-0.001-0.06,0.001-0.085
			L130.005,108.027z"/>
		<path fill="#AA2A3E" d="M127.578,108.166c2.448-1.346,2.526-0.917,2.542-0.262l3.973-4.297L127.578,108.166z"/>
		<path fill="#AA2A3E" d="M77.024,73.986l-0.464,1.875c-3.351,1.292-3.364,0.036-4.442,2.38c4.906-4.255,4.012,1.999,8.91-2.252
			l-0.407,1.329c-0.125-0.161-0.434,0.075-0.555-0.086c-1.126,2.886,4.316-2.54,5.133-0.883c0.156,0.694-0.174,1.578-1.096,1.847
			l2.344-0.268c0.245,0.319-0.668,1.016-0.912,0.698l2.153,0.885l-0.153,0.119c1.002-0.507,2.733-1.161,3.507-1.415
			c-0.235,0.936-0.733,0.304-1.214,0.926l2.139-0.371c-0.838,1.403-2.853,1.93-3.354,1.299c-3.852,4.972,2.017-0.527,1.21,3.377
			l-1.533-0.092c-2.111,2.878-0.407,2.487-1.048,4.752c0.634-0.976,2.159-5.327,4.415-5.67c-0.062,0.536,0.163,0.967,1.699,0.492
			c-1.693,1.547-0.716,1.558,0.084,1.958l-2.298,2.012c1.408-0.063,2.493-1.146,3.953-1.757c0.625,0.788-0.942,2.495-2.212,3.968
			c0.997,1.266,1.858-3.188,3.887-2.462c0.267,1.565,1.977,1.278,4.671,0.99c0.014,1.252-1.514,1.155-1.875,1.938l2.494-1.146
			c0.129,0.157-0.479,0.621-0.784,0.854c1.284-0.223,2.296-2.01,3.834-1.923c2.728-2.079-1.72,4.613,2.239,2.851
			c-0.355,0.776-1.514,1.158-2.299,2.01c3.419-0.587,2.689-0.283,6.466-1.646l-0.377,2.106c0.882-2.098,3.913-3.197,6.46-4.063
			c0.529-0.94,0.998-1.759,1.174-2.183l2.65-0.096c-0.194,0.457-1.112,1.058-2.288,1.748c0.284-0.101,0.561-0.202,0.804-0.307
			c-0.314,1.113-1.881,2.108-3.508,2.995c0.268-0.525,0.566-1.078,0.867-1.623c-1.724,0.995-3.57,2.14-4.813,3.388
			c0.354-0.17,0.758-0.248,1.081-0.224c-0.464,0.272-0.854,0.533-1.036,0.768c-0.188,0.249,0.461-0.099,1.271-0.457l-2.18,2.508
			l1.076-0.851l0.318,2.738c3.876-1.357,8.768-3.92,11.948-3.372c-2.371,1.303-3.118,2.65-5.326,4.612
			c1.722-2.503-2.642-0.262-3.285-1.46c0.339,0.623-0.827,1.479-1.338,1.706l4.081-0.531c-1.827,1.589-0.915,1.507-1.134,2.536
			c3.132-3.474,3.824-1.107,5.711-1.529c-1.134,1.11-2.534,2.074-3.233,1.132c-1.566,3.164,5.54-2.787,4.354,0.001
			c-0.271-0.141-0.218-0.396-0.913,0.085c1.612-0.566,2.151,1.144,0.798,1.855l-0.264-0.144c1.178,1.486,4.831,3.395,8.06,0.84
			c-0.37,0.363-3.814,3.134-4.516,3.616l12.911-7.175c-2.819,2.162-7.976,8.394-10.75,8.794c0.014,0.597,0.057,1.311,1.765,1.043
			c0.106-0.513,3.068-3.826,3.657-3.794c-1.889,3.276-0.854,1.859-2.096,4.908c0.163-0.771,4.624-4.134,5.108-3.591
			c-0.699,0.481-3.926,3.651-4.569,3.877l5.482-2.534c-1.094,0.382-3.42,3-4.196,4.253c0.616-0.813,1.249,0.982,2.049,0.909
			l0.269-1.282c1.128,1.741,7.267-3.874,8.77-2.498c-1.024,0.601-5.539,4.217-5.167,5.273c2.425-1.565,11.511-7.632,14.584-7.999
			l-0.868,1.254l2.481-0.393c-3.772,2.269-12.216,6.691-15.82,8.19c-0.271,1.281-1.185,1.365-0.113,1.941
			c-0.745,1.224-2.175,1.132-2.521,0.992l1.549,2.198c2.267-2.22,4.093-0.961,5.978-2.811l-4.896,0.531
			c2.261-2.215,8.125-5.12,9.302-3.634c-0.535,1.137-4.512,3.615-5.268,4.354c1.021-0.596,3.068-0.361,2.638,0.265l-1.94,0.68
			c-0.002,1.425,4.583-1.844,3.394,0.948c0.217,0.393-1.946,3.532-0.482,2.304c2.098-2.87,10.326-10.539,12.753-12.104
			c-0.053,0.255-0.646,3.688-1.559,5.19c-1.509,2.345-5.952,3.952-7.252,5.962c0.667-0.571,1.8-1.063,2.194-1.199
			c-0.164,0.77-2.161,1.708-1.028,2.025c2.538-2.082,1.507,1.371,2.425-1.566c1.507-0.052,0.38,1.055,1.45,1.63
			c1.242-1.622,6.138-4.191,7.646-4.241c-0.658,0.521-1.267,1.369-1.54,1.763c1.469,1.365,1.284,2.982,2.835,4.093
			c-0.436,0.628-0.38,1.793-1.734,2.507c0.65-0.229,1.67-0.823,2.214-0.539c-1.136,2.534-1.404-0.457-3.18,2.303
			c1.453-1.224,3.175-0.877,4.736-1.189c1.938-2.104-1.183-1.481-2.743-1.172c2.964-2.7,7.275-4.69,10.29-4.798
			c2.043,0.236-1.352,2.137-0.703,1.91c1.933,2.174,7.271-3.262,7.165,0.098c-1.083,2.28-3.726,3.446-4.91,4.811
			c-1.779-0.087-0.433-2.225-1.229-2.656l-0.007,1.43c-0.967,0.337-2.154,0.278-1.993-0.489c-1.022,2.015,3.815,3.172,4.139,5.911
			c0.97-0.344,2.206-0.537,2.692-1.42l-0.863-0.175c0.976-1.768,3.235-1.136,3.191-2.309c1.873-0.417,4.458-1.323,4.726,0.244
			l-1.944,2.109c0.606-0.59,0.547-1.682-0.428-1.306c1.426-0.54-1.187,3.856,2.153,1.648l0.701-1.908
			c1.891-0.425,5.176-1.815,5.497-0.501c1.674-2.253-0.475,0.062,1.306-2.698c-2.483,3.246-2.433-1.897-4.699,1.753
			c2.162-3.137-0.037-1.993,1.475-4.897c-0.682,0.667-1.022,1.471-1.513,0.569c-0.246,0.162-0.6,0.341-0.811,0.441
			c-0.007-0.035-0.005-0.053-0.004-0.087c-0.011,0.036-0.029,0.072-0.038,0.108c-0.143,0.071-0.169,0.09-0.012,0.038
			c-0.111,0.422-0.322,0.875-0.653,1.281c-2.051,1.194-3.336,0.22-4.634,0.674c-0.16-0.654,1.024-0.597,1.511-1.476l-1.938,0.68
			c1.514-1.482,1.299-3.306,3.399-3.331l-0.988-0.798c0.264-1.238-0.24-2.153-1.434-1.916c-0.156-0.656-3.008,0.716-1.337-0.107
			l-2.638-0.262l0.38-0.37c-1.438-1.317-5.986,0.039-5.006-3.852c-0.95-0.021-2.008,0.027-2.48-1.02l1.187-1.367
			c-1.185-0.058-0.758-2.719-2.485-1.635c2.913-3.873-2.632-3.113-3.224-4.57l-1.832,1.59c-0.754-0.688-2.082-0.797-3.862-0.884
			l-1.511,1.479c-2.212,0.54-1.235-2.655-2.847-3.516c0.701-0.479,0.911-0.08,0.808,0.432c1.829-4.441-6.246-0.182-5.223-3.632
			c-0.965,0.25-1.053-0.124-0.931-0.675c0.04,0.021,0.103,0.018,0.18-0.008c-0.021-0.046-0.077-0.09-0.142-0.129
			c0.098-0.367,0.236-0.777,0.296-1.141c-0.22,0.462-0.379,0.857-0.388,1.085c-0.334-0.18-0.988-0.32-1.832-0.272l1.503-1.672
			c-0.06-0.005-0.085-0.028-0.152-0.028c0.185-0.874-1.156,0.483-2.195,1.805c-0.504,0.097-1.046,0.256-1.616,0.517
			c2.377-2.734-2.098,0.02,0.33-2.97c-1.725,1.082-3.327-0.595-6.558,1.96c0.375-0.365,0.429-0.626,0.695-0.479
			c-0.159-0.658-0.319-1.314-1.611-0.859l1.94-2.105l-3.987,1.874c0.648-1.653,1.135-2.538,3.452-3.587
			c-4.141,1.212-2.252-0.024-6.131,1.333l1.458-1.22c-0.537-0.288-3.175,0.871-2.315-0.378c1.563-3.157-4.99-4.05-5.31-8.214
			c-3.56,4.101,0.547-2.567-2.74,0.245c0.807-0.992,0.967-1.76,2.261-2.214c-2.37-0.118-0.594-2.877-4.251-1.12
			c0.812-0.998,1.725-1.082,2.156-1.705c-0.323,0.111-1.294,0.454-0.862-0.175c0.432-0.625,1.021-0.597,1.669-0.824
			c-1.611-0.857-4.747,1.758-7.656,4.234c0.594-1.717,0.04-1.801-2.329-0.497c0.661-1.011,1.195-2.179,2.425-1.854
			c-0.372-0.474-1.747-3.37-4.048-1.361c0.411-0.629-0.54-0.644-0.933-0.5c-1.003-0.91-0.899-1.164-2.228-1.745l-0.06,0.55
			c-3.151,2.158-1.531-0.095-2.757-0.423l0.305-0.235c-0.106-3.209-1.828,0.235-1.63-3.207l-1.576,1.61
			c-3.818,3.167,0.338-3.196-2.23-2.754l-0.538,1.171c-1.886,0.682,3.133-5.736,2.938-6.598c0.176-0.386,0.729-0.307,1.161-0.382
			c0.443-3.122-2.431,1.856-4.207,1.446c0.959-1.245,3.331-2.547,2.702-3.339c0.542-1.171-6.336,1.806-5.21-1.077
			c-0.663,1.013-1.326,2.022-2.604,2.242c-1.228-0.325,1.041-4.845-2.667-2.776c0.137-0.307,0.334-0.556,0.558-0.767
			c-1.435,0.202-3.476-0.422-5.459,0.718c5.191-5.739-7.108-0.391-1.72-5.267l-2.401-1.206l0.604-0.461
			c-0.996-1.262-2.763-0.422-4.527,0.421c0.054-0.55,0.783-0.847,1.09-1.085c-0.892-2.356-1.316-2.285-5.649-1.002l1.571-1.703
			c-1.463,0.609-0.122-4.468-4.092-3.964c0.216-0.166,0.595-0.446,0.994-0.563c-4.226,0.347-0.382-8.018-7.53-2.801l-3.003,0.424
			c1.368,1.74-3.031,2.313-3.32,3.803c-1.104-0.17,0.023-3.056,1.248-2.727L67.76,49.82c3.64-2.779-1.139-2.671,1.164-4.685
			c-3.825-2.394-5.562-6.537-8.851-9.046l-2.178,2.612l-1.048-0.964c0.285-0.763,1.592-2.122,2.338-1.434
			c1.01-1.637-2.651,0.116-3.236,0.608c-0.628-2.107,3.652-2.273,3.202-2.687l-0.889-0.308l-0.144,0.382
			c-1.614,0.564-2.779,1.542-3.678,0.715c-0.134-0.919,1.253-1.674,1.098-1.942c0.184-0.164,0.183-0.302-0.318-0.339l-1.288-1.246
			l-1.429,2.266c-1.669,0.447-1.311-1.081-2.916,1.494c2.526-3.935-4.349-5.062-3.874-6.497c-2.416,0.695-3.314,0.031-4.28-0.926
			c-0.138,0.581-2.251,2.776-2.959,1.837c5.074-4.033,0.238-3.114,2.831-6.749c-1.535,2.538-3.36-1.443-5.435,2.235
			c-0.441-0.919,1.714-1.638,2.198-3.081c-3.785,0.3-3.132-4.077-6.171-5.198c-0.656,0.536-1.196,1.679-2.637,2.154l1.813-3.699
			c-0.781-0.057-4.011,2.939-2.737,0.381c-0.397,0.559-0.998,1.4-1.518,1.357c-1.73-6.035-12.166-4.487-11.321-12.982
			c-0.547,1.544-1.1,1.35-1.643,1.044c0.036,0.485-1.537,1.385-2.311,2.19l0.312-3.518C9.162,5.656,9.536,2.438,7.102,4.313
			l1.038,0.08C4.664,6.191,3.493,10.524,0,13.501c3.937-2.053-1.911,5.761,3.922,2.96c-0.343,0.863-1.379,0.782-1.976,1.621
			c1.839-1.039,2.618-0.979,2.855,0.224l-0.457,0.255c2.841,1.407,2.483,3.442,4.33,6.243l1.459-1.657
			c0.378,0.62-0.019,1.182-0.155,1.757c3.217-1.817-1.543-1.301,1.87-3.397c-2.594,3.636,4.184,2.987,0.87,6.862
			c0.903,0.661,1.657-1.94,2.56-1.279l-0.799,1.118l1.577-1.059c0.384,0.622-0.613,2.019-1.474,2.837
			c-0.042-0.197-0.665-0.065-0.897-0.105c-0.443,1.661,2.633,1.156,2.503,1.707l-0.245-1.2c3.497,0.864,5.206,4.245,9.762,4.01
			l0.602-0.844c3.315-0.03,0.626,1.82,3.343,2.626l-0.263,0.118c1.192-0.428,2.133-0.408,2.604,0.061
			c-1.437,0.479-0.82,2.301-2.514,2.757c3.577-0.019,2.223-0.421,6.477-2.152l-0.996,1.398c1.634-0.758,2.294-1.297,3.652-0.896
			c-1.956,0.438-1.337,2.26-3.754,2.954c-0.712,4.08,6.06-0.412,2.869,4.063c4.594-2.6,0.152-3.107,1.476-3.429
			c0.718-1.393,3.509-1.889,3.818-1.094c0.603,0.549-3.455,5.006-1.666,6.137c-0.153-0.134-0.438,0.106-0.595-0.026
			c-0.276,1.283,2.509-0.258,1.802,1.65c2.626-1.677,0.9,0.826,3.812-1.616l-2.222-0.51c1.622-0.042,5.719-2.421,5.613,0.038
			c-0.677,0.432-1.854,0.798-2.567,0.964c-0.39,1.045,1.374,0.081,0.979,1.157c-2.915,2.445-2.524-0.78-5.607,0.486
			c-0.713,1.391,3.831-0.576,0.332,1.833c4.529-3.008,1.211,1.616,5.306-0.238l-1.747,1.465c0.448-0.111,1.618-0.563,1.914-0.289
			l-2.778,1.541c2.79-1.023,0.204,2.729,2.113,2.444c-1.945-1.268,1.587-2.123,2.004-3.786c4.569-0.409-3.022,4.902,0.393,5.989
			c-0.589-0.032-0.326-1.835,1.001-2.152c0.153,0.658,0.171,1.696-0.4,2.705c2.08,0.888,1.452-1.746,3.215-2.166
			c-1.443,2.258,1.679-0.162,3.09-0.227l-1.692,1.547c0.887,2.36,4.06-2.852,4.521-0.422l-3.104,1.618l1.535,0.09l-2.122,1.622
			c2.44-0.602,2.383-0.047,2.83,1.131c0.966-1.246,3.209-2.71,4.137-2.151c-0.412,1.331-1.947,1.234-0.465,1.874
			c-1.342,0.771-2.98,1.771-1.957-0.025c-0.608,0.464-1.341,0.776-1.944,1.234c-0.516,1.499,1.351,1.36,1.814,1.658
			c-0.109-0.178-0.225-0.404-0.089-0.697l4.148-0.891c-0.354,0.776-1.091,1.086-1.813,1.387c0.547,0.086,1.578-0.448,2.26-0.209
			c-1.518,1.157-2.908,2.475-4.314,2.539l3.242-0.203c-0.484,0.624-0.769,2.107-1.499,2.416c0.139,1.396,5.005-0.816,5.193,1.03
			c0.333-0.198,0.721-0.341,1.186-0.334c0.87,1.105,0.227,3.37,3.519,2.625l-1.677,2.801c1.659,0.251,2.038-3.58,4.8-3.159
			c2.081,0.183-1.627,2.253-1.861,3.194c1.891-0.687,5.546-2.216,4.722,0.439C77.519,74.622,77.576,74.074,77.024,73.986z
			 M91.661,82.391c-0.617,0.141-2.239,0.777-1.431-0.267C92.474,80.564,91.774,81.571,91.661,82.391z M116.332,92.967
			c-0.757,0.375-0.78-0.088-0.479-0.908C116.239,92.104,116.456,92.355,116.332,92.967z M185.488,122.033
			c-0.038,0.018-0.066,0.03-0.109,0.056C185.455,121.082,185.401,121.464,185.488,122.033z M185.968,123.547
			c0.359-0.131,0.585-0.351,0.771-0.601c-0.515,0.331-0.816,0.167-1.007-0.157C185.374,123.253,185.225,123.641,185.968,123.547z
			 M54.778,33.549l-0.206,0.567C53.549,34.189,54.14,33.892,54.778,33.549z"/>
		<path fill="#AA2A3E" d="M111.677,93.456c0.212-0.311,0.507-0.613,0.809-0.916C112.098,92.729,111.766,93.026,111.677,93.456z"/>
		<path fill="#AA2A3E" d="M67.712,68.95c-0.001-0.022-0.02-0.026-0.022-0.045c-0.124,0.075-0.24,0.161-0.348,0.249L67.712,68.95z"/>
		<path fill="#AA2A3E" d="M152.754,123.557c-0.005-0.396,0.166-0.775,0.395-1.132C152.719,122.794,152.481,123.19,152.754,123.557z"
			/>
		<path fill="#AA2A3E" d="M195.291,125.397l-1.219-0.14c0.46,0.185,0.223,0.615,0.145,0.992
			C194.596,125.877,195.021,125.253,195.291,125.397z"/>
		<path fill="#AA2A3E" d="M191.55,139.634c0.321-0.11,0.263,0.146,0.587,0.033l0.758-0.739
			C192.357,138.639,191.383,138.98,191.55,139.634z"/>
		<path fill="#AA2A3E" d="M190.375,131.022c-1.365,1.341-0.394,1.239,0.417,1.377c-0.038-0.018-0.082-0.028-0.098-0.066
			C192.853,130.628,191.61,130.826,190.375,131.022z"/>
		<path fill="#AA2A3E" d="M190.966,132.443c0.235,0.057,0.444,0.142,0.54,0.317C192.37,132.078,191.469,132.468,190.966,132.443z"/>
		<path fill="#AA2A3E" d="M188.455,123.757c-0.108,0.514,1.988-1.547,1.553-0.916C192.113,121.39,186.085,123.643,188.455,123.757z"
			/>
		<polygon fill="#AA2A3E" points="186.113,135.604 187.68,133.866 185.954,134.945 		"/>
		<path fill="#AA2A3E" d="M183.101,131.439l0.385,1.048c0.282-0.277,0.565-0.358,0.834-0.385
			C183.841,131.678,183.603,130.95,183.101,131.439z"/>
		<path fill="#AA2A3E" d="M184.319,132.103c0.246,0.227,0.55,0.377,0.993,0.222C185.143,132.237,184.759,132.063,184.319,132.103z"
			/>
		<polygon fill="#AA2A3E" points="184.394,135.258 184.503,134.745 184.018,134.2 		"/>
		<path fill="#AA2A3E" d="M174.074,124.627l-1.456-0.2c-0.701,0.481-0.813,0.997-0.218,1.024
			C173.05,125.227,173.637,125.26,174.074,124.627z"/>
		<path fill="#AA2A3E" d="M172.124,131.012c0.108-0.512,0.484-0.881,0.92-1.51l-2.214,1.966L172.124,131.012z"/>
		<path fill="#AA2A3E" d="M168.84,129.55c-0.7,0.485-3.119,0.623-1.776,1.335C167.762,130.405,169.217,130.609,168.84,129.55z"/>
		<polygon fill="#AA2A3E" points="157.274,117.091 157.544,117.232 161.091,113.951 		"/>
		<path fill="#AA2A3E" d="M136.074,116.113c0.27,1.563,2.479-1.823,2.425-0.143c1.111-0.586,0.043-1.373,1.045-1.85
			C137.971,114.461,138.118,113.755,136.074,116.113z"/>
		<path fill="#AA2A3E" d="M139.544,114.121c0.25-0.052,0.537-0.128,0.892-0.253C140.016,113.934,139.751,114.025,139.544,114.121z"
			/>
		<polygon fill="#AA2A3E" points="12.351,1.183 12.373,0 11.637,1.419 		"/>
		<path fill="#AA2A3E" d="M8.303,2.632l2.111-2.193l-2.5,1.576C8.178,2.036,8.693,2.077,8.303,2.632z"/>
		<path fill="#AA2A3E" d="M89.075,87.97l0.605-0.462c0.481-0.618,0.357-0.776,0.11-1.096L89.075,87.97z"/>
		<polygon fill="#AA2A3E" points="80.955,79.594 81.078,79.753 82.827,77.656 		"/>
		<path fill="#AA2A3E" d="M70.074,76.26c0.251,0.313,1.107,0.168,1.358,0.483C70.325,76.572,72.558,73.856,70.074,76.26z"/>
	</g>
</g>
</svg>
