<?xml version="1.0" encoding="utf-8"?>
<!-- Generator: Adobe Illustrator 16.0.0, SVG Export Plug-In . SVG Version: 6.00 Build 0)  -->
<!DOCTYPE svg PUBLIC "-//W3C//DTD SVG 1.1//EN" "http://www.w3.org/Graphics/SVG/1.1/DTD/svg11.dtd">
<svg version="1.1" id="OBJECTS" xmlns="http://www.w3.org/2000/svg" xmlns:xlink="http://www.w3.org/1999/xlink" x="0px" y="0px"
	 width="668px" height="100.118px" viewBox="0 0 668 100.118" enable-background="new 0 0 668 100.118" xml:space="preserve">
<g>
	<defs>
		<rect id="SVGID_1_" width="668" height="100.118"/>
	</defs>
	<clipPath id="SVGID_2_">
		<use xlink:href="#SVGID_1_"  overflow="visible"/>
	</clipPath>
	<g clip-path="url(#SVGID_2_)">
		<path fill="#EDF4EE" d="M157.356,46.076c-0.205,0-0.405,0.017-0.606,0.031c-0.514-6.945-6.298-12.424-13.375-12.424
			c-7.395,0-13.391,5.979-13.423,13.367c-1.11-0.619-2.387-0.974-3.748-0.974c-0.412,0-0.813,0.042-1.208,0.104
			c0-0.035,0.005-0.069,0.005-0.104c0-7.984-6.473-14.458-14.458-14.458c-6.61,0-12.171,4.441-13.895,10.498
			c-0.854-0.302-1.77-0.475-2.727-0.475c-2.419,0-4.587,1.055-6.087,2.722c-2.48-3.22-6.362-5.303-10.74-5.303
			c-1.862,0-3.635,0.376-5.25,1.055c-0.106-3.523-2.646-6.433-6.006-7.081c-0.377-8.191-7.118-14.722-15.402-14.722
			c-1.816,0-3.552,0.33-5.17,0.906c-0.911-5.597-5.754-9.874-11.608-9.874c-1.04,0-2.043,0.148-3.004,0.401
			c-3.665-4.613-9.313-7.581-15.663-7.581C9.015,2.167,3.666,4.801,0,8.956v26.436v19.812"/>
		<path fill="#EDF4EE" d="M668,75.939V33.991V11.013c-3.187-3.611-7.836-5.901-13.03-5.901c-5.52,0-10.429,2.58-13.614,6.59
			c-0.836-0.22-1.708-0.349-2.611-0.349c-5.089,0-9.299,3.717-10.09,8.583c-1.407-0.501-2.916-0.788-4.494-0.788
			c-7.201,0-13.061,5.676-13.389,12.796c-2.92,0.563-5.128,3.092-5.221,6.154c-1.403-0.59-2.944-0.917-4.563-0.917
			c-3.806,0-7.181,1.811-9.336,4.61c-1.304-1.449-3.188-2.366-5.291-2.366c-0.832,0-1.627,0.15-2.37,0.413
			c-1.498-5.265-6.332-9.125-12.077-9.125c-6.94,0-12.566,5.626-12.566,12.566c0,0.031,0.004,0.06,0.004,0.09
			c-0.343-0.054-0.691-0.09-1.05-0.09c-1.184,0-2.293,0.309-3.258,0.847c-0.027-6.421-5.239-11.619-11.667-11.619
			c-3.355,0-6.369,1.424-8.495,3.691c-5.275-1.073-10.492,0.373-14.394,3.526c-0.768-0.397-1.591-0.713-2.473-0.91
			c-4.966-1.11-9.885,1.6-11.719,6.175c-1.264-0.795-2.673-1.404-4.214-1.749c-7.028-1.571-13.984,2.691-15.856,9.568
			c-2.974-0.087-5.68,1.899-6.438,4.868c-1.241-0.882-2.674-1.538-4.253-1.89c-3.714-0.83-7.402,0.202-10.116,2.463
			c-0.957-1.699-2.596-3.004-4.647-3.463c-0.813-0.182-1.621-0.208-2.403-0.115c-0.313-5.465-4.189-10.286-9.797-11.539
			c-6.773-1.514-13.491,2.75-15.005,9.523c-0.006,0.03-0.009,0.06-0.015,0.089c-0.323-0.128-0.656-0.239-1.006-0.317
			c-1.154-0.258-2.305-0.198-3.364,0.116c1.374-6.272-2.579-12.482-8.852-13.884c-6.003-1.341-11.948,2.21-13.701,8.004
			c-0.168-0.05-0.335-0.102-0.509-0.141c-3.981-0.89-7.93,1.617-8.819,5.598c-0.001,0.004-0.001,0.008-0.002,0.012
			c-0.079-0.021-0.154-0.047-0.234-0.065c-1.025-0.229-2.049-0.24-3.022-0.063c-1.781-1.882-4.123-3.271-6.843-3.879
			c-7.269-1.624-14.478,2.951-16.102,10.22c-0.003,0.015-0.004,0.029-0.008,0.044c-0.235-0.081-0.477-0.152-0.726-0.208
			c-3.634-0.812-7.238,1.476-8.051,5.11c-0.813,3.634,1.476,7.238,5.109,8.05"/>
		<g>
			<path fill="#8BCE2C" d="M458.229,63.713c-67.977,2.358-126.361,10.57-162.66,22.048c17.803,4.157,32.5,9.008,43.264,14.356H668
				v-22.81c-43.713-8.84-103.485-14.29-169.415-14.29C484.834,63.018,471.355,63.258,458.229,63.713z"/>
			<path fill="#8BCE2C" d="M295.57,85.762c-40.49-9.453-96.979-15.324-159.485-15.324c-24.604,0-48.272,0.912-70.404,2.591
				C41.722,74.846,19.574,77.567,0,81.012v11.004v1v7.102h338.834C328.069,94.77,313.373,89.918,295.57,85.762z"/>
			<path fill="#9FD33A" d="M442.561,58.909c-6.351-1.707-12.763-3.18-19.203-4.505c-15.233-3.135-30.638-5.427-46.082-7.239
				c-41.625-4.884-81.19-6.08-120.202-5.63c-39.33,0.453-84.316-0.72-123.382-0.202c-25.667,0.34-51.334,2.146-76.949,3.853
				c-5.79,0.386-35.378,1.047-56.742,6.74v36.224c22.132-1.679,111.481-17.71,136.085-17.71c62.506,0,118.995,5.871,159.485,15.324
				c36.298-11.479,108.289-20.081,176.265-22.439C467.396,63.477,446.949,60.088,442.561,58.909z"/>
		</g>
		<g>
			<path fill="#8C7867" d="M14.471,27.241l6.917,5.595c0.477,0.385,1.177-0.019,1.083-0.625l-1.151-7.354
				c-0.056-0.354,0.177-0.688,0.528-0.76l0.37-0.075c0.306-0.063,0.614,0.095,0.743,0.379l1.965,4.33
				c0.249,0.548,1.038,0.515,1.24-0.051l2.172-6.074c0.126-0.354,0.519-0.534,0.869-0.4l0.271,0.104
				c0.307,0.118,0.484,0.441,0.416,0.763l-2.873,13.7c-0.019,0.087-0.019,0.178-0.002,0.266l0.312,1.594
				c0.09,0.46,0.614,0.688,1.012,0.439l3.322-2.074c0.098-0.061,0.178-0.146,0.233-0.247l2.472-4.521
				c0.117-0.215,0.343-0.348,0.587-0.348l0,0c0.436,0,0.755,0.409,0.649,0.832l-0.712,2.852c-0.136,0.542,0.415,1.002,0.924,0.772
				l4.404-1.984c0.443-0.2,0.944,0.125,0.944,0.61v0.068c0,0.238-0.125,0.458-0.331,0.578l-8.26,4.841
				c-0.045,0.026-0.087,0.058-0.125,0.095l-3.662,3.522c-0.141,0.135-0.215,0.324-0.205,0.518l0.799,14.932
				c0.021,0.383-0.285,0.705-0.668,0.705H22.2c-0.388,0-0.695-0.329-0.668-0.716l1.201-17.235c0.004-0.057,0.001-0.114-0.01-0.171
				l-0.94-4.99c-0.025-0.133-0.09-0.256-0.187-0.352l-8.018-7.947c-0.127-0.126-0.198-0.297-0.198-0.476v-0.574
				C13.38,27.198,14.033,26.887,14.471,27.241z"/>
			<path fill="#9FD33A" d="M47.661,25.072c0-1.413-1.146-2.558-2.558-2.558c-0.331,0-0.644,0.067-0.934,0.182
				c-0.366-0.626-0.896-1.136-1.537-1.48c0.81-1.053,1.296-2.367,1.296-3.798c0-2.75-1.781-5.081-4.251-5.913
				c-0.422-1.344-1.494-2.386-2.856-2.764c0.1-0.339,0.169-0.69,0.169-1.062c0-2.091-1.695-3.786-3.786-3.786
				c-0.06,0-0.115,0.015-0.174,0.018C31.994,1.606,29.683,0,26.993,0c-2.983,0-5.504,1.971-6.334,4.682
				c-0.744-0.498-1.637-0.79-2.598-0.79c-2.085,0-3.83,1.372-4.435,3.256c-0.436-0.22-0.922-0.355-1.443-0.355
				c-1.783,0-3.229,1.445-3.229,3.229c0,0.604,0.176,1.162,0.464,1.645c-1.825,1.26-3.022,3.364-3.022,5.75
				c0,0.831,0.152,1.623,0.418,2.362c-0.846,0.616-1.402,1.606-1.402,2.733c0,1.87,1.516,3.386,3.386,3.386
				c0.224,0,0.443-0.024,0.655-0.066c0,0.022-0.007,0.043-0.007,0.066c0,2.174,1.762,3.936,3.936,3.936
				c1.501,0,2.791-0.851,3.455-2.086c0.928,0.968,2.228,1.577,3.674,1.577c2.064,0,3.832-1.232,4.634-2.997
				c1.347-0.116,2.585-0.604,3.619-1.356c0.813,0.48,1.758,0.761,2.77,0.761c1.842,0,3.467-0.915,4.455-2.312
				c0.327,0.092,0.664,0.162,1.01,0.2c-0.094,0.337-0.161,0.686-0.161,1.053c0,0.206,0.03,0.404,0.061,0.602
				c-0.021,0-0.04-0.006-0.061-0.006c-2.391,0-4.33,1.938-4.33,4.33c0,0.471,0.094,0.916,0.233,1.34
				c-0.565,0.503-0.928,1.228-0.928,2.043c0,1.516,1.229,2.746,2.746,2.746c1.182,0,2.181-0.751,2.568-1.799
				c0.485,1.043,1.535,1.771,2.761,1.771c0.92,0,1.735-0.416,2.294-1.06c0.248,0.04,0.497,0.076,0.756,0.076
				c2.608,0,4.723-2.115,4.723-4.723c0-1.096-0.388-2.091-1.014-2.893C47.26,26.632,47.661,25.902,47.661,25.072z"/>
		</g>
		<g>
			<path fill="#8C7867" d="M649.092,45.94l-8.117,6.565c-0.56,0.452-1.382-0.022-1.271-0.732l1.352-8.631
				c0.064-0.415-0.208-0.807-0.62-0.891l-0.434-0.088c-0.359-0.073-0.721,0.111-0.872,0.445l-2.307,5.082
				c-0.292,0.643-1.218,0.604-1.455-0.06l-2.549-7.128c-0.148-0.415-0.609-0.627-1.021-0.469l-0.318,0.122
				c-0.36,0.138-0.567,0.517-0.488,0.895l3.372,16.078c0.021,0.103,0.022,0.209,0.002,0.313L634,59.309
				c-0.105,0.541-0.72,0.807-1.188,0.516l-3.898-2.434c-0.114-0.071-0.209-0.171-0.273-0.29l-2.9-5.306
				c-0.138-0.252-0.402-0.409-0.689-0.409l0,0c-0.511,0-0.886,0.48-0.762,0.976l0.836,3.347c0.158,0.637-0.487,1.176-1.086,0.906
				l-5.168-2.329c-0.521-0.234-1.108,0.146-1.108,0.716v0.08c0,0.279,0.147,0.537,0.388,0.678l9.694,5.681
				c0.053,0.031,0.103,0.068,0.147,0.111l4.298,4.133c0.164,0.159,0.252,0.38,0.239,0.608l-0.938,17.523
				c-0.023,0.45,0.335,0.828,0.785,0.828h7.645c0.455,0,0.815-0.386,0.783-0.84l-1.409-20.226c-0.005-0.067-0.001-0.134,0.012-0.2
				l1.103-5.856c0.03-0.157,0.106-0.3,0.22-0.413l9.409-9.327c0.148-0.147,0.232-0.348,0.232-0.558v-0.673
				C650.371,45.89,649.605,45.524,649.092,45.94z"/>
			<path fill="#9FD33A" d="M610.141,43.395c0-1.658,1.345-3.002,3.003-3.002c0.388,0,0.755,0.079,1.095,0.213
				c0.43-0.735,1.053-1.333,1.804-1.737c-0.95-1.236-1.521-2.778-1.521-4.457c0-3.228,2.09-5.962,4.988-6.939
				c0.495-1.577,1.753-2.8,3.352-3.244c-0.116-0.398-0.199-0.811-0.199-1.247c0-2.454,1.989-4.443,4.443-4.443
				c0.069,0,0.135,0.018,0.204,0.021c1.218-2.703,3.93-4.588,7.087-4.588c3.501,0,6.459,2.313,7.435,5.494
				c0.872-0.584,1.92-0.926,3.049-0.926c2.446,0,4.494,1.61,5.205,3.821c0.512-0.258,1.081-0.417,1.693-0.417
				c2.093,0,3.79,1.696,3.79,3.789c0,0.708-0.207,1.363-0.545,1.93c2.142,1.479,3.547,3.949,3.547,6.749
				c0,0.974-0.179,1.905-0.49,2.771c0.993,0.723,1.646,1.885,1.646,3.207c0,2.195-1.779,3.974-3.974,3.974
				c-0.264,0-0.521-0.029-0.77-0.078c0.001,0.026,0.008,0.051,0.008,0.078c0,2.551-2.067,4.619-4.619,4.619
				c-1.762,0-3.275-0.998-4.054-2.449c-1.089,1.136-2.614,1.851-4.313,1.851c-2.422,0-4.497-1.447-5.438-3.517
				c-1.581-0.137-3.033-0.708-4.247-1.592c-0.954,0.564-2.063,0.893-3.251,0.893c-2.161,0-4.068-1.073-5.229-2.713
				c-0.384,0.108-0.778,0.19-1.185,0.235c0.11,0.396,0.188,0.805,0.188,1.235c0,0.242-0.035,0.475-0.071,0.707
				c0.024,0,0.047-0.007,0.071-0.007c2.806,0,5.081,2.275,5.081,5.081c0,0.553-0.11,1.075-0.273,1.573
				c0.662,0.59,1.088,1.44,1.088,2.398c0,1.78-1.442,3.222-3.222,3.222c-1.389,0-2.561-0.881-3.015-2.111
				c-0.568,1.224-1.801,2.078-3.239,2.078c-1.08,0-2.036-0.488-2.693-1.244c-0.29,0.047-0.583,0.089-0.887,0.089
				c-3.062,0-5.543-2.481-5.543-5.543c0-1.286,0.456-2.454,1.19-3.395C610.612,45.226,610.141,44.369,610.141,43.395z"/>
		</g>
		<g>
			<path fill="#8C7867" d="M37.149,36.376l4.7,3.802c0.324,0.262,0.8-0.013,0.736-0.424l-0.783-4.998
				c-0.038-0.24,0.121-0.467,0.359-0.516l0.251-0.051c0.208-0.042,0.417,0.065,0.505,0.258l1.335,2.942
				c0.169,0.373,0.705,0.351,0.843-0.035l1.476-4.127c0.086-0.24,0.353-0.363,0.591-0.272l0.184,0.07
				c0.208,0.08,0.329,0.3,0.283,0.519l-1.952,9.31c-0.013,0.06-0.013,0.121-0.001,0.181l0.212,1.083
				c0.061,0.313,0.417,0.467,0.687,0.298l2.258-1.409c0.066-0.041,0.121-0.099,0.158-0.167l1.68-3.072
				c0.08-0.146,0.232-0.237,0.399-0.237l0,0c0.296,0,0.513,0.278,0.441,0.565l-0.484,1.938c-0.092,0.369,0.282,0.681,0.628,0.525
				l2.993-1.349c0.301-0.136,0.642,0.084,0.642,0.415v0.046c0,0.161-0.085,0.311-0.225,0.393l-5.613,3.29
				c-0.031,0.018-0.06,0.04-0.085,0.064l-2.489,2.394c-0.095,0.091-0.146,0.22-0.139,0.352l0.543,10.147
				c0.014,0.26-0.194,0.479-0.455,0.479h-4.426c-0.264,0-0.472-0.223-0.454-0.486l0.816-11.712c0.002-0.039,0-0.078-0.007-0.116
				l-0.639-3.392c-0.017-0.09-0.062-0.174-0.127-0.239l-5.449-5.401c-0.086-0.085-0.135-0.202-0.135-0.323v-0.39
				C36.408,36.348,36.851,36.136,37.149,36.376z"/>
			<path fill="#9FD33A" d="M59.704,34.902c0-0.96-0.778-1.739-1.739-1.739c-0.224,0-0.437,0.046-0.634,0.124
				c-0.249-0.426-0.609-0.772-1.044-1.006c0.55-0.715,0.881-1.608,0.881-2.581c0-1.869-1.21-3.453-2.889-4.018
				c-0.287-0.913-1.015-1.622-1.94-1.878c0.067-0.23,0.115-0.469,0.115-0.722c0-1.421-1.152-2.573-2.573-2.573
				c-0.041,0-0.078,0.01-0.118,0.012c-0.705-1.565-2.275-2.657-4.104-2.657c-2.027,0-3.74,1.339-4.305,3.182
				c-0.505-0.338-1.112-0.537-1.766-0.537c-1.417,0-2.603,0.933-3.014,2.212c-0.296-0.149-0.626-0.241-0.981-0.241
				c-1.212,0-2.194,0.982-2.194,2.194c0,0.41,0.12,0.79,0.315,1.118c-1.24,0.856-2.054,2.287-2.054,3.908
				c0,0.564,0.104,1.103,0.284,1.605c-0.575,0.418-0.953,1.092-0.953,1.857c0,1.271,1.03,2.301,2.301,2.301
				c0.153,0,0.301-0.017,0.445-0.045c0,0.015-0.004,0.029-0.004,0.045c0,1.477,1.198,2.675,2.675,2.675
				c1.021,0,1.896-0.578,2.348-1.418c0.631,0.658,1.514,1.071,2.497,1.071c1.402,0,2.604-0.837,3.149-2.036
				c0.916-0.079,1.757-0.41,2.46-0.922c0.552,0.327,1.194,0.518,1.882,0.518c1.251,0,2.356-0.622,3.027-1.571
				c0.222,0.063,0.451,0.11,0.686,0.136c-0.063,0.229-0.109,0.466-0.109,0.715c0,0.14,0.021,0.274,0.042,0.409
				c-0.014,0-0.027-0.004-0.042-0.004c-1.625,0-2.942,1.317-2.942,2.942c0,0.32,0.064,0.623,0.159,0.911
				c-0.384,0.342-0.63,0.834-0.63,1.389c0,1.031,0.835,1.866,1.866,1.866c0.803,0,1.482-0.511,1.745-1.223
				c0.329,0.708,1.042,1.203,1.876,1.203c0.625,0,1.179-0.283,1.559-0.721c0.168,0.027,0.338,0.052,0.514,0.052
				c1.773,0,3.21-1.437,3.21-3.209c0-0.745-0.264-1.421-0.689-1.966C59.431,35.962,59.704,35.466,59.704,34.902z"/>
		</g>
		<g>
			<g>
				<g>
					<circle fill="#78C400" cx="628.845" cy="81.798" r="8.395"/>
				</g>
				<g>
					<circle fill="#78C400" cx="619.548" cy="84.009" r="6.536"/>
				</g>
				<g>
					<circle fill="#78C400" cx="612.441" cy="87.814" r="3.805"/>
				</g>
				<g>
					<circle fill="#78C400" cx="640.611" cy="83.833" r="6.359"/>
				</g>
				<g>
					<circle fill="#78C400" cx="647.078" cy="87.23" r="3.447"/>
				</g>
			</g>
		</g>
		<g>
			<circle fill="#8BCE2C" cx="18.564" cy="58.093" r="4.812"/>
			<circle fill="#8BCE2C" cx="13.236" cy="59.361" r="3.746"/>
			<circle fill="#8BCE2C" cx="9.162" cy="61.542" r="2.181"/>
			<circle fill="#8BCE2C" cx="25.309" cy="59.26" r="3.645"/>
			<circle fill="#8BCE2C" cx="29.016" cy="61.208" r="1.976"/>
		</g>
		<g>
			<circle fill="#8BCE2C" cx="50.338" cy="58.911" r="4.812"/>
			<circle fill="#8BCE2C" cx="45.01" cy="60.179" r="3.746"/>
			<circle fill="#8BCE2C" cx="40.936" cy="62.359" r="2.181"/>
			<circle fill="#8BCE2C" cx="57.083" cy="60.078" r="3.645"/>
			<circle fill="#8BCE2C" cx="60.789" cy="62.025" r="1.976"/>
		</g>
		<g>
			<g>
				<path fill="#FFFFFF" d="M36.58,95.308c2.912-0.122,5.173-0.997,5.05-1.954c-0.123-0.957-2.584-1.635-5.496-1.513
					c-0.479,0.02-0.94,0.061-1.376,0.118c0.082-0.271,0.126-0.559,0.126-0.856c0-1.664-1.365-3.013-3.05-3.013
					c-1.684,0-3.049,1.349-3.049,3.013c0,0.111,0.006,0.22,0.018,0.327c-0.167-0.051-0.338-0.099-0.514-0.145
					c-2.657-0.69-5.377-0.542-6.076,0.332c-0.699,0.873,0.889,2.141,3.546,2.831c0.176,0.046,0.353,0.087,0.529,0.126
					c-0.15,0.065-0.298,0.134-0.445,0.207c-2.204,1.092-3.095,2.564-1.99,3.289c1.105,0.725,3.787,0.427,5.991-0.665
					c0.161-0.08,0.313-0.162,0.46-0.245c0.102,0.134,0.215,0.27,0.34,0.404c1.376,1.468,3.695,2.291,5.181,1.839
					c1.485-0.453,1.575-2.009,0.199-3.477c-0.206-0.22-0.434-0.425-0.677-0.614C35.746,95.326,36.158,95.325,36.58,95.308z"/>
				<ellipse fill="#FFE45C" cx="31.187" cy="94.278" rx="2.734" ry="1.558"/>
			</g>
			<g>
				<path fill="#FFFFFF" d="M183.802,87.145c2.831,0.695,5.246,0.486,5.394-0.468c0.149-0.954-2.025-2.291-4.855-2.986
					c-0.465-0.115-0.919-0.204-1.354-0.27c0.154-0.238,0.276-0.501,0.359-0.787c0.464-1.598-0.471-3.274-2.088-3.744
					c-1.618-0.47-3.305,0.445-3.769,2.043c-0.031,0.106-0.055,0.212-0.074,0.319c-0.146-0.095-0.297-0.189-0.454-0.283
					c-2.359-1.404-5.012-2.02-5.927-1.376s0.256,2.304,2.615,3.708c0.157,0.093,0.314,0.183,0.473,0.269
					c-0.162,0.021-0.324,0.046-0.485,0.074c-2.42,0.434-3.687,1.599-2.828,2.603s3.518,1.466,5.938,1.033
					c0.177-0.032,0.346-0.067,0.51-0.106c0.06,0.158,0.131,0.319,0.214,0.482c0.912,1.793,2.909,3.231,4.462,3.211
					c1.553-0.02,2.072-1.49,1.161-3.283c-0.137-0.269-0.298-0.529-0.479-0.779C182.996,86.929,183.392,87.043,183.802,87.145z"/>
				
					<ellipse transform="matrix(0.9603 0.2789 -0.2789 0.9603 30.7093 -46.54)" fill="#FFE45C" cx="178.91" cy="84.652" rx="2.734" ry="1.558"/>
			</g>
			<g>
				<path fill="#FFFFFF" d="M508.457,92.461c2.018-0.543,3.461-1.511,3.225-2.161c-0.236-0.65-2.064-0.737-4.082-0.194
					c-0.332,0.089-0.648,0.19-0.943,0.299c0.014-0.203,0-0.411-0.047-0.619c-0.262-1.164-1.43-1.893-2.607-1.628
					c-1.18,0.265-1.922,1.423-1.66,2.588c0.018,0.077,0.039,0.152,0.064,0.226c-0.125-0.009-0.252-0.016-0.383-0.021
					c-1.967-0.065-3.848,0.467-4.197,1.188c-0.352,0.721,0.957,1.358,2.926,1.423c0.131,0.004,0.26,0.006,0.389,0.005
					c-0.094,0.069-0.188,0.141-0.277,0.215c-1.371,1.11-1.762,2.28-0.875,2.613s2.717-0.297,4.086-1.407
					c0.1-0.081,0.193-0.163,0.283-0.244c0.092,0.078,0.193,0.155,0.303,0.229c1.193,0.811,2.945,1.021,3.912,0.471
					c0.969-0.55,0.787-1.653-0.406-2.463c-0.18-0.122-0.371-0.229-0.57-0.323C507.875,92.604,508.164,92.54,508.457,92.461z"/>
				
					<ellipse transform="matrix(0.9756 -0.2195 0.2195 0.9756 -8.0195 112.9944)" fill="#FFE45C" cx="504.521" cy="92.589" rx="1.96" ry="1.117"/>
			</g>
			<g>
				<path fill="#FFFFFF" d="M255.133,96.5c1.731,1.171,3.407,1.63,3.745,1.026c0.337-0.604-0.793-2.044-2.524-3.215
					c-0.285-0.192-0.567-0.365-0.843-0.518c0.163-0.122,0.311-0.269,0.438-0.44c0.709-0.959,0.497-2.319-0.474-3.038
					c-0.971-0.718-2.333-0.522-3.042,0.438c-0.047,0.063-0.09,0.129-0.129,0.196c-0.075-0.101-0.153-0.202-0.235-0.303
					c-1.237-1.53-2.869-2.604-3.645-2.398c-0.775,0.206-0.4,1.613,0.837,3.144c0.083,0.102,0.167,0.201,0.251,0.298
					c-0.114-0.026-0.229-0.05-0.344-0.07c-1.736-0.311-2.877,0.159-2.549,1.047s2.001,1.86,3.737,2.171
					c0.127,0.022,0.25,0.041,0.37,0.055c0.001,0.121,0.009,0.247,0.024,0.378c0.167,1.433,1.154,2.896,2.203,3.269
					s1.764-0.487,1.597-1.919c-0.025-0.215-0.069-0.431-0.128-0.643C254.645,96.154,254.882,96.33,255.133,96.5z"/>
				
					<ellipse transform="matrix(0.8041 0.5945 -0.5945 0.8041 105.1037 -131.7486)" fill="#FFE45C" cx="252.463" cy="93.607" rx="1.96" ry="1.117"/>
			</g>
			<g opacity="0.6">
				<path fill="#FFFFFF" d="M231.1,62.618c1.254,0.197,2.294,0.017,2.323-0.402s-0.963-0.919-2.217-1.116
					c-0.207-0.032-0.407-0.054-0.598-0.067c0.058-0.109,0.102-0.228,0.127-0.355c0.142-0.71-0.326-1.403-1.045-1.547
					c-0.719-0.144-1.417,0.315-1.56,1.026c-0.01,0.047-0.016,0.094-0.021,0.141c-0.067-0.036-0.136-0.071-0.207-0.106
					c-1.076-0.522-2.25-0.691-2.623-0.378c-0.373,0.313,0.197,0.99,1.272,1.512c0.072,0.035,0.144,0.068,0.215,0.099
					c-0.069,0.015-0.139,0.032-0.208,0.05c-1.035,0.278-1.541,0.83-1.131,1.234c0.41,0.404,1.581,0.506,2.615,0.229
					c0.076-0.02,0.148-0.042,0.218-0.065c0.032,0.066,0.068,0.133,0.111,0.202c0.462,0.744,1.382,1.294,2.055,1.228
					c0.673-0.066,0.844-0.723,0.382-1.467c-0.069-0.112-0.149-0.219-0.236-0.32C230.742,62.555,230.917,62.59,231.1,62.618z"/>
				
					<ellipse transform="matrix(0.9805 0.1965 -0.1965 0.9805 16.5867 -43.7663)" fill="#FFE45C" cx="228.885" cy="61.717" rx="1.19" ry="0.679"/>
			</g>
			<g opacity="0.6">
				<path fill="#FFFFFF" d="M190.558,61.925c1.254,0.197,2.294,0.017,2.324-0.403s-0.964-0.919-2.218-1.116
					c-0.206-0.032-0.406-0.054-0.598-0.067c0.058-0.109,0.102-0.228,0.127-0.355c0.143-0.71-0.325-1.403-1.044-1.547
					s-1.417,0.315-1.56,1.026c-0.009,0.047-0.016,0.094-0.02,0.141c-0.067-0.036-0.136-0.071-0.208-0.106
					c-1.075-0.522-2.25-0.691-2.623-0.378c-0.373,0.313,0.196,0.99,1.272,1.512c0.071,0.035,0.143,0.068,0.215,0.099
					c-0.07,0.015-0.139,0.032-0.208,0.05c-1.035,0.278-1.541,0.83-1.131,1.234c0.41,0.404,1.581,0.506,2.615,0.229
					c0.076-0.021,0.148-0.042,0.217-0.065c0.032,0.066,0.069,0.133,0.111,0.202c0.462,0.745,1.382,1.294,2.055,1.228
					c0.673-0.066,0.844-0.723,0.382-1.467c-0.069-0.112-0.149-0.219-0.236-0.32C190.2,61.861,190.376,61.896,190.558,61.925z"/>
				
					<ellipse transform="matrix(0.9806 0.1962 -0.1962 0.9806 15.6369 -35.7729)" fill="#FFE45C" cx="188.343" cy="61.024" rx="1.191" ry="0.679"/>
			</g>
			<g opacity="0.6">
				<path fill="#FFFFFF" d="M157.375,64.235c0.605,0.093,1.106,0.004,1.12-0.198c0.013-0.202-0.466-0.441-1.071-0.534
					c-0.1-0.015-0.196-0.025-0.288-0.031c0.028-0.053,0.048-0.11,0.061-0.171c0.067-0.343-0.16-0.676-0.507-0.744
					c-0.347-0.068-0.683,0.155-0.75,0.498c-0.004,0.023-0.008,0.045-0.009,0.068c-0.033-0.018-0.066-0.034-0.101-0.051
					c-0.52-0.25-1.086-0.329-1.265-0.178c-0.179,0.152,0.097,0.478,0.616,0.727c0.034,0.017,0.069,0.032,0.104,0.047
					c-0.034,0.007-0.067,0.016-0.1,0.024c-0.499,0.136-0.741,0.403-0.543,0.597s0.763,0.241,1.261,0.105
					c0.036-0.01,0.071-0.021,0.104-0.032c0.016,0.032,0.034,0.064,0.054,0.097c0.224,0.358,0.668,0.622,0.993,0.588
					c0.324-0.033,0.405-0.351,0.181-0.708c-0.033-0.054-0.072-0.105-0.114-0.154C157.203,64.206,157.288,64.222,157.375,64.235z"/>
				
					<ellipse transform="matrix(0.9813 0.1927 -0.1927 0.9813 15.2229 -28.9213)" fill="#FFE45C" cx="156.306" cy="63.805" rx="0.574" ry="0.327"/>
			</g>
			<g opacity="0.6">
				<path fill="#FFFFFF" d="M244.747,65.489c0.605,0.093,1.106,0.004,1.12-0.198s-0.466-0.441-1.071-0.534
					c-0.1-0.015-0.196-0.025-0.288-0.031c0.028-0.053,0.048-0.11,0.061-0.171c0.067-0.343-0.16-0.676-0.506-0.744
					c-0.347-0.068-0.683,0.155-0.75,0.498c-0.004,0.022-0.008,0.045-0.009,0.068c-0.033-0.017-0.066-0.034-0.1-0.051
					c-0.52-0.25-1.086-0.329-1.266-0.177s0.097,0.477,0.616,0.727c0.035,0.017,0.069,0.032,0.104,0.047
					c-0.034,0.007-0.067,0.016-0.1,0.024c-0.498,0.136-0.741,0.403-0.543,0.597s0.763,0.241,1.261,0.105
					c0.036-0.01,0.071-0.021,0.104-0.032c0.016,0.032,0.034,0.064,0.054,0.097c0.224,0.358,0.668,0.622,0.993,0.589
					c0.324-0.033,0.406-0.351,0.182-0.708c-0.034-0.054-0.072-0.105-0.115-0.154C244.575,65.459,244.66,65.476,244.747,65.489z"/>
				
					<ellipse transform="matrix(0.9813 0.1927 -0.1927 0.9813 17.1016 -45.7326)" fill="#FFE45C" cx="243.677" cy="65.059" rx="0.574" ry="0.327"/>
			</g>
			<g opacity="0.6">
				<path fill="#FFFFFF" d="M226.121,69.459c0.605,0.092,1.106,0.004,1.12-0.198c0.014-0.203-0.466-0.441-1.071-0.534
					c-0.1-0.016-0.196-0.025-0.289-0.031c0.028-0.053,0.048-0.11,0.061-0.171c0.067-0.343-0.159-0.676-0.506-0.745
					c-0.347-0.068-0.683,0.155-0.75,0.498c-0.004,0.023-0.007,0.045-0.009,0.068c-0.032-0.017-0.065-0.034-0.1-0.051
					c-0.52-0.25-1.086-0.329-1.265-0.177c-0.18,0.151,0.096,0.477,0.616,0.727c0.035,0.017,0.069,0.032,0.104,0.047
					c-0.033,0.007-0.067,0.016-0.1,0.025c-0.499,0.136-0.742,0.403-0.543,0.597c0.198,0.194,0.763,0.241,1.261,0.105
					c0.037-0.01,0.071-0.021,0.105-0.032c0.015,0.032,0.033,0.064,0.054,0.097c0.224,0.358,0.668,0.622,0.993,0.588
					c0.324-0.033,0.406-0.35,0.182-0.708c-0.034-0.054-0.072-0.105-0.115-0.154C225.948,69.429,226.033,69.445,226.121,69.459z"/>
				
					<ellipse transform="matrix(0.9813 0.1926 -0.1926 0.9813 17.5084 -42.0523)" fill="#FFE45C" cx="225.051" cy="69.029" rx="0.574" ry="0.327"/>
			</g>
			<g opacity="0.6">
				<path fill="#FFFFFF" d="M206.601,62.86c0.605,0.093,1.106,0.004,1.119-0.198c0.014-0.202-0.466-0.441-1.071-0.534
					c-0.1-0.016-0.196-0.026-0.289-0.031c0.028-0.053,0.049-0.11,0.061-0.171c0.067-0.343-0.159-0.676-0.506-0.744
					c-0.347-0.068-0.683,0.154-0.75,0.497c-0.005,0.023-0.008,0.045-0.01,0.068c-0.032-0.017-0.065-0.034-0.1-0.051
					c-0.52-0.25-1.086-0.329-1.265-0.178c-0.179,0.152,0.096,0.478,0.616,0.727c0.034,0.017,0.069,0.032,0.104,0.047
					c-0.033,0.007-0.067,0.016-0.1,0.025c-0.499,0.136-0.742,0.403-0.543,0.597c0.199,0.194,0.763,0.241,1.261,0.105
					c0.037-0.01,0.071-0.021,0.105-0.032c0.016,0.032,0.033,0.064,0.054,0.097c0.224,0.358,0.669,0.622,0.993,0.588
					s0.406-0.35,0.182-0.708c-0.034-0.054-0.072-0.105-0.115-0.154C206.428,62.831,206.513,62.847,206.601,62.86z"/>
				
					<ellipse transform="matrix(0.9813 0.1927 -0.1927 0.9813 15.8804 -38.4319)" fill="#FFE45C" cx="205.531" cy="62.43" rx="0.574" ry="0.327"/>
			</g>
			<g opacity="0.6">
				<path fill="#FFFFFF" d="M463.385,77.889c1.268,0.027,2.275-0.291,2.248-0.711c-0.027-0.419-1.078-0.781-2.348-0.808
					c-0.209-0.004-0.41,0-0.602,0.014c0.043-0.116,0.07-0.239,0.078-0.369c0.047-0.724-0.51-1.347-1.242-1.394
					c-0.732-0.046-1.363,0.503-1.408,1.226c-0.004,0.048-0.004,0.096-0.002,0.143c-0.07-0.026-0.143-0.052-0.219-0.077
					c-1.137-0.373-2.322-0.383-2.65-0.022c-0.326,0.36,0.328,0.955,1.465,1.328c0.074,0.024,0.15,0.048,0.227,0.069
					c-0.068,0.024-0.135,0.05-0.199,0.078c-0.988,0.414-1.416,1.029-0.955,1.375c0.459,0.345,1.633,0.29,2.621-0.125
					c0.072-0.03,0.141-0.062,0.207-0.094c0.041,0.062,0.086,0.123,0.137,0.185c0.559,0.676,1.543,1.097,2.201,0.941
					c0.658-0.156,0.74-0.83,0.182-1.506c-0.082-0.102-0.176-0.197-0.277-0.286C463.021,77.874,463.199,77.885,463.385,77.889z"/>
				
					<ellipse transform="matrix(0.998 0.063 -0.063 0.998 5.7845 -28.8899)" fill="#FFE45C" cx="461.068" cy="77.294" rx="1.19" ry="0.678"/>
			</g>
			<g opacity="0.6">
				<path fill="#FFFFFF" d="M401.447,86.471c1.27,0.027,2.275-0.291,2.248-0.71s-1.078-0.782-2.346-0.809
					c-0.209-0.004-0.41,0.001-0.602,0.014c0.043-0.116,0.07-0.239,0.078-0.369c0.045-0.723-0.512-1.347-1.244-1.393
					c-0.73-0.046-1.361,0.502-1.408,1.226c-0.002,0.048-0.002,0.096,0,0.143c-0.07-0.026-0.145-0.052-0.221-0.077
					c-1.135-0.373-2.322-0.383-2.648-0.023c-0.328,0.361,0.328,0.955,1.463,1.328c0.076,0.025,0.15,0.048,0.227,0.069
					c-0.066,0.024-0.133,0.05-0.199,0.078c-0.988,0.414-1.416,1.029-0.955,1.375s1.635,0.29,2.623-0.124
					c0.072-0.03,0.141-0.062,0.207-0.094c0.039,0.062,0.086,0.124,0.137,0.185c0.557,0.676,1.543,1.097,2.201,0.941
					s0.738-0.83,0.182-1.506c-0.084-0.101-0.178-0.197-0.277-0.286C401.084,86.456,401.264,86.467,401.447,86.471z"/>
				
					<ellipse transform="matrix(0.998 0.0629 -0.0629 0.998 6.1964 -24.951)" fill="#FFE45C" cx="399.132" cy="85.876" rx="1.191" ry="0.679"/>
			</g>
			<g opacity="0.6">
				<path fill="#FFFFFF" d="M428.317,70.792c0.611,0.011,1.096-0.145,1.082-0.347s-0.521-0.375-1.133-0.386
					c-0.102-0.001-0.197,0.001-0.289,0.008c0.02-0.056,0.033-0.115,0.037-0.178c0.02-0.349-0.25-0.649-0.604-0.669
					c-0.352-0.021-0.654,0.245-0.676,0.593c-0.002,0.023-0.002,0.046,0,0.069c-0.035-0.013-0.07-0.025-0.105-0.037
					c-0.549-0.178-1.121-0.181-1.279-0.006c-0.156,0.174,0.16,0.459,0.709,0.637c0.037,0.012,0.072,0.023,0.109,0.033
					c-0.033,0.012-0.064,0.024-0.096,0.038c-0.477,0.202-0.682,0.499-0.459,0.665c0.223,0.166,0.789,0.137,1.266-0.065
					c0.033-0.015,0.066-0.03,0.1-0.045c0.018,0.03,0.041,0.06,0.064,0.089c0.271,0.325,0.746,0.526,1.064,0.45
					c0.316-0.077,0.355-0.402,0.084-0.727c-0.041-0.049-0.086-0.095-0.133-0.137C428.142,70.785,428.228,70.791,428.317,70.792z"/>
				
					<ellipse transform="matrix(0.9983 0.0591 -0.0591 0.9983 4.9134 -25.1225)" fill="#FFE45C" cx="427.199" cy="70.509" rx="0.574" ry="0.327"/>
			</g>
			<g opacity="0.6">
				<path fill="#FFFFFF" d="M533.117,69.573c0.611,0.01,1.096-0.145,1.082-0.347s-0.521-0.375-1.133-0.385
					c-0.102-0.002-0.197,0.001-0.289,0.008c0.02-0.056,0.033-0.116,0.037-0.178c0.02-0.349-0.25-0.648-0.604-0.669
					c-0.352-0.021-0.654,0.245-0.676,0.594c-0.002,0.023-0.002,0.046,0,0.069c-0.035-0.013-0.07-0.025-0.105-0.037
					c-0.549-0.178-1.121-0.18-1.279-0.006c-0.156,0.174,0.16,0.46,0.709,0.638c0.037,0.012,0.072,0.023,0.109,0.033
					c-0.033,0.012-0.064,0.024-0.096,0.038c-0.477,0.201-0.682,0.499-0.459,0.665s0.789,0.136,1.266-0.065
					c0.033-0.015,0.066-0.03,0.098-0.045c0.02,0.029,0.043,0.059,0.066,0.089c0.271,0.325,0.746,0.526,1.064,0.45
					c0.316-0.076,0.355-0.401,0.084-0.726c-0.039-0.049-0.086-0.095-0.135-0.137C532.941,69.566,533.027,69.571,533.117,69.573z"/>
				
					<ellipse transform="matrix(0.9983 0.0591 -0.0591 0.9983 5.0245 -31.3178)" fill="#FFE45C" cx="531.999" cy="69.29" rx="0.574" ry="0.327"/>
			</g>
			<g opacity="0.6">
				<path fill="#FFFFFF" d="M415.126,62.125c0.611,0.011,1.096-0.145,1.082-0.347s-0.521-0.375-1.133-0.386
					c-0.1-0.001-0.197,0.001-0.289,0.008c0.02-0.056,0.033-0.116,0.037-0.178c0.02-0.349-0.25-0.649-0.604-0.67
					c-0.352-0.021-0.654,0.245-0.676,0.594c-0.002,0.023-0.002,0.046,0,0.069c-0.035-0.013-0.07-0.025-0.105-0.037
					c-0.549-0.178-1.121-0.181-1.279-0.006c-0.156,0.174,0.16,0.459,0.709,0.637c0.037,0.012,0.072,0.023,0.109,0.033
					c-0.033,0.012-0.064,0.024-0.096,0.038c-0.477,0.202-0.682,0.499-0.459,0.665s0.789,0.137,1.266-0.064
					c0.033-0.015,0.066-0.03,0.1-0.046c0.02,0.03,0.041,0.059,0.066,0.089c0.27,0.325,0.746,0.526,1.063,0.45
					c0.316-0.076,0.355-0.401,0.084-0.726c-0.039-0.049-0.086-0.095-0.133-0.137C414.95,62.118,415.036,62.123,415.126,62.125z"/>
				
					<ellipse transform="matrix(0.9983 0.0591 -0.0591 0.9983 4.3781 -24.3581)" fill="#FFE45C" cx="414.008" cy="61.842" rx="0.574" ry="0.327"/>
			</g>
			<g>
				<path fill="#FFFFFF" d="M616.553,80.272c2.742-0.989,4.637-2.501,4.232-3.377s-2.955-0.785-5.697,0.204
					c-0.451,0.163-0.877,0.339-1.275,0.525c-0.004-0.284-0.049-0.571-0.137-0.855c-0.5-1.587-2.207-2.465-3.813-1.96
					c-1.607,0.505-2.506,2.201-2.008,3.789c0.033,0.105,0.072,0.208,0.115,0.306c-0.174,0.002-0.352,0.007-0.533,0.016
					c-2.742,0.138-5.293,1.095-5.697,2.137c-0.404,1.043,1.49,1.776,4.232,1.639c0.182-0.009,0.363-0.022,0.543-0.039
					c-0.125,0.107-0.246,0.218-0.363,0.331c-1.775,1.702-2.184,3.374-0.912,3.733c1.27,0.36,3.74-0.728,5.516-2.429
					c0.129-0.125,0.25-0.248,0.365-0.372c0.137,0.098,0.285,0.193,0.445,0.283c1.754,0.988,4.213,1.079,5.494,0.202
					c1.281-0.876,0.9-2.388-0.852-3.376c-0.264-0.148-0.543-0.275-0.83-0.383C615.762,80.54,616.156,80.416,616.553,80.272z"/>
				
					<ellipse transform="matrix(0.954 -0.2998 0.2998 0.954 3.8514 186.9166)" fill="#FFE45C" cx="611.1" cy="80.906" rx="2.733" ry="1.558"/>
			</g>
		</g>
	</g>
</g>
</svg>
