<?xml version="1.0" encoding="utf-8"?>
<!-- Generator: Adobe Illustrator 16.0.0, SVG Export Plug-In . SVG Version: 6.00 Build 0)  -->
<!DOCTYPE svg PUBLIC "-//W3C//DTD SVG 1.1//EN" "http://www.w3.org/Graphics/SVG/1.1/DTD/svg11.dtd">
<svg version="1.1" id="Layer_1" xmlns="http://www.w3.org/2000/svg" xmlns:xlink="http://www.w3.org/1999/xlink" x="0px" y="0px"
	 width="1465.285px" height="934.764px" viewBox="0 0 1465.285 934.764" enable-background="new 0 0 1465.285 934.764"
	 xml:space="preserve">
<g id="art">
	
		<linearGradient id="SVGID_1_" gradientUnits="userSpaceOnUse" x1="1078.6436" y1="-295.3276" x2="1078.6434" y2="639.4683" gradientTransform="matrix(1 0 0 -1 -346 639.7637)">
		<stop  offset="0" style="stop-color:#FED7A9"/>
		<stop  offset="0.3257" style="stop-color:#FFE1B9"/>
		<stop  offset="0.7152" style="stop-color:#B7BCB6"/>
		<stop  offset="1" style="stop-color:#A6B8CA"/>
	</linearGradient>
	<rect y="0.296" fill="url(#SVGID_1_)" width="1465.285" height="934.796"/>
	<path fill="#FDFFEB" d="M1074.476,855.276c0,0,1.604-17.067,20.638-10.079c0,0-9.821-32.664,23.907-13.088
		c0,0,29.365-80.541,53.714-7.41c0,0,19.334-36.088,21.737,0.994c0,0,14.96-9.74,19.593,3.528L1074.476,855.276z"/>
	<path fill="#FDFFEB" d="M306.417,823.423l137.319,20.928c0,0-0.285-15.463-23.92-8.546c0,0,5.627-30.584-26.965-12.745
		c0,0-16.387-79.316-62.094-6.93C330.758,816.13,297.718,790.088,306.417,823.423z"/>
	<path fill="#FDFFEB" d="M1202.063,716.534l-97.877,20.229c0,0-0.379-11.121,16.865-7.045c0,0-5.199-21.763,18.894-10.178
		c0,0,8.773-57.611,44.354-7.327C1184.298,712.215,1207.053,692.253,1202.063,716.534z"/>
	<path fill="#FDFFEB" d="M1024.756,805.628c0,0-3.867-13.368-25.246-6.327c0,0-42.567-79.438-74.021-2.104
		c0,0-25.864-20.015-27.824,10.234c0,0-20.91-5.45-26.555,10.098L1024.756,805.628z"/>
	<path fill="#B7B84A" d="M1036.157,935.092c0,0,159.375-88.785,433.222-87.831v87.831H1036.157z"/>
	<g>
		<path fill="#A89E46" d="M782.277,857.793c13.119-3.977,37.95-4.333,47.19-4.363c7.095-0.022,26.839,2.112,18.481,3.968
			c-8.358,1.852-23.506,5.865-16.832,6.447c6.677,0.584,25.546,4.898,7.48,7.843c-13.004,2.112-43.288,0.442-57.213-3.684
			L782.277,857.793z"/>
		<path fill="#A89E46" d="M846.68,857.302c8.457,0.778,33.076,7.733,22.07,8.243C857.74,866.056,830.675,855.827,846.68,857.302z"/>
		<path fill="#A89E46" d="M875.141,875.449c10.381-1.022,41.767,1.813,28.639,5.036C890.646,883.71,855.498,877.387,875.141,875.449
			z"/>
		<path fill="#757844" d="M813.267,817.697c-1.131,9.767-3.927,16.329-3.927,16.329s2.006-2.033,3.329-1.752
			c-3.894,7.817-7.567,13.108-7.567,13.108s2.495-2.045,3.976-1.482c-2.894,5.267-7.661,12.68-7.661,12.68s6.205,1.027,13.923,1.039
			c7.715,0.01,12.851,0.019,12.851,0.019s-4.873-6.521-8.363-13.584c1.359-0.342,4.586,1.399,4.586,1.399s-4.126-4.866-7.761-12.551
			c1.247-0.264,3.919,1.306,3.919,1.306S814.989,825.199,813.267,817.697z"/>
		<path fill="#757844" d="M893.52,841.401c0.144,9.053,2.105,15.321,2.105,15.321s-1.652-2.047-2.892-1.907
			c2.853,7.52,5.733,12.701,5.733,12.701s-2.099-2.099-3.505-1.722c2.166,5.09,5.86,12.318,5.86,12.318s-5.778,0.375-12.854-0.32
			c-7.069-0.695-11.776-1.158-11.776-1.158s5.063-5.528,8.905-11.683c-1.214-0.438-4.329,0.862-4.329,0.862s4.227-4.08,8.26-10.789
			c-1.118-0.355-3.71,0.837-3.71,0.837S891.253,848.12,893.52,841.401z"/>
		<path fill="#757844" d="M848.404,825.211c-1.822,8.032-6.454,12.138-6.454,12.138s2.038-0.586,2.922-0.159
			c-4.079,4.719-7.814,6.731-7.814,6.731s1.168,0.199,2.116,0.846c-2.938,3.134-6.628,6.245-6.628,6.245s3.542,2.964,8.981,4.322
			c5.438,1.358,9.719,1.089,9.719,1.089s-0.97-4.51-2.225-10.002c1.018,0.002,2.648,1.758,2.648,1.758s-0.971-3.999-2.223-9.944
			c0.924,0.038,2.528,1.75,2.528,1.75S850.325,832.089,848.404,825.211z"/>
		<path fill="#898D50" d="M922.193,855.737c-1.486,3.043-4.726,5.843-4.726,5.843s1.495-0.657,2.021-0.633
			c-2.463,2.929-5.122,5.215-5.122,5.215s2.58-0.795,3.079-0.543c-1.772,1.943-5.557,4.929-5.557,4.929s1.921,1.213,5.134,2.021
			c3.216,0.809,5.758,1.053,5.758,1.053s-1.212-2.807-1.905-6.187c0.792,0.08,2.253,1.813,2.253,1.813s-1.494-3.955-1.983-7.478
			c0.552,0.017,1.366,1.041,1.366,1.041S922.104,859.118,922.193,855.737z"/>
		<path fill="#898D50" d="M867.08,832.008c-4.95,5.871-11.205,12.786-11.205,12.786s3.645-1.854,4.334-1.271
			c-4.183,4.436-8.462,7.146-8.462,7.146s3.661,0.285,4.448,0.727c-3.074,3.831-9.148,7.224-9.148,7.224s4.492,1.114,9.637,2.686
			c5.146,1.569,8.678,3.24,8.678,3.24s-0.983-4.285-1.878-9.711c1.276,0.195,3.571,2.341,3.571,2.341s-2.271-6.689-2.825-12.327
			c0.889,0.073,2.62,2.649,2.62,2.649C866.092,843.997,866.066,840.768,867.08,832.008z"/>
		<path fill="#898D50" d="M784.391,833.564c0.537-0.915,1.076-1.85,1.61-2.803c-0.368-0.073-0.853,0.011-1.381,0.187l0.673-7.729
			c2.104-3.959,4.525-8.478,6.748-12.5c-0.169,13.816,4.891,22.795,4.891,22.795s-3.077-1.645-4.904-2.437
			c4.449,10.521,11.21,17.795,11.21,17.795s-3.775-1.763-7.61-2.248c3.969,7.788,12.149,16.615,12.149,16.615
			s-8.649,1.015-19.845,0.863c-2.211-0.029-4.285-0.052-6.198-0.066L784.391,833.564z"/>
		<path fill="#898D50" d="M832.705,816.327c0.997,9.697,6.807,20.426,6.807,20.426s-3.288-3.229-4.68-3.672
			c3.658,10.338,8.439,19.107,8.439,19.107s-5.998-4.646-7.537-4.445c2.786,6.989,9.842,18.752,9.842,18.752
			s-6.169,1.432-15.347,0.522c-9.178-0.907-16.058-2.698-16.058-2.698s5.839-6.453,10.862-14.951
			c-2.148-0.555-7.613,2.742-7.613,2.742s7.662-9.297,12.289-18.388c-1.451-0.483-4.56,1.509-4.56,1.509
			S829.729,825.593,832.705,816.327z"/>
	</g>
	<path fill="#B7B84A" d="M-3.301,850.692c0,0,234.643-28.336,546.633,84.398H-3.301V850.692z"/>
	<path fill="#A19638" d="M57.018,935.092c0,0,311.776-114.361,679.401-114.361s714.527,114.361,714.527,114.361H57.018z"/>
	<g>
		<path fill="#A89E46" d="M337.147,862.459c6.409-0.439,26.594,3.447,18.754,5.701C348.06,870.411,325.023,863.291,337.147,862.459z
			"/>
		<path fill="#A89E46" d="M301.578,869.227c8.245-2.958,36.753-4.921,27.495,1.093C319.809,876.327,285.979,874.822,301.578,869.227
			z"/>
		<path fill="#A89E46" d="M318.028,874.952c10.542-2.758,46.231-1.929,34.146,4.544
			C340.082,885.964,298.084,880.171,318.028,874.952z"/>
		<path fill="#A89E46" d="M345.987,867.051c8.493,0.041,33.623,4.83,22.703,6.295C357.768,874.811,329.915,866.973,345.987,867.051z
			"/>
		<path fill="#A89E46" d="M375.918,882.656c10.253-1.922,41.765-1.824,28.968,2.528
			C392.084,889.537,356.519,886.293,375.918,882.656z"/>
		<path fill="#757844" d="M309.26,830.5c-0.278,9.828-2.493,16.609-2.493,16.609s1.821-2.201,3.164-2.035
			c-3.199,8.127-6.399,13.717-6.399,13.717s2.308-2.253,3.831-1.822c-2.424,5.496-6.531,13.297-6.531,13.297
			s6.271,0.484,13.961-0.175c7.687-0.66,12.804-1.099,12.804-1.099s-5.423-6.072-9.513-12.807c1.325-0.459,4.689,0.995,4.689,0.995
			s-4.533-4.487-8.821-11.827c1.22-0.37,4.018,0.96,4.018,0.96S311.628,837.824,309.26,830.5z"/>
		<path fill="#757844" d="M391.269,847.141c0.929,9.006,3.429,15.082,3.429,15.082s-1.823-1.896-3.046-1.65
			c3.495,7.242,6.816,12.155,6.816,12.155s-2.272-1.908-3.642-1.409c2.601,4.882,6.909,11.763,6.909,11.763
			s-5.726,0.875-12.833,0.797c-7.104-0.078-11.833-0.13-11.833-0.13s4.564-5.948,7.857-12.412c-1.248-0.331-4.238,1.235-4.238,1.235
			s3.855-4.434,7.29-11.468c-1.146-0.257-3.623,1.156-3.623,1.156S389.595,854.03,391.269,847.141z"/>
		<path fill="#757844" d="M344.917,834.932c-1.117,8.159-5.374,12.652-5.374,12.652s1.979-0.762,2.896-0.414
			c-3.654,5.057-7.2,7.387-7.2,7.387s1.181,0.099,2.182,0.658c-2.655,3.377-6.061,6.799-6.061,6.799s3.786,2.646,9.324,3.525
			c5.536,0.879,9.775,0.24,9.775,0.24s-1.357-4.41-3.084-9.771c1.014-0.087,2.792,1.521,2.792,1.521s-1.315-3.9-3.079-9.715
			c0.924-0.043,2.672,1.521,2.672,1.521S347.429,841.616,344.917,834.932z"/>
		<path fill="#898D50" d="M421.08,858.931c-1.217,3.16-4.199,6.23-4.199,6.23s1.434-0.785,1.958-0.808
			c-2.199,3.134-4.648,5.642-4.648,5.642s2.502-1.015,3.02-0.81c-1.597,2.092-5.104,5.395-5.104,5.395s2.019,1.041,5.289,1.566
			c3.272,0.525,5.826,0.55,5.826,0.55s-1.451-2.691-2.436-5.996c0.796,0.01,2.401,1.607,2.401,1.607s-1.831-3.81-2.626-7.277
			c0.551-0.029,1.451,0.921,1.451,0.921S421.283,862.306,421.08,858.931z"/>
		<path fill="#898D50" d="M364.112,840.079c-4.421,6.28-10.051,13.712-10.051,13.712s3.47-2.164,4.207-1.646
			c-3.781,4.783-7.809,7.854-7.809,7.854s3.672-0.033,4.494,0.338c-2.73,4.084-8.486,7.99-8.486,7.99s4.571,0.719,9.834,1.838
			c5.263,1.117,8.926,2.474,8.926,2.474s-1.353-4.184-2.715-9.511c1.289,0.084,3.762,2.021,3.762,2.021s-2.843-6.47-3.887-12.035
			c0.892-0.004,2.842,2.412,2.842,2.412C364.171,852.109,363.864,848.895,364.112,840.079z"/>
		<path fill="#898D50" d="M328.505,827.445c1.837,9.573,8.557,19.758,8.557,19.758s-3.557-2.932-4.982-3.252
			c4.544,9.98,10.068,18.302,10.068,18.302s-6.379-4.106-7.895-3.774c3.383,6.724,11.434,17.826,11.434,17.826
			s-6.021,1.963-15.242,1.855c-9.221-0.107-16.23-1.293-16.23-1.293s5.256-6.938,9.521-15.84c-2.188-0.364-7.347,3.395-7.347,3.395
			s6.826-9.928,10.646-19.386c-1.488-0.356-4.411,1.896-4.411,1.896S326.345,836.936,328.505,827.445z"/>
	</g>
	<g>
		<path fill="#A89E46" d="M1168.069,884.092c22.515,6.34,32.966,10.107,32.271,16.233c-0.267,2.399-10.854,7.539-46.208-0.179
			c-26.728-5.836-42.96-15.138-38.873-20.313C1118.497,875.737,1146.813,878.099,1168.069,884.092z"/>
		<path fill="#898D50" d="M1035.554,863.262c1.312,4.732,5.097,9.572,5.097,9.572s-1.904-1.327-2.634-1.431
			c2.686,4.829,5.794,8.779,5.794,8.779s-3.368-1.803-4.115-1.573c1.971,3.236,6.461,8.484,6.461,8.484s-2.942,1.229-7.576,1.549
			c-4.635,0.317-8.2,0.008-8.2,0.008s2.358-3.695,4.138-8.338c-1.11-0.095-3.55,2.003-3.55,2.003s3.026-5.262,4.56-10.163
			c-0.761-0.117-2.138,1.131-2.138,1.131S1034.854,868.113,1035.554,863.262z"/>
		<path fill="#A89E46" d="M1087.551,877.078c8.549,0.111,12.596,0.496,12.934,3.054c0.134,1.001-3.114,4.237-16.325,4.97
			c-9.986,0.554-16.601-1.442-15.649-3.985C1069.262,879.104,1079.479,876.97,1087.551,877.078z"/>
		<path fill="#757844" d="M1092.423,853.42c1.902,5.762,4.454,12.67,4.454,12.67s-2.127-2.431-2.802-2.205
			c1.761,4.482,4.1,7.728,4.1,7.728s-2.766-0.867-3.474-0.775c1.129,3.714,4.586,7.988,4.586,7.988s-3.621-0.506-7.856-0.869
			c-4.235-0.359-7.315-0.175-7.315-0.175s1.981-2.853,4.232-6.567c-0.994-0.232-3.307,0.666-3.307,0.666s3.631-4.236,5.697-8.207
			c-0.672-0.209-2.703,1.174-2.703,1.174C1089.619,862.502,1090.588,860.142,1092.423,853.42z"/>
		<path fill="#898D50" d="M1082.072,854.213c-2.902,6.758-6.707,14.832-6.707,14.832s2.822-2.712,3.615-2.37
			c-2.598,5.229-5.763,8.9-5.763,8.9s3.431-0.757,4.277-0.573c-1.754,4.367-6.376,9.164-6.376,9.164s4.427-0.229,9.578-0.223
			c5.15,0.009,8.851,0.555,8.851,0.555s-2.091-3.652-4.422-8.376c1.225-0.175,3.924,1.153,3.924,1.153s-3.94-5.496-6.018-10.509
			c0.834-0.18,3.139,1.699,3.139,1.699C1084.505,865.471,1083.584,862.521,1082.072,854.213z"/>
		<path fill="#757844" d="M1167.971,833.551c0.08,11.912,2.585,20.183,2.585,20.183s-2.148-2.714-3.78-2.55
			c3.662,9.931,7.39,16.783,7.39,16.783s-2.732-2.788-4.589-2.309c2.788,6.722,7.559,16.277,7.559,16.277s-7.609,0.42-16.902-0.578
			c-9.295-1.003-15.479-1.668-15.479-1.668s6.729-7.214,11.857-15.262c-1.593-0.591-5.707,1.081-5.707,1.081
			s5.608-5.313,10.995-14.092c-1.469-0.479-4.89,1.058-4.89,1.058S1164.911,842.357,1167.971,833.551z"/>
		<path fill="#757844" d="M1121.223,835.344c0.988,9.93,5.941,15.558,5.941,15.558s-2.361-1.011-3.49-0.632
			c4.199,6.285,8.391,9.265,8.391,9.265s-1.435,0.063-2.67,0.701c3.063,4.207,7.032,8.5,7.032,8.5s-4.702,3.036-11.443,3.854
			c-6.742,0.817-11.847-0.146-11.847-0.146s1.84-5.279,4.169-11.692c-1.224-0.15-3.447,1.716-3.447,1.716s1.766-4.661,4.159-11.62
			c-1.117-0.098-3.302,1.722-3.302,1.722S1117.883,843.324,1121.223,835.344z"/>
		<path fill="#898D50" d="M1140.6,829.168c-2.846,10.281-11.07,20.801-11.07,20.801s4.137-2.885,5.722-3.108
			c-5.834,10.491-12.592,19.08-12.592,19.08s7.318-3.918,8.942-3.423c-4.28,7.035-14.039,18.439-14.039,18.439
			s6.396,2.672,16.465,3.366c10.068,0.689,17.818,0.015,17.818,0.015s-5.125-8.029-8.993-18.117
			c2.418-0.205,7.716,4.353,7.716,4.353s-6.575-11.433-9.909-22.084c1.653-0.258,4.646,2.457,4.646,2.457
			S1142.123,839.711,1140.6,829.168z"/>
		<path fill="#898D50" d="M1183.62,852.335c-5.132,8.28-11.665,18.04-11.665,18.04s4.035-2.668,4.896-1.877
			c-4.39,6.266-9.07,10.138-9.07,10.138s4.273,0.302,5.238,0.894c-3.17,5.398-9.865,10.263-9.865,10.263s5.332,1.433,11.471,3.479
			c6.137,2.05,10.409,4.272,10.409,4.272s-1.588-5.922-3.196-13.435c1.502,0.24,4.39,3.162,4.39,3.162s-3.336-9.229-4.569-17.04
			c1.038,0.077,3.318,3.611,3.318,3.611C1183.732,869.004,1183.364,864.523,1183.62,852.335z"/>
	</g>
	<path fill="#FDFFEB" d="M306.271,701.576l101.886,24.326c0,0,0.754-11.639-17.441-7.92c0,0,6.146-22.632-19.463-11.268
		c0,0-7.35-60.634-46.232-9.096C325.02,697.62,301.82,675.98,306.271,701.576z"/>
	<g>
		<path fill="#A89E46" d="M92.507,852.604c5.471-0.466,23.299,3.207,16.797,5.446C102.799,860.289,82.153,853.484,92.507,852.604z"
			/>
		<path fill="#A89E46" d="M73.121,855.703c9.187-2.184,41.365,0.229,31.184,5.927C94.118,867.321,55.738,859.834,73.121,855.703z"/>
		<path fill="#A89E46" d="M102.456,855.585c4.933,0.349,19.349,4.095,12.949,4.527C109.002,860.544,93.122,854.924,102.456,855.585z
			"/>
		<path fill="#A89E46" d="M119.247,865.798c6.03-0.724,24.334,0.541,16.732,2.58C128.375,870.416,107.837,867.167,119.247,865.798z"
			/>
		<path fill="#757844" d="M82.52,832.942c-0.539,5.699-2.085,9.555-2.085,9.555s1.143-1.209,1.917-1.063
			c-2.17,4.601-4.244,7.725-4.244,7.725s1.427-1.222,2.296-0.911c-1.619,3.1-4.304,7.475-4.304,7.475s3.625,0.521,8.117,0.435
			c4.491-0.089,7.481-0.148,7.481-0.148s-2.918-3.734-5.037-7.804c0.788-0.216,2.687,0.758,2.687,0.758s-2.462-2.781-4.671-7.21
			c0.723-0.168,2.297,0.712,2.297,0.712S83.614,837.289,82.52,832.942z"/>
		<path fill="#757844" d="M129.526,845.753c0.194,5.269,1.414,8.894,1.414,8.894s-0.987-1.172-1.707-1.075
			c1.753,4.342,3.494,7.323,3.494,7.323s-1.248-1.196-2.061-0.959c1.323,2.937,3.563,7.1,3.563,7.1s-3.359,0.288-7.486-0.029
			c-4.124-0.316-6.87-0.529-6.87-0.529s2.88-3.279,5.041-6.908c-0.712-0.24-2.51,0.556-2.51,0.556s2.409-2.428,4.674-6.384
			c-0.656-0.192-2.149,0.534-2.149,0.534S128.29,849.691,129.526,845.753z"/>
		<path fill="#757844" d="M103.065,836.884c-0.962,4.697-3.607,7.146-3.607,7.146s1.178-0.367,1.698-0.13
			c-2.317,2.798-4.466,4.016-4.466,4.016s0.682,0.102,1.242,0.465c-1.672,1.861-3.781,3.719-3.781,3.719s2.098,1.682,5.282,2.405
			c3.183,0.724,5.67,0.514,5.67,0.514s-0.62-2.612-1.417-5.795c0.592-0.012,1.563,0.99,1.563,0.99s-0.615-2.314-1.417-5.762
			c0.539,0.012,1.494,0.987,1.494,0.987S104.268,840.864,103.065,836.884z"/>
		<path fill="#898D50" d="M146.394,853.745c-0.828,1.789-2.678,3.458-2.678,3.458s0.862-0.401,1.168-0.394
			c-1.398,1.735-2.917,3.099-2.917,3.099s1.492-0.492,1.785-0.354c-1.007,1.154-3.172,2.938-3.172,2.938s1.132,0.682,3.013,1.111
			c1.881,0.433,3.363,0.544,3.363,0.544s-0.74-1.619-1.185-3.577c0.462,0.036,1.334,1.025,1.334,1.025s-0.919-2.283-1.247-4.329
			c0.32,0.005,0.808,0.592,0.808,0.592S146.383,855.714,146.394,853.745z"/>
		<path fill="#898D50" d="M114.02,840.609c-2.809,3.479-6.364,7.581-6.364,7.581s2.099-1.124,2.507-0.794
			c-2.38,2.635-4.837,4.264-4.837,4.264s2.135,0.122,2.598,0.369c-1.743,2.268-5.237,4.315-5.237,4.315s2.629,0.593,5.643,1.444
			c3.015,0.851,5.091,1.779,5.091,1.779s-0.625-2.482-1.213-5.63c0.746,0.099,2.108,1.318,2.108,1.318s-1.404-3.868-1.796-7.142
			c0.518,0.031,1.558,1.511,1.558,1.511C113.593,847.602,113.538,845.722,114.02,840.609z"/>
		<path fill="#898D50" d="M93.817,831.905c0.7,5.633,4.213,11.808,4.213,11.808s-1.954-1.84-2.77-2.081
			c2.257,5.975,5.148,11.02,5.148,11.02s-3.549-2.63-4.441-2.495c1.707,4.035,5.959,10.794,5.959,10.794s-3.573,0.91-8.926,0.494
			s-9.38-1.372-9.38-1.372s3.32-3.83,6.139-8.838c-1.258-0.297-4.398,1.689-4.398,1.689s4.346-5.506,6.928-10.854
			c-0.851-0.266-2.635,0.933-2.635,0.933S92.198,837.336,93.817,831.905z"/>
	</g>
</g>
<g id="text">
</g>
<polygon fill="#F2F2F2" points="160.752,498.063 162.458,482.485 181.803,481.391 162.473,479.036 159.824,464.925 158.623,479.313 
	147.105,481.991 158.85,482.954 "/>
<polygon fill="#F2F2F2" points="140.674,121.611 142.59,108.071 162.534,106.25 142.606,104.198 139.631,88.35 138.283,104.509 
	125.151,106.726 137.945,108.399 "/>
<polygon fill="#F2F2F2" points="1023.57,795.917 1024.287,790.849 1031.752,790.167 1024.294,789.399 1023.18,783.467 
	1022.676,789.516 1017.76,790.346 1022.55,790.972 "/>
<polygon fill="#F2F2F2" points="1125.876,400.729 1126.593,395.661 1134.058,394.979 1126.6,394.211 1125.485,388.28 
	1124.981,394.328 1120.065,395.158 1124.855,395.784 "/>
<polygon fill="#F2F2F2" points="676.143,676.855 676.859,671.787 684.324,671.104 676.866,670.337 675.752,664.405 675.248,670.453 
	670.332,671.283 675.122,671.91 "/>
<polygon fill="#F2F2F2" points="332.082,404.339 332.799,399.271 340.264,398.589 332.806,397.821 331.691,391.89 331.188,397.938 
	326.271,398.768 331.062,399.394 "/>
<polygon fill="#F2F2F2" points="1128.215,155.13 1129.385,146.852 1141.578,145.737 1129.397,144.483 1127.576,134.794 
	1126.754,144.673 1118.724,146.029 1126.548,147.052 "/>
<polygon fill="#F2F2F2" points="1045.168,757.242 1056.566,756.359 1045.424,754.092 1050.309,747.126 1044.246,752.136 
	1042.122,740.063 1040.878,753.148 1034.726,749.217 1039.201,754.493 1029.472,756.636 1038.851,757.403 1035.138,762.907 
	1040.701,758.825 1042.695,769.084 1044.219,759.15 1049.321,763.52 "/>
<polygon fill="#F2F2F2" points="920.798,73.543 928.998,72.909 920.982,71.277 924.496,66.266 920.135,69.87 918.606,61.185 
	917.712,70.599 913.286,67.771 916.506,71.566 909.506,73.107 916.253,73.659 913.582,77.619 917.584,74.683 919.02,82.063 
	920.115,74.917 923.786,78.06 "/>
<polygon fill="#DAE9EA" points="334.444,824.116 339.642,823.714 334.561,822.68 336.789,819.504 334.024,821.787 333.056,816.282 
	332.488,822.25 329.683,820.457 331.724,822.863 327.287,823.84 331.564,824.189 329.871,826.699 332.408,824.838 333.317,829.517 
	334.012,824.986 336.338,826.979 "/>
<polygon fill="#F2F2F2" points="1128.041,597.988 1133.238,597.586 1128.158,596.553 1130.385,593.376 1127.621,595.66 
	1126.652,590.154 1126.085,596.122 1123.279,594.329 1125.32,596.735 1120.883,597.713 1125.16,598.063 1123.467,600.572 
	1126.004,598.711 1126.914,603.389 1127.608,598.859 1129.936,600.852 "/>
<polygon fill="#F2F2F2" points="458.214,82.95 463.412,82.547 458.331,81.513 460.559,78.337 457.794,80.621 456.826,75.116 
	456.258,81.083 453.453,79.29 455.494,81.696 451.057,82.673 455.334,83.023 453.641,85.533 456.178,83.671 457.087,88.35 
	457.782,83.82 460.108,85.813 "/>
<polygon fill="#F2F2F2" points="733.798,397.543 741.998,396.909 733.982,395.277 737.496,390.266 733.135,393.87 731.606,385.185 
	730.712,394.599 726.286,391.771 729.506,395.566 722.506,397.107 729.253,397.659 726.582,401.619 730.584,398.683 732.02,406.063 
	733.115,398.917 736.786,402.06 "/>
<polygon fill="#F2F2F2" points="419.209,291.508 427.409,290.874 419.394,289.242 422.907,284.231 418.546,287.835 417.018,279.15 
	416.123,288.564 411.697,285.735 414.917,289.531 407.917,291.072 414.664,291.624 411.993,295.584 415.995,292.647 
	417.431,300.027 418.526,292.882 422.197,296.025 "/>
<polygon fill="#F2F2F2" points="1417.143,146.882 1425.343,146.247 1417.327,144.616 1420.841,139.604 1416.479,143.208 
	1414.951,134.523 1414.057,143.938 1409.631,141.109 1412.851,144.905 1405.851,146.446 1412.598,146.998 1409.927,150.958 
	1413.929,148.021 1415.364,155.401 1416.46,148.255 1420.131,151.398 "/>
<polygon fill="#F2F2F2" points="1334.356,545.743 1342.557,545.108 1334.541,543.477 1338.055,538.466 1333.693,542.069 
	1332.165,533.384 1331.271,542.798 1326.845,539.97 1330.064,543.766 1323.064,545.307 1329.812,545.858 1327.141,549.818 
	1331.143,546.882 1332.578,554.262 1333.674,547.116 1337.345,550.259 "/>
<polygon fill="#F2F2F2" points="70.21,731.543 78.411,730.908 70.395,729.276 73.909,724.266 69.547,727.87 68.019,719.185 
	67.125,728.599 62.699,725.771 65.918,729.565 58.918,731.106 65.666,731.659 62.995,735.618 66.997,732.683 68.432,740.062 
	69.528,732.917 73.199,736.06 "/>
<polygon fill="#F2F2F2" points="780.199,201.583 780.916,196.514 788.381,195.832 780.923,195.064 779.809,189.133 779.305,195.181 
	774.389,196.011 779.179,196.637 "/>
<polygon fill="#F2F2F2" points="973.426,609.613 974.143,604.545 981.607,603.862 974.149,603.095 973.035,597.163 972.531,603.212 
	967.615,604.042 972.405,604.668 "/>
<polygon fill="#F2F2F2" points="615.426,533.384 616.143,528.315 623.607,527.634 616.149,526.866 615.035,520.935 614.531,526.981 
	609.615,527.812 614.405,528.438 "/>
<polygon fill="#F2F2F2" points="456.049,493.944 456.766,488.876 464.23,488.193 456.772,487.426 455.658,481.494 455.154,487.542 
	450.238,488.372 455.028,488.999 "/>
<polygon fill="#F2F2F2" points="529.969,734.526 531.139,726.249 543.332,725.134 531.151,723.88 529.33,714.191 528.508,724.069 
	520.478,725.426 528.302,726.449 "/>
<polygon fill="#F2F2F2" points="1212.128,527.159 1213.298,518.882 1225.491,517.767 1213.311,516.513 1211.489,506.824 
	1210.667,516.702 1202.637,518.059 1210.461,519.082 "/>
<ellipse transform="matrix(0.7657 0.6432 -0.6432 0.7657 512.9478 -709.2983)" fill="#FFEAA1" cx="1229.967" cy="349.358" rx="63.74" ry="67.261"/>
<circle fill="#E8CD72" cx="1229.967" cy="349.358" r="59.073"/>
<path fill="#D1B05C" d="M1258.29,346.208c-10.573,0.91-23.114-2.936-30.217-6.773c-6.998-3.781-14.744-8.522-19.075-15.397
	c-2.276-3.611-3.767-8.464-3.675-12.773c0.331-15.495,19.807-18.711,31.852-16.79c5.24,0.836,11.323,2.423,16.043,4.886
	c5.903,3.082,11.503,7.319,15.604,12.603c4.562,5.877,9.155,13.209,7.148,20.999C1273.68,341.847,1266.591,345.494,1258.29,346.208z
	"/>
<path fill="#D1B05C" d="M1273.956,368.436c5.527-4.508,10.935-11.459,8.203-16.874c-2.225-4.411-7.374-4.074-12.31-1.873
	c-4.014,1.792-8.835,4.746-11.97,9.957c-3.608,5.998-2.991,12.929,0.785,14.223C1262.766,375.274,1269.01,372.469,1273.956,368.436z
	"/>
<path fill="#B0C3CC" d="M1247.867,401.762c0,0-2.248-11.524-20.741-7.21c0,0-29.814-69.95-62.048-7.322
	c0,0-20.233-18.758-24.15,6.514c0,0-17.163-6.148-23.073,6.494L1247.867,401.762z"/>
</svg>
