<?xml version="1.0" encoding="utf-8"?>
<!-- Generator: Adobe Illustrator 16.0.0, SVG Export Plug-In . SVG Version: 6.00 Build 0)  -->
<!DOCTYPE svg PUBLIC "-//W3C//DTD SVG 1.1//EN" "http://www.w3.org/Graphics/SVG/1.1/DTD/svg11.dtd">
<svg version="1.1" id="Layer_1" xmlns="http://www.w3.org/2000/svg" xmlns:xlink="http://www.w3.org/1999/xlink" x="0px" y="0px"
	 width="720px" height="720px" viewBox="640 40 720 720" enable-background="new 640 40 720 720" xml:space="preserve">
<g>
	<path d="M1100.264,282.768v-7.944c0-55.288-44.976-100.264-100.264-100.264s-100.264,44.976-100.264,100.264V400.88
		c0,23.104,7.928,44.344,21.111,61.313L1100.264,282.768z"/>
	<path d="M937.688,479.28c17.129,13.64,38.769,21.855,62.313,21.855c55.288,0,100.264-44.976,100.264-100.264v-84.168
		L937.688,479.28z"/>
</g>
<path d="M1000,40c-198.48,0-360,161.52-360,360c0,198.48,161.52,360,360,360s360-161.52,360-360C1360,201.52,1198.48,40,1000,40z
	 M1191.968,225l-63.056,63.056v112.808c0,71.08-57.832,128.912-128.912,128.912c-31.448,0-60.271-11.353-82.672-30.128
	l-12.145,12.144c25.545,21.872,58.633,35.168,94.816,35.168c80.561,0,146.096-65.536,146.096-146.096
	c0-7.912,6.416-14.32,14.32-14.32c7.912,0,14.32,6.408,14.32,14.32c0,91.527-70.752,166.792-160.424,174.104v64.8
	c0,7.912-6.408,14.32-14.32,14.32s-14.32-6.416-14.32-14.32v-64.8c-38.456-3.136-73.376-18.84-100.784-42.896L825,591.96
	c-2.344,2.344-5.416,3.512-8.488,3.512s-6.144-1.168-8.488-3.512c-4.688-4.688-4.688-12.28,0-16.968l60-60
	c-26.56-30.648-42.775-70.488-42.775-114.136c0-7.912,6.416-14.32,14.32-14.32c7.912,0,14.319,6.408,14.319,14.32
	c0,35.752,12.952,68.495,34.353,93.92l12.16-12.16c-18.313-22.265-29.328-50.744-29.328-81.752V274.816
	c0-71.08,57.832-128.912,128.912-128.912c64.567,0,118.048,47.768,127.336,109.792l47.664-47.664c4.688-4.688,12.279-4.688,16.968,0
	C1196.64,212.72,1196.656,220.312,1191.968,225z"/>
</svg>
