<?xml version="1.0" encoding="utf-8"?>
<!-- Generator: Adobe Illustrator 16.0.0, SVG Export Plug-In . SVG Version: 6.00 Build 0)  -->
<!DOCTYPE svg PUBLIC "-//W3C//DTD SVG 1.1//EN" "http://www.w3.org/Graphics/SVG/1.1/DTD/svg11.dtd">
<svg version="1.1" id="Layer_1" xmlns="http://www.w3.org/2000/svg" xmlns:xlink="http://www.w3.org/1999/xlink" x="0px" y="0px"
	 width="720px" height="720px" viewBox="0 0 720 720" enable-background="new 0 0 720 720" xml:space="preserve">
<g>
	<path d="M157.333,483.048h57.905l43.428-57.905h202.667l43.429,57.905h57.905V236.952H157.333V483.048z M461.333,309.333
		c15.99,0,28.952,12.962,28.952,28.952s-12.962,28.953-28.952,28.953s-28.952-12.962-28.952-28.953S445.343,309.333,461.333,309.333
		z M316.571,323.81h86.857v28.952h-86.857V323.81z M258.667,309.333c15.99,0,28.953,12.962,28.953,28.952
		s-12.962,28.953-28.953,28.953s-28.952-12.962-28.952-28.953S242.676,309.333,258.667,309.333z"/>
	<path d="M360,0C161.52,0,0,161.52,0,360c0,198.48,161.52,360,360,360c198.48,0,360-161.52,360-360C720,161.52,558.48,0,360,0z
		 M591.619,497.523c0,7.995-6.481,14.477-14.477,14.477H142.857c-7.995,0-14.477-6.481-14.477-14.477V222.476
		c0-7.995,6.481-14.476,14.477-14.476h434.285c7.995,0,14.477,6.481,14.477,14.476V497.523z"/>
</g>
</svg>
