<?xml version="1.0" encoding="utf-8"?>
<!-- Generator: Adobe Illustrator 16.0.0, SVG Export Plug-In . SVG Version: 6.00 Build 0)  -->
<!DOCTYPE svg PUBLIC "-//W3C//DTD SVG 1.1//EN" "http://www.w3.org/Graphics/SVG/1.1/DTD/svg11.dtd">
<svg version="1.1" id="Layer_1" xmlns="http://www.w3.org/2000/svg" xmlns:xlink="http://www.w3.org/1999/xlink" x="0px" y="0px"
	 width="720px" height="720px" viewBox="640 40 720 720" enable-background="new 640 40 720 720" xml:space="preserve">
<path d="M1000,501.128c55.288,0,100.264-44.976,100.264-100.264V274.816c0-55.288-44.976-100.264-100.264-100.264
	s-100.264,44.976-100.264,100.264v126.048C899.736,456.152,944.712,501.128,1000,501.128z"/>
<path d="M1000,40c-198.48,0-360,161.52-360,360c0,198.48,161.52,360,360,360s360-161.52,360-360C1360,201.52,1198.48,40,1000,40z
	 M871.088,274.816c0-71.08,57.832-128.912,128.912-128.912s128.912,57.832,128.912,128.912v126.048
	c0,71.08-57.832,128.912-128.912,128.912s-128.912-57.832-128.912-128.912V274.816z M1014.32,574.968v64.8
	c0,7.912-6.408,14.32-14.32,14.32s-14.32-6.416-14.32-14.32v-64.8c-89.68-7.312-160.424-82.576-160.424-174.104
	c0-7.912,6.416-14.32,14.32-14.32c7.912,0,14.32,6.408,14.32,14.32c0,80.56,65.543,146.096,146.096,146.096
	c80.552,0,146.096-65.536,146.096-146.096c0-7.912,6.416-14.32,14.32-14.32c7.912,0,14.32,6.408,14.32,14.32
	C1174.744,492.392,1104,567.656,1014.32,574.968z"/>
</svg>
