<?xml version="1.0" encoding="utf-8"?>
<!-- Generator: Adobe Illustrator 16.0.0, SVG Export Plug-In . SVG Version: 6.00 Build 0)  -->
<!DOCTYPE svg PUBLIC "-//W3C//DTD SVG 1.1//EN" "http://www.w3.org/Graphics/SVG/1.1/DTD/svg11.dtd">
<svg version="1.1" id="Layer_1" xmlns="http://www.w3.org/2000/svg" xmlns:xlink="http://www.w3.org/1999/xlink" x="0px" y="0px"
	 width="720px" height="720px" viewBox="0 0 720 720" enable-background="new 0 0 720 720" xml:space="preserve">
<g>
	<path d="M507.111,298.722c-33.803,0-61.298,27.496-61.298,61.288c0,33.684,27.277,61.059,60.912,61.268h0.386
		c0.043,0,0.086,0.006,0.129,0.007c33.732-0.07,61.139-27.495,61.139-61.274C568.379,326.218,540.882,298.722,507.111,298.722z"/>
	<path d="M212.898,421.277h0.385c33.625-0.209,60.902-27.574,60.902-61.268c0-33.792-27.485-61.288-61.288-61.288
		c-33.802,0-61.288,27.496-61.288,61.288c0,33.77,27.407,61.204,61.16,61.274C212.813,421.283,212.854,421.277,212.898,421.277z"/>
	<path d="M360,0C161.52,0,0,161.52,0,360c0,198.48,161.52,360,360,360c198.48,0,360-161.52,360-360C720,161.52,558.48,0,360,0z
		 M507.111,448.509H212.898l0,0c0,0,0,0,0,0c-48.808,0-88.519-39.691-88.519-88.51c0-48.818,39.711-88.508,88.519-88.508
		c48.819,0,88.509,39.68,88.509,88.508c0,23.765-9.408,45.365-24.694,61.278h166.583c-15.29-15.913-24.703-37.514-24.703-61.278
		c0-48.818,39.711-88.508,88.519-88.508c48.788,0,88.509,39.68,88.509,88.508C595.62,408.817,555.899,448.509,507.111,448.509z"/>
</g>
</svg>
