<?xml version="1.0" encoding="utf-8"?>
<!-- Generator: Adobe Illustrator 16.0.0, SVG Export Plug-In . SVG Version: 6.00 Build 0)  -->
<!DOCTYPE svg PUBLIC "-//W3C//DTD SVG 1.1//EN" "http://www.w3.org/Graphics/SVG/1.1/DTD/svg11.dtd">
<svg version="1.1" id="Layer_1" xmlns="http://www.w3.org/2000/svg" xmlns:xlink="http://www.w3.org/1999/xlink" x="0px" y="0px"
	 width="720px" height="720px" viewBox="0 0 720 720" enable-background="new 0 0 720 720" xml:space="preserve">
<g>
	<path d="M360,0C161.52,0,0,161.52,0,360c0,198.48,161.52,360,360,360c198.48,0,360-161.52,360-360C720,161.52,558.48,0,360,0z
		 M557.764,391.525L271.451,550.814c-7.575,4.195-15.06,6.314-22.323,6.314c-20.005,0-33.505-15.775-33.505-39.27V201.823
		c0-31.996,27.491-48.73,55.828-32.911l286.313,159.29c13.924,7.72,21.877,19.256,21.877,31.639S571.688,383.76,557.764,391.525z"/>
	<path d="M546.047,349.22l-286.359-159.29c-3.943-2.164-7.597-3.347-10.693-3.347c-8.265,0-9.534,9.55-9.534,15.262v316.035
		c0,5.713,1.27,15.263,9.534,15.263c3.097,0,6.75-1.139,10.693-3.303l286.359-159.334c5.836-3.235,9.49-7.319,9.49-10.644
		C555.537,356.539,551.883,352.5,546.047,349.22z"/>
</g>
</svg>
