<?xml version="1.0" encoding="utf-8"?>
<!-- Generator: Adobe Illustrator 16.0.0, SVG Export Plug-In . SVG Version: 6.00 Build 0)  -->
<!DOCTYPE svg PUBLIC "-//W3C//DTD SVG 1.1//EN" "http://www.w3.org/Graphics/SVG/1.1/DTD/svg11.dtd">
<svg version="1.1" id="Layer_1" xmlns="http://www.w3.org/2000/svg" xmlns:xlink="http://www.w3.org/1999/xlink" x="0px" y="0px"
	 width="720px" height="720px" viewBox="0 0 720 720" enable-background="new 0 0 720 720" xml:space="preserve">
<path d="M360,0C161.52,0,0,161.52,0,360c0,198.48,161.52,360,360,360c198.48,0,360-161.52,360-360C720,161.52,558.48,0,360,0z
	 M267.178,539.476c0,16.517-11.042,29.912-24.657,29.912c-13.622,0-24.658-13.396-24.658-29.912V180.524
	c0-16.525,11.037-29.913,24.658-29.913c13.615,0,24.657,13.388,24.657,29.913V539.476z M502.139,539.476
	c0,16.517-11.042,29.912-24.658,29.912c-13.621,0-24.657-13.396-24.657-29.912V180.524c0-16.525,11.036-29.913,24.657-29.913
	c13.616,0,24.658,13.388,24.658,29.913V539.476z"/>
</svg>
