<?xml version="1.0" encoding="utf-8"?>
<!-- Generator: Adobe Illustrator 16.0.0, SVG Export Plug-In . SVG Version: 6.00 Build 0)  -->
<!DOCTYPE svg PUBLIC "-//W3C//DTD SVG 1.1//EN" "http://www.w3.org/Graphics/SVG/1.1/DTD/svg11.dtd">
<svg version="1.1" id="Layer_1" xmlns="http://www.w3.org/2000/svg" xmlns:xlink="http://www.w3.org/1999/xlink" x="0px" y="0px"
	 width="720px" height="720px" viewBox="0 0 720 720" enable-background="new 0 0 720 720" xml:space="preserve">
<path d="M360,0C161.52,0,0,161.52,0,360c0,198.48,161.52,360,360,360c198.48,0,360-161.52,360-360C720,161.52,558.48,0,360,0z
	 M362.123,574.007c-86.895,0-162.139-51.737-195.849-126.106l-18.789,28.979c-5.864,8.944-19.31,11.778-28.285,5.962
	c-8.975-5.815-11.879-19.249-6.109-28.253l43.31-65.919c3.215-5.021,8.732-8.503,14.648-9.236c3.329-0.396,6.753,0.048,9.873,1.273
	l67.513,27.387c9.922,4.002,15.308,16.67,11.305,26.591c-4.002,9.922-16.67,15.308-26.59,11.306l-28.024-11.464
	c27.905,58.374,87.429,98.72,156.999,98.72c96.351,0,173.875-77.352,173.875-173.239c0-93.163-73.457-169.019-165.914-173.238
	c-10.672,0.585-20.914-8.594-21.498-19.266c0.353-14.173,11.207-21.883,23.408-21.496c113.801,5.193,204.767,99.337,204.767,214
	C576.761,477.985,480.424,574.007,362.123,574.007z"/>
</svg>
