<?xml version="1.0" encoding="utf-8"?>
<!-- Generator: Adobe Illustrator 16.0.0, SVG Export Plug-In . SVG Version: 6.00 Build 0)  -->
<svg version="1.2" baseProfile="tiny" xmlns="http://www.w3.org/2000/svg" xmlns:xlink="http://www.w3.org/1999/xlink" x="0px"
	 y="0px" width="1465.285px" height="934.764px" viewBox="0 0 1465.285 934.764" overflow="scroll" xml:space="preserve">
<g id="art">
	<linearGradient id="SVGID_1_" gradientUnits="userSpaceOnUse" x1="732.6431" y1="935.0918" x2="732.643" y2="0.2964">
		<stop  offset="0" style="stop-color:#FFF7B3"/>
		<stop  offset="0.0698" style="stop-color:#E6F2BF"/>
		<stop  offset="0.1698" style="stop-color:#CAEDCC"/>
		<stop  offset="0.2773" style="stop-color:#B4E8D6"/>
		<stop  offset="0.3943" style="stop-color:#A4E5DD"/>
		<stop  offset="0.528" style="stop-color:#9BE4E2"/>
		<stop  offset="0.7152" style="stop-color:#98E3E3"/>
		<stop  offset="1" style="stop-color:#80D9D9"/>
	</linearGradient>
	<rect y="0.296" fill="url(#SVGID_1_)" width="1465.285" height="934.796"/>
	<path fill="#FDFFEB" d="M1074.476,855.276c0,0,1.604-17.067,20.637-10.079c0,0-9.821-32.664,23.908-13.088
		c0,0,29.365-80.541,53.714-7.41c0,0,19.334-36.088,21.737,0.994c0,0,14.96-9.74,19.593,3.529L1074.476,855.276z"/>
	<path fill="#FDFFEB" d="M306.417,823.423l137.319,20.928c0,0-0.285-15.463-23.92-8.546c0,0,5.627-30.584-26.965-12.745
		c0,0-16.387-79.317-62.094-6.93C330.758,816.13,297.718,790.088,306.417,823.423z"/>
	<path fill="#FDFFEB" d="M1202.063,716.534l-97.877,20.23c0,0-0.379-11.121,16.865-7.045c0,0-5.2-21.763,18.893-10.178
		c0,0,8.774-57.611,44.354-7.327C1184.298,712.215,1207.053,692.253,1202.063,716.534z"/>
	<path fill="#FDFFEB" d="M1024.756,805.628c0,0-3.867-13.368-25.246-6.327c0,0-42.568-79.438-74.022-2.105
		c0,0-25.864-20.014-27.824,10.235c0,0-20.91-5.45-26.555,10.097L1024.756,805.628z"/>
	<path fill="#B7B84A" d="M1036.157,935.092c0,0,159.375-88.785,433.222-87.831v87.831H1036.157z"/>
	<g>
		<path fill="#A89E46" d="M782.277,857.793c13.119-3.977,37.951-4.333,47.191-4.363c7.095-0.023,26.839,2.112,18.481,3.967
			c-8.358,1.852-23.506,5.866-16.832,6.448c6.677,0.584,25.546,4.898,7.481,7.842c-13.004,2.113-43.288,0.443-57.213-3.683
			L782.277,857.793z"/>
		<path fill="#A89E46" d="M846.68,857.302c8.457,0.778,33.076,7.733,22.07,8.243C857.74,866.056,830.675,855.827,846.68,857.302z"/>
		<path fill="#A89E46" d="M875.141,875.449c10.381-1.022,41.766,1.813,28.638,5.036C890.646,883.71,855.498,877.387,875.141,875.449
			z"/>
		<path fill="#757844" d="M813.267,817.697c-1.131,9.767-3.927,16.329-3.927,16.329s2.006-2.033,3.329-1.752
			c-3.894,7.818-7.567,13.109-7.567,13.109s2.495-2.045,3.975-1.483c-2.893,5.267-7.661,12.68-7.661,12.68s6.205,1.027,13.923,1.039
			c7.715,0.01,12.851,0.019,12.851,0.019s-4.874-6.521-8.364-13.584c1.36-0.342,4.586,1.399,4.586,1.399s-4.126-4.866-7.761-12.551
			c1.248-0.263,3.919,1.306,3.919,1.306S814.989,825.199,813.267,817.697z"/>
		<path fill="#757844" d="M893.52,841.401c0.143,9.053,2.105,15.322,2.105,15.322s-1.652-2.047-2.892-1.908
			c2.853,7.52,5.734,12.702,5.734,12.702s-2.099-2.099-3.505-1.722c2.166,5.09,5.86,12.318,5.86,12.318s-5.778,0.375-12.854-0.32
			c-7.07-0.695-11.777-1.158-11.777-1.158s5.063-5.529,8.906-11.683c-1.214-0.437-4.329,0.862-4.329,0.862s4.226-4.08,8.259-10.789
			c-1.118-0.355-3.71,0.837-3.71,0.837S891.253,848.12,893.52,841.401z"/>
		<path fill="#757844" d="M848.404,825.211c-1.822,8.032-6.454,12.138-6.454,12.138s2.038-0.586,2.922-0.16
			c-4.079,4.719-7.814,6.732-7.814,6.732s1.168,0.199,2.116,0.846c-2.938,3.133-6.628,6.245-6.628,6.245s3.542,2.964,8.981,4.322
			s9.719,1.089,9.719,1.089s-0.97-4.51-2.225-10.002c1.018,0.002,2.649,1.758,2.649,1.758s-0.971-3.999-2.223-9.945
			c0.924,0.038,2.529,1.75,2.529,1.75S850.325,832.089,848.404,825.211z"/>
		<path fill="#898D50" d="M922.193,855.737c-1.486,3.043-4.725,5.843-4.725,5.843s1.495-0.657,2.021-0.633
			c-2.463,2.929-5.122,5.215-5.122,5.215s2.58-0.795,3.079-0.543c-1.772,1.944-5.556,4.929-5.556,4.929s1.921,1.213,5.134,2.021
			c3.215,0.809,5.757,1.053,5.757,1.053s-1.212-2.807-1.905-6.186c0.792,0.08,2.253,1.813,2.253,1.813s-1.494-3.955-1.983-7.478
			c0.551,0.017,1.366,1.042,1.366,1.042S922.103,859.118,922.193,855.737z"/>
		<path fill="#898D50" d="M867.08,832.008c-4.95,5.871-11.205,12.786-11.205,12.786s3.645-1.854,4.334-1.272
			c-4.183,4.436-8.462,7.146-8.462,7.146s3.661,0.285,4.448,0.727c-3.074,3.831-9.148,7.223-9.148,7.223s4.492,1.114,9.637,2.686
			c5.146,1.569,8.677,3.24,8.677,3.24s-0.983-4.285-1.878-9.711c1.277,0.195,3.572,2.341,3.572,2.341s-2.271-6.69-2.826-12.327
			c0.889,0.073,2.621,2.649,2.621,2.649C866.092,843.997,866.066,840.768,867.08,832.008z"/>
		<path fill="#898D50" d="M784.391,833.564c0.537-0.915,1.076-1.849,1.61-2.802c-0.368-0.074-0.853,0.01-1.381,0.186l0.673-7.729
			c2.103-3.959,4.525-8.478,6.748-12.5c-0.169,13.816,4.891,22.795,4.891,22.795s-3.077-1.645-4.905-2.437
			c4.45,10.521,11.21,17.795,11.21,17.795s-3.775-1.763-7.61-2.248c3.969,7.788,12.149,16.615,12.149,16.615
			s-8.649,1.015-19.844,0.864c-2.211-0.03-4.285-0.052-6.199-0.067L784.391,833.564z"/>
		<path fill="#898D50" d="M832.705,816.327c0.997,9.697,6.807,20.426,6.807,20.426s-3.288-3.229-4.68-3.672
			c3.658,10.338,8.439,19.107,8.439,19.107s-5.998-4.646-7.537-4.445c2.786,6.989,9.842,18.752,9.842,18.752
			s-6.169,1.432-15.347,0.523c-9.177-0.908-16.057-2.699-16.057-2.699s5.839-6.453,10.862-14.951
			c-2.148-0.555-7.613,2.742-7.613,2.742s7.662-9.297,12.289-18.387c-1.451-0.484-4.56,1.508-4.56,1.508
			S829.729,825.593,832.705,816.327z"/>
	</g>
	<path fill="#B7B84A" d="M-3.301,850.692c0,0,234.643-28.336,546.633,84.399H-3.301V850.692z"/>
	<path fill="#A19638" d="M57.018,935.092c0,0,311.776-114.362,679.401-114.362s714.527,114.362,714.527,114.362H57.018z"/>
	<g>
		<path fill="#A89E46" d="M337.147,862.459c6.409-0.439,26.594,3.447,18.754,5.701C348.06,870.411,325.023,863.291,337.147,862.459z
			"/>
		<path fill="#A89E46" d="M301.578,869.227c8.245-2.958,36.753-4.921,27.495,1.092C319.809,876.327,285.979,874.822,301.578,869.227
			z"/>
		<path fill="#A89E46" d="M318.028,874.952c10.542-2.758,46.231-1.929,34.146,4.544
			C340.082,885.964,298.084,880.171,318.028,874.952z"/>
		<path fill="#A89E46" d="M345.987,867.051c8.493,0.041,33.623,4.83,22.703,6.295C357.768,874.811,329.915,866.973,345.987,867.051z
			"/>
		<path fill="#A89E46" d="M375.918,882.656c10.253-1.922,41.765-1.824,28.968,2.529
			C392.084,889.537,356.519,886.293,375.918,882.656z"/>
		<path fill="#757844" d="M309.26,830.5c-0.278,9.828-2.493,16.609-2.493,16.609s1.821-2.201,3.164-2.035
			c-3.199,8.127-6.399,13.717-6.399,13.717s2.308-2.253,3.831-1.822c-2.424,5.496-6.531,13.297-6.531,13.297
			s6.271,0.484,13.961-0.175c7.687-0.66,12.804-1.099,12.804-1.099s-5.423-6.072-9.513-12.806c1.325-0.459,4.689,0.995,4.689,0.995
			s-4.533-4.488-8.821-11.828c1.22-0.37,4.018,0.96,4.018,0.96S311.628,837.824,309.26,830.5z"/>
		<path fill="#757844" d="M391.269,847.141c0.929,9.006,3.429,15.082,3.429,15.082s-1.823-1.896-3.046-1.651
			c3.495,7.243,6.816,12.156,6.816,12.156s-2.273-1.909-3.642-1.41c2.601,4.882,6.909,11.763,6.909,11.763
			s-5.725,0.875-12.833,0.797c-7.104-0.078-11.833-0.13-11.833-0.13s4.564-5.948,7.857-12.412c-1.248-0.331-4.238,1.235-4.238,1.235
			s3.855-4.433,7.29-11.467c-1.146-0.257-3.623,1.156-3.623,1.156S389.595,854.03,391.269,847.141z"/>
		<path fill="#757844" d="M344.917,834.932c-1.117,8.159-5.374,12.652-5.374,12.652s1.979-0.762,2.896-0.414
			c-3.654,5.057-7.2,7.387-7.2,7.387s1.181,0.098,2.182,0.658c-2.655,3.377-6.061,6.799-6.061,6.799s3.786,2.645,9.324,3.525
			c5.536,0.879,9.775,0.24,9.775,0.24s-1.357-4.41-3.084-9.771c1.014-0.087,2.792,1.521,2.792,1.521s-1.315-3.9-3.079-9.715
			c0.924-0.043,2.672,1.522,2.672,1.522S347.429,841.616,344.917,834.932z"/>
		<path fill="#898D50" d="M421.08,858.931c-1.217,3.16-4.199,6.23-4.199,6.23s1.433-0.785,1.958-0.807
			c-2.199,3.133-4.649,5.641-4.649,5.641s2.502-1.015,3.02-0.809c-1.597,2.091-5.105,5.394-5.105,5.394s2.019,1.041,5.29,1.567
			c3.272,0.525,5.826,0.549,5.826,0.549s-1.451-2.691-2.436-5.996c0.796,0.01,2.402,1.608,2.402,1.608s-1.832-3.81-2.626-7.278
			c0.55-0.029,1.451,0.921,1.451,0.921S421.283,862.306,421.08,858.931z"/>
		<path fill="#898D50" d="M364.112,840.079c-4.421,6.28-10.051,13.712-10.051,13.712s3.47-2.164,4.207-1.645
			c-3.781,4.783-7.809,7.854-7.809,7.854s3.672-0.033,4.494,0.338c-2.73,4.084-8.486,7.99-8.486,7.99s4.571,0.719,9.834,1.838
			c5.263,1.117,8.926,2.474,8.926,2.474s-1.353-4.184-2.715-9.511c1.289,0.084,3.762,2.021,3.762,2.021s-2.843-6.469-3.887-12.035
			c0.892-0.004,2.842,2.412,2.842,2.412C364.171,852.109,363.864,848.895,364.112,840.079z"/>
		<path fill="#898D50" d="M328.505,827.445c1.837,9.574,8.557,19.758,8.557,19.758s-3.557-2.931-4.982-3.252
			c4.544,9.981,10.068,18.302,10.068,18.302s-6.379-4.106-7.895-3.774c3.383,6.723,11.434,17.826,11.434,17.826
			s-6.021,1.963-15.242,1.855c-9.221-0.107-16.23-1.293-16.23-1.293s5.256-6.938,9.521-15.84c-2.188-0.364-7.347,3.395-7.347,3.395
			s6.826-9.928,10.646-19.386c-1.488-0.356-4.411,1.897-4.411,1.897S326.345,836.936,328.505,827.445z"/>
	</g>
	<g>
		<path fill="#A89E46" d="M1168.069,884.092c22.515,6.34,32.966,10.107,32.272,16.233c-0.267,2.4-10.855,7.539-46.208-0.178
			c-26.728-5.836-42.96-15.138-38.873-20.314C1118.497,875.737,1146.813,878.099,1168.069,884.092z"/>
		<path fill="#898D50" d="M1035.554,863.262c1.311,4.732,5.096,9.572,5.096,9.572s-1.904-1.327-2.633-1.431
			c2.685,4.829,5.794,8.78,5.794,8.78s-3.368-1.803-4.116-1.574c1.971,3.237,6.461,8.485,6.461,8.485s-2.942,1.229-7.576,1.549
			c-4.634,0.317-8.2,0.007-8.2,0.007s2.358-3.695,4.138-8.338c-1.111-0.094-3.55,2.003-3.55,2.003s3.026-5.261,4.56-10.163
			c-0.761-0.117-2.138,1.131-2.138,1.131S1034.854,868.113,1035.554,863.262z"/>
		<path fill="#A89E46" d="M1087.551,877.078c8.549,0.111,12.595,0.496,12.933,3.054c0.134,1.001-3.114,4.237-16.325,4.97
			c-9.986,0.553-16.6-1.443-15.649-3.986C1069.262,879.104,1079.479,876.97,1087.551,877.078z"/>
		<path fill="#757844" d="M1092.423,853.42c1.902,5.762,4.454,12.67,4.454,12.67s-2.127-2.431-2.802-2.205
			c1.761,4.482,4.1,7.727,4.1,7.727s-2.766-0.867-3.474-0.775c1.129,3.714,4.586,7.988,4.586,7.988s-3.621-0.506-7.856-0.869
			c-4.236-0.359-7.316-0.175-7.316-0.175s1.982-2.852,4.233-6.567c-0.994-0.232-3.307,0.666-3.307,0.666s3.631-4.236,5.697-8.207
			c-0.672-0.209-2.703,1.174-2.703,1.174C1089.619,862.502,1090.588,860.142,1092.423,853.42z"/>
		<path fill="#898D50" d="M1082.072,854.213c-2.902,6.758-6.707,14.832-6.707,14.832s2.822-2.712,3.616-2.37
			c-2.598,5.228-5.763,8.9-5.763,8.9s3.43-0.757,4.277-0.573c-1.754,4.367-6.376,9.164-6.376,9.164s4.427-0.228,9.578-0.223
			c5.151,0.009,8.851,0.555,8.851,0.555s-2.091-3.652-4.422-8.376c1.225-0.175,3.924,1.153,3.924,1.153s-3.941-5.496-6.018-10.508
			c0.834-0.18,3.139,1.699,3.139,1.699C1084.505,865.471,1083.584,862.521,1082.072,854.213z"/>
		<path fill="#757844" d="M1167.971,833.551c0.08,11.912,2.585,20.182,2.585,20.182s-2.149-2.713-3.78-2.549
			c3.662,9.93,7.389,16.783,7.389,16.783s-2.732-2.788-4.589-2.309c2.788,6.722,7.559,16.278,7.559,16.278
			s-7.609,0.419-16.903-0.579c-9.294-1.003-15.479-1.668-15.479-1.668s6.729-7.213,11.857-15.261
			c-1.592-0.591-5.707,1.081-5.707,1.081s5.609-5.314,10.996-14.092c-1.469-0.48-4.89,1.058-4.89,1.058
			S1164.911,842.357,1167.971,833.551z"/>
		<path fill="#757844" d="M1121.223,835.344c0.988,9.929,5.941,15.557,5.941,15.557s-2.361-1.01-3.49-0.631
			c4.199,6.285,8.39,9.264,8.39,9.264s-1.434,0.064-2.67,0.701c3.063,4.207,7.033,8.5,7.033,8.5s-4.702,3.037-11.444,3.854
			s-11.846-0.146-11.846-0.146s1.839-5.279,4.169-11.692c-1.224-0.15-3.448,1.716-3.448,1.716s1.766-4.661,4.16-11.62
			c-1.118-0.098-3.302,1.721-3.302,1.721S1117.883,843.324,1121.223,835.344z"/>
		<path fill="#898D50" d="M1140.6,829.168c-2.846,10.281-11.071,20.801-11.071,20.801s4.137-2.885,5.722-3.109
			c-5.834,10.492-12.592,19.08-12.592,19.08s7.319-3.918,8.943-3.422c-4.281,7.035-14.039,18.439-14.039,18.439
			s6.396,2.672,16.464,3.366c10.069,0.69,17.819,0.015,17.819,0.015s-5.125-8.03-8.993-18.117c2.418-0.205,7.716,4.352,7.716,4.352
			s-6.576-11.432-9.91-22.084c1.654-0.258,4.646,2.457,4.646,2.457S1142.123,839.711,1140.6,829.168z"/>
		<path fill="#898D50" d="M1183.62,852.335c-5.132,8.28-11.665,18.04-11.665,18.04s4.035-2.668,4.897-1.877
			c-4.39,6.266-9.071,10.138-9.071,10.138s4.274,0.301,5.239,0.893c-3.17,5.399-9.866,10.263-9.866,10.263s5.332,1.433,11.471,3.479
			c6.137,2.05,10.409,4.273,10.409,4.273s-1.588-5.922-3.196-13.435c1.502,0.241,4.39,3.162,4.39,3.162s-3.336-9.228-4.57-17.04
			c1.038,0.078,3.319,3.612,3.319,3.612C1183.732,869.004,1183.364,864.523,1183.62,852.335z"/>
	</g>
	<path fill="#FDFFEB" d="M306.271,701.576l101.886,24.326c0,0,0.754-11.638-17.441-7.92c0,0,6.145-22.631-19.463-11.267
		c0,0-7.35-60.634-46.232-9.096C325.02,697.62,301.82,675.98,306.271,701.576z"/>
	<g>
		<path fill="#A89E46" d="M92.507,852.604c5.471-0.466,23.299,3.207,16.797,5.446C102.799,860.289,82.153,853.484,92.507,852.604z"
			/>
		<path fill="#A89E46" d="M73.121,855.703c9.187-2.183,41.365,0.229,31.184,5.927C94.118,867.321,55.738,859.834,73.121,855.703z"/>
		<path fill="#A89E46" d="M102.456,855.585c4.933,0.349,19.349,4.095,12.949,4.527C109.002,860.544,93.122,854.924,102.456,855.585z
			"/>
		<path fill="#A89E46" d="M119.247,865.798c6.03-0.724,24.334,0.541,16.732,2.58C128.375,870.416,107.837,867.167,119.247,865.798z"
			/>
		<path fill="#757844" d="M82.52,832.942c-0.539,5.7-2.085,9.555-2.085,9.555s1.143-1.209,1.917-1.062
			c-2.17,4.6-4.244,7.724-4.244,7.724s1.427-1.221,2.296-0.911c-1.619,3.1-4.304,7.475-4.304,7.475s3.625,0.521,8.117,0.434
			c4.491-0.089,7.481-0.148,7.481-0.148s-2.918-3.735-5.037-7.804c0.788-0.216,2.687,0.758,2.687,0.758s-2.462-2.781-4.671-7.21
			c0.723-0.168,2.297,0.712,2.297,0.712S83.614,837.289,82.52,832.942z"/>
		<path fill="#757844" d="M129.526,845.753c0.194,5.268,1.414,8.894,1.414,8.894s-0.987-1.172-1.707-1.076
			c1.753,4.342,3.494,7.324,3.494,7.324s-1.248-1.197-2.061-0.959c1.323,2.936,3.563,7.099,3.563,7.099s-3.359,0.288-7.486-0.029
			c-4.124-0.317-6.87-0.529-6.87-0.529s2.88-3.28,5.041-6.909c-0.712-0.24-2.51,0.556-2.51,0.556s2.409-2.428,4.674-6.384
			c-0.656-0.192-2.149,0.534-2.149,0.534S128.29,849.691,129.526,845.753z"/>
		<path fill="#757844" d="M103.065,836.884c-0.962,4.697-3.607,7.146-3.607,7.146s1.178-0.367,1.698-0.13
			c-2.317,2.798-4.466,4.016-4.466,4.016s0.682,0.102,1.242,0.465c-1.672,1.861-3.781,3.719-3.781,3.719s2.098,1.681,5.282,2.405
			c3.183,0.723,5.67,0.514,5.67,0.514s-0.62-2.613-1.417-5.795c0.592-0.012,1.563,0.99,1.563,0.99s-0.615-2.315-1.417-5.762
			c0.539,0.012,1.494,0.987,1.494,0.987S104.268,840.864,103.065,836.884z"/>
		<path fill="#898D50" d="M146.394,853.745c-0.828,1.789-2.678,3.458-2.678,3.458s0.862-0.401,1.168-0.393
			c-1.398,1.735-2.917,3.098-2.917,3.098s1.492-0.492,1.785-0.354c-1.007,1.154-3.172,2.938-3.172,2.938s1.132,0.682,3.013,1.112
			c1.881,0.432,3.363,0.543,3.363,0.543s-0.74-1.619-1.185-3.577c0.462,0.036,1.334,1.026,1.334,1.026s-0.919-2.284-1.247-4.329
			c0.32,0.004,0.808,0.591,0.808,0.591S146.383,855.714,146.394,853.745z"/>
		<path fill="#898D50" d="M114.02,840.609c-2.809,3.48-6.364,7.581-6.364,7.581s2.099-1.124,2.507-0.794
			c-2.38,2.635-4.837,4.264-4.837,4.264s2.135,0.122,2.598,0.369c-1.743,2.268-5.237,4.316-5.237,4.316s2.629,0.593,5.643,1.444
			c3.015,0.851,5.091,1.779,5.091,1.779s-0.625-2.482-1.213-5.629c0.746,0.098,2.108,1.318,2.108,1.318s-1.404-3.868-1.796-7.142
			c0.518,0.032,1.558,1.511,1.558,1.511C113.593,847.602,113.538,845.722,114.02,840.609z"/>
		<path fill="#898D50" d="M93.817,831.905c0.7,5.633,4.213,11.808,4.213,11.808s-1.954-1.84-2.77-2.081
			c2.257,5.974,5.148,11.019,5.148,11.019s-3.549-2.63-4.441-2.495c1.707,4.035,5.959,10.794,5.959,10.794s-3.573,0.91-8.926,0.494
			c-5.353-0.416-9.38-1.372-9.38-1.372s3.32-3.83,6.139-8.838c-1.258-0.296-4.398,1.69-4.398,1.69s4.346-5.506,6.928-10.854
			c-0.851-0.265-2.635,0.933-2.635,0.933S92.198,837.336,93.817,831.905z"/>
	</g>
</g>
<g id="text">
</g>
</svg>
