<?xml version="1.0" encoding="utf-8"?>
<!-- Generator: Adobe Illustrator 16.0.0, SVG Export Plug-In . SVG Version: 6.00 Build 0)  -->
<!DOCTYPE svg PUBLIC "-//W3C//DTD SVG 1.1//EN" "http://www.w3.org/Graphics/SVG/1.1/DTD/svg11.dtd">
<svg version="1.1" id="Layer_1" xmlns="http://www.w3.org/2000/svg" xmlns:xlink="http://www.w3.org/1999/xlink" x="0px" y="0px"
	 width="1465.285px" height="934.764px" viewBox="0 0 1465.285 934.764" enable-background="new 0 0 1465.285 934.764"
	 xml:space="preserve">
<linearGradient id="SVGID_1_" gradientUnits="userSpaceOnUse" x1="732.6431" y1="934.7793" x2="732.643" y2="-0.0161">
	<stop  offset="0" style="stop-color:#FFB3B3"/>
	<stop  offset="0.0668" style="stop-color:#E9B3B7"/>
	<stop  offset="0.1935" style="stop-color:#C4B2BD"/>
	<stop  offset="0.3271" style="stop-color:#A6B1C3"/>
	<stop  offset="0.4674" style="stop-color:#8FB1C7"/>
	<stop  offset="0.6174" style="stop-color:#7FB0CA"/>
	<stop  offset="0.7839" style="stop-color:#75B0CB"/>
	<stop  offset="1" style="stop-color:#72B0CC"/>
</linearGradient>
<rect y="-0.017" fill="url(#SVGID_1_)" width="1465.285" height="934.796"/>
<path fill="#FFD4D4" d="M998.196,852.403c0,0,4.619-16.509,22.102-6.242c0,0-3.845-33.892,25.857-8.619
	c0,0,43.243-74.021,54.174,2.277c0,0,25.454-32.066,21.214,4.851c0,0,16.455-6.92,18.65,6.963L998.196,852.403z"/>
<path fill="#FFD4D4" d="M312.983,844.646l118.35-0.136c0,0-2.238-12.985-21.248-4.104c0,0,0.782-26.483-24.357-7.246
	c0,0-24.059-64.677-53.188,2.196C332.54,835.357,301.346,817.699,312.983,844.646z"/>
<path fill="#F7CED5" d="M1167.443,737.313c-24.142-48.09-42.65,3.475-42.65,3.475c-21.417-16.001-20.497,6.356-20.497,6.356
	c-16.139-7.315-17.905,3.671-17.905,3.671l81.053-0.84V737.313z"/>
<path fill="#FFD4D4" d="M845.105,807.416c0,0-1.776-8.613-15.595-5.231c0,0-22.903-52.149-46.534-4.977
	c0,0-15.309-13.885-18.035,5.077c0,0-12.905-4.465-17.229,5.053L845.105,807.416z"/>
<path fill="#EFD9C5" d="M1034.365,934.764c0,0,158.527-92.749,430.92-91.751v91.751H1034.365z"/>
<g>
	<path fill="#7A627A" d="M897.868,794.073c-1.131,9.767-3.927,16.329-3.927,16.329s2.006-2.033,3.329-1.752
		c-3.894,7.818-7.567,13.109-7.567,13.109s2.495-2.045,3.975-1.483c-2.893,5.267-7.661,12.68-7.661,12.68s6.205,1.027,13.923,1.039
		c7.715,0.01,12.851,0.019,12.851,0.019s-4.874-6.521-8.364-13.584c1.36-0.342,4.586,1.399,4.586,1.399s-4.126-4.866-7.761-12.551
		c1.248-0.263,3.919,1.306,3.919,1.306S899.591,801.575,897.868,794.073z"/>
	<path fill="#7A627A" d="M978.121,817.777c0.143,9.053,2.105,15.322,2.105,15.322s-1.652-2.047-2.892-1.908
		c2.853,7.52,5.734,12.702,5.734,12.702s-2.099-2.099-3.505-1.722c2.166,5.09,5.86,12.318,5.86,12.318s-5.778,0.375-12.854-0.32
		c-7.07-0.695-11.777-1.158-11.777-1.158s5.063-5.529,8.906-11.683c-1.214-0.437-4.329,0.862-4.329,0.862s4.226-4.08,8.259-10.789
		c-1.118-0.355-3.71,0.837-3.71,0.837S975.854,824.496,978.121,817.777z"/>
	<path fill="#7A627A" d="M933.006,801.587c-1.822,8.032-6.454,12.138-6.454,12.138s2.038-0.586,2.922-0.16
		c-4.079,4.719-7.814,6.732-7.814,6.732s1.168,0.199,2.116,0.846c-2.938,3.133-6.628,6.245-6.628,6.245s3.542,2.964,8.981,4.322
		s9.719,1.089,9.719,1.089s-0.97-4.51-2.225-10.002c1.018,0.002,2.649,1.758,2.649,1.758s-0.971-3.999-2.223-9.945
		c0.924,0.038,2.529,1.75,2.529,1.75S934.927,808.465,933.006,801.587z"/>
	<path fill="#8E738F" d="M1006.795,832.113c-1.486,3.043-4.725,5.843-4.725,5.843s1.495-0.657,2.021-0.633
		c-2.463,2.929-5.122,5.215-5.122,5.215s2.58-0.795,3.079-0.543c-1.772,1.944-5.556,4.929-5.556,4.929s1.921,1.213,5.134,2.021
		c3.215,0.809,5.757,1.053,5.757,1.053s-1.212-2.807-1.905-6.186c0.792,0.08,2.253,1.813,2.253,1.813s-1.494-3.955-1.983-7.478
		c0.551,0.017,1.366,1.042,1.366,1.042S1006.704,835.494,1006.795,832.113z"/>
	<path fill="#8E738F" d="M951.682,808.384c-4.95,5.871-11.205,12.786-11.205,12.786s3.645-1.854,4.334-1.272
		c-4.183,4.436-8.462,7.146-8.462,7.146s3.661,0.285,4.448,0.727c-3.074,3.831-9.148,7.223-9.148,7.223s4.492,1.114,9.637,2.686
		c5.146,1.569,8.677,3.24,8.677,3.24s-0.983-4.285-1.878-9.711c1.277,0.195,3.572,2.341,3.572,2.341s-2.271-6.69-2.826-12.327
		c0.889,0.073,2.621,2.649,2.621,2.649C950.693,820.373,950.668,817.144,951.682,808.384z"/>
	<path fill="#8E738F" d="M917.307,792.703c0.997,9.697,6.807,20.426,6.807,20.426s-3.288-3.229-4.68-3.672
		c3.658,10.338,8.439,19.107,8.439,19.107s-5.998-4.646-7.537-4.445c2.786,6.989,9.842,18.752,9.842,18.752
		s-6.169,1.432-15.347,0.523c-9.177-0.908-16.057-2.699-16.057-2.699s5.839-6.453,10.862-14.951
		c-2.148-0.555-7.613,2.742-7.613,2.742s7.662-9.297,12.289-18.387c-1.451-0.484-4.56,1.508-4.56,1.508
		S914.33,801.969,917.307,792.703z"/>
</g>
<g>
	<path fill="#7A627A" d="M501.941,817.285c2.23,5.642,5.177,12.391,5.177,12.391s-2.264-2.304-2.925-2.039
		c2.017,4.373,4.537,7.478,4.537,7.478s-2.81-0.706-3.512-0.573c1.341,3.642,5.038,7.709,5.038,7.709s-3.644-0.295-7.893-0.414
		c-4.25-0.115-7.315,0.247-7.315,0.247s1.816-2.962,3.849-6.801c-1.006-0.175-3.263,0.856-3.263,0.856s3.381-4.439,5.215-8.521
		c-0.683-0.171-2.631,1.326-2.631,1.326C499.665,826.513,500.496,824.1,501.941,817.285z"/>
	<path fill="#8E738F" d="M491.653,815.546c-2.508,6.914-5.841,15.193-5.841,15.193s2.661-2.869,3.473-2.574
		c-2.291,5.369-5.24,9.219-5.24,9.219s3.38-0.953,4.237-0.82c-1.499,4.461-5.838,9.518-5.838,9.518s4.407-0.482,9.55-0.774
		c5.144-0.288,8.868,0.044,8.868,0.044s-2.298-3.525-4.897-8.107c1.213-0.245,3.984,0.925,3.984,0.925s-4.252-5.259-6.613-10.143
		c0.822-0.229,3.231,1.515,3.231,1.515C494.73,826.646,493.64,823.753,491.653,815.546z"/>
	<path fill="#7A627A" d="M594.263,785.22c0.767,11.888,3.743,19.999,3.743,19.999s-2.302-2.584-3.92-2.326
		c4.228,9.702,8.343,16.329,8.343,16.329s-2.889-2.625-4.715-2.039c3.171,6.549,8.484,15.815,8.484,15.815
		s-7.573,0.856-16.908,0.396c-9.337-0.466-15.55-0.773-15.55-0.773s6.302-7.588,10.959-15.918c-1.623-0.5-5.636,1.407-5.636,1.407
		s5.295-5.629,10.166-14.702c-1.494-0.395-4.82,1.338-4.82,1.338S591.716,794.188,594.263,785.22z"/>
	<path fill="#7A627A" d="M529.827,802.127c1.559,9.855,6.828,15.189,6.828,15.189s-2.416-0.871-3.522-0.43
		c4.555,6.034,8.909,8.766,8.909,8.766s-1.427,0.148-2.624,0.854c3.3,4.023,7.511,8.081,7.511,8.081s-4.52,3.303-11.203,4.506
		s-11.835,0.537-11.835,0.537s1.532-5.377,3.489-11.912c-1.23-0.082-3.344,1.911-3.344,1.911s1.494-4.755,3.483-11.841
		c-1.122-0.033-3.197,1.907-3.197,1.907S526.952,810.287,529.827,802.127z"/>
	<path fill="#8E738F" d="M573.762,783.769c-2.248,10.429-9.854,21.404-9.854,21.404s3.964-3.118,5.532-3.434
		c-5.219,10.811-11.471,19.774-11.471,19.774s7.081-4.334,8.73-3.933c-3.868,7.271-12.953,19.217-12.953,19.217
		s6.538,2.301,16.631,2.414c10.092,0.108,17.79-1.012,17.79-1.012s-5.579-7.723-10.021-17.568c2.402-0.346,7.954,3.898,7.954,3.898
		s-7.224-11.033-11.166-21.477c1.637-0.353,4.779,2.186,4.779,2.186S575.891,794.207,573.762,783.769z"/>
</g>
<path fill="#EFD9C5" d="M0,846.529c0,0,233.581-29.623,544.158,88.234H0V846.529z"/>
<path fill="#D3DDD6" d="M60.427,934.764c0,0,310.12-112.628,675.792-112.628c365.672,0,710.732,112.628,710.732,112.628H60.427z"/>
<g>
	<path fill="#B9C5C9" d="M0,852.333c12.724-5.102,37.432-7.615,46.633-8.447c7.066-0.641,26.922-0.229,18.757,2.344
		s-22.907,7.889-16.207,7.889c6.701,0,25.873,2.66,8.134,7.16C44.546,864.516,14.23,865.483,0,862.583V852.333z"/>
	<path fill="#8F6EAA" d="M64.115,846.247c8.493,0.041,33.623,4.83,22.703,6.295C75.896,854.007,48.043,846.169,64.115,846.247z"/>
	<path fill="#B9C5C9" d="M94.046,861.853c10.253-1.922,41.765-1.824,28.968,2.529C110.212,868.733,74.646,865.489,94.046,861.853z"
		/>
	<path fill="#7A627A" d="M27.388,809.696c-0.278,9.828-2.493,16.609-2.493,16.609s1.821-2.201,3.164-2.035
		c-3.199,8.127-6.399,13.717-6.399,13.717s2.308-2.253,3.831-1.822c-2.424,5.496-6.531,13.297-6.531,13.297
		s6.271,0.484,13.961-0.175c7.687-0.66,12.804-1.099,12.804-1.099s-5.423-6.072-9.513-12.806c1.325-0.459,4.689,0.995,4.689,0.995
		s-4.533-4.488-8.821-11.828c1.22-0.37,4.018,0.96,4.018,0.96S29.756,817.021,27.388,809.696z"/>
	<path fill="#7A627A" d="M109.396,826.337c0.929,9.006,3.429,15.082,3.429,15.082s-1.823-1.896-3.046-1.651
		c3.495,7.243,6.816,12.156,6.816,12.156s-2.273-1.909-3.642-1.41c2.601,4.882,6.909,11.763,6.909,11.763s-5.725,0.875-12.833,0.797
		c-7.104-0.078-11.833-0.13-11.833-0.13s4.564-5.948,7.857-12.412c-1.248-0.331-4.238,1.235-4.238,1.235s3.855-4.433,7.29-11.467
		c-1.146-0.257-3.623,1.156-3.623,1.156S107.723,833.227,109.396,826.337z"/>
	<path fill="#7A627A" d="M63.045,814.128c-1.117,8.159-5.374,12.652-5.374,12.652s1.979-0.762,2.896-0.414
		c-3.654,5.057-7.2,7.387-7.2,7.387s1.181,0.098,2.182,0.658c-2.655,3.377-6.061,6.799-6.061,6.799s3.786,2.645,9.324,3.525
		c5.536,0.879,9.775,0.24,9.775,0.24s-1.357-4.41-3.084-9.771c1.014-0.087,2.792,1.521,2.792,1.521s-1.315-3.9-3.079-9.715
		c0.924-0.043,2.672,1.522,2.672,1.522S65.557,820.813,63.045,814.128z"/>
	<path fill="#8E738F" d="M139.208,838.127c-1.217,3.16-4.199,6.23-4.199,6.23s1.433-0.785,1.958-0.807
		c-2.199,3.133-4.649,5.641-4.649,5.641s2.502-1.015,3.02-0.809c-1.597,2.091-5.105,5.394-5.105,5.394s2.019,1.041,5.29,1.567
		c3.272,0.525,5.826,0.549,5.826,0.549s-1.451-2.691-2.436-5.996c0.796,0.01,2.402,1.608,2.402,1.608s-1.832-3.81-2.626-7.278
		c0.55-0.029,1.451,0.921,1.451,0.921S139.411,841.502,139.208,838.127z"/>
	<path fill="#8E738F" d="M82.24,819.275c-4.421,6.28-10.051,13.712-10.051,13.712s3.47-2.164,4.207-1.645
		c-3.781,4.783-7.809,7.854-7.809,7.854s3.672-0.033,4.494,0.338c-2.73,4.084-8.486,7.99-8.486,7.99s4.571,0.719,9.834,1.838
		c5.263,1.117,8.926,2.474,8.926,2.474s-1.353-4.184-2.715-9.511c1.289,0.084,3.762,2.021,3.762,2.021s-2.843-6.469-3.887-12.035
		c0.892-0.004,2.842,2.412,2.842,2.412C82.299,831.306,81.992,828.091,82.24,819.275z"/>
	<path fill="#8E738F" d="M0,828.013c0.455-0.957,0.911-1.936,1.36-2.932c-0.374-0.042-0.849,0.085-1.36,0.306v-7.758
		c1.75-4.128,3.771-8.839,5.636-13.04c1.032,13.779,6.853,22.284,6.853,22.284s-3.207-1.37-5.098-2.001
		c5.348,10.096,12.714,16.754,12.714,16.754s-3.915-1.428-7.777-1.578c4.631,7.413,13.548,15.496,13.548,15.496
		s-8.529,1.762-19.694,2.585c-2.204,0.163-4.273,0.321-6.181,0.473V828.013z"/>
	<path fill="#8E738F" d="M46.633,806.642c1.837,9.574,8.557,19.758,8.557,19.758s-3.557-2.931-4.982-3.252
		c4.544,9.981,10.068,18.302,10.068,18.302s-6.379-4.106-7.895-3.774c3.383,6.723,11.434,17.826,11.434,17.826
		s-6.021,1.963-15.242,1.855c-9.221-0.107-16.23-1.293-16.23-1.293s5.256-6.938,9.521-15.84c-2.188-0.364-7.347,3.395-7.347,3.395
		s6.826-9.928,10.646-19.386c-1.488-0.356-4.411,1.897-4.411,1.897S44.473,816.132,46.633,806.642z"/>
</g>
<g>
	<path fill="#8E738F" d="M1317.8,837.615c1.311,4.732,5.096,9.572,5.096,9.572s-1.904-1.327-2.633-1.431
		c2.685,4.829,5.794,8.78,5.794,8.78s-3.368-1.803-4.116-1.574c1.971,3.237,6.461,8.485,6.461,8.485s-2.942,1.229-7.576,1.549
		c-4.634,0.317-8.2,0.007-8.2,0.007s2.358-3.695,4.138-8.338c-1.111-0.094-3.55,2.003-3.55,2.003s3.026-5.261,4.56-10.163
		c-0.761-0.117-2.138,1.131-2.138,1.131S1317.1,842.467,1317.8,837.615z"/>
	<path fill="#B9C5C9" d="M1369.797,851.432c8.549,0.111,12.595,0.496,12.933,3.054c0.134,1.001-3.114,4.237-16.325,4.97
		c-9.986,0.553-16.6-1.443-15.649-3.986C1351.508,853.457,1361.725,851.323,1369.797,851.432z"/>
	<path fill="#7A627A" d="M1374.669,827.773c1.902,5.762,4.454,12.67,4.454,12.67s-2.127-2.431-2.802-2.205
		c1.761,4.482,4.1,7.727,4.1,7.727s-2.766-0.867-3.474-0.775c1.129,3.714,4.586,7.988,4.586,7.988s-3.621-0.506-7.856-0.869
		c-4.236-0.359-7.316-0.175-7.316-0.175s1.982-2.852,4.233-6.567c-0.994-0.232-3.307,0.666-3.307,0.666s3.631-4.236,5.697-8.207
		c-0.672-0.209-2.703,1.174-2.703,1.174C1371.865,836.855,1372.834,834.495,1374.669,827.773z"/>
	<path fill="#8E738F" d="M1364.318,828.566c-2.902,6.758-6.707,14.832-6.707,14.832s2.822-2.712,3.616-2.37
		c-2.598,5.228-5.763,8.9-5.763,8.9s3.43-0.757,4.277-0.573c-1.754,4.367-6.376,9.164-6.376,9.164s4.427-0.228,9.578-0.223
		c5.151,0.009,8.851,0.555,8.851,0.555s-2.091-3.652-4.422-8.376c1.225-0.175,3.924,1.153,3.924,1.153s-3.941-5.496-6.018-10.508
		c0.834-0.18,3.139,1.699,3.139,1.699C1366.751,839.824,1365.83,836.875,1364.318,828.566z"/>
	<path fill="#B9C5C9" d="M1465.285,879.442c-26.009-3.692-68.136-15.785-72.245-28.855c-4.111-13.072,62.683-0.932,72.224,1.29
		L1465.285,879.442z"/>
	<path fill="#7A627A" d="M1450.217,807.904c0.08,11.912,2.585,20.182,2.585,20.182s-2.149-2.713-3.78-2.549
		c3.662,9.93,7.389,16.783,7.389,16.783s-2.732-2.788-4.589-2.309c2.788,6.722,7.559,16.278,7.559,16.278s-7.609,0.419-16.903-0.579
		c-9.294-1.003-15.479-1.668-15.479-1.668s6.729-7.213,11.857-15.261c-1.592-0.591-5.707,1.081-5.707,1.081
		s5.609-5.314,10.996-14.092c-1.469-0.48-4.89,1.058-4.89,1.058S1447.157,816.711,1450.217,807.904z"/>
	<path fill="#7A627A" d="M1403.469,809.697c0.988,9.929,5.941,15.557,5.941,15.557s-2.361-1.01-3.49-0.631
		c4.199,6.285,8.39,9.264,8.39,9.264s-1.434,0.064-2.67,0.701c3.063,4.207,7.033,8.5,7.033,8.5s-4.702,3.037-11.444,3.854
		s-11.846-0.146-11.846-0.146s1.839-5.279,4.169-11.692c-1.224-0.15-3.448,1.716-3.448,1.716s1.766-4.661,4.16-11.62
		c-1.118-0.098-3.302,1.721-3.302,1.721S1400.129,817.678,1403.469,809.697z"/>
	<path fill="#8E738F" d="M1422.846,803.521c-2.846,10.281-11.071,20.801-11.071,20.801s4.137-2.885,5.722-3.109
		c-5.834,10.492-12.592,19.08-12.592,19.08s7.319-3.918,8.943-3.422c-4.281,7.035-14.039,18.439-14.039,18.439
		s6.396,2.672,16.464,3.366c10.069,0.69,17.819,0.015,17.819,0.015s-5.125-8.03-8.993-18.117c2.418-0.205,7.716,4.352,7.716,4.352
		s-6.576-11.432-9.91-22.084c1.654-0.258,4.646,2.457,4.646,2.457S1424.369,814.064,1422.846,803.521z"/>
	<path fill="#8E738F" d="M1451.901,849.105c-5.386-0.41-11.05,0.945-11.05,0.945s11.294-8.063,20.34-21.221
		c-2.725,0.576-7.397,1.96-7.397,1.96s7.242-8.334,11.491-23.142v69.049c-2.416-0.474-5.008-0.977-7.756-1.501
		c-15.367-2.936-26.925-6.755-26.925-6.755S1444.282,858.655,1451.901,849.105z"/>
</g>
<path fill="#FFD4D4" d="M434.823,780.167l85.181,0.07c0,0-1.593-9.349-15.289-2.983c0,0,0.603-19.06-17.517-5.25
	c0,0-17.227-46.585-38.287,1.506C448.911,773.51,426.485,760.756,434.823,780.167z"/>
<g>
	
		<ellipse transform="matrix(-0.5706 -0.8212 0.8212 -0.5706 711.551 1187.5427)" fill="#FFF5EB" cx="666.236" cy="407.75" rx="5.444" ry="2.203"/>
	
		<ellipse transform="matrix(-0.8475 -0.5308 0.5308 -0.8475 2226.561 1735.5875)" fill="#FFF5EB" cx="1362.58" cy="547.971" rx="5.444" ry="2.203"/>
	
		<ellipse transform="matrix(-0.9986 -0.0535 0.0535 -0.9986 410.3234 1629.731)" fill="#FFF5EB" cx="226.969" cy="809.375" rx="2.629" ry="1.064"/>
	
		<ellipse transform="matrix(-0.3057 -0.9521 0.9521 -0.3057 206.2758 1275.5652)" fill="#FFF5EB" cx="568.226" cy="562.572" rx="2.629" ry="1.063"/>
	
		<ellipse transform="matrix(-0.9986 -0.0535 0.0535 -0.9986 1948.5707 1657.7766)" fill="#FFF5EB" cx="996.492" cy="802.786" rx="3.538" ry="1.432"/>
	
		<ellipse transform="matrix(-0.472 -0.8816 0.8816 -0.472 1200.0446 2014.6898)" fill="#FFF5EB" cx="1203.34" cy="647.98" rx="3.538" ry="1.432"/>
	
		<ellipse transform="matrix(-0.9986 -0.0535 0.0535 -0.9986 850.541 1691.2161)" fill="#FFF5EB" cx="447.918" cy="834.218" rx="3.84" ry="1.555"/>
	
		<ellipse transform="matrix(-0.5706 -0.8212 0.8212 -0.5706 -443.4454 1146.8308)" fill="#FFF5EB" cx="78.094" cy="689.346" rx="5.444" ry="2.203"/>
	
		<ellipse transform="matrix(-0.5706 -0.8212 0.8212 -0.5706 1602.9816 1644.3477)" fill="#FFF5EB" cx="1231.374" cy="403.105" rx="5.444" ry="2.203"/>
	
		<ellipse transform="matrix(-0.5706 -0.8212 0.8212 -0.5706 752.9725 1790.9739)" fill="#FFF5EB" cx="844.702" cy="698.637" rx="5.444" ry="2.203"/>
	
		<ellipse transform="matrix(0.8128 -0.5826 0.5826 0.8128 -211.8894 398.4809)" fill="#FFF5EB" cx="514.008" cy="528.896" rx="7.083" ry="2.866"/>
	
		<ellipse transform="matrix(0.8128 -0.5826 0.5826 0.8128 79.5424 878.8084)" fill="#FFF5EB" cx="1407.028" cy="315.652" rx="5.444" ry="2.203"/>
	
		<ellipse transform="matrix(0.8128 -0.5826 0.5826 0.8128 -194.3071 712.923)" fill="#FFF5EB" cx="1011.948" cy="658.747" rx="5.444" ry="2.202"/>
	
		<ellipse transform="matrix(0.8128 -0.5826 0.5826 0.8128 -259.2966 258.1953)" fill="#FFF5EB" cx="272.079" cy="532.539" rx="5.444" ry="2.203"/>
	
		<ellipse transform="matrix(0.8128 -0.5826 0.5826 0.8128 -100.7352 727.5956)" fill="#FFF5EB" cx="1081.561" cy="520.513" rx="5.444" ry="2.203"/>
	
		<ellipse transform="matrix(0.8128 -0.5826 0.5826 0.8128 -106.8218 340.5917)" fill="#FFF5EB" cx="476.484" cy="336.49" rx="5.444" ry="2.203"/>
	
		<ellipse transform="matrix(0.8128 -0.5826 0.5826 0.8128 -306.6333 472.2591)" fill="#FFF5EB" cx="581.382" cy="713.162" rx="5.444" ry="2.203"/>
	
		<ellipse transform="matrix(0.8128 -0.5826 0.5826 0.8128 2.7284 632.5078)" fill="#FFF5EB" cx="985.425" cy="312.009" rx="5.444" ry="2.203"/>
	
		<ellipse transform="matrix(0.8128 -0.5826 0.5826 0.8128 -32.8329 295.9867)" fill="#FFF5EB" cx="444.082" cy="199.075" rx="5.444" ry="2.203"/>
	
		<ellipse transform="matrix(0.8845 0.4665 -0.4665 0.8845 132.2917 -512.072)" fill="#C2D1C7" cx="1100.462" cy="11.176" rx="6.044" ry="2.445"/>
	<ellipse transform="matrix(1 -0.0079 0.0079 1 -4.7343 5.4515)" fill="#C2D1C7" cx="687.583" cy="601.902" rx="8.961" ry="3.626"/>
	
		<ellipse transform="matrix(0.8128 -0.5825 0.5825 0.8128 -64.1359 822.1604)" fill="#C2D1C7" cx="1247.207" cy="510.875" rx="8.961" ry="3.625"/>
	
		<ellipse transform="matrix(-0.437 -0.8995 0.8995 -0.437 1110.121 771.1272)" fill="#C2D1C7" cx="796.408" cy="38.118" rx="8.961" ry="3.625"/>
	
		<ellipse transform="matrix(0.993 -0.1178 0.1178 0.993 -19.9856 143.6915)" fill="#C2D1C7" cx="1205.434" cy="240.896" rx="8.482" ry="3.432"/>
	
		<ellipse transform="matrix(0.9935 0.114 -0.114 0.9935 45.369 -31.6038)" fill="#C2D1C7" cx="298.956" cy="380.801" rx="8.479" ry="3.431"/>
	
		<ellipse transform="matrix(-0.4115 -0.9114 0.9114 -0.4115 1784.0198 1302.8123)" fill="#FFF5EB" cx="1312.625" cy="75.432" rx="5.857" ry="2.369"/>
	
		<ellipse transform="matrix(0.9178 0.3971 -0.3971 0.9178 104.7743 -64.5173)" fill="#FFF5EB" cx="208.174" cy="220.735" rx="5.857" ry="2.369"/>
	
		<ellipse transform="matrix(0.9178 0.3971 -0.3971 0.9178 178.9051 -7.4858)" fill="#FFF5EB" cx="107.53" cy="428.292" rx="5.857" ry="2.37"/>
	
		<ellipse transform="matrix(0.9178 0.3971 -0.3971 0.9178 421.9839 -424.7993)" fill="#FFF5EB" cx="1236.833" cy="806.642" rx="5.857" ry="2.37"/>
	
		<ellipse transform="matrix(0.8128 -0.5825 0.5825 0.8128 -12.1019 493.481)" fill="#FFF5EB" cx="761.769" cy="265.57" rx="5.857" ry="2.37"/>
	
		<ellipse transform="matrix(0.7761 0.6307 -0.6307 0.7761 172.4216 -385.0898)" fill="#FFF5EB" cx="628.449" cy="50.239" rx="5.857" ry="2.369"/>
	
		<ellipse transform="matrix(0.8128 -0.5826 0.5826 0.8128 -217.2026 581.6589)" fill="#DBE0D8" cx="796.408" cy="628.777" rx="6.4" ry="2.589"/>
	
		<ellipse transform="matrix(-0.9264 -0.3766 0.3766 -0.9264 1845.1982 522.4967)" fill="#DBE0D8" cx="973.679" cy="80.859" rx="9.55" ry="3.863"/>
	
		<ellipse transform="matrix(0.9725 0.2328 -0.2328 0.9725 35.792 -0.6837)" fill="#DBE0D8" cx="20.792" cy="151.26" rx="8.038" ry="3.251"/>
	
		<ellipse transform="matrix(0.8128 -0.5826 0.5826 0.8128 -330.7423 301.1518)" fill="#DBE0D8" cx="303.154" cy="665.137" rx="9.55" ry="3.864"/>
	
		<ellipse transform="matrix(0.8127 -0.5826 0.5826 0.8127 -117.853 580.8632)" fill="#DBE0D8" cx="844.703" cy="473.771" rx="9.551" ry="3.863"/>
	
		<ellipse transform="matrix(0.8127 -0.5826 0.5826 0.8127 -131.3799 969.9247)" fill="#DBE0D8" cx="1443.189" cy="689.346" rx="9.551" ry="3.863"/>
	
		<ellipse transform="matrix(0.8128 -0.5826 0.5826 0.8128 13.6118 182.3636)" fill="#DBE0D8" cx="290.523" cy="70.005" rx="9.55" ry="3.863"/>
	
		<ellipse transform="matrix(-0.3057 -0.9521 0.9521 -0.3057 242.0818 1639.1017)" fill="#FFF5EB" cx="718.679" cy="731.285" rx="2.629" ry="1.063"/>
</g>
<g>
	<ellipse opacity="0.34" fill="#516F80" cx="1045.343" cy="898.929" rx="34.708" ry="6.262"/>
	<g opacity="0.34">
		<path fill="#516F80" d="M1117.467,925.479c-29.397-9.006-115.824-32.552-116.71-32.798l2.388-0.261
			c0.887,0.246,95.209,24.046,124.631,33.059H1117.467z"/>
	</g>
	<g opacity="0.34">
		<path fill="#516F80" d="M1160.774,925.479c-35.536-11.756-141.502-36.143-142.81-36.419l2.741-0.56
			c1.308,0.277,115.678,25.188,151.318,36.979H1160.774z"/>
	</g>
	<g>
		<path fill="#D5E8E4" d="M1078.24,900.55c-1.388,0-2.85-0.124-4.381-0.375c-8.774-1.436-41.562-9.026-41.879-9.094l2.922-0.625
			c0.318,0.066,30.552,6.317,39.279,7.746c6.618,1.083,12.587-0.262,15.526-10.865l4.197,1.831
			C1091.683,897.186,1086.362,900.55,1078.24,900.55z"/>
	</g>
	<g>
		<path fill="#D5E8E4" d="M1064.462,908.299c-4.543,0-9.579-1.541-12.664-2.403c-0.978-0.273-1.84-0.516-2.556-0.678
			c-11.692-2.657-36.892-10.494-37.147-10.564l2.771-0.499c0.256,0.069,22.869,6.465,34.521,9.112
			c0.753,0.172,1.612,0.502,2.65,0.702c7.825,1.511,17.924,7.042,25.493-10.642l4.178,1.891
			C1077.722,905.667,1071.125,908.299,1064.462,908.299z"/>
	</g>
	<g>
		<path fill="#51807D" d="M1064.315,909.215c-4.543,0-9.579-1.541-12.664-2.403c-0.978-0.273-1.84-0.516-2.556-0.678
			c-11.692-2.658-36.892-10.494-37.147-10.564l2.771-0.499c0.256,0.07,22.869,6.465,34.521,9.112
			c0.753,0.172,1.612,0.502,2.65,0.702c7.825,1.511,17.924,7.042,25.493-10.642l4.178,1.891
			C1077.575,906.583,1070.979,909.215,1064.315,909.215z"/>
	</g>
	<g>
		<path fill="#51807D" d="M1077.94,901.472c-1.388,0-2.85-0.124-4.381-0.375c-8.774-1.436-41.562-9.026-41.879-9.094l2.922-0.625
			c0.318,0.066,30.552,6.317,39.279,7.746c6.618,1.083,12.587-0.263,15.526-10.865l4.197,1.831
			C1091.383,898.107,1086.063,901.472,1077.94,901.472z"/>
	</g>
	<g>
		<polygon fill="#51807D" points="1024.601,898.641 1021.24,897.733 1023.75,884.826 1042.489,881.54 1044.907,893.394 
			1041.704,893.074 1040.919,883.845 1025.451,886.559 		"/>
	</g>
	<g>
		<polygon fill="#51807D" points="1050.166,904.496 1047.345,903.726 1049.266,890.389 1067.904,886.061 1070.973,899.163 
			1067.388,898.59 1066.412,888.46 1051.051,892.027 		"/>
	</g>
	<polygon fill="#C04D01" points="1017.226,884.617 1058.2,892.968 1076.575,886.36 1076.575,884.905 1035.2,878.078 
		1017.226,882.692 	"/>
	<polygon fill="#D97B3D" points="1058.2,892.968 1058.2,891.28 1076.575,884.905 1076.575,886.36 	"/>
	<polygon fill="#993D01" points="1058.2,891.28 1017.226,882.692 1017.226,884.617 1058.2,892.968 	"/>
	<g>
		<polygon fill="#51807D" points="1017.226,882.692 1010.328,868.021 1012.448,866.591 1018.086,882.472 		"/>
	</g>
	<g>
		<polygon fill="#51807D" points="1035.719,878.078 1034.742,878.078 1033.726,863.677 1036.325,864.575 		"/>
	</g>
	<g>
		<polygon fill="#51807D" points="1026.803,880.233 1020.942,860.192 1023.809,859.826 1027.585,880.103 		"/>
	</g>
	<g>
		<polygon fill="#51807D" points="1046.976,879.935 1045.926,879.784 1047.675,872.212 1049.441,874.053 		"/>
	</g>
	<g>
		<polygon fill="#51807D" points="1029.347,885.387 1026.598,879.532 1029.658,880.767 1030.12,885.359 		"/>
	</g>
	<g>
		<path fill="#51807D" d="M1043.928,888.259c-24.417-10.365-34.825-17.332-34.234-23.193c0.298-2.952,3.549-5.078,9.66-6.318
			c14.586-2.959,38.259,22.17,39.233,23.189l-2.069-0.341c-0.229-0.241-22.345-23.036-35.866-20.289
			c-5.009,1.017-7.874,2.636-8.068,4.559c-0.273,2.706,3.183,9.241,33.574,22.144L1043.928,888.259z"/>
	</g>
</g>
<g>
	<ellipse opacity="0.34" fill="#516F80" cx="341.102" cy="900.78" rx="34.708" ry="6.262"/>
	<ellipse fill="#FFFFFF" cx="341.102" cy="881.305" rx="32.566" ry="19.476"/>
	<ellipse fill="#C2D1C7" cx="341.102" cy="883.233" rx="32.566" ry="19.477"/>
	
		<ellipse transform="matrix(0.9886 0.1503 -0.1503 0.9886 132.2155 -41.5596)" fill="#FFFFFF" cx="341.102" cy="854.072" rx="23.73" ry="17.401"/>
	
		<ellipse transform="matrix(0.9969 0.079 -0.079 0.9969 70.2572 -24.3658)" fill="#DBE0D8" cx="343.201" cy="876.125" rx="24.906" ry="9.489"/>
	
		<ellipse transform="matrix(0.9886 0.1503 -0.1503 0.9886 132.4792 -41.5341)" fill="#C2D1C7" cx="341.065" cy="855.83" rx="23.73" ry="17.153"/>
	
		<ellipse transform="matrix(0.9969 0.079 -0.079 0.9969 68.1766 -24.2618)" fill="#DBE0D8" cx="340.877" cy="849.958" rx="18.28" ry="9.489"/>
	
		<ellipse transform="matrix(0.9969 0.0789 -0.0789 0.9969 66.6749 -24.4111)" fill="#FFFFFF" cx="342.071" cy="831.049" rx="15.84" ry="11.616"/>
	
		<ellipse transform="matrix(0.9969 0.079 -0.079 0.9969 66.7898 -24.4127)" fill="#C2D1C7" cx="342.029" cy="832.173" rx="15.84" ry="11.09"/>
	
		<ellipse transform="matrix(0.9969 0.079 -0.079 0.9969 66.5043 -24.4396)" fill="#DBE0D8" cx="342.3" cy="828.751" rx="12.999" ry="6.624"/>
	<path fill="#445670" d="M329.331,818.601c0,0,11.024,12.299,31.46,6.279l0.184-1.043l-31.46-6.278L329.331,818.601z"/>
	<path fill="#9F9DAD" d="M329.515,817.559c0,0,9.572,12.69,31.46,6.278C360.975,823.837,347.824,813.772,329.515,817.559z"/>
	<path fill="#445670" d="M338.266,818.895c0,0,3.432,2.602,6.552,3.044c3.174,0.448,7.521-0.006,7.521-0.006l0.091-8.004
		l4.953-7.746l-17.532-3.396l0.98,8.385L338.266,818.895z"/>
	<path fill="#9F9DAD" d="M339.851,802.786c0,0,10.403-2.052,17.532,3.396C357.383,806.183,346.696,806.688,339.851,802.786z"/>
	<path fill="#C2743C" d="M339.185,814.925c0,0,5.113,3.651,13.503,2.697l-0.349,4.311c0,0-9.138,1.897-14.073-3.038L339.185,814.925
		z"/>
	<path fill="#CF5530" d="M334.018,830.355l-22.834,2l22.334,3.2C333.518,835.556,335.935,834.105,334.018,830.355z"/>
	<polygon fill="#675B70" points="339.851,829.272 340.268,832.188 342.3,830.73 341.74,828.362 	"/>
	<polygon fill="#675B70" points="332.317,825.74 330.684,827.105 331.501,828.751 333.101,827.688 	"/>
	<g>
		<polygon fill="#775D7D" points="319.097,847.717 300.023,835.147 300.228,834.583 320.05,846.14 		"/>
	</g>
	<g>
		<polygon fill="#775D7D" points="304.887,838.333 300.584,831.009 301.069,830.689 305.723,837.784 		"/>
	</g>
	<g>
		<polygon fill="#775D7D" points="298.995,839.06 298.956,838.71 306.475,838.411 306.514,839.409 		"/>
	</g>
	<g>
		<polygon fill="#5E4663" points="360.006,853.693 359.36,850.868 391.516,839.398 391.861,840.337 		"/>
	</g>
	<g>
		<polygon fill="#5E4663" points="382.577,843.429 380.41,843.286 393.498,832.559 394.166,833.001 		"/>
	</g>
	<g>
		<polygon fill="#5E4663" points="392.728,846.217 379.419,844.88 381.917,843.884 392.827,845.521 		"/>
	</g>
</g>
</svg>
