<?xml version="1.0" encoding="utf-8"?>
<!-- Generator: Adobe Illustrator 16.0.0, SVG Export Plug-In . SVG Version: 6.00 Build 0)  -->
<!DOCTYPE svg PUBLIC "-//W3C//DTD SVG 1.1//EN" "http://www.w3.org/Graphics/SVG/1.1/DTD/svg11.dtd">
<svg version="1.1" xmlns="http://www.w3.org/2000/svg" xmlns:xlink="http://www.w3.org/1999/xlink" x="0px" y="0px" width="800px"
	 height="178px" viewBox="0 0 800 178" enable-background="new 0 0 800 178" xml:space="preserve">
<g id="Background" display="none">
	<rect x="-800" y="-86" display="inline" fill="#DAEFED" width="800" height="800"/>
</g>
<g id="Objects">
	<g>
		<rect x="596" y="109" fill="#C39467" width="8" height="65"/>
		<path fill="#6B890C" d="M632.676,73.096c2.776-3.213,4.36-6.876,4.36-10.768c0-7.543-5.932-14.216-15.059-18.412
			c2.75-2.669,4.36-5.851,4.36-9.277c0-9.375-11.973-16.978-26.744-16.978c-14.771,0-26.745,7.603-26.745,16.978
			c0,3.426,1.611,6.608,4.361,9.277c-9.125,4.195-15.059,10.869-15.059,18.412c0,3.892,1.588,7.555,4.36,10.768
			c-9.405,5.512-15.289,13.339-15.289,22.029c0,16.688,21.655,30.216,48.371,30.216c26.718,0,48.375-13.528,48.375-30.216
			C647.969,86.435,642.083,78.607,632.676,73.096z"/>
		<path fill="#7FA50A" d="M632.676,73.096c2.776-3.213,4.36-6.876,4.36-10.768c0-7.543-5.932-14.216-15.059-18.412
			c2.75-2.669,4.36-5.851,4.36-9.277c0-9.375-12.482-16.978-27.254-16.978c-0.193,0,0.916,0.016-1.084,0.019v107.65
			c2,0.002,0.891,0.01,1.084,0.01c26.717,0,48.63-13.528,48.63-30.216C647.714,86.435,642.083,78.607,632.676,73.096z"/>
	</g>
	<g>
		<rect x="477" y="149" fill="#C39467" width="3" height="26"/>
		<ellipse fill="#80AD12" cx="479.479" cy="130.145" rx="19.729" ry="30.722"/>
		<path fill="#91C60E" d="M479.387,99.423c-0.099,0,0.613,0.01-0.387,0.012v61.42c1,0.003,0.288,0.012,0.387,0.012
			c10.896,0,19.729-13.755,19.729-30.722S490.282,99.423,479.387,99.423z"/>
	</g>
	<g>
		<polygon fill="#C39467" points="264.81,148.617 263.395,147.541 258,154.117 258,147 256,147 256,154.117 250.995,147.541 
			249.508,148.617 256,156.844 256,174 258,174 258,156.844 		"/>
		<path fill="#698907" d="M266.154,134.788c-0.605,0-1.196,0.063-1.767,0.183c-1.505-2.501-4.239-4.181-7.371-4.181
			c-3.44,0-6.401,2.023-7.778,4.941c-0.792-0.241-1.631-0.372-2.501-0.372c-4.754,0-8.607,3.854-8.607,8.607
			c0,4.753,3.854,8.606,8.607,8.606c3.44,0,6.4-2.022,7.778-4.94c0.791,0.24,1.631,0.372,2.501,0.372
			c0.605,0,1.196-0.063,1.766-0.183c1.506,2.502,4.239,4.181,7.372,4.181c4.753,0,8.606-3.854,8.606-8.607
			S270.907,134.788,266.154,134.788z"/>
		<path fill="#79930C" d="M266.154,134.788c-0.605,0-1.289,0.063-1.859,0.183c-1.479-2.455-4.295-4.114-7.295-4.175v17.2
			c0-0.011,1.173-0.066,1.689-0.174c1.505,2.502,4.285,4.181,7.418,4.181c4.754,0,8.63-3.854,8.63-8.607
			S270.907,134.788,266.154,134.788z"/>
	</g>
	<g>
		<rect x="642" y="128" fill="#C39467" width="3" height="47"/>
		<path fill="#80AD12" d="M666.815,121.438c0-9.313-7.548-16.86-16.86-16.86c-2.305,0-4.499,0.466-6.5,1.302
			c-2-0.836-4.195-1.302-6.5-1.302c-9.312,0-16.859,7.548-16.859,16.86c0,4.747,1.969,9.029,5.126,12.093
			c0.823,9.923,9.122,17.722,19.256,17.722c10.681,0,19.338-8.657,19.338-19.337c0-0.281-0.03-0.556-0.042-0.833
			C665.686,128.348,666.815,125.027,666.815,121.438z"/>
		<path fill="#91C60E" d="M649.705,104.577c-1.912,0-3.705,0.336-5.705,0.923v45.752c11-0.014,19.565-8.665,19.565-19.337
			c0-0.281,0.095-0.556,0.083-0.833c1.912-2.734,2.979-6.055,2.979-9.645C666.628,112.125,659.018,104.577,649.705,104.577z"/>
	</g>
	<g>
		<rect x="337" y="141" fill="#C39467" width="2" height="33"/>
		<path fill="#A4CC29" d="M354.065,136.201c0-6.571-5.327-11.898-11.898-11.898c-1.626,0-3.175,0.329-4.587,0.919
			c-1.412-0.59-2.961-0.919-4.587-0.919c-6.571,0-11.897,5.327-11.897,11.898c0,3.35,1.389,6.372,3.617,8.534
			c0.58,7.002,6.438,12.506,13.589,12.506c7.537,0,13.646-6.109,13.646-13.646c0-0.198-0.021-0.392-0.029-0.587
			C353.268,141.078,354.065,138.734,354.065,136.201z"/>
		<path fill="#C4DD58" d="M342.008,124.303c-1.349,0-3.008,0.237-4.008,0.651v32.287c8-0.01,13.789-6.115,13.789-13.646
			c0-0.198,0.059-0.392,0.051-0.587c1.349-1.93,2.106-4.273,2.106-6.807C353.946,129.63,348.58,124.303,342.008,124.303z"/>
	</g>
	<g>
		<rect x="287" y="129" fill="#C39467" width="3" height="47"/>
		<path fill="#80AD12" d="M310.08,119.306c0.428-1.304,0.668-2.691,0.668-4.138c0-7.324-5.939-13.264-13.264-13.264
			c-3.236,0-6.198,1.162-8.5,3.087c-2.303-1.925-5.266-3.087-8.5-3.087c-7.326,0-13.264,5.939-13.264,13.264
			c0,1.446,0.238,2.834,0.666,4.138c-3.423,2.398-5.666,6.366-5.666,10.862c0,7.326,5.938,13.264,13.264,13.264
			c0.148,0,0.293-0.018,0.441-0.021c1.77,5.242,6.719,9.021,12.559,9.021c5.861,0,10.824-3.806,12.578-9.078
			c0.468,0.05,0.941,0.078,1.422,0.078c7.324,0,13.264-5.938,13.264-13.264C315.748,125.672,313.504,121.704,310.08,119.306z"/>
		<path fill="#91C60E" d="M310.08,119.306c0.428-1.304,0.668-2.691,0.668-4.138c0-7.324-6.189-13.264-13.514-13.264
			c-3.002,0-5.234,1.009-8.234,2.691v47.795c6-0.41,10.162-4.072,11.813-9.037c0.468,0.05,1.066,0.078,1.547,0.078
			c7.324,0,13.326-5.938,13.326-13.264C315.686,125.672,313.504,121.704,310.08,119.306z"/>
	</g>
	<g>
		<rect x="438" y="107" fill="#C39467" width="4" height="60"/>
		<path fill="#80AD12" d="M454.376,124.734c0,7.613-6.576,13.786-14.688,13.786S425,132.348,425,124.734s6.575-60.626,14.688-60.626
			S454.376,117.121,454.376,124.734z"/>
		<path fill="#91C60E" d="M442.495,139c6.769-1,11.537-7.184,11.537-13.896c0-7.613-6.032-60.995-15.032-60.995V139H442.495z"/>
	</g>
	<g>
		<rect x="71" y="110" fill="#C39467" width="4" height="61"/>
		<path fill="#80AD12" d="M87.969,127.881c0,7.768-6.709,14.065-14.984,14.065S58,135.648,58,127.881
			c0-7.767,6.709-61.851,14.984-61.851S87.969,120.114,87.969,127.881z"/>
		<path fill="#91C60E" d="M75.849,142c6.904-1,11.628-7.111,11.628-13.961C87.477,120.272,82,66.03,72,66.03V142H75.849z"/>
	</g>
	<g>
		<rect x="704" y="129" fill="#C39467" width="3" height="47"/>
		<polygon fill="#2D8C0A" points="724.823,137.389 713.052,137.814 705.409,146.777 697.735,137.84 685.962,137.451 
			688.166,125.881 681.13,116.434 691.551,110.943 694.549,99.552 705.339,104.275 716.115,99.516 719.149,110.898 729.589,116.355 
			722.582,125.824 		"/>
		<polygon fill="#5DA517" points="719.149,110.898 716.115,99.516 705.339,104.275 705,104.127 705,146.301 705.409,146.777 
			713.052,137.814 724.823,137.389 722.582,125.824 729.589,116.355 		"/>
	</g>
	<g>
		<rect x="195" y="140" fill="#C39467" width="3" height="33"/>
		<polygon fill="#80AD12" points="172.687,157 196.188,65.972 219.689,157 		"/>
		<polygon fill="#91C60E" points="196,157 219.689,157 196.188,65.722 196,66.202 		"/>
	</g>
	<g>
		<polygon fill="#C39467" points="41.427,137.253 39.133,135.582 28,144.019 28,132 26,132 26,144.019 16.099,134.695 
			13.97,136.366 26,147.364 26,174 28,174 28,147.364 		"/>
		<circle fill="#80AD12" cx="27.492" cy="117.791" r="15.039"/>
		<circle fill="#91C60E" cx="45.225" cy="134.637" r="8.168"/>
		<circle fill="#80AD12" cx="15.024" cy="136.465" r="6.45"/>
		<path fill="#91C60E" d="M28,102.756v30.069c8-0.043,14.961-6.755,14.961-15.034S36,102.799,28,102.756z"/>
	</g>
	<g>
		<polygon fill="#C39467" points="778.543,122.188 775.123,119.787 759,131.911 759,115 757,115 757,131.911 742.578,118.513 
			739.614,120.914 757,136.72 757,175 759,175 759,136.72 		"/>
		<circle fill="#80AD12" cx="758.763" cy="94.218" r="21.614"/>
		<circle fill="#91C60E" cx="784.248" cy="118.428" r="11.739"/>
		<circle fill="#80AD12" cx="740.844" cy="121.056" r="9.27"/>
		<path fill="#91C60E" d="M759,72.609v43.215c12-0.062,21.502-9.708,21.502-21.606S771,72.672,759,72.609z"/>
	</g>
	<g>
		<path fill="#80AD12" d="M247.986,172h-37.109c0,0,1.383-1.71,3.027-2.435c0,0-1.514-1.216-3.027-0.888c0,0,0.79-2.222,3.553-2.682
			c0,0-2.895,0.173-4.014-1.472c0,0,1.843-0.144,3.619-1.263c0,0-1.629-1.471-3.257-1.075c0,0,1.233-2.026,3.849-2.026
			c0,0-0.938-0.841-2.171-0.644c0,0,1.036-1.876,4.491-2.023c0,0-0.444-1.234-1.629-1.433c0,0,1.678-2.27,5.082-2.022
			c0,0-0.147-1.776-1.775-1.875c0,0,2.072-1.579,4.392-0.297c0,0,0-2.615-0.938-2.813c0,0,2.072,0.493,3.158,2.023
			c0,0,1.135-1.135,0.197-2.271c0,0,1.974,0.889,2.122,2.912c0,0,1.233-2.221,0.839-3.751c0,0,1.529,0.444,1.776,2.319
			c0,0,0.395-1.332,1.629-1.776c0,0-0.148,1.036,0.246,2.122c0,0,0.74-1.283,2.566-2.023c0,0-0.297,0.593-0.297,2.073
			c0,0,1.283-1.283,2.961-1.432c0,0-0.543,2.073-0.543,2.764c0,0,1.777-0.74,3.652-0.493c0,0-0.494,0.642-1.086,1.924
			c0,0,2.369-0.345,5.28,2.172c0,0-1.628,0.74-2.073,1.233c0,0,2.715,0.346,4.738,2.122c0,0-1.925,0.246-2.665,0.814
			c0,0,2.961,0.37,3.849,2.541c0,0-2.318-0.395-3.01,0.839c0,0,1.135,0,3.257,2.072c0,0-2.271-0.049-3.257,0.839
			c0,0,2.072,0.247,3.257,2.122c0,0-1.925,0.346-2.961,1.431C245.716,169.631,247.542,169.631,247.986,172z"/>
		<path fill="#91C60E" d="M242.563,170h-26.196c0,0,0.976-1.184,2.137-1.695c0,0-1.068-0.849-2.137-0.616
			c0,0,0.557-1.563,2.508-1.888c0,0-2.043,0.126-2.833-1.035c0,0,1.301-0.101,2.555-0.89c0,0-1.149-1.038-2.299-0.759
			c0,0,0.87-1.43,2.717-1.43c0,0-0.661-0.594-1.532-0.455c0,0,0.731-1.323,3.17-1.428c0,0-0.313-0.871-1.15-1.011
			c0,0,1.185-1.603,3.588-1.429c0,0-0.104-1.253-1.254-1.323c0,0,1.463-1.115,3.101-0.209c0,0,0-1.846-0.661-1.986
			c0,0,1.463,0.349,2.229,1.429c0,0,0.801-0.801,0.141-1.603c0,0,1.393,0.627,1.497,2.055c0,0,0.871-1.566,0.593-2.647
			c0,0,1.079,0.314,1.254,1.638c0,0,0.278-0.94,1.149-1.254c0,0-0.104,0.731,0.174,1.498c0,0,0.522-0.905,1.812-1.429
			c0,0-0.209,0.418-0.209,1.464c0,0,0.906-0.906,2.09-1.01c0,0-0.383,1.462-0.383,1.95c0,0,1.254-0.522,2.578-0.349
			c0,0-0.349,0.453-0.767,1.358c0,0,1.672-0.243,3.728,1.533c0,0-1.15,0.522-1.463,0.87c0,0,1.916,0.245,3.344,1.499
			c0,0-1.358,0.174-1.881,0.575c0,0,2.09,0.26,2.717,1.793c0,0-1.637-0.279-2.125,0.592c0,0,0.801,0,2.299,1.464
			c0,0-1.602-0.035-2.299,0.592c0,0,1.463,0.175,2.299,1.498c0,0-1.357,0.221-2.09,0.988C240.961,168.352,242.25,168,242.563,170z"
			/>
	</g>
	<g>
		<path fill="#80AD12" d="M692.986,172h-37.109c0,0,1.383-1.71,3.027-2.435c0,0-1.514-1.216-3.027-0.888c0,0,0.79-2.222,3.553-2.682
			c0,0-2.895,0.173-4.014-1.472c0,0,1.843-0.144,3.619-1.263c0,0-1.629-1.471-3.257-1.075c0,0,1.233-2.026,3.849-2.026
			c0,0-0.938-0.841-2.171-0.644c0,0,1.036-1.876,4.491-2.023c0,0-0.444-1.234-1.629-1.433c0,0,1.678-2.27,5.082-2.022
			c0,0-0.147-1.776-1.775-1.875c0,0,2.072-1.579,4.392-0.297c0,0,0-2.615-0.938-2.813c0,0,2.072,0.493,3.158,2.023
			c0,0,1.135-1.135,0.197-2.271c0,0,1.974,0.889,2.122,2.912c0,0,1.233-2.221,0.839-3.751c0,0,1.529,0.444,1.776,2.319
			c0,0,0.395-1.332,1.629-1.776c0,0-0.148,1.036,0.246,2.122c0,0,0.74-1.283,2.566-2.023c0,0-0.297,0.593-0.297,2.073
			c0,0,1.283-1.283,2.961-1.432c0,0-0.543,2.073-0.543,2.764c0,0,1.777-0.74,3.652-0.493c0,0-0.494,0.642-1.086,1.924
			c0,0,2.369-0.345,5.28,2.172c0,0-1.628,0.74-2.073,1.233c0,0,2.715,0.346,4.738,2.122c0,0-1.925,0.246-2.665,0.814
			c0,0,2.961,0.37,3.849,2.541c0,0-2.318-0.395-3.01,0.839c0,0,1.135,0,3.257,2.072c0,0-2.271-0.049-3.257,0.839
			c0,0,2.072,0.247,3.257,2.122c0,0-1.925,0.346-2.961,1.431C690.716,169.631,692.542,169.631,692.986,172z"/>
		<path fill="#91C60E" d="M687.563,170h-26.196c0,0,0.976-1.184,2.137-1.695c0,0-1.068-0.849-2.137-0.616
			c0,0,0.557-1.563,2.508-1.888c0,0-2.043,0.126-2.833-1.035c0,0,1.301-0.101,2.555-0.89c0,0-1.149-1.038-2.299-0.759
			c0,0,0.87-1.43,2.717-1.43c0,0-0.661-0.594-1.532-0.455c0,0,0.731-1.323,3.17-1.428c0,0-0.313-0.871-1.15-1.011
			c0,0,1.185-1.603,3.588-1.429c0,0-0.104-1.253-1.254-1.323c0,0,1.463-1.115,3.101-0.209c0,0,0-1.846-0.661-1.986
			c0,0,1.463,0.349,2.229,1.429c0,0,0.801-0.801,0.141-1.603c0,0,1.393,0.627,1.497,2.055c0,0,0.871-1.566,0.593-2.647
			c0,0,1.079,0.314,1.254,1.638c0,0,0.278-0.94,1.149-1.254c0,0-0.104,0.731,0.174,1.498c0,0,0.522-0.905,1.812-1.429
			c0,0-0.209,0.418-0.209,1.464c0,0,0.906-0.906,2.09-1.01c0,0-0.383,1.462-0.383,1.95c0,0,1.254-0.522,2.578-0.349
			c0,0-0.349,0.453-0.767,1.358c0,0,1.672-0.243,3.728,1.533c0,0-1.15,0.522-1.463,0.87c0,0,1.916,0.245,3.344,1.499
			c0,0-1.358,0.174-1.881,0.575c0,0,2.09,0.26,2.717,1.793c0,0-1.637-0.279-2.125,0.592c0,0,0.801,0,2.299,1.464
			c0,0-1.602-0.035-2.299,0.592c0,0,1.463,0.175,2.299,1.498c0,0-1.357,0.221-2.09,0.988C685.961,168.352,687.25,168,687.563,170z"
			/>
	</g>
	<g>
		<path fill="#80AD12" d="M54.627,171H34.664c0,0,0.744-0.92,1.629-1.31c0,0-0.814-0.654-1.629-0.478c0,0,0.426-1.195,1.912-1.442
			c0,0-1.559,0.093-2.16-0.792c0,0,0.992-0.077,1.947-0.679c0,0-0.876-0.792-1.752-0.579c0,0,0.664-1.09,2.07-1.09
			c0,0-0.504-0.452-1.168-0.346c0,0,0.558-1.01,2.416-1.089c0,0-0.239-0.664-0.877-0.771c0,0,0.903-1.221,2.734-1.088
			c0,0-0.079-0.956-0.955-1.009c0,0,1.115-0.85,2.362-0.16c0,0,0-1.406-0.504-1.513c0,0,1.114,0.266,1.698,1.089
			c0,0,0.611-0.61,0.106-1.222c0,0,1.062,0.479,1.142,1.566c0,0,0.664-1.194,0.451-2.018c0,0,0.822,0.239,0.955,1.248
			c0,0,0.213-0.717,0.877-0.956c0,0-0.08,0.558,0.133,1.142c0,0,0.397-0.69,1.38-1.089c0,0-0.159,0.319-0.159,1.115
			c0,0,0.689-0.689,1.593-0.77c0,0-0.292,1.115-0.292,1.486c0,0,0.955-0.398,1.965-0.265c0,0-0.266,0.345-0.585,1.034
			c0,0,1.274-0.186,2.841,1.169c0,0-0.876,0.397-1.115,0.663c0,0,1.46,0.186,2.549,1.142c0,0-1.035,0.133-1.434,0.438
			c0,0,1.593,0.198,2.07,1.366c0,0-1.248-0.212-1.619,0.451c0,0,0.61,0,1.752,1.115c0,0-1.221-0.026-1.752,0.451
			c0,0,1.115,0.133,1.752,1.142c0,0-1.035,0.186-1.593,0.77C53.405,169.726,54.388,169.726,54.627,171z"/>
		<path fill="#91C60E" d="M51.709,170H37.617c0,0,0.525-0.675,1.15-0.95c0,0-0.576-0.476-1.15-0.351c0,0,0.301-0.85,1.35-1.024
			c0,0-1.1,0.063-1.523-0.562c0,0,0.699-0.057,1.373-0.481c0,0-0.617-0.56-1.236-0.409c0,0,0.469-0.77,1.461-0.77
			c0,0-0.355-0.32-0.824-0.245c0,0,0.395-0.712,1.705-0.769c0,0-0.168-0.469-0.617-0.543c0,0,0.637-0.862,1.93-0.769
			c0,0-0.057-0.675-0.675-0.712c0,0,0.787-0.601,1.668-0.113c0,0,0-0.992-0.356-1.068c0,0,0.787,0.188,1.199,0.769
			c0,0,0.432-0.431,0.076-0.861c0,0,0.748,0.337,0.805,1.104c0,0,0.469-0.842,0.318-1.424c0,0,0.581,0.169,0.675,0.881
			c0,0,0.15-0.506,0.618-0.674c0,0-0.056,0.393,0.094,0.806c0,0,0.281-0.487,0.975-0.769c0,0-0.112,0.225-0.112,0.787
			c0,0,0.487-0.487,1.124-0.543c0,0-0.205,0.786-0.205,1.049c0,0,0.674-0.281,1.387-0.188c0,0-0.188,0.244-0.412,0.73
			c0,0,0.898-0.131,2.004,0.825c0,0-0.618,0.281-0.787,0.468c0,0,1.031,0.132,1.799,0.807c0,0-0.73,0.094-1.012,0.31
			c0,0,1.125,0.14,1.462,0.964c0,0-0.88-0.149-1.144,0.318c0,0,0.432,0,1.237,0.788c0,0-0.862-0.02-1.237,0.318
			c0,0,0.787,0.094,1.237,0.806c0,0-0.73,0.156-1.124,0.569C50.848,169.075,51.541,169,51.709,170z"/>
	</g>
	<g>
		<path fill="#74960B" d="M544.496,171c0.918-3,1.443-2.932,1.443-4.313c0-4.295-5.065-8.037-11.364-8.133
			c0-0.05,0.007-0.225,0.007-0.274c0-5.451-4.579-9.934-10.229-9.934c-4.472,0-8.263,2.74-9.653,6.596
			c-1.303-1.563-3.335-2.588-5.625-2.588c-3.933,0-7.12,2.958-7.12,6.617c0,0.148,0.014,0.291,0.024,0.438
			c-0.766-0.197-1.575-0.311-2.415-0.311c-4.655,0-8.428,3.76-8.428,7.766c0,1.322,0.417,1.135,1.135,4.135H544.496z"/>
		<path fill="#91C60E" d="M537.001,172c0.652-0.809,1.025-1.845,1.025-2.825c0-3.056-3.603-5.596-8.083-5.663
			c0.001-0.036,0.006-0.101,0.006-0.135c0-3.877-3.257-7.035-7.275-7.035c-3.18,0-5.877,1.963-6.865,4.705
			c-0.927-1.11-2.372-1.832-4-1.832c-2.798,0-5.065,2.108-5.065,4.71c0,0.105,0.011,0.208,0.018,0.313
			c-0.545-0.14-1.12-0.218-1.718-0.218c-3.311,0-5.993,2.431-5.993,5.281c0,0.939,0.296,1.891,0.807,2.699H537.001z"/>
	</g>
	<g>
		<path fill="#80AD12" d="M350.783,168.938c0,0,10.25-5.313,19.063,5.813C369.846,174.75,357.283,176.75,350.783,168.938z"/>
		<path fill="#80AD12" d="M362.355,156.282c0,0-4.377,10.683,7.49,18.468C369.846,174.75,370.717,162.059,362.355,156.282z"/>
		<path fill="#80AD12" d="M382.594,162.536c0,0-1.577,11.437-15.748,12.214C366.846,174.75,372.462,163.336,382.594,162.536z"/>
		<path fill="#80AD12" d="M388.444,168.985c0,0-11.263-6.379-21.599,5.718C366.846,174.703,380.837,177.467,388.444,168.985z"/>
		<path fill="#80AD12" d="M370.564,172.146c0.03-0.132,3.202-13.337,14.977-22.496l-1.227-1.578
			c-7.464,5.805-11.59,13.009-13.718,17.93c-0.146-8.279-1.011-22.881-5.138-28.822l-1.643,1.141
			c5.416,7.799,4.781,33.317,4.773,33.574L370.564,172.146z"/>
		<polygon fill="#D1D3D4" points="364.637,130.579 363.045,125.616 363.064,130.828 360.018,126.6 361.646,131.551 357.441,128.472 
			360.521,132.677 355.57,131.047 359.799,134.095 354.586,134.075 359.549,135.667 354.586,137.259 359.799,137.239 
			355.57,140.287 360.521,138.657 357.441,142.862 361.646,139.783 360.018,144.734 363.064,140.506 363.045,145.718 
			364.637,140.755 366.229,145.718 366.209,140.506 369.257,144.734 367.628,139.783 371.833,142.862 368.754,138.657 
			373.704,140.287 369.477,137.239 374.688,137.259 369.725,135.667 374.688,134.075 369.477,134.095 373.704,131.047 
			368.754,132.677 371.833,128.472 367.628,131.551 369.257,126.6 366.209,130.828 366.229,125.616 		"/>
		<circle fill="#F7BB34" cx="364.637" cy="135.531" r="4.443"/>
		<polygon fill="#D1D3D4" points="386.637,141.579 385.045,136.616 385.064,141.828 382.018,137.6 383.646,142.551 379.441,139.472 
			382.521,143.677 377.57,142.047 381.799,145.095 376.586,145.075 381.549,146.667 376.586,148.259 381.799,148.239 
			377.57,151.287 382.521,149.657 379.441,153.862 383.646,150.783 382.018,155.734 385.064,151.506 385.045,156.718 
			386.637,151.755 388.229,156.718 388.209,151.506 391.257,155.734 389.628,150.783 393.833,153.862 390.754,149.657 
			395.704,151.287 391.477,148.239 396.688,148.259 391.725,146.667 396.688,145.075 391.477,145.095 395.704,142.047 
			390.754,143.677 393.833,139.472 389.628,142.551 391.257,137.6 388.209,141.828 388.229,136.616 		"/>
		<circle fill="#F7BB34" cx="386.637" cy="146.531" r="4.443"/>
	</g>
	<g>
		<path fill="#80AD12" d="M582.688,168.938c0,0-10.25-5.313-19.063,5.813C563.625,174.75,576.188,176.75,582.688,168.938z"/>
		<path fill="#80AD12" d="M571.115,156.282c0,0,4.377,10.683-7.49,18.468C563.625,174.75,562.754,162.059,571.115,156.282z"/>
		<path fill="#80AD12" d="M550.877,162.536c0,0,1.577,11.437,15.748,12.214C566.625,174.75,561.009,163.336,550.877,162.536z"/>
		<path fill="#80AD12" d="M545.026,168.985c0,0,11.263-6.379,21.599,5.718C566.625,174.703,552.634,177.467,545.026,168.985z"/>
		<path fill="#80AD12" d="M562.906,172.146c-0.03-0.132-3.202-13.337-14.977-22.496l1.227-1.578
			c7.464,5.805,11.59,13.009,13.718,17.93c0.146-8.279,1.011-22.881,5.138-28.822l1.643,1.141
			c-5.416,7.799-4.781,33.317-4.773,33.574L562.906,172.146z"/>
		<polygon fill="#D1D3D4" points="568.834,130.579 570.426,125.616 570.406,130.828 573.453,126.6 571.824,131.551 576.029,128.472 
			572.949,132.677 577.9,131.047 573.672,134.095 578.885,134.075 573.922,135.667 578.885,137.259 573.672,137.239 577.9,140.287 
			572.949,138.657 576.029,142.862 571.824,139.783 573.453,144.734 570.406,140.506 570.426,145.718 568.834,140.755 
			567.242,145.718 567.262,140.506 564.214,144.734 565.843,139.783 561.638,142.862 564.717,138.657 559.767,140.287 
			563.994,137.239 558.783,137.259 563.746,135.667 558.783,134.075 563.994,134.095 559.767,131.047 564.717,132.677 
			561.638,128.472 565.843,131.551 564.214,126.6 567.262,130.828 567.242,125.616 		"/>
		<circle fill="#F7BB34" cx="568.833" cy="135.531" r="4.443"/>
		<polygon fill="#D1D3D4" points="546.834,141.579 548.426,136.616 548.406,141.828 551.453,137.6 549.824,142.551 554.029,139.472 
			550.949,143.677 555.9,142.047 551.672,145.095 556.885,145.075 551.922,146.667 556.885,148.259 551.672,148.239 555.9,151.287 
			550.949,149.657 554.029,153.862 549.824,150.783 551.453,155.734 548.406,151.506 548.426,156.718 546.834,151.755 
			545.242,156.718 545.262,151.506 542.214,155.734 543.843,150.783 539.638,153.862 542.717,149.657 537.767,151.287 
			541.994,148.239 536.783,148.259 541.746,146.667 536.783,145.075 541.994,145.095 537.767,142.047 542.717,143.677 
			539.638,139.472 543.843,142.551 542.214,137.6 545.262,141.828 545.242,136.616 		"/>
		<circle fill="#F7BB34" cx="546.833" cy="146.531" r="4.443"/>
	</g>
	<g>
		<path fill="#80AD12" d="M118.773,143.875c0,0-13.902,13.423-12.125,31.078C106.648,174.953,119.799,161.585,118.773,143.875z"/>
		<path fill="#80AD12" d="M125.916,157.48c0,0-5.914,13.858-19.269,17.472C106.647,174.952,112.73,161.656,125.916,157.48z"/>
		<path fill="#91C60E" d="M107.325,136.303c0,0,9.01,20.501-0.653,38.65C106.672,174.953,98.445,154.842,107.325,136.303z"/>
		<path fill="#91C60E" d="M123.498,150.5c0,0-2.951,16.947-16.851,24.453C106.647,174.953,109.934,158.586,123.498,150.5z"/>
		<path fill="#80AD12" d="M131.83,159.214c0,0-17.063,2.189-25.182,15.738C106.648,174.952,123.146,172.401,131.83,159.214z"/>
		<path fill="#80AD12" d="M97.211,146.858c0,0,11.861,12.458,9.62,28.095C106.831,174.953,95.635,162.57,97.211,146.858z"/>
		<path fill="#91C60E" d="M90.379,154.806c0,0,13.534,6.622,16.452,20.146C106.831,174.952,93.867,168.189,90.379,154.806z"/>
		<path fill="#80AD12" d="M84.309,160.877c0,0,15.26,1.958,22.521,14.075C106.83,174.952,92.076,172.671,84.309,160.877z"/>
	</g>
	<g>
		<path fill="#80AD12" d="M737.717,154.648c0,0-8.636,8.338-7.531,19.305C730.186,173.953,738.354,165.649,737.717,154.648z"/>
		<path fill="#80AD12" d="M742.153,163.1c0,0-3.674,8.608-11.969,10.853C730.185,173.952,733.963,165.693,742.153,163.1z"/>
		<path fill="#91C60E" d="M730.605,149.945c0,0,5.597,12.734-0.406,24.008C730.199,173.953,725.09,161.461,730.605,149.945z"/>
		<path fill="#91C60E" d="M740.651,158.764c0,0-1.833,10.527-10.467,15.189C730.185,173.953,732.226,163.786,740.651,158.764z"/>
		<path fill="#80AD12" d="M745.827,164.177c0,0-10.599,1.36-15.642,9.775C730.186,173.952,740.433,172.368,745.827,164.177z"/>
		<path fill="#80AD12" d="M724.323,156.502c0,0,7.367,7.738,5.976,17.451C730.299,173.953,723.344,166.262,724.323,156.502z"/>
		<path fill="#91C60E" d="M720.079,161.438c0,0,8.407,4.113,10.22,12.514C730.299,173.952,722.246,169.752,720.079,161.438z"/>
		<path fill="#80AD12" d="M716.309,165.21c0,0,9.479,1.216,13.989,8.742C730.298,173.952,721.134,172.535,716.309,165.21z"/>
	</g>
	<g>
		<rect x="152" y="92" fill="#C39467" width="5" height="83"/>
		<polygon fill="#4E990D" points="204.275,126 181.638,100 196.875,100 165.529,63 185.029,63 164.131,39 177.719,39 160.304,19 
			169.881,19 154.428,1.104 138.969,19 148.549,19 131.135,39 144.723,39 123.825,63 143.324,63 111.979,100 127.217,100 
			104.576,126 		"/>
		<polygon fill="#71B72E" points="154,126 204.275,126 181.638,100 196.875,100 165.529,63 185.029,63 164.131,39 177.719,39 
			160.304,19 169.881,19 155.082,0 154,0 		"/>
	</g>
	<g>
		<path fill="#698907" d="M135.422,151.894c0,0,4.194,12.312,5.306,20.106h1.874c0,0,3.171-10.872,6.164-14.379
			c0,0-3.25,2.688-5.302,7.818c0,0,0.343-8.404,3.335-15.416c0,0-2.565,4.435-4.189,12.131c0,0-0.514-19.589,2.992-27.969
			c0,0-4.361,8.119-4.361,24.71c0,0-0.684-8.811-5.473-14.711c0,0,4.361,9.624,4.789,19.715
			C140.557,163.899,139.18,157.968,135.422,151.894z"/>
	</g>
	<g>
		<path fill="#4BAA13" d="M308,172h4.38c0,0,4.884-4.698,13.202-8.655c0,0-5.492,0.682-12.356,3.831l7.673-10.118l-8.48,8.065
			l-1.938-12.524L308,165.114l-9.474-9.209l8.965,11.307c0,0-6.703-2.736-12.276-4.028C295.215,163.184,301.24,165.129,308,172z"/>
		<path fill="#7AC410" d="M320.898,157.034l-8.48,8.077l-2.125-12.519L310,153.134V172h2.38c0,0,4.884-4.698,13.202-8.655
			c0,0-5.492,0.682-12.356,3.831L320.898,157.034z"/>
	</g>
	<g>
		<path fill="#2D8C0A" d="M421.5,137.546c-0.921,0-1.5,0.747-1.5,1.668V151h-4v-8.73c0-1.834-1.174-3.27-3.007-3.27h-0.556
			c-1.833,0-4.438,1.436-4.438,3.27V156h-3v-11.785c0-0.921-1.079-1.667-2-1.667s-2,0.746-2,1.667v13.893
			c0,0.921,0.792,1.893,1.713,1.893H408v8.388c0,1.834,2.604,3.612,4.438,3.612h0.556c1.833,0,3.007-1.778,3.007-3.612V155h5.606
			c0.921,0,1.394-0.974,1.394-1.895v-13.892C423,138.293,422.421,137.546,421.5,137.546z"/>
		<path fill="#5FA51C" d="M421.5,137.546c-0.921,0-1.5,0.747-1.5,1.668V151h-4v-8.73c0-1.834-1.174-3.27-3.007-3.27h-0.556
			c-0.093,0-0.438,0.219-0.438,0.225v32.76c0,0.009,0.345,0.016,0.438,0.016h0.556c1.833,0,3.007-1.778,3.007-3.612V155h5.606
			c0.921,0,1.394-0.974,1.394-1.895v-13.892C423,138.293,422.421,137.546,421.5,137.546z"/>
	</g>
	<g>
		<path fill="#2D8C0A" d="M789.5,137.546c-0.921,0-1.5,0.747-1.5,1.668V151h-4v-8.73c0-1.834-1.174-3.27-3.007-3.27h-0.556
			c-1.833,0-4.438,1.436-4.438,3.27V156h-3v-11.785c0-0.921-1.079-1.667-2-1.667s-2,0.746-2,1.667v13.893
			c0,0.921,0.792,1.893,1.713,1.893H776v8.388c0,1.834,2.604,3.612,4.438,3.612h0.556c1.833,0,3.007-1.778,3.007-3.612V155h5.606
			c0.921,0,1.394-0.974,1.394-1.895v-13.892C791,138.293,790.421,137.546,789.5,137.546z"/>
		<path fill="#5FA51C" d="M789.5,137.546c-0.921,0-1.5,0.747-1.5,1.668V151h-4v-8.73c0-1.834-1.174-3.27-3.007-3.27h-0.556
			c-0.093,0-0.438,0.219-0.438,0.225v32.76c0,0.009,0.345,0.016,0.438,0.016h0.556c1.833,0,3.007-1.778,3.007-3.612V155h5.606
			c0.921,0,1.394-0.974,1.394-1.895v-13.892C791,138.293,790.421,137.546,789.5,137.546z"/>
	</g>
	<g>
		<rect y="172" fill="#5F7505" width="800" height="4"/>
		<polygon fill="#5F7505" points="800,173 798.153,163.912 796.583,169.666 795.833,161.625 793.833,170.896 792.666,166.781 
			791.25,170.932 789.583,163.758 788.166,170.67 787,167.668 786,170.584 784.833,169.667 784,170.75 781.916,164.916 
			780.166,170.5 779.166,167.584 776.166,170.416 773.75,161.916 772.416,168.916 770.416,165.5 767.916,169.916 765.916,159.584 
			762.666,173 763.926,173 		"/>
		<polygon fill="#5F7505" points="762.283,167.313 761.21,172.48 758.898,165.959 757.247,170.334 756.587,169.22 755.019,170.746 
			753.285,163.729 751.799,170.912 750.808,167.313 749.074,170.912 747.918,165.793 746.185,170.912 744.946,168.105 
			743.543,170.912 741.479,164.473 739.828,170.994 738.259,167.313 737.269,170.829 735.7,169.014 733.554,171.16 732.149,164.225 
			729.508,172.48 763.666,173 		"/>
		<polygon fill="#5F7505" points="731,173 729.153,163.912 727.583,169.666 726.833,161.625 724.833,170.896 723.666,166.781 
			722.25,170.932 720.583,163.758 719.166,170.67 718,167.668 717,170.584 715.833,169.667 715,170.75 712.916,164.916 
			711.166,170.5 710.166,167.584 707.166,170.416 704.75,159.916 703.416,168.916 701.416,165.5 698.916,169.916 696.916,163.584 
			693.666,173 694.926,173 		"/>
		<polygon fill="#5F7505" points="693.283,167.313 692.21,172.48 689.898,165.959 688.247,170.334 687.587,169.22 686.019,170.746 
			684.285,163.729 682.799,170.912 681.808,167.313 680.074,170.912 678.918,165.793 677.185,170.912 675.946,168.105 
			674.543,170.912 672.479,164.473 670.828,170.994 669.259,167.313 668.269,170.829 666.7,169.014 664.554,171.16 663.149,164.225 
			660.508,172.48 694.666,173 		"/>
		<polygon fill="#5F7505" points="662,173 660.153,163.912 658.583,169.666 656.833,160.625 655.833,170.896 654.666,166.781 
			653.25,170.932 651.583,163.758 650.166,170.67 649,167.668 648,170.584 646.833,169.667 646,170.75 643.916,164.916 
			642.166,170.5 641.166,167.584 638.166,170.416 635.75,161.916 634.416,168.916 632.416,165.5 629.916,169.916 627.916,163.584 
			624.666,173 625.926,173 		"/>
		<polygon fill="#5F7505" points="624.283,167.313 623.21,172.48 620.898,165.959 619.247,170.334 618.587,169.22 617.019,170.746 
			615.285,163.729 613.799,170.912 612.808,167.313 611.074,170.912 609.918,165.793 608.185,170.912 606.946,168.105 
			605.543,170.912 603.479,164.473 601.828,170.994 600.259,167.313 599.269,170.829 597.7,169.014 595.554,171.16 594.149,164.225 
			591.508,172.48 625.666,173 		"/>
		<polygon fill="#5F7505" points="593,173 591.153,163.912 589.583,169.666 588.833,161.625 586.833,170.896 585.666,166.781 
			584.25,170.932 582.583,163.758 581.166,170.67 580,167.668 579,170.584 577.833,169.667 577,170.75 574.916,163.916 
			573.166,170.5 572.166,167.584 569.166,170.416 566.75,161.916 565.416,168.916 563.416,165.5 560.916,169.916 558.916,163.584 
			555.666,173 556.926,173 		"/>
		<polygon fill="#5F7505" points="555.283,167.313 554.21,172.48 551.898,165.959 550.247,170.334 548.587,168.22 548.019,170.746 
			546.285,163.729 544.799,170.912 543.808,167.313 542.074,170.912 540.918,165.793 539.185,170.912 537.946,168.105 
			536.543,170.912 534.479,164.473 532.828,170.994 531.259,167.313 530.269,170.829 528.7,169.014 526.554,171.16 525.149,164.225 
			522.508,172.48 556.666,173 		"/>
		<polygon fill="#5F7505" points="524,173 522.153,163.912 520.583,169.666 519.833,161.625 517.833,170.896 516.666,166.781 
			515.25,170.932 513.583,163.758 512.166,170.67 511,167.668 510,170.584 508.833,169.667 508,170.75 505.916,164.916 
			504.166,170.5 502.166,166.584 500.166,170.416 497.75,161.916 496.416,168.916 494.416,165.5 491.916,169.916 489.916,163.584 
			486.666,173 487.926,173 		"/>
		<polygon fill="#5F7505" points="486.283,167.313 485.21,172.48 482.898,165.959 481.247,170.334 480.587,169.22 479.019,170.746 
			477.285,163.729 475.799,170.912 474.808,167.313 473.074,170.912 471.918,165.793 470.185,170.912 468.946,168.105 
			467.543,170.912 465.479,164.473 463.828,170.994 462.259,167.313 461.269,170.829 459.7,169.014 457.554,171.16 456.149,164.225 
			453.508,172.48 487.666,173 		"/>
		<polygon fill="#5F7505" points="455,173 453.153,163.912 451.583,169.666 450.833,161.625 448.833,170.896 447.666,166.781 
			446.25,170.932 444.583,163.758 443.166,170.67 442,167.668 441,170.584 439.833,169.667 439,170.75 436.916,164.916 
			435.166,170.5 434.166,167.584 431.166,170.416 428.75,161.916 427.416,168.916 425.416,165.5 422.916,169.916 420.916,163.584 
			417.666,173 418.926,173 		"/>
		<polygon fill="#5F7505" points="417.283,167.313 416.21,172.48 413.898,165.959 412.247,170.334 411.587,169.22 410.019,170.746 
			408.285,163.729 406.799,170.912 405.808,167.313 404.074,170.912 402.918,165.793 401.185,170.912 399.947,168.105 
			398.543,170.912 396.479,164.473 394.828,170.994 393.26,167.313 392.269,170.829 390.7,169.014 388.554,171.16 387.15,164.225 
			384.508,172.48 418.666,173 		"/>
		<polygon fill="#5F7505" points="386,173 384.154,163.912 382.583,169.666 381.833,161.625 379.833,170.896 378.666,166.781 
			377.25,170.932 375.583,163.758 374.166,170.67 373,167.668 372,170.584 370.833,169.667 370,170.75 367.916,164.916 
			366.166,170.5 365.166,167.584 362.166,170.416 359.75,161.916 358.416,168.916 356.416,165.5 353.916,169.916 351.916,163.584 
			348.666,173 349.926,173 		"/>
		<polygon fill="#5F7505" points="348.283,167.313 347.211,172.48 344.898,165.959 343.248,170.334 342.588,169.22 341.019,170.746 
			339.285,163.729 337.799,170.912 336.809,167.313 335.074,170.912 333.918,165.793 332.186,170.912 330.947,168.105 
			329.543,170.912 327.479,164.473 325.828,170.994 324.26,167.313 323.269,170.829 321.7,169.014 319.554,171.16 318.15,164.225 
			315.508,172.48 349.666,173 		"/>
		<polygon fill="#5F7505" points="317,173 315.154,163.912 313.583,169.666 312.833,161.625 310.833,170.896 309.666,166.781 
			308.25,170.932 306.583,163.758 305.166,170.67 304,167.668 303,170.584 301.833,169.667 301,170.75 298.916,164.916 
			297.166,170.5 296.166,167.584 293.166,170.416 290.75,161.916 289.416,168.916 287.416,165.5 284.916,169.916 282.916,163.584 
			279.666,173 280.926,173 		"/>
		<polygon fill="#5F7505" points="279.283,167.313 278.211,172.48 275.898,165.959 274.248,170.334 273.588,169.22 272.019,170.746 
			270.285,163.729 268.799,170.912 267.809,167.313 266.074,170.912 264.918,165.793 263.186,170.912 261.947,168.105 
			260.543,170.912 258.479,164.473 256.828,170.994 255.26,167.313 254.269,170.829 252.7,169.014 250.554,171.16 249.15,164.225 
			246.508,172.48 280.666,173 		"/>
		<polygon fill="#5F7505" points="248,173 246.154,163.912 244.583,169.666 243.833,161.625 241.833,170.896 240.666,166.781 
			239.25,170.932 237.583,163.758 236.166,170.67 235,167.668 234,170.584 232.833,169.667 232,170.75 229.916,164.916 
			228.166,170.5 227.166,167.584 224.166,170.416 221.75,161.916 220.416,168.916 218.416,165.5 215.916,169.916 213.916,163.584 
			210.666,173 211.926,173 		"/>
		<polygon fill="#5F7505" points="210.283,167.313 209.211,172.48 206.898,165.959 205.248,170.334 204.588,169.22 203.019,170.746 
			201.285,163.729 199.799,170.912 198.809,167.313 197.074,170.912 195.918,165.793 194.186,170.912 192.947,168.105 
			191.543,170.912 189.479,164.473 187.828,170.994 186.26,167.313 185.269,170.829 183.7,169.014 181.554,171.16 180.15,164.225 
			177.508,172.48 211.666,173 		"/>
		<polygon fill="#5F7505" points="179,173 177.154,163.912 175.583,169.666 174.833,161.625 172.833,170.896 171.666,166.781 
			170.25,170.932 168.583,163.758 167.166,170.67 166,167.668 165,170.584 163.833,169.667 163,170.75 160.916,164.916 
			159.166,170.5 158.166,167.584 155.166,170.416 152.75,161.916 151.416,168.916 149.416,165.5 146.916,169.916 144.916,163.584 
			141.666,173 142.926,173 		"/>
		<polygon fill="#5F7505" points="141.283,167.313 140.211,172.48 137.898,165.959 136.248,170.334 135.588,169.22 134.019,170.746 
			132.285,163.729 130.799,170.912 129.809,167.313 128.074,170.912 126.918,165.793 125.186,170.912 123.947,168.105 
			122.543,170.912 120.479,164.473 118.828,170.994 117.26,167.313 116.269,170.829 114.7,169.014 112.554,171.16 111.15,164.225 
			108.508,172.48 142.666,173 		"/>
		<polygon fill="#5F7505" points="110,173 108.154,163.912 106.583,169.666 105.833,161.625 103.833,170.896 102.666,166.781 
			101.25,170.932 99.583,163.758 98.166,170.67 97,167.668 96,170.584 94.833,169.667 94,170.75 91.916,164.916 90.166,170.5 
			89.166,167.584 86.166,170.416 83.75,161.916 82.416,168.916 80.416,165.5 77.916,169.916 75.916,163.584 72.666,173 73.926,173 
					"/>
		<polygon fill="#5F7505" points="72.283,167.313 71.211,172.48 68.898,165.959 67.248,170.334 66.588,169.22 65.019,170.746 
			63.285,163.729 61.799,170.912 60.809,167.313 59.074,170.912 57.918,165.793 56.186,170.912 54.947,168.105 53.543,170.912 
			51.479,164.473 49.828,170.994 48.26,167.313 47.269,170.829 45.7,169.014 43.554,171.16 42.15,164.225 39.508,172.48 73.666,173 
					"/>
		<polygon fill="#5F7505" points="0,169.813 2.938,165.563 4.815,170.67 6.916,165.584 8.916,169.916 11.416,167.5 13.416,169.916 
			14.75,163.916 17.166,170.416 19.166,166.584 21.166,170.5 22.916,164.916 25,170.75 25.833,169.667 27,170.584 28,167.668 
			29.166,170.67 30.583,163.758 32.25,170.932 33.666,166.781 34.833,170.896 36.833,161.625 37.583,169.666 39.154,163.912 41,173 
			4.926,173 3.666,173 0,173 		"/>
	</g>
	<g>
		<rect y="174" fill="#80AD12" width="800" height="4"/>
		<polygon fill="#80AD12" points="0,175 0,175 0,175 0,175 0,171.813 1.846,165.912 3.417,171.666 4.167,163.625 6.167,172.896 
			7.334,168.781 8.75,172.932 10.417,165.758 11.834,172.67 13,169.668 14,172.584 15.167,171.667 16,172.75 18.084,166.916 
			19.834,172.5 20.834,169.584 23.834,172.416 26.25,163.916 27.584,170.916 29.584,167.5 32.084,171.916 34.084,161.584 
			37.334,175 36.074,175 		"/>
		<polygon fill="#80AD12" points="37.717,169.313 38.789,174.48 41.102,167.959 42.752,172.334 43.412,171.22 44.981,172.746 
			46.715,165.729 48.201,172.912 49.191,169.313 50.926,172.912 52.082,167.793 53.814,172.912 55.053,170.105 56.457,172.912 
			58.521,166.473 60.172,172.994 61.74,169.313 62.731,172.829 64.3,171.014 66.446,173.16 67.85,166.225 70.492,174.48 36.334,175 
					"/>
		<polygon fill="#80AD12" points="69,175 70.846,165.912 72.417,171.666 73.167,163.625 75.167,172.896 76.334,168.781 
			77.75,172.932 79.417,165.758 80.834,172.67 82,169.668 83,172.584 84.167,171.667 85,172.75 87.084,166.916 88.834,172.5 
			89.834,169.584 92.834,172.416 95.25,161.916 96.584,170.916 98.584,167.5 101.084,171.916 103.084,165.584 106.334,175 
			105.074,175 		"/>
		<polygon fill="#80AD12" points="106.717,169.313 107.789,174.48 110.102,167.959 111.752,172.334 112.412,171.22 113.981,172.746 
			115.715,165.729 117.201,172.912 118.191,169.313 119.926,172.912 121.082,167.793 122.814,172.912 124.053,170.105 
			125.457,172.912 127.521,166.473 129.172,172.994 130.74,169.313 131.731,172.829 133.3,171.014 135.446,173.16 136.85,166.225 
			139.492,174.48 105.334,175 		"/>
		<polygon fill="#80AD12" points="138,175 139.846,165.912 141.417,171.666 143.167,162.625 144.167,172.896 145.334,168.781 
			146.75,172.932 148.417,165.758 149.834,172.67 151,169.668 152,172.584 153.167,171.667 154,172.75 156.084,166.916 
			157.834,172.5 158.834,169.584 161.834,172.416 164.25,163.916 165.584,170.916 167.584,167.5 170.084,171.916 172.084,165.584 
			175.334,175 174.074,175 		"/>
		<polygon fill="#80AD12" points="175.717,169.313 176.789,174.48 179.102,167.959 180.752,172.334 181.412,171.22 182.981,172.746 
			184.715,165.729 186.201,172.912 187.191,169.313 188.926,172.912 190.082,167.793 191.814,172.912 193.053,170.105 
			194.457,172.912 196.521,166.473 198.172,172.994 199.74,169.313 200.731,172.829 202.3,171.014 204.446,173.16 205.85,166.225 
			208.492,174.48 174.334,175 		"/>
		<polygon fill="#80AD12" points="207,175 208.846,165.912 210.417,171.666 211.167,163.625 213.167,172.896 214.334,168.781 
			215.75,172.932 217.417,165.758 218.834,172.67 220,169.668 221,172.584 222.167,171.667 223,172.75 225.084,165.916 
			226.834,172.5 227.834,169.584 230.834,172.416 233.25,163.916 234.584,170.916 236.584,167.5 239.084,171.916 241.084,165.584 
			244.334,175 243.074,175 		"/>
		<polygon fill="#80AD12" points="244.717,169.313 245.789,174.48 248.102,167.959 249.752,172.334 251.412,170.22 251.981,172.746 
			253.715,165.729 255.201,172.912 256.191,169.313 257.926,172.912 259.082,167.793 260.814,172.912 262.053,170.105 
			263.457,172.912 265.521,166.473 267.172,172.994 268.74,169.313 269.731,172.829 271.3,171.014 273.446,173.16 274.85,166.225 
			277.492,174.48 243.334,175 		"/>
		<polygon fill="#80AD12" points="276,175 277.846,165.912 279.417,171.666 280.167,163.625 282.167,172.896 283.334,168.781 
			284.75,172.932 286.417,165.758 287.834,172.67 289,169.668 290,172.584 291.167,171.667 292,172.75 294.084,166.916 
			295.834,172.5 297.834,168.584 299.834,172.416 302.25,163.916 303.584,170.916 305.584,167.5 308.084,171.916 310.084,165.584 
			313.334,175 312.074,175 		"/>
		<polygon fill="#80AD12" points="313.717,169.313 314.789,174.48 317.102,167.959 318.752,172.334 319.412,171.22 320.981,172.746 
			322.715,165.729 324.201,172.912 325.191,169.313 326.926,172.912 328.082,167.793 329.814,172.912 331.053,170.105 
			332.457,172.912 334.521,166.473 336.172,172.994 337.74,169.313 338.731,172.829 340.3,171.014 342.446,173.16 343.85,166.225 
			346.492,174.48 312.334,175 		"/>
		<polygon fill="#80AD12" points="345,175 346.846,165.912 348.417,171.666 349.167,163.625 351.167,172.896 352.334,168.781 
			353.75,172.932 355.417,165.758 356.834,172.67 358,169.668 359,172.584 360.167,171.667 361,172.75 363.084,166.916 
			364.834,172.5 365.834,169.584 368.834,172.416 371.25,163.916 372.584,170.916 374.584,167.5 377.084,171.916 379.084,165.584 
			382.334,175 381.074,175 		"/>
		<polygon fill="#80AD12" points="382.717,169.313 383.789,174.48 386.102,167.959 387.752,172.334 388.412,171.22 389.981,172.746 
			391.715,165.729 393.201,172.912 394.191,169.313 395.926,172.912 397.082,167.793 398.814,172.912 400.053,170.105 
			401.457,172.912 403.521,166.473 405.172,172.994 406.74,169.313 407.731,172.829 409.3,171.014 411.446,173.16 412.85,166.225 
			415.492,174.48 381.334,175 		"/>
		<polygon fill="#80AD12" points="414,175 415.846,165.912 417.417,171.666 418.167,163.625 420.167,172.896 421.334,168.781 
			422.75,172.932 424.417,165.758 425.834,172.67 427,169.668 428,172.584 429.167,171.667 430,172.75 432.084,166.916 
			433.834,172.5 434.834,169.584 437.834,172.416 440.25,163.916 441.584,170.916 443.584,167.5 446.084,171.916 448.084,165.584 
			451.334,175 450.074,175 		"/>
		<polygon fill="#80AD12" points="451.717,169.313 452.789,174.48 455.102,167.959 456.752,172.334 457.412,171.22 458.981,172.746 
			460.715,165.729 462.201,172.912 463.191,169.313 464.926,172.912 466.082,167.793 467.814,172.912 469.053,170.105 
			470.457,172.912 472.521,166.473 474.172,172.994 475.74,169.313 476.731,172.829 478.3,171.014 480.446,173.16 481.85,166.225 
			484.492,174.48 450.334,175 		"/>
		<polygon fill="#80AD12" points="483,175 484.846,165.912 486.417,171.666 487.167,163.625 489.167,172.896 490.334,168.781 
			491.75,172.932 493.417,165.758 494.834,172.67 496,169.668 497,172.584 498.167,171.667 499,172.75 501.084,166.916 
			502.834,172.5 503.834,169.584 506.834,172.416 509.25,163.916 510.584,170.916 512.584,167.5 515.084,171.916 517.084,165.584 
			520.334,175 519.074,175 		"/>
		<polygon fill="#80AD12" points="520.717,169.313 521.789,174.48 524.102,167.959 525.752,172.334 526.412,171.22 527.981,172.746 
			529.715,165.729 531.201,172.912 532.191,169.313 533.926,172.912 535.082,167.793 536.814,172.912 538.053,170.105 
			539.457,172.912 541.521,166.473 543.172,172.994 544.74,169.313 545.731,172.829 547.3,171.014 549.446,173.16 550.85,166.225 
			553.492,174.48 519.334,175 		"/>
		<polygon fill="#80AD12" points="552,175 553.846,165.912 555.417,171.666 556.167,163.625 558.167,172.896 559.334,168.781 
			560.75,172.932 562.417,165.758 563.834,172.67 565,169.668 566,172.584 567.167,171.667 568,172.75 570.084,166.916 
			571.834,172.5 572.834,169.584 575.834,172.416 578.25,163.916 579.584,170.916 581.584,167.5 584.084,171.916 586.084,165.584 
			589.334,175 588.074,175 		"/>
		<polygon fill="#80AD12" points="589.717,169.313 590.789,174.48 593.102,167.959 594.752,172.334 595.412,171.22 596.981,172.746 
			598.715,165.729 600.201,172.912 601.191,169.313 602.926,172.912 604.082,167.793 605.814,172.912 607.053,170.105 
			608.457,172.912 610.521,166.473 612.172,172.994 613.74,169.313 614.731,172.829 616.3,171.014 618.446,173.16 619.85,166.225 
			622.492,174.48 588.334,175 		"/>
		<polygon fill="#80AD12" points="621,175 622.846,165.912 624.417,171.666 625.167,163.625 627.167,172.896 628.334,168.781 
			629.75,172.932 631.417,165.758 632.834,172.67 634,169.668 635,172.584 636.167,171.667 637,172.75 639.084,166.916 
			640.834,172.5 641.834,169.584 644.834,172.416 647.25,163.916 648.584,170.916 650.584,167.5 653.084,171.916 655.084,165.584 
			658.334,175 657.074,175 		"/>
		<polygon fill="#80AD12" points="658.717,169.313 659.789,174.48 662.102,167.959 663.752,172.334 664.412,171.22 665.981,172.746 
			667.715,165.729 669.201,172.912 670.191,169.313 671.926,172.912 673.082,167.793 674.814,172.912 676.053,170.105 
			677.457,172.912 679.521,166.473 681.172,172.994 682.74,169.313 683.731,172.829 685.3,171.014 687.446,173.16 688.85,166.225 
			691.492,174.48 657.334,175 		"/>
		<polygon fill="#80AD12" points="690,175 691.846,165.912 693.417,171.666 694.167,163.625 696.167,172.896 697.334,168.781 
			698.75,172.932 700.417,165.758 701.834,172.67 703,169.668 704,172.584 705.167,171.667 706,172.75 708.084,166.916 
			709.834,172.5 710.834,169.584 713.834,172.416 716.25,163.916 717.584,170.916 719.584,167.5 722.084,171.916 724.084,165.584 
			727.334,175 726.074,175 		"/>
		<polygon fill="#80AD12" points="727.717,169.313 728.789,174.48 731.102,167.959 732.752,172.334 733.412,171.22 734.981,172.746 
			736.715,165.729 738.201,172.912 739.191,169.313 740.926,172.912 742.082,167.793 743.814,172.912 745.053,170.105 
			746.457,172.912 748.521,166.473 750.172,172.994 751.74,169.313 752.731,172.829 754.3,171.014 756.446,173.16 757.85,166.225 
			760.492,174.48 726.334,175 		"/>
		<polygon fill="#80AD12" points="800,171.813 797.063,167.563 795.185,172.67 793.084,167.584 791.084,171.916 788.584,169.5 
			786.584,171.916 785.25,165.916 782.834,172.416 780.834,168.584 778.834,172.5 777.084,166.916 775,172.75 774.167,171.667 
			773,172.584 772,169.668 770.834,172.67 769.417,165.758 767.75,172.932 766.334,168.781 765.167,172.896 763.167,163.625 
			762.417,171.666 760.846,165.912 759,175 795.074,175 796.334,175 800,175 		"/>
	</g>
</g>
</svg>
