<?xml version="1.0" encoding="utf-8"?>
<!-- Generator: Adobe Illustrator 16.0.0, SVG Export Plug-In . SVG Version: 6.00 Build 0)  -->
<!DOCTYPE svg PUBLIC "-//W3C//DTD SVG 1.1//EN" "http://www.w3.org/Graphics/SVG/1.1/DTD/svg11.dtd">
<svg version="1.1" id="object" xmlns="http://www.w3.org/2000/svg" xmlns:xlink="http://www.w3.org/1999/xlink" x="0px" y="0px"
	 width="362.68px" height="85.183px" viewBox="0 0 362.68 85.183" enable-background="new 0 0 362.68 85.183" xml:space="preserve">
<g>
	<path fill="#FFFFFF" d="M335.707,34.735c-8.273,0-15.536,4.287-19.716,10.752c-4.179-7.003-11.828-11.696-20.575-11.696
		c-4.915,0-9.486,1.483-13.289,4.025c-1.382-11.91-11.496-21.157-23.778-21.157c-11.747,0-21.513,8.461-23.547,19.623
		c-4.162-7.082-11.85-11.837-20.656-11.837c-6.771,0-12.881,2.816-17.238,7.334C194.013,15.703,179.956,3.5,163.045,3.5
		c-17.384,0-31.751,12.89-34.08,29.633c-4.224-3.73-9.77-6-15.847-6c-3.928,0-7.633,0.953-10.905,2.629
		C97.67,16.069,84.767,6.186,69.547,6.186c-17.17,0-31.4,12.574-33.992,29.017c-2.534-0.911-5.262-1.411-8.111-1.411
		C14.221,33.792,3.5,44.511,3.5,57.737c0,12.548,9.655,22.836,21.941,23.855v0.09h168.531h101.443h40.291
		c12.964,0,23.473-10.508,23.473-23.473S348.671,34.735,335.707,34.735z"/>
	<path fill="none" stroke="#FFFFFF" stroke-width="7" stroke-miterlimit="10" d="M335.707,34.735
		c-8.273,0-15.536,4.287-19.716,10.752c-4.179-7.003-11.828-11.696-20.575-11.696c-4.915,0-9.486,1.483-13.289,4.025
		c-1.382-11.91-11.496-21.157-23.778-21.157c-11.747,0-21.513,8.461-23.547,19.623c-4.162-7.082-11.85-11.837-20.656-11.837
		c-6.771,0-12.881,2.816-17.238,7.334C194.013,15.703,179.956,3.5,163.045,3.5c-17.384,0-31.751,12.89-34.08,29.633
		c-4.224-3.73-9.77-6-15.847-6c-3.928,0-7.633,0.953-10.905,2.629C97.67,16.069,84.767,6.186,69.547,6.186
		c-17.17,0-31.4,12.574-33.992,29.017c-2.534-0.911-5.262-1.411-8.111-1.411C14.221,33.792,3.5,44.511,3.5,57.737
		c0,12.548,9.655,22.836,21.941,23.855v0.09h168.531h101.443h40.291c12.964,0,23.473-10.508,23.473-23.473
		S348.671,34.735,335.707,34.735z"/>
	<path fill="none" stroke="#35D5E5" stroke-width="1.5" stroke-miterlimit="10" d="M335.707,34.735
		c-8.273,0-15.536,4.287-19.716,10.752c-4.179-7.003-11.828-11.696-20.575-11.696c-4.915,0-9.486,1.483-13.289,4.025
		c-1.382-11.91-11.496-21.157-23.778-21.157c-11.747,0-21.513,8.461-23.547,19.623c-4.162-7.082-11.85-11.837-20.656-11.837
		c-6.771,0-12.881,2.816-17.238,7.334C194.013,15.703,179.956,3.5,163.045,3.5c-17.384,0-31.751,12.89-34.08,29.633
		c-4.224-3.73-9.77-6-15.847-6c-3.928,0-7.633,0.953-10.905,2.629C97.67,16.069,84.767,6.186,69.547,6.186
		c-17.17,0-31.4,12.574-33.992,29.017c-2.534-0.911-5.262-1.411-8.111-1.411C14.221,33.792,3.5,44.511,3.5,57.737
		c0,12.548,9.655,22.836,21.941,23.855v0.09h168.531h101.443h40.291c12.964,0,23.473-10.508,23.473-23.473
		S348.671,34.735,335.707,34.735z"/>
</g>
</svg>
