<?xml version="1.0" encoding="utf-8"?>
<!-- Generator: Adobe Illustrator 16.0.0, SVG Export Plug-In . SVG Version: 6.00 Build 0)  -->
<!DOCTYPE svg PUBLIC "-//W3C//DTD SVG 1.1//EN" "http://www.w3.org/Graphics/SVG/1.1/DTD/svg11.dtd">
<svg version="1.1" xmlns="http://www.w3.org/2000/svg" xmlns:xlink="http://www.w3.org/1999/xlink" x="0px" y="0px" width="500px"
	 height="55.875px" viewBox="0 0 500 55.875" enable-background="new 0 0 500 55.875" xml:space="preserve">
<g id="OBJECTS">
	<g>
		<path fill="#BD6417" d="M115.426,55.875c-3.457,0-8.193,0-11.511-5.458C101.17,45.9,100,38.356,100,25.198
			C100,4.286,106.164,0,115.426,0h269.146C393.834,0,400,4.286,400,25.198c0,13.159-1.172,20.702-3.914,25.22
			c-3.318,5.458-8.055,5.458-11.514,5.458H115.426z"/>
		<path fill="#BD6417" stroke="#D7A274" stroke-miterlimit="10" d="M115.426,50.526c18.304,0,250.847,0,269.146,0
			c6.141,0,10.766,0,10.766-25.329c0-19.85-5.666-19.85-10.766-19.85c-18.3,0-250.843,0-269.146,0c-5.096,0-10.764,0-10.764,19.85
			C104.662,50.526,109.285,50.526,115.426,50.526z"/>
		<g opacity="0.6">
			<path fill="#613008" d="M379.945,40.254c-9.229-2.141-18.372-4.682-27.742-5.917c-10.182-1.34-20.598,0.276-30.717,1.648
				c-11.736,1.59-23.45,3.91-35.262,4.589c-11.146,0.642-22.297,1.039-33.462,1.275c-44.633,0.945-89.357-1.334-133.745-6.799
				c-1.372-0.169-1.5,2.278-0.135,2.445c43.69,5.347,87.603,7.479,131.525,6.55c21.778-0.459,43.194-1.935,64.769-5.298
				c11.547-1.799,23.237-3.932,34.906-3.225c10.035,0.61,19.898,3.35,29.749,5.389C380.161,40.982,380.276,40.33,379.945,40.254z"/>
			<path fill="#613008" d="M280.181,31.163c-12.506-2.606-24.678-6.111-37.479-5.911c-13.955,0.219-27.314,5.351-41.147,6.362
				c-26.657,1.944-52.252-10.926-78.854-10.904c-0.088,0-0.101,0.161-0.009,0.164c25.973,0.65,50.749,12.035,76.783,11.687
				c13.735-0.182,27.158-5.021,40.923-5.779c13.546-0.745,26.491,3.25,39.699,6.003C280.992,32.973,281.073,31.349,280.181,31.163z"
				/>
			<path fill="#613008" d="M323.686,29.199c-9.71-2.909-17.47-10.482-25.79-16.526c-5.996-4.36-13.737-8.541-20.96-6.196
				c-3.165,1.029-5.84,4.961-4.58,8.804c1.892,5.741,7.705,6.808,12.42,6.288c0.773-0.084,0.685-1.589-0.099-1.568
				c-4.17,0.117-14.104-1.855-10.381-9.362c3.153-6.352,13.229-2.3,17.437-0.251c11.191,5.444,19.663,16.119,31.832,19.2
				C323.785,29.645,323.907,29.267,323.686,29.199z"/>
			<path fill="#613008" d="M238.941,12.322c-27.51,0.351-60.074,12.569-85.447-4.525c-0.113-0.073-0.221,0.108-0.113,0.187
				c24.889,17.843,58.19,5.887,85.482,5.797C239.683,13.778,239.767,12.311,238.941,12.322z"/>
			<path fill="#613008" d="M367.001,15.046c-0.625,0.24-0.431,1.415,0.205,1.17c2.932-1.12,12.658-1.81,11.344,5.197
				c-1.134,6.018-8.085,4.439-11.552,3.619c-5.041-1.19-11.171-2.842-15.502-6.189c-0.251-0.201-0.528,0.256-0.265,0.459
				c3.595,2.813,8.313,4.14,12.444,5.462c2.695,0.861,8.342,3.235,11.063,1.505C384.786,19.877,374.622,12.129,367.001,15.046z"/>
		</g>
	</g>
	<g>
		<path fill="#BD6417" d="M25.711,55.875c-5.762,0-13.657,0-19.187-5.458C1.951,45.9,0,38.356,0,25.198C0,4.286,10.273,0,25.711,0
			h448.576C489.724,0,500,4.286,500,25.198c0,13.159-1.953,20.702-6.523,25.22c-5.53,5.458-13.426,5.458-19.189,5.458H25.711z"/>
		<path fill="#BD6417" stroke="#D7A274" stroke-miterlimit="10" d="M25.711,50.526c30.504,0,418.077,0,448.576,0
			c10.235,0,17.942,0,17.942-25.329c0-19.85-9.444-19.85-17.942-19.85c-30.499,0-418.072,0-448.576,0
			c-8.494,0-17.941,0-17.941,19.85C7.77,50.526,15.477,50.526,25.711,50.526z"/>
		<g opacity="0.6">
			<path fill="#613008" d="M466.574,40.254c-15.38-2.141-30.618-4.682-46.234-5.917c-16.972-1.34-34.332,0.276-51.197,1.648
				c-19.561,1.59-39.083,3.91-58.769,4.589c-18.577,0.642-37.161,1.039-55.769,1.275c-74.389,0.945-148.931-1.334-222.909-6.799
				c-2.286-0.169-2.499,2.278-0.224,2.445c72.815,5.347,146.004,7.479,219.209,6.55c36.295-0.459,71.99-1.935,107.947-5.298
				c19.244-1.799,38.727-3.932,58.177-3.225c16.726,0.61,33.163,3.35,49.581,5.389C466.936,40.982,467.128,40.33,466.574,40.254z"/>
			<path fill="#613008" d="M300.302,31.163c-20.845-2.606-41.131-6.111-62.467-5.911c-23.257,0.219-45.522,5.351-68.578,6.362
				C124.827,33.558,82.17,20.688,37.834,20.71c-0.147,0-0.168,0.161-0.014,0.164c43.285,0.65,84.581,12.035,127.971,11.687
				c22.892-0.182,45.264-5.021,68.204-5.779c22.577-0.745,44.152,3.25,66.165,6.003C301.652,32.973,301.789,31.349,300.302,31.163z"
				/>
			<path fill="#613008" d="M372.81,29.199c-16.186-2.909-29.116-10.482-42.983-16.526c-9.993-4.36-22.895-8.541-34.934-6.196
				c-5.275,1.029-9.734,4.961-7.635,8.804c3.153,5.741,12.842,6.808,20.702,6.288c1.288-0.084,1.141-1.589-0.166-1.568
				c-6.95,0.117-23.506-1.855-17.302-9.362c5.258-6.352,22.05-2.3,29.062-0.251c18.652,5.444,32.771,16.119,53.055,19.2
				C372.977,29.645,373.18,29.267,372.81,29.199z"/>
			<path fill="#613008" d="M231.57,12.322C185.72,12.673,131.445,24.891,89.158,7.797c-0.191-0.073-0.369,0.108-0.191,0.187
				c41.482,17.843,96.986,5.887,142.471,5.797C232.804,13.778,232.945,12.311,231.57,12.322z"/>
			<path fill="#613008" d="M445.001,15.046c-1.04,0.24-0.716,1.415,0.343,1.17c4.887-1.12,21.098-1.81,18.905,5.197
				c-1.889,6.018-13.476,4.439-19.252,3.619c-8.403-1.19-18.619-2.842-25.837-6.189c-0.419-0.201-0.88,0.256-0.441,0.459
				c5.99,2.813,13.856,4.14,20.742,5.462c4.492,0.861,13.901,3.235,18.438,1.505C474.645,19.877,457.704,12.129,445.001,15.046z"/>
		</g>
	</g>
</g>
<g id="DESIGNED_BY_FREEPIK">
</g>
</svg>
