<?xml version="1.0" encoding="utf-8"?>
<!-- Generator: Adobe Illustrator 16.0.0, SVG Export Plug-In . SVG Version: 6.00 Build 0)  -->
<!DOCTYPE svg PUBLIC "-//W3C//DTD SVG 1.1//EN" "http://www.w3.org/Graphics/SVG/1.1/DTD/svg11.dtd">
<svg version="1.1" xmlns="http://www.w3.org/2000/svg" xmlns:xlink="http://www.w3.org/1999/xlink" x="0px" y="0px" width="270px"
	 height="55.875px" viewBox="0 0 270 55.875" enable-background="new 0 0 270 55.875" xml:space="preserve">
<g id="OBJECTS">
	<g>
		<path fill="#BD6417" d="M13.881,55.875c-3.11,0-7.374,0-10.355-5.458C1.054,45.9,0,38.356,0,25.198C0,4.286,5.548,0,13.881,0
			h242.235C264.449,0,270,4.286,270,25.198c0,13.159-1.055,20.702-3.524,25.22c-2.982,5.458-7.247,5.458-10.359,5.458H13.881z"/>
		<path fill="#BD6417" stroke="#D7A274" stroke-miterlimit="10" d="M13.881,50.526c16.476,0,225.764,0,242.235,0
			c5.527,0,9.688,0,9.688-25.329c0-19.85-5.103-19.85-9.688-19.85c-16.472,0-225.76,0-242.235,0c-4.582,0-9.686,0-9.686,19.85
			C4.195,50.526,8.355,50.526,13.881,50.526z"/>
		<g opacity="0.6">
			<path fill="#613008" d="M251.949,40.254c-8.305-2.141-16.535-4.682-24.968-5.917c-9.162-1.34-18.538,0.276-27.645,1.648
				c-10.563,1.59-21.104,3.91-31.737,4.589c-10.031,0.642-20.066,1.039-30.11,1.275c-40.172,0.945-80.423-1.334-120.375-6.799
				c-1.231-0.169-1.35,2.278-0.118,2.445c39.317,5.347,78.844,7.479,118.374,6.55c19.596-0.459,38.871-1.935,58.292-5.298
				c10.388-1.799,20.91-3.932,31.411-3.225c9.032,0.61,17.906,3.35,26.776,5.389C252.146,40.982,252.246,40.33,251.949,40.254z"/>
			<path fill="#613008" d="M162.164,31.163c-11.255-2.606-22.212-6.111-33.732-5.911c-12.559,0.219-24.584,5.351-37.037,6.362
				c-23.99,1.944-47.022-10.926-70.962-10.904c-0.081,0-0.092,0.161-0.008,0.164c23.374,0.65,45.669,12.035,69.099,11.687
				c12.369-0.182,24.448-5.021,36.835-5.779c12.193-0.745,23.839,3.25,35.728,6.003C162.893,32.973,162.966,31.349,162.164,31.163z"
				/>
			<path fill="#613008" d="M201.313,29.199c-8.732-2.909-15.72-10.482-23.205-16.526c-5.397-4.36-12.368-8.541-18.866-6.196
				c-2.848,1.029-5.256,4.961-4.12,8.804c1.699,5.741,6.93,6.808,11.174,6.288c0.701-0.084,0.617-1.589-0.083-1.568
				c-3.757,0.117-12.696-1.855-9.347-9.362c2.836-6.352,11.907-2.3,15.695-0.251c10.067,5.444,17.692,16.119,28.646,19.2
				C201.405,29.645,201.519,29.267,201.313,29.199z"/>
			<path fill="#613008" d="M125.05,12.322c-24.759,0.351-54.068,12.569-76.907-4.525c-0.099-0.073-0.197,0.108-0.099,0.187
				c22.399,17.843,52.369,5.887,76.933,5.797C125.713,13.778,125.79,12.311,125.05,12.322z"/>
			<path fill="#613008" d="M240.304,15.046c-0.563,0.24-0.392,1.415,0.183,1.17c2.638-1.12,11.394-1.81,10.208,5.197
				c-1.021,6.018-7.273,4.439-10.395,3.619c-4.537-1.19-10.054-2.842-13.95-6.189c-0.231-0.201-0.48,0.256-0.245,0.459
				c3.237,2.813,7.484,4.14,11.204,5.462c2.426,0.861,7.511,3.235,9.956,1.505C256.308,19.877,247.162,12.129,240.304,15.046z"/>
		</g>
	</g>
</g>
<g id="DESIGNED_BY_FREEPIK">
</g>
</svg>
