<?xml version="1.0" encoding="utf-8"?>
<!-- Generator: Adobe Illustrator 16.0.0, SVG Export Plug-In . SVG Version: 6.00 Build 0)  -->
<!DOCTYPE svg PUBLIC "-//W3C//DTD SVG 1.1//EN" "http://www.w3.org/Graphics/SVG/1.1/DTD/svg11.dtd">
<svg version="1.1" xmlns="http://www.w3.org/2000/svg" xmlns:xlink="http://www.w3.org/1999/xlink" x="0px" y="0px" width="345px"
	 height="55.875px" viewBox="0 0 345 55.875" enable-background="new 0 0 345 55.875" xml:space="preserve">
<g id="OBJECTS">
	<g>
		<path fill="#BD6417" d="M37.926,55.875c-3.457,0-8.193,0-11.511-5.458C23.67,45.9,22.5,38.356,22.5,25.198
			C22.5,4.286,28.664,0,37.926,0h269.146c9.262,0,15.428,4.286,15.428,25.198c0,13.159-1.172,20.702-3.914,25.22
			c-3.318,5.458-8.055,5.458-11.514,5.458H37.926z"/>
		<path fill="#BD6417" stroke="#D7A274" stroke-miterlimit="10" d="M37.926,50.526c18.304,0,250.847,0,269.146,0
			c6.141,0,10.766,0,10.766-25.329c0-19.85-5.666-19.85-10.766-19.85c-18.3,0-250.843,0-269.146,0c-5.096,0-10.764,0-10.764,19.85
			C27.162,50.526,31.785,50.526,37.926,50.526z"/>
		<g opacity="0.6">
			<path fill="#613008" d="M302.445,40.254c-9.229-2.141-18.372-4.682-27.742-5.917c-10.182-1.34-20.598,0.276-30.717,1.648
				c-11.736,1.59-23.45,3.91-35.262,4.589c-11.146,0.642-22.297,1.039-33.462,1.275c-44.633,0.945-89.357-1.334-133.745-6.799
				c-1.372-0.169-1.5,2.278-0.135,2.445c43.69,5.347,87.603,7.479,131.525,6.55c21.778-0.459,43.194-1.935,64.769-5.298
				c11.547-1.799,23.237-3.932,34.906-3.225c10.035,0.61,19.898,3.35,29.749,5.389C302.661,40.982,302.776,40.33,302.445,40.254z"/>
			<path fill="#613008" d="M202.681,31.163c-12.506-2.606-24.678-6.111-37.479-5.911c-13.955,0.219-27.314,5.351-41.147,6.362
				C97.396,33.558,71.802,20.688,45.2,20.71c-0.088,0-0.101,0.161-0.009,0.164c25.973,0.65,50.749,12.035,76.783,11.687
				c13.735-0.182,27.158-5.021,40.923-5.779c13.546-0.745,26.491,3.25,39.699,6.003C203.492,32.973,203.573,31.349,202.681,31.163z"
				/>
			<path fill="#613008" d="M246.186,29.199c-9.71-2.909-17.47-10.482-25.79-16.526c-5.996-4.36-13.737-8.541-20.96-6.196
				c-3.165,1.029-5.84,4.961-4.58,8.804c1.892,5.741,7.705,6.808,12.42,6.288c0.773-0.084,0.685-1.589-0.099-1.568
				c-4.17,0.117-14.104-1.855-10.381-9.362c3.153-6.352,13.229-2.3,17.437-0.251c11.191,5.444,19.663,16.119,31.832,19.2
				C246.285,29.645,246.407,29.267,246.186,29.199z"/>
			<path fill="#613008" d="M161.441,12.322c-27.51,0.351-60.074,12.569-85.447-4.525c-0.113-0.073-0.221,0.108-0.113,0.187
				c24.889,17.843,58.19,5.887,85.482,5.797C162.183,13.778,162.267,12.311,161.441,12.322z"/>
			<path fill="#613008" d="M289.501,15.046c-0.625,0.24-0.431,1.415,0.205,1.17c2.932-1.12,12.658-1.81,11.344,5.197
				c-1.134,6.018-8.085,4.439-11.552,3.619c-5.041-1.19-11.171-2.842-15.502-6.189c-0.251-0.201-0.528,0.256-0.265,0.459
				c3.595,2.813,8.313,4.14,12.444,5.462c2.695,0.861,8.342,3.235,11.063,1.505C307.286,19.877,297.122,12.129,289.501,15.046z"/>
		</g>
	</g>
	<g>
		<path fill="#BD6417" d="M17.74,55.875c-3.976,0-9.423,0-13.238-5.458C1.346,45.9,0,38.356,0,25.198C0,4.286,7.089,0,17.74,0
			h309.518C337.909,0,345,4.286,345,25.198c0,13.159-1.348,20.702-4.501,25.22c-3.816,5.458-9.264,5.458-13.241,5.458H17.74z"/>
		<path fill="#BD6417" stroke="#D7A274" stroke-miterlimit="10" d="M17.74,50.526c21.049,0,288.474,0,309.518,0
			c7.063,0,12.381,0,12.381-25.329c0-19.85-6.517-19.85-12.381-19.85c-21.044,0-288.469,0-309.518,0c-5.86,0-12.379,0-12.379,19.85
			C5.361,50.526,10.679,50.526,17.74,50.526z"/>
		<g opacity="0.6">
			<path fill="#613008" d="M321.937,40.254c-10.612-2.141-21.127-4.682-31.902-5.917c-11.71-1.34-23.688,0.276-35.325,1.648
				c-13.497,1.59-26.968,3.91-40.551,4.589c-12.818,0.642-25.642,1.039-38.481,1.275C124.35,42.795,72.916,40.516,21.87,35.051
				c-1.578-0.169-1.725,2.278-0.154,2.445c50.243,5.347,100.742,7.479,151.254,6.55c25.045-0.459,49.673-1.935,74.483-5.298
				c13.279-1.799,26.723-3.932,40.143-3.225c11.54,0.61,22.883,3.35,34.211,5.389C322.186,40.982,322.318,40.33,321.937,40.254z"/>
			<path fill="#613008" d="M207.208,31.163c-14.382-2.606-28.38-6.111-43.102-5.911c-16.048,0.219-31.411,5.351-47.319,6.362
				c-30.656,1.944-60.09-10.926-90.682-10.904c-0.102,0-0.116,0.161-0.01,0.164c29.867,0.65,58.361,12.035,88.3,11.687
				c15.796-0.182,31.232-5.021,47.062-5.779c15.578-0.745,30.465,3.25,45.654,6.003C208.141,32.973,208.234,31.349,207.208,31.163z"
				/>
			<path fill="#613008" d="M257.238,29.199c-11.167-2.909-20.09-10.482-29.658-16.526c-6.896-4.36-15.798-8.541-24.104-6.196
				c-3.64,1.029-6.716,4.961-5.268,8.804c2.176,5.741,8.861,6.808,14.284,6.288c0.889-0.084,0.787-1.589-0.114-1.568
				c-4.795,0.117-16.219-1.855-11.938-9.362c3.627-6.352,15.214-2.3,20.052-0.251c12.87,5.444,22.612,16.119,36.607,19.2
				C257.354,29.645,257.493,29.267,257.238,29.199z"/>
			<path fill="#613008" d="M159.783,12.322c-31.637,0.351-69.086,12.569-98.265-4.525c-0.131-0.073-0.254,0.108-0.131,0.187
				c28.622,17.843,66.919,5.887,98.305,5.797C160.635,13.778,160.731,12.311,159.783,12.322z"/>
			<path fill="#613008" d="M307.051,15.046c-0.719,0.24-0.494,1.415,0.236,1.17c3.371-1.12,14.557-1.81,13.045,5.197
				c-1.304,6.018-9.298,4.439-13.284,3.619c-5.798-1.19-12.847-2.842-17.827-6.189c-0.289-0.201-0.607,0.256-0.305,0.459
				c4.134,2.813,9.561,4.14,14.312,5.462c3.1,0.861,9.593,3.235,12.723,1.505C327.504,19.877,315.815,12.129,307.051,15.046z"/>
		</g>
	</g>
</g>
<g id="DESIGNED_BY_FREEPIK">
</g>
</svg>
