<?xml version="1.0" encoding="utf-8"?>
<!-- Generator: Adobe Illustrator 16.0.0, SVG Export Plug-In . SVG Version: 6.00 Build 0)  -->
<!DOCTYPE svg PUBLIC "-//W3C//DTD SVG 1.1//EN" "http://www.w3.org/Graphics/SVG/1.1/DTD/svg11.dtd">
<svg version="1.1" xmlns="http://www.w3.org/2000/svg" xmlns:xlink="http://www.w3.org/1999/xlink" x="0px" y="0px" width="204px"
	 height="55.875px" viewBox="0 0 204 55.875" enable-background="new 0 0 204 55.875" xml:space="preserve">
<g id="OBJECTS">
	<g>
		<path fill="#BD6417" d="M10.489,55.875c-2.351,0-5.571,0-7.827-5.458C0.796,45.9,0,38.356,0,25.198C0,4.286,4.191,0,10.489,0
			h183.02C199.807,0,204,4.286,204,25.198c0,13.159-0.797,20.702-2.661,25.22c-2.257,5.458-5.478,5.458-7.83,5.458H10.489z"/>
		<path fill="#BD6417" stroke="#D7A274" stroke-miterlimit="10" d="M10.489,50.526c12.446,0,170.576,0,183.02,0
			c4.176,0,7.321,0,7.321-25.329c0-19.85-3.854-19.85-7.321-19.85c-12.443,0-170.573,0-183.02,0c-3.465,0-7.319,0-7.319,19.85
			C3.17,50.526,6.314,50.526,10.489,50.526z"/>
		<g opacity="0.6">
			<path fill="#613008" d="M190.363,40.254c-6.276-2.141-12.494-4.682-18.865-5.917c-6.924-1.34-14.006,0.276-20.888,1.648
				c-7.98,1.59-15.945,3.91-23.978,4.589c-7.579,0.642-15.161,1.039-22.754,1.275c-30.351,0.945-60.764-1.334-90.947-6.799
				c-0.933-0.169-1.02,2.278-0.092,2.445c29.71,5.347,59.57,7.479,89.438,6.55c14.81-0.459,29.372-1.935,44.043-5.298
				c7.852-1.799,15.802-3.932,23.736-3.225c6.823,0.61,13.53,3.35,20.229,5.389C190.509,40.982,190.588,40.33,190.363,40.254z"/>
			<path fill="#613008" d="M122.523,31.163c-8.505-2.606-16.781-6.111-25.486-5.911c-9.49,0.219-18.574,5.351-27.981,6.362
				C50.93,33.558,33.524,20.688,15.436,20.71c-0.06,0-0.067,0.161-0.006,0.164c17.662,0.65,34.51,12.035,52.213,11.687
				c9.341-0.182,18.468-5.021,27.827-5.779c9.212-0.745,18.015,3.25,26.996,6.003C123.075,32.973,123.13,31.349,122.523,31.163z"/>
			<path fill="#613008" d="M152.105,29.199c-6.602-2.909-11.879-10.482-17.537-16.526c-4.076-4.36-9.341-8.541-14.252-6.196
				c-2.152,1.029-3.972,4.961-3.114,8.804c1.286,5.741,5.239,6.808,8.445,6.288c0.526-0.084,0.465-1.589-0.066-1.568
				c-2.837,0.117-9.592-1.855-7.06-9.362c2.144-6.352,8.996-2.3,11.856-0.251c7.61,5.444,13.371,16.119,21.646,19.2
				C152.174,29.645,152.257,29.267,152.105,29.199z"/>
			<path fill="#613008" d="M94.48,12.322C75.773,12.673,53.63,24.891,36.376,7.797c-0.077-0.073-0.149,0.108-0.077,0.187
				c16.924,17.843,39.569,5.887,58.128,5.797C94.984,13.778,95.041,12.311,94.48,12.322z"/>
			<path fill="#613008" d="M181.562,15.046c-0.426,0.24-0.294,1.415,0.139,1.17c1.993-1.12,8.607-1.81,7.714,5.197
				c-0.771,6.018-5.497,4.439-7.855,3.619c-3.428-1.19-7.596-2.842-10.541-6.189c-0.171-0.201-0.359,0.256-0.181,0.459
				c2.444,2.813,5.653,4.14,8.463,5.462c1.832,0.861,5.673,3.235,7.523,1.505C193.654,19.877,186.743,12.129,181.562,15.046z"/>
		</g>
	</g>
</g>
<g id="DESIGNED_BY_FREEPIK">
</g>
</svg>
