<?xml version="1.0" encoding="utf-8"?>
<!-- Generator: Adobe Illustrator 16.0.0, SVG Export Plug-In . SVG Version: 6.00 Build 0)  -->
<!DOCTYPE svg PUBLIC "-//W3C//DTD SVG 1.1//EN" "http://www.w3.org/Graphics/SVG/1.1/DTD/svg11.dtd">
<svg version="1.1" xmlns="http://www.w3.org/2000/svg" xmlns:xlink="http://www.w3.org/1999/xlink" x="0px" y="0px" width="450px"
	 height="55.875px" viewBox="0 0 450 55.875" enable-background="new 0 0 450 55.875" xml:space="preserve">
<g id="OBJECTS">
	<g>
		<path fill="#BD6417" d="M90.426,55.875c-3.457,0-8.193,0-11.511-5.458C76.17,45.9,75,38.356,75,25.198C75,4.286,81.164,0,90.426,0
			h269.146C368.834,0,375,4.286,375,25.198c0,13.159-1.172,20.702-3.914,25.22c-3.318,5.458-8.055,5.458-11.514,5.458H90.426z"/>
		<path fill="#BD6417" stroke="#D7A274" stroke-miterlimit="10" d="M90.426,50.526c18.304,0,250.847,0,269.146,0
			c6.141,0,10.766,0,10.766-25.329c0-19.85-5.666-19.85-10.766-19.85c-18.3,0-250.843,0-269.146,0c-5.096,0-10.764,0-10.764,19.85
			C79.662,50.526,84.285,50.526,90.426,50.526z"/>
		<g opacity="0.6">
			<path fill="#613008" d="M354.945,40.254c-9.229-2.141-18.372-4.682-27.742-5.917c-10.182-1.34-20.598,0.276-30.717,1.648
				c-11.736,1.59-23.45,3.91-35.262,4.589c-11.146,0.642-22.297,1.039-33.462,1.275c-44.633,0.945-89.357-1.334-133.745-6.799
				c-1.372-0.169-1.5,2.278-0.135,2.445c43.69,5.347,87.603,7.479,131.525,6.55c21.778-0.459,43.194-1.935,64.769-5.298
				c11.547-1.799,23.237-3.932,34.906-3.225c10.035,0.61,19.898,3.35,29.749,5.389C355.161,40.982,355.276,40.33,354.945,40.254z"/>
			<path fill="#613008" d="M255.181,31.163c-12.506-2.606-24.678-6.111-37.479-5.911c-13.955,0.219-27.314,5.351-41.147,6.362
				C149.896,33.558,124.302,20.688,97.7,20.71c-0.088,0-0.101,0.161-0.009,0.164c25.973,0.65,50.749,12.035,76.783,11.687
				c13.735-0.182,27.158-5.021,40.923-5.779c13.546-0.745,26.491,3.25,39.699,6.003C255.992,32.973,256.073,31.349,255.181,31.163z"
				/>
			<path fill="#613008" d="M298.686,29.199c-9.71-2.909-17.47-10.482-25.79-16.526c-5.996-4.36-13.737-8.541-20.96-6.196
				c-3.165,1.029-5.84,4.961-4.58,8.804c1.892,5.741,7.705,6.808,12.42,6.288c0.773-0.084,0.685-1.589-0.099-1.568
				c-4.17,0.117-14.104-1.855-10.381-9.362c3.153-6.352,13.229-2.3,17.437-0.251c11.191,5.444,19.663,16.119,31.832,19.2
				C298.785,29.645,298.907,29.267,298.686,29.199z"/>
			<path fill="#613008" d="M213.941,12.322c-27.51,0.351-60.074,12.569-85.447-4.525c-0.113-0.073-0.221,0.108-0.113,0.187
				c24.889,17.843,58.19,5.887,85.482,5.797C214.683,13.778,214.767,12.311,213.941,12.322z"/>
			<path fill="#613008" d="M342.001,15.046c-0.625,0.24-0.431,1.415,0.205,1.17c2.932-1.12,12.658-1.81,11.344,5.197
				c-1.134,6.018-8.085,4.439-11.552,3.619c-5.041-1.19-11.171-2.842-15.502-6.189c-0.251-0.201-0.528,0.256-0.265,0.459
				c3.595,2.813,8.313,4.14,12.444,5.462c2.695,0.861,8.342,3.235,11.063,1.505C359.786,19.877,349.622,12.129,342.001,15.046z"/>
		</g>
	</g>
	<g>
		<path fill="#BD6417" d="M23.14,55.875c-5.186,0-12.291,0-17.268-5.458C1.756,45.9,0,38.356,0,25.198C0,4.286,9.246,0,23.14,0
			h403.719C440.751,0,450,4.286,450,25.198c0,13.159-1.758,20.702-5.871,25.22c-4.978,5.458-12.083,5.458-17.271,5.458H23.14z"/>
		<path fill="#BD6417" stroke="#D7A274" stroke-miterlimit="10" d="M23.14,50.526c27.454,0,376.27,0,403.719,0
			c9.212,0,16.148,0,16.148-25.329c0-19.85-8.5-19.85-16.148-19.85c-27.449,0-376.265,0-403.719,0c-7.645,0-16.146,0-16.146,19.85
			C6.993,50.526,13.929,50.526,23.14,50.526z"/>
		<g opacity="0.6">
			<path fill="#613008" d="M419.917,40.254c-13.842-2.141-27.557-4.682-41.611-5.917c-15.274-1.34-30.898,0.276-46.077,1.648
				c-17.604,1.59-35.175,3.91-52.892,4.589c-16.72,0.642-33.445,1.039-50.192,1.275c-66.949,0.945-134.037-1.334-200.618-6.799
				c-2.058-0.169-2.249,2.278-0.201,2.445c65.534,5.347,131.403,7.479,197.288,6.55c32.666-0.459,64.791-1.935,97.152-5.298
				c17.32-1.799,34.854-3.932,52.359-3.225c15.053,0.61,29.847,3.35,44.623,5.389C420.242,40.982,420.415,40.33,419.917,40.254z"/>
			<path fill="#613008" d="M270.271,31.163c-18.76-2.606-37.018-6.111-56.22-5.911c-20.932,0.219-40.971,5.351-61.721,6.362
				c-39.986,1.944-78.378-10.926-118.28-10.904c-0.133,0-0.151,0.161-0.013,0.164c38.957,0.65,76.123,12.035,115.174,11.687
				c20.603-0.182,40.737-5.021,61.384-5.779c20.319-0.745,39.737,3.25,59.549,6.003C271.487,32.973,271.61,31.349,270.271,31.163z"
				/>
			<path fill="#613008" d="M335.528,29.199c-14.566-2.909-26.204-10.482-38.685-16.526c-8.994-4.36-20.605-8.541-31.44-6.196
				c-4.748,1.029-8.761,4.961-6.871,8.804c2.838,5.741,11.558,6.808,18.632,6.288c1.159-0.084,1.026-1.589-0.149-1.568
				c-6.255,0.117-21.155-1.855-15.571-9.362c4.731-6.352,19.845-2.3,26.155-0.251c16.787,5.444,29.494,16.119,47.749,19.2
				C335.679,29.645,335.861,29.267,335.528,29.199z"/>
			<path fill="#613008" d="M208.413,12.322c-41.266,0.351-90.112,12.569-128.171-4.525C80.07,7.724,79.91,7.905,80.07,7.983
				c37.334,17.843,87.287,5.887,128.224,5.797C209.523,13.778,209.65,12.311,208.413,12.322z"/>
			<path fill="#613008" d="M400.501,15.046c-0.937,0.24-0.645,1.415,0.309,1.17c4.397-1.12,18.987-1.81,17.015,5.197
				c-1.7,6.018-12.128,4.439-17.327,3.619c-7.563-1.19-16.757-2.842-23.253-6.189c-0.377-0.201-0.792,0.256-0.397,0.459
				c5.392,2.813,12.471,4.14,18.668,5.462c4.043,0.861,12.512,3.235,16.595,1.505C427.18,19.877,411.934,12.129,400.501,15.046z"/>
		</g>
	</g>
</g>
<g id="DESIGNED_BY_FREEPIK">
</g>
</svg>
