<?xml version="1.0" encoding="utf-8"?>
<!-- Generator: Adobe Illustrator 16.0.0, SVG Export Plug-In . SVG Version: 6.00 Build 0)  -->
<!DOCTYPE svg PUBLIC "-//W3C//DTD SVG 1.1//EN" "http://www.w3.org/Graphics/SVG/1.1/DTD/svg11.dtd">
<svg version="1.1" xmlns="http://www.w3.org/2000/svg" xmlns:xlink="http://www.w3.org/1999/xlink" x="0px" y="0px"
	 width="179.872px" height="50px" viewBox="0 0 179.872 50" enable-background="new 0 0 179.872 50" xml:space="preserve">
<g id="OBJECTS">
	<g>
		<path fill="#BD6417" d="M9.247,50c-2.072,0-4.912,0-6.899-4.884C0.702,41.073,0,34.323,0,22.548C0,3.835,3.696,0,9.247,0h161.376
			c5.551,0,9.249,3.835,9.249,22.548c0,11.775-0.703,18.525-2.349,22.568C175.537,50,172.696,50,170.623,50H9.247z"/>
		<path fill="#BD6417" stroke="#D7A274" stroke-miterlimit="10" d="M9.247,45.213c10.976,0,150.402,0,161.376,0
			c3.682,0,6.454,0,6.454-22.665c0-17.763-3.399-17.763-6.454-17.763c-10.974,0-150.4,0-161.376,0c-3.053,0-6.452,0-6.452,17.763
			C2.795,45.213,5.566,45.213,9.247,45.213z"/>
		<g opacity="0.6">
			<path fill="#613008" d="M167.848,36.021c-5.533-1.916-11.017-4.189-16.635-5.295c-6.104-1.199-12.35,0.247-18.416,1.475
				c-7.037,1.423-14.06,3.499-21.144,4.107c-6.683,0.574-13.369,0.929-20.059,1.141c-26.763,0.846-53.578-1.193-80.193-6.083
				c-0.82-0.152-0.899,2.039-0.079,2.188c26.193,4.785,52.525,6.693,78.859,5.861c13.056-0.411,25.896-1.731,38.835-4.741
				c6.92-1.609,13.93-3.518,20.926-2.885c6.017,0.546,11.929,2.998,17.838,4.822C167.977,36.672,168.045,36.089,167.848,36.021z"/>
			<path fill="#613008" d="M108.033,27.886c-7.499-2.333-14.799-5.468-22.474-5.29c-8.366,0.196-16.377,4.789-24.674,5.693
				c-15.982,1.74-31.325-9.777-47.273-9.757c-0.056,0-0.062,0.144-0.006,0.147c15.571,0.582,30.425,10.769,46.033,10.458
				c8.24-0.163,16.287-4.493,24.539-5.171c8.123-0.666,15.882,2.908,23.802,5.372C108.518,29.505,108.566,28.053,108.033,27.886z"/>
			<path fill="#613008" d="M134.113,26.128c-5.817-2.603-10.472-9.38-15.459-14.789c-3.596-3.902-8.239-7.643-12.568-5.544
				c-1.897,0.921-3.502,4.439-2.745,7.878c1.132,5.137,4.616,6.092,7.444,5.627c0.466-0.076,0.411-1.422-0.056-1.403
				c-2.503,0.104-8.458-1.66-6.227-8.377c1.89-5.684,7.932-2.059,10.456-0.225c6.707,4.872,11.786,14.424,19.084,17.181
				C134.175,26.527,134.249,26.189,134.113,26.128z"/>
			<path fill="#613008" d="M83.308,11.026C66.813,11.34,47.286,22.274,32.073,6.977c-0.067-0.065-0.132,0.097-0.067,0.167
				c14.923,15.966,34.889,5.268,51.253,5.187C83.749,12.329,83.8,11.017,83.308,11.026z"/>
			<path fill="#613008" d="M160.089,13.464c-0.376,0.214-0.261,1.266,0.122,1.047c1.756-1.002,7.59-1.62,6.799,4.65
				c-0.68,5.385-4.844,3.972-6.925,3.238c-3.022-1.065-6.697-2.543-9.293-5.538c-0.154-0.18-0.319,0.229-0.164,0.411
				c2.157,2.517,4.987,3.705,7.465,4.888c1.616,0.771,5.004,2.895,6.633,1.347C170.75,17.787,164.657,10.854,160.089,13.464z"/>
		</g>
	</g>
</g>
<g id="DESIGNED_BY_FREEPIK">
</g>
</svg>
