<?xml version="1.0" encoding="utf-8"?>
<!-- Generator: Adobe Illustrator 16.0.0, SVG Export Plug-In . SVG Version: 6.00 Build 0)  -->
<!DOCTYPE svg PUBLIC "-//W3C//DTD SVG 1.1//EN" "http://www.w3.org/Graphics/SVG/1.1/DTD/svg11.dtd">
<svg version="1.1" xmlns="http://www.w3.org/2000/svg" xmlns:xlink="http://www.w3.org/1999/xlink" x="0px" y="0px" width="400px"
	 height="55.875px" viewBox="0 0 400 55.875" enable-background="new 0 0 400 55.875" xml:space="preserve">
<g id="OBJECTS">
	<g>
		<path fill="#BD6417" d="M65.426,55.875c-3.457,0-8.193,0-11.511-5.458C51.17,45.9,50,38.356,50,25.198C50,4.286,56.164,0,65.426,0
			h269.146C343.834,0,350,4.286,350,25.198c0,13.159-1.172,20.702-3.914,25.22c-3.318,5.458-8.055,5.458-11.514,5.458H65.426z"/>
		<path fill="#BD6417" stroke="#D7A274" stroke-miterlimit="10" d="M65.426,50.526c18.304,0,250.847,0,269.146,0
			c6.141,0,10.766,0,10.766-25.329c0-19.85-5.666-19.85-10.766-19.85c-18.3,0-250.843,0-269.146,0c-5.096,0-10.764,0-10.764,19.85
			C54.662,50.526,59.285,50.526,65.426,50.526z"/>
		<g opacity="0.6">
			<path fill="#613008" d="M329.945,40.254c-9.229-2.141-18.372-4.682-27.742-5.917c-10.182-1.34-20.598,0.276-30.717,1.648
				c-11.736,1.59-23.45,3.91-35.262,4.589c-11.146,0.642-22.297,1.039-33.462,1.275c-44.633,0.945-89.357-1.334-133.745-6.799
				c-1.372-0.169-1.5,2.278-0.135,2.445c43.69,5.347,87.603,7.479,131.525,6.55c21.778-0.459,43.194-1.935,64.769-5.298
				c11.547-1.799,23.237-3.932,34.906-3.225c10.035,0.61,19.898,3.35,29.749,5.389C330.161,40.982,330.276,40.33,329.945,40.254z"/>
			<path fill="#613008" d="M230.181,31.163c-12.506-2.606-24.678-6.111-37.479-5.911c-13.955,0.219-27.314,5.351-41.147,6.362
				C124.896,33.558,99.302,20.688,72.7,20.71c-0.088,0-0.101,0.161-0.009,0.164c25.973,0.65,50.749,12.035,76.783,11.687
				c13.735-0.182,27.158-5.021,40.923-5.779c13.546-0.745,26.491,3.25,39.699,6.003C230.992,32.973,231.073,31.349,230.181,31.163z"
				/>
			<path fill="#613008" d="M273.686,29.199c-9.71-2.909-17.47-10.482-25.79-16.526c-5.996-4.36-13.737-8.541-20.96-6.196
				c-3.165,1.029-5.84,4.961-4.58,8.804c1.892,5.741,7.705,6.808,12.42,6.288c0.773-0.084,0.685-1.589-0.099-1.568
				c-4.17,0.117-14.104-1.855-10.381-9.362c3.153-6.352,13.229-2.3,17.437-0.251c11.191,5.444,19.663,16.119,31.832,19.2
				C273.785,29.645,273.907,29.267,273.686,29.199z"/>
			<path fill="#613008" d="M188.941,12.322c-27.51,0.351-60.074,12.569-85.447-4.525c-0.113-0.073-0.221,0.108-0.113,0.187
				c24.889,17.843,58.19,5.887,85.482,5.797C189.683,13.778,189.767,12.311,188.941,12.322z"/>
			<path fill="#613008" d="M317.001,15.046c-0.625,0.24-0.431,1.415,0.205,1.17c2.932-1.12,12.658-1.81,11.344,5.197
				c-1.134,6.018-8.085,4.439-11.552,3.619c-5.041-1.19-11.171-2.842-15.502-6.189c-0.251-0.201-0.528,0.256-0.265,0.459
				c3.595,2.813,8.313,4.14,12.444,5.462c2.695,0.861,8.342,3.235,11.063,1.505C334.786,19.877,324.622,12.129,317.001,15.046z"/>
		</g>
	</g>
	<g>
		<path fill="#BD6417" d="M20.568,55.875c-4.609,0-10.925,0-15.349-5.458C1.561,45.9,0,38.356,0,25.198C0,4.286,8.219,0,20.568,0
			H379.43C391.778,0,400,4.286,400,25.198c0,13.159-1.563,20.702-5.219,25.22c-4.425,5.458-10.74,5.458-15.352,5.458H20.568z"/>
		<path fill="#BD6417" stroke="#D7A274" stroke-miterlimit="10" d="M20.568,50.526c24.404,0,334.462,0,358.861,0
			c8.188,0,14.354,0,14.354-25.329c0-19.85-7.556-19.85-14.354-19.85c-24.399,0-334.457,0-358.861,0c-6.795,0-14.353,0-14.353,19.85
			C6.216,50.526,12.381,50.526,20.568,50.526z"/>
		<g opacity="0.6">
			<path fill="#613008" d="M373.26,40.254c-12.304-2.141-24.495-4.682-36.988-5.917c-13.577-1.34-27.465,0.276-40.957,1.648
				c-15.648,1.59-31.267,3.91-47.015,4.589c-14.862,0.642-29.729,1.039-44.616,1.275c-59.51,0.945-119.144-1.334-178.327-6.799
				c-1.829-0.169-1.999,2.278-0.179,2.445c58.253,5.347,116.803,7.479,175.367,6.55c29.037-0.459,57.592-1.935,86.357-5.298
				c15.396-1.799,30.982-3.932,46.542-3.225c13.38,0.61,26.53,3.35,39.665,5.389C373.549,40.982,373.702,40.33,373.26,40.254z"/>
			<path fill="#613008" d="M240.241,31.163c-16.675-2.606-32.904-6.111-49.973-5.911c-18.606,0.219-36.419,5.351-54.863,6.362
				C99.862,33.558,65.736,20.688,30.268,20.71c-0.118,0-0.135,0.161-0.012,0.164c34.629,0.65,67.665,12.035,102.377,11.687
				c18.313-0.182,36.211-5.021,54.563-5.779c18.062-0.745,35.322,3.25,52.933,6.003C241.322,32.973,241.432,31.349,240.241,31.163z"
				/>
			<path fill="#613008" d="M298.247,29.199c-12.947-2.909-23.292-10.482-34.386-16.526c-7.995-4.36-18.316-8.541-27.947-6.196
				c-4.221,1.029-7.787,4.961-6.107,8.804c2.522,5.741,10.273,6.808,16.562,6.288c1.03-0.084,0.912-1.589-0.133-1.568
				c-5.56,0.117-18.805-1.855-13.841-9.362c4.205-6.352,17.64-2.3,23.249-0.251c14.922,5.444,26.217,16.119,42.443,19.2
				C298.381,29.645,298.543,29.267,298.247,29.199z"/>
			<path fill="#613008" d="M185.256,12.322c-36.681,0.351-80.1,12.569-113.93-4.525c-0.152-0.073-0.295,0.108-0.152,0.187
				c33.186,17.843,77.588,5.887,113.977,5.797C186.243,13.778,186.355,12.311,185.256,12.322z"/>
			<path fill="#613008" d="M356.001,15.046c-0.833,0.24-0.573,1.415,0.274,1.17c3.908-1.12,16.877-1.81,15.124,5.197
				c-1.512,6.018-10.78,4.439-15.402,3.619c-6.722-1.19-14.895-2.842-20.669-6.189c-0.335-0.201-0.704,0.256-0.354,0.459
				c4.793,2.813,11.085,4.14,16.594,5.462c3.594,0.861,11.122,3.235,14.751,1.505C379.715,19.877,366.163,12.129,356.001,15.046z"/>
		</g>
	</g>
</g>
<g id="DESIGNED_BY_FREEPIK">
</g>
</svg>
