<?xml version="1.0" encoding="utf-8"?>
<!-- Generator: Adobe Illustrator 16.0.0, SVG Export Plug-In . SVG Version: 6.00 Build 0)  -->
<!DOCTYPE svg PUBLIC "-//W3C//DTD SVG 1.1//EN" "http://www.w3.org/Graphics/SVG/1.1/DTD/svg11.dtd">
<svg version="1.1" id="Objects" xmlns="http://www.w3.org/2000/svg" xmlns:xlink="http://www.w3.org/1999/xlink" x="0px" y="0px"
	 width="275.681px" height="295.555px" viewBox="0 0 275.681 295.555" enable-background="new 0 0 275.681 295.555"
	 xml:space="preserve">
<g>
	<path fill="#F5F5F5" d="M275.189,137.789c-1.749-9.897-7.497-18.305-12.311-24.524c-5.631-7.271-11.248-12.778-17.175-16.839
		c-7.799-5.34-16.63-8.049-26.249-8.049c-7.488,0-15.066,1.656-22.525,4.923c-7.474,3.272-14.876,8.232-22.563,15.116
		c0.444-7.565-0.452-15.397-2.753-23.076c0.808-1.047,1.454-2.23,1.902-3.514c1.125-3.219,0.834-6.723-0.797-9.605
		c-1.918-3.402-5.5-5.582-9.458-5.794c-2.071-3.547-4.237-6.562-6.562-9.141c-4.713-5.228-10.934-9.306-18.492-12.121
		c-1.047-0.39-2.102-0.753-3.164-1.099c0.336-0.018,0.674-0.031,1.003-0.056c6.603-0.481,15.694-3.513,19.585-10.464
		c2.486-4.441,2.404-9.693-0.23-14.787C148.99,6.35,131.718,3.155,123.418,1.62C117.524,0.53,112.358,0,107.622,0
		c-1.956,0-3.867,0.093-5.684,0.277c-4.604,0.468-8.34,1.932-11.12,4.354c-0.128,0.087-0.253,0.176-0.376,0.271l-0.15,0.118
		c-4.881,3.965-6.999,12.032-1.609,19.771c3.438,4.948,8.777,8.374,13.043,10.804c3.004,1.712,6.129,3.184,9.313,4.402
		c-0.759-0.02-1.521-0.033-2.284-0.033c-5.146,0-10.338,0.449-15.516,1.339l-0.138-0.331l-3.007,0.932
		c-0.582,0.119-1.162,0.238-1.743,0.369c-0.722,0.17-1.4,0.451-2.022,0.818c-23.715,7.829-41.869,29.06-45.343,53.215
		c-0.984,6.861-0.846,13.824,0.386,20.405c-0.727,0.744-1.368,1.594-1.904,2.534c-1.835,3.22-2.151,6.97-0.868,10.287
		c1.706,4.406,6.359,7.646,11.201,7.862c2.803,4.148,6.172,7.948,10.033,11.333c-0.078,0.009-0.154,0.017-0.23,0.024
		c-9.579,1.033-18.813,2.883-27.442,5.495c-6.501,1.966-15.875,5.631-22.181,14.73c-5.531,7.969-7.596,17.604-8.668,24.155
		c-2.919,17.784-0.945,35.098,5.709,50.071c7.636,17.168,19.558,27.015,32.708,27.015c2.33,0,4.713-0.306,7.083-0.908
		c8.95-2.276,16.201-8.197,20.497-16.532c4.55-0.481,13.233-3.475,20.702-18.037c0.517-1.01,0.999-2.046,1.444-3.105h1.747
		l0.04-0.623c2.407-0.625,4.685-1.674,6.735-3.09c0.019,0.075,0.037,0.151,0.055,0.228c3.006,12.521,6.813,24.393,11.314,35.279
		c2.553,6.187,5.25,11.396,8.244,15.926l0.287,0.436c2.645,4.01,5.92,8.973,10.541,12.209c0.664,0.544,1.417,0.969,2.232,1.26
		l0.921,0.431h1.015c1.316,0.138,2.664,0.207,4.008,0.207c6.813,0,13.85-1.702,21.879-5.319c3.648,2.67,7.768,4.297,10.961,5.253
		c3.924,1.178,7.135,1.726,10.102,1.726c4.012,0,7.398-1.053,10.064-3.129c3.078-2.399,4.813-5.922,4.755-9.664
		c-0.057-3.627-1.82-6.975-4.849-9.188c-1.213-0.885-2.486-1.484-3.684-1.902c2.218-1.729,4.419-3.537,6.593-5.413
		c2.615-2.259,5.135-4.629,7.555-7.065c3.566,1.996,8.492,4.047,13.717,4.047c5.294,0,9.814-2.078,13.069-6.006
		c3.338-4.024,3.466-7.558,2.985-9.813c-0.368-1.736-1.623-4.963-5.876-7.065c-2.559-1.265-5.116-1.638-7.173-1.938l-0.021-0.003
		c4.552-7.161,8.177-14.611,10.815-22.248c0.608-1.789,0.538-3.659-0.17-5.321c-0.021-0.059-0.045-0.114-0.066-0.172l0.818-2.147
		l-2.158-0.149c-1.304-1.534-3.196-2.523-5.33-2.65c-9.208-0.577-17.727-4.721-24.844-8.697c-2.433-1.359-4.823-2.81-7.167-4.344
		c2.969-0.185,5.773-0.782,8.353-1.782c1.398-0.536,2.968-1.219,4.438-2.154c2.354,0.459,4.771,0.697,7.224,0.697
		c10.186,0,19.834-3.973,26.535-10.772c1.226,0.111,2.447,0.167,3.654,0.167c4.896,0,9.6-0.896,13.986-2.664
		C268.564,169.79,277.996,153.645,275.189,137.789z"/>
	<path fill="#99CCE4" d="M218.686,213.766c-6.615,17.365-17.546,32.542-31.441,44.846c-6.997,6.193-14.653,11.339-22.782,15.908
		c-9.74,5.476-19.94,9.877-31.273,10.013c-1.223-1.806-2.809-3.359-4.161-5.068c-1.779-2.239-3.443-4.556-4.964-6.977
		c-3.224-5.126-5.677-10.614-7.877-16.238c-4.077-10.434-7.449-21.132-10.063-32.024c-2.687-11.184-4.576-22.542-5.638-33.991
		c-0.518-5.579-0.835-11.171-0.971-16.77c-0.116-5.022,0.518-10.452-0.085-15.481c0.803,0.059,1.605,0.104,2.408,0.136
		c0.375,7.832,11.43,11.151,17.869,10.246c7.961-1.127,14.265-7.67,15.43-15.56c0.071-0.485-0.154-0.873-0.479-1.094
		c1.417-0.628,2.814-1.288,4.193-1.993c2.965,7.527,7.961,14.543,12.887,20.847c5.631,7.19,12.076,13.767,19.086,19.61
		c6.842,5.702,14.245,10.737,22.089,14.95C200.946,209.43,209.515,213.132,218.686,213.766z"/>
	<path fill="#ECECEC" d="M34.975,184.94c0.026,0.109,0.064,0.214,0.104,0.323c-3.385-1.773-8.479-0.025-9.974,3.579
		c-3.184,7.67,5.683,12.704,11.715,14.187c16.814,4.143,35.383-0.492,48.088-12.31c5.028-4.68,9.599-10.77,12.381-17.333
		c0.007,0.026,0.007,0.053,0.007,0.078c0.129,6,0.479,11.993,1.048,17.96c0.512,5.392,1.21,10.764,2.071,16.116
		c-0.059,0.077-0.104,0.161-0.117,0.278c-0.932,8.711-7.248,13.928-15.338,15.817c1.617-5.845,1.909-12.09,0.439-17.94
		c-0.154-0.615-1.21-0.505-1.133,0.148c0.926,7.773,0.176,15.391-3.074,22.581c-2.887,6.382-9.733,16.983-17.855,16.024
		c-0.02-0.006-0.026,0-0.046,0c2.045-6.478,2.084-13.771,0.123-20.432c-0.311-1.049-1.896-0.615-1.638,0.453
		c3.333,13.928-1.016,30.723-16.057,35.428c-15.546,4.861-26.244-9.28-31.713-21.907c-5.779-13.358-6.964-28.556-4.795-42.853
		c1.061-7.003,2.764-14.258,6.465-20.38c4.155-6.867,10.66-10.518,18.142-12.86c8.724-2.731,17.785-4.543,26.853-5.618
		c8.259-0.983,16.458-0.718,24.71-1.003c0.57,0.182,1.14,0.35,1.716,0.505c2.989,0.854,6.038,1.47,9.106,1.857
		c-7.689,13.126-19.178,23.727-33.914,28.354c-4.207,1.32-8.757,2.058-13.119,1.067c-2.143-0.491-4.149-1.358-5.909-2.673
		c-1.249-0.932-2.252-2.395-3.65-3.119C36.884,179.872,34.328,182.525,34.975,184.94z"/>
	<path fill="#ECECEC" d="M262.339,127.881c3.516,6.498,5.684,14.09,3.787,21.43c-1.611,6.213-5.909,11.617-11.184,15.17
		c-13.98,9.404-31.623,4.246-43.357-6.22c-0.854-0.764-2.084,0.44-1.269,1.263c5.495,5.533,12.796,9.662,20.523,11.371
		c-5.754,5.404-13.216,9.1-21.183,9.294c-8.971,0.214-16.226-3.786-22.776-9.521c-0.576-0.498-1.65,0.175-1.133,0.874
		c3.191,4.329,7.476,7.307,12.22,9.028c-0.07,0.059-0.148,0.116-0.227,0.168c-2.407,1.715-6.964,2.35-9.015,2.518
		c-3.645,0.305-7.301-0.232-10.835-1.133c-3.333-0.847-6.563-2.031-9.779-3.248c-3.243-1.23-6.214-3.062-9.43-4.278
		c-0.077-0.026-0.155-0.026-0.233-0.013c-1.456-1.651-2.873-3.333-4.245-5.055c-4.155-5.197-7.579-10.783-11.132-16.316
		c2.641,2.602,6.096,3.922,9.727,5.055c5.392,1.695,10.958,2.932,16.563,3.676c11.119,1.463,22.581,0.744,32.399-5.151
		c4.764-2.86,9.164-6.712,12.744-10.951c2.686-3.178,4.905-7.203,3.857-11.487c-0.79-3.21-3.443-6-6.951-5.631
		c-2.014,0.207-3.923,1.397-4.615,3.151c-1.449-2-4.194-3.54-5.585-0.569c-0.421,0.894-0.271,1.852-0.22,2.803
		c0.013,0.168,0.013,0.33,0.019,0.492c0.059,1.993-0.207,3.779-1.579,5.442c-2.336,2.835-5.948,4.776-9.288,6.168
		c-14.173,5.883-29.363,2.492-43.68-0.958c0.492-0.33,0.984-0.66,1.469-0.996c3.515-2.46,6.524-5.295,9.074-8.401
		c0.091,0.104,0.272,0.149,0.395,0.039c1.211-1.088,2.401-2.2,3.573-3.327c9.675-9.287,18.284-19.584,29.675-26.981
		c12.051-7.838,27.377-12.258,41.363-7.08C245.085,103.345,255.861,115.895,262.339,127.881z"/>
	<path fill="#F4D9BF" d="M185.995,282.254c0.085,2.252-2.22,3.669-4.031,4.097c-7.761,1.838-15.1-2.913-21.5-6.666
		c1.209-0.628,2.394-1.275,3.565-1.936c1.876-1.055,3.722-2.168,5.547-3.313c2.11,2.064,5.274,3.029,8.109,3.508
		c1.747,0.291,3.56,0.311,5.229,0.944C184.254,279.4,185.937,280.591,185.995,282.254z"/>
	<path fill="#F4D9BF" d="M220.802,248.833c0.635,5.139-7.565,5.728-10.867,4.925c-3.682-0.887-7.016-2.66-10.277-4.518
		c2.064-2.304,4.045-4.679,5.915-7.132c1.243,1.902,3.47,2.796,5.638,3.307C213.722,246.01,220.42,245.778,220.802,248.833z"/>
	<path fill="#F4D9BF" d="M216.834,136.224c0.272,4.311-2.977,7.941-5.779,10.814c-6.006,6.155-13.339,10.563-21.74,12.511
		c-8.103,1.884-16.581,1.463-24.697-0.084c-6.66-1.269-15.261-2.628-20.827-7.055c-0.576-0.453-1.12-0.944-1.624-1.469
		c-0.162-0.175-0.408-0.123-0.563,0.013c-0.434-0.667-0.867-1.327-1.313-1.993c1.379-0.744,2.737-1.527,4.07-2.356
		c0.11,0.143,0.279,0.246,0.505,0.305c12.686,3.146,26.251,6.329,39.267,3.21c5.326-1.281,10.957-3.683,14.931-7.56
		c1.515-1.482,2.771-3.34,3.146-5.456c0.148-0.867,0.07-1.708,0.044-2.557c-0.006-0.278-0.013-0.556,0-0.835
		c0.065-1.702,1.282-2.705,2.881-1.76c0.511,0.304,0.983,0.932,1.392,1.463c0.006,0.22,0.019,0.439,0.064,0.673
		c0.116,0.615,0.945,0.485,1.126,0c0.783-2.155,2.634-3.734,5.049-3.346C215.359,131.157,216.686,133.817,216.834,136.224z"/>
	<path fill="#F4D9BF" d="M103.237,158.158c10.161,0.207,20.394-1.863,29.855-5.786c-1.178,6.421-5.702,12.109-12.258,13.611
		C114.33,167.478,105.682,164.824,103.237,158.158z"/>
	<path fill="#F4D9BF" d="M97.412,159.576c-0.434,3.178-0.369,6.536-0.253,9.792c-0.557,1.229-1.133,2.434-1.734,3.617
		c-2.596,5.14-5.662,9.864-9.922,14.084c-6.161,6.104-13.591,10.698-21.927,13.158c-8.434,2.491-17.656,2.925-26.238,0.932
		c-4.887-1.133-12.284-4.311-10.867-10.711c1.042-4.719,6.453-4.603,9.708-2.583c0.518,0.323,1.216-0.336,0.861-0.86
		c-0.182-0.266-0.382-0.506-0.596-0.726c0.064-0.109,0.078-0.239-0.006-0.368c-0.305-0.473-0.479-0.868-0.544-1.191
		c-0.44-2.097,3.579-1.274,4.485-0.705c0.647,0.407,1.171,1.14,1.792,1.611c1.101,0.841,2.292,1.508,3.554,2.045
		c2.433,1.036,5.067,1.534,7.702,1.573c6.498,0.104,12.964-2.369,18.672-5.301C82.532,178.59,91.819,169.969,97.412,159.576z"/>
	<path fill="#F4D9BF" d="M51.964,128.102c-2.239,0.407-4.776,0.414-5.832-2.123c-0.958-2.298,0.712-4.518,2.738-5.515
		C49.679,123.085,50.708,125.635,51.964,128.102z"/>
	<path fill="#F4D9BF" d="M163.2,80.875c-0.006,0.007-0.012,0.013-0.025,0.013c-0.174-0.433-0.344-0.866-0.531-1.294
		c-0.809-1.871-1.669-3.754-2.582-5.611c1.818-0.699,4.214-0.045,5.139,1.767C166.204,77.722,165.051,79.982,163.2,80.875z"/>
	<path fill="#F4D9BF" d="M90,49.394c13.068-2.906,26.885-2.653,39.797,0.984c5.404,1.521,10.809,3.902,15.404,7.145
		c5.352,3.78,9.067,9.113,12.342,14.705c11.617,19.811,12.822,49.143-4.893,65.957c-3.947,3.741-8.576,6.886-13.533,9.475
		c-0.317-0.045-0.641,0.104-0.744,0.383c-5.618,2.848-11.631,4.977-17.533,6.4c-7.087,1.709-14.472,2.382-21.753,1.806
		c-0.194-0.227-0.563-0.239-0.828-0.077c-3.624-0.337-7.216-0.978-10.73-1.962c-0.505-0.142-1.003-0.291-1.501-0.446
		c-21.313-6.627-37.306-25.732-37.727-48.398c-0.246-13.203,4.621-26.211,13.055-36.309c7.553-9.041,17.468-15.242,28.27-19.655
		c0.006-0.007,0.02-0.007,0.026-0.013C89.754,49.414,89.872,49.42,90,49.394z M96.007,50.197c-0.026,0-0.026,0.045,0,0.045
		S96.034,50.197,96.007,50.197z M139.163,130.011c3.741-4.149,8.143-10.867,7.592-16.743c-0.07-0.731-0.983-0.842-1.248-0.169
		c-1.088,2.725-1.509,5.586-2.81,8.265c-1.34,2.783-3.158,5.34-5.269,7.592c-4.361,4.647-9.935,7.929-16.012,9.779
		c-6.35,1.936-13.105,2.376-19.694,1.852c-6.53-0.519-14.136-1.683-18.847-6.667c-0.486-0.511-1.197,0.24-0.764,0.765
		c4.407,5.358,11.727,6.646,18.258,7.507c7.391,0.978,14.996,0.66,22.135-1.599C128.872,138.573,134.684,134.995,139.163,130.011z
		 M136.452,99.327c0.796-4.583-3.534-9.76-8.33-8.776c-5.016,1.023-5.268,7.456-2.201,10.666c0.422,0.44,1.328-0.013,1.082-0.628
		c-0.99-2.421-1.949-7.353,1.838-7.792c1.637-0.188,3.055,0.615,3.993,1.916c1.035,1.437,1.028,3.021,1.579,4.614
		C134.723,100.22,136.256,100.439,136.452,99.327z M89.716,111.358c0.434,1.424,2.44,0.822,2.194-0.602
		c-0.783-4.55-5.482-9.669-10.42-6.932c-2.201,1.223-2.887,3.715-2.518,6.084c0.316,2.058,1.339,4.899,3.779,4.912
		c0.945,0.006,1.003-1.236,0.213-1.547c-1.171-0.453-1.631-3.139-1.689-4.271c-0.097-1.799,0.822-3.281,2.687-3.501
		C87.424,105.093,88.901,108.692,89.716,111.358z"/>
	<path fill="#3C3C3B" d="M230.84,170.895c-7.728-1.709-15.028-5.838-20.523-11.371c-0.815-0.822,0.415-2.026,1.269-1.263
		c11.734,10.466,29.377,15.624,43.357,6.22c5.274-3.553,9.572-8.957,11.184-15.17c1.896-7.34-0.271-14.932-3.787-21.43
		c-6.479-11.986-17.254-24.536-30.327-29.376c-13.986-5.178-29.313-0.758-41.363,7.08c-11.391,7.397-20,17.694-29.675,26.981
		l-0.887-0.938c4.977-6.11,10.666-11.838,16.349-17.165c6.775-6.336,14.316-12.109,22.859-15.85
		c14.012-6.136,29.629-6.291,42.521,2.537c6.104,4.181,11.203,9.637,15.714,15.462c4.938,6.381,9.625,13.598,11.055,21.688
		c2.395,13.533-6.019,26.226-18.478,31.261c-5.715,2.304-11.844,2.692-17.778,1.631L230.84,170.895z"/>
	<path fill="#3C3C3B" d="M221.546,252.489c-5.916,7.139-16.711,2.453-22.762-2.265l0.873-0.984
		c3.262,1.857,6.596,3.631,10.277,4.518c3.302,0.803,11.502,0.214,10.867-4.925c-0.382-3.055-7.08-2.822-9.592-3.418
		c-2.168-0.511-4.395-1.404-5.638-3.307l0.861-1.166c0.025,0.014,0.059,0.021,0.084,0.046c2.842,2.233,5.327,2.687,8.809,3.19
		c1.857,0.271,3.741,0.524,5.443,1.366C224.135,247.208,223.747,249.835,221.546,252.489z"/>
	<path fill="#3C3C3B" d="M197.968,180.571c-4.744-1.722-9.028-4.699-12.22-9.028c-0.518-0.699,0.557-1.372,1.133-0.874
		c6.551,5.734,13.806,9.734,22.776,9.521c7.967-0.194,15.429-3.89,21.183-9.294l1.489,0.298c-7.547,9.708-21.346,13.364-32.886,9.87
		l-1.702-0.324C197.82,180.687,197.898,180.629,197.968,180.571z"/>
	<path fill="#FFDD00" d="M147.61,20.625c5.152,9.96-5.838,15.222-14.076,15.824c-10.395,0.771-21.662-2.465-30.646-7.585
		c-3.954-2.252-8.298-5.081-10.932-8.873c-2.304-3.307-3.074-8.252,0.376-11.055c0.109-0.084,0.22-0.148,0.336-0.201
		c2-1.955,4.887-2.822,7.883-3.126c6.466-0.653,13.281,0.091,19.65,1.269C129.333,8.567,142.899,11.506,147.61,20.625z
		 M143.797,29.162c4.622-4.906-1.947-10.75-6.103-12.938c-4.601-2.427-9.863-3.845-14.918-4.958
		c-5.392-1.197-10.912-1.857-16.433-1.98c-4.045-0.084-9.974-0.427-12.557,3.34c-0.873,4.867,3.949,8.498,7.787,11.093
		c4.006,2.699,8.381,4.809,12.97,6.316c4.653,1.535,9.553,2.57,14.452,2.836C133.734,33.128,140.278,32.89,143.797,29.162z"/>
	<path fill="#3C3C3B" d="M143.791,152.411c5.566,4.427,14.167,5.786,20.827,7.055c8.116,1.547,16.595,1.968,24.697,0.084
		c8.401-1.948,15.734-6.355,21.74-12.511c2.803-2.873,6.052-6.504,5.779-10.814c-0.148-2.407-1.476-5.067-4.07-5.481
		c-2.415-0.389-4.266,1.19-5.049,3.346c-0.181,0.485-1.01,0.615-1.126,0c-0.046-0.233-0.059-0.453-0.064-0.673
		c-0.408-0.531-0.881-1.159-1.392-1.463c-1.599-0.945-2.815,0.058-2.881,1.76c-0.013,0.279-0.006,0.557,0,0.835l-1.242,0.053
		c-0.006-0.162-0.006-0.324-0.019-0.492c-0.052-0.951-0.201-1.909,0.22-2.803c1.391-2.971,4.136-1.431,5.585,0.569
		c0.692-1.754,2.602-2.944,4.615-3.151c3.508-0.369,6.161,2.421,6.951,5.631c1.048,4.284-1.172,8.31-3.857,11.487
		c-3.58,4.239-7.98,8.091-12.744,10.951c-9.818,5.896-21.28,6.614-32.399,5.151c-5.604-0.744-11.171-1.98-16.563-3.676
		c-3.631-1.133-7.086-2.453-9.727-5.055L143.791,152.411z"/>
	<path fill="#3C3C3B" d="M127.002,100.588c0.246,0.615-0.66,1.068-1.082,0.628c-3.066-3.21-2.814-9.643,2.201-10.666
		c4.796-0.983,9.126,4.193,8.33,8.776c-0.195,1.112-1.729,0.894-2.039,0c-0.551-1.593-0.544-3.178-1.579-4.614
		c-0.938-1.301-2.356-2.104-3.993-1.916C125.053,93.236,126.012,98.167,127.002,100.588z"/>
	<path fill="#3C3C3B" d="M81.276,109.002c0.059,1.133,0.519,3.818,1.689,4.271c0.79,0.311,0.732,1.553-0.213,1.547
		c-2.44-0.013-3.463-2.854-3.779-4.912c-0.369-2.369,0.316-4.861,2.518-6.084c4.938-2.737,9.637,2.382,10.42,6.932
		c0.246,1.424-1.761,2.025-2.194,0.602c-0.815-2.666-2.292-6.265-5.754-5.856C82.098,105.721,81.179,107.204,81.276,109.002z"/>
	<path fill="#3C3C3B" d="M63,245.325l0.291-0.875c0.02,0,0.026-0.006,0.046,0c8.122,0.959,14.969-9.643,17.855-16.024
		c3.25-7.19,4-14.808,3.074-22.581c-0.077-0.653,0.979-0.764,1.133-0.148c1.47,5.851,1.178,12.096-0.439,17.94l-0.059,0.912
		c-0.071,0-0.136-0.006-0.207-0.013c-0.699,2.304-1.592,4.53-2.673,6.641c-3.243,6.323-10.53,16.556-18.821,14.271
		C63.116,245.421,63.051,245.376,63,245.325z"/>
	<path fill="#3C3C3B" d="M37.337,201.159c8.582,1.993,17.805,1.56,26.238-0.932c8.336-2.46,15.766-7.055,21.927-13.158
		c4.26-4.22,7.326-8.944,9.922-14.084l1.864,0.401c-2.782,6.563-7.353,12.653-12.381,17.333
		c-12.705,11.817-31.273,16.452-48.088,12.31c-6.032-1.482-14.899-6.517-11.715-14.187c1.495-3.604,6.589-5.353,9.974-3.579
		c-0.039-0.109-0.078-0.214-0.104-0.323l0.919-0.221c0.065,0.323,0.239,0.719,0.544,1.191c0.084,0.129,0.071,0.259,0.006,0.368
		c0.213,0.22,0.414,0.46,0.596,0.726c0.355,0.524-0.343,1.184-0.861,0.86c-3.256-2.02-8.667-2.136-9.708,2.583
		C25.054,196.848,32.451,200.026,37.337,201.159z"/>
	<path fill="#FACCE5" d="M79.122,124.512c-9.917,0-9.934,15.411,0,15.411C89.038,139.923,89.055,124.512,79.122,124.512z"/>
	<path fill="#FACCE5" d="M148.373,101.537c-9.917,0-9.933,15.411,0,15.411C158.29,116.948,158.305,101.537,148.373,101.537z"/>
	<path fill="#3C3C3B" d="M146.754,113.268c0.551,5.876-3.851,12.594-7.592,16.743c-4.479,4.983-10.291,8.562-16.658,10.581
		c-7.139,2.259-14.744,2.576-22.135,1.599c-6.531-0.86-13.851-2.148-18.258-7.507c-0.434-0.524,0.277-1.275,0.764-0.765
		c4.711,4.984,12.316,6.148,18.847,6.667c6.589,0.524,13.345,0.084,19.694-1.852c6.077-1.851,11.65-5.132,16.012-9.779
		c2.11-2.252,3.929-4.809,5.269-7.592c1.301-2.679,1.722-5.54,2.81-8.265C145.771,112.426,146.684,112.537,146.754,113.268z"/>
	<g id="XMLID_1_">
		<g>
			<path fill="#3C3C3B" d="M221.029,212.583c0.162,0.227,0.227,0.524,0.104,0.887c-3.417,9.89-8.484,19.093-14.698,27.475
				l-0.86,1.165c-1.871,2.452-3.852,4.828-5.916,7.132l-0.873,0.983c-3.398,3.722-7.022,7.236-10.828,10.524
				c-5.294,4.569-10.912,8.854-16.802,12.679c3.029,1.566,5.722,2.511,9.294,3.067c1.773,0.271,3.534,0.615,5.016,1.695
				c3.036,2.221,2.828,6.259-0.071,8.518c-3.806,2.965-10.142,1.566-14.329,0.311c-4.168-1.249-8.77-3.41-11.747-6.743
				c-8.206,4.161-17.196,7.358-26.432,6.349c-0.025-0.007-0.052-0.013-0.077-0.02c-0.014,0-0.026,0-0.039-0.006
				c-0.246-0.052-0.447-0.169-0.589-0.324c-3.89-2.595-6.887-7.268-9.417-11.1c-3.081-4.66-5.534-9.669-7.663-14.827
				c-4.589-11.1-8.2-22.646-11.003-34.322c-1.171-4.893-2.188-9.831-3.062-14.795c-1.54,7.547-7.94,13.902-16.135,13.319
				l0.059-0.912c8.09-1.89,14.407-7.106,15.339-15.818c0.013-0.116,0.059-0.2,0.116-0.278c-0.86-5.352-1.56-10.724-2.071-16.115
				c-0.569-5.967-0.919-11.96-1.048-17.96c0-0.025,0-0.052-0.007-0.078l-1.864-0.4c0.603-1.185,1.179-2.389,1.735-3.618
				c-0.117-3.256-0.182-6.614,0.252-9.792c-5.592,10.394-14.879,19.015-25.313,24.367c-5.708,2.932-12.174,5.404-18.672,5.301
				c-2.634-0.039-5.269-0.537-7.702-1.573c-1.262-0.537-2.453-1.203-3.553-2.045c-0.622-0.473-1.146-1.204-1.793-1.611
				c-0.906-0.569-4.925-1.392-4.485,0.705l-0.919,0.22c-0.647-2.414,1.909-5.067,4.634-3.669c1.398,0.725,2.401,2.188,3.65,3.119
				c1.76,1.314,3.767,2.182,5.909,2.673c4.362,0.99,8.912,0.253,13.119-1.067c14.737-4.628,26.225-15.229,33.914-28.354
				c-3.068-0.389-6.116-1.003-9.106-1.857l0.434-1.573c3.515,0.984,7.106,1.625,10.73,1.962c0.266-0.162,0.635-0.149,0.829,0.077
				c7.28,0.576,14.665-0.097,21.752-1.806c5.903-1.424,11.916-3.553,17.533-6.401c0.104-0.278,0.428-0.427,0.744-0.382
				c4.958-2.589,9.585-5.733,13.533-9.475c17.488-16.601,16.536-45.396,5.333-65.193c0.013-0.007,0.02-0.013,0.032-0.02
				c0.233-0.143,0.24-0.401,0.13-0.583l0.874-0.452c0.193,0.362,0.382,0.725,0.563,1.087c2.434-1.424,5.806-0.835,7.269,1.761
				c1.624,2.873-0.007,6.595-2.938,7.779c-0.026,0.013-0.052,0.013-0.071,0.025c6.064,16.258,5.353,34.84-3.754,49.039l0.887,0.938
				c-1.171,1.126-2.362,2.239-3.572,3.327c-0.123,0.109-0.305,0.064-0.396-0.039c-2.55,3.106-5.559,5.941-9.073,8.4
				c-0.485,0.337-0.978,0.667-1.47,0.997c14.316,3.449,29.507,6.841,43.681,0.958c3.34-1.392,6.951-3.333,9.287-6.168
				c1.372-1.663,1.638-3.449,1.579-5.443l1.243-0.052c0.025,0.848,0.104,1.689-0.046,2.557c-0.375,2.116-1.631,3.974-3.145,5.456
				c-3.975,3.877-9.605,6.278-14.932,7.56c-13.016,3.119-26.581-0.064-39.267-3.21c-0.227-0.059-0.395-0.162-0.505-0.305
				c-1.333,0.828-2.692,1.611-4.07,2.356c0.446,0.666,0.88,1.326,1.313,1.993c0.155-0.136,0.401-0.188,0.563-0.013
				c0.505,0.523,1.048,1.016,1.624,1.469l-0.718,0.803c3.553,5.533,6.977,11.119,11.132,16.316c1.372,1.721,2.789,3.404,4.245,5.055
				c0.078-0.014,0.155-0.014,0.233,0.013c3.217,1.217,6.188,3.048,9.43,4.278c3.217,1.217,6.446,2.4,9.779,3.249
				c3.534,0.899,7.19,1.437,10.835,1.132c2.051-0.168,6.607-0.802,9.016-2.518l1.702,0.324c-1.062,1.579-3.534,2.595-5.068,3.184
				c-3.624,1.404-7.656,1.677-11.494,1.191c-4.944-0.628-9.611-2.44-14.226-4.233c-2.045-0.796-4.44-1.553-6.563-2.646
				c2.964,3.106,6.077,6.07,9.339,8.866c6.459,5.56,13.475,10.479,20.918,14.641c8.55,4.776,17.694,8.886,27.597,9.507
				C220.595,211.612,220.952,212.078,221.029,212.583z M187.245,258.613c13.896-12.304,24.827-27.481,31.441-44.846
				c-9.171-0.634-17.74-4.336-25.772-8.641c-7.844-4.213-15.248-9.248-22.089-14.95c-7.009-5.845-13.455-12.42-19.086-19.61
				c-4.926-6.304-9.922-13.319-12.886-20.847c-1.379,0.705-2.777,1.365-4.194,1.993c0.323,0.221,0.55,0.608,0.479,1.094
				c-1.165,7.89-7.469,14.433-15.429,15.56c-6.44,0.905-17.494-2.414-17.87-10.246c-0.803-0.032-1.604-0.077-2.407-0.136
				c0.602,5.029-0.032,10.459,0.084,15.481c0.136,5.599,0.453,11.19,0.971,16.77c1.062,11.449,2.951,22.808,5.638,33.991
				c2.614,10.893,5.986,21.591,10.063,32.024c2.201,5.624,4.653,11.112,7.877,16.238c1.521,2.42,3.185,4.737,4.964,6.977
				c1.353,1.709,2.938,3.262,4.162,5.067c11.332-0.136,21.532-4.536,31.272-10.012C172.591,269.952,180.249,264.806,187.245,258.613
				z M181.963,286.352c1.813-0.428,4.116-1.845,4.032-4.097c-0.059-1.664-1.741-2.854-3.081-3.366
				c-1.67-0.634-3.481-0.653-5.229-0.944c-2.835-0.479-5.999-1.443-8.109-3.508c-1.825,1.146-3.67,2.259-5.547,3.313
				c-1.171,0.66-2.355,1.308-3.565,1.935C166.864,283.439,174.204,288.19,181.963,286.352z M163.201,80.875
				c1.851-0.894,3.003-3.152,2-5.126c-0.926-1.813-3.32-2.466-5.139-1.767c0.912,1.857,1.773,3.74,2.582,5.611
				c0.188,0.427,0.355,0.86,0.53,1.294C163.188,80.888,163.194,80.882,163.201,80.875z M120.834,165.984
				c6.556-1.502,11.08-7.19,12.258-13.611c-9.462,3.922-19.694,5.993-29.855,5.786C105.683,164.825,114.33,167.479,120.834,165.984z
				"/>
			<path fill="#3C3C3B" d="M159.02,71.938l-0.874,0.452c-0.11-0.181-0.33-0.291-0.55-0.142c-0.014,0.006-0.02,0.013-0.033,0.02
				c-0.006-0.014-0.013-0.026-0.019-0.039c-3.275-5.592-6.99-10.925-12.343-14.705c-4.595-3.242-9.999-5.624-15.403-7.145
				c-12.912-3.638-26.73-3.891-39.797-0.984c-0.13,0.026-0.246,0.02-0.35-0.006c-0.007,0.006-0.02,0.006-0.026,0.013l-0.466-1.12
				c0.078-0.148,0.227-0.271,0.446-0.323c15.274-3.456,31.377-2.822,46.114,2.66c5.98,2.227,11.637,5.611,15.94,10.388
				C154.592,64.261,156.968,68.015,159.02,71.938z"/>
			<path fill="#3B3838" d="M158.146,72.39c0.11,0.182,0.104,0.44-0.13,0.583c-0.013,0.007-0.02,0.013-0.032,0.02
				c-0.136-0.239-0.278-0.485-0.421-0.725c0.014-0.007,0.02-0.014,0.033-0.02C157.816,72.099,158.036,72.209,158.146,72.39z"/>
			<path fill="#3B3838" d="M157.563,72.268c0.143,0.239,0.285,0.485,0.421,0.725c-3.326,1.961-7.035,1.806-9.649-0.99
				c-1.062,2.148-3.32,3.165-5.793,2.705c-3.358-0.621-5.274-3.87-6.711-6.73c-3.677,4.213-9.709,4.336-13.566,0.362
				c-1.437,5.979-5.656,11.74-12.103,12.685c-5.132,0.745-10.4-1.831-12.575-6.472c-2.278,3.437-6.828,4.466-10.077,1.729
				c1.152,5.565-0.874,11.889-5.863,14.95c-4.531,2.776-10.524,2.129-14.388-1.34c0.634,3.987,0.771,8.395-1.929,11.604
				c-1.864,2.22-4.712,3.372-7.424,2.848c1.734,2.705,2.362,6.161,0.861,9.146c-1.645,3.268-5.353,4.912-8.776,3.754
				c-0.064-0.227-0.123-0.447-0.182-0.674c3.347,0.952,6.938-0.673,8.278-3.915c1.385-3.34-0.078-6.771-2.46-9.21
				c-0.485-0.498,0.155-1.372,0.751-0.978c3.249,2.136,7.308,0.098,8.977-3.081c1.773-3.371,1.14-7.54,0.467-11.1
				c-0.091-0.491,0.563-1.042,0.951-0.55c3.358,4.252,9.637,5.365,14.277,2.485c5.028-3.113,6.4-9.404,4.971-14.802
				c-0.162-0.602,0.511-0.919,0.926-0.673c0.064,0.013,0.129,0.039,0.193,0.091c3.347,2.828,8.143,2.252,9.896-2.026
				c0.246-0.596,1.087-0.68,1.294,0c1.67,5.359,7.825,8.097,13.08,6.524c5.476-1.638,8.893-7.042,9.98-12.382
				c0.077-0.388,0.692-0.589,0.958-0.252c3.462,4.472,9.74,4.518,13.08-0.155c0.245-0.337,0.835-0.446,1.055,0
				c0.945,1.941,1.929,4.071,3.579,5.521c2.084,1.825,6.75,2.537,7.683-1.055c0.09-0.33,0.543-0.46,0.783-0.207
				C150.806,73.225,154.658,74.17,157.563,72.268z"/>
			<path fill="#F8B133" d="M157.544,72.229c0.006,0.013,0.013,0.025,0.019,0.039c-2.905,1.902-6.757,0.957-9.034-1.463
				c-0.24-0.253-0.693-0.123-0.783,0.207c-0.933,3.592-5.599,2.88-7.683,1.055c-1.65-1.449-2.634-3.579-3.579-5.521
				c-0.22-0.446-0.81-0.337-1.055,0c-3.34,4.673-9.618,4.627-13.08,0.155c-0.266-0.337-0.881-0.136-0.958,0.252
				c-1.088,5.34-4.505,10.744-9.98,12.382c-5.255,1.572-11.41-1.165-13.08-6.524c-0.207-0.68-1.048-0.596-1.294,0
				c-1.754,4.278-6.55,4.854-9.896,2.026c-0.064-0.052-0.129-0.078-0.193-0.091c-0.415-0.246-1.088,0.071-0.926,0.673
				c1.43,5.397,0.058,11.688-4.971,14.802c-4.641,2.88-10.919,1.767-14.277-2.485c-0.389-0.492-1.042,0.059-0.951,0.55
				c0.673,3.56,1.307,7.729-0.467,11.1c-1.669,3.179-5.728,5.217-8.977,3.081c-0.596-0.395-1.236,0.479-0.751,0.978
				c2.382,2.439,3.845,5.87,2.46,9.21c-1.34,3.242-4.932,4.867-8.278,3.915c-0.919-3.604-1.437-7.352-1.508-11.203
				c-0.246-13.203,4.621-26.212,13.055-36.309c7.553-9.041,17.468-15.241,28.27-19.655c0.007-0.007,0.02-0.007,0.026-0.013
				c0.104,0.025,0.22,0.032,0.35,0.006c13.066-2.906,26.885-2.653,39.797,0.984c5.404,1.521,10.809,3.902,15.403,7.145
				C150.554,61.304,154.269,66.637,157.544,72.229z"/>
			<path fill="#3C3C3B" d="M89.16,48.282l0.466,1.12c-10.802,4.414-20.717,10.614-28.27,19.655
				c-8.434,10.097-13.301,23.105-13.055,36.309c0.071,3.852,0.589,7.599,1.508,11.203c-0.025-0.006-0.052-0.013-0.077-0.02
				c-0.356-0.109-0.479,0.408-0.149,0.544c0.137,0.059,0.272,0.11,0.408,0.149c4.68,17.28,18.575,31.092,36.036,36.521
				c0.499,0.155,0.997,0.305,1.502,0.446l-0.434,1.573c-0.576-0.155-1.146-0.323-1.715-0.505c-8.252,0.285-16.452,0.02-24.711,1.003
				c-9.067,1.074-18.128,2.887-26.853,5.618c-7.482,2.343-13.986,5.993-18.141,12.86c-3.702,6.122-5.404,13.377-6.466,20.38
				c-2.168,14.297-0.984,29.494,4.796,42.853c5.469,12.627,16.167,26.769,31.713,21.907c15.041-4.705,19.391-21.5,16.057-35.428
				c-0.259-1.068,1.327-1.502,1.638-0.453c1.961,6.66,1.923,13.954-0.123,20.433L63,245.325c-2.809,8.084-8.802,14.757-18.012,17.1
				c-15.708,3.993-26.575-9.631-32.283-22.465c-6.446-14.504-7.792-30.82-5.236-46.392c1.224-7.476,3.223-15.21,7.599-21.514
				c4.53-6.536,11.287-9.974,18.736-12.226c8.55-2.589,17.384-4.298,26.264-5.255c6.679-0.726,13.772-1.34,20.659-0.972
				c-0.849-0.343-1.684-0.705-2.518-1.087c-10.013-4.653-18.789-11.87-24.563-21.364c-0.349-0.569-0.673-1.152-0.996-1.734
				c-2.583,2.213-7.146,0.006-8.246-2.835c-1.185-3.062,0.913-6.893,4.083-7.424c-2.025-7.281-2.407-15.009-1.327-22.549
				C50.379,74.249,67.679,54.929,89.16,48.282z M46.133,125.98c1.055,2.537,3.592,2.53,5.831,2.122
				c-1.255-2.466-2.284-5.016-3.094-7.637C46.845,121.462,45.175,123.682,46.133,125.98z"/>
			<path fill="#3B3838" d="M49.991,117.243c-0.136-0.039-0.271-0.091-0.408-0.149c-0.33-0.136-0.207-0.653,0.149-0.544
				c0.025,0.007,0.052,0.014,0.077,0.02C49.868,116.795,49.926,117.016,49.991,117.243z"/>
		</g>
		<g>
		</g>
	</g>
</g>
</svg>
