<?xml version="1.0" encoding="utf-8"?>
<!-- Generator: Adobe Illustrator 16.0.0, SVG Export Plug-In . SVG Version: 6.00 Build 0)  -->
<!DOCTYPE svg PUBLIC "-//W3C//DTD SVG 1.1//EN" "http://www.w3.org/Graphics/SVG/1.1/DTD/svg11.dtd">
<svg version="1.1" id="Layer_1" xmlns="http://www.w3.org/2000/svg" xmlns:xlink="http://www.w3.org/1999/xlink" x="0px" y="0px"
	 width="745.809px" height="127.189px" viewBox="0 0 745.809 127.189" enable-background="new 0 0 745.809 127.189"
	 xml:space="preserve">
<g>
	<g>
		<path fill-rule="evenodd" clip-rule="evenodd" fill="#7ACCBC" d="M254.314,106.702c-0.382-0.438-0.904-0.769-1.501-0.931
			c0.446-0.531,0.71-1.195,0.71-1.922c0-0.192-0.021-0.386-0.056-0.571c0.336-0.096,0.582-0.389,0.582-0.734
			c0-0.427-0.373-0.772-0.834-0.772c-0.165,0-0.313,0.044-0.441,0.115c-0.441-0.504-1.051-0.879-1.753-1.057
			c0.003-0.03,0.007-0.063,0.007-0.097c0-0.794-0.698-1.436-1.552-1.436c-0.157,0-0.31,0.022-0.45,0.063
			c-0.068-0.557-0.582-0.987-1.2-0.987c-0.028,0-0.057,0.003-0.087,0.007c0.047-0.119,0.068-0.246,0.068-0.378
			c0-0.639-0.558-1.158-1.248-1.158c-0.682,0-1.24,0.509-1.251,1.135c-0.073-0.007-0.149-0.011-0.225-0.011
			c-0.526,0-1.003,0.196-1.345,0.516c-0.132-0.082-0.292-0.134-0.469-0.134c-0.449,0-0.811,0.337-0.811,0.753
			c0,0.059,0.005,0.118,0.02,0.174c-0.895,0.23-1.62,0.824-1.985,1.596c-0.29-0.334-0.734-0.549-1.236-0.549
			c-0.53,0-0.995,0.238-1.284,0.608c-0.153-0.312-0.49-0.527-0.883-0.527c-0.445,0-0.818,0.279-0.931,0.661
			c-0.128-0.015-0.257-0.022-0.385-0.022c-1.585,0-2.913,1.009-3.281,2.363c-0.032-0.003-0.069-0.003-0.104-0.003
			c-0.458,0-0.835,0.345-0.835,0.772c0,0.193,0.081,0.371,0.209,0.508c-0.232,0.186-0.433,0.405-0.593,0.646
			c-0.265-0.189-0.585-0.323-0.939-0.368c-0.24-0.661-0.911-1.135-1.705-1.135c-0.201,0-0.398,0.029-0.574,0.089
			c0.017-0.075,0.028-0.156,0.028-0.238c0-0.564-0.497-1.024-1.111-1.024c-0.489,0-0.906,0.297-1.051,0.709
			c-0.109-0.019-0.217-0.027-0.329-0.027c-0.996,0-1.797,0.743-1.797,1.659c0,0.404,0.16,0.775,0.417,1.064
			c-0.141,0.148-0.265,0.315-0.376,0.49c-0.29-0.178-0.635-0.286-1.003-0.286c-0.715,0-1.325,0.382-1.618,0.931
			c-0.32-0.2-0.706-0.315-1.123-0.315c-0.044,0-0.085,0-0.124,0.003c-0.25-0.475-0.775-0.797-1.381-0.797
			c-0.325,0-0.625,0.092-0.875,0.252c-0.112-0.3-0.425-0.512-0.787-0.512c-0.461,0-0.834,0.345-0.834,0.772
			c0,0.078,0.012,0.16,0.04,0.233c-0.357,0.045-0.689,0.148-0.995,0.297c-0.221-0.446-0.707-0.757-1.276-0.757
			c-0.233,0-0.45,0.052-0.642,0.145c-0.144-0.753-0.851-1.325-1.708-1.325c-0.956,0-1.734,0.721-1.734,1.604
			c0,0.456,0.209,0.868,0.542,1.161c-0.413,0.452-0.663,1.035-0.663,1.677c0,0.478,0.137,0.931,0.385,1.317
			c-0.457,0.416-0.818,0.928-1.042,1.503c-0.081-0.012-0.169-0.019-0.253-0.019c-0.469,0-0.887,0.193-1.167,0.497
			c-0.112-0.029-0.226-0.044-0.345-0.044c-0.727,0-1.312,0.541-1.312,1.213c0,0.374,0.185,0.708,0.478,0.931
			c-0.242,0.274-0.43,0.593-0.546,0.935c-0.176-0.082-0.377-0.134-0.593-0.134c-0.193,0-0.37,0.041-0.538,0.112
			c-0.096-0.201-0.321-0.342-0.578-0.342c-0.224,0-0.429,0.111-0.542,0.282c-0.116-0.034-0.236-0.052-0.365-0.052
			c-0.65,0-1.179,0.446-1.263,1.024c-0.125,0.038-0.253,0.085-0.374,0.137c-0.089-0.782-0.807-1.398-1.677-1.398
			c-0.121,0-0.232,0.015-0.344,0.033c-0.125-0.549-0.65-0.961-1.284-0.961c-0.53,0-0.987,0.293-1.191,0.712
			c-0.081-0.007-0.157-0.007-0.237-0.007c-0.654,0-1.26,0.171-1.782,0.464c-0.191-0.668-0.85-1.161-1.628-1.161
			c-0.939,0-1.693,0.705-1.693,1.566c0,0.285,0.08,0.553,0.225,0.782c-0.505,0.271-0.851,0.777-0.851,1.357
			c0,0.138,0.023,0.271,0.06,0.401c-0.942,0.309-1.741,0.912-2.259,1.688c-0.557-0.594-1.38-0.972-2.303-0.972h-0.008
			c-0.068-0.405-0.449-0.713-0.902-0.713c-0.501,0-0.911,0.378-0.911,0.842c0,0.13,0.032,0.257,0.097,0.367
			c-0.417,0.267-0.758,0.624-0.987,1.043c-0.092-0.026-0.184-0.041-0.289-0.041c-0.502,0-0.907,0.378-0.907,0.839
			c0,0.081,0.008,0.156,0.032,0.223c-0.346,0.227-0.57,0.594-0.57,1.009c0,0.149,0.028,0.282,0.076,0.412
			c-0.341,0.255-0.586,0.619-0.677,1.035c-0.113-0.049-0.241-0.074-0.37-0.074c-0.505,0-0.915,0.378-0.915,0.838
			c0,0.468,0.409,0.847,0.915,0.847c0.249,0,0.477-0.097,0.642-0.249c0.353,0.501,0.959,0.827,1.653,0.827
			c0.529,0,1.016-0.192,1.368-0.512c0.324,0.594,0.99,0.998,1.753,0.998h0.012h118.871h0.009c0.509,0,0.946-0.293,1.127-0.709
			c0.589-0.085,1.038-0.557,1.038-1.12c0-0.066-0.008-0.133-0.02-0.193c0.252-0.141,0.421-0.4,0.421-0.689
			c0-0.445-0.386-0.802-0.867-0.802c-0.008,0-0.02,0-0.031,0c-0.072-0.163-0.19-0.309-0.333-0.423
			c0.037-0.074,0.06-0.163,0.06-0.253c0-0.326-0.284-0.585-0.634-0.585c-0.032,0-0.055,0-0.084,0.004
			c-0.316-1.243-1.524-2.163-2.965-2.163c-0.088,0-0.176,0.003-0.261,0.01c-0.12-0.419-0.534-0.722-1.019-0.722
			c-0.076,0-0.148,0.007-0.221,0.021c-0.361-0.409-0.915-0.672-1.532-0.672c-1.1,0-1.995,0.823-1.995,1.841
			c-0.148-0.019-0.297-0.03-0.449-0.03c-0.694,0-1.336,0.215-1.849,0.575c0.003-0.029,0.003-0.063,0.003-0.096
			c0-1.073-0.942-1.944-2.106-1.944c-0.225,0-0.438,0.029-0.643,0.089c-0.04-0.653-0.63-1.172-1.348-1.172
			c-0.245,0-0.473,0.06-0.67,0.163c-0.064-0.36-0.245-0.683-0.498-0.942c0.108-0.104,0.176-0.249,0.176-0.404
			c0-0.182-0.088-0.341-0.224-0.449c0.356-0.193,0.593-0.549,0.593-0.957c0-0.594-0.505-1.077-1.144-1.099
			c0.028-0.074,0.04-0.148,0.04-0.229c0-0.42-0.364-0.757-0.818-0.757c-0.369,0-0.678,0.223-0.782,0.526
			c-0.405-0.185-0.862-0.289-1.348-0.289h-0.028c-0.136-0.552-0.674-0.965-1.316-0.965c-0.75,0-1.356,0.564-1.356,1.254
			c0,0.034,0,0.066,0.004,0.101c-0.088-0.019-0.181-0.03-0.276-0.03c-0.659,0-1.188,0.493-1.188,1.103c0,0.058,0,0.122,0.016,0.181
			c-0.249-0.059-0.514-0.092-0.778-0.092c-0.305,0-0.602,0.04-0.883,0.119c-0.061-0.798-0.67-1.455-1.484-1.647
			c0.12-0.176,0.188-0.379,0.188-0.596c0-0.607-0.533-1.104-1.191-1.104c-0.659,0-1.192,0.498-1.192,1.104
			c0,0.078,0.012,0.157,0.028,0.231c-0.569,0.011-1.043,0.394-1.147,0.894c-0.073,0.008-0.145,0.019-0.208,0.034
			c-0.08-0.178-0.185-0.341-0.313-0.486c0.109-0.107,0.173-0.245,0.173-0.4c0-0.323-0.286-0.59-0.638-0.59
			c-0.253,0-0.474,0.14-0.578,0.338c-0.188-0.052-0.394-0.078-0.602-0.078c-0.12,0-0.232,0.007-0.349,0.021
			c-0.164-0.511-0.558-0.928-1.079-1.149c0.007-0.034,0.007-0.067,0.007-0.104c0-0.694-0.609-1.253-1.356-1.253
			c-0.116,0-0.228,0.014-0.337,0.037c-0.409-0.735-1.164-1.284-2.063-1.462c0.005-0.022,0.005-0.044,0.005-0.066
			c0-0.327-0.285-0.59-0.638-0.59c-0.097,0-0.193,0.022-0.281,0.063c-0.249-0.278-0.622-0.453-1.043-0.453
			c-0.746,0-1.352,0.56-1.352,1.254c0,0.292,0.109,0.563,0.293,0.779c-0.317,0.363-0.538,0.8-0.626,1.275
			c-0.296-0.188-0.646-0.312-1.027-0.333c-0.04-0.901-0.843-1.625-1.83-1.625c-0.393,0-0.758,0.115-1.059,0.309
			c-0.096-0.201-0.212-0.39-0.345-0.568c0.172-0.145,0.28-0.348,0.28-0.583c0-0.427-0.373-0.771-0.834-0.771
			c-0.281,0-0.526,0.126-0.674,0.322c-0.345-0.178-0.723-0.307-1.12-0.378c0.003-0.022,0.003-0.041,0.003-0.059
			c0-0.631-0.542-1.143-1.215-1.158c0.044-0.097,0.069-0.2,0.069-0.311c0-0.431-0.369-0.772-0.835-0.772
			c-0.393,0-0.73,0.253-0.81,0.602c-0.108-0.022-0.217-0.03-0.33-0.03C255.159,106.082,254.65,106.323,254.314,106.702z"/>
		<path fill-rule="evenodd" clip-rule="evenodd" fill="#7ACCBC" d="M496.312,8.318c-0.338-0.372-0.804-0.649-1.34-0.787
			c0.396-0.451,0.636-1.009,0.636-1.619c0-0.164-0.021-0.329-0.051-0.485c0.298-0.082,0.521-0.329,0.521-0.619
			c0-0.359-0.332-0.653-0.748-0.653c-0.144,0-0.277,0.035-0.391,0.099c-0.397-0.428-0.942-0.744-1.566-0.891
			c0.006-0.03,0.006-0.057,0.006-0.082c0-0.671-0.625-1.212-1.387-1.212c-0.141,0-0.279,0.018-0.402,0.052
			c-0.064-0.467-0.521-0.831-1.076-0.831c-0.02,0-0.049,0-0.074,0.004c0.04-0.1,0.061-0.208,0.061-0.316
			c0-0.54-0.502-0.978-1.116-0.978s-1.11,0.424-1.12,0.961c-0.064-0.009-0.129-0.013-0.197-0.013c-0.471,0-0.896,0.168-1.2,0.437
			c-0.118-0.074-0.267-0.112-0.421-0.112c-0.4,0-0.729,0.281-0.729,0.631c0,0.052,0.012,0.1,0.021,0.147
			c-0.798,0.191-1.446,0.693-1.773,1.35c-0.258-0.285-0.655-0.467-1.101-0.467c-0.477,0-0.892,0.203-1.149,0.51
			c-0.135-0.259-0.437-0.441-0.788-0.441c-0.402,0-0.738,0.234-0.832,0.559c-0.114-0.013-0.229-0.018-0.348-0.018
			c-1.412,0-2.602,0.848-2.928,1.995c-0.029-0.003-0.06-0.008-0.096-0.008c-0.41,0-0.746,0.294-0.746,0.653
			c0,0.165,0.068,0.316,0.187,0.429c-0.208,0.156-0.386,0.342-0.524,0.545c-0.242-0.16-0.53-0.268-0.842-0.311
			c-0.219-0.554-0.813-0.957-1.527-0.957c-0.178,0-0.352,0.026-0.516,0.074c0.021-0.061,0.03-0.13,0.03-0.199
			c0-0.476-0.444-0.866-0.99-0.866c-0.442,0-0.813,0.252-0.942,0.597c-0.099-0.012-0.193-0.021-0.297-0.021
			c-0.882,0-1.601,0.627-1.601,1.402c0,0.342,0.144,0.654,0.372,0.896c-0.129,0.13-0.238,0.269-0.337,0.416
			c-0.258-0.151-0.564-0.242-0.902-0.242c-0.634,0-1.179,0.32-1.436,0.787c-0.288-0.168-0.635-0.268-1.012-0.268
			c-0.034,0-0.069,0-0.109,0.004c-0.223-0.398-0.693-0.671-1.229-0.671c-0.292,0-0.564,0.078-0.783,0.212
			c-0.104-0.255-0.376-0.433-0.703-0.433c-0.412,0-0.743,0.29-0.743,0.653c0,0.065,0.009,0.13,0.03,0.19
			c-0.318,0.043-0.615,0.13-0.882,0.255c-0.198-0.377-0.634-0.636-1.14-0.636c-0.208,0-0.406,0.042-0.575,0.12
			c-0.128-0.636-0.763-1.116-1.525-1.116c-0.857,0-1.546,0.605-1.546,1.35c0,0.385,0.178,0.736,0.475,0.979
			c-0.366,0.38-0.594,0.874-0.594,1.415c0,0.407,0.129,0.783,0.346,1.112c-0.406,0.354-0.733,0.788-0.931,1.268
			c-0.069-0.014-0.149-0.018-0.223-0.018c-0.421,0-0.792,0.165-1.045,0.42c-0.099-0.022-0.198-0.035-0.307-0.035
			c-0.649,0-1.17,0.458-1.17,1.021c0,0.32,0.164,0.602,0.422,0.788c-0.215,0.234-0.382,0.502-0.487,0.788
			c-0.154-0.069-0.336-0.113-0.525-0.113c-0.173,0-0.336,0.035-0.479,0.095c-0.091-0.173-0.288-0.29-0.517-0.29
			c-0.207,0-0.385,0.095-0.484,0.238c-0.108-0.026-0.218-0.043-0.333-0.043c-0.574,0-1.05,0.376-1.125,0.865
			c-0.114,0.035-0.228,0.069-0.332,0.113c-0.085-0.658-0.724-1.177-1.502-1.177c-0.109,0-0.208,0.009-0.308,0.026
			c-0.109-0.458-0.584-0.81-1.144-0.81c-0.476,0-0.882,0.247-1.066,0.602c-0.074-0.005-0.143-0.009-0.218-0.009
			c-0.579,0-1.125,0.147-1.585,0.394c-0.169-0.563-0.763-0.979-1.458-0.979c-0.836,0-1.516,0.593-1.516,1.32
			c0,0.242,0.079,0.467,0.208,0.658c-0.455,0.233-0.763,0.658-0.763,1.146c0,0.117,0.02,0.229,0.049,0.342
			c-0.842,0.26-1.55,0.767-2.012,1.424c-0.5-0.507-1.238-0.822-2.061-0.822h-0.01c-0.06-0.342-0.396-0.602-0.803-0.602
			c-0.447,0-0.813,0.321-0.813,0.71c0,0.113,0.03,0.216,0.079,0.312c-0.366,0.225-0.673,0.528-0.876,0.878
			c-0.084-0.022-0.164-0.035-0.258-0.035c-0.451,0-0.813,0.316-0.813,0.709c0,0.065,0.009,0.126,0.029,0.187
			c-0.307,0.19-0.505,0.501-0.505,0.853c0,0.125,0.025,0.237,0.064,0.346c-0.302,0.221-0.525,0.523-0.604,0.87
			c-0.1-0.035-0.212-0.061-0.331-0.061c-0.451,0-0.813,0.32-0.813,0.71c0,0.394,0.362,0.709,0.813,0.709
			c0.223,0,0.43-0.079,0.574-0.208c0.313,0.425,0.857,0.701,1.476,0.701c0.477,0,0.907-0.164,1.224-0.433
			c0.288,0.502,0.883,0.84,1.566,0.84h0.01h106.215h0.005c0.456,0,0.853-0.247,1.011-0.597c0.525-0.069,0.922-0.468,0.922-0.943
			c0-0.056,0-0.113-0.015-0.165c0.229-0.121,0.381-0.337,0.381-0.58c0-0.377-0.346-0.679-0.772-0.679c-0.011,0-0.019,0-0.029,0
			c-0.069-0.135-0.174-0.256-0.303-0.355c0.035-0.064,0.054-0.134,0.054-0.212c0-0.277-0.258-0.493-0.568-0.493
			c-0.025,0-0.051,0-0.074,0c-0.283-1.047-1.358-1.826-2.646-1.826c-0.08,0-0.158,0.004-0.238,0.009
			c-0.104-0.347-0.471-0.606-0.906-0.606c-0.064,0-0.134,0.004-0.193,0.018c-0.327-0.346-0.822-0.567-1.379-0.567
			c-0.979,0-1.773,0.696-1.773,1.554c-0.134-0.018-0.268-0.026-0.405-0.026c-0.62,0-1.19,0.182-1.646,0.484c0-0.026,0-0.052,0-0.078
			c0-0.909-0.842-1.645-1.883-1.645c-0.198,0-0.392,0.026-0.575,0.078c-0.04-0.554-0.564-0.991-1.209-0.991
			c-0.213,0-0.416,0.047-0.595,0.134c-0.06-0.302-0.219-0.571-0.445-0.788c0.1-0.091,0.159-0.212,0.159-0.346
			c0-0.152-0.08-0.286-0.199-0.381c0.317-0.156,0.529-0.458,0.529-0.805c0-0.497-0.45-0.908-1.019-0.926
			c0.023-0.061,0.033-0.13,0.033-0.195c0-0.351-0.327-0.636-0.733-0.636c-0.327,0-0.604,0.182-0.693,0.441
			c-0.366-0.156-0.773-0.242-1.209-0.242h-0.021c-0.129-0.468-0.609-0.813-1.179-0.813c-0.673,0-1.214,0.476-1.214,1.056
			c0,0.03,0.005,0.056,0.005,0.086c-0.08-0.018-0.159-0.026-0.249-0.026c-0.583,0-1.06,0.416-1.06,0.931c0,0.052,0,0.099,0.01,0.151
			c-0.218-0.052-0.456-0.078-0.693-0.078c-0.272,0-0.535,0.035-0.783,0.104c-0.06-0.675-0.604-1.229-1.327-1.394
			c0.108-0.147,0.168-0.32,0.168-0.502c0-0.511-0.476-0.93-1.065-0.93s-1.065,0.419-1.065,0.93c0,0.069,0.01,0.134,0.024,0.199
			c-0.511,0.009-0.932,0.329-1.025,0.753c-0.064,0.005-0.13,0.013-0.188,0.027c-0.069-0.147-0.158-0.286-0.278-0.408
			c0.1-0.091,0.154-0.208,0.154-0.337c0-0.276-0.252-0.502-0.569-0.502c-0.228,0-0.421,0.121-0.516,0.286
			c-0.168-0.043-0.348-0.07-0.534-0.07c-0.11,0-0.214,0.01-0.317,0.027c-0.141-0.433-0.496-0.788-0.963-0.974
			c0.006-0.031,0.006-0.057,0.006-0.091c0-0.58-0.54-1.056-1.209-1.056c-0.104,0-0.204,0.009-0.302,0.034
			c-0.367-0.623-1.042-1.086-1.844-1.237c0.005-0.017,0.005-0.034,0.005-0.052c0-0.277-0.253-0.502-0.57-0.502
			c-0.089,0-0.174,0.022-0.247,0.052c-0.229-0.234-0.556-0.381-0.932-0.381c-0.669,0-1.209,0.477-1.209,1.056
			c0,0.251,0.093,0.477,0.257,0.658c-0.281,0.307-0.479,0.675-0.56,1.082c-0.263-0.16-0.575-0.259-0.917-0.281
			c-0.029-0.766-0.753-1.372-1.635-1.372c-0.352,0-0.674,0.095-0.942,0.259c-0.089-0.173-0.193-0.328-0.312-0.485
			c0.153-0.117,0.252-0.294,0.252-0.484c0-0.363-0.336-0.654-0.742-0.654c-0.253,0-0.477,0.108-0.609,0.273
			c-0.303-0.152-0.639-0.26-0.996-0.321c0-0.017,0-0.035,0-0.052c0-0.528-0.48-0.961-1.08-0.975
			c0.039-0.082,0.059-0.167,0.059-0.263c0-0.364-0.332-0.654-0.742-0.654c-0.357,0-0.655,0.217-0.729,0.506
			c-0.093-0.013-0.192-0.021-0.292-0.021C497.07,7.795,496.614,7.997,496.312,8.318z"/>
		<path fill-rule="evenodd" clip-rule="evenodd" fill="#7ACCBC" d="M98.738,40.55c0.704-0.505,1.662-0.891,2.766-1.081
			c-0.817-0.612-1.308-1.384-1.308-2.222c0-0.226,0.032-0.445,0.103-0.659c-0.622-0.113-1.071-0.457-1.071-0.855
			c0-0.494,0.693-0.897,1.541-0.897c0.295,0,0.571,0.053,0.804,0.136c0.818-0.588,1.939-1.021,3.225-1.218
			c0-0.042-0.01-0.083-0.01-0.119c0-0.915,1.286-1.663,2.856-1.663c0.284,0,0.56,0.024,0.825,0.07
			c0.134-0.64,1.071-1.141,2.205-1.141c0.051,0,0.111,0,0.163,0.007c-0.082-0.137-0.123-0.279-0.123-0.433
			c0-0.744,1.03-1.343,2.296-1.343c1.254,0,2.275,0.588,2.305,1.319c0.132-0.012,0.265-0.019,0.407-0.019
			c0.97,0,1.849,0.232,2.47,0.601c0.246-0.095,0.54-0.154,0.867-0.154c0.825,0,1.489,0.393,1.489,0.868
			c0,0.071-0.011,0.143-0.031,0.202c1.641,0.268,2.978,0.956,3.641,1.854c0.541-0.392,1.357-0.642,2.286-0.642
			c0.97,0,1.826,0.279,2.354,0.707c0.277-0.362,0.899-0.611,1.625-0.611c0.815,0,1.508,0.327,1.712,0.766
			c0.237-0.018,0.47-0.018,0.715-0.018c2.907,0,5.356,1.158,6.027,2.732c0.063-0.006,0.134-0.012,0.195-0.012
			c0.845,0,1.53,0.404,1.53,0.903c0,0.22-0.144,0.427-0.376,0.582c0.418,0.22,0.784,0.47,1.082,0.749
			c0.499-0.22,1.091-0.369,1.732-0.422c0.44-0.767,1.673-1.313,3.132-1.313c0.377,0,0.735,0.036,1.061,0.095
			c-0.031-0.083-0.051-0.178-0.051-0.273c0-0.653,0.919-1.188,2.041-1.188c0.906,0,1.673,0.351,1.938,0.825
			c0.194-0.018,0.397-0.03,0.602-0.03c1.826,0,3.304,0.856,3.304,1.925c0,0.463-0.285,0.897-0.764,1.229
			c0.253,0.172,0.489,0.362,0.693,0.564c0.529-0.208,1.162-0.333,1.847-0.333c1.306,0,2.439,0.446,2.979,1.082
			c0.581-0.226,1.295-0.369,2.061-0.369c0.082,0,0.151,0.006,0.234,0.011c0.458-0.546,1.418-0.926,2.538-0.926
			c0.592,0,1.145,0.107,1.603,0.292c0.214-0.345,0.786-0.595,1.448-0.595c0.847,0,1.531,0.398,1.531,0.898
			c0,0.094-0.022,0.178-0.062,0.267c0.644,0.054,1.254,0.172,1.816,0.351c0.408-0.523,1.305-0.879,2.347-0.879
			c0.427,0,0.826,0.06,1.181,0.167c0.267-0.874,1.573-1.533,3.143-1.533c1.765,0,3.192,0.832,3.192,1.854
			c0,0.528-0.388,1.009-0.999,1.342c0.766,0.523,1.225,1.206,1.225,1.948c0,0.553-0.256,1.076-0.714,1.521
			c0.846,0.487,1.509,1.081,1.917,1.74c0.153-0.013,0.305-0.019,0.468-0.019c0.858,0,1.634,0.22,2.153,0.57
			c0.204-0.029,0.419-0.047,0.633-0.047c1.337,0,2.408,0.63,2.408,1.402c0,0.44-0.339,0.826-0.868,1.081
			c0.439,0.321,0.787,0.689,1,1.087c0.327-0.101,0.693-0.154,1.081-0.154c0.356,0,0.694,0.042,0.99,0.125
			c0.184-0.232,0.593-0.392,1.059-0.392c0.431,0,0.796,0.131,1,0.321c0.214-0.036,0.45-0.053,0.686-0.053
			c1.182,0,2.162,0.517,2.315,1.182c0.233,0.047,0.459,0.101,0.683,0.16c0.163-0.908,1.49-1.621,3.091-1.621
			c0.213,0,0.429,0.011,0.634,0.035c0.223-0.63,1.192-1.105,2.355-1.105c0.979,0,1.813,0.333,2.193,0.82
			c0.153-0.006,0.296-0.012,0.449-0.012c1.194,0,2.305,0.202,3.264,0.546c0.345-0.778,1.559-1.348,2.999-1.348
			c1.725,0,3.11,0.813,3.11,1.812c0,0.332-0.153,0.641-0.417,0.909c0.938,0.315,1.571,0.897,1.571,1.574
			c0,0.154-0.041,0.309-0.113,0.463c1.744,0.356,3.202,1.058,4.15,1.955c1.033-0.695,2.551-1.129,4.234-1.129h0.032
			c0.122-0.469,0.816-0.826,1.651-0.826c0.919,0,1.673,0.439,1.673,0.974c0,0.155-0.062,0.297-0.173,0.428
			c0.765,0.308,1.386,0.724,1.815,1.211c0.163-0.036,0.337-0.054,0.529-0.054c0.92,0,1.674,0.439,1.674,0.98
			c0,0.082-0.021,0.172-0.062,0.249c0.633,0.262,1.041,0.689,1.041,1.176c0,0.167-0.051,0.321-0.142,0.475
			c0.631,0.298,1.081,0.713,1.254,1.194c0.205-0.054,0.438-0.089,0.684-0.089c0.928,0,1.673,0.44,1.673,0.981
			c0,0.54-0.745,0.973-1.673,0.973c-0.47,0-0.889-0.113-1.184-0.292c-0.643,0.583-1.765,0.963-3.04,0.963
			c-0.98,0-1.867-0.226-2.521-0.594c-0.6,0.69-1.816,1.153-3.233,1.153h-0.01H4.744H4.734c-0.938,0-1.754-0.339-2.082-0.82
			c-1.072-0.095-1.906-0.642-1.906-1.295c0-0.078,0.02-0.154,0.039-0.226C0.316,61.773,0,61.477,0,61.138
			c0-0.511,0.714-0.926,1.591-0.926c0.022,0,0.04,0,0.062,0c0.141-0.19,0.357-0.357,0.623-0.494
			c-0.073-0.089-0.113-0.184-0.113-0.29c0-0.375,0.522-0.678,1.174-0.678c0.052,0,0.103,0,0.143,0
			c0.591-1.437,2.805-2.507,5.456-2.507c0.164,0,0.327,0.012,0.483,0.019c0.221-0.481,0.978-0.837,1.874-0.837
			c0.133,0,0.278,0.005,0.401,0.023c0.672-0.476,1.692-0.779,2.825-0.779c2.031,0,3.663,0.957,3.663,2.133
			c0.275-0.024,0.549-0.036,0.835-0.036c1.276,0,2.448,0.25,3.389,0.665c0-0.035,0-0.071,0-0.107c0-1.247,1.732-2.257,3.874-2.257
			c0.408,0,0.807,0.035,1.174,0.106c0.082-0.76,1.174-1.36,2.49-1.36c0.446,0,0.865,0.066,1.233,0.19
			c0.124-0.416,0.45-0.79,0.917-1.087c-0.204-0.125-0.324-0.291-0.324-0.475c0-0.208,0.161-0.392,0.407-0.517
			c-0.652-0.22-1.09-0.636-1.09-1.111c0-0.683,0.925-1.248,2.1-1.271c-0.051-0.084-0.071-0.173-0.071-0.268
			c0-0.481,0.673-0.874,1.508-0.874c0.673,0,1.245,0.256,1.43,0.612c0.754-0.22,1.59-0.339,2.489-0.339h0.04
			c0.265-0.641,1.255-1.117,2.428-1.117c1.377,0,2.498,0.654,2.498,1.449c0,0.042-0.009,0.083-0.009,0.119
			c0.165-0.023,0.327-0.035,0.51-0.035c1.204,0,2.183,0.569,2.183,1.277c0,0.071,0,0.142-0.02,0.208
			c0.448-0.065,0.93-0.107,1.428-0.107c0.563,0,1.104,0.048,1.613,0.142c0.112-0.927,1.233-1.687,2.734-1.912
			c-0.227-0.202-0.348-0.434-0.348-0.689c0-0.701,0.98-1.271,2.193-1.271c1.204,0,2.194,0.569,2.194,1.271
			c0,0.095-0.02,0.185-0.05,0.273c1.05,0.012,1.917,0.452,2.111,1.034c0.133,0.006,0.256,0.024,0.388,0.036
			c0.141-0.202,0.326-0.393,0.561-0.559c-0.194-0.125-0.307-0.285-0.307-0.464c0-0.38,0.521-0.688,1.162-0.688
			c0.471,0,0.878,0.166,1.063,0.393c0.355-0.061,0.723-0.096,1.112-0.096c0.224,0,0.438,0.011,0.641,0.035
			c0.307-0.594,1.032-1.08,1.979-1.336c0-0.042,0-0.078,0-0.125c0-0.796,1.112-1.449,2.489-1.449c0.215,0,0.42,0.018,0.611,0.047
			c0.757-0.855,2.144-1.485,3.796-1.698c0-0.023,0-0.047,0-0.072c0-0.38,0.52-0.689,1.173-0.689c0.184,0,0.358,0.03,0.51,0.071
			c0.459-0.315,1.151-0.522,1.918-0.522c1.377,0,2.499,0.653,2.499,1.455c0,0.339-0.204,0.654-0.54,0.897
			c0.582,0.427,0.989,0.932,1.152,1.485c0.54-0.22,1.183-0.357,1.877-0.386c0.071-1.046,1.56-1.883,3.376-1.883
			c0.725,0,1.388,0.13,1.938,0.356c0.183-0.231,0.396-0.451,0.641-0.659c-0.314-0.166-0.518-0.404-0.518-0.671
			c0-0.5,0.682-0.898,1.529-0.898c0.521,0,0.97,0.148,1.255,0.375c0.623-0.207,1.317-0.355,2.051-0.439
			c-0.011-0.024-0.011-0.047-0.011-0.071c0-0.726,0.999-1.319,2.245-1.337c-0.091-0.113-0.133-0.232-0.133-0.363
			c0-0.493,0.683-0.891,1.531-0.891c0.735,0,1.345,0.297,1.498,0.689c0.194-0.018,0.399-0.023,0.601-0.023
			C97.188,39.837,98.125,40.111,98.738,40.55z"/>
		<path fill-rule="evenodd" clip-rule="evenodd" fill="#7ACCBC" d="M637.179,48.745c-0.773-1.028-1.83-1.805-3.039-2.186
			c0.902-1.246,1.438-2.805,1.438-4.513c0-0.452-0.041-0.905-0.113-1.342c0.68-0.226,1.177-0.913,1.177-1.723
			c0-1.002-0.756-1.812-1.688-1.812c-0.334,0-0.635,0.104-0.895,0.27c-0.892-1.184-2.126-2.065-3.547-2.482
			c0.007-0.07,0.014-0.147,0.014-0.226c0-1.864-1.412-3.373-3.14-3.373c-0.316,0-0.627,0.053-0.91,0.15
			c-0.139-1.307-1.177-2.317-2.429-2.317c-0.056,0-0.113,0.008-0.176,0.018c0.096-0.279,0.137-0.576,0.137-0.888
			c0-1.5-1.128-2.718-2.525-2.718c-1.381,0-2.509,1.194-2.533,2.666c-0.146-0.018-0.302-0.025-0.454-0.025
			c-1.064,0-2.03,0.46-2.722,1.21c-0.268-0.191-0.592-0.314-0.949-0.314c-0.909,0-1.642,0.792-1.642,1.77
			c0,0.139,0.011,0.277,0.041,0.408c-1.812,0.541-3.28,1.935-4.018,3.746c-0.585-0.784-1.485-1.289-2.502-1.289
			c-1.072,0-2.013,0.558-2.598,1.428c-0.309-0.731-0.991-1.237-1.788-1.237c-0.9,0-1.655,0.654-1.882,1.551
			c-0.26-0.035-0.52-0.052-0.779-0.052c-3.208,0-5.895,2.368-6.642,5.548c-0.064-0.009-0.139-0.009-0.212-0.009
			c-0.926,0-1.689,0.81-1.689,1.813c0,0.452,0.162,0.871,0.423,1.192c-0.47,0.436-0.876,0.95-1.2,1.516
			c-0.536-0.444-1.186-0.758-1.901-0.863c-0.486-1.551-1.844-2.664-3.449-2.664c-0.408,0-0.807,0.068-1.163,0.208
			c0.032-0.175,0.058-0.367,0.058-0.558c0-1.324-1.006-2.404-2.25-2.404c-0.99,0-1.833,0.697-2.126,1.664
			c-0.221-0.043-0.439-0.062-0.666-0.062c-2.015,0-3.638,1.743-3.638,3.895c0,0.949,0.324,1.82,0.844,2.499
			c-0.284,0.349-0.536,0.741-0.762,1.15c-0.587-0.418-1.285-0.671-2.03-0.671c-1.446,0-2.681,0.897-3.273,2.186
			c-0.648-0.47-1.429-0.74-2.273-0.74c-0.088,0-0.171,0-0.25,0.008c-0.505-1.115-1.568-1.871-2.795-1.871
			c-0.657,0-1.266,0.216-1.771,0.591c-0.226-0.705-0.86-1.202-1.591-1.202c-0.935,0-1.688,0.81-1.688,1.813
			c0,0.183,0.024,0.375,0.081,0.548c-0.723,0.105-1.396,0.348-2.014,0.698c-0.446-1.046-1.429-1.777-2.581-1.777
			c-0.472,0-0.911,0.124-1.301,0.34c-0.291-1.769-1.721-3.111-3.457-3.111c-1.934,0-3.51,1.691-3.51,3.764
			c0,1.071,0.424,2.038,1.098,2.726c-0.836,1.062-1.341,2.43-1.341,3.937c0,1.123,0.276,2.186,0.779,3.093
			c-0.925,0.975-1.655,2.178-2.11,3.527c-0.163-0.027-0.342-0.043-0.511-0.043c-0.949,0-1.796,0.453-2.364,1.166
			c-0.226-0.068-0.456-0.104-0.697-0.104c-1.472,0-2.656,1.27-2.656,2.848c0,0.878,0.374,1.663,0.969,2.187
			c-0.489,0.644-0.871,1.392-1.107,2.195c-0.356-0.193-0.764-0.315-1.2-0.315c-0.39,0-0.747,0.096-1.088,0.263
			c-0.195-0.472-0.651-0.803-1.17-0.803c-0.454,0-0.867,0.261-1.097,0.663c-0.235-0.079-0.479-0.123-0.738-0.123
			c-1.315,0-2.386,1.047-2.558,2.404c-0.251,0.087-0.512,0.2-0.754,0.321c-0.181-1.836-1.633-3.283-3.396-3.283
			c-0.243,0-0.47,0.035-0.695,0.079c-0.254-1.289-1.317-2.257-2.601-2.257c-1.071,0-1.997,0.689-2.411,1.673
			c-0.163-0.018-0.316-0.018-0.479-0.018c-1.323,0-2.549,0.402-3.605,1.089c-0.388-1.568-1.72-2.726-3.296-2.726
			c-1.902,0-3.427,1.654-3.427,3.676c0,0.67,0.162,1.298,0.456,1.836c-1.022,0.636-1.722,1.824-1.722,3.188
			c0,0.323,0.047,0.637,0.12,0.941c-1.907,0.725-3.523,2.142-4.572,3.963c-1.125-1.394-2.791-2.281-4.659-2.281h-0.016
			c-0.14-0.951-0.909-1.673-1.827-1.673c-1.015,0-1.844,0.888-1.844,1.977c0,0.305,0.065,0.604,0.195,0.863
			c-0.845,0.626-1.534,1.464-1.997,2.448c-0.187-0.062-0.372-0.097-0.584-0.097c-1.018,0-1.835,0.888-1.835,1.97
			c0,0.191,0.017,0.366,0.064,0.522c-0.699,0.531-1.153,1.394-1.153,2.369c0,0.349,0.058,0.663,0.153,0.966
			c-0.689,0.6-1.186,1.454-1.37,2.431c-0.229-0.114-0.488-0.174-0.749-0.174c-1.022,0-1.85,0.888-1.85,1.968
			c0,1.098,0.827,1.987,1.85,1.987c0.504,0,0.966-0.228,1.301-0.584c0.714,1.175,1.939,1.941,3.345,1.941
			c1.071,0,2.055-0.453,2.769-1.201c0.657,1.394,2.004,2.343,3.548,2.343h0.025h240.573h0.018c1.032,0,1.915-0.688,2.282-1.665
			c1.193-0.2,2.101-1.306,2.101-2.63c0-0.156-0.016-0.312-0.04-0.452c0.513-0.332,0.853-0.94,0.853-1.621
			c0-1.045-0.779-1.882-1.754-1.882c-0.018,0-0.041,0-0.064,0c-0.146-0.382-0.383-0.724-0.675-0.992
			c0.075-0.174,0.123-0.382,0.123-0.593c0-0.767-0.576-1.375-1.283-1.375c-0.066,0-0.112,0-0.172,0.009
			c-0.639-2.918-3.083-5.079-5.999-5.079c-0.179,0-0.356,0.007-0.528,0.024c-0.242-0.984-1.079-1.696-2.062-1.696
			c-0.154,0-0.301,0.018-0.446,0.051c-0.73-0.959-1.852-1.576-3.102-1.576c-2.226,0-4.037,1.933-4.037,4.321
			c-0.299-0.044-0.6-0.07-0.908-0.07c-1.404,0-2.703,0.503-3.742,1.35c0.007-0.07,0.007-0.147,0.007-0.226
			c0-2.519-1.908-4.563-4.263-4.563c-0.455,0-0.886,0.069-1.299,0.207c-0.083-1.533-1.276-2.751-2.729-2.751
			c-0.496,0-0.959,0.141-1.355,0.382c-0.131-0.845-0.496-1.603-1.009-2.213c0.22-0.244,0.357-0.584,0.357-0.949
			c0-0.426-0.179-0.801-0.453-1.054c0.721-0.452,1.2-1.289,1.2-2.246c0-1.395-1.021-2.527-2.314-2.58
			c0.058-0.173,0.081-0.347,0.081-0.538c0-0.985-0.736-1.778-1.655-1.778c-0.747,0-1.372,0.522-1.584,1.236
			c-0.818-0.435-1.744-0.679-2.728-0.679h-0.057c-0.275-1.297-1.363-2.266-2.662-2.266c-1.52,0-2.745,1.326-2.745,2.944
			c0,0.079,0,0.156,0.007,0.237c-0.177-0.044-0.365-0.07-0.559-0.07c-1.333,0-2.404,1.158-2.404,2.588c0,0.137,0,0.286,0.033,0.425
			c-0.503-0.139-1.039-0.216-1.576-0.216c-0.616,0-1.218,0.095-1.785,0.279c-0.124-1.875-1.357-3.417-3.005-3.867
			c0.243-0.412,0.381-0.889,0.381-1.398c0-1.426-1.078-2.594-2.411-2.594c-1.332,0-2.412,1.168-2.412,2.594
			c0,0.183,0.025,0.368,0.057,0.542c-1.151,0.026-2.111,0.924-2.32,2.099c-0.148,0.018-0.294,0.044-0.423,0.079
			c-0.162-0.419-0.374-0.802-0.635-1.142c0.221-0.253,0.351-0.575,0.351-0.94c0-0.759-0.577-1.385-1.291-1.385
			c-0.512,0-0.958,0.33-1.17,0.793c-0.381-0.123-0.795-0.183-1.217-0.183c-0.242,0-0.472,0.016-0.707,0.051
			c-0.332-1.201-1.129-2.178-2.184-2.699c0.015-0.08,0.015-0.158,0.015-0.246c0-1.628-1.233-2.943-2.744-2.943
			c-0.234,0-0.462,0.034-0.682,0.088c-0.828-1.727-2.355-3.015-4.174-3.434c0.009-0.053,0.009-0.104,0.009-0.156
			c0-0.766-0.576-1.385-1.29-1.385c-0.196,0-0.392,0.053-0.568,0.149c-0.503-0.653-1.26-1.063-2.112-1.063
			c-1.51,0-2.735,1.314-2.735,2.944c0,0.686,0.219,1.322,0.594,1.829c-0.642,0.852-1.09,1.88-1.269,2.995
			c-0.6-0.443-1.306-0.731-2.078-0.784c-0.08-2.116-1.705-3.816-3.702-3.816c-0.797,0-1.535,0.271-2.143,0.725
			c-0.196-0.472-0.431-0.915-0.699-1.334c0.349-0.339,0.567-0.817,0.567-1.367c0-1.002-0.755-1.812-1.688-1.812
			c-0.569,0-1.064,0.296-1.365,0.757c-0.696-0.417-1.462-0.722-2.266-0.889c0.008-0.052,0.008-0.095,0.008-0.139
			c0-1.481-1.096-2.683-2.461-2.717c0.092-0.227,0.141-0.469,0.141-0.73c0-1.012-0.748-1.813-1.691-1.813
			c-0.794,0-1.478,0.593-1.638,1.412c-0.219-0.053-0.439-0.07-0.667-0.07C638.889,47.291,637.858,47.857,637.179,48.745z"/>
	</g>
</g>
</svg>
