<?xml version="1.0" encoding="utf-8"?>
<!-- Generator: Adobe Illustrator 16.0.0, SVG Export Plug-In . SVG Version: 6.00 Build 0)  -->
<!DOCTYPE svg PUBLIC "-//W3C//DTD SVG 1.1//EN" "http://www.w3.org/Graphics/SVG/1.1/DTD/svg11.dtd">
<svg version="1.1" id="Layer_1" xmlns="http://www.w3.org/2000/svg" xmlns:xlink="http://www.w3.org/1999/xlink" x="0px" y="0px"
	 width="1000px" height="258.711px" viewBox="0 0 1000 258.711" enable-background="new 0 0 1000 258.711" xml:space="preserve">
<g>
	<defs>
		<rect id="SVGID_1_" width="1000" height="258.711"/>
	</defs>
	<clipPath id="SVGID_2_">
		<use xlink:href="#SVGID_1_"  overflow="visible"/>
	</clipPath>
	<g clip-path="url(#SVGID_2_)">
		<g>
			<g>
				<linearGradient id="SVGID_3_" gradientUnits="userSpaceOnUse" x1="519.0146" y1="158.1914" x2="522.0497" y2="189.2964">
					<stop  offset="0" style="stop-color:#EBC765"/>
					<stop  offset="1" style="stop-color:#FFF086"/>
				</linearGradient>
				<path fill="url(#SVGID_3_)" d="M588.4,203.849l92.691-39.679c8.23-1.925-59.643,14.797-100.793-0.84
					c-10.344,4.331-23.396-12.949-24.594-13.477c-29.617,18.032-56.246,5.556-56.246,5.556s-15.15,9.517-22.854,8.757
					c0,0-37.472-15.234-41.424-9.49c0,0-44.854,28.541-75.278,25.552c-10.396-1.021,69.455,24.824,118.067,27.025
					C494.77,208.013,588.4,203.849,588.4,203.849z"/>
				<path fill="#FFE05C" d="M505.672,157.786c0,0,5.279,3.219,16.273,11.948c7.998,2.549,10.223,5.876,10.223,5.876
					s-8.313-4.563-14.619-5.696c-2.389-2.831-6.73-5.923-6.73-5.923s2.65,6.623,5.156,9.089c1.875,1.847,4.615,4.46,4.615,4.46
					s-6.598-4.066-9.709-7.745c-3.109-3.679-7.092-8.112-8.197-8.31c-1.109-0.199,3.383-0.439,4.422,0.793
					c1.045,1.236-8.545-6.945-7.288-6.72C501.063,155.781,505.672,157.786,505.672,157.786z"/>
			</g>
			<path fill="#FFE05C" d="M443.63,153.523c0,0,24.035,6.166,32.497,10.911c5.3,4.742,13.827,8.921,13.827,8.921
				s-10.003-5.306-17.015-9.266c-7.021-3.959-20.885-5.336-18.787-3.661c2.104,1.677,1.451,7.961,1.451,7.961
				s-5.023-10.662-7.392-10.662C445.327,157.728,438.519,152.037,443.63,153.523z"/>
		</g>
		<path fill="#FFE05C" d="M555.705,149.854c0,0,14.203,9.388,18.285,12.195c4.084,2.813,6.309,1.281,6.309,1.281
			s22.021,9.357,21.523,9.7c-1.572,1.082-21.15-7.914-21.15-6.638c0,1.278-14.107-5.107-18.189-7.917
			c-4.08-2.811-3.623-3.471-3.623-3.471s15.117,12.564,19.734,18.438c-13.102-9.021-24.652-14.967-24.652-17.011
			C553.941,154.386,555.705,149.854,555.705,149.854z"/>
	</g>
	<g clip-path="url(#SVGID_2_)">
		<g>
			<linearGradient id="SVGID_4_" gradientUnits="userSpaceOnUse" x1="338.0244" y1="131.126" x2="342.8465" y2="180.5454">
				<stop  offset="0" style="stop-color:#C5B853"/>
				<stop  offset="1" style="stop-color:#D9BB5D"/>
			</linearGradient>
			<path fill="url(#SVGID_4_)" d="M212.977,156.876c0,0,38.245-20.76,66.163-39.619c11.837-5.932,35.105,23.811,35.105,23.811
				s21.439,9.908,23.819,14.084c0,0,16.649-17.777,18.953-10.158c0,0,77.358,51.207,114.294,54.974
				c12.619,1.285-91.624,12.312-149.594,3.299C301.677,200.146,211.894,164.812,212.977,156.876z"/>
			<path fill="#FFCD5C" d="M294.816,121.784c0,0,8.718,5.956,26.677,22.813c13.357,5.706,27.285,18.907,27.285,18.907
				s-24.146-16.42-34.771-17.614c-3.832-5.703-10.951-11.582-10.951-11.582s3.957,13.951,8.017,18.84
				c3.03,3.653,7.475,8.81,7.475,8.81s-10.883-7.549-15.86-14.963c-4.981-7.417-11.387-16.307-13.248-16.517
				c-1.868-0.211,5.784-1.646,7.454,0.837c1.672,2.489-3.825-9.032-11.682-14.421C287.315,117.13,294.816,121.784,294.816,121.784z"
				/>
		</g>
		<path fill="#FFE05C" d="M356.754,143.434c0,0,24.15,15.038,35.784,21.916c11.631,6.878,51.234,26.714,51.234,26.714
			s-51.785-20.529-61.423-26.256c-9.638-5.732-22.601-12.043-19.939-9.75c2.657,2.293,12.629,10.896,12.629,10.896
			s-14.954-8.885-17.945-11.465C354.103,152.905,349.749,139.236,356.754,143.434z"/>
	</g>
	
		<linearGradient id="SVGID_5_" gradientUnits="userSpaceOnUse" x1="831.0879" y1="57.8574" x2="540.0332" y2="109.7367" gradientTransform="matrix(-0.8491 0 0 1 681.3232 0)">
		<stop  offset="0" style="stop-color:#A99F2E"/>
		<stop  offset="0.9944" style="stop-color:#E1D90E"/>
	</linearGradient>
	<path clip-path="url(#SVGID_2_)" fill="url(#SVGID_5_)" d="M222.481,171.67c1.988-1.229,6.622-8.302,0.208-9.225
		c1.523-2.998,2.515-11.584-0.244-9.447c3.968-1.938,1.335-9.361-2.58-6.588c3.166-0.547,0.423-6.925-1.191-6.712
		c2.745-1.114,1.206-6.455-1.776-5.373c3.459,0.306,5.867-3.06,3.979-8.271c-1.48-4.088-5.459-3.771-6.59,1.528
		c1.217-4.02-0.748-6.09-3.345-3.89c1.176-1.789,1.264-5.016-0.368-5.355c0.759-0.996,1.977-2.361,1.695-4.444
		c-0.506-3.747-2.763-1.626-3.861-0.47c1.697-1.229,2.054-2.773,1.463-5.926c-1.854-0.967-2.942-2.15-3.32,1.451
		c0.153-1.155,0.006-2.29-0.84-3.092c-1.342-1.086-0.957-0.831-1.749,0.901c0.39-2.903-0.724-4.583-2.537-3.206
		c1.886-2,1.596-5.292-1.188-4.221c0.014,0.253-0.068-1.576-0.099-1.373c2.6-3.956,3.737-3.146,2.819-8.808
		c-1.499-9.265-7.846-7.334-9.766,0.063c-0.599-4.687-4.756-7.813-6.213-2.161c0.177-2.083,0.799-4.142,0.625-6.362
		c-0.887,0.638-1.864,0.977-2.597,2.501c5.03-5.519-4.033-8.163-3.986-2.19c-0.135-3.551-3.425-7.152-4.728-2.729
		c0.413-2.344,0.604-11.971-1.172-7.404c-0.034-5.316-0.354-11.445-4.815-12.626c-2.334-0.616-6.459,1.673-6.251,5.767
		c0.486-7.581-5.071-1.621-5.818,1.766c0.099-0.902-0.156-2.22-0.138-3.161c-1.056,0.563-1.977,0.345-2.92,1.911
		c0.213-2.563,0.108-5.184-0.794-7.42c-0.462,0.654-0.966,0.534-1.411,1.821c0.65-3.241-0.293-5.684-2.212-3.713
		c0.545-5.858-4.385-18.035-7.304-8.729c1.015-9.838-7.971-8.918-6.687-0.559c-1.208-3.668-4.268,0.992-4.432,3.847
		c0.255-5.373-4.659-2.854-5.162-0.863c0.369-2.698-0.058-7.092-2.233-4.657c0.661-6.004-5.224-7.061-7.684-4.176
		c-1.725,2.023-1.702,7.054-1.536,10.232c0.221-0.992-0.737,1.742-0.667,0.789c-1.588,0.708-2.143,0.042-2.957,2.497
		c-0.57-6.481-6.246-3.979-6.614,0.162c1.211-2.549,2.019-11.106-1.49-7.163c0.031-3.569-1.979-4.378-3.448-6.461
		c-1.081,0.688-2.111,2.063-2.764,3.652c3.213-7.828-4.642-4.018-6.419-1.725c0.57-3.906-1.782-6.627-3.964-7.404
		c-0.095,1.043-0.129,2.149,0.009,3.199c1.94-2.171,2.225-11.875-1.61-10.402c1.281-0.416,3.088-3.253,3.407-6.15
		c0.565-5.137-0.677-5.552-3.92-6.269c-0.201,0.879-1.573,0.341-1.657,1.278c0.387-2.957-1.094-4.843-2.224-4.108
		c-0.846,0.105-1.817,1.515-1.815,2.479c0.154-1.155,0.193-2.271-1.076-2.9c-1.681,0.517-1.91,2.097-2.82,4.119
		c1.786-4.784,0.582-7.907-2.896-9.781c-1.621-0.733-2.544,0.203-3.182,2.419c0.061-3.501-0.415-8.289-2.884-8.499
		c-2.271-0.192-2.281,2.635-2.254,5.875c0.108-1.505-1.217-1.5-1.414-2.834c-1.398,1.542-1.759,2.736-1.538,5.574
		c-0.201-4.34-3.236-2.446-4.082,0.548c-0.073-5.659-3.341-5.283-4.11-0.963c0.064-3.692,0.162-5.539-2.509-5.572
		c-2.117-0.028-1.391,1.384-3.272,2.413c-0.121,2.551-0.646,3.242,0.343,5.969c-0.008-0.231-1.447,2.914-1.411,2.726
		c-2.611-0.837-2.963,2.621-1.129,4.509c-2.893-3.46-4.232-0.209-4.506,4.084c1.157-6.426-6.625-9.232-6.639-3.272
		c2.237-6.005-5.488-8.251-5.506-3.316c1.097-12.368-9.901-3.157-6.713,1.782c0.019-0.856-1.494,0.059-1.54-0.432
		c-1.295,2.224-0.727,1.785-0.569,4.8c-2.247-2.188-1.893,4.45-1.265,2.853c-1.791,1.039-3.232,0.557-3.541,3.602
		c-1.907-8.273-5.068-7.404-8.551-1.644c1.914-5.022-2.794-4.997-2.657-3.275c0.099-0.392-1.874,0.008-1.754-0.314
		c-0.812-0.396-1.491,0.514-1.961,0.87v115.932L222.481,171.67z"/>
	<linearGradient id="SVGID_6_" gradientUnits="userSpaceOnUse" x1="188.6118" y1="83.0635" x2="-1.4668" y2="116.9442">
		<stop  offset="0" style="stop-color:#78742F"/>
		<stop  offset="1" style="stop-color:#79963F"/>
	</linearGradient>
	<path clip-path="url(#SVGID_2_)" fill="url(#SVGID_6_)" d="M0.166,42.622c0,0,119.483,23.565,187.028,116.14L0.166,176.466V41.206
		V42.622z"/>
	
		<linearGradient id="SVGID_7_" gradientUnits="userSpaceOnUse" x1="268.7441" y1="151.8691" x2="-112.9456" y2="89.4116" gradientTransform="matrix(0.6727 -0.0208 -0.3875 0.8417 11.0765 -15.657)">
		<stop  offset="0" style="stop-color:#B3A900"/>
		<stop  offset="1" style="stop-color:#978100"/>
	</linearGradient>
	<path clip-path="url(#SVGID_2_)" fill="url(#SVGID_7_)" d="M18.229,55.582c8.364,1.728,19.755,4.675,33.378,9.573
		c9.659,3.474,20.439,7.927,32.061,13.618c4.009,1.964-37.255-9.216-33.057-6.946c4.539,2.453,54.553,18.382,59.283,21.219
		c7.146,4.284,14.491,9.021,21.99,14.257c0.687,0.48-50.646-18.245-49.957-17.757c5.589,3.956,63.28,27.4,69.012,31.933
		c7.382,5.837,0.121,16.485,7.659,23.348c0,0,34.176,17.139,24.899,8.111c-9-15.5-33.641-38.186-43.416-45.774
		c-8.308-12.395-18.527-12.719-26.896-18.082c-6.823-4.374-14.238-10.613-22.197-14.826C79.28,62.288,63.916,57.111,47.936,51.604
		c-13.867-4.779-29.251-3.16-45.333-6.088c0,0-6.18,7.766,0.403,7.82C4.526,53.349,9.865,53.855,18.229,55.582z"/>
	<linearGradient id="SVGID_8_" gradientUnits="userSpaceOnUse" x1="431.377" y1="153.7529" x2="2.7563" y2="230.1527">
		<stop  offset="0" style="stop-color:#747347"/>
		<stop  offset="0.9944" style="stop-color:#466E38"/>
	</linearGradient>
	<path clip-path="url(#SVGID_2_)" fill="url(#SVGID_8_)" d="M0.166,132.049c0,0,241.733,3.086,411.162,97.853L0.166,329.181V132.049
		z"/>
	<linearGradient id="SVGID_9_" gradientUnits="userSpaceOnUse" x1="415.1348" y1="170.4902" x2="382.672" y2="305.1161">
		<stop  offset="0" style="stop-color:#91A43C"/>
		<stop  offset="1" style="stop-color:#587840"/>
	</linearGradient>
	<path clip-path="url(#SVGID_2_)" fill="url(#SVGID_9_)" d="M0.154,292.065c0,0,306.859-124.561,426.802-109.777
		c42.101,5.189,76.503,5.93,91.28,8.249c36.973-6.666,162.934-15.978,181.41,1.937l59.994,148.698L0.166,341.187L0.154,292.065z"/>
	<linearGradient id="SVGID_10_" gradientUnits="userSpaceOnUse" x1="336.8521" y1="176.0918" x2="334.0987" y2="207.9539">
		<stop  offset="0" style="stop-color:#A4A900"/>
		<stop  offset="1" style="stop-color:#4E5B00"/>
	</linearGradient>
	<path clip-path="url(#SVGID_2_)" fill="url(#SVGID_10_)" d="M467.565,190.688c15.233-2.801,38.657-1.122,43.788-0.86
		c-1.732-0.272-3.559-0.824-5.908-1.097c-31.07-3.603-104.362-10.776-137.752-5.733c-79.612,12.023-154.445,31.857-211.679,52.689
		c0,0,89.293-23.576,122.765-28.616c12.986-1.955-12.172,6.939,0.655,5.119c37.387-5.306,48.26-16.237,36.623-1.509
		c27.577-16.04,49.6-16.038,47.865-15.385c-13.361,1.294-23.913,10.825-37.824,23.78c23.332-13.284,44.56-20.357,71.696-24.235
		c7.189-1.026-9.917,5.565-17.441,14.174c7.524-3.056,44.118-16.105,66.834-17.465C451.612,189.371,449.438,194.021,467.565,190.688
		z"/>
	<linearGradient id="SVGID_11_" gradientUnits="userSpaceOnUse" x1="1039.5449" y1="75.0469" x2="630.5353" y2="147.9511">
		<stop  offset="0" style="stop-color:#8D972E"/>
		<stop  offset="1" style="stop-color:#DCB60E"/>
	</linearGradient>
	<path clip-path="url(#SVGID_2_)" fill="url(#SVGID_11_)" d="M628.779,221.306c-3.32-1.562-11.059-10.558-0.346-11.731
		c-2.545-3.811-4.201-14.731,0.406-12.013c-6.625-2.466-2.23-11.906,4.309-8.379c-5.285-0.695-0.705-8.805,1.99-8.535
		c-4.586-1.416-2.016-8.21,2.967-6.833c-5.777,0.389-9.797-3.892-6.645-10.519c2.475-5.198,9.117-4.796,11.004,1.944
		c-2.031-5.111,1.252-7.743,5.588-4.946c-1.965-2.274-2.111-6.38,0.615-6.811c-1.27-1.268-3.303-3.004-2.834-5.652
		c0.846-4.766,4.617-2.067,6.449-0.597c-2.834-1.563-3.428-3.528-2.443-7.537c3.096-1.228,4.912-2.734,5.545,1.846
		c-0.256-1.468-0.008-2.911,1.406-3.931c2.238-1.383,1.598-1.058,2.92,1.146c-0.652-3.693,1.207-5.829,4.234-4.078
		c-3.148-2.542-2.666-6.728,1.984-5.368c-0.021,0.324,0.115-2.004,0.168-1.746c-4.344-5.03-6.244-3.999-4.713-11.199
		c2.506-11.783,13.104-9.329,16.311,0.08c1.002-5.961,7.945-9.936,10.377-2.748c-0.297-2.648-1.334-5.268-1.045-8.092
		c1.48,0.813,3.115,1.242,4.338,3.181c-8.402-7.017,6.734-10.38,6.656-2.784c0.227-4.517,5.719-9.098,7.895-3.472
		c-0.689-2.98-1.008-15.223,1.957-9.415c0.057-6.763,0.588-14.557,8.041-16.057c3.898-0.783,10.785,2.127,10.438,7.332
		c-0.811-9.64,8.471-2.061,9.717,2.246c-0.164-1.149,0.262-2.823,0.232-4.02c1.762,0.716,3.299,0.438,4.875,2.431
		c-0.355-3.259-0.18-6.593,1.324-9.437c0.773,0.833,1.613,0.68,2.359,2.315c-1.086-4.12,0.488-7.227,3.693-4.722
		c-0.912-7.45,7.322-22.935,12.197-11.101c-1.693-12.511,13.309-11.343,11.166-0.712c2.016-4.666,7.129,1.264,7.4,4.895
		c-0.426-6.834,7.781-3.631,8.619-1.1c-0.613-3.431,0.098-9.02,3.73-5.923c-1.104-7.634,8.725-8.979,12.834-5.308
		c2.877,2.57,2.84,8.967,2.563,13.01c-0.367-1.262,1.232,2.217,1.113,1.004c2.652,0.9,3.58,0.055,4.941,3.177
		c0.949-8.245,10.432-5.063,11.045,0.205c-2.023-3.241-3.373-14.123,2.488-9.108c-0.055-4.541,3.305-5.568,5.758-8.217
		c1.805,0.873,3.525,2.622,4.617,4.646c-5.367-9.956,7.75-5.109,10.719-2.193c-0.955-4.97,2.977-8.429,6.619-9.417
		c0.158,1.326,0.215,2.733-0.014,4.068c-3.242-2.762-3.717-15.103,2.689-13.229c-2.141-0.53-5.158-4.137-5.691-7.823
		c-0.943-6.531,1.131-7.06,6.547-7.972c0.336,1.118,2.627,0.435,2.768,1.627c-0.646-3.761,1.828-6.16,3.711-5.227
		c1.416,0.135,3.035,1.925,3.031,3.155c-0.256-1.47-0.32-2.89,1.799-3.689c2.807,0.657,3.189,2.667,4.711,5.238
		c-2.982-6.085-0.973-10.057,4.834-12.438c2.709-0.933,4.25,0.259,5.314,3.074c-0.102-4.451,0.693-10.54,4.816-10.808
		c3.793-0.244,3.811,3.351,3.764,7.472c-0.182-1.914,2.031-1.907,2.361-3.604c2.336,1.959,2.938,3.479,2.568,7.089
		c0.336-5.521,5.404-3.11,6.818,0.696c0.121-7.196,5.576-6.719,6.863-1.224c-0.107-4.695-0.271-7.046,4.189-7.088
		c3.535-0.034,2.32,1.761,5.465,3.069c0.201,3.244,1.078,4.124-0.572,7.59c0.014-0.295,2.416,3.707,2.357,3.467
		c4.359-1.065,4.947,3.334,1.883,5.734c4.83-4.4,7.07-0.268,7.525,5.194c-1.934-8.173,11.063-11.741,11.086-4.161
		c-3.736-7.639,9.166-10.494,9.195-4.221c-1.832-15.728,16.535-4.013,11.211,2.269c-0.033-1.091,2.494,0.073,2.57-0.55
		c2.164,2.828,1.215,2.271,0.953,6.105c3.752-2.782,3.16,5.66,2.111,3.627c2.99,1.323,5.398,0.706,5.912,4.579
		c3.184-10.52,8.465-9.414,14.279-2.089c-3.195-6.389,4.668-6.355,4.439-4.164c-0.166-0.5,3.129,0.008,2.93-0.401
		c1.354-0.504,2.49,0.653,3.273,1.106v147.434L628.779,221.306z"/>
	<linearGradient id="SVGID_12_" gradientUnits="userSpaceOnUse" x1="1039.6123" y1="105.9248" x2="630.1302" y2="178.9132">
		<stop  offset="0" style="stop-color:#68742E"/>
		<stop  offset="1" style="stop-color:#BBAE0E"/>
	</linearGradient>
	<path clip-path="url(#SVGID_2_)" fill="url(#SVGID_12_)" d="M623.498,242.43c-3.32-1.563-2.264-8.851,1.906-7.943
		c-2.545-3.812-1.172-8.665,3.436-5.946c-6.625-2.467-2.23-11.905,4.309-8.38c-5.285-0.696-0.705-8.804,1.99-8.534
		c-4.586-1.415-2.016-8.211,2.967-6.831c-5.777,0.386-9.797-3.892-6.645-10.521c2.475-5.198,9.117-4.793,11.004,1.944
		c-2.031-5.11,1.252-7.743,5.588-4.947c-1.965-2.273-2.111-6.379,0.615-6.808c-1.27-1.268-3.303-3.006-2.834-5.653
		c0.846-4.766,4.617-2.067,6.449-0.596c-2.834-1.563-3.428-3.529-2.443-7.536c3.096-1.229,4.912-2.736,5.545,1.845
		c-0.256-1.467-0.008-2.913,1.406-3.932c2.238-1.381,1.598-1.059,2.92,1.145c-0.652-3.693,1.207-5.827,4.234-4.077
		c-3.148-2.542-2.666-6.728,1.984-5.369c-0.021,0.325,0.115-2.003,0.168-1.746c-4.344-5.028-6.244-3.998-4.713-11.197
		c2.506-11.783,13.104-9.331,16.311,0.081c1.002-5.963,7.945-9.937,10.377-2.751c-0.297-2.647-1.334-5.267-1.045-8.092
		c1.48,0.812,3.115,1.243,4.338,3.183c-8.402-7.018,6.734-10.381,6.656-2.786c0.227-4.515,5.719-9.097,7.895-3.472
		c-0.689-2.979-1.008-15.222,1.957-9.414c0.057-6.761,0.588-14.556,8.041-16.058c3.898-0.781,10.785,2.127,10.438,7.333
		c-0.811-9.639,8.471-2.061,9.717,2.246c-0.164-1.15,0.262-2.823,0.232-4.019c1.762,0.716,3.299,0.437,4.875,2.431
		c-0.355-3.26-0.18-6.595,1.324-9.438c0.773,0.833,1.613,0.68,2.359,2.318c-1.086-4.122,0.488-7.228,3.693-4.724
		c-0.912-7.45,7.322-22.935,12.197-11.102c-1.693-12.51,13.309-11.343,11.166-0.711c2.016-4.665,7.129,1.265,7.4,4.895
		c-0.426-6.834,7.781-3.63,8.619-1.098c-0.613-3.432,0.098-9.021,3.73-5.926c-1.104-7.635,8.725-8.978,12.834-5.309
		c2.877,2.573,2.84,8.968,2.563,13.011c-0.367-1.261,1.232,2.217,1.113,1.005c2.652,0.899,3.58,0.055,4.941,3.176
		c0.949-8.242,10.432-5.063,11.045,0.205c-2.023-3.241-3.373-14.121,2.488-9.107c-0.055-4.543,3.305-5.568,5.758-8.218
		c1.805,0.874,3.525,2.624,4.617,4.646c-5.367-9.957,7.75-5.107,10.719-2.192c-0.955-4.971,2.977-8.429,6.619-9.417
		c0.158,1.326,0.215,2.734-0.014,4.067c-3.242-2.761-3.717-15.102,2.689-13.228c-2.141-0.531-5.158-4.135-5.691-7.822
		c-0.943-6.531,1.131-7.061,6.547-7.973c0.336,1.117,2.627,0.435,2.768,1.629c-0.646-3.764,1.828-6.163,3.711-5.229
		c1.416,0.135,3.035,1.925,3.031,3.158c-0.256-1.473-0.32-2.891,1.799-3.689c2.807,0.656,3.189,2.665,4.711,5.236
		c-2.982-6.085-0.973-10.056,4.834-12.437c2.709-0.934,4.25,0.258,5.314,3.074c-0.102-4.453,0.693-10.542,4.816-10.808
		c3.793-0.246,3.811,3.352,3.764,7.47c-0.182-1.912,2.031-1.907,2.361-3.604c2.336,1.961,2.938,3.479,2.568,7.088
		c0.336-5.518,5.404-3.109,6.818,0.695c0.121-7.193,5.576-6.717,6.863-1.223c-0.107-4.693-0.271-7.047,4.189-7.088
		c3.535-0.034,2.32,1.763,5.465,3.07c0.201,3.242,1.078,4.124-0.572,7.591c0.014-0.295,2.416,3.707,2.357,3.465
		c4.359-1.064,4.947,3.333,1.883,5.734c4.83-4.4,7.07-0.266,7.525,5.196c-1.934-8.174,11.063-11.743,11.086-4.163
		c-3.736-7.638,9.166-10.493,9.195-4.218c-1.832-15.729,16.535-4.016,11.211,2.266c-0.033-1.09,2.494,0.074,2.57-0.549
		c2.164,2.828,1.215,2.271,0.953,6.104c3.752-2.781,3.16,5.66,2.111,3.628c2.99,1.325,5.398,0.705,5.912,4.58
		c3.184-10.521,8.465-9.416,14.279-2.092c-3.195-6.387,4.668-6.354,4.439-4.16c-0.166-0.503,3.129,0.008,2.93-0.403
		c1.354-0.504,1.746,0.69,3.273,0.837v147.523L623.498,242.43z"/>
	<linearGradient id="SVGID_13_" gradientUnits="userSpaceOnUse" x1="371.3999" y1="226.5156" x2="-4.0982" y2="155.1497">
		<stop  offset="0" style="stop-color:#6ABD45"/>
		<stop  offset="1" style="stop-color:#54783C"/>
	</linearGradient>
	<path opacity="0.2" clip-path="url(#SVGID_2_)" fill="url(#SVGID_13_)" d="M374.329,211.104c0,0-27.104-9.243-30.976-10.828
		s-8.707-5.643-15.209-6.574s-22.403-6.215-26.778-8.965s-30.001-3.334-39.834-11.667s-75.69-18.083-81.804-18.583
		c-6.112-0.5-41.112,0.266-42.362-3.242s-56.667-12.673-64-12.007c-7.334,0.666-57.789-9.001-73.395-5.501
		c0,0,38.645,1.596,47.645,8.673s-4.25,5.593-9,8.835s5.5,7.242,18.25,8.242s33.5-8,29.5,2s27.972-7.847,37.152-1.215
		s5.182,17.632-42.485,24.299l63.083-9.334c0,0-71.009,23.725-75.505,30.487c0,0,76.755-30.206,99.755-26.722
		c0,0-18.75,6.734-24.25,11.984c0,0,52.75-18,66-16.75s-3.917,5.333-6.417,7.5s22.833-0.501,30.167-0.167
		c7.333,0.334,2.167,7.834-6.667,10.334c-8.833,2.5,30.001-9.5,36.834-8.333s-13.192,4.988-16.763,6.244
		c-3.571,1.256,13.096,0.756,21.263-0.744c8.166-1.5,28.333,2.166,23.583,4.416s12.25-0.75,21,0.5c0,0-1,4.25-7.75,6.75
		s13.167-2.167,17.667-1.667s1.334,3.5-1.333,5.167s10.499-0.333,15.166-0.333s20.707,1.604,18.271,4.469s-0.104,3.599,2.729,2.731
		S371.625,210.139,374.329,211.104z"/>
	<linearGradient id="SVGID_14_" gradientUnits="userSpaceOnUse" x1="733.1123" y1="160.3672" x2="813.6871" y2="271.8001">
		<stop  offset="0" style="stop-color:#7A873D"/>
		<stop  offset="0.9944" style="stop-color:#50743C"/>
	</linearGradient>
	<path clip-path="url(#SVGID_2_)" fill="url(#SVGID_14_)" d="M1003.465,377.34c0,0-197.924,12.034-409.088-43.612
		c-75.637-19.933-110.29-34.721-87.299-40.017c27.797-18.873,51.164-34.689,59.504-44.126c12.023,4.632,66.586-26.468,75.15-35.872
		c10.174-11.167,56.453-39.683,61.74-44.336c6.254-5.504,125.775-39.316,134.807-44.822c9.031-5.505,59.76-23.593,69.488-20.446
		c13.287-15.974,95.682-30.875,95.682-30.875L1003.465,377.34z"/>
	<linearGradient id="SVGID_15_" gradientUnits="userSpaceOnUse" x1="574.376" y1="332.3008" x2="740.1385" y2="221.1346">
		<stop  offset="0" style="stop-color:#F0E600"/>
		<stop  offset="1" style="stop-color:#4B6934"/>
	</linearGradient>
	<path clip-path="url(#SVGID_2_)" fill="url(#SVGID_15_)" d="M979.477,94.674c26.387,2.479-16.813,14.169-16.813,14.169
		c-8.322-2.137,31.541,19.511,23.016,14.913c-9.297-5.015-16.236-1.882-26.943-1.52c-5.178,0.173-26.881-0.298-30.547,4.706
		c-3.238,4.42,1.354,7.983,4.236,11.318c-15.49-5.285-29.65-8.183-45.967-4.42c-8.791,2.025,33.742-9.738,24.867-11.537
		c1.268-4.003-87.279,15.765-83.893,14.17c-4.229,5.259,15.533,4.336,21.529,2.942c1.742-0.404-7.838,1.874-27.457,10.428
		c-23.666,10.325,67.582,11.146,76.674,18.513c-1.389,1.242-74.172,3.386-75.438,4.479c9.428,3.271,93.059,4.648,100.48,11.816
		c-41.32,0-112.309-0.984-131.236-2.916c1.428-2.421,3.535-4.861,5.592-6.802c-9.699-0.632-20.18-1.543-29.877-1.071
		c-7.141,0.349-39.818,2.516-43.629,8.163c3.297-4.68,21.961-12.275,27.541-14.449c-15.818,1.458-65.75,12.611-65.672,24.161
		c2.014,1.602,23.164-4.542,23.164-2.126c-2.543,2.987-41.037,14.91-45.078,14.879c10.709,2.434,63.219-10.94,70.746-2.834
		c-4.898,2.565-28.172-2.834-36.311,5.668c-12.02-0.03-32.516,8.265-44.451,6.376c2.217,1.178,27.674-0.134,28.799,1.417
		c-11.896,4.96-27.23,2.569-32.129,5.155c-2.477,2.027,19.758,4.451,13.346,5.473c3.527-2.504-25.168,3.49-25.357-0.872
		c-7.715,3.032-39.551,13.536-47.07,17.184c-5.152,2.499,14.855-3.466,9.678-0.175c-3.916,2.486-13.346,3.719-11.125,10.078
		c1.393,3.996-24.766,6.85-21.287,9.21c-13.625,1.269-8.139,7.794,6.26,15.587c-6.611,0-19.043-9.807-24.357-4.861
		c-4.168,3.877-20.094,6.278-15.711,8.404c4.678,2.268-11.09,4.527-17.35,8.778c12.781-10.849,32.725-24.519,39.262-28.616
		c6.252-3.918,6.17-4.148,11.27-9.92c8.34-9.438,53.416-15.827,73.146-38.707c13.898-3.146,27.1-18.872,29.879-22.019
		c2.781-3.144,28.457-15.956,34.711-21.46c6.254-5.505,43.813-17.857,54.93-17.072c11.117,0.788,75.65-27.017,84.686-32.522
		c9.033-5.505,55.721-24.798,77.006-14.17c11.896-9.211,56.035-35.779,84.207-32.945C1006.803,71.646,953.09,92.195,979.477,94.674z
		"/>
	<g clip-path="url(#SVGID_2_)">
		<path fill="#8CC63F" d="M780.262,265.285c-0.002,0-0.003,0-0.005,0c-0.161-0.003-0.288-0.136-0.285-0.296
			c0.011-0.615,1.366-61.673,21.389-75.15c0.134-0.089,0.313-0.055,0.403,0.079c0.09,0.133,0.055,0.313-0.078,0.403
			c-19.774,13.309-21.122,74.066-21.134,74.679C780.549,265.158,780.42,265.285,780.262,265.285z"/>
		<path fill="#8CC63F" d="M767.014,253.626c-0.156,0-0.286-0.125-0.29-0.283c-0.007-0.25-0.796-25.285-12.74-45.016
			c-0.083-0.138-0.039-0.315,0.098-0.399c0.136-0.082,0.315-0.039,0.399,0.099c12.025,19.865,12.817,45.049,12.824,45.301
			c0.004,0.161-0.123,0.295-0.283,0.299C767.02,253.626,767.017,253.626,767.014,253.626z"/>
		<path fill="#8CC63F" d="M752.197,257.95c-0.136,0-0.259-0.097-0.284-0.236c-0.094-0.5-9.608-50.135-27.797-64.989
			c-0.124-0.103-0.143-0.285-0.041-0.409s0.286-0.141,0.408-0.041c18.353,14.988,27.905,64.83,28,65.332
			c0.029,0.157-0.074,0.31-0.232,0.339C752.233,257.948,752.216,257.95,752.197,257.95z"/>
		
			<ellipse transform="matrix(0.6876 0.7261 -0.7261 0.6876 386.4071 -527.2897)" fill="#F15A24" cx="806.016" cy="185.435" rx="3.457" ry="9.214"/>
		<path fill="#F15A24" d="M722.729,186.194c2.546,3.184,3.643,6.539,2.449,7.493c-1.193,0.958-4.227-0.851-6.773-4.033
			c-2.547-3.187-3.645-6.542-2.45-7.495C717.149,181.202,720.184,183.013,722.729,186.194z"/>
		
			<ellipse transform="matrix(0.781 -0.6246 0.6246 0.781 37.4827 513.2076)" fill="#F15A24" cx="750.424" cy="203.165" rx="2.77" ry="7.383"/>
		<path fill="#8CC63F" d="M755.519,261.675c-0.02,0-0.04-0.003-0.061-0.007c-0.157-0.034-0.257-0.188-0.223-0.345
			c0.083-0.388,8.534-38.839,24.862-50c0.134-0.09,0.313-0.057,0.404,0.076c0.09,0.132,0.056,0.313-0.076,0.404
			c-16.14,11.031-24.54,49.256-24.623,49.642C755.773,261.581,755.652,261.675,755.519,261.675z"/>
		
			<ellipse transform="matrix(0.6876 0.7261 -0.7261 0.6876 395.3973 -505.3807)" fill="#F15A24" cx="784.965" cy="206.772" rx="3.456" ry="9.214"/>
		<g>
			<g>
				<linearGradient id="SVGID_16_" gradientUnits="userSpaceOnUse" x1="732.4844" y1="269.0205" x2="730.1899" y2="234.3501">
					<stop  offset="0" style="stop-color:#6D8100"/>
					<stop  offset="1" style="stop-color:#BDD400"/>
				</linearGradient>
				<path fill="url(#SVGID_16_)" d="M731.742,277.839c0,0-9.542-33.739-1.566-61.322c0,0-3.437,42.114,6.838,61.322H731.742z"/>
				<linearGradient id="SVGID_17_" gradientUnits="userSpaceOnUse" x1="767.9629" y1="270.3018" x2="765.9916" y2="240.5145">
					<stop  offset="0" style="stop-color:#6D8100"/>
					<stop  offset="1" style="stop-color:#BDD400"/>
				</linearGradient>
				<path fill="url(#SVGID_17_)" d="M767.163,277.839c0,0-9.059-25.069-1.081-52.653c0,0-3.922,33.445,6.354,52.653H767.163z"/>
				<path fill="#2F4C09" d="M794.069,277.839c0,0-0.056-14.002,14.737-40.033c0,0-12.034,22.549-9.466,40.033H794.069z"/>
				<linearGradient id="SVGID_18_" gradientUnits="userSpaceOnUse" x1="800.9609" y1="261.5703" x2="816.835" y2="261.5703">
					<stop  offset="0" style="stop-color:#6D8100"/>
					<stop  offset="0.9944" style="stop-color:#587200"/>
				</linearGradient>
				<path fill="url(#SVGID_18_)" d="M800.961,277.839c0,0,1.149-21.091,15.874-32.536c0,0-13.848,16.546-10.601,32.536H800.961z"/>
				<linearGradient id="SVGID_19_" gradientUnits="userSpaceOnUse" x1="805.5322" y1="269.1172" x2="818.9932" y2="269.1172">
					<stop  offset="0" style="stop-color:#6D8100"/>
					<stop  offset="1" style="stop-color:#BDD400"/>
				</linearGradient>
				<path fill="url(#SVGID_19_)" d="M805.532,277.839c0,0,4.677-13.091,13.461-17.442c0,0-9.479,10.632-9.479,17.442H805.532z"/>
				<path fill="#2F4C09" d="M810.257,277.839c0,0,6.929-13.647,20.248-17.846c0,0-15.681,12.082-15.13,17.846H810.257z"/>
				<path fill="#2F4C09" d="M817.967,277.839c0,0,7.031-10.834,16.826-8.094c0,0-9.604,1.605-10.632,8.094H817.967z"/>
				<path fill="#2F4C09" d="M783.199,230.724c0,0,0.617,35.29,6.167,47.115h7.071c0,0-4.409-22.202-0.685-34.223
					c0,0-5.138,19.374-3.313,32.074C792.44,275.69,783.959,252.149,783.199,230.724z"/>
				<path fill="#2F4C09" d="M774.237,277.839c0,0,1.443-27.631,18.854-38.585c0,0-12.924,11.831-15.356,38.585H774.237z"/>
				<path fill="#2F4C09" d="M757.435,277.839c0,0,9.198-30.636,31.324-38.974c0,0-21.289,15.42-26.838,38.974H757.435z"/>
			</g>
			<g>
				<linearGradient id="SVGID_20_" gradientUnits="userSpaceOnUse" x1="711.917" y1="270.2988" x2="709.9459" y2="240.5132">
					<stop  offset="0" style="stop-color:#6D8100"/>
					<stop  offset="0.9944" style="stop-color:#587200"/>
				</linearGradient>
				<path fill="url(#SVGID_20_)" d="M711.118,277.836c0,0-9.06-25.066-1.082-52.65c0,0-3.921,33.445,6.355,52.65H711.118z"/>
				<linearGradient id="SVGID_21_" gradientUnits="userSpaceOnUse" x1="749.2148" y1="269.8682" x2="747.166" y2="238.9087">
					<stop  offset="0" style="stop-color:#6D8100"/>
					<stop  offset="1" style="stop-color:#BDD400"/>
				</linearGradient>
				<path fill="url(#SVGID_21_)" d="M746.539,277.839c0,0-4.789-27.441,3.188-55.024c0,0-8.19,35.816,2.085,55.024H746.539z"/>
				<linearGradient id="SVGID_22_" gradientUnits="userSpaceOnUse" x1="773.4443" y1="254.8242" x2="780.8779" y2="254.8242">
					<stop  offset="0" style="stop-color:#6D8100"/>
					<stop  offset="0.9944" style="stop-color:#587200"/>
				</linearGradient>
				<path fill="url(#SVGID_22_)" d="M773.444,277.839c0,0-0.085-17.846,7.434-46.03c0,0-4.729,28.546-2.161,46.03H773.444z"/>
				<path fill="#2F4C09" d="M780.337,277.839c0,0,1.151-21.091,15.874-32.536c0,0-13.846,16.546-10.601,32.536H780.337z"/>
				<linearGradient id="SVGID_23_" gradientUnits="userSpaceOnUse" x1="784.9082" y1="269.1172" x2="798.3691" y2="269.1172">
					<stop  offset="0" style="stop-color:#6D8100"/>
					<stop  offset="1" style="stop-color:#BDD400"/>
				</linearGradient>
				<path fill="url(#SVGID_23_)" d="M784.908,277.839c0,0,4.677-13.091,13.461-17.442c0,0-9.479,10.632-9.479,17.442H784.908z"/>
				<path fill="#2F4C09" d="M789.585,277.839c0,0,5.183-12.123,15.673-12.608c0,0-11.06,6.845-10.554,12.608H789.585z"/>
				<path fill="#2F4C09" d="M797.295,277.839c0,0,7.079-10.834,16.874-8.094c0,0-9.604,1.605-10.681,8.094H797.295z"/>
				<path fill="#2F4C09" d="M763.116,230.626c0,0,0.076,35.388,5.626,47.213h7.071c0,0-4.41-22.202-0.684-34.223
					c0,0-5.139,19.374-3.313,32.074C771.817,275.69,763.877,252.051,763.116,230.626z"/>
				<path fill="#2F4C09" d="M753.613,277.839c0,0,1.443-27.631,18.854-38.585c0,0-12.923,11.831-15.357,38.585H753.613z"/>
				<path fill="#2F4C09" d="M736.81,277.839c0,0,9.2-30.636,31.324-38.974c0,0-21.288,15.42-26.838,38.974H736.81z"/>
			</g>
		</g>
	</g>
	<g clip-path="url(#SVGID_2_)">
		<path fill="#8CC63F" d="M121.04,277.436c-0.002,0-0.005,0-0.007,0c-0.209-0.004-0.376-0.177-0.373-0.386
			c0.016-0.804,1.784-80.511,27.922-98.104c0.174-0.117,0.409-0.071,0.526,0.103c0.117,0.174,0.07,0.409-0.103,0.526
			c-25.812,17.374-27.572,96.689-27.587,97.488C121.415,277.271,121.246,277.436,121.04,277.436z"/>
		<path fill="#8CC63F" d="M103.745,262.215c-0.205,0-0.373-0.163-0.379-0.369c-0.008-0.326-1.039-33.008-16.631-58.765
			c-0.109-0.18-0.051-0.412,0.127-0.521c0.18-0.107,0.412-0.051,0.521,0.128c15.699,25.933,16.732,58.809,16.741,59.138
			c0.005,0.209-0.16,0.384-0.369,0.389C103.752,262.215,103.749,262.215,103.745,262.215z"/>
		<path fill="#8CC63F" d="M84.403,267.86c-0.179,0-0.338-0.126-0.372-0.309c-0.123-0.652-12.542-65.447-36.286-84.839
			c-0.162-0.133-0.187-0.371-0.054-0.533c0.132-0.163,0.37-0.186,0.533-0.055c23.957,19.567,36.428,84.632,36.551,85.287
			c0.038,0.205-0.097,0.403-0.303,0.441C84.45,267.858,84.426,267.86,84.403,267.86z"/>
		
			<ellipse transform="matrix(0.6876 0.7261 -0.7261 0.6876 174.0771 -58.1895)" fill="#F15A24" cx="154.659" cy="173.196" rx="4.512" ry="12.028"/>
		<path fill="#F15A24" d="M45.935,174.188c3.324,4.156,4.755,8.536,3.198,9.782c-1.559,1.249-5.518-1.11-8.844-5.266
			c-3.323-4.159-4.756-8.54-3.197-9.785C38.65,167.671,42.61,170.034,45.935,174.188z"/>
		<path fill="#F15A24" d="M84.912,194.084c3.324,4.156,4.754,8.537,3.197,9.783c-1.559,1.249-5.519-1.111-8.845-5.267
			c-3.324-4.158-4.755-8.54-3.196-9.783C77.626,187.568,81.586,189.93,84.912,194.084z"/>
		<path fill="#8CC63F" d="M88.74,272.722c-0.027,0-0.054-0.003-0.081-0.008c-0.205-0.045-0.334-0.246-0.291-0.45
			c0.109-0.506,11.141-50.701,32.458-65.271c0.172-0.118,0.407-0.074,0.526,0.099c0.118,0.173,0.074,0.409-0.099,0.527
			c-21.069,14.4-32.036,64.301-32.144,64.804C89.071,272.601,88.914,272.722,88.74,272.722z"/>
		
			<ellipse transform="matrix(0.6875 0.7262 -0.7262 0.6875 185.7452 -29.5268)" fill="#F15A24" cx="127.179" cy="201.052" rx="4.512" ry="12.028"/>
		<g>
			<g>
				<linearGradient id="SVGID_24_" gradientUnits="userSpaceOnUse" x1="58.6699" y1="282.3125" x2="55.6747" y2="237.0524">
					<stop  offset="0" style="stop-color:#6D8100"/>
					<stop  offset="1" style="stop-color:#BDD400"/>
				</linearGradient>
				<path fill="url(#SVGID_24_)" d="M57.699,293.824c0,0-12.456-44.044-2.043-80.052c0,0-4.488,54.977,8.926,80.052H57.699z"/>
				<linearGradient id="SVGID_25_" gradientUnits="userSpaceOnUse" x1="104.9829" y1="283.9844" x2="102.4096" y2="245.0993">
					<stop  offset="0" style="stop-color:#6D8100"/>
					<stop  offset="1" style="stop-color:#BDD400"/>
				</linearGradient>
				<path fill="url(#SVGID_25_)" d="M103.94,293.824c0,0-11.825-32.727-1.412-68.735c0,0-5.119,43.66,8.295,68.735H103.94z"/>
				<path fill="#2F4C09" d="M139.063,293.824c0,0-0.072-18.279,19.238-52.262c0,0-15.708,29.438-12.355,52.262H139.063z"/>
				<linearGradient id="SVGID_26_" gradientUnits="userSpaceOnUse" x1="148.0601" y1="272.5869" x2="168.7832" y2="272.5869">
					<stop  offset="0" style="stop-color:#6D8100"/>
					<stop  offset="0.9944" style="stop-color:#587200"/>
				</linearGradient>
				<path fill="url(#SVGID_26_)" d="M148.06,293.824c0,0,1.501-27.532,20.723-42.475c0,0-18.077,21.6-13.839,42.475H148.06z"/>
				<linearGradient id="SVGID_27_" gradientUnits="userSpaceOnUse" x1="154.0288" y1="282.4395" x2="171.6001" y2="282.4395">
					<stop  offset="0" style="stop-color:#6D8100"/>
					<stop  offset="1" style="stop-color:#BDD400"/>
				</linearGradient>
				<path fill="url(#SVGID_27_)" d="M154.029,293.824c0,0,6.104-17.09,17.571-22.771c0,0-12.374,13.88-12.374,22.771H154.029z"/>
				<path fill="#2F4C09" d="M160.195,293.824c0,0,9.044-17.816,26.432-23.297c0,0-20.471,15.773-19.75,23.297H160.195z"/>
				<path fill="#2F4C09" d="M170.261,293.824c0,0,9.177-14.144,21.964-10.566c0,0-12.539,2.096-13.88,10.566H170.261z"/>
				<path fill="#2F4C09" d="M124.874,232.318c0,0,0.806,46.068,8.051,61.506h9.231c0,0-5.756-28.983-0.894-44.677
					c0,0-6.706,25.293-4.324,41.872C136.937,291.02,125.866,260.289,124.874,232.318z"/>
				<path fill="#2F4C09" d="M113.174,293.824c0,0,1.885-36.07,24.613-50.37c0,0-16.872,15.444-20.048,50.37H113.174z"/>
				<path fill="#2F4C09" d="M91.24,293.824c0,0,12.008-39.994,40.891-50.877c0,0-27.79,20.129-35.034,50.877H91.24z"/>
			</g>
			<g>
				<linearGradient id="SVGID_28_" gradientUnits="userSpaceOnUse" x1="31.8188" y1="283.9805" x2="29.2457" y2="245.0976">
					<stop  offset="0" style="stop-color:#6D8100"/>
					<stop  offset="0.9944" style="stop-color:#587200"/>
				</linearGradient>
				<path fill="url(#SVGID_28_)" d="M30.776,293.82c0,0-11.826-32.723-1.412-68.731c0,0-5.119,43.66,8.296,68.731H30.776z"/>
				<linearGradient id="SVGID_29_" gradientUnits="userSpaceOnUse" x1="80.5083" y1="283.4199" x2="77.8337" y2="243.0045">
					<stop  offset="0" style="stop-color:#6D8100"/>
					<stop  offset="1" style="stop-color:#BDD400"/>
				</linearGradient>
				<path fill="url(#SVGID_29_)" d="M77.016,293.824c0,0-6.252-35.823,4.162-71.831c0,0-10.691,46.756,2.723,71.831H77.016z"/>
				<linearGradient id="SVGID_30_" gradientUnits="userSpaceOnUse" x1="112.1392" y1="263.7793" x2="121.8428" y2="263.7793">
					<stop  offset="0" style="stop-color:#6D8100"/>
					<stop  offset="0.9944" style="stop-color:#587200"/>
				</linearGradient>
				<path fill="url(#SVGID_30_)" d="M112.139,293.824c0,0-0.111-23.297,9.704-60.09c0,0-6.173,37.266-2.82,60.09H112.139z"/>
				<path fill="#2F4C09" d="M121.137,293.824c0,0,1.503-27.532,20.723-42.475c0,0-18.076,21.6-13.838,42.475H121.137z"/>
				<linearGradient id="SVGID_31_" gradientUnits="userSpaceOnUse" x1="127.1055" y1="282.4395" x2="144.6772" y2="282.4395">
					<stop  offset="0" style="stop-color:#6D8100"/>
					<stop  offset="1" style="stop-color:#BDD400"/>
				</linearGradient>
				<path fill="url(#SVGID_31_)" d="M127.105,293.824c0,0,6.104-17.09,17.572-22.771c0,0-12.375,13.88-12.375,22.771H127.105z"/>
				<path fill="#2F4C09" d="M133.21,293.824c0,0,6.766-15.825,20.459-16.459c0,0-14.437,8.936-13.777,16.459H133.21z"/>
				<path fill="#2F4C09" d="M143.275,293.824c0,0,9.24-14.144,22.027-10.566c0,0-12.538,2.096-13.942,10.566H143.275z"/>
				<path fill="#2F4C09" d="M98.657,232.19c0,0,0.1,46.196,7.344,61.634h9.231c0,0-5.757-28.983-0.893-44.677
					c0,0-6.707,25.293-4.324,41.872C110.015,291.02,99.649,260.16,98.657,232.19z"/>
				<path fill="#2F4C09" d="M86.251,293.824c0,0,1.885-36.07,24.613-50.37c0,0-16.871,15.444-20.048,50.37H86.251z"/>
				<path fill="#2F4C09" d="M64.315,293.824c0,0,12.01-39.994,40.892-50.877c0,0-27.79,20.129-35.034,50.877H64.315z"/>
			</g>
		</g>
	</g>
	<g clip-path="url(#SVGID_2_)">
		<path fill="#8CC63F" d="M201.11,280.544c-0.002,0-0.005,0-0.007,0c-0.209-0.004-0.376-0.177-0.372-0.387
			c0.015-0.803,1.784-80.51,27.922-98.103c0.174-0.117,0.409-0.071,0.526,0.103c0.116,0.174,0.07,0.409-0.103,0.526
			c-25.813,17.374-27.572,96.689-27.587,97.488C201.485,280.379,201.315,280.544,201.11,280.544z"/>
		<path fill="#8CC63F" d="M183.815,265.323c-0.205,0-0.374-0.163-0.379-0.369c-0.008-0.327-1.039-33.008-16.632-58.765
			c-0.108-0.18-0.051-0.412,0.128-0.521c0.18-0.106,0.412-0.05,0.52,0.129c15.699,25.933,16.733,58.809,16.742,59.138
			c0.005,0.209-0.16,0.384-0.369,0.389C183.822,265.323,183.818,265.323,183.815,265.323z"/>
		<path fill="#8CC63F" d="M164.473,270.969c-0.179,0-0.337-0.127-0.372-0.309c-0.123-0.652-12.542-65.447-36.286-84.839
			c-0.162-0.133-0.186-0.372-0.054-0.534c0.133-0.161,0.37-0.186,0.533-0.054c23.958,19.566,36.428,84.632,36.551,85.286
			c0.039,0.206-0.097,0.404-0.302,0.442C164.52,270.967,164.496,270.969,164.473,270.969z"/>
		
			<ellipse transform="matrix(0.6876 0.7261 -0.7261 0.6876 201.3609 -115.359)" fill="#F15A24" cx="234.729" cy="176.305" rx="4.512" ry="12.028"/>
		<path fill="#F15A24" d="M126.005,177.297c3.324,4.156,4.755,8.535,3.198,9.781c-1.559,1.25-5.518-1.11-8.844-5.265
			c-3.323-4.159-4.756-8.54-3.197-9.785C118.721,170.779,122.681,173.143,126.005,177.297z"/>
		
			<ellipse transform="matrix(0.7809 -0.6247 0.6247 0.7809 -89.0592 144.9949)" fill="#F15A24" cx="162.159" cy="199.45" rx="3.616" ry="9.637"/>
		<path fill="#8CC63F" d="M168.81,275.83c-0.026,0-0.053-0.003-0.08-0.008c-0.205-0.045-0.335-0.246-0.291-0.451
			c0.109-0.505,11.141-50.7,32.457-65.271c0.173-0.117,0.409-0.074,0.527,0.1c0.117,0.173,0.074,0.409-0.1,0.526
			c-21.068,14.401-32.035,64.302-32.143,64.805C169.142,275.709,168.984,275.83,168.81,275.83z"/>
		<path fill="#F15A24" d="M210.352,207.437c-4.824,4.565-10.123,6.803-11.835,4.994c-1.715-1.808,0.807-6.979,5.632-11.547
			c4.822-4.568,10.122-6.806,11.835-4.997C217.698,197.695,215.174,202.865,210.352,207.437z"/>
	</g>
	<g clip-path="url(#SVGID_2_)">
		<path fill="#8CC63F" d="M314.594,288.949c-0.002,0-0.004,0-0.007,0c-0.209-0.004-0.376-0.177-0.372-0.386
			c0.015-0.804,1.784-80.511,27.921-98.104c0.174-0.117,0.409-0.071,0.526,0.103c0.117,0.174,0.071,0.409-0.103,0.526
			c-25.813,17.374-27.573,96.689-27.587,97.488C314.97,288.784,314.8,288.949,314.594,288.949z"/>
		<path fill="#8CC63F" d="M297.3,273.729c-0.205,0-0.374-0.163-0.379-0.369c-0.009-0.326-1.039-33.008-16.632-58.765
			c-0.108-0.18-0.051-0.412,0.128-0.521c0.179-0.107,0.412-0.05,0.52,0.128c15.699,25.933,16.732,58.809,16.742,59.138
			c0.005,0.209-0.16,0.384-0.369,0.389C297.306,273.729,297.303,273.729,297.3,273.729z"/>
		<path fill="#8CC63F" d="M277.958,279.374c-0.179,0-0.338-0.126-0.372-0.309c-0.123-0.652-12.542-65.447-36.286-84.839
			c-0.162-0.133-0.186-0.372-0.054-0.533c0.132-0.163,0.37-0.186,0.533-0.055c23.958,19.567,36.428,84.632,36.551,85.287
			c0.04,0.205-0.097,0.403-0.302,0.441C278.004,279.372,277.98,279.374,277.958,279.374z"/>
		
			<ellipse transform="matrix(0.6876 0.7261 -0.7261 0.6876 242.9071 -195.1336)" fill="#F15A24" cx="348.214" cy="184.71" rx="4.512" ry="12.028"/>
		<path fill="#F15A24" d="M239.49,185.702c3.324,4.156,4.755,8.535,3.198,9.781c-1.559,1.25-5.519-1.11-8.844-5.265
			c-3.323-4.159-4.756-8.54-3.197-9.785C232.206,179.185,236.165,181.548,239.49,185.702z"/>
		<path fill="#F15A24" d="M278.467,205.597c3.324,4.157,4.754,8.538,3.197,9.784c-1.558,1.249-5.518-1.111-8.844-5.267
			c-3.324-4.158-4.755-8.54-3.196-9.783C271.181,199.081,275.142,201.443,278.467,205.597z"/>
		<path fill="#8CC63F" d="M282.294,284.235c-0.026,0-0.053-0.003-0.08-0.008c-0.205-0.045-0.335-0.246-0.291-0.45
			c0.109-0.506,11.142-50.701,32.457-65.271c0.172-0.117,0.408-0.073,0.527,0.1c0.118,0.173,0.074,0.409-0.1,0.527
			c-21.068,14.4-32.035,64.301-32.143,64.804C282.626,284.114,282.469,284.235,282.294,284.235z"/>
		<path fill="#F15A24" d="M323.836,215.842c-4.824,4.565-10.123,6.803-11.835,4.994c-1.716-1.808,0.807-6.979,5.632-11.547
			c4.821-4.568,10.122-6.806,11.835-4.997C331.183,206.101,328.659,211.271,323.836,215.842z"/>
	</g>
	<g clip-path="url(#SVGID_2_)">
		<path fill="#2F4C09" d="M165.193,292.518c0,0-19.515-42.557-2.411-89.385c0,0-8.408,56.778,13.716,89.385H165.193z"/>
		<path fill="#2F4C09" d="M121,292.52c0,0-19.438-42.347-2.334-89.175c0,0-8.407,56.779,13.639,89.175H121z"/>
		<path fill="#2F4C09" d="M232.707,292.517c0,0,1.69-35.8,24.088-55.233c0,0-18.047,36.885-16.065,55.233H232.707z"/>
		<path fill="#2F3D09" d="M247.367,292.517c0,0,10.026-22.222,28.86-29.609c0,0-20.324,18.051-20.324,29.609H247.367z"/>
		<path fill="#2F4C09" d="M257.393,292.517c0,0,11.112-20.577,33.604-21.399c0,0-23.712,11.618-22.628,21.399H257.393z"/>
		<path fill="#2F3D09" d="M273.925,292.521c0,0,17.737-20.015,47.899-17.434c0,0-29.654,2.295-34.621,17.434H273.925z"/>
		<path fill="#2F4C09" d="M200.643,212.367c0,0,0.164,60.079,12.063,80.149h15.16c0,0-9.455-37.688-1.468-58.095
			c0,0-11.573,23.205-7.66,44.766C218.738,279.188,202.273,248.741,200.643,212.367z"/>
		<path fill="#2F4C09" d="M180.266,292.518c0,0,3.098-46.905,40.426-65.502c0,0-27.712,20.084-32.928,65.502H180.266z"/>
		<path fill="#2F4C09" d="M144.241,292.521c0,0,19.725-52.012,67.16-66.164c0,0-45.643,26.178-57.542,66.164H144.241z"/>
		<linearGradient id="SVGID_32_" gradientUnits="userSpaceOnUse" x1="222.8647" y1="247.8242" x2="256.8208" y2="247.8242">
			<stop  offset="0" style="stop-color:#476200"/>
			<stop  offset="1" style="stop-color:#BDD400"/>
		</linearGradient>
		<path fill="url(#SVGID_32_)" d="M222.865,292.517c0,0,2.243-45.189,33.956-89.384c0,0-28.236,59.705-22.652,89.384H222.865z"/>
	</g>
	<g clip-path="url(#SVGID_2_)">
		<linearGradient id="SVGID_33_" gradientUnits="userSpaceOnUse" x1="275.8838" y1="281.0859" x2="272.8835" y2="235.7484">
			<stop  offset="0" style="stop-color:#6D8100"/>
			<stop  offset="1" style="stop-color:#BDD400"/>
		</linearGradient>
		<path fill="url(#SVGID_33_)" d="M274.792,292.521c0,0-15.362-44.044-2.52-80.052c0,0-5.535,54.977,11.008,80.052H274.792z"/>
		<linearGradient id="SVGID_34_" gradientUnits="userSpaceOnUse" x1="333.0332" y1="282.7568" x2="330.4551" y2="243.7998">
			<stop  offset="0" style="stop-color:#6D8100"/>
			<stop  offset="1" style="stop-color:#BDD400"/>
		</linearGradient>
		<path fill="url(#SVGID_34_)" d="M331.821,292.521c0,0-14.584-32.727-1.741-68.735c0,0-6.314,43.66,10.23,68.735H331.821z"/>
		<path fill="#2F4C09" d="M375.139,292.521c0,0-0.088-18.279,23.727-52.262c0,0-19.373,29.438-15.238,52.262H375.139z"/>
		<linearGradient id="SVGID_35_" gradientUnits="userSpaceOnUse" x1="386.2349" y1="271.2832" x2="411.7925" y2="271.2832">
			<stop  offset="0" style="stop-color:#6D8100"/>
			<stop  offset="0.9944" style="stop-color:#587200"/>
		</linearGradient>
		<path fill="url(#SVGID_35_)" d="M386.235,292.521c0,0,1.852-27.532,25.558-42.475c0,0-22.294,21.6-17.068,42.475H386.235z"/>
		<linearGradient id="SVGID_36_" gradientUnits="userSpaceOnUse" x1="393.5957" y1="281.1348" x2="415.2666" y2="281.1348">
			<stop  offset="0" style="stop-color:#6D8100"/>
			<stop  offset="1" style="stop-color:#BDD400"/>
		</linearGradient>
		<path fill="url(#SVGID_36_)" d="M393.596,292.521c0,0,7.528-17.09,21.671-22.771c0,0-15.261,13.88-15.261,22.771H393.596z"/>
		<path fill="#2F4C09" d="M401.201,292.521c0,0,11.154-17.816,32.599-23.296c0,0-25.247,15.772-24.357,23.296H401.201z"/>
		<path fill="#2F4C09" d="M413.615,292.521c0,0,11.318-14.144,27.088-10.566c0,0-15.465,2.096-17.118,10.566H413.615z"/>
		<path fill="#2F4C09" d="M357.638,231.015c0,0,0.995,46.068,9.93,61.506h11.384c0,0-7.099-28.983-1.103-44.676
			c0,0-8.27,25.292-5.333,41.871C372.517,289.716,358.862,258.985,357.638,231.015z"/>
		<path fill="#2F4C09" d="M343.209,292.521c0,0,2.325-36.07,30.355-50.37c0,0-20.808,15.444-24.725,50.37H343.209z"/>
		<path fill="#2F4C09" d="M316.157,292.521c0,0,14.811-39.993,50.431-50.877c0,0-34.273,20.129-43.208,50.877H316.157z"/>
	</g>
	<g clip-path="url(#SVGID_2_)">
		<linearGradient id="SVGID_37_" gradientUnits="userSpaceOnUse" x1="242.8003" y1="282.7529" x2="240.2223" y2="243.7981">
			<stop  offset="0" style="stop-color:#6D8100"/>
			<stop  offset="0.9944" style="stop-color:#587200"/>
		</linearGradient>
		<path fill="url(#SVGID_37_)" d="M241.587,292.517c0,0-14.584-32.723-1.741-68.731c0,0-6.313,43.66,10.23,68.731H241.587z"/>
		<linearGradient id="SVGID_38_" gradientUnits="userSpaceOnUse" x1="302.4214" y1="282.1963" x2="299.7452" y2="241.7572">
			<stop  offset="0" style="stop-color:#6D8100"/>
			<stop  offset="1" style="stop-color:#BDD400"/>
		</linearGradient>
		<path fill="url(#SVGID_38_)" d="M298.616,292.521c0,0-7.71-35.823,5.132-71.831c0,0-13.185,46.756,3.358,71.831H298.616z"/>
		<linearGradient id="SVGID_39_" gradientUnits="userSpaceOnUse" x1="341.9336" y1="262.4756" x2="353.9004" y2="262.4756">
			<stop  offset="0" style="stop-color:#6D8100"/>
			<stop  offset="0.9944" style="stop-color:#587200"/>
		</linearGradient>
		<path fill="url(#SVGID_39_)" d="M341.934,292.521c0,0-0.138-23.296,11.967-60.09c0,0-7.613,37.266-3.478,60.09H341.934z"/>
		<path fill="#2F4C09" d="M353.03,292.521c0,0,1.854-27.532,25.558-42.475c0,0-22.293,21.6-17.066,42.475H353.03z"/>
		<linearGradient id="SVGID_40_" gradientUnits="userSpaceOnUse" x1="360.3906" y1="281.1348" x2="382.0625" y2="281.1348">
			<stop  offset="0" style="stop-color:#6D8100"/>
			<stop  offset="1" style="stop-color:#BDD400"/>
		</linearGradient>
		<path fill="url(#SVGID_40_)" d="M360.391,292.521c0,0,7.529-17.09,21.672-22.771c0,0-15.261,13.88-15.261,22.771H360.391z"/>
		<path fill="#2F4C09" d="M367.919,292.521c0,0,8.344-15.825,25.233-16.459c0,0-17.804,8.936-16.991,16.459H367.919z"/>
		<path fill="#2F4C09" d="M380.333,292.521c0,0,11.396-14.144,27.167-10.566c0,0-15.463,2.096-17.195,10.566H380.333z"/>
		<path fill="#2F4C09" d="M325.305,230.887c0,0,0.123,46.196,9.058,61.634h11.385c0,0-7.1-28.983-1.102-44.676
			c0,0-8.271,25.292-5.333,41.871C339.313,289.716,326.529,258.856,325.305,230.887z"/>
		<path fill="#2F4C09" d="M310.004,292.521c0,0,2.326-36.07,30.356-50.37c0,0-20.809,15.444-24.726,50.37H310.004z"/>
		<path fill="#2F4C09" d="M282.952,292.521c0,0,14.812-39.993,50.431-50.877c0,0-34.273,20.129-43.208,50.877H282.952z"/>
	</g>
</g>
</svg>
