<?xml version="1.0" encoding="utf-8"?>
<!-- Generator: Adobe Illustrator 16.0.0, SVG Export Plug-In . SVG Version: 6.00 Build 0)  -->
<!DOCTYPE svg PUBLIC "-//W3C//DTD SVG 1.1//EN" "http://www.w3.org/Graphics/SVG/1.1/DTD/svg11.dtd">
<svg version="1.1" id="Layer_1" xmlns="http://www.w3.org/2000/svg" xmlns:xlink="http://www.w3.org/1999/xlink" x="0px" y="0px"
	 width="999.844px" height="258.711px" viewBox="0.156 0 999.844 258.711" enable-background="new 0.156 0 999.844 258.711"
	 xml:space="preserve">
<g>
	<g>
		<g>
			
				<linearGradient id="SVGID_1_" gradientUnits="userSpaceOnUse" x1="865.0137" y1="-194.48" x2="868.0488" y2="-225.5852" gradientTransform="matrix(1 0 0 -1 -346 -36.2891)">
				<stop  offset="0" style="stop-color:#EBC765"/>
				<stop  offset="1" style="stop-color:#FFF086"/>
			</linearGradient>
			<path fill="url(#SVGID_1_)" d="M588.4,203.85l92.69-39.68c8.23-1.925-59.643,14.797-100.793-0.84
				c-10.344,4.331-23.396-12.949-24.594-13.477c-29.617,18.031-56.246,5.556-56.246,5.556s-15.15,9.517-22.854,8.757
				c0,0-37.472-15.234-41.424-9.49c0,0-44.854,28.541-75.278,25.553c-10.396-1.021,69.456,24.823,118.067,27.024
				C494.77,208.014,588.4,203.85,588.4,203.85z"/>
			<path fill="#FFE05C" d="M505.672,157.786c0,0,5.279,3.219,16.273,11.948c7.998,2.549,10.223,5.875,10.223,5.875
				s-8.313-4.563-14.619-5.695c-2.389-2.831-6.729-5.923-6.729-5.923s2.649,6.622,5.155,9.089c1.875,1.847,4.615,4.46,4.615,4.46
				s-6.598-4.065-9.709-7.745c-3.109-3.679-7.092-8.111-8.197-8.311c-1.108-0.198,3.384-0.438,4.423,0.793
				c1.045,1.236-8.546-6.944-7.288-6.719C501.063,155.781,505.672,157.786,505.672,157.786z"/>
		</g>
		<path fill="#FFE05C" d="M443.63,153.523c0,0,24.035,6.166,32.497,10.91c5.3,4.742,13.827,8.922,13.827,8.922
			s-10.003-5.307-17.015-9.267c-7.021-3.959-20.886-5.336-18.787-3.661c2.104,1.678,1.451,7.961,1.451,7.961
			s-5.023-10.662-7.393-10.662C445.327,157.729,438.519,152.037,443.63,153.523z"/>
	</g>
	<path fill="#FFE05C" d="M555.705,149.854c0,0,14.203,9.389,18.285,12.195c4.084,2.813,6.309,1.281,6.309,1.281
		s22.021,9.357,21.523,9.699c-1.572,1.082-21.15-7.913-21.15-6.637c0,1.277-14.106-5.107-18.188-7.918
		c-4.08-2.811-3.623-3.471-3.623-3.471s15.116,12.564,19.733,18.438c-13.102-9.021-24.651-14.967-24.651-17.01
		C553.941,154.387,555.705,149.854,555.705,149.854z"/>
</g>
<g>
	<defs>
		<rect id="SVGID_2_" width="1000" height="258.711"/>
	</defs>
	<clipPath id="SVGID_3_">
		<use xlink:href="#SVGID_2_"  overflow="visible"/>
	</clipPath>
	<g clip-path="url(#SVGID_3_)">
		<g>
			
				<linearGradient id="SVGID_4_" gradientUnits="userSpaceOnUse" x1="684.0234" y1="-167.4146" x2="688.8455" y2="-216.8339" gradientTransform="matrix(1 0 0 -1 -346 -36.2891)">
				<stop  offset="0" style="stop-color:#C5B853"/>
				<stop  offset="1" style="stop-color:#D9BB5D"/>
			</linearGradient>
			<path fill="url(#SVGID_4_)" d="M212.977,156.876c0,0,38.245-20.76,66.163-39.619c11.837-5.932,35.105,23.812,35.105,23.812
				s21.439,9.908,23.819,14.084c0,0,16.649-17.777,18.953-10.158c0,0,77.358,51.207,114.293,54.974
				c12.619,1.285-91.624,12.312-149.594,3.3C301.677,200.146,211.894,164.813,212.977,156.876z"/>
			<path fill="#FFCD5C" d="M294.816,121.784c0,0,8.718,5.956,26.677,22.813c13.357,5.705,27.285,18.906,27.285,18.906
				s-24.146-16.42-34.771-17.613c-3.832-5.703-10.951-11.582-10.951-11.582s3.957,13.95,8.017,18.84
				c3.03,3.652,7.475,8.81,7.475,8.81s-10.883-7.549-15.86-14.963c-4.981-7.417-11.387-16.308-13.248-16.517
				c-1.868-0.211,5.784-1.646,7.454,0.836c1.672,2.49-3.825-9.031-11.682-14.42C287.315,117.13,294.816,121.784,294.816,121.784z"/>
		</g>
		<path fill="#FFE05C" d="M356.754,143.434c0,0,24.15,15.039,35.784,21.916c11.631,6.879,51.234,26.715,51.234,26.715
			s-51.786-20.529-61.423-26.256c-9.638-5.732-22.601-12.043-19.939-9.75c2.657,2.293,12.629,10.896,12.629,10.896
			s-14.954-8.886-17.945-11.465C354.103,152.904,349.749,139.236,356.754,143.434z"/>
	</g>
</g>
<g>
	<defs>
		<rect id="SVGID_5_" width="1000" height="258.711"/>
	</defs>
	<clipPath id="SVGID_6_">
		<use xlink:href="#SVGID_5_"  overflow="visible"/>
	</clipPath>
	
		<linearGradient id="SVGID_7_" gradientUnits="userSpaceOnUse" x1="1404.6582" y1="-94.1455" x2="1113.6035" y2="-146.0247" gradientTransform="matrix(-0.8491 0 0 -1 1168.3428 -36.2891)">
		<stop  offset="0" style="stop-color:#A99F2E"/>
		<stop  offset="0.9944" style="stop-color:#E1D90E"/>
	</linearGradient>
	<path clip-path="url(#SVGID_6_)" fill="url(#SVGID_7_)" d="M222.481,171.67c1.988-1.229,6.622-8.302,0.208-9.225
		c1.523-2.998,2.515-11.584-0.244-9.447c3.968-1.938,1.335-9.361-2.58-6.588c3.166-0.547,0.423-6.926-1.191-6.713
		c2.745-1.113,1.206-6.454-1.776-5.372c3.459,0.306,5.867-3.06,3.979-8.271c-1.48-4.088-5.459-3.771-6.59,1.528
		c1.217-4.02-0.748-6.09-3.345-3.89c1.176-1.789,1.264-5.016-0.368-5.355c0.759-0.996,1.977-2.361,1.695-4.444
		c-0.506-3.747-2.763-1.626-3.861-0.47c1.697-1.229,2.054-2.773,1.463-5.926c-1.854-0.967-2.942-2.15-3.32,1.451
		c0.153-1.155,0.006-2.29-0.84-3.092c-1.342-1.086-0.957-0.831-1.749,0.901c0.39-2.903-0.724-4.583-2.537-3.206
		c1.886-2,1.596-5.292-1.188-4.221c0.014,0.253-0.068-1.576-0.099-1.373c2.6-3.956,3.737-3.146,2.819-8.808
		c-1.499-9.265-7.846-7.334-9.766,0.063c-0.599-4.687-4.756-7.813-6.213-2.161c0.177-2.083,0.799-4.142,0.625-6.362
		c-0.887,0.638-1.864,0.977-2.597,2.501c5.03-5.519-4.033-8.163-3.986-2.19c-0.135-3.551-3.425-7.152-4.728-2.729
		c0.413-2.344,0.604-11.971-1.172-7.404c-0.034-5.316-0.354-11.445-4.815-12.626c-2.334-0.616-6.459,1.673-6.251,5.767
		c0.486-7.581-5.071-1.621-5.818,1.766c0.099-0.902-0.156-2.22-0.138-3.161c-1.056,0.563-1.977,0.345-2.92,1.911
		c0.213-2.563,0.108-5.184-0.794-7.42c-0.462,0.654-0.966,0.534-1.411,1.821c0.65-3.241-0.293-5.684-2.212-3.713
		c0.545-5.858-4.385-18.035-7.304-8.729c1.015-9.838-7.971-8.918-6.687-0.559c-1.208-3.668-4.268,0.992-4.432,3.847
		c0.255-5.373-4.659-2.854-5.162-0.863c0.369-2.698-0.058-7.092-2.233-4.657c0.661-6.004-5.224-7.061-7.684-4.176
		c-1.725,2.023-1.702,7.054-1.536,10.232c0.221-0.992-0.737,1.742-0.667,0.789c-1.588,0.708-2.143,0.042-2.957,2.497
		c-0.57-6.481-6.246-3.979-6.614,0.162c1.211-2.549,2.019-11.106-1.49-7.163c0.031-3.569-1.979-4.378-3.448-6.461
		c-1.081,0.688-2.111,2.063-2.764,3.652c3.213-7.828-4.642-4.018-6.419-1.725c0.57-3.906-1.782-6.627-3.964-7.404
		c-0.095,1.043-0.129,2.149,0.009,3.199c1.94-2.171,2.225-11.875-1.61-10.402c1.281-0.416,3.088-3.253,3.407-6.15
		c0.565-5.137-0.677-5.552-3.92-6.269c-0.201,0.879-1.573,0.341-1.657,1.278c0.387-2.957-1.094-4.843-2.224-4.108
		c-0.846,0.105-1.817,1.515-1.815,2.479c0.154-1.155,0.193-2.271-1.076-2.9c-1.681,0.517-1.91,2.097-2.82,4.119
		c1.786-4.784,0.582-7.907-2.896-9.781c-1.621-0.733-2.544,0.203-3.182,2.419c0.061-3.501-0.415-8.289-2.884-8.499
		c-2.271-0.192-2.281,2.635-2.254,5.875c0.108-1.505-1.217-1.5-1.414-2.834c-1.398,1.542-1.759,2.736-1.538,5.574
		c-0.201-4.34-3.236-2.446-4.082,0.548c-0.073-5.659-3.341-5.283-4.11-0.963c0.064-3.692,0.162-5.539-2.509-5.572
		c-2.117-0.028-1.391,1.384-3.272,2.413c-0.121,2.551-0.646,3.242,0.343,5.969c-0.008-0.231-1.447,2.914-1.411,2.726
		c-2.611-0.837-2.963,2.621-1.129,4.509c-2.893-3.46-4.232-0.209-4.506,4.084c1.157-6.426-6.625-9.232-6.639-3.272
		c2.237-6.005-5.488-8.251-5.506-3.316c1.097-12.368-9.901-3.157-6.713,1.782c0.019-0.856-1.494,0.059-1.54-0.432
		c-1.295,2.224-0.727,1.785-0.569,4.8c-2.247-2.188-1.893,4.45-1.265,2.853c-1.791,1.039-3.232,0.557-3.541,3.602
		c-1.907-8.273-5.068-7.404-8.551-1.644c1.914-5.022-2.794-4.997-2.657-3.275c0.099-0.392-1.874,0.008-1.754-0.314
		c-0.812-0.396-1.491,0.514-1.961,0.87v115.932L222.481,171.67z"/>
</g>
<g>
	<defs>
		<rect id="SVGID_8_" width="1000" height="258.711"/>
	</defs>
	<clipPath id="SVGID_9_">
		<use xlink:href="#SVGID_8_"  overflow="visible"/>
	</clipPath>
	
		<linearGradient id="SVGID_10_" gradientUnits="userSpaceOnUse" x1="534.6123" y1="-119.3525" x2="344.5337" y2="-153.2332" gradientTransform="matrix(1 0 0 -1 -346 -36.2891)">
		<stop  offset="0" style="stop-color:#78742F"/>
		<stop  offset="1" style="stop-color:#79963F"/>
	</linearGradient>
	<path clip-path="url(#SVGID_9_)" fill="url(#SVGID_10_)" d="M0.166,42.622c0,0,119.483,23.565,187.028,116.14L0.166,176.466V41.206
		V42.622z"/>
</g>
<g>
	<defs>
		<rect id="SVGID_11_" width="1000" height="258.711"/>
	</defs>
	<clipPath id="SVGID_12_">
		<use xlink:href="#SVGID_11_"  overflow="visible"/>
	</clipPath>
	
		<linearGradient id="SVGID_13_" gradientUnits="userSpaceOnUse" x1="683.9473" y1="-220.4111" x2="302.2565" y2="-157.9536" gradientTransform="matrix(0.6727 -0.0208 0.3875 -0.8417 -241.6692 -64.7145)">
		<stop  offset="0" style="stop-color:#B3A900"/>
		<stop  offset="1" style="stop-color:#978100"/>
	</linearGradient>
	<path clip-path="url(#SVGID_12_)" fill="url(#SVGID_13_)" d="M18.229,55.582c8.364,1.728,19.755,4.675,33.378,9.573
		c9.659,3.474,20.439,7.927,32.061,13.618c4.009,1.964-37.255-9.216-33.057-6.946c4.539,2.453,54.553,18.382,59.283,21.219
		c7.146,4.284,14.491,9.021,21.99,14.257c0.687,0.48-50.646-18.245-49.957-17.757c5.589,3.956,63.28,27.4,69.012,31.933
		c7.382,5.837,0.121,16.485,7.659,23.348c0,0,34.176,17.139,24.899,8.11c-9-15.5-33.641-38.186-43.416-45.773
		c-8.308-12.395-18.527-12.719-26.896-18.082c-6.823-4.374-14.238-10.613-22.197-14.826C79.28,62.288,63.916,57.111,47.936,51.604
		c-13.867-4.779-29.251-3.16-45.333-6.088c0,0-6.18,7.766,0.403,7.82C4.526,53.349,9.865,53.855,18.229,55.582z"/>
</g>
<g>
	<defs>
		<rect id="SVGID_14_" width="1000" height="258.711"/>
	</defs>
	<clipPath id="SVGID_15_">
		<use xlink:href="#SVGID_14_"  overflow="visible"/>
	</clipPath>
	
		<linearGradient id="SVGID_16_" gradientUnits="userSpaceOnUse" x1="777.377" y1="-190.042" x2="348.7562" y2="-266.4418" gradientTransform="matrix(1 0 0 -1 -346 -36.2891)">
		<stop  offset="0" style="stop-color:#747347"/>
		<stop  offset="0.9944" style="stop-color:#466E38"/>
	</linearGradient>
	<path clip-path="url(#SVGID_15_)" fill="url(#SVGID_16_)" d="M0.166,132.049c0,0,241.733,3.086,411.162,97.854L0.166,329.181
		V132.049z"/>
</g>
<g>
	<defs>
		<rect id="SVGID_17_" width="1000" height="258.711"/>
	</defs>
	<clipPath id="SVGID_18_">
		<use xlink:href="#SVGID_17_"  overflow="visible"/>
	</clipPath>
	
		<linearGradient id="SVGID_19_" gradientUnits="userSpaceOnUse" x1="717.4004" y1="-262.8052" x2="341.9013" y2="-191.4392" gradientTransform="matrix(1 0 0 -1 -346 -36.2891)">
		<stop  offset="0" style="stop-color:#6ABD45"/>
		<stop  offset="1" style="stop-color:#54783C"/>
	</linearGradient>
	<path opacity="0.2" clip-path="url(#SVGID_18_)" fill="url(#SVGID_19_)" enable-background="new    " d="M374.329,211.104
		c0,0-27.104-9.242-30.976-10.828c-3.872-1.584-8.707-5.643-15.209-6.573s-22.403-6.216-26.778-8.966s-30.001-3.334-39.834-11.666
		c-9.833-8.334-75.69-18.084-81.804-18.584c-6.112-0.5-41.112,0.267-42.362-3.241c-1.25-3.509-56.667-12.673-64-12.007
		c-7.334,0.666-57.789-9.002-73.395-5.502c0,0,38.645,1.597,47.645,8.674c9,7.076-4.25,5.593-9,8.835
		c-4.75,3.241,5.5,7.241,18.25,8.241s33.5-8,29.5,2s27.972-7.846,37.152-1.215c9.18,6.633,5.182,17.633-42.485,24.299l63.083-9.334
		c0,0-71.009,23.726-75.505,30.488c0,0,76.755-30.207,99.755-26.723c0,0-18.75,6.734-24.25,11.984c0,0,52.75-18,66-16.75
		s-3.917,5.332-6.417,7.5c-2.5,2.166,22.833-0.502,30.167-0.168c7.333,0.334,2.167,7.834-6.667,10.334
		c-8.833,2.5,30.001-9.5,36.834-8.332c6.833,1.166-13.192,4.988-16.763,6.244c-3.571,1.256,13.096,0.756,21.263-0.744
		c8.166-1.5,28.333,2.166,23.583,4.416s12.25-0.75,21,0.5c0,0-1,4.25-7.75,6.75s13.167-2.168,17.667-1.668s1.334,3.5-1.333,5.168
		c-2.667,1.666,10.499-0.334,15.166-0.334c4.667,0,20.707,1.604,18.271,4.47c-2.436,2.864-0.104,3.599,2.729,2.731
		C360.699,210.234,371.625,210.139,374.329,211.104z"/>
</g>
<g>
	<defs>
		<rect id="SVGID_20_" width="1000" height="258.711"/>
	</defs>
	<clipPath id="SVGID_21_">
		<use xlink:href="#SVGID_20_"  overflow="visible"/>
	</clipPath>
	
		<linearGradient id="SVGID_22_" gradientUnits="userSpaceOnUse" x1="761.1328" y1="-206.7798" x2="728.67" y2="-341.4057" gradientTransform="matrix(1 0 0 -1 -346 -36.2891)">
		<stop  offset="0" style="stop-color:#91A43C"/>
		<stop  offset="1" style="stop-color:#587840"/>
	</linearGradient>
	<path clip-path="url(#SVGID_21_)" fill="url(#SVGID_22_)" d="M0.154,292.064c0,0,306.859-124.561,426.802-109.776
		c42.101,5.188,76.503,5.93,91.28,8.249c36.973-6.666,162.934-15.979,181.41,1.938l59.993,148.697L0.166,341.188L0.154,292.064z"/>
</g>
<g>
	<defs>
		<rect id="SVGID_23_" width="1000" height="258.711"/>
	</defs>
	<clipPath id="SVGID_24_">
		<use xlink:href="#SVGID_23_"  overflow="visible"/>
	</clipPath>
	
		<linearGradient id="SVGID_25_" gradientUnits="userSpaceOnUse" x1="682.8516" y1="-212.3804" x2="680.0981" y2="-244.2429" gradientTransform="matrix(1 0 0 -1 -346 -36.2891)">
		<stop  offset="0" style="stop-color:#A4A900"/>
		<stop  offset="1" style="stop-color:#4E5B00"/>
	</linearGradient>
	<path clip-path="url(#SVGID_24_)" fill="url(#SVGID_25_)" d="M467.565,190.688c15.232-2.801,38.656-1.121,43.787-0.859
		c-1.731-0.271-3.559-0.824-5.907-1.098c-31.07-3.603-104.362-10.775-137.752-5.732c-79.612,12.023-154.445,31.857-211.679,52.689
		c0,0,89.293-23.576,122.765-28.617c12.986-1.954-12.172,6.939,0.655,5.119c37.387-5.306,48.26-16.236,36.623-1.508
		c27.577-16.041,49.6-16.039,47.865-15.386c-13.361,1.294-23.913,10.825-37.824,23.78c23.332-13.284,44.56-20.357,71.696-24.235
		c7.189-1.026-9.917,5.565-17.441,14.175c7.524-3.057,44.118-16.105,66.834-17.466C451.612,189.371,449.438,194.021,467.565,190.688
		z"/>
</g>
<g>
	<defs>
		<rect id="SVGID_26_" width="1000" height="258.711"/>
	</defs>
	<clipPath id="SVGID_27_">
		<use xlink:href="#SVGID_26_"  overflow="visible"/>
	</clipPath>
	
		<linearGradient id="SVGID_28_" gradientUnits="userSpaceOnUse" x1="1385.543" y1="-111.332" x2="976.5333" y2="-184.2363" gradientTransform="matrix(1 0 0 -1 -346 -36.2891)">
		<stop  offset="0" style="stop-color:#8D972E"/>
		<stop  offset="1" style="stop-color:#DCB60E"/>
	</linearGradient>
	<path clip-path="url(#SVGID_27_)" fill="url(#SVGID_28_)" d="M628.779,221.307c-3.32-1.563-11.06-10.559-0.347-11.731
		c-2.545-3.812-4.2-14.731,0.406-12.013c-6.625-2.467-2.229-11.906,4.31-8.379c-5.285-0.695-0.705-8.806,1.989-8.535
		c-4.586-1.416-2.016-8.211,2.968-6.834c-5.777,0.39-9.798-3.892-6.646-10.519c2.475-5.198,9.117-4.796,11.004,1.944
		c-2.031-5.111,1.252-7.743,5.588-4.946c-1.965-2.274-2.11-6.38,0.615-6.812c-1.271-1.268-3.303-3.004-2.834-5.651
		c0.846-4.767,4.617-2.067,6.449-0.597c-2.834-1.563-3.429-3.528-2.443-7.537c3.096-1.229,4.912-2.734,5.545,1.846
		c-0.256-1.468-0.008-2.911,1.406-3.932c2.238-1.383,1.598-1.057,2.92,1.146c-0.652-3.693,1.207-5.828,4.234-4.078
		c-3.148-2.541-2.666-6.728,1.983-5.368c-0.021,0.324,0.115-2.004,0.168-1.746c-4.344-5.03-6.244-3.999-4.713-11.199
		c2.506-11.783,13.104-9.329,16.312,0.08c1.002-5.961,7.944-9.936,10.377-2.748c-0.297-2.648-1.334-5.268-1.045-8.092
		c1.479,0.813,3.114,1.242,4.338,3.181c-8.402-7.017,6.733-10.38,6.655-2.784c0.228-4.517,5.72-9.098,7.896-3.472
		c-0.689-2.98-1.008-15.223,1.957-9.415c0.057-6.763,0.588-14.557,8.041-16.057c3.897-0.783,10.785,2.127,10.438,7.332
		c-0.811-9.64,8.472-2.061,9.718,2.246c-0.164-1.149,0.262-2.823,0.231-4.02c1.763,0.716,3.299,0.438,4.875,2.431
		c-0.354-3.259-0.18-6.593,1.324-9.437c0.772,0.833,1.613,0.68,2.359,2.315c-1.087-4.12,0.487-7.227,3.692-4.722
		c-0.912-7.45,7.322-22.935,12.197-11.101c-1.693-12.511,13.309-11.343,11.166-0.712c2.016-4.666,7.129,1.264,7.4,4.895
		c-0.427-6.834,7.78-3.631,8.618-1.1c-0.612-3.431,0.099-9.02,3.73-5.923c-1.104-7.634,8.725-8.979,12.834-5.308
		c2.877,2.57,2.84,8.967,2.563,13.01c-0.366-1.262,1.232,2.217,1.113,1.004c2.652,0.9,3.58,0.055,4.941,3.177
		c0.948-8.245,10.432-5.063,11.045,0.205c-2.023-3.241-3.373-14.123,2.487-9.108c-0.055-4.541,3.306-5.568,5.759-8.217
		c1.805,0.873,3.524,2.622,4.616,4.646c-5.366-9.956,7.75-5.109,10.72-2.193c-0.955-4.97,2.977-8.429,6.619-9.417
		c0.157,1.326,0.215,2.733-0.015,4.068c-3.242-2.762-3.717-15.103,2.689-13.229c-2.142-0.53-5.158-4.137-5.691-7.823
		c-0.942-6.531,1.131-7.06,6.547-7.972c0.336,1.118,2.627,0.435,2.769,1.627c-0.646-3.761,1.828-6.16,3.711-5.227
		c1.416,0.135,3.035,1.925,3.031,3.155c-0.257-1.47-0.32-2.89,1.799-3.689c2.807,0.657,3.188,2.667,4.711,5.238
		c-2.982-6.085-0.974-10.057,4.834-12.438c2.709-0.933,4.25,0.259,5.313,3.074c-0.102-4.451,0.693-10.54,4.816-10.808
		c3.793-0.244,3.811,3.351,3.764,7.472c-0.182-1.914,2.031-1.907,2.361-3.604c2.336,1.959,2.938,3.479,2.568,7.089
		c0.336-5.521,5.403-3.11,6.817,0.696c0.121-7.196,5.576-6.719,6.863-1.224c-0.107-4.695-0.271-7.046,4.188-7.088
		c3.535-0.034,2.32,1.761,5.466,3.069c0.2,3.244,1.078,4.124-0.572,7.59c0.014-0.295,2.416,3.707,2.356,3.467
		c4.359-1.065,4.947,3.334,1.884,5.734c4.83-4.4,7.069-0.268,7.524,5.194c-1.934-8.173,11.063-11.741,11.086-4.161
		c-3.735-7.639,9.166-10.494,9.195-4.221c-1.832-15.728,16.535-4.013,11.211,2.269c-0.033-1.091,2.494,0.073,2.57-0.55
		c2.164,2.828,1.215,2.271,0.953,6.105c3.752-2.782,3.16,5.66,2.11,3.627c2.99,1.323,5.398,0.706,5.912,4.579
		c3.185-10.52,8.465-9.414,14.279-2.089c-3.195-6.389,4.668-6.355,4.438-4.164c-0.166-0.5,3.13,0.008,2.931-0.401
		c1.354-0.504,2.49,0.653,3.272,1.106v147.434L628.779,221.307z"/>
</g>
<g>
	<defs>
		<rect id="SVGID_29_" width="1000" height="258.711"/>
	</defs>
	<clipPath id="SVGID_30_">
		<use xlink:href="#SVGID_29_"  overflow="visible"/>
	</clipPath>
	
		<linearGradient id="SVGID_31_" gradientUnits="userSpaceOnUse" x1="1385.6123" y1="-142.2124" x2="976.1302" y2="-215.2008" gradientTransform="matrix(1 0 0 -1 -346 -36.2891)">
		<stop  offset="0" style="stop-color:#68742E"/>
		<stop  offset="1" style="stop-color:#BBAE0E"/>
	</linearGradient>
	<path clip-path="url(#SVGID_30_)" fill="url(#SVGID_31_)" d="M623.498,242.43c-3.32-1.563-2.264-8.851,1.906-7.943
		c-2.545-3.812-1.172-8.664,3.436-5.945c-6.625-2.467-2.229-11.904,4.31-8.38c-5.285-0.696-0.705-8.804,1.989-8.534
		c-4.586-1.415-2.016-8.211,2.967-6.831c-5.776,0.386-9.797-3.892-6.645-10.521c2.475-5.198,9.117-4.793,11.004,1.943
		c-2.031-5.109,1.252-7.742,5.588-4.947c-1.965-2.272-2.11-6.379,0.615-6.808c-1.27-1.269-3.303-3.006-2.834-5.653
		c0.846-4.766,4.617-2.066,6.449-0.596c-2.834-1.563-3.428-3.529-2.443-7.535c3.096-1.229,4.912-2.736,5.545,1.844
		c-0.256-1.467-0.008-2.912,1.406-3.932c2.238-1.381,1.598-1.059,2.92,1.145c-0.652-3.692,1.207-5.826,4.234-4.076
		c-3.148-2.542-2.666-6.729,1.983-5.369c-0.021,0.325,0.115-2.003,0.168-1.746c-4.344-5.027-6.244-3.998-4.713-11.197
		c2.506-11.783,13.104-9.33,16.312,0.082c1.002-5.964,7.944-9.938,10.377-2.752c-0.297-2.646-1.334-5.267-1.045-8.092
		c1.479,0.813,3.114,1.243,4.338,3.184c-8.402-7.019,6.733-10.381,6.656-2.787c0.227-4.515,5.719-9.096,7.895-3.471
		c-0.689-2.979-1.008-15.223,1.957-9.415c0.057-6.761,0.588-14.556,8.041-16.058c3.898-0.781,10.785,2.127,10.438,7.333
		c-0.811-9.639,8.472-2.061,9.718,2.246c-0.164-1.15,0.262-2.823,0.231-4.019c1.762,0.716,3.299,0.437,4.875,2.431
		c-0.354-3.26-0.18-6.595,1.324-9.438c0.773,0.833,1.613,0.68,2.359,2.318c-1.086-4.122,0.487-7.228,3.692-4.724
		c-0.912-7.45,7.322-22.935,12.197-11.102c-1.693-12.51,13.309-11.343,11.166-0.711c2.016-4.665,7.129,1.265,7.4,4.895
		c-0.427-6.834,7.78-3.63,8.618-1.098c-0.612-3.432,0.099-9.021,3.73-5.926c-1.104-7.635,8.725-8.978,12.834-5.309
		c2.877,2.573,2.84,8.968,2.563,13.011c-0.366-1.261,1.232,2.217,1.113,1.005c2.652,0.899,3.58,0.055,4.941,3.176
		c0.948-8.242,10.432-5.063,11.045,0.205c-2.023-3.241-3.373-14.121,2.487-9.107c-0.055-4.543,3.306-5.568,5.759-8.218
		c1.805,0.874,3.524,2.624,4.616,4.646c-5.366-9.957,7.75-5.107,10.72-2.192c-0.955-4.971,2.977-8.429,6.619-9.417
		c0.157,1.326,0.215,2.734-0.015,4.067c-3.242-2.761-3.717-15.102,2.689-13.228c-2.142-0.531-5.158-4.135-5.691-7.822
		c-0.942-6.531,1.131-7.061,6.547-7.973c0.336,1.117,2.627,0.435,2.769,1.629c-0.646-3.764,1.828-6.163,3.711-5.229
		c1.416,0.135,3.035,1.925,3.031,3.158c-0.256-1.473-0.32-2.891,1.799-3.689c2.807,0.656,3.188,2.665,4.711,5.236
		c-2.982-6.085-0.973-10.056,4.834-12.437c2.709-0.934,4.25,0.258,5.313,3.074c-0.102-4.453,0.693-10.542,4.816-10.808
		c3.793-0.246,3.811,3.352,3.764,7.47c-0.182-1.912,2.031-1.907,2.361-3.604c2.336,1.961,2.938,3.479,2.568,7.088
		c0.336-5.518,5.403-3.109,6.817,0.695c0.121-7.193,5.576-6.717,6.863-1.223c-0.107-4.693-0.271-7.047,4.189-7.088
		c3.534-0.034,2.319,1.763,5.465,3.07c0.201,3.242,1.078,4.124-0.572,7.591c0.014-0.295,2.416,3.707,2.357,3.465
		c4.358-1.064,4.946,3.333,1.883,5.734c4.83-4.4,7.069-0.266,7.524,5.196c-1.934-8.174,11.063-11.743,11.086-4.163
		c-3.735-7.638,9.166-10.493,9.195-4.218c-1.832-15.729,16.535-4.016,11.211,2.266c-0.033-1.09,2.494,0.074,2.57-0.549
		c2.164,2.828,1.215,2.271,0.953,6.104c3.752-2.781,3.159,5.66,2.11,3.628c2.99,1.325,5.398,0.705,5.912,4.58
		c3.185-10.521,8.465-9.416,14.279-2.092c-3.195-6.387,4.668-6.354,4.439-4.16c-0.166-0.503,3.129,0.008,2.93-0.403
		c1.354-0.504,1.746,0.69,3.272,0.837V211.77L623.498,242.43z"/>
</g>
<g>
	<defs>
		<rect id="SVGID_32_" width="1000" height="258.711"/>
	</defs>
	<clipPath id="SVGID_33_">
		<use xlink:href="#SVGID_32_"  overflow="visible"/>
	</clipPath>
	
		<linearGradient id="SVGID_34_" gradientUnits="userSpaceOnUse" x1="1079.1133" y1="-196.6567" x2="1159.688" y2="-308.0897" gradientTransform="matrix(1 0 0 -1 -346 -36.2891)">
		<stop  offset="0" style="stop-color:#7A873D"/>
		<stop  offset="0.9944" style="stop-color:#50743C"/>
	</linearGradient>
	<path clip-path="url(#SVGID_33_)" fill="url(#SVGID_34_)" d="M1003.465,377.34c0,0-197.924,12.034-409.088-43.612
		c-75.637-19.933-110.29-34.721-87.299-40.017c27.797-18.873,51.164-34.689,59.504-44.126c12.023,4.632,66.586-26.468,75.15-35.872
		c10.174-11.167,56.453-39.684,61.739-44.336c6.255-5.504,125.775-39.316,134.808-44.822c9.031-5.505,59.76-23.593,69.487-20.446
		c13.287-15.974,95.683-30.875,95.683-30.875L1003.465,377.34z"/>
</g>
<g>
	<defs>
		<rect id="SVGID_35_" width="1000" height="258.711"/>
	</defs>
	<clipPath id="SVGID_36_">
		<use xlink:href="#SVGID_35_"  overflow="visible"/>
	</clipPath>
	
		<linearGradient id="SVGID_37_" gradientUnits="userSpaceOnUse" x1="920.376" y1="-368.5898" x2="1086.1384" y2="-257.4236" gradientTransform="matrix(1 0 0 -1 -346 -36.2891)">
		<stop  offset="0" style="stop-color:#F0E600"/>
		<stop  offset="1" style="stop-color:#4B6934"/>
	</linearGradient>
	<path clip-path="url(#SVGID_36_)" fill="url(#SVGID_37_)" d="M979.477,94.674c26.388,2.479-16.813,14.169-16.813,14.169
		c-8.322-2.137,31.541,19.511,23.016,14.913c-9.297-5.015-16.235-1.882-26.942-1.52c-5.179,0.173-26.881-0.298-30.547,4.706
		c-3.238,4.419,1.354,7.983,4.235,11.318c-15.49-5.285-29.649-8.183-45.967-4.42c-8.791,2.025,33.742-9.738,24.867-11.537
		c1.268-4.003-87.279,15.765-83.894,14.169c-4.229,5.26,15.533,4.336,21.529,2.942c1.742-0.403-7.838,1.874-27.457,10.428
		c-23.666,10.325,67.582,11.146,76.674,18.513c-1.389,1.242-74.172,3.387-75.438,4.479c9.428,3.271,93.059,4.647,100.479,11.815
		c-41.319,0-112.309-0.983-131.235-2.916c1.428-2.42,3.534-4.86,5.592-6.801c-9.699-0.633-20.181-1.543-29.877-1.072
		c-7.142,0.35-39.818,2.517-43.629,8.164c3.297-4.68,21.961-12.275,27.541-14.449c-15.818,1.458-65.75,12.611-65.673,24.16
		c2.015,1.603,23.164-4.541,23.164-2.125c-2.543,2.986-41.036,14.91-45.077,14.879c10.709,2.434,63.219-10.94,70.745-2.834
		c-4.897,2.564-28.172-2.834-36.311,5.668c-12.02-0.03-32.516,8.265-44.451,6.376c2.217,1.178,27.674-0.134,28.799,1.417
		c-11.896,4.96-27.229,2.568-32.129,5.154c-2.477,2.027,19.758,4.451,13.347,5.474c3.526-2.504-25.168,3.489-25.357-0.872
		c-7.715,3.031-39.551,13.536-47.07,17.184c-5.151,2.5,14.855-3.466,9.679-0.175c-3.916,2.486-13.347,3.72-11.125,10.078
		c1.393,3.996-24.767,6.851-21.287,9.21c-13.625,1.27-8.14,7.794,6.26,15.587c-6.611,0-19.043-9.807-24.357-4.86
		c-4.168,3.877-20.094,6.277-15.711,8.403c4.679,2.269-11.09,4.527-17.35,8.778c12.781-10.85,32.725-24.52,39.262-28.616
		c6.252-3.918,6.17-4.147,11.271-9.92c8.34-9.438,53.416-15.827,73.146-38.707c13.898-3.146,27.101-18.872,29.879-22.019
		c2.781-3.145,28.457-15.957,34.711-21.461c6.255-5.504,43.813-17.856,54.931-17.071c11.117,0.788,75.649-27.017,84.686-32.522
		c9.033-5.505,55.722-24.798,77.006-14.17c11.896-9.211,56.035-35.779,84.207-32.945C1006.803,71.646,953.09,92.195,979.477,94.674z
		"/>
</g>
<rect fill="none" width="1000" height="258.711"/>
<g>
	<defs>
		<rect id="SVGID_38_" width="1000" height="258.711"/>
	</defs>
	<clipPath id="SVGID_39_">
		<use xlink:href="#SVGID_38_"  overflow="visible"/>
	</clipPath>
	<g clip-path="url(#SVGID_39_)">
		<path fill="#8CC63F" d="M121.04,277.436c-0.002,0-0.005,0-0.007,0c-0.209-0.004-0.376-0.177-0.373-0.386
			c0.016-0.804,1.784-80.511,27.922-98.104c0.174-0.116,0.409-0.07,0.526,0.104c0.117,0.174,0.07,0.409-0.103,0.526
			c-25.812,17.374-27.572,96.688-27.587,97.487C121.415,277.271,121.246,277.436,121.04,277.436z"/>
		<path fill="#8CC63F" d="M103.745,262.215c-0.205,0-0.373-0.163-0.379-0.369c-0.008-0.326-1.039-33.008-16.631-58.765
			c-0.109-0.181-0.051-0.412,0.127-0.521c0.18-0.107,0.412-0.052,0.521,0.127c15.699,25.934,16.732,58.81,16.741,59.139
			c0.005,0.209-0.16,0.384-0.369,0.389C103.752,262.215,103.749,262.215,103.745,262.215z"/>
		<path fill="#8CC63F" d="M84.403,267.859c-0.179,0-0.338-0.125-0.372-0.309c-0.123-0.652-12.542-65.447-36.286-84.839
			c-0.162-0.133-0.187-0.371-0.054-0.532c0.132-0.164,0.37-0.187,0.533-0.056c23.957,19.567,36.428,84.632,36.551,85.287
			c0.038,0.205-0.097,0.403-0.303,0.44C84.45,267.857,84.426,267.859,84.403,267.859z"/>
		
			<ellipse transform="matrix(0.7261 -0.6876 0.6876 0.7261 -76.7274 153.788)" fill="#F15A24" cx="154.663" cy="173.198" rx="12.028" ry="4.512"/>
		<path fill="#F15A24" d="M45.935,174.188c3.324,4.156,4.755,8.537,3.198,9.783c-1.559,1.248-5.518-1.111-8.844-5.267
			c-3.323-4.159-4.756-8.54-3.197-9.785C38.65,167.671,42.61,170.034,45.935,174.188z"/>
		<path fill="#F15A24" d="M84.912,194.084c3.324,4.156,4.754,8.537,3.197,9.783c-1.559,1.249-5.519-1.111-8.845-5.268
			c-3.324-4.158-4.755-8.539-3.196-9.783C77.626,187.568,81.586,189.93,84.912,194.084z"/>
		<path fill="#8CC63F" d="M88.74,272.723c-0.027,0-0.054-0.004-0.081-0.009c-0.205-0.045-0.334-0.246-0.291-0.45
			c0.109-0.506,11.141-50.701,32.458-65.271c0.172-0.118,0.407-0.074,0.526,0.099c0.118,0.174,0.074,0.409-0.099,0.527
			c-21.069,14.4-32.036,64.301-32.144,64.804C89.071,272.602,88.914,272.723,88.74,272.723z"/>
		
			<ellipse transform="matrix(0.7262 -0.6875 0.6875 0.7262 -103.4 142.4787)" fill="#F15A24" cx="127.177" cy="201.054" rx="12.028" ry="4.512"/>
		<g>
			<g>
				
					<linearGradient id="SVGID_40_" gradientUnits="userSpaceOnUse" x1="404.6689" y1="-318.6006" x2="401.6737" y2="-273.3405" gradientTransform="matrix(1 0 0 -1 -346 -36.2891)">
					<stop  offset="0" style="stop-color:#6D8100"/>
					<stop  offset="1" style="stop-color:#BDD400"/>
				</linearGradient>
				<path fill="url(#SVGID_40_)" d="M57.699,293.824c0,0-12.456-44.045-2.043-80.053c0,0-4.488,54.978,8.926,80.053H57.699z"/>
				
					<linearGradient id="SVGID_41_" gradientUnits="userSpaceOnUse" x1="450.9824" y1="-320.2734" x2="448.4091" y2="-281.3883" gradientTransform="matrix(1 0 0 -1 -346 -36.2891)">
					<stop  offset="0" style="stop-color:#6D8100"/>
					<stop  offset="1" style="stop-color:#BDD400"/>
				</linearGradient>
				<path fill="url(#SVGID_41_)" d="M103.94,293.824c0,0-11.825-32.727-1.412-68.735c0,0-5.119,43.66,8.295,68.735H103.94z"/>
				<path fill="#2F4C09" d="M139.063,293.824c0,0-0.072-18.279,19.238-52.262c0,0-15.708,29.438-12.355,52.262H139.063z"/>
				
					<linearGradient id="SVGID_42_" gradientUnits="userSpaceOnUse" x1="494.0601" y1="-308.876" x2="514.7832" y2="-308.876" gradientTransform="matrix(1 0 0 -1 -346 -36.2891)">
					<stop  offset="0" style="stop-color:#6D8100"/>
					<stop  offset="0.9944" style="stop-color:#587200"/>
				</linearGradient>
				<path fill="url(#SVGID_42_)" d="M148.06,293.824c0,0,1.501-27.532,20.723-42.475c0,0-18.077,21.6-13.839,42.475H148.06z"/>
				
					<linearGradient id="SVGID_43_" gradientUnits="userSpaceOnUse" x1="500.0288" y1="-318.7275" x2="517.5996" y2="-318.7275" gradientTransform="matrix(1 0 0 -1 -346 -36.2891)">
					<stop  offset="0" style="stop-color:#6D8100"/>
					<stop  offset="1" style="stop-color:#BDD400"/>
				</linearGradient>
				<path fill="url(#SVGID_43_)" d="M154.029,293.824c0,0,6.104-17.09,17.571-22.771c0,0-12.374,13.881-12.374,22.771H154.029z"/>
				<path fill="#2F4C09" d="M160.195,293.824c0,0,9.044-17.816,26.432-23.297c0,0-20.471,15.772-19.75,23.297H160.195z"/>
				<path fill="#2F4C09" d="M170.261,293.824c0,0,9.177-14.145,21.964-10.566c0,0-12.539,2.096-13.88,10.566H170.261z"/>
				<path fill="#2F4C09" d="M124.874,232.318c0,0,0.806,46.067,8.051,61.506h9.231c0,0-5.756-28.983-0.894-44.678
					c0,0-6.706,25.293-4.324,41.873C136.937,291.02,125.866,260.289,124.874,232.318z"/>
				<path fill="#2F4C09" d="M113.174,293.824c0,0,1.885-36.07,24.613-50.37c0,0-16.872,15.444-20.048,50.37H113.174z"/>
				<path fill="#2F4C09" d="M91.24,293.824c0,0,12.008-39.994,40.891-50.877c0,0-27.79,20.129-35.034,50.877H91.24z"/>
			</g>
			<g>
				
					<linearGradient id="SVGID_44_" gradientUnits="userSpaceOnUse" x1="377.8198" y1="-320.2695" x2="375.2467" y2="-281.3866" gradientTransform="matrix(1 0 0 -1 -346 -36.2891)">
					<stop  offset="0" style="stop-color:#6D8100"/>
					<stop  offset="0.9944" style="stop-color:#587200"/>
				</linearGradient>
				<path fill="url(#SVGID_44_)" d="M30.776,293.82c0,0-11.826-32.723-1.412-68.731c0,0-5.119,43.66,8.296,68.731H30.776z"/>
				
					<linearGradient id="SVGID_45_" gradientUnits="userSpaceOnUse" x1="426.5093" y1="-319.709" x2="423.8347" y2="-279.2941" gradientTransform="matrix(1 0 0 -1 -346 -36.2891)">
					<stop  offset="0" style="stop-color:#6D8100"/>
					<stop  offset="1" style="stop-color:#BDD400"/>
				</linearGradient>
				<path fill="url(#SVGID_45_)" d="M77.016,293.824c0,0-6.252-35.823,4.162-71.831c0,0-10.691,46.756,2.723,71.831H77.016z"/>
				
					<linearGradient id="SVGID_46_" gradientUnits="userSpaceOnUse" x1="458.1392" y1="-300.0684" x2="467.8428" y2="-300.0684" gradientTransform="matrix(1 0 0 -1 -346 -36.2891)">
					<stop  offset="0" style="stop-color:#6D8100"/>
					<stop  offset="0.9944" style="stop-color:#587200"/>
				</linearGradient>
				<path fill="url(#SVGID_46_)" d="M112.139,293.824c0,0-0.111-23.297,9.704-60.09c0,0-6.173,37.266-2.82,60.09H112.139z"/>
				<path fill="#2F4C09" d="M121.137,293.824c0,0,1.503-27.532,20.723-42.475c0,0-18.076,21.6-13.838,42.475H121.137z"/>
				
					<linearGradient id="SVGID_47_" gradientUnits="userSpaceOnUse" x1="473.105" y1="-318.7275" x2="490.6768" y2="-318.7275" gradientTransform="matrix(1 0 0 -1 -346 -36.2891)">
					<stop  offset="0" style="stop-color:#6D8100"/>
					<stop  offset="1" style="stop-color:#BDD400"/>
				</linearGradient>
				<path fill="url(#SVGID_47_)" d="M127.105,293.824c0,0,6.104-17.09,17.572-22.771c0,0-12.375,13.881-12.375,22.771H127.105z"/>
				<path fill="#2F4C09" d="M133.21,293.824c0,0,6.766-15.825,20.459-16.459c0,0-14.437,8.936-13.777,16.459H133.21L133.21,293.824z
					"/>
				<path fill="#2F4C09" d="M143.275,293.824c0,0,9.24-14.145,22.027-10.566c0,0-12.538,2.096-13.942,10.566H143.275z"/>
				<path fill="#2F4C09" d="M98.657,232.189c0,0,0.1,46.196,7.344,61.635h9.231c0,0-5.757-28.983-0.893-44.678
					c0,0-6.707,25.293-4.324,41.873C110.015,291.02,99.649,260.16,98.657,232.189z"/>
				<path fill="#2F4C09" d="M86.251,293.824c0,0,1.885-36.07,24.613-50.37c0,0-16.871,15.444-20.048,50.37H86.251z"/>
				<path fill="#2F4C09" d="M64.315,293.824c0,0,12.01-39.994,40.892-50.877c0,0-27.79,20.129-35.034,50.877H64.315z"/>
			</g>
		</g>
	</g>
</g>
<g>
	<defs>
		<rect id="SVGID_48_" width="1000" height="258.711"/>
	</defs>
	<clipPath id="SVGID_49_">
		<use xlink:href="#SVGID_48_"  overflow="visible"/>
	</clipPath>
	<g clip-path="url(#SVGID_49_)">
		<path fill="#8CC63F" d="M201.11,280.544c-0.002,0-0.005,0-0.007,0c-0.209-0.004-0.376-0.177-0.372-0.387
			c0.015-0.804,1.784-80.511,27.922-98.103c0.174-0.117,0.409-0.072,0.526,0.103c0.116,0.174,0.07,0.409-0.103,0.526
			c-25.813,17.373-27.572,96.688-27.587,97.487C201.485,280.379,201.315,280.544,201.11,280.544z"/>
		<path fill="#8CC63F" d="M183.815,265.323c-0.205,0-0.374-0.163-0.379-0.369c-0.008-0.327-1.039-33.009-16.632-58.765
			c-0.108-0.181-0.051-0.412,0.128-0.521c0.18-0.105,0.412-0.05,0.52,0.129c15.699,25.934,16.733,58.809,16.742,59.139
			c0.005,0.209-0.16,0.383-0.369,0.389C183.822,265.323,183.818,265.323,183.815,265.323z"/>
		<path fill="#8CC63F" d="M164.473,270.969c-0.179,0-0.337-0.127-0.372-0.309c-0.123-0.652-12.542-65.447-36.286-84.84
			c-0.162-0.133-0.186-0.371-0.054-0.533c0.133-0.161,0.37-0.186,0.533-0.055c23.958,19.566,36.428,84.633,36.551,85.287
			c0.039,0.205-0.097,0.403-0.302,0.441C164.52,270.967,164.496,270.969,164.473,270.969z"/>
		
			<ellipse transform="matrix(0.7261 -0.6876 0.6876 0.7261 -56.9284 209.7041)" fill="#F15A24" cx="234.746" cy="176.306" rx="12.028" ry="4.512"/>
		<path fill="#F15A24" d="M126.005,177.297c3.324,4.156,4.755,8.535,3.198,9.781c-1.559,1.25-5.518-1.11-8.844-5.266
			c-3.323-4.158-4.756-8.539-3.197-9.785C118.721,170.779,122.681,173.143,126.005,177.297z"/>
		
			<ellipse transform="matrix(-0.6247 -0.7809 0.7809 -0.6247 107.7231 450.6664)" fill="#F15A24" cx="162.167" cy="199.445" rx="9.638" ry="3.616"/>
		<path fill="#8CC63F" d="M168.81,275.83c-0.026,0-0.053-0.003-0.08-0.008c-0.205-0.045-0.335-0.246-0.291-0.451
			c0.109-0.505,11.141-50.7,32.457-65.271c0.173-0.117,0.409-0.074,0.527,0.101c0.117,0.173,0.074,0.409-0.1,0.526
			c-21.068,14.4-32.035,64.301-32.143,64.805C169.142,275.709,168.984,275.83,168.81,275.83z"/>
		<path fill="#F15A24" d="M210.352,207.438c-4.824,4.564-10.123,6.803-11.835,4.994c-1.715-1.809,0.807-6.979,5.632-11.548
			c4.822-4.567,10.122-6.806,11.835-4.997C217.698,197.695,215.174,202.865,210.352,207.438z"/>
	</g>
</g>
<g>
	<defs>
		<rect id="SVGID_50_" width="1000" height="258.711"/>
	</defs>
	<clipPath id="SVGID_51_">
		<use xlink:href="#SVGID_50_"  overflow="visible"/>
	</clipPath>
	<g clip-path="url(#SVGID_51_)">
		<path fill="#8CC63F" d="M314.594,288.949c-0.002,0-0.004,0-0.007,0c-0.209-0.004-0.376-0.178-0.372-0.387
			c0.015-0.804,1.784-80.51,27.921-98.104c0.174-0.117,0.409-0.07,0.526,0.104c0.117,0.174,0.071,0.408-0.103,0.525
			c-25.813,17.374-27.573,96.689-27.587,97.488C314.97,288.784,314.8,288.949,314.594,288.949z"/>
		<path fill="#8CC63F" d="M297.3,273.729c-0.205,0-0.374-0.162-0.379-0.369c-0.009-0.325-1.039-33.008-16.632-58.764
			c-0.108-0.181-0.051-0.412,0.128-0.521c0.179-0.107,0.412-0.051,0.52,0.128c15.699,25.933,16.732,58.81,16.742,59.138
			c0.005,0.209-0.16,0.385-0.369,0.389C297.306,273.729,297.303,273.729,297.3,273.729z"/>
		<path fill="#8CC63F" d="M277.958,279.374c-0.179,0-0.338-0.126-0.372-0.31c-0.123-0.651-12.542-65.446-36.286-84.838
			c-0.162-0.134-0.186-0.373-0.054-0.533c0.132-0.164,0.37-0.187,0.533-0.055c23.958,19.566,36.428,84.631,36.551,85.286
			c0.04,0.205-0.097,0.403-0.302,0.441C278.004,279.372,277.98,279.374,277.958,279.374z"/>
		
			<ellipse transform="matrix(0.7261 -0.6876 0.6876 0.7261 -31.6289 290.0215)" fill="#F15A24" cx="348.221" cy="184.711" rx="12.028" ry="4.512"/>
		<path fill="#F15A24" d="M239.49,185.702c3.324,4.155,4.755,8.534,3.198,9.78c-1.559,1.25-5.519-1.109-8.844-5.265
			c-3.323-4.159-4.756-8.54-3.197-9.784C232.206,179.186,236.165,181.548,239.49,185.702z"/>
		<path fill="#F15A24" d="M278.467,205.598c3.324,4.156,4.754,8.537,3.197,9.783c-1.558,1.249-5.518-1.111-8.844-5.268
			c-3.324-4.157-4.755-8.539-3.196-9.782C271.181,199.081,275.142,201.443,278.467,205.598z"/>
		<path fill="#8CC63F" d="M282.294,284.234c-0.026,0-0.053-0.002-0.08-0.008c-0.205-0.045-0.335-0.246-0.291-0.449
			c0.109-0.506,11.142-50.701,32.457-65.271c0.172-0.117,0.408-0.072,0.527,0.1c0.118,0.174,0.074,0.41-0.1,0.527
			c-21.068,14.4-32.035,64.301-32.143,64.805C282.626,284.114,282.469,284.234,282.294,284.234z"/>
		<path fill="#F15A24" d="M323.836,215.842c-4.824,4.565-10.123,6.803-11.835,4.994c-1.716-1.809,0.807-6.979,5.632-11.547
			c4.821-4.568,10.122-6.807,11.835-4.997C331.183,206.102,328.659,211.271,323.836,215.842z"/>
	</g>
</g>
<g>
	<defs>
		<rect id="SVGID_52_" width="1000" height="258.711"/>
	</defs>
	<clipPath id="SVGID_53_">
		<use xlink:href="#SVGID_52_"  overflow="visible"/>
	</clipPath>
	<g clip-path="url(#SVGID_53_)">
		<path fill="#2F4C09" d="M165.193,292.518c0,0-19.515-42.557-2.411-89.385c0,0-8.408,56.778,13.716,89.385H165.193z"/>
		<path fill="#2F4C09" d="M121,292.52c0,0-19.438-42.347-2.334-89.174c0,0-8.407,56.778,13.639,89.174H121z"/>
		<path fill="#2F4C09" d="M232.707,292.518c0,0,1.69-35.801,24.088-55.233c0,0-18.047,36.885-16.065,55.233H232.707z"/>
		<path fill="#2F3D09" d="M247.367,292.518c0,0,10.026-22.223,28.86-29.609c0,0-20.324,18.051-20.324,29.609H247.367z"/>
		<path fill="#2F4C09" d="M257.393,292.518c0,0,11.112-20.578,33.604-21.399c0,0-23.712,11.618-22.628,21.399H257.393z"/>
		<path fill="#2F3D09" d="M273.925,292.521c0,0,17.737-20.016,47.899-17.435c0,0-29.654,2.295-34.621,17.435H273.925z"/>
		<path fill="#2F4C09" d="M200.643,212.367c0,0,0.164,60.078,12.063,80.148h15.16c0,0-9.455-37.688-1.468-58.095
			c0,0-11.573,23.205-7.66,44.767C218.738,279.188,202.273,248.741,200.643,212.367z"/>
		<path fill="#2F4C09" d="M180.266,292.518c0,0,3.098-46.904,40.426-65.502c0,0-27.712,20.084-32.928,65.502H180.266z"/>
		<path fill="#2F4C09" d="M144.241,292.521c0,0,19.725-52.013,67.16-66.164c0,0-45.643,26.178-57.542,66.164H144.241z"/>
		
			<linearGradient id="SVGID_54_" gradientUnits="userSpaceOnUse" x1="568.8652" y1="-284.1143" x2="602.8203" y2="-284.1143" gradientTransform="matrix(1 0 0 -1 -346 -36.2891)">
			<stop  offset="0" style="stop-color:#476200"/>
			<stop  offset="1" style="stop-color:#BDD400"/>
		</linearGradient>
		<path fill="url(#SVGID_54_)" d="M222.865,292.518c0,0,2.243-45.189,33.956-89.385c0,0-28.236,59.705-22.652,89.385H222.865z"/>
	</g>
</g>
<g>
	<defs>
		<rect id="SVGID_55_" width="1000" height="258.711"/>
	</defs>
	<clipPath id="SVGID_56_">
		<use xlink:href="#SVGID_55_"  overflow="visible"/>
	</clipPath>
</g>
<rect fill="none" width="1000" height="258.711"/>
</svg>
