<?xml version="1.0" encoding="utf-8"?>
<!-- Generator: Adobe Illustrator 16.0.0, SVG Export Plug-In . SVG Version: 6.00 Build 0)  -->
<!DOCTYPE svg PUBLIC "-//W3C//DTD SVG 1.1//EN" "http://www.w3.org/Graphics/SVG/1.1/DTD/svg11.dtd">
<svg version="1.1" id="Objects" xmlns="http://www.w3.org/2000/svg" xmlns:xlink="http://www.w3.org/1999/xlink" x="0px" y="0px"
	 width="407.735px" height="219.457px" viewBox="0 0 407.735 219.457" enable-background="new 0 0 407.735 219.457"
	 xml:space="preserve">
<g>
	<g>
		<path fill="#F5F5F5" d="M38.554,74.236c-8.35-24.208,6.151-51.722,36.322-65.171C88.194,3.135,103.691,0,119.688,0
			c26.667,0,52.883,8.334,71.926,22.865c8.948,6.826,16.458,14.944,22.24,23.966c10.742-6.339,23.795-10.151,37.508-10.695
			c1.111-0.045,2.217-0.066,3.324-0.066c16.584,0,32.688,4.95,44.932,13.317c10.617-9.728,27.406-15.939,45.439-15.939
			c11.826,0,22.83,2.722,31.826,7.876c12.285,7.05,19.752,18.19,20.488,30.565c0.502,8.419-2.121,16.725-7.289,23.813
			c12.004,6.898,20.084,17.624,16.988,30.042c-2.275,9.137-10.889,16.898-21.863,20.791c2.713,9.684,2.067,20.111-2.031,29.921
			c-6.061,14.499-18.66,26.039-35.48,32.494c-9.826,3.771-20.568,5.684-31.93,5.684c-20.197-0.001-39.939-6.187-54.285-16.468
			c-7.813,5.859-18.07,9.661-29.104,10.432c-1.396,0.098-2.813,0.147-4.215,0.147c-12.142-0.001-23.941-3.789-32.844-10.093
			c-18.148,13.054-41.924,20.806-65.193,20.805c-8.379,0-16.601-0.992-24.444-2.95c-29.612-7.399-50.614-28.483-52.721-50.519
			c-25.732-1.428-49.894-19.391-52.639-39.754C-2.543,104.973,13.875,83.708,38.554,74.236z"/>
		<path fill="#936E06" d="M55.624,80.08c-26.021,4.65-44.7,25.25-42.016,45.15c2.497,18.521,29.066,36.061,53.552,29.41
			c-5.968,22.06,14.5,45.319,42.751,52.379c32.123,8.021,67.05-4.709,86.356-24.26c5.969,9.93,19.974,16.93,34.858,15.881
			c13.633-0.951,24.688-8.111,29.332-17.33c15.849,20.06,52.619,29.689,81.15,18.739c28.504-10.94,39.574-39.649,26.383-60.891
			c11.775,0.721,23.711-6.239,25.953-15.25c2.924-11.729-9.799-21.479-23.844-25.01c18.385-12.649,19.346-37.77-1.336-49.64
			c-22.43-12.851-58.959-3.181-66.156,17.069c-0.094,0.25-0.105,0.49-0.066,0.711c-0.199,0.189-0.399,0.39-0.602,0.59
			c-9.586-13.4-29.373-22.33-49.865-21.511c-17.893,0.71-33.752,8.37-42.992,19.5c-5.005-13.319-14.005-25.84-26.996-35.75
			c-25.635-19.56-67.891-26.68-100.389-12.21C53.836,30.08,41.125,58.171,55.624,80.08z M19.683,121.541
			c-0.107-17.841,17.65-34.851,41.441-37.58c2.003-0.23,2.778-2.24,1.856-3.4c-10.493-13.23-9.185-29.89,0.855-43.07
			c10.761-14.12,30.922-22.01,52.311-22.819c45.967-1.761,79.853,26.43,88.798,58.14c0.721,2.56,5.021,1.92,6.088,0
			c7.145-12.72,24.434-21.84,42.977-21.99c18.359-0.16,35.183,8.2,43.326,20.33c0.787,1.17,2.256,1.391,3.498,1.03
			c0.603,0.13,1.295,0.08,1.803-0.25c1.63-1.061,2.736-2.63,3.818-4.07c0.201-0.149,0.348-0.35,0.467-0.59
			c0.015-0.02,0.041-0.05,0.068-0.08c0.16-0.21,0.254-0.41,0.279-0.61c7.932-16.189,38.691-24.409,57.584-13.52
			c18.959,10.94,16.143,35.7-3.777,44.92c-2.15,0.99-2.164,4.14,0.773,4.45c12.162,1.29,26.063,8.08,25.982,18.37
			c-0.082,8.79-13.888,16.91-24.875,12.24c-2.709-1.149-6.287,1.229-4.445,3.329c16.662,18.98,8.145,47.699-18.691,58.891
			c-27.543,11.479-66.129,0.09-77.25-21.66c-1.336-2.6-6.021-2.109-6.369,0.65c-1.309,10.239-12.99,19.221-26.943,19.641
			c-13.737,0.42-25.833-7.351-28.905-17.121c-0.652-2.1-4.484-2.27-5.9-0.58c-16.489,19.74-49.894,33.521-81.123,26.58
			c-28.21-6.27-48.118-30.6-38.105-51.97c0.936-1.989-2.443-3.79-4.725-2.721c-11.457,5.392-25.382,2.979-35.595-2.979
			C25.117,139.391,19.722,130.801,19.683,121.541z"/>
	</g>
</g>
<g>
	<path fill="#936E06" stroke="#936E06" stroke-miterlimit="10" d="M72.121,84.645l-0.293,0.791
		c-0.469,0.078-0.908,0.195-1.318,0.352l-0.586,0.205l-0.791,0.586c-0.508,0.293-0.772,0.459-0.791,0.498
		c-0.098,0.098-0.146,0.234-0.146,0.41v0.029l0.059,0.322h0.527l0.732,0.732c0.059,0.586,0.088,0.977,0.088,1.172
		c0,1.309,0.068,2.12,0.205,2.432l0.176,0.352c-0.234,1.329-0.352,2.012-0.352,2.051c0,0.176,0.029,0.381,0.088,0.615l0.908-0.117
		c0.234,0.293,0.381,0.703,0.439,1.23c-0.781,0.645-1.172,1.534-1.172,2.666c0,0.137,0.098,1.602,0.293,4.395
		c0,0.117,0,0.205,0,0.264c0,0.117-0.01,0.264-0.029,0.439c-0.137,1.309-0.205,2.188-0.205,2.637c0,0.215,0.205,0.42,0.615,0.615
		v1.787c-0.333,0.176-0.498,0.352-0.498,0.527c0,0.098,0.019,0.215,0.059,0.352c0.176,0.625,0.264,1.084,0.264,1.377
		c0,0.059-0.01,0.137-0.029,0.234c-0.059,0.137-0.088,0.225-0.088,0.264l-0.059,3.223c0,0.137,0.01,0.303,0.029,0.498
		c0,0.078,0,0.127,0,0.146l-0.088,1.67c0.136,0.801,0.205,1.26,0.205,1.377c0,0.156-0.098,0.703-0.293,1.641l0.029,1.201
		l-0.059,0.732l0.293,1.23c0.059,0.391,0.176,0.674,0.352,0.85l-0.088,0.059c0.019,0.176,0.029,0.342,0.029,0.498
		c0,0.391-0.215,0.781-0.645,1.172v1.055c-0.274,0.137-0.43,0.283-0.469,0.439c-0.02,0.098-0.069,0.4-0.146,0.908v3.779
		l-0.029,1.143c0,0.195,0.019,0.332,0.059,0.41c0.234,0.391,0.352,0.645,0.352,0.762c0,0.098-0.029,0.195-0.088,0.293
		c-0.215,0.352-0.342,0.645-0.381,0.879c-0.176,1.406-0.371,2.363-0.586,2.871c0.195,0.313,0.293,0.527,0.293,0.645
		c0,0.156-0.166,0.576-0.498,1.26c-0.059,0.137-0.146,0.42-0.264,0.85c-0.098,0.313-0.186,0.635-0.264,0.967
		c0.429,0.176,0.762,0.264,0.996,0.264c0.41,0,0.83-0.127,1.26-0.381c0.352-0.195,0.703-0.4,1.055-0.615
		c0.762-0.137,1.22-0.244,1.377-0.322l1.055-0.762c0.039-0.02,0.195-0.049,0.469-0.088v-0.439v-5.596l-0.615-0.381l0.586-0.615
		l-0.117-5.801c-0.02-0.605,0-1.006,0.059-1.201l0.029-0.117c0-0.078-0.078-0.244-0.234-0.498c-0.078-0.117-0.146-0.342-0.205-0.674
		c-0.371-0.254-0.557-0.42-0.557-0.498c-0.098-0.078-0.146-0.371-0.146-0.879c0.781-0.508,1.172-0.918,1.172-1.23l-0.029-1.143
		v-1.611l-0.205-1.113v-4.922l0.146-0.293l-0.703-0.088l-0.293-1.494l0.645-0.615c0.098-0.313,0.146-0.508,0.146-0.586l-0.059-1.963
		v-0.029c0.039-0.352,0.136-1.182,0.293-2.49l-0.703-0.176c0.019-0.781,0.039-1.25,0.059-1.406c0.312-1.27,0.479-2.392,0.498-3.369
		l-0.469-0.469c0.253-1.094,0.479-2.5,0.674-4.219c0-0.156,0.029-0.458,0.088-0.908l-0.762-0.146
		c0.059-0.429,0.088-0.889,0.088-1.377c0.019-0.293,0.054-0.483,0.103-0.571c0.048-0.088,0.19-0.22,0.425-0.396v-1.934l0.146-4.717
		c0.019-0.332,0.039-0.596,0.059-0.791c0.019-0.293,0.029-0.469,0.029-0.527c-0.02-0.253-0.107-0.615-0.264-1.084
		C73.585,84.439,72.941,84.605,72.121,84.645z"/>
	<path fill="#936E06" stroke="#936E06" stroke-miterlimit="10" d="M119.347,128.766l-0.088-1.406l-0.059-1.611
		c-0.293-0.801-0.439-1.299-0.439-1.494c0-0.293,0.029-0.645,0.088-1.055c-0.41-0.391-0.615-0.703-0.615-0.938
		c0-0.078,0.01-0.137,0.029-0.176c0.371-0.859,0.557-1.455,0.557-1.787c0-0.313-0.078-0.508-0.234-0.586
		c-1.309-0.703-1.963-1.064-1.963-1.084c0-0.156,0.244-0.322,0.732-0.498c0.488-0.176,0.967-0.264,1.436-0.264
		c-0.02-2.207-0.234-3.633-0.645-4.277c-0.684-1.016-1.279-1.563-1.787-1.641l-0.674-0.117c-0.117-0.02-0.313-0.195-0.586-0.527
		c-0.45-0.039-0.938-0.117-1.465-0.234c-0.879-0.215-1.426-0.322-1.641-0.322c-0.157,0-0.615,0.137-1.377,0.41l-0.586-0.176
		c-0.157-0.059-0.342-0.088-0.557-0.088c-1.055,0-2.12,0.391-3.193,1.172c-0.254-0.43-0.508-0.645-0.762-0.645
		c-0.215,0-0.713,0.322-1.494,0.967L103,113.033c-0.137-0.02-0.596,0.469-1.377,1.465c-0.45-0.781-0.674-1.309-0.674-1.582
		c-0.02-1.074-0.049-1.641-0.088-1.699c-0.117-0.234-0.4-0.352-0.85-0.352c-0.43,0-1.094,0.361-1.992,1.084
		c-0.84,0.371-1.338,0.898-1.494,1.582c0.449,0.547,0.684,0.977,0.703,1.289c0.039,0.391,0.078,0.615,0.117,0.674
		c0.039,0.098,0.244,0.42,0.615,0.967l-0.674,0.381c0.215,1.211,0.322,2.041,0.322,2.49c0,0.137-0.01,0.254-0.029,0.352
		c-0.078,0.41-0.117,0.703-0.117,0.879c0,0.234,0.01,0.537,0.029,0.908c0.508,0.039,0.82,0.088,0.938,0.146
		c0.098,0.098,0.166,0.234,0.205,0.41l-0.82,0.381c-0.137,0.391-0.205,0.713-0.205,0.967c0,0.234,0.01,0.469,0.029,0.703
		c0.019,0.488,0.029,0.859,0.029,1.113c0,0.137-0.01,0.303-0.029,0.498c-0.04,0.313-0.059,0.508-0.059,0.586
		c0,0.137,0.048,0.4,0.146,0.791c0.078,0.273,0.117,0.508,0.117,0.703c0,0.098-0.088,0.43-0.264,0.996l-0.029,2.227
		c0,0.098-0.069,0.439-0.205,1.025c-0.04,0.195-0.059,0.371-0.059,0.527c0,0.176,0.078,0.342,0.234,0.498
		c0.234,0.273,0.41,0.41,0.527,0.41c0.293,0,0.517-0.117,0.674-0.352c0.156-0.254,0.303-0.391,0.439-0.41
		c0.078-0.02,0.234-0.078,0.469-0.176c0.176-0.098,0.312-0.146,0.41-0.146c0.566-0.078,0.889-0.137,0.967-0.176
		c0.195-0.078,0.391-0.322,0.586-0.732c-0.234-0.625-0.391-1.514-0.469-2.666c0-0.156-0.02-0.469-0.059-0.938l0.088-0.088
		c-0.41-0.391-0.615-0.762-0.615-1.113c0-0.156,0.019-0.264,0.059-0.322c0.352-0.469,0.527-0.762,0.527-0.879l-0.059-2.168
		c0.039-0.332,0.059-0.527,0.059-0.586c0-0.254-0.049-0.439-0.146-0.557c-0.117-0.117-0.567-0.381-1.348-0.791
		c-0.352-0.195-0.527-0.391-0.527-0.586c0-0.098,0.068-0.195,0.205-0.293l1.318-0.967c0.156-0.098,0.234-0.322,0.234-0.674v-0.029
		v-0.088c-0.04-1.23-0.059-1.855-0.059-1.875c0-0.449,0.156-0.908,0.469-1.377c0.156-0.273,0.713-0.674,1.67-1.201
		c0.645-0.41,1.172-0.674,1.582-0.791c0.332-0.078,0.634-0.186,0.908-0.322c0.195-0.078,0.303-0.117,0.322-0.117
		c0.41,0,0.82,0.488,1.23,1.465v-0.146l0.557-0.557c0.703,0.156,1.103,0.234,1.201,0.234c0.566,0,1.211-0.313,1.934-0.938
		c0.469-0.391,0.869-0.586,1.201-0.586c0.195,0,0.371,0.127,0.527,0.381l0.82,1.406c0.059,0.078,0.322,0.186,0.791,0.322
		l0.146,0.176c0,0.332,0.156,0.664,0.469,0.996c0.312,0.332,0.469,0.596,0.469,0.791l-0.029,1.465c0,0.117,0.156,0.352,0.469,0.703
		c-0.078,0.371-0.157,0.654-0.234,0.85c-0.059,0.137-0.088,0.215-0.088,0.234l0.146,1.553l-0.088,1.055
		c1.289,0.488,1.934,0.771,1.934,0.85c0,0.371-0.234,0.781-0.703,1.23l-0.879,0.82c-0.176,0.176-0.322,0.684-0.439,1.523
		c0.996,0.215,1.729,0.469,2.197,0.762l0.322,0.205c-0.02,0.098-0.518,0.215-1.494,0.352l-0.586,0.205
		c0,0.117-0.01,0.264-0.029,0.439c-0.02,0.352-0.04,0.576-0.059,0.674c-0.352,1.387-0.527,2.148-0.527,2.285
		c0,0.391,0.273,0.869,0.82,1.436c0.703-0.469,1.132-0.742,1.289-0.82c0.781-0.313,1.22-0.498,1.318-0.557
		c0.215-0.117,0.586-0.371,1.113-0.762c-0.195-0.527-0.293-0.889-0.293-1.084L119.347,128.766z"/>
	<path fill="#936E06" stroke="#936E06" stroke-miterlimit="10" d="M149.64,127.096c-0.313,0.527-0.645,0.996-0.996,1.406
		c-0.137,0.195-0.635,0.557-1.494,1.084c-0.879,0.547-1.484,0.889-1.816,1.025c-0.234,0.078-0.693,0.137-1.377,0.176l-1.436,0.41
		l-1.875,0.205c-0.743,0.234-1.241,0.352-1.494,0.352c-0.274,0-0.527-0.059-0.762-0.176c-1.055-0.488-1.641-0.732-1.758-0.732
		c-0.157,0-0.342,0.02-0.557,0.059l-0.498-0.762c-0.547-0.039-0.898-0.117-1.055-0.234c-0.215-0.117-0.371-0.479-0.469-1.084
		c-0.684-0.098-1.172-0.273-1.465-0.527c-0.313-0.273-0.567-0.811-0.762-1.611l-0.908-0.234l0.146-1.084l-0.527-0.293
		c-0.176-0.43-0.362-1.27-0.557-2.52c-0.04-0.176-0.371-0.479-0.996-0.908c0.352-0.352,0.586-0.674,0.703-0.967
		c0.098-0.254,0.195-0.713,0.293-1.377c0.41-0.059,1.182-0.264,2.314-0.615l1.23,0.029l1.377-0.234l1.348-0.117l1.084-0.117
		c1.387,0,2.236-0.02,2.549-0.059l0.146,0.117c0.429-0.059,0.801-0.088,1.113-0.088c0.078,0,0.742,0.117,1.992,0.352
		c0.801-0.801,1.26-1.201,1.377-1.201c0.059,0,0.693,0.43,1.904,1.289l0.879-0.234l0.996,0.176l1.113-0.41
		c0.371,0.137,0.664,0.225,0.879,0.264l0.205-0.205c-0.157-0.43-0.293-0.781-0.41-1.055c-0.176-0.527-0.342-0.977-0.498-1.348
		c-0.176-0.43-0.498-0.889-0.967-1.377c-1.484-1.543-2.325-2.363-2.52-2.461c-0.371-0.156-0.576-0.254-0.615-0.293
		c-0.117-0.098-0.322-0.322-0.615-0.674l-0.938,0.586c-0.391-1.035-1.133-1.553-2.227-1.553c-0.117,0-0.752,0.215-1.904,0.645
		l-1.436,0.117l-2.227,0.703l-0.791,0.146l-2.168,1.494l-2.139,1.318c-0.86,0.781-1.622,1.484-2.285,2.109l-0.645,1.377
		l-0.996,1.172c-0.098,0.117-0.264,0.557-0.498,1.318c-0.274,0.977-0.41,1.68-0.41,2.109c0,1.387,0.068,2.217,0.205,2.49
		c0.508,1.035,0.762,1.582,0.762,1.641c0,0.156-0.098,0.391-0.293,0.703c0.586,0.586,0.918,0.957,0.996,1.113l0.527,0.938
		c0.039,0.176,0.332,0.43,0.879,0.762c0.645,0.391,0.986,0.605,1.025,0.645c0.566,0.527,0.898,0.82,0.996,0.879
		c0.156,0.078,0.967,0.342,2.432,0.791l0.615,0.381l0.557,0.059c1.172,0.137,1.885,0.205,2.139,0.205
		c0.253,0,0.615-0.029,1.084-0.088l0.498-0.029l1.025-0.176l1.729,0.264c0.019,0,0.332-0.098,0.938-0.293
		c0.215-0.059,0.722-0.127,1.523-0.205c0.469-0.059,1.308-0.254,2.52-0.586c0.527-0.039,0.967-0.176,1.318-0.41
		c0.527-0.391,0.85-0.586,0.967-0.586c0.176,0,0.391,0.059,0.645,0.176c0.215-0.449,0.732-1.367,1.553-2.754
		c0.117-0.215,0.244-0.674,0.381-1.377c-0.333-0.254-0.586-0.381-0.762-0.381C150.069,126.744,149.796,126.861,149.64,127.096z
		 M132.121,115.846c0.332-0.254,0.557-0.43,0.674-0.527c0.625-0.566,1.006-0.898,1.143-0.996c0.625-0.273,1.348-0.557,2.168-0.85
		c1.035-0.234,1.572-0.371,1.611-0.41l0.996-0.586l0.586,0.029c1.367,0,2.333,0.039,2.9,0.117c0.253,0.391,0.439,0.615,0.557,0.674
		l0.967,0.469c0.117-0.039,0.41,0.254,0.879,0.879c0.156,0.195,0.253,0.313,0.293,0.352c0.234,0.254,0.352,0.469,0.352,0.645
		c0,0.078-0.01,0.176-0.029,0.293c-0.078,0.195-0.127,0.293-0.146,0.293l-1.67-0.146c-0.527,0.195-1.055,0.332-1.582,0.41
		c-0.137,0.02-0.4,0.068-0.791,0.146l-0.498-0.615c-0.43,0.039-0.743,0.088-0.938,0.146c-0.86,0.195-1.417,0.293-1.67,0.293
		c-0.02,0-0.04,0-0.059,0c-0.898-0.254-1.377-0.381-1.436-0.381c-0.117,0-0.225,0.039-0.322,0.117l-1.143,1.377l-0.645-0.645
		l-2.139-0.85l-0.059-0.059V115.846z"/>
	<path fill="#936E06" stroke="#936E06" stroke-miterlimit="10" d="M180.519,127.096c-0.313,0.527-0.645,0.996-0.996,1.406
		c-0.137,0.195-0.635,0.557-1.494,1.084c-0.879,0.547-1.484,0.889-1.816,1.025c-0.234,0.078-0.693,0.137-1.377,0.176l-1.436,0.41
		l-1.875,0.205c-0.743,0.234-1.241,0.352-1.494,0.352c-0.274,0-0.527-0.059-0.762-0.176c-1.055-0.488-1.641-0.732-1.758-0.732
		c-0.157,0-0.342,0.02-0.557,0.059l-0.498-0.762c-0.547-0.039-0.898-0.117-1.055-0.234c-0.215-0.117-0.371-0.479-0.469-1.084
		c-0.684-0.098-1.172-0.273-1.465-0.527c-0.313-0.273-0.567-0.811-0.762-1.611l-0.908-0.234l0.146-1.084l-0.527-0.293
		c-0.176-0.43-0.362-1.27-0.557-2.52c-0.04-0.176-0.371-0.479-0.996-0.908c0.352-0.352,0.586-0.674,0.703-0.967
		c0.098-0.254,0.195-0.713,0.293-1.377c0.41-0.059,1.182-0.264,2.314-0.615l1.23,0.029l1.377-0.234l1.348-0.117l1.084-0.117
		c1.387,0,2.236-0.02,2.549-0.059l0.146,0.117c0.429-0.059,0.801-0.088,1.113-0.088c0.078,0,0.742,0.117,1.992,0.352
		c0.801-0.801,1.26-1.201,1.377-1.201c0.059,0,0.693,0.43,1.904,1.289l0.879-0.234l0.996,0.176l1.113-0.41
		c0.371,0.137,0.664,0.225,0.879,0.264l0.205-0.205c-0.157-0.43-0.293-0.781-0.41-1.055c-0.176-0.527-0.342-0.977-0.498-1.348
		c-0.176-0.43-0.498-0.889-0.967-1.377c-1.484-1.543-2.325-2.363-2.52-2.461c-0.371-0.156-0.576-0.254-0.615-0.293
		c-0.117-0.098-0.322-0.322-0.615-0.674l-0.938,0.586c-0.391-1.035-1.133-1.553-2.227-1.553c-0.117,0-0.752,0.215-1.904,0.645
		l-1.436,0.117l-2.227,0.703l-0.791,0.146l-2.168,1.494l-2.139,1.318c-0.86,0.781-1.622,1.484-2.285,2.109l-0.645,1.377
		l-0.996,1.172c-0.098,0.117-0.264,0.557-0.498,1.318c-0.274,0.977-0.41,1.68-0.41,2.109c0,1.387,0.068,2.217,0.205,2.49
		c0.508,1.035,0.762,1.582,0.762,1.641c0,0.156-0.098,0.391-0.293,0.703c0.586,0.586,0.918,0.957,0.996,1.113l0.527,0.938
		c0.039,0.176,0.332,0.43,0.879,0.762c0.645,0.391,0.986,0.605,1.025,0.645c0.566,0.527,0.898,0.82,0.996,0.879
		c0.156,0.078,0.967,0.342,2.432,0.791l0.615,0.381l0.557,0.059c1.172,0.137,1.885,0.205,2.139,0.205
		c0.253,0,0.615-0.029,1.084-0.088l0.498-0.029l1.025-0.176l1.729,0.264c0.019,0,0.332-0.098,0.938-0.293
		c0.215-0.059,0.722-0.127,1.523-0.205c0.469-0.059,1.308-0.254,2.52-0.586c0.527-0.039,0.967-0.176,1.318-0.41
		c0.527-0.391,0.85-0.586,0.967-0.586c0.176,0,0.391,0.059,0.645,0.176c0.215-0.449,0.732-1.367,1.553-2.754
		c0.117-0.215,0.244-0.674,0.381-1.377c-0.333-0.254-0.586-0.381-0.762-0.381C180.948,126.744,180.675,126.861,180.519,127.096z
		 M163,115.846c0.332-0.254,0.557-0.43,0.674-0.527c0.625-0.566,1.006-0.898,1.143-0.996c0.625-0.273,1.348-0.557,2.168-0.85
		c1.035-0.234,1.572-0.371,1.611-0.41l0.996-0.586l0.586,0.029c1.367,0,2.333,0.039,2.9,0.117c0.253,0.391,0.439,0.615,0.557,0.674
		l0.967,0.469c0.117-0.039,0.41,0.254,0.879,0.879c0.156,0.195,0.253,0.313,0.293,0.352c0.234,0.254,0.352,0.469,0.352,0.645
		c0,0.078-0.01,0.176-0.029,0.293c-0.078,0.195-0.127,0.293-0.146,0.293l-1.67-0.146c-0.527,0.195-1.055,0.332-1.582,0.41
		c-0.137,0.02-0.4,0.068-0.791,0.146l-0.498-0.615c-0.43,0.039-0.743,0.088-0.938,0.146c-0.86,0.195-1.417,0.293-1.67,0.293
		c-0.02,0-0.04,0-0.059,0c-0.898-0.254-1.377-0.381-1.436-0.381c-0.117,0-0.225,0.039-0.322,0.117l-1.143,1.377l-0.645-0.645
		l-2.139-0.85L163,116.021V115.846z"/>
	<path fill="#936E06" stroke="#936E06" stroke-miterlimit="10" d="M214.621,128.18c-0.02-0.332-0.166-1.045-0.439-2.139l0.029-1.143
		l-0.439-2.549l0.088-1.436l-0.117-1.377l-0.029-0.615l-0.205-1.963l-0.059-1.729l-0.029-0.498l-0.059-1.553
		c0-0.059,0.127-0.313,0.381-0.762l-0.029-0.703l0.059-0.527c0.02-0.078,0.029-0.137,0.029-0.176c0-0.137-0.02-0.313-0.059-0.527
		c-0.078-0.586-0.117-1.143-0.117-1.67c0-0.078,0.01-0.166,0.029-0.264c0.098-1.094,0.146-1.67,0.146-1.729
		c-0.039-0.352-0.391-0.732-1.055-1.143c-0.02-0.176-0.029-0.322-0.029-0.439c0-0.215,0.107-0.546,0.322-0.996l0.645-0.117
		c0.117-0.195,0.176-0.361,0.176-0.498c0-0.156-0.02-0.341-0.059-0.557c-0.137-0.527-0.205-0.957-0.205-1.289
		c0-0.078,0.068-0.341,0.205-0.791l-0.117-0.85l0.264-1.084c-0.313-0.508-0.557-1.084-0.732-1.729l0.586-1.084l-0.117-2.168
		c0-0.039,0.088-0.341,0.264-0.908c0.078-0.234,0.117-0.429,0.117-0.586v-1.23v-0.85v-1.23l0.059-0.498v-0.85
		c0.137-0.839,0.205-1.27,0.205-1.289v-0.029l-0.059-0.557c-0.02-0.625-0.098-1.074-0.234-1.348
		c-1.504,0.195-2.441,0.557-2.813,1.084c-1.289,0.254-2.012,0.45-2.168,0.586c-0.215,0.195-0.322,0.352-0.322,0.469
		c0,0.137,0.469,0.371,1.406,0.703c0.605,0.195,0.928,0.459,0.967,0.791l0.205,1.377l0.615,0.732l-2.373,1.553l0.088,0.059
		l0.176,0.088c0.449,0,0.713,0.059,0.791,0.176c0.059-0.039,0.166,0.107,0.322,0.439l-0.527,0.322
		c-0.117,0.274-0.176,0.459-0.176,0.557l0.322,1.67c-0.156,0.625-0.234,1.094-0.234,1.406c-0.02,0.918-0.039,1.67-0.059,2.256
		l0.088,0.82c0.02,0.333,0.176,0.948,0.469,1.846c0.059,0.469,0.176,0.84,0.352,1.113l-0.732,0.381c0,1.191,0.225,2.032,0.674,2.52
		c0.703,0.703,1.055,1.133,1.055,1.289c0,0.098-0.596,0.557-1.787,1.377l0.146,0.586l0.176,1.816
		c0.02,0.078,0.166,0.293,0.439,0.645c-0.43,0.332-0.791,0.498-1.084,0.498c-0.137,0-0.244-0.029-0.322-0.088l-0.703-0.439
		c-0.098-0.059-0.781-0.195-2.051-0.41c-0.195-0.02-0.586-0.117-1.172-0.293l-0.586,0.732c-0.176-0.098-0.547-0.342-1.113-0.732
		c-0.313-0.215-0.547-0.322-0.703-0.322c-0.078,0-0.352,0.078-0.82,0.234l-0.996,0.088l-1.348,0.469
		c-0.743,0.254-1.191,0.449-1.348,0.586v0.762c-0.508,0.176-0.948,0.4-1.318,0.674l-0.41-0.322c-0.508-0.098-0.85-0.146-1.025-0.146
		c-0.215,0-0.518,0.166-0.908,0.498l-0.791,0.557c-1.036,1.074-1.592,1.631-1.67,1.67c-0.117,0.059-0.371,0.215-0.762,0.469
		l0.293,1.523l-0.205,0.205l-1.025-0.205c-0.43,0.293-0.743,0.537-0.938,0.732c-0.157,0.176-0.605,1.201-1.348,3.076l-0.498,0.908
		c0,0.605-0.049,1.064-0.146,1.377c-0.117,0.449-0.176,0.84-0.176,1.172c0,0.117,0.146,0.889,0.439,2.314l0.088,0.557
		c0.019,0.059,0.253,0.283,0.703,0.674c0.352,0.313,0.527,0.664,0.527,1.055c0,0.215-0.029,0.469-0.088,0.762
		c0.352,0.234,0.918,0.684,1.699,1.348c0.215,0.195,0.458,0.293,0.732,0.293c0.215,0,0.508-0.088,0.879-0.264
		c0.195,0.195,0.303,0.352,0.322,0.469c0.059,0.293,0.098,0.469,0.117,0.527c0.098,0.234,0.205,0.352,0.322,0.352
		c0.156,0,0.517-0.156,1.084-0.469l0.527,0.85c1.015,0.254,2.421,0.381,4.219,0.381c0.352,0,1.23-0.107,2.637-0.322
		c0.898,0,2.402-0.264,4.512-0.791c1.465-0.273,2.285-0.439,2.461-0.498c0.41-0.117,0.869-0.352,1.377-0.703l0.41,0.352
		c0.566-0.059,1.289-0.186,2.168-0.381c1.152-0.117,1.846-0.234,2.08-0.352c0-0.137,0-0.264,0-0.381
		c0-0.332-0.166-0.654-0.498-0.967C214.66,129.049,214.64,128.629,214.621,128.18z M210.929,119.977
		c-0.02,0.234-0.029,0.43-0.029,0.586c0,0.215,0.059,0.488,0.176,0.82l-0.996,0.381c0.039,0.41,0.117,0.879,0.234,1.406
		l-0.029,1.875v2.285l-0.146,0.791c-0.02,0.078,0.049,0.273,0.205,0.586c-0.313,0.332-0.703,0.85-1.172,1.553
		c-0.195,0.176-0.791,0.352-1.787,0.527l-2.578,0.586h-1.201l-2.52,0.088c-0.547,0-1.172-0.205-1.875-0.615
		c-0.215,0.996-0.498,1.494-0.85,1.494c-0.059,0-0.41-0.244-1.055-0.732l-0.791-0.41l-0.732-0.732
		c-0.625-0.508-1.006-0.85-1.143-1.025c-0.137-0.195-0.459-0.635-0.967-1.318l-0.264-0.645c-0.059-0.137-0.293-0.322-0.703-0.557
		c0.019-0.215,0.029-0.41,0.029-0.586s-0.186-0.566-0.557-1.172l-0.264-0.762l-0.264-0.732l-0.117-0.645
		c-0.137-0.469-0.205-0.85-0.205-1.143c0-0.703,0.048-1.182,0.146-1.436l0.791-1.201c0.352-0.527,0.81-0.986,1.377-1.377
		c-0.04-0.547,0.322-1.152,1.084-1.816l0.967-0.557c0.136-0.078,0.361-0.313,0.674-0.703l0.967,0.146
		c0.645-0.723,1.201-1.084,1.67-1.084l0.791,0.059c0.664-0.293,1.152-0.439,1.465-0.439h0.205h0.117
		c0.059-0.02,0.488-0.537,1.289-1.553l1.143,0.762l1.992,0.615l1.025,0.938c0.215,0.195,0.625,0.293,1.23,0.293
		c0.195,0,0.303-0.01,0.322-0.029c0.508-0.215,0.801-0.322,0.879-0.322c0.117,0,0.342,0.068,0.674,0.205v0.996
		c0.137,0.176,0.205,0.293,0.205,0.352l-0.029,0.586l1.758,2.021l-1.787,1.465L210.929,119.977z"/>
	<path fill="#936E06" stroke="#936E06" stroke-miterlimit="10" d="M256.808,114.41l0.439-0.879c-0.625-0.273-1.045-0.547-1.26-0.82
		c-0.625-0.703-0.947-1.064-0.967-1.084c-0.156-0.098-1.104-0.205-2.842-0.322l-1.758-0.117c-0.156-0.02-0.273,0.059-0.352,0.234
		c-0.176,0.332-0.332,0.566-0.469,0.703h-0.703l-0.176-0.645c-0.293-0.293-0.547-0.439-0.762-0.439
		c-0.195,0-0.742,0.088-1.641,0.264c-0.547,0.117-1.045,0.322-1.494,0.615l-1.23-0.234c-1.465,1.426-2.725,2.432-3.779,3.018
		c-0.195-0.449-0.293-0.879-0.293-1.289c0-0.996,0.117-2.021,0.352-3.076c0.039-0.136,0.059-0.253,0.059-0.352
		c0-0.019-0.059-0.332-0.176-0.938l0.059-0.586l-0.205-1.23c0.215-0.605,0.322-0.938,0.322-0.996c0-0.039-0.049-0.596-0.146-1.67
		l-0.176-1.143c0.215-0.82,0.322-1.308,0.322-1.465c0-0.332-0.059-0.566-0.176-0.703l-0.527-0.615
		c-0.098-0.098-0.146-0.361-0.146-0.791c0.449-0.469,0.674-0.908,0.674-1.318c0-0.176-0.01-0.4-0.029-0.674
		c-0.039-0.352-0.059-0.605-0.059-0.762l0.293-5.127c-0.195,0.04-0.391,0.107-0.586,0.205c-0.273,0.176-0.518,0.264-0.732,0.264
		c-0.078-0.273-0.117-0.508-0.117-0.703c0-0.117,0.049-0.283,0.146-0.498c0.098-0.215,0.176-0.341,0.234-0.381l0.498-0.234
		l0.264-0.557c0.215-0.488,0.322-0.81,0.322-0.967c0-0.293-0.049-0.488-0.146-0.586l-2.256-2.139l1.113-1.172
		c0.117-0.136,0.645-0.4,1.582-0.791c-0.293-0.176-0.527-0.264-0.703-0.264c-0.508,0-1.025,0.127-1.553,0.381l-1.934,0.996
		c-0.625,0.313-1.025,0.635-1.201,0.967l0.586,0.586c-0.02,0.254-0.029,0.479-0.029,0.674c0,0.195,0.234,1.036,0.703,2.52
		c-0.117,0.723-0.176,1.143-0.176,1.26c0,0.215,0.02,0.655,0.059,1.318c0.02,0.313,0.029,0.664,0.029,1.055
		c0,0.274-0.01,0.664-0.029,1.172c0.41,0.313,0.615,0.615,0.615,0.908c0,0.098-0.117,0.488-0.352,1.172
		c-0.039,0.43-0.098,0.791-0.176,1.084c0.977,0.059,1.67,0.293,2.08,0.703v0.029c0,0.078-0.459,0.459-1.377,1.143
		c-0.371,0.293-0.557,0.674-0.557,1.143c0,0.567,0.098,1.534,0.293,2.9c0.059,0.352,0.088,0.674,0.088,0.967
		c0,0.274-0.039,0.693-0.117,1.26l0.674,0.469c0.098,0.488,0.264,0.948,0.498,1.377l-0.996,0.117
		c-0.098,1.836-0.146,3.496-0.146,4.98c0,1.191,0.117,2.246,0.352,3.164l0.703-0.205c0.059,0.352,0.088,0.664,0.088,0.938
		c0,0.215-0.059,0.371-0.176,0.469c-0.488,0.43-0.742,0.684-0.762,0.762c-0.039,0.176-0.078,0.361-0.117,0.557l0.088,1.699
		l-0.146,2.197l0.059,1.084c0,0.039-0.01,0.156-0.029,0.352c-0.02,0.215-0.029,0.371-0.029,0.469v1.377l-0.088,1.494v0.029
		c0,0.078,0.117,0.322,0.352,0.732c0.098,0.176,0.146,0.332,0.146,0.469c0,0.234-0.068,0.469-0.205,0.703
		c-0.273,0.508-0.41,0.781-0.41,0.82v0.85c-0.254,0.879-0.391,1.611-0.41,2.197l0.674,0.586c0.625-0.586,1.094-0.928,1.406-1.025
		c1.211-0.391,1.826-0.605,1.846-0.645c0.215-0.254,0.322-0.449,0.322-0.586l-0.029-0.527v-0.498l-0.146-0.791l0.264-1.289
		l-0.146-0.938c-0.039-1.152-0.137-1.992-0.293-2.52c-0.117-0.41-0.43-0.908-0.938-1.494v-0.176c0.156-0.156,0.439-0.234,0.85-0.234
		c0.078-1.563,0.176-2.637,0.293-3.223c0.02-0.117,0.068-0.381,0.146-0.791c-1.289-0.273-1.934-0.654-1.934-1.143
		c0-0.156,0.713-0.869,2.139-2.139l1.025-0.352l1.699-0.879l0.381-0.088c0.859-0.195,1.65-0.303,2.373-0.322
		c0.117,0,0.596-0.029,1.436-0.088c0.234-0.02,0.43-0.029,0.586-0.029c0.195,0,0.84,0.078,1.934,0.234
		c0.723,0,1.133,0.01,1.23,0.029c0.137,0.039,0.596,0.254,1.377,0.645c0.566,0.137,0.898,0.244,0.996,0.322
		c0.313,0.195,0.547,0.469,0.703,0.82c0.273,0.547,0.41,0.869,0.41,0.967v0.029c0,0.098-0.039,0.234-0.117,0.41
		c-0.078,0.156-0.117,0.244-0.117,0.264s0.068,0.488,0.205,1.406c0,0.078,0,0.146,0,0.205c0,0.098-0.01,0.215-0.029,0.352
		c-0.215,1.641-0.322,2.793-0.322,3.457l0.498,0.293c-0.137,1.016-0.322,1.836-0.557,2.461l-0.176,1.084l-0.088,0.381
		c0.273,0.742,0.41,1.201,0.41,1.377c0,0.762-0.166,1.514-0.498,2.256c-0.273,0.586-0.479,1.123-0.615,1.611l1.025,0.908
		c0.313-0.156,0.684-0.313,1.113-0.469c0.352-0.137,0.693-0.332,1.025-0.586c0.645-0.078,1.191-0.264,1.641-0.557
		c-0.02-0.215-0.029-0.332-0.029-0.352l0.059-2.52c-0.254-1.23-0.381-1.904-0.381-2.021s0.176-0.469,0.527-1.055l-0.029-0.322
		l-0.088-1.758l-0.029-0.732c0-0.078,0.049-0.254,0.146-0.527l-0.791-0.82l0.088-0.264l0.586-0.703l-0.439-1.143
		c0.117-0.117,0.234-0.234,0.352-0.352c0.215-0.234,0.352-0.684,0.41-1.348c0.059-0.723,0.088-1.396,0.088-2.021
		c0-0.527-0.205-1.055-0.615-1.582C257.404,114.674,257.062,114.586,256.808,114.41z"/>
	<path fill="#936E06" stroke="#936E06" stroke-miterlimit="10" d="M288.566,127.096c-0.313,0.527-0.645,0.996-0.996,1.406
		c-0.137,0.195-0.635,0.557-1.494,1.084c-0.879,0.547-1.484,0.889-1.816,1.025c-0.234,0.078-0.693,0.137-1.377,0.176l-1.436,0.41
		l-1.875,0.205c-0.742,0.234-1.24,0.352-1.494,0.352c-0.273,0-0.527-0.059-0.762-0.176c-1.055-0.488-1.641-0.732-1.758-0.732
		c-0.156,0-0.342,0.02-0.557,0.059l-0.498-0.762c-0.547-0.039-0.898-0.117-1.055-0.234c-0.215-0.117-0.371-0.479-0.469-1.084
		c-0.684-0.098-1.172-0.273-1.465-0.527c-0.313-0.273-0.566-0.811-0.762-1.611l-0.908-0.234l0.146-1.084l-0.527-0.293
		c-0.176-0.43-0.361-1.27-0.557-2.52c-0.039-0.176-0.371-0.479-0.996-0.908c0.352-0.352,0.586-0.674,0.703-0.967
		c0.098-0.254,0.195-0.713,0.293-1.377c0.41-0.059,1.182-0.264,2.314-0.615l1.23,0.029l1.377-0.234l1.348-0.117l1.084-0.117
		c1.387,0,2.236-0.02,2.549-0.059l0.146,0.117c0.43-0.059,0.801-0.088,1.113-0.088c0.078,0,0.742,0.117,1.992,0.352
		c0.801-0.801,1.26-1.201,1.377-1.201c0.059,0,0.693,0.43,1.904,1.289l0.879-0.234l0.996,0.176l1.113-0.41
		c0.371,0.137,0.664,0.225,0.879,0.264l0.205-0.205c-0.156-0.43-0.293-0.781-0.41-1.055c-0.176-0.527-0.342-0.977-0.498-1.348
		c-0.176-0.43-0.498-0.889-0.967-1.377c-1.484-1.543-2.324-2.363-2.52-2.461c-0.371-0.156-0.576-0.254-0.615-0.293
		c-0.117-0.098-0.322-0.322-0.615-0.674l-0.938,0.586c-0.391-1.035-1.133-1.553-2.227-1.553c-0.117,0-0.752,0.215-1.904,0.645
		l-1.436,0.117l-2.227,0.703l-0.791,0.146l-2.168,1.494l-2.139,1.318c-0.859,0.781-1.621,1.484-2.285,2.109l-0.645,1.377
		l-0.996,1.172c-0.098,0.117-0.264,0.557-0.498,1.318c-0.273,0.977-0.41,1.68-0.41,2.109c0,1.387,0.068,2.217,0.205,2.49
		c0.508,1.035,0.762,1.582,0.762,1.641c0,0.156-0.098,0.391-0.293,0.703c0.586,0.586,0.918,0.957,0.996,1.113l0.527,0.938
		c0.039,0.176,0.332,0.43,0.879,0.762c0.645,0.391,0.986,0.605,1.025,0.645c0.566,0.527,0.898,0.82,0.996,0.879
		c0.156,0.078,0.967,0.342,2.432,0.791l0.615,0.381l0.557,0.059c1.172,0.137,1.885,0.205,2.139,0.205s0.615-0.029,1.084-0.088
		l0.498-0.029l1.025-0.176l1.729,0.264c0.02,0,0.332-0.098,0.938-0.293c0.215-0.059,0.723-0.127,1.523-0.205
		c0.469-0.059,1.309-0.254,2.52-0.586c0.527-0.039,0.967-0.176,1.318-0.41c0.527-0.391,0.85-0.586,0.967-0.586
		c0.176,0,0.391,0.059,0.645,0.176c0.215-0.449,0.732-1.367,1.553-2.754c0.117-0.215,0.244-0.674,0.381-1.377
		c-0.332-0.254-0.586-0.381-0.762-0.381C288.996,126.744,288.722,126.861,288.566,127.096z M271.046,115.846
		c0.332-0.254,0.557-0.43,0.674-0.527c0.625-0.566,1.006-0.898,1.143-0.996c0.625-0.273,1.348-0.557,2.168-0.85
		c1.035-0.234,1.572-0.371,1.611-0.41l0.996-0.586l0.586,0.029c1.367,0,2.334,0.039,2.9,0.117c0.254,0.391,0.439,0.615,0.557,0.674
		l0.967,0.469c0.117-0.039,0.41,0.254,0.879,0.879c0.156,0.195,0.254,0.313,0.293,0.352c0.234,0.254,0.352,0.469,0.352,0.645
		c0,0.078-0.01,0.176-0.029,0.293c-0.078,0.195-0.127,0.293-0.146,0.293l-1.67-0.146c-0.527,0.195-1.055,0.332-1.582,0.41
		c-0.137,0.02-0.4,0.068-0.791,0.146l-0.498-0.615c-0.43,0.039-0.742,0.088-0.938,0.146c-0.859,0.195-1.416,0.293-1.67,0.293
		c-0.02,0-0.039,0-0.059,0c-0.898-0.254-1.377-0.381-1.436-0.381c-0.117,0-0.225,0.039-0.322,0.117l-1.143,1.377l-0.645-0.645
		l-2.139-0.85l-0.059-0.059V115.846z"/>
	<path fill="#936E06" stroke="#936E06" stroke-miterlimit="10" d="M301.632,129.498l0.059-1.23l-0.527-4.775l0.088-0.205
		l-0.908-0.117c0-0.488,0-0.752,0-0.791c0.117-0.859,0.176-1.328,0.176-1.406c0-0.273-0.029-0.625-0.088-1.055l0.527-0.322
		l-0.088-6.592v-1.816l-0.322-0.234l-0.645-1.406c0.41-0.371,0.615-0.703,0.615-0.996c0-0.078,0-0.127,0-0.146
		c-0.273-0.938-0.41-1.425-0.41-1.465c0-0.176,0.059-0.371,0.176-0.586c0.352-0.566,0.527-0.947,0.527-1.143v-3.721l0.146-3.662
		c0-0.176-0.01-0.449-0.029-0.82c-0.254-0.215-0.381-0.429-0.381-0.645c0-0.156,0.02-0.508,0.059-1.055
		c0.41-0.41,0.615-0.801,0.615-1.172c0-0.215-0.059-0.566-0.176-1.055l-0.615-0.088l0.176-0.938
		c0.293-0.332,0.459-0.596,0.498-0.791c0.02-0.078,0.039-0.908,0.059-2.49l0.117-2.461l-0.293-1.025c0-0.019,0.01-0.078,0.029-0.176
		c0.02-0.136,0.029-0.264,0.029-0.381v-0.059c0-0.527-0.225-0.791-0.674-0.791c-0.078,0-0.166,0-0.264,0
		c-0.449,0.527-0.938,0.908-1.465,1.143c-0.254,0.098-0.615,0.303-1.084,0.615c-0.195,0.137-0.439,0.245-0.732,0.322
		c-0.039,0.43-0.088,0.752-0.146,0.967c-0.117,0.488-0.176,0.811-0.176,0.967c0,0.176,0.381,0.772,1.143,1.787l1.494,2.021
		l-2.197,1.553l0.088,0.176c0.02,0.02,0.083,0.201,0.19,0.542c0.107,0.342,0.161,0.532,0.161,0.571c0,0.078-0.029,0.157-0.088,0.234
		c-0.273,0.45-0.41,0.752-0.41,0.908l0.029,1.201c0,0.43,0.029,0.781,0.088,1.055c0.352,0.195,0.527,0.391,0.527,0.586
		c0,0.137-0.068,0.479-0.205,1.025c0.254,0.195,0.586,0.371,0.996,0.527c-0.195,0.43-0.352,0.811-0.469,1.143
		c-0.078,0.195-0.244,0.391-0.498,0.586v6.445l0.615,0.732c-0.098,0.352-0.156,0.831-0.176,1.436
		c-0.313,0.684-0.469,1.123-0.469,1.318c0,0.234,0.02,0.508,0.059,0.82c0.078,0.84,0.117,1.602,0.117,2.285
		c0,0.234-0.01,0.391-0.029,0.469c-0.215,0.801-0.322,1.23-0.322,1.289c0,0.137,0.02,0.43,0.059,0.879c0,0.176,0,0.508,0,0.996
		l0.674,0.352c-0.02,0.488-0.137,1.016-0.352,1.582c-0.293,0.762-0.439,1.172-0.439,1.23c0,0.098,0.029,0.205,0.088,0.322
		c0.352,0.664,0.527,1.016,0.527,1.055l-0.264,0.732l-0.205,1.055l-0.059,0.381l2.373,1.641l-2.461,1.582l0.088,0.557l-0.117,0.879
		l-0.059,0.645c-0.156,0.547-0.234,0.85-0.234,0.908c0,0.137,0.02,0.293,0.059,0.469c0.078,0.41,0.117,0.713,0.117,0.908
		s-0.01,0.439-0.029,0.732c0.195,0.078,0.332,0.117,0.41,0.117c0.293,0,0.674-0.186,1.143-0.557c0.332,0,0.522-0.01,0.571-0.029
		s0.278-0.146,0.688-0.381c0.703-0.43,1.25-0.723,1.641-0.879c-0.098-0.156-0.146-0.283-0.146-0.381c0-0.059,0.195-0.4,0.586-1.025
		L301.632,129.498z"/>
	<path fill="#936E06" stroke="#936E06" stroke-miterlimit="10" d="M336.496,121.002c0-0.156,0-0.322,0-0.498v-0.029
		c-0.234-1.504-0.518-2.764-0.85-3.779c-0.254-0.625-0.713-1.299-1.377-2.021l-1.201,0.234c-0.176-0.254-0.293-0.469-0.352-0.645
		c-0.117-0.371-0.205-0.586-0.264-0.645c-0.43-0.488-1.201-0.938-2.314-1.348c-0.527-0.254-0.996-0.41-1.406-0.469
		c-0.391-0.449-0.762-0.674-1.113-0.674c-0.078,0-0.234,0.01-0.469,0.029c-0.059,0.02-0.264,0.02-0.615,0l-3.691-0.088
		c-1.523,0.078-2.432,0.41-2.725,0.996c-0.469-0.293-1.025-0.439-1.67-0.439c-0.195,0-0.615,0.107-1.26,0.322l-0.762,0.205
		c-1.348,0.742-2.207,1.201-2.578,1.377c-0.137-0.313-0.205-0.537-0.205-0.674c0-0.156,0.068-0.381,0.205-0.674
		c-0.41-0.527-0.771-0.791-1.084-0.791c-0.137,0-0.732,0.303-1.787,0.908c-0.781,0.645-1.27,1.055-1.465,1.23
		c-0.313,0.234-0.488,0.381-0.527,0.439s-0.098,0.244-0.176,0.557c0.508,0.352,0.791,0.625,0.85,0.82
		c0.078,0.371,0.215,1.318,0.41,2.842v0.059c0,0.098-0.029,0.234-0.088,0.41c-0.039,0.176-0.059,0.273-0.059,0.293
		s0.02,0.439,0.059,1.26c0,0.059,0,0.107,0,0.146c0,0.156-0.01,0.488-0.029,0.996c0,0.215,0,0.469,0,0.762
		c0,0.195,0.01,0.537,0.029,1.025c0.41,0.195,0.615,0.4,0.615,0.615l-0.029,0.352l0.059,1.172c-0.215,0.43-0.322,0.713-0.322,0.85
		v4.541l-0.088,1.436c-0.098,1.445-0.146,2.236-0.146,2.373c0,0.586,0.303,0.957,0.908,1.113l0.088,1.846l-0.439,0.264
		c-0.254,2.363-0.381,3.594-0.381,3.691c0,0.449,0.146,0.898,0.439,1.348c0.742,1.211,1.113,1.875,1.113,1.992
		c0,0.176-0.479,0.547-1.436,1.113l0.088,0.059c0.996,0.332,1.494,0.547,1.494,0.645c0,0.195-0.576,0.537-1.729,1.025
		c0.059,0.059,0.234,0.186,0.527,0.381c0.234,0.156,0.352,0.303,0.352,0.439s-0.156,0.371-0.469,0.703
		c-0.059,0.059-0.156,0.186-0.293,0.381l0.234,1.641c-0.215,0.293-0.381,0.508-0.498,0.645l-0.088,0.088l2.227,2.49l-1.143,1.875
		c-0.039,0.684-0.103,1.089-0.19,1.216s-0.444,0.317-1.069,0.571l0.762,0.205h0.029c0.664-0.059,1.348-0.303,2.051-0.732
		l0.674-0.264c0.215-0.449,0.361-0.713,0.439-0.791c0.117-0.156,0.41-0.391,0.879-0.703c-0.02-0.508-0.078-0.967-0.176-1.377
		c-0.078-0.371-0.117-0.645-0.117-0.82c0-0.156,0.01-0.332,0.029-0.527l-0.908-0.527c0.195-0.117,0.469-0.195,0.82-0.234
		c0.098-0.254,0.146-0.43,0.146-0.527l-0.176-0.732c-0.02-1.094-0.039-1.797-0.059-2.109c-0.039-0.273-0.078-0.859-0.117-1.758
		l-0.527,0.088c0.02-0.195,0.029-0.371,0.029-0.527c0-0.137-0.01-0.244-0.029-0.322c-0.215-0.801-0.322-1.24-0.322-1.318
		c0-0.176,0.02-0.381,0.059-0.615l0.703-0.176c-0.039-0.449-0.098-1.309-0.176-2.578c-0.137-0.723-0.225-1.152-0.264-1.289
		c-0.078-0.215-0.132-0.337-0.161-0.366s-0.532-0.327-1.509-0.894l0.439-0.322c0.098-0.078,0.176-0.293,0.234-0.645
		s0.127-0.547,0.205-0.586l0.908-0.498c0.137-0.078,0.205-0.254,0.205-0.527c0-0.156-0.02-0.361-0.059-0.615
		c-0.059-1.113-0.088-1.826-0.088-2.139c0-0.254,0.088-0.596,0.264-1.025c0.293,0.156,0.527,0.234,0.703,0.234
		c0.059,0,0.146,0,0.264,0c0.176-0.02,0.322-0.029,0.439-0.029h0.293h0.205c0.234,0,0.391-0.054,0.469-0.161
		c0.078-0.106,0.234-0.444,0.469-1.011l0.293-0.586c0.098,0,0.283,0.439,0.557,1.318l-0.088,0.527
		c0.801,0.098,1.582,0.205,2.344,0.322c0.391,0.156,0.615,0.234,0.674,0.234c0.117,0,0.4-0.107,0.85-0.322
		c0.156-0.078,0.273-0.117,0.352-0.117h2.021c0.293-0.02,0.811-0.176,1.553-0.469c2.793-0.938,4.15-1.924,4.072-2.959
		c0.195-0.078,0.449-0.117,0.762-0.117c0.449-0.02,0.703-0.039,0.762-0.059c0.645-0.293,1.094-0.967,1.348-2.021l1.143,0.264
		c0.234-0.41,0.547-0.771,0.938-1.084l0.85-1.465c0.391-0.508,0.684-0.986,0.879-1.436c0.313-0.742,0.469-1.162,0.469-1.26v-0.059
		c-0.098-0.469-0.146-0.859-0.146-1.172C336.466,121.305,336.476,121.197,336.496,121.002z M333.097,122.232
		c0.039,0.234,0.059,0.459,0.059,0.674c0,0.352-0.137,0.928-0.41,1.729c-0.43,1.328-0.752,2.119-0.967,2.373
		c-0.137,0.137-0.625,0.557-1.465,1.26l-0.938,1.025l-1.084,0.762c-0.41,0.41-0.684,0.674-0.82,0.791
		c-0.215,0.156-0.664,0.41-1.348,0.762l-0.908,0.439l-1.113-1.23c-1.367,0.195-2.061,0.293-2.08,0.293
		c-0.117,0-0.215-0.01-0.293-0.029l-1.934-0.645c-0.078-0.039-0.41-0.059-0.996-0.059c-0.469-0.02-0.811-0.068-1.025-0.146
		c-0.313-0.117-0.527-0.176-0.645-0.176s-0.313,0.107-0.586,0.322c-0.137-0.215-0.234-0.332-0.293-0.352
		c-0.156-0.156-0.762-0.488-1.816-0.996c-0.137-0.059-0.381-0.195-0.732-0.41c0.039-0.332,0.068-0.586,0.088-0.762
		c0.039-0.215,0.059-0.332,0.059-0.352l-0.117-1.611l-0.029-1.348c-0.02-0.156-0.166-0.508-0.439-1.055
		c0.332-0.645,0.498-1.055,0.498-1.23v-0.029c-0.078-0.625-0.117-0.947-0.117-0.967c0-0.098,0.02-0.332,0.059-0.703
		c0.02-0.176,0.029-0.381,0.029-0.615c0-0.352-0.01-0.762-0.029-1.23h-0.322l-0.234-0.234l-0.029-0.146l-1.641-0.439
		c0.645-0.352,1.426-0.586,2.344-0.703c-0.02-0.293-0.029-0.518-0.029-0.674c0-0.391,0.068-0.703,0.205-0.938
		s0.479-0.391,1.025-0.469c0.41-0.273,0.703-0.43,0.879-0.469l0.791-0.117c1.328-0.391,2.07-0.605,2.227-0.645
		c0.723-0.117,2.07-0.176,4.043-0.176c0.781,0,1.299,0.059,1.553,0.176l0.615,0.352c0.742,0,1.133,0.01,1.172,0.029
		c0.195,0.02,0.645,0.303,1.348,0.85c0.137,0.117,0.42,0.313,0.85,0.586c0.605-0.098,0.977-0.146,1.113-0.146
		c0.332,0,0.635,0.195,0.908,0.586c-0.078,0.215-0.117,0.4-0.117,0.557c0,0.078,0.107,0.254,0.322,0.527
		c0.313,0.449,0.693,0.85,1.143,1.201c0.137,0.645,0.273,1.084,0.41,1.318c0.156,0.313,0.469,0.625,0.938,0.938
		c-0.137,0.293-0.205,0.508-0.205,0.645C333.009,121.52,333.039,121.822,333.097,122.232z"/>
	<path fill="#936E06" stroke="#936E06" stroke-miterlimit="10" d="M344.259,101.578v0.059l1.963,1.289
		c0,0.117-0.146,0.264-0.439,0.439c-0.391,0.234-0.879,0.567-1.465,0.996c0.547,0.117,0.879,0.234,0.996,0.352
		c0.117,0.078,0.186,0.293,0.205,0.645h-1.025v0.439l0.059,0.059h0.176c0.059,0.45,0.098,1.611,0.117,3.486
		c0.02,0.195,0.186,0.576,0.498,1.143c-0.098,0.137-0.195,0.283-0.293,0.439c-0.117,0.176-0.186,0.498-0.205,0.967
		c-0.039,1.133-0.059,1.807-0.059,2.021c0,0.059,0.029,0.215,0.088,0.469l0.879-0.088c0.078,0.293,0.117,0.547,0.117,0.762
		c0,0.371-0.283,0.566-0.85,0.586c-0.059,0.527-0.176,1.484-0.352,2.871c-0.039,0.488-0.078,0.762-0.117,0.82
		c-0.527,0.664-0.869,1.211-1.025,1.641c0.43,0.469,0.762,0.703,0.996,0.703l1.113-0.029c0.156,0,0.41,0.039,0.762,0.117
		c0.527-0.449,0.859-0.859,0.996-1.23c0.156-0.43,0.391-0.82,0.703-1.172l-0.088-0.645c-0.059-0.293-0.117-0.654-0.176-1.084
		c-0.117-0.586-0.322-1.084-0.615-1.494c0.234-0.371,0.371-0.684,0.41-0.938c0.02-0.215,0.029-0.889,0.029-2.021
		c-0.332-0.313-0.498-0.664-0.498-1.055c0-0.195,0.088-0.664,0.264-1.406l0.117-1.816c0.059-0.977,0.088-1.484,0.088-1.523
		c0-0.078-0.059-0.498-0.176-1.26l0.352-1.025l-0.029-0.85c0.059-0.684,0.088-1.044,0.088-1.084c0-0.566-0.146-1.416-0.439-2.549
		l0.469-0.645l-2.52-0.762l1.641-0.938c0.664-0.391,0.996-0.996,0.996-1.816c0-0.234-0.117-0.439-0.352-0.615
		c-0.391,0.176-0.781,0.293-1.172,0.352c-0.879,0.157-1.699,0.538-2.461,1.143c-0.527,0.45-0.791,0.928-0.791,1.436
		c0,0.547,0.391,1.172,1.172,1.875L344.259,101.578z"/>
	<path fill="#936E06" stroke="#936E06" stroke-miterlimit="10" d="M348.097,129.059c-0.84-0.547-1.289-0.85-1.348-0.908
		c-0.391-0.371-0.664-0.557-0.82-0.557s-0.313,0.039-0.469,0.117c-0.078,0.039-0.361,0.313-0.85,0.82l-1.523,0.908
		c-0.098,0.059-0.264,0.283-0.498,0.674c0.488,0.059,0.83,0.156,1.025,0.293c0.117,0.098,0.342,0.42,0.674,0.967l0.791,0.703
		c0.547,0.664,0.977,1.143,1.289,1.436c0.332-0.273,1.006-0.771,2.021-1.494c0.039-0.02,0.215-0.293,0.527-0.82
		c0.195-0.293,0.293-0.479,0.293-0.557C349.21,130.074,348.839,129.547,348.097,129.059z"/>
</g>
</svg>
