<?xml version="1.0" encoding="iso-8859-1"?>
<!-- Generator: Adobe Illustrator 19.0.0, SVG Export Plug-In . SVG Version: 6.00 Build 0)  -->
<svg version="1.1" id="Layer_1" xmlns="http://www.w3.org/2000/svg" xmlns:xlink="http://www.w3.org/1999/xlink" x="0px" y="0px"
	 viewBox="0 0 512 512" style="enable-background:new 0 0 512 512;" xml:space="preserve">
<path style="fill:#314E55;" d="M385.813,414.41c1.856,1.856,4.288,2.784,6.719,2.784s4.863-0.928,6.719-2.784
	c3.712-3.712,3.712-9.726,0-13.438l-13.439-13.438l40.32-40.315c1.782-1.782,2.784-4.195,2.784-6.719s-1.002-4.937-2.784-6.719
	l-93.782-93.783l84.849-45.684c2.645-1.429,4.459-4.018,4.895-6.988c0.436-2.979-0.557-5.977-2.682-8.102l-29.568-29.568
	c-2.367-2.357-5.782-3.313-9.025-2.496l-113.046,28.261l-7.448-7.448l170.422-94.686c2.603-1.448,4.38-4.037,4.793-6.988
	c0.413-2.951-0.58-5.93-2.691-8.037L379.094,4.51c-2.413-2.413-5.939-3.332-9.22-2.45L153.437,61.082l-36.479-36.48
	C91.047-1.299,48.876-1.272,22.946,24.667c-25.934,25.939-25.962,68.11-0.065,94.011l36.485,36.485L0.334,371.6
	c-0.896,3.285,0.037,6.803,2.45,9.216l53.762,53.762c1.796,1.791,4.218,2.784,6.719,2.784c0.436,0,0.877-0.028,1.318-0.093
	c2.951-0.408,5.54-2.19,6.988-4.798l94.68-170.424l7.444,7.444L145.43,382.541c-0.807,3.239,0.139,6.663,2.501,9.021l29.568,29.568
	c1.796,1.8,4.218,2.784,6.719,2.784c0.459,0,0.919-0.037,1.378-0.102c2.975-0.436,5.564-2.255,6.988-4.9l45.688-84.845
	l93.784,93.782c1.856,1.856,4.288,2.784,6.719,2.784s4.863-0.928,6.719-2.784l26.88-26.877L385.813,414.41z"/>
<path style="fill:#E4AD40;" d="M338.775,407.691L36.319,105.24c-18.487-18.487-18.459-48.611,0.065-67.135
	c18.524-18.515,48.639-18.561,67.135-0.065l103.522,103.524l30.938,30.941c0.002,0.002,0.005,0.003,0.005,0.003l20.144,20.144
	c0.003,0.003,0.005,0.007,0.008,0.01l21.597,21.595l126.241,126.243l-33.601,33.596l-40.318-40.315
	c-3.712-3.712-9.726-3.712-13.438,0s-3.712,9.726,0,13.438l40.317,40.315L338.775,407.691z"/>
<path style="fill:#314E55;" d="M49.823,51.544c-14.816,14.821-14.816,38.941,0,53.762c1.851,1.856,4.288,2.784,6.719,2.784
	s4.863-0.928,6.719-2.784c3.712-3.712,3.712-9.726,0-13.438c-7.406-7.415-7.406-19.47,0-26.886c7.415-7.406,19.475-7.406,26.881,0
	c3.712,3.712,9.735,3.712,13.438,0c3.712-3.712,3.712-9.726,0-13.438C88.759,36.732,64.644,36.732,49.823,51.544z"/>
<g>
	<polygon style="fill:#F28544;" points="61.075,412.23 20.125,371.275 74.843,170.649 152.274,248.076 	"/>
	<polygon style="fill:#F28544;" points="181.907,398.661 165.174,381.929 189.369,285.17 224.24,320.037 	"/>
	<polygon style="fill:#F28544;" points="380.212,166.9 396.941,183.633 318.321,225.961 291.063,198.711 283.447,191.094 	"/>
	<polygon style="fill:#F28544;" points="168.919,76.564 369.554,21.846 410.504,62.791 246.352,153.999 186.28,93.926 	"/>
</g>
<g>
	<path style="fill:#314E55;" d="M363.614,437.018c-3.712-3.712-9.726-3.712-13.438,0c-3.712,3.712-3.712,9.726,0,13.438
		l50.054,50.05c1.856,1.856,4.288,2.784,6.719,2.784c2.431,0,4.863-0.928,6.719-2.784c3.712-3.712,3.712-9.726,0-13.438
		L363.614,437.018z"/>
	<path style="fill:#314E55;" d="M509.216,443.746l-80.917-80.917c-3.712-3.712-9.726-3.712-13.438,0
		c-3.712,3.712-3.712,9.726,0,13.438l80.917,80.917c1.856,1.856,4.288,2.784,6.719,2.784s4.863-0.928,6.719-2.784
		C512.928,453.472,512.928,447.458,509.216,443.746z"/>
	<path style="fill:#314E55;" d="M439.909,441.639c-3.712-3.712-9.726-3.712-13.438,0c-3.712,3.712-3.712,9.726,0,13.438
		l52.407,52.407c1.856,1.856,4.288,2.784,6.719,2.784s4.863-0.928,6.719-2.784c3.712-3.712,3.712-9.726,0-13.438L439.909,441.639z"
		/>
</g>
<g>
</g>
<g>
</g>
<g>
</g>
<g>
</g>
<g>
</g>
<g>
</g>
<g>
</g>
<g>
</g>
<g>
</g>
<g>
</g>
<g>
</g>
<g>
</g>
<g>
</g>
<g>
</g>
<g>
</g>
</svg>
