<?xml version="1.0" encoding="utf-8"?>
<!-- Generator: Adobe Illustrator 16.0.0, SVG Export Plug-In . SVG Version: 6.00 Build 0)  -->
<!DOCTYPE svg PUBLIC "-//W3C//DTD SVG 1.1//EN" "http://www.w3.org/Graphics/SVG/1.1/DTD/svg11.dtd">
<svg version="1.1" id="Layer_1" xmlns:svg="http://www.w3.org/2000/svg"
	 xmlns="http://www.w3.org/2000/svg" xmlns:xlink="http://www.w3.org/1999/xlink" x="0px" y="0px" width="199.006px" height="281px"
	 viewBox="31.494 -0.5 199.006 281" enable-background="new 31.494 -0.5 199.006 281" xml:space="preserve">
<rect x="31.494" fill="#FFFFFF" stroke="#000000" stroke-miterlimit="10" width="199.006" height="280"/>
<g>
	
		<radialGradient id="SVGID_1_" cx="83.6475" cy="149.21" r="0.7231" gradientTransform="matrix(106.9018 -33.4066 -47.4254 -151.7624 -1714.7261 25542.2246)" gradientUnits="userSpaceOnUse">
		<stop  offset="0" style="stop-color:#FFFFAA"/>
		<stop  offset="1" style="stop-color:#FFAB00"/>
	</radialGradient>
	<path fill="url(#SVGID_1_)" d="M178.31,285.354l-30.611-51.854l-59.97-60.876l-5.958-60.314l27.459-35.879l27.33-16.881
		l41.708-2.418l33.588,15.285l31.044,53.234l-14.594,81.902l5.224,62.819L178.31,285.354z"/>
	<g transform="translate(0,300) scale(0.05000000074505806,-0.05000000074505806)">
		<path fill="#FFAB00" d="M2135.986,6529.257l-52.061-66.318l172.598-484.424c207.412-581.23,237.559-633.984,340.479-613.945
			c112.08,19.863,106.982,89.531-49.57,673.008C2382.685,6647.294,2300.732,6744.511,2135.986,6529.257z"/>
		<path fill="#FFAB00" d="M4649.628,6250.166c-75.82-135.928-375-804.16-403.438-902.539
			c-39.707-139.775,89.805-214.58,181.152-104.121c59.492,71.67,495.742,796.396,535.977,890.869
			C5064.296,6364.57,4774.648,6471.21,4649.628,6250.166z"/>
		<path fill="#FFAB00" d="M116.016,4850.097c-83.594-159.58,863.31-709.883,1096.787-636.924
			c169.961,53.105,81.523,146.797-425.957,450.742C293.887,4960.283,189.141,4989.716,116.016,4850.097z"/>
		<path fill="#4F4A4A" d="M2300.127,4844.14c-914.355-563.252-1168.574-1710.312-587.871-2646.523
			c142.227-227.012,310.938-407.832,670.937-715.391c557.295-477.988,744.248-712.266,917.725-1150.918
			c136.348-344.082,80.098-338.926,886.972-86.738c806.855,252.109,763.633,215.859,679.727,576.348
			c-107.148,459.375-86.406,781.308,97.285,1465.019c189.141,709.688,197.734,992.939,37.969,1504.121
			C4640.292,4955.175,3317.344,5471.367,2300.127,4844.14z M3278.047,4747.851c861.328-14.424,1531.054-793.906,1466.211-1707.383
			c-8.984-136.25-68.32-441.426-130.938-677.871c-178.906-674.629-207.305-967.09-139.434-1422.09l31.621-217.559L4079.96,589.941
			l-425.527-132.988l-97.91,196.875c-200.176,407.598-402.148,646.25-886.133,1054.59
			c-520.088,436.543-696.064,669.668-829.053,1095.195C1532.656,3791.435,2252.373,4764.013,3278.047,4747.851z"/>
		<path fill="#4F4A4A" d="M2507.793,3330.332c-272.178-230.625,9.756-671.816,438.477-684.902
			c86.016-3.477,100.879-17.031,153.887-142.988c69.316-158.789,587.793-1531.543,629.668-1665.547
			c24.16-77.363,37.754-86.777,97.129-68.223c40.059,12.52,64.336,36.777,57.012,60.293
			c-20.742,66.289-528.398,1404.492-609.219,1609.726l-79.18,195.156l223.828,69.941l223.808,69.922l46.016-205.488
			c60.547-261.66,386.426-1576.25,410.156-1652.226c12.988-41.445,35.664-51.035,86.797-35.059
			c59.434,18.574,65.215,34.023,41.016,111.387c-41.875,134.004-397.285,1557.676-431.152,1729.082
			c-27.207,135.566-23.203,151.973,49.648,205.078c395.391,282.793,276.094,921.875-148.086,789.316
			c-232.09-72.529-255.742-234.619-114.063-755.996c11.582-41.875-15.273-57.852-207.344-117.871
			c-192.012-60-223.184-62.168-237.52-21.152C2945.683,3365.576,2742.344,3531.015,2507.793,3330.332z M2774.804,3237.871
			c57.93-34.99,249.785-445.137,212.48-456.816c-120.176-37.559-386.494,115.82-427.07,245.664
			C2510.136,3186.992,2642.597,3316.357,2774.804,3237.871z M3856.25,3581.875c140.059-74.521,117.168-341.006-41.445-498.223
			c-96.113-95.273-97.93-94.316-148.379,144.697C3601.953,3522.119,3682.597,3671.679,3856.25,3581.875z"/>
		<path fill="#FFAB00" d="M-97.373,2276.601c-62.002-131.582,47.656-264.101,189.805-228.828
			c179.873,45.586,980.918,355.098,1020.557,393.242c49.492,50.352,27.285,135.898-42.656,165.625
			c-50,19.258-604.883-102.578-969.102-213.359C-27.686,2354.531-74.932,2326.094-97.373,2276.601z"/>
		<path fill="#FFAB00" d="M5743.574,4127.685c-311.719-118.662-380.43-170.469-351.113-264.404
			c26.367-84.277,109.336-78.066,591.973,46.973c659.688,169.765,698.555,191.006,645.859,359.551
			C6582.382,4423.173,6471.269,4405.126,5743.574,4127.685z"/>
		<path fill="#FFAB00" d="M1863.291,835.938c-371.914-615.137-379.268-640.176-247.236-727.813
			c116.66-77.305,219.326-22.461,302.07,164.121c379.404,843.476,389.521,869.394,349.531,934.238
			C2193.906,1325.996,2116.123,1254.687,1863.291,835.938z"/>
		<path fill="#FFAB00" d="M5218.75,2128.691c4.043-76.094,27.07-91.602,819.277-568.965
			c174.277-106.289,289.883-92.91,341.797,37.051c58.613,147.207,38.34,163.613-617.695,457.558
			C5315.878,2254.59,5211.308,2268.906,5218.75,2128.691z"/>
		<path fill="#4F4A4A" d="M3544.843-255.137c-34.355-74.473-19.59-141.094,47.852-206.504
			c35.078-34.551,42.402-58.008,27.207-86.992c-65.547-125.156,103.086-262.012,260.625-212.793
			c91.172,28.496,97.969,26.074,126.465-65.117c48.809-156.094,121.504-160.683,526.289-34.179
			c404.824,126.504,461.973,171.64,413.184,327.773c-28.477,91.172-24.258,97.051,66.914,125.547
			c135.41,42.305,191.113,155.293,132.754,264.375c-57.09,105.02-61.855,120.215-68.691,219.688
			c-4.355,57.773-24.766,93.887-72.754,121.348C4906.425,255.254,3592.578-150.801,3544.843-255.137z"/>
	</g>
</g>
</svg>
