<?xml version="1.0" encoding="iso-8859-1"?>
<!-- Generator: Adobe Illustrator 19.0.0, SVG Export Plug-In . SVG Version: 6.00 Build 0)  -->
<svg version="1.1" id="Layer_1" xmlns="http://www.w3.org/2000/svg" xmlns:xlink="http://www.w3.org/1999/xlink" x="0px" y="0px"
	 viewBox="0 0 512.002 512.002" style="enable-background:new 0 0 512.002 512.002;" xml:space="preserve">
<path style="fill:#F5C525;" d="M101.652,203.604h103.552c50.215,0,90.923,40.707,90.923,90.923v22.731
	c0,50.215-40.707,90.923-90.923,90.923h-36.052c-12.358,14.156-23.944,34.078-13.83,49.25c0,0-36.44-6.23-53.023-49.25h-0.646
	c-50.216,0-90.924-40.708-90.924-90.923v-22.731C10.729,244.312,51.436,203.604,101.652,203.604z"/>
<path style="fill:#EB7830;" d="M410.347,54.569H306.795c-50.215,0-90.923,40.707-90.923,90.923v22.731
	c0,50.215,40.707,90.923,90.923,90.923h36.052c12.358,14.156,23.944,34.078,13.83,49.25c0,0,36.44-6.23,53.023-49.25h0.646
	c50.215,0,90.923-40.707,90.923-90.923v-22.731C501.271,95.276,460.563,54.569,410.347,54.569z"/>
<g>
	<path style="fill:#231F20;" d="M198.399,275.419h19.848c5.924,0,10.729-4.803,10.729-10.729c0-5.926-4.804-10.729-10.729-10.729
		h-19.848c-5.924,0-10.729,4.803-10.729,10.729C187.671,270.616,192.474,275.419,198.399,275.419z"/>
	<path style="fill:#231F20;" d="M165.946,253.961h-12.982c-5.924,0-10.729,4.803-10.729,10.729c0,5.926,4.804,10.729,10.729,10.729
		h12.982c5.924,0,10.729-4.803,10.729-10.729C176.674,258.765,171.87,253.961,165.946,253.961z"/>
	<path style="fill:#231F20;" d="M108.457,253.961H88.609c-5.924,0-10.729,4.803-10.729,10.729c0,5.926,4.804,10.729,10.729,10.729
		h19.848c5.924,0,10.729-4.803,10.729-10.729C119.186,258.765,114.382,253.961,108.457,253.961z"/>
	<path style="fill:#231F20;" d="M207.966,307.606c0,5.926,4.804,10.729,10.729,10.729h19.848c5.924,0,10.729-4.803,10.729-10.729
		s-4.804-10.729-10.729-10.729h-19.848C212.77,296.877,207.966,301.681,207.966,307.606z"/>
	<path style="fill:#231F20;" d="M162.409,318.335c5.924,0,10.729-4.803,10.729-10.729s-4.804-10.729-10.729-10.729h-16.766
		c-5.924,0-10.729,4.803-10.729,10.729s4.804,10.729,10.729,10.729H162.409z"/>
	<path style="fill:#231F20;" d="M98.889,307.606c0-5.926-4.804-10.729-10.729-10.729H68.312c-5.924,0-10.729,4.803-10.729,10.729
		s4.804,10.729,10.729,10.729H88.16C94.085,318.335,98.889,313.531,98.889,307.606z"/>
	<path style="fill:#231F20;" d="M218.248,339.792h-19.848c-5.924,0-10.729,4.803-10.729,10.729s4.804,10.729,10.729,10.729h19.848
		c5.924,0,10.729-4.803,10.729-10.729S224.172,339.792,218.248,339.792z"/>
	<path style="fill:#231F20;" d="M165.946,339.792h-12.982c-5.924,0-10.729,4.803-10.729,10.729s4.804,10.729,10.729,10.729h12.982
		c5.924,0,10.729-4.803,10.729-10.729S171.87,339.792,165.946,339.792z"/>
	<path style="fill:#231F20;" d="M108.457,339.792H88.609c-5.924,0-10.729,4.803-10.729,10.729s4.804,10.729,10.729,10.729h19.848
		c5.924,0,10.729-4.803,10.729-10.729S114.382,339.792,108.457,339.792z"/>
	<path style="fill:#231F20;" d="M410.348,43.84H306.796c-56.052,0-101.653,45.601-101.653,101.653v22.731
		c0,8.519,1.059,16.794,3.043,24.706c-0.991-0.029-1.984-0.054-2.983-0.054H101.652C45.601,192.876,0,238.477,0,294.527v22.731
		c0,53.855,42.094,98.062,95.11,101.445c19.581,42.199,56.753,49.022,58.404,49.305c0.605,0.103,1.21,0.155,1.811,0.155
		c3.591,0,6.996-1.807,8.995-4.885c2.335-3.593,2.307-8.23-0.07-11.795c-6.298-9.447,3.665-24.609,9.941-32.57h31.013
		c56.051,0,101.652-45.601,101.652-101.653v-22.731c0-8.52-1.079-16.789-3.065-24.701c0.999,0.029,2.001,0.048,3.006,0.048h31.013
		c6.276,7.962,16.239,23.124,9.941,32.57c-2.378,3.565-2.404,8.202-0.07,11.795c1.999,3.079,5.404,4.885,8.995,4.885
		c0.601,0,1.206-0.05,1.811-0.155c1.649-0.282,38.821-7.106,58.404-49.305c53.016-3.382,95.11-47.589,95.11-101.444v-22.731
		C512,89.441,466.399,43.84,410.348,43.84z M285.398,294.527v22.731c0,44.219-35.975,80.195-80.194,80.195h-36.052
		c-3.098,0-6.045,1.339-8.082,3.673c-11.984,13.728-18.751,26.971-20.108,38.923c-9.592-5.889-21.28-16.601-28.651-35.726
		c-1.595-4.139-5.575-6.87-10.011-6.87h-0.647c-44.219-0.001-80.194-35.976-80.194-80.195v-22.731
		c0-44.219,35.975-80.194,80.194-80.194h103.552c3.891,0,7.712,0.299,11.455,0.842c13.006,24.866,35.998,43.713,63.62,51.183
		C283.58,275.127,285.398,284.618,285.398,294.527z M490.542,168.223c0,44.219-35.975,80.194-80.194,80.194h-0.647
		c-4.436,0-8.416,2.73-10.011,6.87c-7.377,19.136-19.059,29.847-28.651,35.734c-1.356-11.954-8.122-25.201-20.108-38.931
		c-2.037-2.334-4.985-3.673-8.082-3.673h-36.052c-44.22,0-80.195-35.975-80.195-80.194v-22.731
		c0-44.219,35.975-80.195,80.195-80.195h103.552c44.219,0,80.194,35.975,80.194,80.195L490.542,168.223L490.542,168.223z"/>
	<path style="fill:#231F20;" d="M293.752,126.383h39.697c5.924,0,10.729-4.803,10.729-10.729c0-5.926-4.804-10.729-10.729-10.729
		h-39.697c-5.924,0-10.729,4.803-10.729,10.729C283.023,121.58,287.827,126.383,293.752,126.383z"/>
	<path style="fill:#231F20;" d="M386.021,104.926H371c-5.924,0-10.729,4.803-10.729,10.729c0,5.926,4.804,10.729,10.729,10.729
		h15.02c5.924,0,10.729-4.803,10.729-10.729C396.749,109.729,391.945,104.926,386.021,104.926z"/>
	<path style="fill:#231F20;" d="M376.454,158.57c0-5.926-4.804-10.729-10.729-10.729h-15.02c-5.924,0-10.729,4.803-10.729,10.729
		s4.804,10.729,10.729,10.729h15.02C371.649,169.299,376.454,164.496,376.454,158.57z"/>
	<path style="fill:#231F20;" d="M323.882,158.57c0-5.926-4.804-10.729-10.729-10.729h-39.697c-5.924,0-10.729,4.803-10.729,10.729
		s4.804,10.729,10.729,10.729h39.697C319.078,169.299,323.882,164.496,323.882,158.57z"/>
	<path style="fill:#231F20;" d="M443.687,147.841h-26.464c-5.924,0-10.729,4.803-10.729,10.729s4.804,10.729,10.729,10.729h26.464
		c5.924,0,10.729-4.803,10.729-10.729S449.612,147.841,443.687,147.841z"/>
	<path style="fill:#231F20;" d="M333.449,190.757h-39.697c-5.924,0-10.729,4.803-10.729,10.729c0,5.926,4.804,10.729,10.729,10.729
		h39.697c5.924,0,10.729-4.803,10.729-10.729C344.178,195.56,339.374,190.757,333.449,190.757z"/>
	<path style="fill:#231F20;" d="M386.021,190.757H371c-5.924,0-10.729,4.803-10.729,10.729c0,5.926,4.804,10.729,10.729,10.729
		h15.02c5.924,0,10.729-4.803,10.729-10.729C396.749,195.56,391.945,190.757,386.021,190.757z"/>
</g>
<g>
</g>
<g>
</g>
<g>
</g>
<g>
</g>
<g>
</g>
<g>
</g>
<g>
</g>
<g>
</g>
<g>
</g>
<g>
</g>
<g>
</g>
<g>
</g>
<g>
</g>
<g>
</g>
<g>
</g>
</svg>
