<?xml version="1.0" encoding="utf-8"?>
<!-- Generator: Adobe Illustrator 16.0.0, SVG Export Plug-In . SVG Version: 6.00 Build 0)  -->
<!DOCTYPE svg PUBLIC "-//W3C//DTD SVG 1.1//EN" "http://www.w3.org/Graphics/SVG/1.1/DTD/svg11.dtd">
<svg version="1.1" id="Layer_1" xmlns="http://www.w3.org/2000/svg" xmlns:xlink="http://www.w3.org/1999/xlink" x="0px" y="0px"
	 width="50px" height="258.287px" viewBox="0 0 50 258.287" enable-background="new 0 0 50 258.287" xml:space="preserve">
<g>
	<path d="M0,130.487v-3c4.397-1.2,7.213-3.602,9.9-5.7c4.183-3.267,12.1-9.6,12.1-17.4v-70.8c0-13.2,4.792-23.313,14.5-28.712
		C43.78,0.876,44.547,1.323,50,0v1.313c-7.271,1.792-12.352,3.522-14.25,8.411c-1.903,4.889-2.85,14.414-2.85,28.58v63.45
		c0,7.383-3.947,14.067-11.832,20.053c-6.272,4.791-11.325,7.181-15.164,7.181c2.423,0,5.859,1.298,10.313,3.891
		c11.119,6.586,16.683,14.367,16.683,23.344v63.45c0,11.568,0.3,19.055,0.9,22.448c1.598,8.977,8.012,11.817,16.2,14.88v1.287
		c-4.197-0.087-12.33-3.3-19.202-9.9c-5.869-5.602-8.798-13.603-8.798-24v-70.799c0-7.801-8-13.817-12.1-17.4
		C7.335,133.946,4.397,131.688,0,130.487z"/>
</g>
</svg>
