<?xml version="1.0" encoding="utf-8"?>
<!-- Generator: Adobe Illustrator 16.0.0, SVG Export Plug-In . SVG Version: 6.00 Build 0)  -->
<!DOCTYPE svg PUBLIC "-//W3C//DTD SVG 1.1//EN" "http://www.w3.org/Graphics/SVG/1.1/DTD/svg11.dtd">
<svg version="1.1" id="Layer_1" xmlns="http://www.w3.org/2000/svg" xmlns:xlink="http://www.w3.org/1999/xlink" x="0px" y="0px"
	 width="58.8px" height="258.6px" viewBox="0 0 58.8 258.6" enable-background="new 0 0 58.8 258.6" xml:space="preserve">
<g>
	<path d="M0,130.8v-3c4.397-1.2,7.697-3.098,9.9-5.7c3-3.797,4.5-9.6,4.5-17.4V33.9c0-13.2,4.852-22.5,14.56-27.9
		c7.28-3.999,17.227-6,29.84-6v2.7c-7.603,0-12.352,2.447-14.25,7.336c-1.903,4.889-2.85,14.414-2.85,28.58v63.45
		c0,7.383-3.947,14.067-11.832,20.053c-6.272,4.791-11.325,7.181-15.164,7.181c2.423,0,5.859,1.298,10.313,3.891
		c11.119,6.586,16.683,14.367,16.683,23.344v63.45c0,11.568,0.3,19.055,0.9,22.448c1.598,8.977,6.999,13.468,16.2,13.468v2.699
		c-16.861,0-28.729-3.3-35.602-9.9c-5.869-5.602-8.798-13.603-8.798-24V153.9c0-7.801-1.5-13.599-4.5-17.4
		C7.697,133.903,4.397,132,0,130.8z"/>
</g>
</svg>
