<?xml version="1.0" encoding="utf-8"?>
<!-- Generator: Adobe Illustrator 16.0.0, SVG Export Plug-In . SVG Version: 6.00 Build 0)  -->
<svg version="1.2" baseProfile="tiny" xmlns="http://www.w3.org/2000/svg" xmlns:xlink="http://www.w3.org/1999/xlink" x="0px"
	 y="0px" width="1200px" height="1200px" viewBox="0 0 1200 1200" xml:space="preserve">
<g id="Layer_2">
</g>
<g id="Layer_1">
	<path fill="#FDDCBE" d="M539.981,945.796c0.204-0.293,0.409-0.604,0.615-0.937C540.396,945.147,540.189,945.466,539.981,945.796z"
		/>
	<g>
		<g>
			<path fill="#FDDCBE" d="M564.444,588.571c7.482-0.78,8.616,21.695,8.745,31.978c0.161-2.475,0.605-5.212,1.84-5.204
				c8.049,0.062,6.578,4.771,6.65,7.135c0.042-1.939,0.648-5.856,4.17-5.648c3.202,0.189,4.809,3.488,5.474,5.558
				c0.108-1.509,0.795-3.911,3.693-3.767c12.088,0.601,0.228,28.412,0.228,28.412l-28.944,3.822
				C566.3,650.856,554.757,589.58,564.444,588.571z"/>
			<polygon fill="#F5F5F5" points="563.873,646.948 563.488,639.814 599.536,638.81 599.222,645.43 			"/>
			<path fill="#1A1A1A" d="M477.427,762.242c0,0,101.731,136.547,83.486-117.012l39.822-2.612c0,0,12.596,277.72-121.332,166.166
				L477.427,762.242z"/>
			<path fill="#484848" d="M591.692,651.885c0.265,1.682,1.849,2.835,3.542,2.574c1.69-0.263,2.848-1.84,2.584-3.522
				c-0.264-1.684-1.847-2.835-3.539-2.573C592.588,648.626,591.43,650.202,591.692,651.885z"/>
			
				<ellipse transform="matrix(-0.9882 0.1531 -0.1531 -0.9882 1283.498 1225.5864)" fill="#484848" cx="594.562" cy="662.21" rx="3.1" ry="3.085"/>
			<path fill="#484848" d="M591.255,673.18c0.262,1.681,1.849,2.834,3.54,2.573c1.692-0.263,2.85-1.838,2.586-3.522
				c-0.262-1.684-1.848-2.835-3.54-2.574C592.15,669.92,590.993,671.496,591.255,673.18z"/>
		</g>
		<path fill="#FDDCBE" d="M484.613,756.947c0,0,24.219-242.291-160.956-178.361c0,0-74.695,116.083-75.308,180.414
			C297.354,783.722,484.613,756.947,484.613,756.947z"/>
		<g>
			<path fill="#7E9689" d="M514.095,1076.94c0.008,16.87-61.308,30.601-136.951,30.658c-75.643,0.06-136.97-13.572-136.976-30.445
				c-0.007-16.872,61.308-30.599,136.948-30.657C452.76,1046.438,514.088,1060.068,514.095,1076.94z"/>
			<path fill="#141414" d="M472.908,938.795l-15.87,119.073c0,0,22.967-16.999,33.986,2.547
				c15.528,27.544-48.172,12.895-48.172,12.895l4.976-115.682c0,0-66.397,15.394-155.228,4.361l-11.438,103.526
				c0,0,26.049-23.37,35.019,0c11.996,31.264-49.167,10.652-49.167,10.652l0.302-129.12
				C267.315,947.048,344.505,925.5,472.908,938.795z"/>
			<path fill="#1A1A1A" d="M329.116,758.367l73.468,92.843l69.287-94.263h12.742l-11.705,181.848c0,0-19.139,6.565-60.404,10.249
				c-17.259,1.841-43.67,2.435-43.67,2.435c-26.93,0.1-63.423-1.094-101.519-4.431L248.35,759L329.116,758.367z"/>
			<g>
				<g>
					<path fill="#141414" d="M529.561,508.649c0,0-31.143,149.137-197.539,109.559l-20.519,46.89c0,0-20.787-21.63-27.457,0.993
						c-6.672,22.622,21.803,15.378,21.803,15.378s-28.793,62.842-57.5,77.531c0,0-64.263-237.249,44.578-208.748
						c0,0,15.238-49.328,79.618-50.531C439.27,498.475,468.567,572.809,529.561,508.649z"/>
					<path fill="#141414" d="M447.123,671.354c-0.236,6.236,2.515,11.401,6.148,11.536c3.631,0.137,6.767-4.806,7-11.039
						c0.235-6.237-2.515-11.403-6.146-11.539C450.492,660.176,447.358,665.118,447.123,671.354z"/>
					
						<ellipse transform="matrix(-0.9993 -0.0375 0.0375 -0.9993 691.8549 1356.7159)" fill="#141414" cx="358.643" cy="671.874" rx="6.58" ry="11.297"/>
					<polygon fill="#F5F5F5" points="471.871,756.947 402.584,851.21 329.116,758.367 					"/>
					<polygon fill="#484848" points="471.871,756.947 473.104,797.061 450.368,801.834 453.768,832.353 402.584,851.21 					"/>
					<polygon fill="#484848" points="402.584,851.21 352.748,827.521 354.354,805.304 330.341,796.831 329.116,758.367 					"/>
					<polygon fill="#141414" points="421.255,774.726 414.795,765.848 393.138,766.435 388.372,775.443 396.229,787.869 
						385.982,830.326 402.584,851.21 421.004,826.175 413.423,788.183 					"/>
					<path fill="#141414" d="M377.694,699.471c0.233,9.956,6.97,31.632,34.794,32.453c28.553,0.841,29.544-32.37,29.544-32.37
						S404.861,690.709,377.694,699.471z"/>
				</g>
			</g>
			<path fill="#484848" d="M388.793,867.369c0.778,3.51,4.264,5.725,7.792,4.954c3.526-0.771,5.752-4.243,4.974-7.752
				c-0.775-3.51-4.262-5.725-7.784-4.952C390.246,860.396,388.017,863.862,388.793,867.369z"/>
			<path fill="#484848" d="M387.94,897.104c0.777,3.509,4.266,5.729,7.788,4.955c3.527-0.775,5.756-4.244,4.977-7.748
				c-0.771-3.512-4.264-5.728-7.786-4.955C389.392,890.124,387.16,893.596,387.94,897.104z"/>
		</g>
		<g>
			<path fill="#FDDCBE" d="M594.065,936.832c3.797,4.812,1.691,13.294-6.546,6.429c1.646,2.398,1.588,4.868-0.558,6.578
				c-2.735,2.177-6.891-0.131-8.672-2.26c1.37,1.818,4.65,6.283,1.251,8.623c-3.089,2.122-6.261,1.508-8.373,0.079
				c0.998,1.471,3.182,5.487,0.406,7.429c-9.214,4.64-22.838-20.589-47.981-23.518l13.897-32.568
				C565.761,908.434,591.612,933.105,594.065,936.832z"/>
			<polygon fill="#F5F5F5" points="535.037,903.166 542.818,906.323 525.869,944.801 518.985,941.16 			"/>
			<path fill="#1A1A1A" d="M280.689,781.269c0,0,49.625,73.172,257.657,119.634l-17.131,43.262c0,0-170.558-44.611-253.92-148.398
				L280.689,781.269z"/>
			<path fill="#484848" d="M517.508,932.101c-1.56-0.196-2.982,0.906-3.176,2.457c-0.197,1.556,0.911,2.971,2.471,3.164
				c1.562,0.191,2.982-0.908,3.177-2.463C520.175,933.707,519.067,932.293,517.508,932.101z"/>
			<path fill="#484848" d="M507.197,929.432c-1.561-0.191-2.983,0.911-3.178,2.459c-0.193,1.557,0.914,2.97,2.474,3.163
				c1.56,0.194,2.981-0.91,3.177-2.463C509.864,931.04,508.757,929.625,507.197,929.432z"/>
			
				<ellipse transform="matrix(0.1245 -0.9922 0.9922 0.1245 -487.5641 1306.6482)" fill="#484848" cx="496.627" cy="929.601" rx="2.832" ry="2.847"/>
		</g>
		<g>
			<path fill="#484848" d="M281.388,781.447c-0.59-0.645,0.131,0.493-0.426-0.387C281.11,781.096,281.268,781.18,281.388,781.447z"
				/>
			<path fill="#484848" d="M488.301,889.553c-2.908-0.076-6.407-1.55-9.53-1.903c-0.363-0.059,0.173-0.302-0.648-0.415
				c-3.05-0.269-7.577-1.804-11.036-3.09l0.242-0.034c-0.661-0.245-1.569-0.166-2.276-0.401c0.012-0.06,0.253-0.023,0.112-0.15
				c-0.232,0.135-1.321-0.261-1.664-0.206c-0.262-0.153-0.194-0.291-0.534-0.475l-0.466,0.089c-1.274,0.158-2.745-0.841-4.368-1.04
				c0.09-0.028,0.254-0.018,0.145-0.1c-2.569-0.435-5.672-1.379-8.475-2.111c0.131-0.038,0.274-0.134,0.139-0.271
				c-0.204,0.173-1.073-0.042-1.826-0.237c-0.264-0.326-1.333-0.202-2.162-0.599l0.09-0.025c-0.714,0.027-0.907-0.437-1.517-0.322
				l-0.353-0.305c-0.381,0.223-0.875-0.455-1.456-0.469l-0.003,0.07c-0.524-0.08-0.734-0.322-1.215-0.418l-0.031-0.048
				c-1.112-0.265-1.687-0.639-1.74-0.385c-0.316-0.318,1.081,0.244,0.578-0.229c-3.659-0.862-7.27-2.251-10.845-3.45
				c-0.369-0.237-0.617-0.355-0.675-0.478c-0.374-0.075-1.357-0.419-1.725-0.406c0.121,0.035-0.186-0.204-0.37-0.279
				c-0.616-0.313-0.801,0.013-1.469-0.355c0.304,0.04,0.428-0.001,0.366-0.127c-0.669-0.035-1.465-0.364-2.199-0.569
				c0.125,0,0.307,0.042,0.307-0.044c-0.857-0.078-1.403-0.573-2.134-0.691l0.306-0.046c-1.036-0.575-0.432,0.17-1.344-0.281
				c0.244,0.038,0.184-0.045,0.247-0.083c-0.981-0.081-2.382-0.695-3.298-0.938l0.06-0.046c-0.975-0.326-1.954-0.773-3.051-1.069
				c-0.358-0.212,0.255-0.284-0.773-0.636c-0.071,0.29-1.759-0.574-1.287-0.021c-0.845-0.392-2.17-1.039-2.782-1.177
				c0.431,0.052-0.284-0.501,0.442-0.24l-0.474-0.381c0.125-0.082,0.541,0.26,0.426,0.049c-0.364-0.131-1.454-0.443-1.757-0.614
				c-0.733-0.098-1.473-0.026-2.565-0.426c0.551,0.098-0.163-0.415,0.201-0.324l-1.721-0.077c-0.363-0.133,0.011-0.244-0.535-0.383
				c-0.005,0.081-0.247,0.029-0.427,0.023c-0.121-0.091-1.506-0.565-1.546-0.899c-0.115-0.173,0.601,0.19,0.248-0.073
				c-0.656-0.278-0.724-0.196-1.381-0.473l0.002-0.044c-0.416-0.226-1.325-0.43-0.918-0.079c0.297,0.136-0.045-0.213,0.368,0.057
				c-0.372,0.026-1.152-0.258-1.811-0.533c0.242,0.052,0.246-0.03,0.368-0.068c-0.971-0.167-1.936-0.5-2.96-0.832
				c-0.072,0.12,0.47-0.075,0.585,0.054c-1.181-0.726-2.727-0.845-3.647-1.591c0.182,0.058,0.012,0.223,0.016,0.182
				c-0.596-0.29-0.485-0.463-0.907-0.569c0.008-0.128-0.508-0.193-0.928-0.343c-0.245-0.02-0.081-0.102,0.275,0.047
				c-0.604-0.166-2.931-1.027-4.159-1.776c-0.007,0.082-0.917-0.104-1.214-0.248l0.195-0.11c-0.227-0.226-1.009-0.443-0.992-0.606
				c-0.732-0.091,2.538,0.947,1.603,0.708c-0.161-0.239-1.326-0.283-1.036-0.425c-0.602-0.267-1.272-0.346-1.772-0.764
				c0.153,0.103,0.595-0.006,0.105-0.215c-0.861-0.37-0.279-0.035-0.991-0.309l-0.461-0.14c-0.105,0.146-0.745-0.389-0.517-0.058
				c-0.039-0.183-1.266-0.513-1.051-0.738l0.22-0.151c-0.373-0.161-0.706-0.068-1.038-0.112c-0.037-0.047-0.114-0.133-0.078-0.159
				c-0.215,0.289-0.858-0.45-1.414-0.413c-0.71-0.479-1.939-0.954-2.202-1.326c-0.637-0.188-1.23-0.335-1.866-0.728
				c0.148,0.035,0.334,0.113,0.407,0.063c-0.373-0.299-0.522-0.257-0.928-0.403c0.108-0.005-0.739-0.614-1.145-0.967
				c-0.625-0.199-0.514,0.074-0.625,0.149c-0.368-0.587-1.736-0.641-2.251-1.265c0.223,0.062,0.922,0.283,0.481-0.042
				c-0.365-0.585-1.184-0.319-1.955-0.904l0.071,0.363c-0.295-0.356-1.332-0.496-1.106-0.712c-0.335-0.054-0.96-0.604-0.999-0.302
				c-1.294-0.913-3.439-1.686-4.05-2.584c-0.22-0.066-0.691-0.378-0.66-0.195c0.252,0.318,0.513,0.151,0.584,0.313
				c-0.181-0.091-0.258-0.044-0.296-0.018c-0.397-0.291-0.725-0.491-0.206-0.479c-0.87-0.671-1.219-0.112-2.381-0.872
				c0.11-0.071,0.041-0.164-0.324-0.34l-0.773-0.192c-0.764-0.47-0.316-0.476-0.238-0.657c-0.437-0.201-0.947-0.486-1.209-0.466
				l-0.379-0.508c0.278,0.37-0.4-0.09-0.619-0.161l0.219,0.071c-0.034-0.116-0.541-0.349-0.796-0.468
				c-0.001,0.143,0.462,0.467,0.712,0.649c-0.254-0.045-0.575-0.25-0.907-0.324c0.19-0.115-0.606-0.509-0.926-0.716
				c-0.357-0.252-0.516-0.096-0.621-0.161c0.042-0.094-0.608-0.369-0.244-0.322c0.147,0.047,0.247,0.252,0.504,0.298
				c-0.211-0.208-0.093-0.345-0.677-0.529c-0.437-0.141-0.092,0.39-0.769-0.141c0.219,0.07,0.292,0.021,0.479,0.047l-0.641-0.483
				l-0.12,0.138c-0.07-0.095,0.002-0.071-0.029-0.116c-0.3,0.043-1.085-0.556-1.35-0.467c-0.359-0.185-0.674-0.529-0.997-0.738
				l0.072,0.023c-0.355-0.32-0.93-0.574-1.327-0.682l0.037-0.022c-0.213-0.143-0.746-0.436-1.075-0.512
				c-0.484-0.451,0.161-0.688-0.569-0.868c-0.564-0.336-1.05-0.254-0.884-0.022c-0.95-0.714-2.251-1.163-3.043-1.967
				c-0.185-0.026-0.116,0.065-0.438-0.079c-1.457-0.946-3.216-1.781-4.201-2.81c0.464,0.206,0.125-0.134,0.17-0.223
				c-0.436-0.09-0.331-0.406-0.605-0.259c-0.053,0.159-0.13,0.203,0.248,0.518c-0.92-0.483-2.251-1.332-2.654-1.765
				c0.202,0.218-0.013,0.139-0.23,0.058c0.206-0.178-0.424-0.613-0.954-0.862l-0.153,0.087l-0.226-0.344
				c-0.21-0.084-0.383,0.137-0.778-0.307l-0.048-0.233c-0.568-0.229-1.391-0.515-1.857-0.989l-0.313-0.484
				c-0.244-0.132-0.71-0.28-0.341,0.049c-0.844-0.734-1.428-1.143-1.607-1.502c-1.86-0.662-4.125-2.271-5.929-3.565l0.124-0.056
				c-0.425-0.431-0.374-0.015-0.667-0.319c0.222,0.021-0.229-0.457,0.234-0.299c-0.628-0.586-1.016-0.47-1.494-0.757
				c-0.159,0.074,0.418,0.186,0.216,0.279c-0.108-0.012-0.881-0.797-1.125-0.688c-0.119-0.2,0.117-0.238,0.267-0.246l-0.488-0.217
				c-0.352-0.596,1.457,0.467,1.117-0.199l-0.406-0.253c-0.227-0.469,1.182,0.527,0.262-0.251c-0.488-0.218-1.048-0.211-0.734,0.146
				c-0.913-0.592-0.735,0.148-1.667-0.563c-0.177-0.297,0.775,0.529,0.708,0.245c-0.333-0.479-0.954-0.572-1.31-0.916
				c0.385,0.392-0.126,0.309-0.437,0.135c-0.413-0.442,0.445,0.05-0.22-0.467c-0.193,0.024-0.88-0.357-0.395,0.117
				c-0.429,0.06-0.659-0.582-1.166-0.678c-0.089-0.338,0.99,0.133,0.318-0.515c-0.007,0.256-1.077-0.474-0.873,0.07
				c-0.253-0.271-0.185-0.421,0.101-0.362c-0.333-0.418-1.228-0.47-1.113-0.897l-0.27,0.059c-0.088-0.155-0.24-0.337-0.381-0.591
				c-0.36-0.279-1.343-0.672-1.114-0.896c-0.137-0.066-0.957-0.713-0.774-0.296c0.432,0.504,0.692,0.329,0.795,0.787
				c-0.215-0.475-0.763-0.55-1.111-0.714l0.028-0.133c-0.205-0.101-0.6-0.433-0.79-0.419c0.179,0.054,0.161-0.066,0.04-0.206h-0.299
				c-0.768-0.494,0.037-0.391-0.686-0.901l0.615,0.308c-0.136-0.069-0.259-0.394-0.625-0.615c-0.237,0.032-0.606-0.002-0.799,0.015
				c-0.437-0.256-0.053-0.291-0.546-0.462l0.631,0.243c0.111,0.017-0.161-0.492-0.681-0.905c-0.371-0.22-1.04-0.444-0.577,0.053
				c-0.262-0.208-0.561-0.583-0.274-0.513c-0.628-0.431-0.04,0.203-0.615-0.123c-0.136-0.256-0.686-0.899-0.958-1.355l0.704,0.218
				l-0.344-0.29c0.594,0.199-0.116-0.325,0.292-0.301c-0.213-0.224-0.551-0.404-0.82-0.545c0.443,0.877-1.117-0.244-1.144,0.192
				c-1.014-0.726-0.037-1.155-1.386-1.562c0.102,0.205-0.54,0.016,0.125,0.442c-0.564-0.526-0.632-0.069-1.234-0.767
				c0.61,0.324-0.32-0.733,0.563-0.269c-0.125,0.048,0.358,0.417,0.493,0.486c-0.153-0.306,0.282-0.225-0.321-0.731
				c-0.393-0.281-0.896-0.708-0.942-0.509c-0.122,0.172,0.571,0.465,0.202,0.417c-0.771-0.575-0.687-0.914-1.222-0.903
				c0.476,0.378,0.452,0.635,0.352,0.729l-0.586-0.4l0.191-0.009c-0.788-0.819-0.412-0.039-1.215-0.787l-0.21-0.538
				c0.348,0,1.133,1.127,1.231,0.717c-0.526-0.477-0.828-0.491-1.27-1.005l0.427,0.273c-0.184-0.178-0.045-0.714-1.001-1.165
				c-0.47-0.262-0.192,0.008-0.296,0.104c-0.89-0.72-1.226-0.857-1.79-1.335c0.295-0.1-0.943-0.897-0.154-0.556
				c0.17,0.367,1.396,1.479,1.879,1.548c-0.097-0.512,0.646,0.624,1.046,0.542c-0.683-0.608-0.437-0.815-0.409-1.066
				c-0.181-0.179-0.427-0.271-0.56-0.354c-0.209,0.073,0.038,0.296-0.082,0.457c-0.721-0.723-1.519-1.305-2.065-1.548
				c-0.187-0.301,0.025-0.368,0.338-0.112c-0.937-0.775-1.886-1.66-2.675-2.507c0.321,0.747-0.983-0.83-0.798-0.289
				c0.398,0.479,0.627,1.011,0.281,0.878c-0.266-0.28,0.107-0.093,0.034-0.252c-0.478-0.214-0.36-0.729-0.903-0.864
				c0.878,0.689,0.426-0.135,0.746-0.173c-0.676-0.447,0.149-0.105-0.425-0.649c-0.676-0.443-1.459-1.044-2.122-1.633
				c-0.625-0.949-2.009-1.977-2.701-2.691c-0.274-0.462,0.176-0.406-0.183-0.844c-0.466-0.469,0.123,0.563-0.468-0.231l0.107,0.032
				c-0.261-0.163-1.106-1.426-1.598-1.363l0.432,0.013l-0.4-0.316c0.068-0.071-0.011-0.289,0.239-0.115
				c-0.256-0.588-0.894-0.9-1.341-1.377l0.149,0.432c-0.859-0.738-1.239-1.409-2.003-2.188l0.155-0.091l-0.506-0.419
				c0.236,0.007-0.071-0.513-0.405-0.675l1.432,0.979c0.227,0.42-0.497-0.241-0.436,0.096c0.044,0.291,0.758,1.003,0.994,1.012
				c-0.243-0.301-0.284-0.287-0.533-0.467c0.101-0.257,0.485,0.183,0.801,0.283c-0.144-0.141-0.278-0.399-0.366-0.383
				c0.355,0.215,0.636,0.496,1.081,0.978c-0.369-0.262,0.049,0.283-0.116,0.207c0.193-0.105,0.669,0.309,1.181,0.941
				c0.218,0.591,1.155,1.01,1.766,1.724c-0.425-0.121-0.896-0.35-1.351-0.705c0.324,0.505,0.454,0.475,0.79,0.976
				c0.321,0.092,0.645,0.064,1.254,0.548l-0.087,0.141c0.549,0.443,0.719,0.275,1.311,0.942c1.031,1.124,2.137,2.239,2.967,3.054
				l-0.081,0.145c0.712,0.196,1.654,1.394,2.393,1.883c0.974,1.128,2.48,2.06,2.849,2.779c2.027,1.668,3.833,3.076,5.856,4.883
				l-0.504-0.117c0.485,0.182,0.154,0.31,0.542,0.591c-0.297-0.5,0.666,0.237,1.016,0.343c0.809,0.911,2.116,1.77,3.056,2.31
				l-0.069,0.151c1.035,0.441,1.871,1.459,2.891,2.34c0.078,0.15,0.172,0.421,0.498,0.661c0.73,0.257,1.021,0.504,1.974,1.026
				c0.62,0.477,1.588,1.301,2.155,1.871c2.541,1.528,4.859,3.447,7.444,5.097l0.066,0.285c2.675,1.364,5.417,3.804,7.652,5.027
				l-0.388,0.133c0.604,0.523,1.554,0.937,1.515,0.634c0.606,0.524,1.74,0.971,2.011,1.475c0.642,0.504,0.911,0.431,1.498,0.771
				c1.293,0.999,1.827,1.286,3.154,2.067l-0.311-0.225c-0.182-0.029-0.27,0.075,0.042,0.301c0.533,0.233,1.731,1.207,1.46,0.574
				c1.264,1.065,3.313,1.911,4.528,2.98c-0.06-0.163,0.296,0.032,0.478,0.058c1.233,0.739,2.414,1.711,3.491,2.148
				c0.167,0.164-0.407-0.032,0.089,0.279c0.318,0.144,0.078-0.115,0.474,0.058c2.084,1.054,3.979,2.546,5.836,3.574
				c3.351,1.732,6.776,3.664,9.962,5.367l-0.074,0.049c1.199,0.326,2.354,1.621,3.428,1.658c0.219,0.194,0.954,0.528,0.698,0.565
				c0.954,0.253,2.306,1.409,3.668,1.808l-0.331-0.122c1.176,0.794,2.38,1.169,3.642,1.965c-0.152-0.037-0.41-0.134-0.484-0.084
				c0.45,0.383,1.372,0.298,1.485,0.771c0.298,0.142,0.297-0.065,0.109-0.146c2.87,1.537,6.078,2.885,9.19,4.215
				c2.111,1.211-0.135,0.638,1.726,1.177c0.114,0.132,0.165-0.084,0.154-0.002c0.72,0.211,0.875,0.859,1.425,0.894
				c-0.095-0.296,0.368,0.023,0.439-0.098c1.287,0.754,1.472,1.067,2.61,1.393l-0.129,0.076c1.386,0.266,2.765,1.076,3.996,1.16
				c6.967,2.955,13.772,5.476,20.664,8.094c6.787,2.666,13.567,4.903,20.52,7.463c1.535,0.875,1.667,0.896,3.525,1.353
				c-0.09,0.024-0.208,0-0.102,0.083c0.173-0.221,1.288,0.386,1.538,0.201c2.596,0.879,5.021,1.574,7.707,2.427
				c-0.433-0.108-0.709,0.029-0.199,0.173l0.577,0.008l0.064,0.098c0.357,0.072,0.771,0.07,0.439-0.126
				c6.857,1.772,13.375,4.292,20.118,5.95c1.563,0.529,3.854,1.036,5.598,1.444c5.057,1.628,9.656,2.986,14.953,4.023
				C491.343,889.428,490.506,889.922,488.301,889.553z"/>
			<path fill="#484848" d="M282.079,782.241c0.02,0.228,0.362,0.745-0.088,0.48C282.046,782.597,281.949,782.268,282.079,782.241z"
				/>
			<path fill="#484848" d="M292.482,795.085c0.043-0.015,0.134,0.2,0.157,0.254c-0.155-0.134-0.37-0.187-0.441-0.349
				C292.355,795.126,292.376,795.06,292.482,795.085z"/>
			<path fill="#484848" d="M295.517,798.034c-0.126,0.04-0.86-0.5-1.263-0.85L295.517,798.034z"/>
			<path fill="#484848" d="M298.117,801.038c0.191,0.297,0.085,0.275-0.26-0.029C297.874,800.941,298.009,801.018,298.117,801.038z"
				/>
			<path fill="#484848" d="M298.505,801.023c0.249,0.216,0.326,0.373,0.401,0.529C298.965,801.469,298.293,801.1,298.505,801.023z"
				/>
			<path fill="#484848" d="M304.789,806.856c0.164,0.126,0.568,0.339,0.632,0.563C305.314,807.211,304.557,806.887,304.789,806.856z
				"/>
			<path fill="#484848" d="M307.986,809.24l0.259,0.203c0.151,0.191-0.097,0.102-0.259-0.016V809.24z"/>
			<polygon fill="#484848" points="369.047,847.916 368.638,847.77 368.747,847.696 			"/>
			<path fill="#484848" d="M397.726,861.415c0.422,0.101,0.23,0.218,0.289,0.262C397.653,861.534,398.204,861.603,397.726,861.415z"
				/>
			<polygon fill="#484848" points="413.754,867.354 413.632,867.311 413.762,867.103 			"/>
		</g>
		<g>
			<path fill="#484848" d="M268.009,795.928c-0.631-0.639,0.161,0.498-0.455-0.381C267.705,795.576,267.871,795.658,268.009,795.928
				z"/>
			<path fill="#484848" d="M468.715,927.097c-2.941-0.404-6.344-2.255-9.473-2.979c-0.357-0.11,0.208-0.276-0.605-0.504
				c-3.044-0.677-7.493-2.681-10.849-4.395h0.246c-0.634-0.339-1.56-0.387-2.245-0.72c0.02-0.06,0.259,0.012,0.132-0.136
				c-0.25,0.103-1.3-0.447-1.651-0.441c-0.249-0.18-0.164-0.309-0.489-0.534l-0.484,0.031c-1.313,0.005-2.692-1.16-4.316-1.554
				c0.094-0.013,0.259,0.014,0.158-0.081c-2.58-0.698-5.555-2.158-8.31-3.245c0.138-0.021,0.294-0.1,0.172-0.25
				c-0.226,0.146-1.083-0.174-1.827-0.456c-0.228-0.357-1.33-0.361-2.125-0.856l0.095-0.016c-0.73-0.062-0.874-0.539-1.503-0.508
				l-0.318-0.354c-0.411,0.168-0.825-0.58-1.408-0.676l-0.013,0.069c-0.518-0.157-0.699-0.427-1.17-0.59l-0.028-0.056
				c-1.086-0.421-1.62-0.875-1.704-0.632c-0.28-0.363,1.059,0.4,0.609-0.145c-3.572-1.398-7.117-3.137-10.542-4.9
				c-0.343-0.288-0.577-0.443-0.622-0.571c-0.366-0.127-1.314-0.614-1.686-0.653c0.117,0.056-0.162-0.229-0.338-0.331
				c-0.581-0.401-0.812-0.099-1.447-0.543c0.306,0.077,0.438,0.05,0.388-0.08c-0.676-0.118-1.446-0.542-2.167-0.836
				c0.125,0.018,0.306,0.079,0.316-0.008c-0.862-0.182-1.344-0.764-2.069-0.982h0.313c-0.972-0.723-0.456,0.106-1.319-0.476
				c0.242,0.077,0.19-0.017,0.259-0.048c-0.977-0.22-2.315-1.032-3.207-1.404l0.067-0.034c-0.943-0.464-1.871-1.053-2.945-1.495
				c-0.339-0.254,0.295-0.25-0.71-0.724c-0.114,0.288-1.714-0.8-1.305-0.188c-0.802-0.511-2.057-1.343-2.657-1.563
				c0.425,0.111-0.226-0.541,0.475-0.176l-0.432-0.451c0.138-0.062,0.515,0.337,0.424,0.111c-0.35-0.183-1.41-0.645-1.695-0.859
				c-0.726-0.199-1.482-0.233-2.534-0.784c0.543,0.174-0.113-0.439,0.241-0.297l-1.724-0.318c-0.35-0.18,0.043-0.244-0.494-0.455
				c-0.015,0.081-0.255,0.001-0.438-0.026c-0.117-0.097-1.456-0.762-1.456-1.103c-0.095-0.188,0.584,0.274,0.259-0.039
				c-0.626-0.366-0.705-0.296-1.335-0.659l0.007-0.045c-0.392-0.28-1.284-0.615-0.916-0.207c0.285,0.178-0.02-0.215,0.364,0.108
				c-0.378-0.024-1.132-0.414-1.762-0.784c0.239,0.087,0.253,0.007,0.382-0.016c-0.961-0.299-1.893-0.767-2.886-1.239
				c-0.086,0.108,0.482-0.008,0.583,0.132c-1.104-0.879-2.642-1.225-3.487-2.078c0.174,0.08-0.017,0.223-0.007,0.18
				c-0.565-0.369-0.434-0.523-0.847-0.69c0.023-0.124-0.491-0.259-0.896-0.464c-0.243-0.054-0.068-0.114,0.273,0.085
				c-0.589-0.249-2.835-1.421-3.985-2.332c-0.017,0.078-0.914-0.229-1.195-0.413l0.208-0.086c-0.202-0.254-0.964-0.576-0.928-0.74
				c-0.727-0.188,2.448,1.287,1.533,0.928c-0.133-0.263-1.304-0.465-0.994-0.567c-0.577-0.348-1.244-0.516-1.698-1.002
				c0.142,0.128,0.601,0.076,0.133-0.199c-0.824-0.49-0.277-0.074-0.963-0.445l-0.449-0.197c-0.123,0.13-0.706-0.487-0.515-0.125
				c-0.02-0.19-1.219-0.68-0.977-0.873l0.239-0.123c-0.357-0.211-0.704-0.164-1.031-0.252c-0.035-0.05-0.101-0.146-0.064-0.165
				c-0.25,0.262-0.813-0.563-1.379-0.601c-0.661-0.571-1.848-1.203-2.069-1.61c-0.62-0.273-1.206-0.494-1.796-0.977
				c0.144,0.056,0.321,0.165,0.4,0.121c-0.34-0.351-0.488-0.339-0.884-0.534c0.111,0.01-0.676-0.705-1.047-1.107
				c-0.608-0.28-0.527,0.005-0.647,0.065c-0.307-0.628-1.683-0.856-2.134-1.544c0.22,0.088,0.901,0.396,0.492,0.017
				c-0.304-0.629-1.159-0.469-1.875-1.153l0.034,0.375c-0.259-0.395-1.29-0.662-1.04-0.855c-0.33-0.092-0.901-0.72-0.973-0.428
				c-1.188-1.103-3.288-2.113-3.804-3.094c-0.216-0.091-0.66-0.461-0.646-0.273c0.22,0.35,0.502,0.214,0.558,0.383
				c-0.175-0.112-0.256-0.071-0.298-0.055c-0.371-0.337-0.681-0.579-0.159-0.503c-0.807-0.779-1.218-0.263-2.312-1.16
				c0.121-0.062,0.058-0.159-0.291-0.379l-0.761-0.286c-0.723-0.563-0.27-0.516-0.172-0.691c-0.416-0.253-0.894-0.615-1.16-0.626
				l-0.334-0.547c0.245,0.396-0.396-0.142-0.609-0.234l0.214,0.093c-0.022-0.118-0.511-0.409-0.756-0.558
				c-0.018,0.139,0.419,0.519,0.653,0.732c-0.254-0.075-0.557-0.32-0.885-0.432c0.203-0.093-0.562-0.577-0.864-0.822
				c-0.335-0.297-0.51-0.153-0.611-0.234c0.051-0.088-0.58-0.442-0.213-0.353c0.141,0.062,0.222,0.282,0.478,0.357
				c-0.193-0.231-0.06-0.354-0.63-0.608c-0.428-0.19-0.134,0.379-0.765-0.229c0.214,0.095,0.293,0.056,0.48,0.104l-0.6-0.56
				l-0.136,0.123c-0.061-0.103,0.01-0.07-0.017-0.117c-0.309,0.006-1.041-0.686-1.317-0.625c-0.343-0.228-0.63-0.603-0.932-0.858
				l0.071,0.033c-0.321-0.37-0.872-0.7-1.268-0.847l0.04-0.016c-0.199-0.17-0.71-0.522-1.039-0.635
				c-0.447-0.504,0.229-0.671-0.493-0.932c-0.54-0.396-1.039-0.372-0.892-0.12c-0.892-0.817-2.166-1.413-2.893-2.305
				c-0.182-0.048-0.122,0.056-0.434-0.127c-1.36-1.14-3.088-2.133-3.986-3.273c0.45,0.257,0.136-0.118,0.19-0.206
				c-0.433-0.133-0.3-0.442-0.589-0.318c-0.067,0.151-0.149,0.186,0.206,0.542c-0.89-0.579-2.16-1.567-2.53-2.045
				c0.186,0.238-0.024,0.138-0.238,0.032c0.22-0.153-0.364-0.671-0.881-0.969l-0.163,0.069l-0.2-0.368
				c-0.208-0.103-0.399,0.1-0.763-0.384l-0.028-0.239c-0.557-0.28-1.366-0.652-1.798-1.17l-0.278-0.516
				c-0.236-0.156-0.696-0.35-0.35,0.014c-0.794-0.816-1.351-1.285-1.506-1.66c-1.81-0.865-3.999-2.661-5.723-4.13l0.128-0.046
				c-0.399-0.474-0.376-0.046-0.65-0.379c0.222,0.041-0.201-0.481,0.255-0.28c-0.589-0.649-0.986-0.572-1.452-0.897
				c-0.166,0.063,0.41,0.224,0.2,0.3c-0.109-0.022-0.839-0.874-1.093-0.786c-0.107-0.209,0.135-0.229,0.285-0.226l-0.478-0.259
				c-0.318-0.629,1.444,0.59,1.142-0.104l-0.396-0.292c-0.198-0.487,1.163,0.631,0.283-0.229c-0.479-0.258-1.046-0.296-0.752,0.09
				c-0.886-0.675-0.753,0.086-1.649-0.706c-0.159-0.313,0.749,0.597,0.699,0.306c-0.305-0.51-0.926-0.656-1.264-1.031
				c0.365,0.427-0.146,0.299-0.449,0.101c-0.388-0.478,0.446,0.089-0.194-0.489c-0.194,0.012-0.865-0.432-0.405,0.087
				c-0.438,0.026-0.628-0.644-1.135-0.775c-0.068-0.349,0.993,0.211,0.351-0.493c-0.022,0.256-1.062-0.561-0.886,0
				c-0.24-0.289-0.162-0.438,0.125-0.353c-0.315-0.445-1.215-0.564-1.075-0.988l-0.275,0.038c-0.081-0.161-0.225-0.354-0.352-0.621
				c-0.349-0.311-1.321-0.776-1.077-0.988c-0.135-0.072-0.926-0.786-0.763-0.353c0.409,0.538,0.679,0.386,0.759,0.849
				c-0.191-0.49-0.739-0.606-1.081-0.799l0.034-0.134c-0.203-0.113-0.58-0.479-0.776-0.477c0.178,0.066,0.165-0.059,0.051-0.2
				l-0.302-0.022c-0.751-0.551,0.058-0.393-0.647-0.954l0.605,0.353c-0.132-0.078-0.242-0.415-0.604-0.661
				c-0.239,0.013-0.61-0.045-0.806-0.043c-0.427-0.287-0.038-0.297-0.53-0.501l0.626,0.288c0.112,0.023-0.137-0.504-0.644-0.955
				c-0.362-0.249-1.028-0.518-0.584,0.01c-0.255-0.226-0.539-0.624-0.252-0.534c-0.614-0.471-0.05,0.203-0.615-0.165
				c-0.125-0.265-0.647-0.951-0.91-1.42l0.707,0.258l-0.34-0.31c0.598,0.229-0.106-0.331,0.309-0.285
				c-0.208-0.24-0.542-0.439-0.81-0.6c0.413,0.913-1.117-0.313-1.161,0.127c-0.995-0.789,0.006-1.165-1.339-1.659
				c0.095,0.216-0.545-0.012,0.11,0.457c-0.549-0.563-0.634-0.105-1.215-0.844c0.603,0.362-0.296-0.762,0.576-0.238
				c-0.128,0.039,0.346,0.439,0.479,0.517c-0.144-0.315,0.293-0.211-0.296-0.759c-0.384-0.309-0.882-0.762-0.936-0.56
				c-0.125,0.159,0.564,0.492,0.192,0.429c-0.766-0.613-0.67-0.951-1.211-0.969c0.468,0.404,0.436,0.663,0.333,0.754l-0.58-0.434
				l0.194-0.002c-0.769-0.863-0.415-0.058-1.2-0.852l-0.197-0.556c0.352,0.02,1.107,1.194,1.22,0.787
				c-0.515-0.512-0.82-0.539-1.249-1.078l0.421,0.296c-0.18-0.189-0.026-0.723-0.976-1.227c-0.465-0.285-0.193-0.002-0.3,0.09
				c-0.874-0.773-1.229-0.907-1.781-1.417c0.3-0.088-0.932-0.949-0.142-0.568c0.156,0.384,1.385,1.543,1.865,1.638
				c-0.082-0.525,0.633,0.662,1.039,0.598c-0.671-0.647-0.417-0.845-0.381-1.097c-0.178-0.192-0.421-0.299-0.555-0.384
				c-0.214,0.065,0.033,0.297-0.095,0.455c-0.721-0.752-1.51-1.379-2.057-1.642c-0.182-0.312,0.033-0.374,0.342-0.103
				c-0.927-0.822-1.857-1.764-2.657-2.627c0.314,0.761-0.984-0.874-0.804-0.319c0.396,0.497,0.621,1.037,0.272,0.894
				c-0.266-0.291,0.108-0.089,0.038-0.255c-0.478-0.229-0.354-0.748-0.898-0.902c0.875,0.729,0.43-0.119,0.756-0.149
				c-0.677-0.475,0.151-0.101-0.42-0.668c-0.674-0.479-1.459-1.107-2.138-1.707c-0.625-0.977-2.01-2.058-2.728-2.775
				c-0.278-0.469,0.178-0.407-0.187-0.855c-0.47-0.483,0.127,0.573-0.472-0.237l0.107,0.029c-0.257-0.175-1.129-1.453-1.628-1.39
				l0.437,0.013l-0.41-0.321c0.066-0.072-0.017-0.292,0.24-0.116c-0.271-0.591-0.911-0.922-1.375-1.402l0.16,0.437
				c-0.89-0.736-1.282-1.424-2.078-2.2l0.154-0.097l-0.526-0.414c0.237,0.004-0.09-0.516-0.428-0.68l1.478,0.974
				c0.245,0.422-0.51-0.237-0.438,0.102c0.06,0.286,0.79,1.012,1.03,1.018c-0.253-0.302-0.293-0.29-0.547-0.471
				c0.095-0.262,0.489,0.184,0.813,0.287c-0.149-0.144-0.29-0.408-0.378-0.388c0.361,0.217,0.655,0.5,1.119,0.986
				c-0.382-0.268,0.056,0.282-0.113,0.207c0.197-0.109,0.686,0.313,1.209,0.965c0.225,0.599,1.197,1.014,1.812,1.756
				c-0.43-0.13-0.904-0.366-1.374-0.729c0.338,0.515,0.47,0.482,0.81,0.996c0.322,0.101,0.649,0.078,1.267,0.577l-0.088,0.143
				c0.561,0.452,0.735,0.287,1.337,0.969c1.029,1.173,2.16,2.315,2.993,3.165l-0.083,0.145c0.717,0.22,1.648,1.472,2.398,1.984
				c0.978,1.171,2.469,2.188,2.829,2.931c2.029,1.756,3.791,3.297,5.79,5.22l-0.504-0.146c0.483,0.213,0.145,0.32,0.527,0.626
				c-0.283-0.52,0.662,0.28,1.014,0.407c0.781,0.971,2.074,1.913,3.002,2.516l-0.078,0.152c1.027,0.515,1.827,1.597,2.817,2.556
				c0.072,0.157,0.155,0.438,0.472,0.699c0.729,0.307,1.011,0.578,1.945,1.18c0.602,0.528,1.536,1.435,2.079,2.049
				c2.493,1.726,4.703,3.872,7.222,5.742l0.048,0.29c2.596,1.634,5.225,4.304,7.371,5.774l-0.401,0.096
				c0.569,0.585,1.497,1.094,1.481,0.784c0.572,0.59,1.684,1.153,1.919,1.683c0.611,0.567,0.89,0.521,1.456,0.921
				c1.218,1.145,1.73,1.493,3.008,2.408l-0.295-0.252c-0.18-0.053-0.279,0.049,0.016,0.307c0.521,0.287,1.65,1.39,1.429,0.726
				c1.188,1.203,3.191,2.266,4.31,3.487c-0.045-0.166,0.297,0.065,0.478,0.111c1.179,0.879,2.284,1.984,3.333,2.543
				c0.154,0.182-0.408-0.079,0.065,0.29c0.31,0.179,0.089-0.108,0.475,0.109c2.015,1.283,3.756,3.035,5.542,4.266
				c3.226,2.12,6.457,4.511,9.509,6.589l-0.079,0.041c1.187,0.457,2.195,1.924,3.277,2.096c0.2,0.225,0.906,0.65,0.642,0.654
				c0.936,0.376,2.176,1.701,3.508,2.276l-0.32-0.168c1.098,0.948,2.282,1.46,3.455,2.437c-0.146-0.059-0.393-0.191-0.474-0.153
				c0.402,0.457,1.346,0.486,1.406,0.976c0.286,0.18,0.306-0.026,0.127-0.131c2.718,1.916,5.813,3.668,8.791,5.429
				c1.987,1.491-0.21,0.612,1.604,1.403c0.097,0.148,0.174-0.061,0.156,0.021c0.699,0.308,0.78,0.975,1.33,1.086
				c-0.061-0.312,0.366,0.071,0.454-0.038c1.211,0.924,1.36,1.259,2.472,1.739l-0.141,0.057c1.367,0.454,2.669,1.442,3.896,1.699
				c6.679,3.896,13.223,7.378,19.877,10.904c6.517,3.608,13.093,6.761,19.805,10.245c1.461,1.047,1.585,1.099,3.401,1.819
				c-0.095,0.012-0.21-0.031-0.112,0.067c0.201-0.192,1.248,0.566,1.523,0.425c2.494,1.267,4.878,2.25,7.509,3.414
				c-0.428-0.16-0.725-0.057-0.223,0.146l0.584,0.079l0.054,0.105c0.354,0.116,0.775,0.161,0.46-0.071
				c6.668,2.783,13.04,5.966,19.647,8.523c1.529,0.709,3.798,1.477,5.522,2.087c4.912,2.306,9.471,4.097,14.725,5.75
				C471.81,927.316,470.913,927.715,468.715,927.097z"/>
			<path fill="#484848" d="M268.745,796.716c0.031,0.231,0.399,0.747-0.068,0.489C268.726,797.077,268.613,796.745,268.745,796.716z
				"/>
			<path fill="#484848" d="M279.407,809.811c0.044-0.013,0.132,0.21,0.156,0.262c-0.154-0.141-0.371-0.2-0.441-0.366
				C279.28,809.849,279.3,809.782,279.407,809.811z"/>
			<path fill="#484848" d="M282.429,812.892c-0.128,0.041-0.855-0.538-1.255-0.909L282.429,812.892z"/>
			<path fill="#484848" d="M284.989,816.032c0.183,0.308,0.077,0.281-0.26-0.044C284.747,815.921,284.88,816.006,284.989,816.032z"
				/>
			<path fill="#484848" d="M285.38,816.036c0.243,0.228,0.317,0.394,0.388,0.553C285.829,816.51,285.164,816.1,285.38,816.036z"/>
			<path fill="#484848" d="M291.522,822.257c0.161,0.134,0.56,0.371,0.615,0.599C292.038,822.644,291.286,822.269,291.522,822.257z"
				/>
			<path fill="#484848" d="M294.647,824.855l0.251,0.226c0.143,0.199-0.104,0.092-0.261-0.035L294.647,824.855z"/>
			<polygon fill="#484848" points="353.091,869.948 352.693,869.751 352.812,869.692 			"/>
			<path fill="#484848" d="M380.452,887.238c0.413,0.157,0.205,0.247,0.259,0.301C380.363,887.347,380.911,887.489,380.452,887.238z
				"/>
			<polygon fill="#484848" points="395.905,895.362 395.786,895.304 395.941,895.111 			"/>
		</g>
	</g>
	<g>
		<g>
			<g>
				<path fill="#7E9689" d="M675.056,1072.263c-0.006,16.871,61.31,30.601,136.951,30.656
					c75.644,0.062,136.969-13.569,136.976-30.442c0.008-16.874-61.307-30.603-136.948-30.656
					C736.393,1041.762,675.06,1055.39,675.056,1072.263z"/>
				<path fill="#321908" d="M714.908,950.353l15.869,104.441c0,0-22.97-16.997-33.987,2.548
					c-15.529,27.543,48.173,12.894,48.173,12.894l-8.99-101.048c0,0,71.748,12.731,160.578,1.701l14.111,91.554
					c0,0-26.049-23.37-35.018,0c-11.994,31.261,47.831,10.651,47.831,10.651l-2.977-116.559
					C920.499,956.535,843.313,937.06,714.908,950.353z"/>
				<g>
					<g>
						<path fill="#FDDCBE" d="M703.201,796.464c0,0-28.819-250.267,170.315-170.378c0,0,63.064,44.578,65.948,172.43
							C747.17,839.455,703.201,796.464,703.201,796.464z"/>
						<path fill="#321908" d="M684.99,528.213c0,0-62.445,167.383,169.466,129.51l24.529,46.893c0,0,20.786-21.63,27.457,0.993
							c6.673,22.623-21.804,15.376-21.804,15.376s26.121,62.843,54.826,77.53c0,0,60.701-250.548-41.906-208.745
							c0,0-6.109-47.124-70.489-48.327C760.345,540.197,701.749,610.348,684.99,528.213z"/>
						<path fill="#321908" d="M741.967,706.623c-0.226,6.234-3.354,11.183-6.988,11.053c-3.629-0.132-6.389-5.294-6.163-11.525
							c0.231-6.236,3.36-11.188,6.99-11.056C739.438,695.227,742.193,700.389,741.967,706.623z"/>
						<path fill="#321908" d="M839.815,708.383c-0.226,6.235-3.35,11.181-6.986,11.052c-3.63-0.132-6.392-5.292-6.162-11.529
							c0.228-6.236,3.358-11.185,6.986-11.052C837.287,696.984,840.047,702.146,839.815,708.383z"/>
						<path fill="#321908" d="M817.008,747.608c-0.536,9.944-7.93,34.07-35.765,34.051c-28.563-0.014-28.548-35.899-28.548-35.899
							S784.852,737.367,817.008,747.608z"/>
					</g>
				</g>
				<path fill="#F5F5F5" d="M703.201,796.464l11.707,153.889c0,0,80.656,20.095,205.591,6.183l18.966-158.02
					C939.465,798.516,782.555,822.369,703.201,796.464z"/>
			</g>
			<polygon fill="#321908" points="762.413,829.644 757.556,838.815 764.493,849.516 749.33,920.833 768.301,944.772 
				789.545,923.736 778.023,850.552 786.002,839.16 781.726,831.718 			"/>
		</g>
		<g>
			<path fill="#F5F5F5" d="M706.359,827.595l-2.578-23.517c-7.234,7.809-14.896,15.532-22.793,23.107l11.96,15.592
				C697.415,837.779,701.892,832.713,706.359,827.595z"/>
			<path fill="#FDDCBE" d="M680.988,827.186c-61.283,58.793-144.29,108.437-148.381,115.233c-3.299,4.845,1.735,11.502,7.375,3.377
				c0.208-0.33,0.415-0.648,0.615-0.937c-0.2,0.288-0.407,0.606-0.615,0.937c-1.511,2.409-3.031,5.723-1.36,7.105
				c4.197,3.864,7.713,0.108,9.496-2.025c-1.368,1.827-2.494,4.748,0.898,7.091c3.088,2.129,5.814-1.414,7.016-2.722
				c-2.063,2.239-1.216,5.158,1.567,7.084c7.11,4.918,73.888-50.757,135.351-119.552L680.988,827.186z"/>
		</g>
		<g>
			<path fill="#F5F5F5" d="M938.307,806.828l-4.887,22.539c5.645,3.077,9.998,7.842,13.303,13.822l16.501-12.978
				C957.182,820.236,949.066,812.103,938.307,806.828z"/>
			<path fill="#FDDCBE" d="M946.723,843.189c23.353,42.259-5.956,145.346-5.956,145.346c-0.469,1.205-2.907,8.896,0.709,10.021
				c1.737,0.543,3.146-0.471,4.188-1.81c0.002,1.638,0.447,3.255,2.064,3.759c1.572,0.491,2.873-0.295,3.881-1.442
				c0.089,1.469,0.588,2.834,2.051,3.288c1.732,0.546,3.141-0.469,4.185-1.808c0.003,1.641,0.452,3.257,2.067,3.758
				c3.378,1.053,5.508-3.752,6.142-5.438c0,0,30.819-113.109-2.83-168.652L946.723,843.189z"/>
		</g>
	</g>
	<g>
		<path fill="#D5E5DC" d="M926.819,503.186c0-5.101-4.135-9.236-9.232-9.236c-0.8,0-1.576,0.113-2.317,0.305
			c-1.959-3.085-5.674-5.174-9.941-5.174c-6.306,0-11.418,4.548-11.418,10.16c0,0.725,0.088,1.431,0.251,2.111
			c-0.083-0.001-0.165-0.014-0.251-0.014c-5.564,0-10.075,4.962-10.075,11.083c0,6.121,4.511,11.083,10.075,11.083
			c1.03,0,2.023-0.171,2.958-0.488c2.637,3.556,6.794,5.861,11.483,5.861c7.976,0,14.441-6.635,14.441-14.818
			c0-1.047-0.109-2.066-0.311-3.052C925.085,509.373,926.819,506.485,926.819,503.186z"/>
		<path fill="#D5E5DC" d="M938.411,451.557c-0.56-4.973-3.002-9.253-6.491-12.162c0.942-1.623,1.479-3.485,1.479-5.464
			c0-6.33-5.471-11.461-12.215-11.461c-2.598,0-5.003,0.768-6.985,2.064c-3.288-2.149-7.313-3.435-11.677-3.435
			c-9.79,0-17.925,6.366-19.669,14.772c-6.298,2.725-10.73,9.197-10.73,16.754c0,10.015,7.781,18.133,17.381,18.133
			c1.114,0,2.201-0.119,3.259-0.33c1.785,4.393,5.724,7.452,10.306,7.452c4.816,0,8.918-3.375,10.562-8.13
			c2.869,1.465,6.141,2.148,9.536,1.767C932.704,470.446,939.528,461.51,938.411,451.557z"/>
		<g>
			<path fill="#D5E5DC" d="M898.236,181.387c0.272-2.146,0.396-4.337,0.35-6.563c-0.51-24.992-21.438-44.798-46.741-44.246
				c-5.075,0.111-9.939,1.046-14.473,2.651c-16.216-19.343-38.773-32.608-64.758-35.702c-18.896-2.253-37.214,1.15-53.516,8.951
				c-3.836-1.675-7.954-2.832-12.293-3.349c-12.138-1.447-23.713,2.294-32.736,9.534c-6.851-2.77-14.148-4.693-21.798-5.604
				c-21.39-2.548-41.845,3.167-58.422,14.671c68.452,31.523,114.353,89.486,114.353,155.786c0,56.824-33.721,107.522-86.454,140.704
				c7.09,11.632,18.892,19.935,32.977,21.615c12.409,1.478,24.23-2.456,33.339-10.013c12.813,15.897,31.319,26.942,52.784,29.5
				c27.293,3.25,52.96-7.973,69.844-27.766c4.737,1.987,9.855,3.363,15.25,4.007c27.1,3.229,51.497-13.201,56.779-37.303
				c43.662-9.04,74.343-48.416,79.938-98.627C968.621,246.105,942.959,197.743,898.236,181.387z"/>
			<path fill="#D5E5DC" d="M584.781,414.753c-48.585-5.787-83.422-51.297-77.811-101.652c2.292-20.575,10.989-38.767,23.782-52.705
				c-9.179-10.003-14.142-23.256-12.596-37.129c2.278-20.428,17.989-36.236,38.194-40.94c3.921-25.579,18.031-47.085,37.499-60.597
				c-34.747-16.002-75.3-25.2-118.623-25.2c-128.668,0-232.975,81.03-232.975,180.986c0,48.212,24.271,92.017,63.834,124.454
				c-6.768,16.272-16.647,51.848,8.815,82.522c0,0,0.006-43.553,27.947-58.042c37.595,20.206,83.202,32.052,132.378,32.052
				c55.521,0,106.495-15.097,146.521-40.283c-1.205-1.979-2.292-4.041-3.214-6.196C607.863,415.094,596.461,416.147,584.781,414.753
				z"/>
			<path fill="#E6EFEA" d="M708.202,277.517c0-66.3-45.9-124.263-114.353-155.786c-19.468,13.512-33.578,35.018-37.499,60.597
				c-20.205,4.704-35.916,20.512-38.194,40.94c-1.545,13.873,3.417,27.125,12.596,37.129
				c-12.793,13.938-21.491,32.129-23.782,52.705c-5.611,50.355,29.226,95.866,77.811,101.652c11.68,1.394,23.082,0.34,33.753-2.729
				c0.922,2.155,2.009,4.217,3.214,6.196C674.481,385.039,708.202,334.341,708.202,277.517z"/>
		</g>
	</g>
</g>
</svg>
