<?xml version="1.0" encoding="utf-8"?>
<!-- Generator: Adobe Illustrator 16.0.0, SVG Export Plug-In . SVG Version: 6.00 Build 0)  -->
<svg version="1.2" baseProfile="tiny" xmlns="http://www.w3.org/2000/svg" xmlns:xlink="http://www.w3.org/1999/xlink" x="0px"
	 y="0px" width="1200px" height="1200px" viewBox="0 0 1200 1200" xml:space="preserve">
<g id="Layer_2">
</g>
<g id="Layer_1">
	<g>
		<polygon fill="#FDDCBE" points="773.71,533.575 691.29,568.631 699.947,595.873 789.995,557.054 		"/>
		<g>
			<g>
				<g>
					<path fill="#E0B062" d="M384.589,291.168l538.182,406.219c0,0,2.762-21.136,10.491-31.376L403.485,266.133L384.589,291.168z"/>
					<path fill="#F8C36C" d="M422.382,241.099l-18.896,25.035l529.776,399.878c7.731-10.242,27.302-18.692,27.302-18.692
						L422.382,241.099z"/>
					<path fill="#EFA734" d="M960.563,647.319c0,0-0.562-10.181,4.525-16.922c4.451-5.894,12.62-8.357,14.595-8.88
						c-0.89-0.941-1.786-1.788-2.629-2.423c0,0-487.399-367.892-535.114-403.909l-19.559,25.913L960.563,647.319z"/>
					<path fill="#F1F2F2" d="M641.995,366.189c-42.328-31.949-82.355-62.162-115.546-87.215c-26.107-5.89-55.176-9.701-84.56,2.088
						c-34.141,13.697-52.559,31.392-62.493,46.858c49.277,37.195,190.374,143.696,313.29,236.474
						c-1.576-10.078-19.253-115.696-76.081-170.845C627.745,384.955,636.005,375.723,641.995,366.189z"/>
					<path fill="#2A180C" d="M1033.634,737.758l-15.994-35.715l-13.3,17.618l29.256,22.082
						C1034.295,740.815,1034.364,739.413,1033.634,737.758z"/>
					<path fill="#140B06" d="M991.043,737.28l38.729,5.592c1.793,0.249,3.124-0.202,3.823-1.129l-29.256-22.082L991.043,737.28z"/>
					<path fill="#E15E18" d="M420.932,199.33c-4.368-3.298-6.929-5.23-7.093-5.354c-28.135-21.236-59.756-9.302-80.995,18.836
						l49.633,37.463L420.932,199.33z"/>
					<path fill="#C95515" d="M332.845,212.813c-21.239,28.136-24.049,61.819,4.088,83.058c0.161,0.121,2.722,2.054,7.092,5.351
						l38.453-50.946L332.845,212.813z"/>
					<path fill="#D1CEC0" d="M403.485,266.133l-21.007-15.857l-38.453,50.946c4.953,3.739,12.233,9.235,21.009,15.857l19.555-25.91
						L403.485,266.133z"/>
					<path fill="#EFEBDA" d="M403.485,266.133l18.896-25.035l19.559-25.913c-8.775-6.621-16.056-12.117-21.008-15.856
						l-38.454,50.946L403.485,266.133z"/>
					<path fill="#F9D2A7" d="M960.563,647.319c0,0-19.57,8.45-27.302,18.692l71.078,53.649l13.3-17.618l-32.676-72.964
						c-1.036-2.346-3.126-5.271-5.28-7.562c-1.975,0.522-10.144,2.986-14.595,8.88C960.002,637.139,960.563,647.319,960.563,647.319
						z"/>
					<path fill="#E3BE97" d="M933.262,666.012c-7.729,10.24-10.491,31.376-10.491,31.376s-9.945,2.252-15.033,8.993
						c-4.451,5.896-4.578,14.428-4.541,16.468c2.794,1.446,6.18,2.653,8.719,3.007l79.128,11.425l13.297-17.619L933.262,666.012z"/>
					<path fill="#C98214" d="M922.771,697.388L384.589,291.168l-19.555,25.91c47.713,36.017,535.114,403.908,535.114,403.908
						c0.841,0.636,1.899,1.267,3.049,1.862c-0.037-2.04,0.09-10.572,4.541-16.468C912.825,699.64,922.771,697.388,922.771,697.388z"
						/>
				</g>
			</g>
		</g>
		<g>
			<g>
				<g>
					<g>
						<g>
							<path fill="#3B2918" d="M829.443,745.304c-13.26-28.587-37.994,23.631-37.994,23.631s3.195-41.253-9.051-53.243
								c-11.729-11.484-33.798,9.48-39.668,14.807l-258.456,95.89l16.382,41.31l-31.198,0.686c0,0-15.78,50.448,8.456,50.19
								c24.236-0.257,3.541-32.835,3.541-32.835s24.47,9.414,40.204,2.328c12.269-5.526-3.063-41.054-6.413-52.229
								c173.71-35.187,248.761-94.061,250.93-96.229c0,0,10.398,42.482,18.042,63.329
								C784.218,802.938,842.703,773.891,829.443,745.304z"/>
						</g>
						<g>
							<g>
								<g>
									<g>
										<g>
											<path fill="#FDDCBE" d="M686.742,554.32c0,0-71.033-318.745-279.867-136.833c0,0-57.956,81.231-7.245,239.069
												C651.388,625.539,686.742,554.32,686.742,554.32z"/>
										</g>
										<g>
											<path fill="#3B2918" d="M595.323,228.433c0,0,149.536,172.748-161.132,222.381l1.066,70.193
												c0,0-34.515-17.724-33.052,12.807c1.468,30.529,33.102,9.632,33.102,9.632s-6.918,82.998-35.676,113.11
												c0,0-180.788-254.288-52.12-279.102c0,0-6.878-50.941,67.663-87.577C499.884,248.244,592.23,345.073,595.323,228.433z"/>
										</g>
									</g>
								</g>
								<g>
									<path fill="#F5F5F5" d="M686.742,554.32l55.988,176.178c0,0-100.268,60.202-258.456,95.89L399.63,656.556
										C399.63,656.556,601.009,619.552,686.742,554.32z"/>
								</g>
								<g>
									<path fill="#E6E6E6" d="M632.153,599.342l9.809,9.177l-3.916,16.034c0,0,16.025,89.101-89.227,119.414l-33.442-21.873
										l23.077-29.84c89.953-4.538,83.536-60.719,83.536-60.719l-14.562-10.586l2.053-10.925L632.153,599.342z"/>
								</g>
							</g>
							<g>
								<path fill="#3B2918" d="M632.153,599.342l9.809,9.177l-3.916,16.034c0,0,14.894,80.998-90.359,111.313l-33.441-21.873
									l23.076-29.841c89.954-4.537,84.668-52.616,84.668-52.616l-14.562-10.586l2.053-10.925L632.153,599.342z"/>
							</g>
							<polygon fill="#E6E6E6" points="727.244,681.769 722.569,667.058 446.56,690.787 							"/>
						</g>
					</g>
				</g>
			</g>
		</g>
		<g>
			<polygon fill="#F5F5F5" points="444.876,662.209 446.56,690.787 501.701,686.045 498.047,657.905 			"/>
			<path fill="#FDDCBE" d="M811.539,632.529l-313.492,25.376l3.654,28.14l313.324-25.303c0,0,8.594,0.146,8.541-3.869
				c-0.052-4.016-7.254-2.36-7.254-2.36s8.693-0.646,8.081-5.023c-0.661-4.73-8.9-2.905-8.9-2.905s8.042,0.029,7.596-4.74
				c-0.482-5.148-8.244-3.333-8.244-3.333s7.136,0.099,7.067-3.979C821.861,631.467,811.539,632.529,811.539,632.529z"/>
		</g>
		<g>
			<path fill="#3B2918" d="M509.967,506.507c3.971,11.912,2.06,19.796-2.978,21.475c-5.038,1.68-11.297-3.482-15.268-15.394
				c-3.971-11.912-2.061-19.796,2.978-21.475C499.737,489.434,505.996,494.595,509.967,506.507z"/>
		</g>
		<g>
			<path fill="#3B2918" d="M627.395,467.366c3.971,11.912,2.061,19.796-2.978,21.475c-5.039,1.68-11.298-3.481-15.268-15.393
				c-3.972-11.912-2.061-19.796,2.978-21.476C617.166,450.293,623.424,455.454,627.395,467.366z"/>
		</g>
		<g>
			<path fill="#EB7D86" d="M530.15,551.095c8.734,23.166,34.594,34.866,57.76,26.131c23.166-8.734,34.866-34.594,26.131-57.759
				L530.15,551.095z"/>
		</g>
	</g>
	<g>
		<path fill="#3B2918" d="M120.569,1075.451c-1.397,0.388-0.623,1.065-0.779,1.287
			C122.026,1075.779,120.437,1075.252,120.569,1075.451z"/>
		<polygon fill="#3B2918" points="142.49,1065.882 142.208,1066.361 145.244,1064.387 		"/>
		<path fill="#3B2918" d="M163.563,1058.677c-2.484-0.75-7.553,2.852-11.481,3.629l-0.73-0.114l-1.298,1.735
			C154.553,1062.179,160.214,1059.379,163.563,1058.677z"/>
		<path fill="#3B2918" d="M175.859,1057.909c-0.885-0.318,2.262-1.319-2.677,0.73c0.274-0.027,0.359-0.017,0.522-0.022
			C174.155,1058.451,174.781,1058.236,175.859,1057.909z"/>
		<path fill="#3B2918" d="M173.704,1058.617C171.501,1059.424,175.316,1058.584,173.704,1058.617L173.704,1058.617z"/>
		<path fill="#3B2918" d="M183.832,1054.759l-2.748,1.507c0.723,0.119,3.349-0.705,2.466-0.133
			C186.451,1054.825,185.722,1054.711,183.832,1054.759z"/>
		<path fill="#3B2918" d="M186.239,1052.756l-1.44,0.734C185.112,1053.536,185.528,1053.445,186.239,1052.756z"/>
		<path fill="#3B2918" d="M181.744,1055.044l3.055-1.554c-0.503-0.086-0.708-0.534-1.418,0.669
			C183.497,1053.645,183.003,1054.271,181.744,1055.044z"/>
		<path fill="#3B2918" d="M179.851,1055.453c-1.746,0.255-3.929,0.79-1.169-0.719
			C173.164,1056.862,174.334,1057.585,179.851,1055.453z"/>
		<path fill="#3B2918" d="M164.129,1056.825l-2.335,0.332l-1.73,1.132C160.929,1057.726,164.419,1057.228,164.129,1056.825z"/>
		<path fill="#3B2918" d="M202.278,1049.207c0.076-0.368-1.263-0.471-1.616-0.785l-2.035,1.099
			C199.809,1049.347,201.975,1048.806,202.278,1049.207z"/>
		<path fill="#3B2918" d="M200.663,1048.422l3.043-1.645C200.804,1047.718,200.364,1048.149,200.663,1048.422z"/>
		<polygon fill="#3B2918" points="186.21,1050.986 181.289,1053.917 187.227,1050.618 		"/>
		<polygon fill="#3B2918" points="214.607,1044.959 213.024,1046.301 215.911,1044.102 		"/>
		<path fill="#3B2918" d="M222.734,1041.993c-1.149,1.054,2.199,0.343,0.894,1.199c2.183-0.877,3.903-2.037,5.452-3.082
			C227.355,1040.993,225.4,1041.602,222.734,1041.993z"/>
		<path fill="#3B2918" d="M231.716,1038.457c-0.857,0.455-1.708,1.032-2.636,1.653
			C229.996,1039.641,230.875,1039.117,231.716,1038.457z"/>
		<path fill="#3B2918" d="M209.25,1045.017c0.313,0.098,0.961,0.412,2.84-0.014l-1.566-0.415
			C210.136,1044.719,209.696,1044.866,209.25,1045.017z"/>
		<path fill="#3B2918" d="M210.47,1044.575l0.054,0.013c1.385-0.455,2.345-0.771,2.757-0.906
			C212.926,1043.795,212.08,1044.063,210.47,1044.575z"/>
		<path fill="#3B2918" d="M208.929,1045.124c0.118-0.039,0.205-0.068,0.321-0.107
			C209.099,1044.975,209.016,1044.973,208.929,1045.124z"/>
		<path fill="#3B2918" d="M194.937,1048.838c1.73-1.135,5.504-3.015,1.426-2.424C195.207,1047.472,197.54,1047.131,194.937,1048.838
			z"/>
		<path fill="#3B2918" d="M206.982,1044.601l-3.493,0.996c0.146,0.202,0.878,0.317,0.023,0.882L206.982,1044.601z"/>
		<polygon fill="#3B2918" points="208.564,1043.745 206.982,1044.601 208.277,1044.231 		"/>
		<path fill="#3B2918" d="M225.569,1039.697c1.349-0.888,2.957-1.482,4.765-2.178c-2.018,0.513-4.076,1.127-5.999,1.798
			C224.157,1039.682,223.48,1040.458,225.569,1039.697z"/>
		<path fill="#3B2918" d="M218.206,1041.992c0.097-0.051,0.22-0.115,0.312-0.163C218.29,1041.827,218.12,1041.86,218.206,1041.992z"
			/>
		<path fill="#3B2918" d="M248.322,1031.236c-0.116-0.019-0.224-0.036-0.343-0.055c-0.005,0.058-0.01,0.11-0.016,0.171
			L248.322,1031.236z"/>
		<path fill="#3B2918" d="M223.95,1039.272c-1.53,0.347-2.337,0.862-3.084,1.419c1.071-0.47,2.219-0.932,3.468-1.374
			C224.415,1039.153,224.409,1039.065,223.95,1039.272z"/>
		<path fill="#3B2918" d="M236.596,1036.308c-0.829,0.09-1.751,0.24-2.714,0.419
			C234.727,1036.737,236.403,1036.627,236.596,1036.308z"/>
		<path fill="#3B2918" d="M219.096,1041.894c-0.069,0.038-0.133,0.073-0.207,0.114
			C219.436,1042.024,219.345,1041.955,219.096,1041.894z"/>
		<path fill="#3B2918" d="M219.096,1041.894c0.715-0.387,1.237-0.806,1.77-1.202c-0.873,0.379-1.672,0.761-2.349,1.138
			C218.721,1041.826,218.936,1041.854,219.096,1041.894z"/>
		<path fill="#3B2918" d="M251.846,1023.83c0.019,0.885-3.593,2.974-7.229,3.291c-3.078,1.746-0.017,3.605,3.362,4.061
			c-0.019-0.382-0.131-0.702,3.087-2.355c-1.336-0.019-7.859,1.614-5.257-0.104c4.336-1.978,3.769-1.005,6.093-1.348
			c-2.197-0.341,5.195-3.436,3.71-4.548l-3.748,1.888C251.712,1024.515,253.009,1023.654,251.846,1023.83z"/>
		<path fill="#3B2918" d="M241.507,1033.357l-1.357,0.585c1.635-0.416,2.881-0.497,5.189-0.608c2.18-1.198,2.558-1.661,2.625-1.981
			l-6.891,2.29L241.507,1033.357z"/>
		<path fill="#3B2918" d="M233.901,1036.132c0.787-1.24,4-2.78,1.627-2.997c-4.064,1.485-2.611,1.719-4.922,2.944
			c6.52-2.51-1.727,1.14,3.209-0.028c-1.245,0.598-2.395,1.049-3.482,1.469c1.224-0.31,2.414-0.578,3.548-0.793
			c-0.066-0.001-0.114-0.001-0.17-0.002l-0.03,0.014l0.001-0.016c-0.322-0.009-0.438-0.042-0.096-0.091
			c0.018-0.018,0.097-0.05,0.132-0.065c0.002-0.136,0.088-0.283,0.184-0.43c1.972-0.486,0.379,0.12-0.184,0.43
			c-0.007,0.05-0.045,0.108-0.036,0.156l0.028,0.002l6.438-2.782C238.71,1034.312,236.971,1034.952,233.901,1036.132z"/>
		<path fill="#3B2918" d="M199.243,1043.333c0.231,0.005,0.244,0.069,0.281,0.127
			C199.915,1043.206,200.051,1043.077,199.243,1043.333z"/>
		<path fill="#3B2918" d="M202.142,1042.909c-0.439,0.288-0.719,0.773-2.311,1.227c-1.444,0.212-0.138-0.416-0.307-0.676
			c-0.861,0.557-3.078,1.767,0.019,1.159l0.426-0.279c2.762-0.629,6.554-0.739,6.13-0.46
			C205.053,1043.373,204.176,1043.057,202.142,1042.909z"/>
		<path fill="#3B2918" d="M218.133,1039.235l5.353-2.339l-3.062,0.227l0.299,0.4
			C217.533,1038.436,218.402,1038.754,218.133,1039.235z"/>
		<polygon fill="#3B2918" points="249.102,1031.445 248.691,1032.613 251.417,1030.213 		"/>
		<polygon fill="#3B2918" points="256.207,1028.834 256.221,1029.72 257.939,1028.581 		"/>
		<path fill="#3B2918" d="M654.884,875.344l1.527-0.807C655.675,874.882,655.213,875.135,654.884,875.344z"/>
		<path fill="#3B2918" d="M643.218,879.511l-0.145,0.493C643.534,879.594,643.698,879.355,643.218,879.511z"/>
		<path fill="#3B2918" d="M431.425,966.729c2.612-0.099,5.645,0.112,5.043-0.677l-1.031-0.61
			C433.853,966.183,432.56,966.535,431.425,966.729z"/>
		<path fill="#3B2918" d="M549.402,918.591c-0.253-0.005-0.519-0.011-0.781-0.016c-0.461,0.503-0.895,0.975-1.285,1.399
			C547.958,919.558,548.663,919.086,549.402,918.591z"/>
		<path fill="#3B2918" d="M549.765,914.407l3.292-0.555C552.292,913.907,551.23,914.079,549.765,914.407z"/>
		<path fill="#3B2918" d="M718.148,851.352l1.556-1.565C716.771,850.86,718.224,850.834,718.148,851.352z"/>
		<path fill="#3B2918" d="M329.229,1002.789c2.148-0.376,3.812-0.808,5.245-1.268
			C331.854,1001.889,329.619,1001.84,329.229,1002.789z"/>
		<path fill="#3B2918" d="M653.63,886.196c0.928-0.514,1.285-0.843,1.186-1.025C653.855,885.687,653.343,886.061,653.63,886.196z"/>
		<path fill="#3B2918" d="M340.328,999.441c-0.388,0.04-0.754,0.121-1.144,0.176c-1.431,0.672-2.881,1.318-4.711,1.904
			C336.409,1001.253,338.556,1000.749,340.328,999.441z"/>
		<path fill="#3B2918" d="M948.862,767.821c0.182-0.022,0.39-0.078,0.559-0.089C949.429,767.598,949.194,767.676,948.862,767.821z"
			/>
		<path fill="#3B2918" d="M1019.167,751.874c-0.641,0.297-1.719,0.694-2.73,1.079C1016.953,752.83,1017.782,752.52,1019.167,751.874
			z"/>
		<path fill="#3B2918" d="M285.082,1019.134C283.587,1019.725,284.875,1019.314,285.082,1019.134L285.082,1019.134z"/>
		<path fill="#3B2918" d="M276.51,1018.289c0.288-0.211,0.489-0.421,0.457-0.635C276.915,1017.907,276.75,1018.114,276.51,1018.289z
			"/>
		<path fill="#3B2918" d="M353.484,988.694c0.045-0.015,0.081-0.026,0.132-0.044C353.106,988.64,353.195,988.646,353.484,988.694z"
			/>
		<path fill="#3B2918" d="M282.665,1019.542c0.606-0.094,1.292-0.235,2.027-0.425
			C284.355,1019.16,283.737,1019.283,282.665,1019.542z"/>
		<path fill="#3B2918" d="M283.115,1019.845c-0.534,0.15-0.953,0.27-1.353,0.382
			C281.622,1020.439,281.823,1020.471,283.115,1019.845z"/>
		<path fill="#3B2918" d="M287.174,1018.344c-0.861,0.318-1.683,0.563-2.483,0.773c0.318-0.046,0.46-0.041,0.391,0.017
			C285.522,1018.968,286.144,1018.732,287.174,1018.344z"/>
		<path fill="#3B2918" d="M826.265,815.373c0.11-0.01,0.231-0.034,0.354-0.036C828.007,814.421,827.36,814.723,826.265,815.373z"/>
		<path fill="#3B2918" d="M467.545,943.663c-0.068,0.034-0.097,0.07-0.158,0.104c0.074-0.016,0.167-0.036,0.234-0.05
			L467.545,943.663z"/>
		<path fill="#3B2918" d="M472.739,941.071c-1.924,1.908-3.286,2.247-5.118,2.646l2.69,1.856L472.739,941.071z"/>
		<path fill="#3B2918" d="M682.68,864.988l-4.089,0.602c4.129-2.945,7.613-3.709,3.644-3.508c0.445,2.906-14.692,5.639-14.239,8.539
			l-2.716,0.339c0.728-0.234,0.785-0.436,1.506-0.666c-5.35,0.47-2.914,3.274-9.341,5.166c-2.267,0.587-3.938,0.747-2.561-0.116
			l-4.64,2.44c-1.439,0.462-1.263-0.135,0.17-0.596l-7.367,2.915l0.026-0.1c-0.908,0.811-3.078,2.34-4.152,3.046
			c-2.032,0.297,0.845-0.631,0.238-0.794l-3.886,2.151c-1.934-0.094,1.237-2.015,4.121-2.946c-4.83-1.312-3.174,1.923-12.056,3.353
			l3.769-1.755c-3.066-0.629-5.903,1.03-10.651,1.666c1.226,0.123,9.687-0.776,5.456,1.521c-1.335,0.252-3.033,0.757-5.249,2.178
			c-0.371-0.956-2.643,0.136-5.572,1.259l-0.261-1.351c-3.056,1.524-2.567,2.085-4.237,3.337c-3.602,1.156-4.696,0.433-5.835-0.1
			c-5.768,1.85,4.506,0.169-2.147,2.84c-4.913,1.219-8.05,2.939-13.439,5.747c-3.474,0.755,0.297-0.99-1.023-0.928l-2.571,2.079
			c-0.728,0.234-0.609-0.162-0.548-0.363c-2.333,1.288,0.257,1.351-3.511,3.102c-0.542,1.785-8.733,0.824-12.974,4.159
			c-1.318,0.065,0.291-0.989-0.25-1.354c-6.232,3.432-5.392,2.805-10.311,6.174l-4.926,0.828c3.743-0.266-0.188,2.435-3.655,4.738
			c1.372,0.028,2.548,0.063,3.308,0.008l-5.821,2.873c-0.809,0.055-0.355-0.604,0.447-1.497c-0.371,0.262-0.723,0.511-1.002,0.708
			c-2.339,0.31-1.48-0.834-0.183-2.108c0.83,0,1.661,0.001,2.47,0.001c1.219-1.317,2.312-2.683,1.73-3.317
			c-0.342,0.289-1.055,0.689-1.865,1.062c0.316-0.352,0.499-0.63,0.271-0.692c-0.254-0.061-0.786,0.45-1.661,1.135l-1.892-0.928
			l-0.131,0.687l-8.258,1.971c-5.163,3.484-9.345,7.374-18.155,11.193c1.863-1.848-0.132-1.879-0.456-3.161
			c2.932,0.428,6.787-3.061,11.556-4.474c-2.488,0.741-2.165-0.044-1.618-0.473l-7.908,4.183c-0.176-1.08-2.043-0.124-4.372,0.238
			c2.365,1.411-5.736,3.562-8.908,5.392c-0.452-0.597,0.115-1.574,4.313-2.896c-5.107,0.131-5.057,4.467-9.999,4.794
			c1.005-0.38,1.586-0.472,1.863-0.956c-2.146,1.444-8.087,3.04-6.939,1.968l1.003-0.375c-6.794,2.168-20.429,7.309-20.821,9.368
			c-0.146-0.195,0.145-2.365,0.428-2.854l-9.923,10.015c0.532-1.839-4.761-3.865,0.507-6.685c-1.671,0.364-3.735,0.83-6.918,2.554
			c1.164-0.184,3.472,1.137,2.03,1.805c-4.669-0.16-3.149,0.148-8.684,0.568c1.746-0.272,0.75,2.671-1.859,3.518
			c0.28-0.486-1.024-2.185-0.165-2.759l-5.625,4.541c1.46-0.978-0.398-2.007-2.063-2.13c0.825,0.202-5.573,1.941-7.207,2.775
			l2.911-0.451c-7.38,2.249-6.041,5.72-13.285,8.17c0.706-0.775,1.133-3.627-2.63-2.604c-1.267,1.751-5.456,8.191-11.512,11.351
			l-1.457-0.222l-4.622,2.493c2.427-2.819,9.67-9.514,13.829-12.596c-2.902,0.447-1.033-0.507-5.08,1.003
			c-1.656-0.104,1.884-1.727,3.067-2.189l-9.612,2.979c0.901,1.195-6.762,3.932-6.002,4.923l9.79-5.062
			c0.895,1.192-4.588,5.938-11.384,8.094c-1.897,0.073,0.425-2.85,0.125-3.248c-0.706,0.773-6.054,3.155-6.788,3.047l2.591-1.734
			c-3.916,0.827-5.462,3.957-10.409,4.275c-1.581,0.464-5.245-0.091-5.23,0.8c3.074,0.639,5.256,5.211,3.98,6.962
			c-0.581,0.089-8.665,1.419-10.704,1.289c-2.981-0.299,2.814-4.228,0.273-4.49c0.037,0.4-1.212,1.354-1.749,1.708
			c-1.74,0.263,0.27-1.378-3.209,0.043c-0.106,1.573-7.237,2.437-1.264,1.746c-3.323,1.617-3.778,1.023-7.821,2.524
			c1.607,0.423-2.585,4.294-5.916,5.912c0.082-0.419-0.857-0.595-1.307-0.667c-7.139,2.393-11.167,3.123-17.788,5.457
			c-0.727-0.114-4.06,0.618-2.909-0.451c-0.866,0.579-1.577,1.352-3.606,2.108c-4.366,0.22,4.485-1.798,0.973-2.147
			c0.024,0.887-4.892,2.962-7.625,4.48c1.327,0.91,6.803-2.132,9.537-3.662c0.612,1.686-3.83,5.252-10.476,8.468
			c-5.352,2.358-2.77-0.251-3.64,0.326c-10.435,3.346-7.761,6.053-16.77,7.856c-3.783,0.123-0.908-2.088-1.937-2.599
			c4.336-1.986,7.119-1.74,10.141-2.854l-3.918,0.808c1.299-0.86,4.194-2.186,5.933-2.448c-3.193,0.038-17.518,5.966-25.802,7.882
			c-1.289,0.859-3.602,2.095-2.293,2.12l2.469-1.039c2.624,0.052-4.324,2.873-0.989,2.154c-3.168,1.803-6.623,4.102-11.563,5.276
			l-1.327-0.915c0.228,0.323,3.372-0.359,4.58-1.203c-1.795,1.241-7.891,0.897-9.503,3.269l3.64-0.319
			c-3.183,1.808-6.928,4.584-11.288,5.676c2.348,0.54,0.925-0.479,4.425-0.111c-3.222-0.855,10.833-3.711,6.001-4.103
			c3.658,0.568,5.576-1.168,10.096-1.175c-0.267-0.361-1.697-0.272,1.916-1.322c0.119-0.175,0.443-0.458,0.652-0.631
			c0.113-0.024,0.153-0.033,0.25-0.054c-0.077,0.007-0.135,0.013-0.212,0.021c0.132-0.114,0.142-0.132-0.079,0.01
			c-0.906,0.12-1.666,0.147-2.022,0.02c1.432-1.551,7.078-3.507,8.813-4.659c2.17-0.549-0.716,0.774,0.584,0.802l2.593-1.723
			c0.599,0.801,6.112-0.475,1.344,1.798l4.473-1.531c2.803-0.42,6.484-1.492,8.577-2.655c2.172-0.547,4.961-2.867,3.377-1.518
			l6.796-3.022l0.144,0.202c6.938-2.317,13.677-6.49,22.13-7.668c2.241-1.049,4.542-2.178,8.515-3.299l1.032,0.51
			c2.883-1.328,9.225-2.396,10.218-3.66c3.957,0.953,14.625-4.672,19.998-6.158l-0.162-1.085c3.627-1.223,6.985-2.735,11.317-4.733
			l-0.594-0.798c3.596-2.112,10.146-2.899,16.216-5.168c-0.293,0.491-1.873,0.953-3.042,1.137c8.012-0.574,14.857-6.96,21.995-7.842
			c1.531-0.914,2.764-1.229,4-1.415c-0.153,0.058-0.284,0.123-0.392,0.193c0.17-0.058,0.422-0.144,0.68-0.23
			c0.783-0.105,1.596-0.193,2.459-0.339c-0.768,0.028-1.492,0.084-2.097,0.206c1.264-0.472,3.151-1.271,4.96-2.169l1.148,0.676
			c0.15-0.064,0.271-0.115,0.427-0.183c1.98-0.306,1.328-0.987,0.08-1.359c0.894-0.497,1.698-0.999,2.291-1.472
			c2.061,1.017,4.77-2.291,7.417-1.366c0.984-1.263,9.28-3.996,9.678-6.055c0.144,0.198,0.738,0.105-0.277,0.482
			c2.175-0.559,4.347-1.12,6.063-2.276l1.331,0.903l4.007-3.294c3.059-0.255,4.371-0.236,1.937,1.699
			c6.175-3.849,5.236-2.493,10.415-5.971l0.005,0.892c2.024-0.76,4.897-2.986,6.359-2.772c5.091-0.129,22.598-7.869,34.784-10.662
			c-3.104-1.517,5.807-0.903,5.621-2.875c0.878,0.307,2.619,0.034,0.898,1.191c5.77-2.677,9.271-2.348,12.839-5.352
			c0.881,0.307-0.985,1.268-0.261,1.375c0.436-0.291,1.721-1.161,2.46-1.057c0.725,0.109-0.707,0.777-1.563,1.357
			c6.054-2.287,6.059-4.207,5.928-5.96c3.357-0.357,4.858-1.02,6.709-2.867c1.261,0.134,3.25,0.033-0.466,1.584
			c2.155-0.69,13.274-3.923,13.031-5.277c0.783,0.083,3.008-0.979,3.516-1.327c4.802-1.646,5.264-1.683,9.909-3.493l-1.375,0.26
			c1.296-2.208,3.773-1.749,7.486-3.297l-0.051,0.197c9.068-2.014,3.549-1.882,12.558-3.697l-0.812-0.789
			c0.054-2.349,8.015-1.517,12.693-4.094l-1.989,0.099c2.455-1.683,8.589,0.072,11.401-0.659c0.658-0.035-0.833,0.627-1.612,1.06
			c7.562-1.366,0.47-1.59,5.671-3.804c1.224,0.321-0.639,2.178,2.979,1.009c1.978-0.097,9.566-5.951,14.909-6.42
			c-1.263-0.133-2.518-0.267-0.194-1.552c3.711-1.556,10.929-1.731,13.746-4.611c0.531-0.031,0.763,0.039,0.829,0.161
			c2.734-1.471,9.131-4.106,10.548-5.628c3.868,2.341,17.372-8.115,18.414-5.042l8.824-3.383l-0.118,0.396
			c5.752-1.856,7.494-3.314,9.225-4.771c1.388-0.268,0.533,0.363,0.482,0.563c8.521-2.391,9.295-2.831,15.696-6.879l1.083,0.726
			c1.675-1.262,12.553-2.815,20.267-6.932c-0.039,0.141-0.138,0.394-0.732,0.769c8.728-4.493,22.906-5.235,24.947-10.059
			l5.715-3.087c-7.914,2.566,0.594-1.986-2.837-1.414c2.995-1.33,8.338-1.807,4.63-0.246l-0.656,0.034
			c-0.702,2.383,9.95-2.87,10.206-1.516c15.34-5.69,30.704-10.104,45.122-15.301l-2.191-0.853l5.051-1.753
			c1.441-0.143,2.186,0.494-1.418,1.744c2.186,0.138,5.753-2.891,5.739-3.245c7.229-1.976-2.117,2.703,0.046,1.951l2.881-1.178
			l-0.721,0.07c2.148-1.462,2.128-2.171,6.459-3.674c2.831-0.705,1.727,0.388,2.819,0.052c0.031,0.105,0.411,0.021,1.659-0.56
			l6.37-2.19l-2.95-0.227c2.596-1.594,5.97-2.116,2.574-2.353c5.02,0.443,23.856-7.912,26.715-8.251
			c3.619-2.275,7.5-3.68,12.338-5.336c-1.281,0.198-2.471-0.836,1.729-2.192c-0.535,3.226,8.007-1.615,12.059-0.919
			c-3.458-0.18,11.656-4.623,6.3-4.715c3.534-1.049,0.577,0.923,3.429,0.592c7.845-4.043,18.361-5.983,28.394-10.065
			c0.029-0.409-1.868-0.319,0.119-1.643l6.008-0.22c1.942-0.909,1.104-2.702,5.217-2.834c-0.626-0.104-1.563-0.265-0.258-0.871
			c20.53-5.61,40.153-16.354,61.546-20.576c-2.987,0.327-1.188-0.411,0.894-1.205c-1.419,0.338-0.288-0.877-0.729-1.254l8.947-1.792
			c1.056-1.885,9.039-3.425,9.458-5.01l-2.596,1.212c3.016-2.798-6.204-1.473-6.387-3.573c-3.366,3.158-11.442,1.364-17.097,6.192
			c-1.589,0.142,1.006-1.068,0.07-1.227c-1.358,1.428-3.3,2.335-7.148,3.334l0.346-0.356c-10.359,4.035-15.129,4.873-27.047,8.646
			l1.215,0.625c-2.564,0.8-3.203,0.698-4.47,0.896c-2.364,2.494,7.104-2.521,5.051,0.026c-4.048-0.692-17.771,6.502-20.831,5.148
			c-3.879,1.414,1.537,0.676-2.341,2.087l-1.244-0.213l-0.699,1.121c-2.586,0.809-4.139,0.541-4.418,0.076
			c0.639-0.168,1.7-0.784,2.346-1.07c-3.55,0.516-9.2,3.652-10.415,3.842l3.856-1.005c-10.372,4.436-23.562,8.423-33.344,13.358
			l0.939,0.162c-7.504,3.681-6.432,1.798-14.861,5.316l0.272-0.221c-1.552,1.072-3.761,2.134-6.124,2.941
			c1.973-1.313-4.443,0.476-1.816-1.14c-8.14,3.982-3.932,2.227-8.915,5.929l-1.561-0.267c-1.66,1.366-1.689,1.776-5.899,3.535
			c3.277-1.92-3.145-0.127,0.48-2.405c-9.572,1.669-12.737,6.514-17.724,5.656c-3.375,3.557,8.188-1.708,6.038-0.425
			c2.179-0.039-2.845,2.775-5.738,3.602c-2.886,1.005-5.836-0.832-13.038,1.848c0.721-0.253,0.713-0.426,1.433-0.679
			c-2.892,0.466-5.033,2.644-8.656,3.008c-1.405,1.917-4.328,1.503-4.286,3.277l6.487-2.788c-3.603,1.786-6.446,4.922-12.957,6.289
			c0.365-0.495,2.053-1.587,3.23-2.283c-1.978,0.196-3.368,1.583-5.417,1.791c-0.043-1.776,7.92-3.289,11.5-5.965
			c-2.184,0.043-7.188,3.928-5.792,1.477c-2.109,3.239-7.211,2.328-11.491,5.778l-0.023-1.064c-0.719,0.432-2.158,1.466-3.591,1.963
			l2.129-2.171c-3.575,2.494-7.961,1.88-11.551,3.83c7.938-2.928,2.2,0.49,5.813-0.046c-9.342,4.845-6.543-0.421-17.355,4.034
			c1.438-0.676,5.787-1.464,3.623-0.179c-2.161,0.565-5.054,1.208-6.518,1.179c-7.202,2.846,1.473,0.566-1.412,2.275
			c-2.897-0.25-3.4,1.771-6.455,3.302l-0.373-0.954c-8.515,2.401-1.467,2.807-9.201,4.778l2.668-2.483l-3.766,1.762l0.404-1.387
			c-3.937,2.354-5.332,2.623-9.591,3.827c1.211,0.327,0.095,1.943-3.565,3.312c-2.713,0.34,1.068-1.426-4.086,0.607
			c0.956-1.03,1.968-2.255,4.556-2.193c0.117-0.398,0.938-1.026,1.064-1.423c-2.936,0.324-6.831,2.318-8.712,3.013
			c0.738-0.228,1.624-0.492,2.119-0.517l-7.059,4.082c-1.319,0.07-0.482-0.563,0.347-1.187c-1.49,0.66-2.387,1.487-4.603,2.389
			c0.297-0.994-0.137-1.751,2.909-3.277l-6.872,3.485c-0.604-0.165-4.028,0.409-3.2-0.219c-4.152,0.991-9.224,5.079-14.728,6.396
			c-0.219,0.252-0.717,0.598-1.799,1.119c-5.031,1.629-9.776,2.278-15.275,5.485L697.112,858c-4.496,1.989,5.165,0.128-2.321,3.44
			c-5.274,2.418-2.465-0.461-4.514-0.161c-2.446,1.688-6.625,4.831-12.033,5.498C679.801,865.914,681.173,865.652,682.68,864.988z
			 M626.027,886.224c1.028-0.602,3-2.021,4.012-1.745C629.183,886.037,628.021,885.86,626.027,886.224z M540.356,919.759
			c0.705-0.614,2.03-0.913,3.593-1.064C542.938,919.147,541.749,919.536,540.356,919.759z M301.401,1012.498
			c0.042-0.031,0.07-0.055,0.102-0.088C304.102,1011.917,303.175,1012.077,301.401,1012.498z M296.131,1013.885
			c-0.467,0.316-0.384,0.438-0.12,0.496c0.271-0.371,1.416-0.793,2.75-1.186C298.308,1013.069,297.584,1013.128,296.131,1013.885z
			 M844.731,815.956l-1.084,0.111C845.787,814.971,845.251,815.45,844.731,815.956z"/>
		<path fill="#3B2918" d="M549.691,914.903c0.371,0.051,0.521,0.199,0.661,0.354C550.727,914.939,550.668,914.748,549.691,914.903z"
			/>
		<path fill="#3B2918" d="M717.86,851.641l0.177-0.053c0.074-0.092,0.104-0.169,0.111-0.236L717.86,851.641z"/>
		<path fill="#3B2918" d="M372.541,977.649c1.103-0.234,1.753-0.267,2.209-0.222C374.723,977.171,374.173,977.141,372.541,977.649z"
			/>
		<path fill="#3B2918" d="M269.555,1025.074l3.196-1.401c-1.571,0.604-2.212,0.592-3.068,0.719
			C269.835,1024.593,270.577,1024.699,269.555,1025.074z"/>
		<path fill="#3B2918" d="M238.962,1029.073c-0.438,0.286-1.013,0.369-1.444,0.655l0.288,0.403
			C239.84,1029.387,241.142,1028.524,238.962,1029.073z"/>
		<path fill="#3B2918" d="M265.389,1022.928c-0.546-0.723-2.508,0.275-4.755,1.231c0.137-0.052,0.266-0.104,0.407-0.143
			C260.761,1025.392,263.081,1024.156,265.389,1022.928z"/>
		<path fill="#3B2918" d="M260.11,1024.373c-0.696,0.287-1.412,0.562-2.119,0.766
			C257.882,1025.688,258.887,1024.932,260.11,1024.373z"/>
		<path fill="#3B2918" d="M289.823,1016.713c-1.164,0.175-0.318,1.281-1.052,1.167
			C287.918,1019.344,295.598,1014.066,289.823,1016.713z"/>
		<polygon fill="#3B2918" points="262.588,1020.9 263.764,1021.616 264.769,1020.355 		"/>
		<path fill="#3B2918" d="M281.002,1015.271l-3.77,1.015c0.115,0.149-0.317,0.411-0.864,0.688
			C278.644,1016.215,281.192,1015.537,281.002,1015.271z"/>
		<path fill="#3B2918" d="M276.368,1016.974c-1.186,0.394-2.301,0.809-2.899,1.202
			C274.103,1017.942,275.464,1017.428,276.368,1016.974z"/>
		<polygon fill="#3B2918" points="267.505,1018.84 268.665,1018.669 271.285,1017.834 		"/>
		<path fill="#3B2918" d="M320.544,1001.553l3.906-1.7c0.287-0.488-0.88-0.313-2.324,0.35
			C321.252,1000.779,319.813,1001.437,320.544,1001.553z"/>
		<path fill="#3B2918" d="M307.456,1003.076c1.157-0.174,1.309,0.024,2.036,0.14l-0.316-1.286L307.456,1003.076z"/>
		<path fill="#3B2918" d="M319.039,998.667c0.277-0.485,5.466-3.039,0.414-1.171C319.168,997.981,315.255,999.682,319.039,998.667z"
			/>
		<polygon fill="#3B2918" points="379.943,978.861 378.93,979.238 379.801,981.225 		"/>
		<path fill="#3B2918" d="M431.36,955.049c-4.916,1.202-0.677,1.658-5.18,2.577c-0.942,0.878,3.679-0.752,2.687,0.07
			C431.547,956.168,433.153,955.919,431.36,955.049z"/>
		<path fill="#3B2918" d="M428.867,957.696c-0.43,0.244-0.881,0.515-1.351,0.831C428.3,958.104,428.655,957.868,428.867,957.696z"/>
		<polygon fill="#3B2918" points="1030.702,748.87 1033.898,748.176 1031.685,748.215 		"/>
		<path fill="#3B2918" d="M1035.982,745.22l1.192,1.029l1.394-1.842C1037.902,744.718,1036.611,745.319,1035.982,745.22z"/>
		<path fill="#3B2918" d="M616.627,886.677l-0.119,0.396c0.593,0.166,1.314-0.066,2.762-0.531L616.627,886.677z"/>
		<polygon fill="#3B2918" points="658.259,872.686 657.539,872.917 659.291,873.607 		"/>
		<path fill="#3B2918" d="M692.363,858.636c-1.432,0.464-2.999,1.327-4.438,1.793C690.932,859.1,693.275,859.958,692.363,858.636z"
			/>
	</g>
</g>
</svg>
