<?xml version="1.0" encoding="utf-8"?>
<!-- Generator: Adobe Illustrator 16.0.0, SVG Export Plug-In . SVG Version: 6.00 Build 0)  -->
<svg version="1.2" baseProfile="tiny" xmlns="http://www.w3.org/2000/svg" xmlns:xlink="http://www.w3.org/1999/xlink" x="0px"
	 y="0px" width="1200px" height="1200px" viewBox="0 0 1200 1200" xml:space="preserve">
<g id="Layer_2">
</g>
<g id="Layer_1">
	<g>
		<polygon fill="#F2F2F2" points="1123.904,496.725 969.247,539.473 977.133,575.963 1056.578,558.791 875.374,804.259 
			666.95,714.227 501.955,918.192 286.625,818.396 0,1200 18.362,1200 300.436,870.597 511.562,974.169 677.805,775.568 
			893.049,862.594 1088.146,578.883 1095.003,653.721 1132.183,650.315 		"/>
	</g>
	<g>
		<g>
			<g>
				<path fill="#534741" d="M389.287,605.682l14.869-6.354l-19.969-41.348l-12.236,7.215l-17.385-40.601l-80.275,36.603
					l49.93,116.852l82.864-30.804L389.287,605.682z M381.536,567.938L394.337,597l-7.484,2.999l-12.569-29.354L381.536,567.938z"/>
			</g>
		</g>
		<g>
			<g>
				<g>
					<g>
						<g>
							<g>
								<path fill="#FDDCBE" d="M381.806,574.931c0.728,1.774,2.895,1.665,4.284,1.132c-1.358,0.375-3.623,1.351-2.939,3.619
									c0.788,2.615,4.24,2.128,5.442,1.873l0.009,0.027c-1.095,0.372-3.951,1.572-3.254,3.77c0.691,2.181,3.768,1.509,4.94,1.166
									c-1.251,0.438-4.446,1.819-3.502,4.43c0.707,1.953,5.043,0.062,5.043,0.062c77.651-41.419,119.65-50.888,119.65-50.888
									l-10.55-17.954c-84.449,30.417-107.505,45.951-115.403,49.214C385.526,571.382,381.185,573.164,381.806,574.931z"/>
							</g>
						</g>
					</g>
				</g>
				<g>
					<g>
						<g>
							<path fill="#FDDCBE" d="M705.032,372.324c-1.649,0.977-1.262,3.182-0.839,4.492c-0.567-1.291-1.86-3.39-4.006-2.385
								c-2.473,1.158-1.492,4.503-1.065,5.656l-0.025,0.013c-0.526-1.029-2.128-3.682-4.201-2.674c-2.058,1-0.948,3.947-0.438,5.056
								c-0.614-1.174-2.443-4.136-4.891-2.824c-1.83,0.982,0.669,4.999,0.669,4.999c52.218,70.841-15.309,66.926-15.309,66.926
								l6.725,19.708c88.84-12.812,31.464-88.369,27.093-95.711C708.744,375.58,706.875,371.232,705.032,372.324z"/>
						</g>
					</g>
				</g>
				<g>
					<g>
						<g>
							<path fill="#F5F5F5" d="M674.927,451.583l6.725,19.708c3.623-0.522,6.979-1.16,10.13-1.882l-4.419-18.754
								C680.588,451.907,674.927,451.583,674.927,451.583z"/>
						</g>
					</g>
				</g>
				<g>
					<g>
						<path fill="#534741" d="M768.537,563.495c-9.06-17.203-22.678,15.743-22.678,15.743s0.687-25.52-7.231-32.527
							c-7.585-6.712-20.532,6.893-23.983,10.356l-156.28,67.12l11.378,24.946l-19.203,1.392c0,0-8.156,31.577,6.771,30.665
							c14.926-0.912,1.161-20.344,1.161-20.344s15.371,5.041,24.845,0.186c7.388-3.786-3.162-25.202-5.575-31.984
							c105.946-27.081,150.363-65.692,151.631-67.095c0,0,7.728,25.854,13.086,38.462
							C742.46,600.414,777.596,580.699,768.537,563.495z"/>
					</g>
				</g>
				<g>
					<g>
						<g>
							<path fill="#F5F5F5" d="M674.927,451.583l6.725,19.708c2.009-0.29,3.929-0.618,5.784-0.973l-11.927-18.713
								C675.133,451.595,674.927,451.583,674.927,451.583z"/>
						</g>
					</g>
				</g>
				<g>
					<g>
						<g>
							<g>
								<g>
									<g>
										<path fill="#FDDCBE" d="M674.669,450.247c0,0-53.677-194.202-176.706-75.618c0,0-33.188,51.855,2.966,147.539
											C655.097,495.23,674.669,450.247,674.669,450.247z"/>
									</g>
								</g>
								<g>
									<g>
										<path fill="#534741" d="M608.208,252.277c0,0,88.534,97.489-92.377,142.039l2.838,43.22c0,0-21.819-9.849-19.969,8.918
											c1.854,18.766,20.697,4.907,20.697,4.907s-1.684,51.358-18.468,70.807c0,0-124.396-155.699-31.827-171.165
											c0,0-9.21-33.37,37.939-53.444C555.907,276.753,609.928,324.247,608.208,252.277z"/>
									</g>
								</g>
								<g>
									<g>
										<path fill="#534741" d="M623.481,398.527c1.79,4.658,5.433,7.59,8.132,6.554c2.7-1.038,3.439-5.657,1.647-10.313
											c-1.796-4.658-5.438-7.59-8.134-6.554C622.425,389.251,621.69,393.87,623.481,398.527z"/>
									</g>
								</g>
								<g>
									<g>
										<path fill="#534741" d="M548.351,435.129c1.789,4.658,5.426,7.595,8.132,6.554c2.69-1.039,3.433-5.659,1.636-10.313
											c-1.789-4.658-5.428-7.592-8.128-6.554C547.292,425.855,546.554,430.472,548.351,435.129z"/>
									</g>
								</g>
							</g>
						</g>
						<g>
							<g>
								<path fill="#F5F5F5" d="M674.669,450.247l39.976,106.82c0,0-59.914,40.213-156.28,67.12l-57.436-102.019
									C500.929,522.167,623.868,493.106,674.669,450.247z"/>
							</g>
						</g>
					</g>
					<g>
						<g>
							<polygon fill="#534741" points="642.431,479.686 648.76,485.036 646.846,495.038 671.091,557.902 656.441,577.731 
								638.872,562.468 637.169,499.839 627.867,493.77 628.793,486.973 							"/>
						</g>
					</g>
				</g>
				<g>
					<g>
						<path fill="#534741" d="M633.598,427.445c0,0-33.013,11.734-50.428,25.924c0,0,8.607,27.26,38.469,12.981
							C651.194,452.217,633.598,427.445,633.598,427.445z"/>
					</g>
				</g>
			</g>
		</g>
		<g>
			<g>
				<path fill="#FDDCBE" d="M385.52,576.244c0.199-0.052,0.392-0.112,0.57-0.181C385.913,576.112,385.72,576.173,385.52,576.244z"/>
			</g>
			<g>
				<path fill="#F5F5F5" d="M500.929,522.167c-4.406,1.587-8.607,3.124-12.686,4.63l8.471,17.638
					c9.752-3.183,14.764-4.314,14.764-4.314L500.929,522.167z"/>
			</g>
		</g>
	</g>
	<g>
		<polygon fill="#B5572B" points="1092.044,422.486 940.587,475.471 950.894,511.353 1029.014,488.911 864.613,745.937 
			650.641,670.029 499.64,884.563 278.125,799.374 0,1200 18.362,1200 295.392,850.536 512.965,939.771 665.569,730.509 
			886.146,802.96 1061.854,506.85 1073.694,581.062 1110.564,575.18 		"/>
	</g>
	<g>
		<g>
			<path fill="#E6E6E6" d="M95.999,911.25c-1.233,0-2.238-0.995-2.249-2.23c-0.001-0.137-0.025-3.432,0.333-9.148
				c0.079-1.241,1.144-2.189,2.386-2.105c1.24,0.078,2.183,1.146,2.105,2.387c-0.346,5.538-0.324,8.796-0.324,8.829
				c0.01,1.241-0.989,2.259-2.231,2.269C96.013,911.25,96.006,911.25,95.999,911.25z"/>
		</g>
		<g>
			<path fill="#E6E6E6" d="M98.94,878.96c-0.117,0-0.236-0.009-0.355-0.027c-1.227-0.194-2.064-1.348-1.87-2.573
				c0.991-6.254,2.214-12.511,3.635-18.599c0.283-1.211,1.496-1.955,2.703-1.68c1.21,0.282,1.962,1.492,1.68,2.702
				c-1.397,5.984-2.6,12.134-3.574,18.279C100.983,878.171,100.027,878.96,98.94,878.96z M108.959,837.944
				c-0.239,0-0.482-0.038-0.722-0.118c-1.177-0.398-1.808-1.676-1.41-2.853c2.057-6.077,4.359-12.029,6.843-17.693
				c0.499-1.137,1.824-1.657,2.964-1.157c1.137,0.499,1.656,1.826,1.156,2.965c-2.431,5.544-4.686,11.375-6.701,17.328
				C110.773,837.354,109.897,837.944,108.959,837.944z M126.421,799.56c-0.392,0-0.788-0.101-1.148-0.315
				c-1.069-0.636-1.419-2.016-0.784-3.084c3.28-5.516,6.845-10.825,10.596-15.783c0.751-0.991,2.163-1.186,3.152-0.437
				c0.991,0.75,1.187,2.16,0.437,3.151c-3.651,4.826-7.122,9.996-10.317,15.368C127.937,799.168,127.188,799.56,126.421,799.56z
				 M390.808,791.576c-0.705,0-1.398-0.329-1.836-0.946c-3.591-5.054-7.46-9.947-11.499-14.546c-0.82-0.934-0.728-2.355,0.206-3.176
				c0.932-0.818,2.355-0.728,3.175,0.205c4.141,4.715,8.105,9.731,11.786,14.909c0.72,1.014,0.482,2.419-0.531,3.138
				C391.714,791.441,391.258,791.576,390.808,791.576z M152.395,766.427c-0.588,0-1.176-0.229-1.617-0.686
				c-0.864-0.893-0.841-2.317,0.051-3.182c4.575-4.427,9.456-8.575,14.51-12.325c0.996-0.744,2.406-0.535,3.148,0.464
				c0.741,0.999,0.532,2.408-0.465,3.148c-4.897,3.636-9.628,7.655-14.062,11.947C153.522,766.216,152.958,766.427,152.395,766.427z
				 M362.528,760.318c-0.522,0-1.044-0.18-1.47-0.547c-4.709-4.066-9.649-7.847-14.685-11.236c-1.031-0.694-1.304-2.092-0.609-3.123
				c0.694-1.03,2.09-1.303,3.123-0.609c5.184,3.489,10.268,7.38,15.113,11.563c0.94,0.813,1.044,2.233,0.232,3.174
				C363.787,760.055,363.159,760.318,362.528,760.318z M186.565,741.928c-0.817,0-1.605-0.446-2.003-1.223
				c-0.568-1.105-0.132-2.46,0.973-3.029c5.557-2.856,11.422-5.415,17.429-7.609c1.168-0.422,2.459,0.174,2.885,1.342
				c0.427,1.168-0.175,2.459-1.341,2.886c-5.833,2.13-11.525,4.614-16.917,7.384C187.263,741.848,186.911,741.928,186.565,741.928z
				 M327.217,737.408c-0.316,0-0.637-0.066-0.942-0.208c-5.572-2.573-11.366-4.805-17.223-6.63c-1.186-0.369-1.849-1.63-1.479-2.817
				c0.37-1.187,1.632-1.851,2.817-1.478c6.043,1.883,12.023,4.184,17.771,6.841c1.128,0.52,1.62,1.857,1.099,2.985
				C328.881,736.925,328.067,737.408,327.217,737.408z M226.251,728.007c-1.04,0-1.974-0.726-2.198-1.783
				c-0.258-1.215,0.519-2.41,1.734-2.669c5.461-1.157,11.162-2.096,16.946-2.789l1.783-0.205c1.221-0.149,2.348,0.75,2.487,1.983
				c0.138,1.235-0.75,2.351-1.985,2.487l-1.752,0.203c-5.648,0.676-11.215,1.594-16.545,2.725
				C226.563,727.99,226.406,728.007,226.251,728.007z M286.872,725.528c-0.106,0-0.213-0.007-0.321-0.022
				c-5.999-0.856-12.196-1.365-18.417-1.509c-1.243-0.028-2.227-1.06-2.198-2.303c0.029-1.241,1.098-2.166,2.301-2.197
				c6.399,0.149,12.775,0.673,18.949,1.554c1.23,0.176,2.085,1.314,1.91,2.545C288.935,724.719,287.973,725.528,286.872,725.528z"/>
		</g>
		<g>
			<path fill="#E6E6E6" d="M407.084,819.75c-0.894,0-1.73-0.536-2.083-1.4c-0.012-0.029-1.252-3.047-3.805-7.907
				c-0.579-1.099-0.156-2.459,0.944-3.038c0.684-0.36,1.468-0.33,2.102,0.004c0.366-0.619,1.022-1.053,1.794-1.103
				c1.251-0.074,2.31,0.861,2.39,2.101c0.35,5.452,0.872,8.7,0.877,8.732c0.184,1.129-0.51,2.216-1.611,2.526
				C407.491,819.722,407.286,819.75,407.084,819.75z"/>
		</g>
		<g>
			<path fill="#E6E6E6" d="M406.245,789.014c-0.05,0-0.102-0.002-0.153-0.005c-1.24-0.083-2.177-1.157-2.094-2.396
				c0.398-5.933,1.106-11.841,2.103-17.56c0.212-1.223,1.375-2.055,2.603-1.829c1.225,0.212,2.044,1.379,1.831,2.603
				c-0.969,5.564-1.658,11.313-2.046,17.088C408.408,788.103,407.419,789.014,406.245,789.014z M413.581,750.543
				c-0.234,0-0.472-0.036-0.706-0.112c-1.18-0.39-1.821-1.663-1.432-2.842c1.876-5.688,4.106-11.221,6.63-16.441
				c0.541-1.12,1.89-1.585,3.004-1.048c1.119,0.541,1.588,1.886,1.047,3.005c-2.438,5.045-4.594,10.393-6.409,15.894
				C415.405,749.944,414.525,750.543,413.581,750.543z M431.273,715.693c-0.46,0-0.924-0.141-1.324-0.433
				c-1.003-0.731-1.224-2.14-0.491-3.144c3.484-4.775,7.357-9.324,11.51-13.521c0.875-0.881,2.299-0.889,3.182-0.016
				c0.884,0.875,0.891,2.3,0.016,3.184c-3.995,4.035-7.721,8.411-11.073,13.005C432.652,715.372,431.968,715.693,431.273,715.693z
				 M459.239,688.44c-0.712,0-1.412-0.337-1.849-0.964c-0.71-1.021-0.459-2.424,0.561-3.134c4.747-3.305,9.858-6.372,15.19-9.117
				c1.107-0.567,2.461-0.134,3.03,0.972c0.569,1.104,0.134,2.461-0.971,3.03c-5.156,2.654-10.095,5.618-14.679,8.81
				C460.13,688.31,459.682,688.44,459.239,688.44z"/>
		</g>
		<g>
			<path fill="#E6E6E6" d="M494.272,670.951c-0.935,0-1.808-0.586-2.127-1.519c-0.404-1.176,0.221-2.455,1.396-2.86
				c2.836-0.974,5.763-1.894,8.7-2.736c1.19-0.34,2.44,0.349,2.783,1.544c0.342,1.194-0.349,2.441-1.543,2.784
				c-2.862,0.818-5.714,1.716-8.477,2.665C494.762,670.911,494.515,670.951,494.272,670.951z"/>
		</g>
	</g>
</g>
</svg>
