<?xml version="1.0" encoding="utf-8"?>
<!-- Generator: Adobe Illustrator 16.0.0, SVG Export Plug-In . SVG Version: 6.00 Build 0)  -->
<!DOCTYPE svg PUBLIC "-//W3C//DTD SVG 1.1//EN" "http://www.w3.org/Graphics/SVG/1.1/DTD/svg11.dtd">
<svg version="1.1" id="OBJECTS" xmlns="http://www.w3.org/2000/svg" xmlns:xlink="http://www.w3.org/1999/xlink" x="0px" y="0px"
	 width="200.397px" height="178.276px" viewBox="0 0 200.397 178.276" enable-background="new 0 0 200.397 178.276"
	 xml:space="preserve">
<g>
	<path fill-rule="evenodd" clip-rule="evenodd" fill="#DC9356" d="M42.456,84.913c23.384,0,42.457-19.072,42.457-42.456
		C84.913,19.072,65.84,0,42.456,0C19.072,0,0,19.072,0,42.457C0,65.841,19.072,84.913,42.456,84.913z"/>
	<path fill-rule="evenodd" clip-rule="evenodd" fill="#C47B40" d="M42.456,66.279c13.121,0,23.823-10.701,23.823-23.822
		S55.577,18.634,42.456,18.634c-13.121,0-23.822,10.702-23.822,23.823S29.335,66.279,42.456,66.279z"/>
	<path fill-rule="evenodd" clip-rule="evenodd" fill="#DC9356" d="M157.94,84.913c23.385,0,42.457-19.072,42.457-42.456
		C200.397,19.072,181.325,0,157.94,0c-23.384,0-42.456,19.072-42.456,42.457C115.484,65.841,134.557,84.913,157.94,84.913z"/>
	<path fill-rule="evenodd" clip-rule="evenodd" fill="#C47B40" d="M157.94,66.279c13.121,0,23.823-10.701,23.823-23.822
		s-10.702-23.823-23.823-23.823s-23.822,10.702-23.822,23.823S144.819,66.279,157.94,66.279z"/>
	<path fill-rule="evenodd" clip-rule="evenodd" fill="#DC9356" d="M101.111,178.276c44.38,0,80.575-36.195,80.575-80.575
		c0-44.379-36.195-80.575-80.575-80.575c-44.379,0-80.575,36.196-80.575,80.575C20.536,142.081,56.732,178.276,101.111,178.276z"/>
	<path fill-rule="evenodd" clip-rule="evenodd" fill="#F5E5D7" d="M101.111,169.701c19.832,0,36.008-16.175,36.008-36.008
		c0-19.832-16.176-36.007-36.008-36.007s-36.007,16.175-36.007,36.007C65.104,153.526,81.279,169.701,101.111,169.701z"/>
	<path fill-rule="evenodd" clip-rule="evenodd" fill="#4E4E4E" d="M117.095,101.626c0,9.497-11.414,17.564-15.983,21.195
		c-4.569-3.631-15.983-11.698-15.983-21.195C85.128,91.934,117.095,91.941,117.095,101.626z"/>
	
		<line fill-rule="evenodd" clip-rule="evenodd" fill="none" stroke="#4E4E4E" stroke-width="3.8401" stroke-linecap="round" stroke-linejoin="round" stroke-miterlimit="22.9256" x1="101.111" y1="119.829" x2="101.111" y2="139.704"/>
	
		<path fill-rule="evenodd" clip-rule="evenodd" fill="none" stroke="#4E4E4E" stroke-width="3.8401" stroke-linecap="round" stroke-linejoin="round" stroke-miterlimit="22.9256" d="
		M101.111,139.704c0,5.218-4.23,9.447-9.448,9.447s-9.448-4.229-9.448-9.447"/>
	
		<path fill-rule="evenodd" clip-rule="evenodd" fill="none" stroke="#4E4E4E" stroke-width="3.8401" stroke-linecap="round" stroke-linejoin="round" stroke-miterlimit="22.9256" d="
		M101.111,139.704c0,5.218,4.229,9.447,9.448,9.447c5.218,0,9.447-4.229,9.447-9.447"/>
	
		<path fill-rule="evenodd" clip-rule="evenodd" fill="none" stroke="#979797" stroke-width="2.4001" stroke-linecap="round" stroke-linejoin="round" stroke-miterlimit="22.9256" d="
		M88.595,102.143c3.613-2.135,6.57-4.105,13.633-3.613"/>
	<g>
		<path fill-rule="evenodd" clip-rule="evenodd" fill="#4E4E4E" d="M75.4,98.262c3.645,0,6.617-5.526,6.617-12.302
			S79.045,73.658,75.4,73.658c-3.645,0-6.618,5.526-6.618,12.302S71.755,98.262,75.4,98.262z"/>
		<path fill-rule="evenodd" clip-rule="evenodd" fill="#4E4E4E" d="M126.823,98.262c3.645,0,6.617-5.526,6.617-12.302
			s-2.973-12.302-6.617-12.302s-6.617,5.526-6.617,12.302S123.179,98.262,126.823,98.262z"/>
	</g>
	<g>
		
			<ellipse transform="matrix(-0.2747 -0.9615 0.9615 -0.2747 -40.7699 191.8673)" fill-rule="evenodd" clip-rule="evenodd" fill="#C47B40" cx="51.983" cy="111.311" rx="8.031" ry="17.423"/>
		
			<ellipse transform="matrix(0.2747 -0.9615 0.9615 0.2747 1.9416 225.1961)" fill-rule="evenodd" clip-rule="evenodd" fill="#C47B40" cx="150.24" cy="111.311" rx="8.031" ry="17.423"/>
	</g>
	<path fill-rule="evenodd" clip-rule="evenodd" fill="#FFFFFF" d="M73.218,80.676c1.191,0,2.163-0.972,2.163-2.163
		s-0.971-2.163-2.163-2.163s-2.163,0.972-2.163,2.163S72.026,80.676,73.218,80.676z"/>
	<path fill-rule="evenodd" clip-rule="evenodd" fill="#FFFFFF" d="M124.975,80.676c1.191,0,2.163-0.972,2.163-2.163
		s-0.972-2.163-2.163-2.163s-2.163,0.972-2.163,2.163S123.783,80.676,124.975,80.676z"/>
</g>
</svg>
