<?xml version="1.0" encoding="iso-8859-1"?>
<!-- Generator: Adobe Illustrator 19.0.0, SVG Export Plug-In . SVG Version: 6.00 Build 0)  -->
<svg version="1.1" id="Layer_1" xmlns="http://www.w3.org/2000/svg" xmlns:xlink="http://www.w3.org/1999/xlink" x="0px" y="0px"
	 viewBox="0 0 512 512" style="enable-background:new 0 0 512 512;" xml:space="preserve">
<polygon style="fill:#5ECB66;" points="24.597,491.431 291.996,491.431 291.996,337.162 312.565,337.162 312.565,491.431 
	384.557,491.431 384.557,285.469 405.126,285.469 405.126,491.431 487.403,491.431 487.403,167.291 24.597,354.382 "/>
<g>
	<path style="fill:#314E55;" d="M503.443,143.513c-2.842-1.908-6.438-2.28-9.612-1.009L10.456,337.911
		c-3.887,1.572-6.428,5.343-6.428,9.536v154.269c0,5.68,4.6,10.285,10.285,10.285h483.375c5.685,0,10.285-4.605,10.285-10.285
		V152.04C507.972,148.62,506.275,145.427,503.443,143.513z M487.403,491.431h-82.277V285.468h-20.569v205.963h-71.992V337.162
		h-20.569v154.269H24.597V354.382l462.806-187.091V491.431z"/>
	<path style="fill:#314E55;" d="M53.613,218.061c1.376,0,2.772-0.281,4.118-0.869L416.305,59.94l-18.349,41.215
		c-2.32,5.188,0.02,11.269,5.202,13.579c1.366,0.603,2.782,0.894,4.178,0.894c3.937-0.005,7.703-2.275,9.401-6.106l29.287-65.77
		c1.115-2.491,1.185-5.323,0.211-7.869c-0.974-2.546-2.923-4.6-5.414-5.71L375.056,0.89c-5.212-2.305-11.279,0.02-13.579,5.212
		c-2.32,5.188,0.02,11.269,5.202,13.579l44.762,19.929L49.475,198.351c-5.202,2.285-7.573,8.351-5.293,13.554
		C45.879,215.761,49.646,218.061,53.613,218.061z"/>
</g>
<g>
</g>
<g>
</g>
<g>
</g>
<g>
</g>
<g>
</g>
<g>
</g>
<g>
</g>
<g>
</g>
<g>
</g>
<g>
</g>
<g>
</g>
<g>
</g>
<g>
</g>
<g>
</g>
<g>
</g>
</svg>
