<?xml version="1.0" encoding="utf-8"?>
<!-- Generator: Adobe Illustrator 16.0.0, SVG Export Plug-In . SVG Version: 6.00 Build 0)  -->
<!DOCTYPE svg PUBLIC "-//W3C//DTD SVG 1.1//EN" "http://www.w3.org/Graphics/SVG/1.1/DTD/svg11.dtd">
<svg version="1.1" id="Capa_1" xmlns="http://www.w3.org/2000/svg" xmlns:xlink="http://www.w3.org/1999/xlink" x="0px" y="0px"
	 width="1026.281px" height="687.281px" viewBox="0 0 1026.281 687.281" enable-background="new 0 0 1026.281 687.281"
	 xml:space="preserve">
<rect fill="#A5DCF0" width="1026.281" height="687.281"/>
<path fill="#A5DCF0" d="M819.032,258.642c-83.589,0-151.352,67.765-151.352,151.354c0,83.593,67.763,151.357,151.352,151.357
	c83.593,0,151.358-67.766,151.358-151.357C970.39,326.408,902.625,258.642,819.032,258.642z"/>
<polygon fill="#D8EDEE" points="812.115,412.245 792.426,523.733 853.446,520.05 830.227,411.077 "/>
<path fill="#D8EDEE" d="M939.78,501.259c0.031-0.041,0.062-0.082,0.094-0.122c0.213-0.285,0.432-0.565,0.644-0.851
	c0-0.006,0-0.012,0-0.016c13.51-18.152,23.052-39.43,27.332-62.56c-5.987-2.354-13.041-0.548-17.096,4.847
	c-0.542,0.723-1.004,1.48-1.395,2.261c-0.513-0.514-1.065-0.999-1.664-1.447c-6.911-5.19-16.725-3.798-21.918,3.114
	c-4.428,5.894-4.064,13.894,0.423,19.343c-2.143,0.895-4.081,2.351-5.576,4.34c-1.793,2.385-2.668,5.172-2.696,7.942
	c-8.77,0-16.766,5.138-20.438,13.047c-2.501-2.228-5.599-3.839-9.117-4.54c-7.687-1.536-15.214,1.69-19.542,7.64
	c-1.249-0.504-2.56-0.904-3.926-1.177c-0.626-0.125-1.249-0.216-1.872-0.285c0.962-6.797-2.915-13.569-9.623-16.006
	c-7.697-2.797-16.208,1.177-19.003,8.876c-0.311,0.858-0.534,1.727-0.686,2.596c-0.644-0.343-1.323-0.649-2.03-0.908
	c-8.213-2.983-17.291,1.255-20.274,9.469c-0.467,1.287-0.755,2.595-0.88,3.897c-1.251-2.126-3.04-3.86-5.256-4.932
	c0.747-1.104,1.352-2.35,1.765-3.714c1.977-6.509-1.1-13.203-6.872-14.953c-5.223-1.587-10.863,1.422-13.352,6.835
	c-4.784-0.15-9.428,3.274-11.144,8.568c-3.283-7.738-11.044-13.075-19.958-12.835c-5.525,0.145-10.487,2.416-14.148,5.998
	c-1.593-3.31-4.215-6.157-7.707-8.009c-1.622-0.859-3.313-1.444-5.024-1.768c0.128-0.225,0.263-0.457,0.386-0.69
	c4.798-9.044,1.345-20.262-7.697-25.052c-5.255-2.787-11.238-2.784-16.276-0.528c-1.295-3.749-3.962-7.036-7.743-9.039
	c-5.785-3.067-12.586-2.284-17.48,1.44c-1.236-1.43-2.752-2.665-4.523-3.604c-1.757-0.93-3.61-1.49-5.473-1.717
	c4.413,24.772,14.855,47.456,29.751,66.486c0,0,0,0-0.002,0c0.2,0.255,0.404,0.505,0.605,0.759c0.306,0.387,0.61,0.773,0.922,1.157
	c0.249,0.307,0.501,0.611,0.753,0.918c0.29,0.353,0.58,0.707,0.873,1.057c0.266,0.316,0.534,0.631,0.801,0.945
	c0.221,0.257,0.438,0.519,0.659,0.775c0.002,0,0.003-0.002,0.004-0.002c16.802,19.474,38.479,34.622,63.139,43.543
	c0.274,0.004,0.55,0.014,0.829,0.007c7.834-0.21,14.457-5.028,17.356-11.787c1.33,0.215,2.695,0.311,4.09,0.275
	c12.124-0.325,21.689-10.414,21.363-22.539c-0.026-0.984-0.123-1.952-0.274-2.899c0.359-0.751,0.67-1.537,0.921-2.361
	c0.324-1.065,0.52-2.131,0.624-3.188c1.209,2.187,2.927,4.099,5.076,5.527c-1.808,1.494-3.253,3.474-4.112,5.838
	c-1.875,5.163-0.436,10.72,3.228,14.348c-0.479,0.811-0.896,1.675-1.229,2.595c-2.901,7.99,1.222,16.823,9.212,19.723
	c7.988,2.905,16.82-1.221,19.724-9.21c0.998-2.745,1.166-5.593,0.632-8.262c0.057,0.019,0.11,0.043,0.166,0.065
	c5.788,2.102,12.037,0.358,15.947-3.924c2.427-0.051,4.789-0.5,7.002-1.305c-0.018,0.082-0.037,0.164-0.053,0.247
	c-1.194,5.979,0.274,11.869,3.581,16.452c26.505-9.822,49.507-26.855,66.63-48.717c0.014-0.018,0.027-0.034,0.042-0.052
	C938.792,502.553,939.289,501.908,939.78,501.259z M697.004,477.576c-0.005-0.526-0.04-1.052-0.093-1.575
	c0.273,0.471,0.576,0.918,0.894,1.36C697.533,477.425,697.266,477.498,697.004,477.576z"/>
<polygon fill="#FFFFFF" points="814.542,433.342 799.269,511.321 846.6,508.746 828.591,432.527 "/>
<path fill="#FFFFFF" d="M936.494,505.428c13.019-16.006,22.84-34.712,28.471-55.161c-0.892,0.067-1.79,0.208-2.688,0.437
	c-7.143,1.815-11.875,8.275-11.798,15.334c-2.227-0.646-4.651-0.729-7.064-0.116c-5.269,1.337-9.013,5.608-9.943,10.624
	c-0.931,0.061-1.869,0.201-2.806,0.439c-8.155,2.071-13.085,10.36-11.014,18.515c0.456,1.795,1.213,3.433,2.204,4.875
	c-6.734,0.123-13.194,3.273-17.415,8.706c-1.937-2.729-4.599-4.993-7.87-6.466c-7.148-3.216-15.207-1.753-20.754,3.074
	c-1.104-0.771-2.29-1.452-3.563-2.024c-2.951-1.328-6.037-1.943-9.073-1.933c-0.054-6.013-3.785-11.635-9.769-13.809
	c-7.698-2.798-16.208,1.176-19.002,8.875c-0.313,0.858-0.537,1.728-0.686,2.596c-0.646-0.343-1.324-0.65-2.03-0.907
	c-7.09-2.575-14.821,0.234-18.724,6.333c-1.356-0.672-2.82-1.104-4.349-1.229c0.297-1.299,0.414-2.678,0.31-4.101
	c-0.499-6.782-5.781-11.921-11.796-11.478c-5.442,0.4-9.62,5.239-9.995,11.182c-2.681,0.94-4.857,3.041-6.128,5.753
	c-3.985-4.464-9.833-7.213-16.281-7.041c-7.769,0.205-14.436,4.595-17.917,10.952c-2.073-1.051-4.43-1.617-6.916-1.553
	c-2.615,0.071-5.043,0.843-7.127,2.117c1.989-5.461,1.725-11.713-1.254-17.227c-3.692-6.837-10.619-10.803-17.861-11.037
	c0.001-2.323-0.56-4.684-1.741-6.87c-3.496-6.476-11.224-9.2-17.912-6.615c-0.304-2.586-1.085-5.158-2.399-7.588
	c-3.859-7.148-11.245-11.175-18.84-11.101c7.251,27.271,21.925,51.51,41.725,70.433c-0.005,0.002-0.011,0.003-0.017,0.005
	c16.323,15.603,36.132,27.58,58.14,34.662c-0.002,0-0.003,0.002-0.003,0.003c0.259,0.084,0.521,0.161,0.779,0.242
	c0.573,0.182,1.146,0.362,1.722,0.538c0.406,0.121,0.814,0.239,1.222,0.36c0.496,0.145,0.992,0.291,1.49,0.433
	c0.5,0.141,1.003,0.275,1.503,0.412c0.406,0.109,0.813,0.223,1.222,0.329c0.6,0.157,1.204,0.309,1.81,0.459
	c0.31,0.077,0.619,0.156,0.931,0.233c0.706,0.171,1.416,0.334,2.127,0.496c0.209,0.047,0.418,0.097,0.627,0.143
	c0.809,0.181,1.622,0.352,2.436,0.52c0.114,0.024,0.227,0.048,0.341,0.071c0.907,0.185,1.821,0.36,2.734,0.528
	c0.019,0.004,0.039,0.008,0.058,0.011c8.896,1.632,18.062,2.491,27.428,2.491c1.286,0,2.568-0.021,3.848-0.054
	c0.427-0.011,0.854-0.026,1.28-0.04c0.854-0.027,1.704-0.064,2.555-0.106c0.499-0.026,0.999-0.05,1.498-0.08
	c0.826-0.05,1.648-0.109,2.47-0.173c0.861-0.065,1.72-0.142,2.576-0.221c0.699-0.065,1.399-0.13,2.095-0.204
	c0.707-0.077,1.41-0.162,2.113-0.247c0.49-0.06,0.979-0.121,1.468-0.185c0.74-0.099,1.479-0.198,2.217-0.307
	c0.42-0.062,0.839-0.129,1.26-0.195c7.372-1.144,14.57-2.813,21.55-4.981c0,0.005,0,0.009,0,0.014
	c28.178-8.747,52.821-25.512,71.284-47.617c0.002,0,0.004,0,0.009,0c0.16-0.193,0.314-0.391,0.473-0.583
	c0.258-0.313,0.521-0.623,0.777-0.938C936.5,505.431,936.497,505.43,936.494,505.428z M724.491,519.843
	c0.591-0.384,1.155-0.795,1.695-1.228c-0.122,0.552-0.225,1.11-0.282,1.685C725.441,520.13,724.968,519.982,724.491,519.843z"/>
<path fill="#FFFFFF" d="M915.201,335.599c-0.584,0.115-1.144,0.297-1.665,0.533c-0.026-0.33-0.069-0.66-0.135-0.99
	c-0.911-4.681-5.446-7.734-10.126-6.821c-2.576,0.502-4.658,2.103-5.859,4.22c-1.755-1.785-4.344-2.684-6.981-2.169
	c-3.208,0.627-5.558,3.155-6.113,6.187c-0.997-0.173-2.043-0.171-3.096,0.033c-3.438,0.672-5.99,3.316-6.711,6.528h49.682
	c0.008-0.514-0.038-1.036-0.14-1.559C923.256,337.468,919.293,334.8,915.201,335.599z M898.041,342.624
	c0.079-0.104,0.159-0.212,0.232-0.32c0.162,0.193,0.333,0.38,0.51,0.559C898.539,342.771,898.292,342.693,898.041,342.624z"/>
<path fill="#FFFFFF" d="M755.719,368.398c-0.458,0.089-0.894,0.231-1.302,0.415c-0.021-0.256-0.055-0.514-0.105-0.772
	c-0.713-3.654-4.253-6.039-7.905-5.326c-2.013,0.393-3.637,1.643-4.573,3.296c-1.37-1.394-3.391-2.095-5.451-1.693
	c-2.503,0.488-4.341,2.464-4.771,4.829c-0.781-0.135-1.597-0.133-2.42,0.026c-2.683,0.524-4.676,2.588-5.236,5.096h38.785
	c0.005-0.399-0.029-0.807-0.111-1.218C762.007,369.858,758.914,367.774,755.719,368.398z M742.322,373.88
	c0.063-0.08,0.124-0.165,0.182-0.25c0.124,0.15,0.26,0.298,0.396,0.437C742.711,373.997,742.517,373.936,742.322,373.88z"/>
<g>
	<g>
		<g>
			<g>
				<path fill="#F05A2A" d="M821.927,400.777c-11.117,0.28-20.618,12.803-20.392,21.709c0.228,8.903,22.021,42.604,22.021,42.604
					c6.152-15.43,20.054-34.91,19.835-43.662C843.168,412.672,833.042,400.494,821.927,400.777z"/>
				<path fill="#F8EC3A" d="M821.945,401.419c-9.086,0.229-16.85,10.467-16.664,17.741c0.182,7.28,17.994,34.819,17.994,34.819
					c5.029-12.608,16.394-28.529,16.212-35.685C839.304,411.142,831.032,401.19,821.945,401.419z"/>
				<path fill="#FFFFFF" d="M821.941,401.344c-7.002,0.177-12.982,8.067-12.84,13.673c0.142,5.607,13.868,26.829,13.868,26.829
					c3.873-9.716,12.628-21.984,12.489-27.498C835.32,408.835,828.944,401.169,821.941,401.344z"/>
			</g>
			<g>
				<path fill="#F05A2A" d="M813.503,405.397c-7.253-1.437-15.243,5.308-16.395,11.117c-1.149,5.811,8.083,30.852,8.083,30.852
					c6.242-9.112,18.102-19.73,19.231-25.443C825.555,416.21,820.76,406.833,813.503,405.397z"/>
				<path fill="#F8EC3A" d="M813.42,405.816c-5.931-1.173-12.457,4.338-13.396,9.087c-0.942,4.748,6.606,25.217,6.606,25.217
					c5.1-7.452,14.793-16.128,15.716-20.796C823.271,414.653,819.349,406.99,813.42,405.816z"/>
				<path fill="#FFFFFF" d="M813.429,405.769c-4.567-0.907-9.597,3.341-10.324,7c-0.724,3.66,5.091,19.43,5.091,19.43
					c3.93-5.737,11.401-12.425,12.112-16.022C821.021,412.579,818,406.672,813.429,405.769z"/>
			</g>
			<g>
				<path fill="#F05A2A" d="M816.825,403.641c-4.309,1.87-6.047,8.281-4.546,11.73c1.499,3.452,15.375,13.197,15.375,13.197
					c-0.037-7.017,2.322-16.849,0.85-20.242C827.029,404.934,821.135,401.769,816.825,403.641z"/>
				<path fill="#F8EC3A" d="M816.933,403.891c-3.52,1.528-4.94,6.766-3.714,9.587c1.224,2.821,12.562,10.786,12.562,10.786
					c-0.023-5.735,1.901-13.771,0.696-16.544C825.272,404.947,820.454,402.361,816.933,403.891z"/>
				<path fill="#FFFFFF" d="M816.919,403.861c-2.711,1.18-3.806,5.218-2.862,7.391c0.944,2.171,9.682,8.309,9.682,8.309
					c-0.021-4.421,1.465-10.61,0.534-12.748C823.346,404.674,819.634,402.683,816.919,403.861z"/>
			</g>
		</g>
	</g>
	<g>
		<path fill="#F7CF9C" d="M840.885,260.219L818.806,219.3l-20.136,40.71c6.66-0.896,13.455-1.368,20.361-1.368
			C826.454,258.642,833.749,259.187,840.885,260.219z"/>
		<path fill="#F7CF9C" d="M792.109,273.284l-0.099,0.2h0.002c0,0.003-0.002,0.004-0.002,0.007c-0.048,3.886,0,41.791,0,41.791
			h56.041V273.49h-0.004l-7.162-13.271c-7.137-1.032-14.432-1.577-21.854-1.577c-6.907,0-13.701,0.472-20.361,1.368l-6.496,13.135
			C792.133,273.189,792.138,273.239,792.109,273.284z"/>
		<path fill="#EABD8C" d="M818.806,219.3l9.99,39.663c4.075,0.26,8.107,0.679,12.089,1.255L818.806,219.3z"/>
		<path fill="#EABD8C" d="M832.454,283.728h15.598l-0.004-10.237l-7.162-13.271c-3.981-0.577-8.016-0.995-12.091-1.255l3.659,14.526
			V283.728L832.454,283.728z"/>
		<path fill="#EABD8C" d="M818.806,219.3l-20.145,40.711c3.938-0.529,7.923-0.911,11.948-1.132L818.806,219.3z"/>
		<path fill="#EABD8C" d="M791.991,283.728h15.596V273.49l3.023-14.611c-4.025,0.221-8.011,0.603-11.948,1.132l-6.669,13.479
			L791.991,283.728z"/>
		<path fill="#E24B77" d="M841.331,370.098l-42.609,0.004c-3.706,0-6.709,2.424-6.711,5.411v26.73c0,2.991,3.003,5.409,6.711,5.416
			h42.609c3.71,0,6.717-2.424,6.715-5.412l0.002-26.732C848.047,372.523,845.043,370.102,841.331,370.098z"/>
		<path fill="#FFDC24" d="M847.787,273.49c0.088,0.396,0.15,0.802,0.15,1.22c0,3.545-3.537,6.421-7.892,6.421
			c-4.36,0-7.315-2.524-7.315-6.069c0-0.417-0.512-1.177-0.421-1.572c-0.231,5.385-7.79,7.099-12.454,7.099
			c-4.692,0-11.805-1.669-12.247-6.781c-0.211,3.394-3.627,6.096-7.847,6.096c-3.895,0-7.106-2.296-7.751-5.314l0.002,101.575
			h56.039l-0.006-102.675H847.787z"/>
		<polygon fill="#221F1F" points="829.01,238.208 818.806,219.3 809.449,238.212 		"/>
		<polygon fill="#D0D2D3" points="792.01,387.923 848.045,387.915 848.051,375.07 792.012,375.07 		"/>
		<path fill="#E8BF15" d="M799.761,278.802c-3.895,0-7.106-2.296-7.751-5.312l0.002,101.574l15.493,0.006l0.004-101.553
			C806.846,276.519,803.64,278.802,799.761,278.802z"/>
		<path fill="#E8BF15" d="M840.252,278.802c-3.917,0-7.148-2.293-7.799-5.312v101.574l15.592,0.006l0.002-101.553
			C847.383,276.519,844.152,278.802,840.252,278.802z"/>
		<rect x="807.505" y="375.07" fill="#F0F1F1" width="24.948" height="12.854"/>
		<rect x="807.505" y="387.918" fill="#F45D81" width="24.948" height="19.741"/>
	</g>
</g>
</svg>
