<?xml version="1.0" encoding="utf-8"?>
<!-- Generator: Adobe Illustrator 16.0.0, SVG Export Plug-In . SVG Version: 6.00 Build 0)  -->
<!DOCTYPE svg PUBLIC "-//W3C//DTD SVG 1.1//EN" "http://www.w3.org/Graphics/SVG/1.1/DTD/svg11.dtd">
<svg version="1.1" id="Layer_1" xmlns="http://www.w3.org/2000/svg" xmlns:xlink="http://www.w3.org/1999/xlink" x="0px" y="0px"
	 width="58.8px" height="258.6px" viewBox="0 0 58.8 258.6" enable-background="new 0 0 58.8 258.6" xml:space="preserve">
<g>
	<path d="M48.9,136.5c-3,3.801-4.5,9.6-4.5,17.4v70.799c0,10.397-2.93,18.398-8.798,24C28.729,255.3,16.861,258.6,0,258.6V255.9
		c9.201,0,14.602-4.491,16.2-13.468c0.6-3.394,0.9-10.88,0.9-22.448v-63.45c0-8.977,5.564-16.758,16.683-23.344
		c4.453-2.592,7.889-3.891,10.313-3.891c-3.839,0-8.892-2.391-15.164-7.181c-7.884-5.986-11.832-12.67-11.832-20.053v-63.45
		c0-14.166-0.947-23.691-2.85-28.58C12.352,5.147,7.603,2.7,0,2.7V0c12.614,0,22.561,2.001,29.84,6c9.708,5.4,14.56,14.7,14.56,27.9
		v70.8c0,7.8,1.5,13.604,4.5,17.4c2.203,2.602,5.503,4.5,9.9,5.7v3C54.403,132,51.103,133.903,48.9,136.5z"/>
</g>
</svg>
