<?xml version="1.0" encoding="utf-8"?>
<!-- Generator: Adobe Illustrator 16.0.0, SVG Export Plug-In . SVG Version: 6.00 Build 0)  -->
<!DOCTYPE svg PUBLIC "-//W3C//DTD SVG 1.1//EN" "http://www.w3.org/Graphics/SVG/1.1/DTD/svg11.dtd">
<svg version="1.1" id="Layer_1" xmlns="http://www.w3.org/2000/svg" xmlns:xlink="http://www.w3.org/1999/xlink" x="0px" y="0px"
	 width="50px" height="258.287px" viewBox="0 0 50 258.287" enable-background="new 0 0 50 258.287" xml:space="preserve">
<g>
	<path d="M40.1,136.188c-4.1,3.583-12.1,9.6-12.1,17.4v70.799c0,10.397-2.93,18.398-8.798,24C12.33,254.987,4.197,258.2,0,258.287
		V257c8.188-3.063,14.602-5.903,16.2-14.88c0.6-3.394,0.9-10.88,0.9-22.448v-63.45c0-8.977,5.564-16.758,16.683-23.344
		c4.453-2.592,7.889-3.891,10.313-3.891c-3.839,0-8.892-2.391-15.164-7.181c-7.884-5.986-11.832-12.67-11.832-20.053v-63.45
		c0-14.166-0.947-23.691-2.85-28.58C12.352,4.834,7.271,3.104,0,1.313V0c5.453,1.323,6.22,0.876,13.5,4.875
		c9.708,5.4,14.5,15.512,14.5,28.712v70.8c0,7.8,7.917,14.134,12.1,17.4c2.687,2.098,5.503,4.5,9.9,5.7v3
		C45.603,131.688,42.665,133.946,40.1,136.188z"/>
</g>
</svg>
