<?xml version="1.0" encoding="utf-8"?>
<!-- Generator: Adobe Illustrator 16.0.0, SVG Export Plug-In . SVG Version: 6.00 Build 0)  -->
<!DOCTYPE svg PUBLIC "-//W3C//DTD SVG 1.1//EN" "http://www.w3.org/Graphics/SVG/1.1/DTD/svg11.dtd">
<svg version="1.1" id="OBJECTS" xmlns="http://www.w3.org/2000/svg" xmlns:xlink="http://www.w3.org/1999/xlink" x="0px" y="0px"
	 width="1200px" height="156.954px" viewBox="0 0 1200 156.954" enable-background="new 0 0 1200 156.954" xml:space="preserve">
<g>
	<g>
		<g>
			<path fill-rule="evenodd" clip-rule="evenodd" fill="#E9FAFB" d="M608.096,123.774c-2.73-10.996-10.033-21.533-20.838-26.318
				c-11.642-5.166-24.42-2.766-35.072,3.551c-0.291,0.178-0.642-0.002-0.754-0.299c-4.837-13.422-15.879-23.196-30.813-23.938
				c-13.493-0.67-26.819,4.729-36.991,13.158c-0.32,0.256-0.718,0.145-0.855-0.221c-3.25-8.42-7.006-17.162-13.307-23.896
				c-6.472-6.92-15.508-11.276-25.255-11.069c-17.452,0.372-30.655,4.832-40.638,23.264c-0.188,0.318-0.789-0.032-0.771-0.432
				c0.794-17.999-12.977-33.334-31.58-34.457c-8.725-0.526-16.448,0.514-22.99,6.609c-5.453,5.075-9.773,11.174-15.281,16.201
				c-0.33,0.296-0.882,0.092-0.887-0.354c-0.103-10.135-5.277-20.333-15.109-24.583c-10.465-4.514-21.457-0.781-29.111,6.937
				c-0.295,0.305-0.895,0.085-0.873-0.354c0.855-17.248-12.074-30.871-29.13-33.668c-8.263-1.353-16.52,0.2-22.688,5.992
				c-5.485,5.173-8.932,11.979-11.743,18.809c-0.232,0.528-0.945,0.445-1.021-0.133c-1.026-10.32-9.025-19.801-19.391-22.461
				c-3.951-1.017-8.277-1.01-12.037,0.63c-8.626,3.497-7.805,12.026-8.626,19.497c-0.138,1.259-1.947,1.314-2,0
				c-0.407-10.07-10.247-16.887-19.521-18.334c-12.772-1.992-19.528,7.32-23.182,18.267c-0.291,0.87-1.726,1.036-1.929,0
				C129.798,6.062,80.993-6.222,67.53,24.746c-0.317,0.729-1.366,0.569-1.727,0c-9.211-14.556-27.779-18.345-38.94-3.667
				c-0.42,0.553-1.345,0.734-1.727,0c-3.261-6.271-7.173-13.031-13.23-17.01C8.152,1.604,4.169,0.367,0,0v154.933l190,0.143h253.29
				c31.357,0,62.774-0.455,94.127,0.046c15.916,0.255,32.344,1.121,47.985-2.396c6.683-1.504,13.906-3.887,18.664-8.98
				C609.219,138.24,609.837,130.778,608.096,123.774z"/>
			<path fill-rule="evenodd" clip-rule="evenodd" fill="#E9FAFB" d="M1189.398,10.205c-9.669-2.336-19.438,0.067-24.871,8.875
				c-0.424,0.688-1.285,0.596-1.727,0c-8.02-10.826-22.129-13.999-34.967-12.444c-6.928,0.839-13.692,3.164-17.319,9.605
				c-2.663,4.731-3.775,9.943-4.554,15.266c-0.13,0.89-1.435,0.929-1.827,0.239c-6.16-10.835-20.374-12.693-31.708-11.609
				c-13.608,1.302-23.431,8.788-24.095,23.104c-0.053,1.147-1.598,1.337-1.964,0.266c-2.012-5.88-9.545-9.076-14.884-11.225
				c-6.928-2.789-13.579-2.488-20.794-3.297L1010,29.122c-15.516-0.094-35.734,12.78-38.35,26.586
				c-0.076,0.41-0.758,0.506-0.934,0.119c-2.395-5.126-5.934-10.219-11.402-12.565c-4.545-1.948-9.633-1.856-14.273-0.248
				c-9.994,3.462-18.021,12.064-21.563,21.694c-0.148,0.413-0.81,0.551-0.934,0.119c-7.764-26.252-63.32-22.224-59.533,6.748
				c0.053,0.373-0.461,0.629-0.752,0.432c-8.223-5.43-18.496-10.421-28.705-9.388c-11.762,1.188-18.036,10.706-20.771,21.089
				c-0.125,0.482-0.855,0.474-1.004,0c-3.075-11.062-15.12-17.467-26.393-17.133c-5.132,0.151-10.569,1.602-14.248,5.26
				c-4.281,4.231-5.224,10.033-4.471,15.74c0.074,0.58-0.842,0.648-1.002,0.133c-0.342-1.04-0.705-2.068-1.191-3.054
				c-12.851-26.467-71.161-23.288-68.525,10.921c0.025,0.344-0.421,0.677-0.652,0.482c-14.176-11.631-42.107-12.909-54.598,5.928
				c-6.071,9.135-9.359,22.081-1.605,31.283c7.027,8.34,18.092,10.932,28.612,12.014c66.598,6.866,133.61,8.568,200.551,8.543
				c47.251-0.018,94.495-0.867,141.743-1.375l190,1.375V17.93C1197.444,14.23,1193.967,11.31,1189.398,10.205z"/>
		</g>
		<g>
			<path fill-rule="evenodd" clip-rule="evenodd" fill="#C5F1F3" d="M514.082,119.206c-1.923-4.835-5.235-9.219-9.463-12.279
				c-3.86-2.794-8.551-4.89-13.41-4.724c-5.681,0.194-10.308,3.15-13.672,7.624c-0.244,0.325-0.796,0.339-0.914-0.119
				c-1.458-5.654-5.503-11.173-11.766-11.725c-6.203-0.546-11.251,3.207-14.32,8.344c-0.274,0.46-0.879,0.219-0.932-0.252
				c-0.887-7.971-5.018-18.396-14.462-18.827c-9.331-0.427-15.581,8.126-18.556,15.96c-0.176,0.461-0.8,0.49-0.965,0
				c-1.624-4.835-7.021-9.081-12.33-7.323c-4.251,1.407-5.525,5.495-7.756,8.942c-0.195,0.303-0.679,0.346-0.863,0
				c-3.87-7.234-9.41-14.27-18.284-14.781c-4.221-0.242-8.975,0.143-12.074,3.369c-2.618,2.725-4.269,6.248-6.278,9.412
				c-0.26,0.41-0.938,0.261-0.932-0.252c0.047-3.787-0.487-8.221-3.435-10.954c-2.342-2.172-5.521-2.911-8.653-2.634
				c-7.009,0.62-13.745,4.814-17.98,10.34c-0.294,0.385-0.907,0.28-0.932-0.252c-0.367-8.055-0.521-18.772-8.677-23.16
				c-9.442-5.079-21.119-0.699-24.841,9.293c-0.205,0.551-0.912,0.425-0.982-0.133c-1.026-8.092-5.453-16.479-14.118-18.195
				c-8.249-1.633-15.919,2.844-21.028,9.049c-0.256,0.311-0.727,0.104-0.836-0.221c-2.703-8.06-0.418-20.628-8.564-25.878
				c-5.308-3.421-13.051-4.306-18.583-0.907c-5.482,3.368-8.269,9.331-8.37,15.652c-0.011,0.659-0.931,0.627-1,0
				c-1.088-9.821-8.337-17.7-18.713-16.67c-3.572,0.354-6.776,1.625-9.486,3.541c-3.688,4.169-5.43,9.643-6.275,15.061
				c-0.139,0.887-1.432,0.933-1.828,0.239c-2.271-3.972-4.998-8.328-9.636-9.791c-6.343-2.001-11.999,0.155-13.87,6.886
				c-0.212,0.762-1.467,1.071-1.828,0.239c-2.985-6.89-8.738-12.3-16.285-13.749c-9.36-1.799-15.642,3.809-22.145,9.617
				c-0.537,0.48-1.486,0.328-1.671-0.441c-4.891-20.357-32.068-19.73-38.404-0.666c-0.328,0.985-1.576,0.915-1.929,0
				c-3.064-7.94-10.31-14.212-19.26-11.447c-8.014,2.476-13.05,9.371-14.478,17.447c-0.147,0.833-1.469,0.997-1.828,0.239
				c-2.417-5.105-5.978-10.407-12.057-11.277c-7.551-1.081-15.415,2.206-19.217,8.943c-0.439,0.779-1.575,0.565-1.828-0.239
				C6.784,57.465,3.912,53.435,0,50.835v104.098l190,0.143h253.29c21.446,0,42.921-0.207,64.384-0.182
				c4.407-5.886,6.905-13.033,7.634-20.444C515.807,129.36,516.005,124.042,514.082,119.206z"/>
			<path fill-rule="evenodd" clip-rule="evenodd" fill="#C5F1F3" d="M1196.596,62.055c-3.762,2.631-6.228,6.388-8.401,10.358
				c-0.392,0.716-1.305,0.571-1.727,0c-5.069-6.868-10.315-17.876-21.006-13.939c-7.749,2.853-8.592,12.333-9.834,19.367
				c-0.145,0.819-1.484,1.014-1.827,0.239c-5.08-11.477-23.317-16.183-27.173-1.239c-0.23,0.895-1.788,1.017-1.928,0
				c-1.598-11.586-14.68-24.72-27.142-18.05c-8.129,4.352-9.387,14.868-10.931,23.05c-0.166,0.881-1.415,0.939-1.827,0.239
				c-7.234-12.272-22.432-11.569-29.606,0.333c-0.42,0.696-1.654,0.644-1.827-0.239c-1.354-6.899-4.406-15.298-11.944-17.494
				c-4.07-1.187-10.111-1.696-13.409,1.619c-2.872,2.887-3.787,6.64-4.386,10.542c-0.132,0.864-1.453,0.96-1.827,0.239
				c-2.705-5.207-7.059-8.863-11.78-12.148L1010,64.937c-11.181-5.753-29.19,2.434-31.412,15.271
				c-0.064,0.369-0.598,0.482-0.836,0.221c-4.356-4.773-10.674-7.503-16.703-3.934c-4.863,2.879-8.028,7.823-9.461,13.213
				c-0.092,0.343-0.588,0.513-0.836,0.221c-3.637-4.285-9.759-7.076-15.38-7.104c-2.707-0.014-5.718,0.562-7.613,2.675
				c-2.245,2.502-2.474,5.873-2.153,9.076c0.058,0.579-0.827,0.654-0.982,0.133c-2.699-9.085-10.269-16.161-20.229-13.343
				c-9.107,2.577-15.323,10.959-16.289,20.21c-0.054,0.514-0.626,0.658-0.932,0.252c-2.666-3.542-6.713-6.836-11.106-7.871
				c-5.692-1.342-8.66,2.467-9.479,7.752c-0.064,0.411-0.749,0.506-0.914,0.119c-2.338-5.463-6.137-9.896-12.568-9.752
				c-6.297,0.142-8.873,4.589-12.646,8.854c-0.227,0.257-0.613,0.149-0.785-0.102c-3.174-4.627-8.201-9.035-14.213-8.552
				c-6.021,0.484-10.218,5-12.924,10.052c-0.168,0.314-0.701,0.338-0.863,0c-2.995-6.248-9.936-10.857-16.852-11.359
				c-3.076-0.225-6.479,0.26-8.865,2.396c-2.935,2.624-3.803,6.407-3.852,10.212c-0.006,0.48-0.693,0.705-0.932,0.252
				c-4.862-9.258-18.059-11.095-23.137-1c-0.172,0.342-0.684,0.31-0.863,0c-2.199-3.773-4.563-7.771-8.007-10.556
				c-3.655-2.958-8.141-4.1-12.805-3.753c-4.616,0.344-9.512,1.197-13.091,4.41c-3.412,3.063-4.801,7.118-4.666,11.646
				c0.016,0.508-0.683,0.669-0.932,0.252c-6.193-10.352-23.969-8.711-26.086,3.881c-0.064,0.381-0.592,0.469-0.836,0.221
				c-6.248-6.338-16.054-10.096-23.176-2.752c-6.423,6.622-7.443,16.885-7.65,25.688c-0.096,4.098,0.1,8.33,0.846,12.439
				c2.307,0.426,4.633,0.742,6.935,0.979c66.598,6.866,133.61,8.568,200.551,8.543c47.251-0.018,94.495-0.867,141.743-1.375
				l190,4.504V60.462C1198.828,60.785,1197.685,61.294,1196.596,62.055z"/>
		</g>
	</g>
</g>
</svg>
