<?xml version="1.0" encoding="utf-8"?>
<!-- Generator: Adobe Illustrator 16.0.0, SVG Export Plug-In . SVG Version: 6.00 Build 0)  -->
<!DOCTYPE svg PUBLIC "-//W3C//DTD SVG 1.1//EN" "http://www.w3.org/Graphics/SVG/1.1/DTD/svg11.dtd">
<svg version="1.1" id="Layer_1" xmlns="http://www.w3.org/2000/svg" xmlns:xlink="http://www.w3.org/1999/xlink" x="0px" y="0px"
	 width="1164.492px" height="895.466px" viewBox="0 0 1164.492 895.466" enable-background="new 0 0 1164.492 895.466"
	 xml:space="preserve">
<g>
	<g>
		<g>
			<g>
				<path fill="#782008" d="M1163.265,69.912c-11.811-77.911-104.791-69.66-104.791-69.66H690.314H474.19H106.018
					c0,0-92.979-8.251-104.784,69.66L0,86.972v610.134l1.234,17.063c11.805,77.915,104.784,69.661,104.784,69.661H474.19h216.125
					h368.159c0,0,92.98,8.254,104.791-69.661l1.228-17.063V86.972L1163.265,69.912z"/>
				<g>
					<path fill="#DA670E" d="M32.113,28.497C17.281,38.663,5.04,54.452,1.234,79.041L0,95.754v597.842l1.234,16.71
						c3.929,25.372,16.821,41.369,32.266,51.49l547.512-366.187L32.113,28.497z"/>
					<path fill="#782008" d="M33.5,761.796c31.075,20.347,72.518,16.765,72.518,16.765H474.19h216.125h368.159
						c0,0,40.369,3.505,71.279-15.942L581.012,395.609L33.5,761.796z"/>
					<path fill="#BA4517" d="M1058.474,10.786H690.314H474.19H106.018c0,0-42.695-3.681-73.905,17.71l548.899,367.113
						l550.133-367.945C1100.065,7.213,1058.474,10.786,1058.474,10.786z"/>
					<path fill="#782008" d="M1129.753,762.618c15.998-10.059,29.484-26.277,33.512-52.313l1.228-16.71V95.754l-1.228-16.713
						c-3.916-25.273-16.734-41.256-32.119-51.376L581.012,395.609L1129.753,762.618z"/>
				</g>
				<path fill="#174416" d="M1115.437,105.021c-10.828-70.047-96.152-62.638-96.152-62.638H681.419h-198.34H145.215
					c0,0-85.318-7.41-96.153,62.638l-1.136,15.341v548.636l1.136,15.339c10.835,70.059,96.153,62.638,96.153,62.638h337.864h198.34
					h337.865c0,0,85.324,7.421,96.152-62.638l1.13-15.339V120.361L1115.437,105.021z"/>
				<path fill="#247322" d="M1107.462,104.087c-10.662-69.013-94.703-61.705-94.703-61.705H679.934H484.565H151.747
					c0,0-84.053-7.309-94.716,61.705l-1.111,15.108v540.431l1.111,15.111c10.663,69.007,94.716,61.695,94.716,61.695h332.818
					h195.369h332.825c0,0,84.041,7.312,94.703-61.695l1.124-15.111V119.195L1107.462,104.087z"/>
				<g>
					<path fill="#441309" d="M46.846,60.845c0,3.64-3.677,6.587-8.22,6.587c-4.531,0-8.214-2.947-8.214-6.587
						c0-3.628,3.683-6.584,8.214-6.584C43.168,54.261,46.846,57.217,46.846,60.845z"/>
					<path fill="#441309" d="M78.081,33.837c0,3.275-3.309,5.933-7.397,5.933c-4.095,0-7.397-2.658-7.397-5.933
						c0-3.266,3.303-5.93,7.397-5.93C74.771,27.907,78.081,30.571,78.081,33.837z"/>
					<path fill="#321007" d="M1113.534,60.845c0,3.64,3.683,6.587,8.226,6.587c4.536,0,8.208-2.947,8.208-6.587
						c0-3.628-3.672-6.584-8.208-6.584C1117.217,54.261,1113.534,57.217,1113.534,60.845z"/>
					<path fill="#321007" d="M1082.312,33.837c0,3.275,3.314,5.933,7.397,5.933c4.082,0,7.397-2.658,7.397-5.933
						c0-3.266-3.315-5.93-7.397-5.93C1085.626,27.907,1082.312,30.571,1082.312,33.837z"/>
				</g>
				<g>
					<path fill="#441309" d="M46.846,727.438c0-3.64-3.677-6.59-8.22-6.59c-4.531,0-8.214,2.95-8.214,6.59
						c0,3.635,3.683,6.581,8.214,6.581C43.168,734.02,46.846,731.073,46.846,727.438z"/>
					<path fill="#441309" d="M78.081,754.44c0-3.266-3.309-5.93-7.397-5.93c-4.095,0-7.397,2.664-7.397,5.93
						c0,3.272,3.303,5.931,7.397,5.931C74.771,760.371,78.081,757.713,78.081,754.44z"/>
					<path fill="#321007" d="M1113.534,727.438c0-3.64,3.683-6.59,8.226-6.59c4.536,0,8.208,2.95,8.208,6.59
						c0,3.635-3.672,6.581-8.208,6.581C1117.217,734.02,1113.534,731.073,1113.534,727.438z"/>
					<path fill="#321007" d="M1082.312,754.44c0-3.266,3.314-5.93,7.397-5.93c4.082,0,7.397,2.664,7.397,5.93
						c0,3.272-3.315,5.931-7.397,5.931C1085.626,760.371,1082.312,757.713,1082.312,754.44z"/>
				</g>
				<defs>
					<filter id="Adobe_OpacityMaskFilter" filterUnits="userSpaceOnUse" x="10.682" y="16.056" width="774.135" height="536.171">
						<feFlood  style="flood-color:white;flood-opacity:1" result="back"/>
						<feBlend  in="SourceGraphic" in2="back" mode="normal"/>
					</filter>
				</defs>
				<mask maskUnits="userSpaceOnUse" x="10.682" y="16.056" width="774.135" height="536.171" id="SVGID_1_">
					<g filter="url(#Adobe_OpacityMaskFilter)">
						<defs>
							
								<filter id="Adobe_OpacityMaskFilter_1_" filterUnits="userSpaceOnUse" x="10.682" y="16.056" width="774.135" height="536.171">
								<feFlood  style="flood-color:white;flood-opacity:1" result="back"/>
								<feBlend  in="SourceGraphic" in2="back" mode="normal"/>
							</filter>
						</defs>
						<mask maskUnits="userSpaceOnUse" x="10.682" y="16.056" width="774.135" height="536.171" id="SVGID_1_">
							<g filter="url(#Adobe_OpacityMaskFilter_1_)">
							</g>
						</mask>
						
							<radialGradient id="SVGID_2_" cx="-1283.7031" cy="-220.645" r="642.4818" gradientTransform="matrix(1.7842 0 0 1.4301 1849.0786 -151.8726)" gradientUnits="userSpaceOnUse">
							<stop  offset="0.0022" style="stop-color:#FFFFFF"/>
							<stop  offset="0.1645" style="stop-color:#FCFCFC"/>
							<stop  offset="0.2947" style="stop-color:#F2F2F2"/>
							<stop  offset="0.4138" style="stop-color:#E1E1E1"/>
							<stop  offset="0.5262" style="stop-color:#C9C9C9"/>
							<stop  offset="0.6341" style="stop-color:#AAAAAA"/>
							<stop  offset="0.7384" style="stop-color:#858585"/>
							<stop  offset="0.8401" style="stop-color:#585858"/>
							<stop  offset="0.937" style="stop-color:#252525"/>
							<stop  offset="1" style="stop-color:#000000"/>
						</radialGradient>
						<path mask="url(#SVGID_1_)" fill="url(#SVGID_2_)" d="M10.682,552.228l1.658-449.224c0,0-11.51-82.988,113.403-86.948h659.074
							l-18.079,18.447H137.247c0,0-96.969,3.944-98.621,67.181v421.562L10.682,552.228z"/>
					</g>
				</mask>
				
					<radialGradient id="SVGID_3_" cx="-1283.7031" cy="-220.645" r="642.4818" gradientTransform="matrix(1.7842 0 0 1.4301 1849.0786 -151.8726)" gradientUnits="userSpaceOnUse">
					<stop  offset="0.0022" style="stop-color:#FFFFFF"/>
					<stop  offset="0.9102" style="stop-color:#FFFFFF"/>
					<stop  offset="1" style="stop-color:#FFFFFF"/>
				</radialGradient>
				<path fill="url(#SVGID_3_)" d="M10.682,552.228l1.658-449.224c0,0-11.51-82.988,113.403-86.948h659.074l-18.079,18.447H137.247
					c0,0-96.969,3.944-98.621,67.181v421.562L10.682,552.228z"/>
			</g>
		</g>
	</g>
	<g>
		<g>
			<g>
				<path fill="#E7C39D" d="M965.021,783.813c0,0-0.086,66.189,25.532,109.668c0,0,4.186,6.041,7.845-2.959
					c3.665-9.009-9.828-68.66-6.618-102.945L965.021,783.813z"/>
				<path fill="#70B3A2" d="M975.666,857.683c3.604,12.428,8.428,24.838,14.887,35.799c0,0,4.186,6.041,7.845-2.959
					c1.7-4.178-0.288-19.239-2.591-37.609C989.398,855.564,982.682,857.222,975.666,857.683z"/>
				<path fill="#124493" d="M991.902,856.001c1.363-0.498,2.763-0.854,4.119-1.342c-0.066-0.577-0.141-1.16-0.215-1.746
					c-6.408,2.651-13.125,4.309-20.141,4.77c0.159,0.55,0.337,1.102,0.509,1.654C978.729,859.521,988.569,857.191,991.902,856.001z"
					/>
				<path fill="#124493" d="M992.934,859.073c1.105-0.381,2.334-1.157,3.451-1.575c-0.086-0.636-0.166-1.268-0.24-1.905
					c-1.326,0.463-2.695,0.775-4.002,1.276c-4.021,1.528-13.844,3.45-15.697,3.376c0.227,0.753,0.473,1.495,0.705,2.24
					C982.603,862.658,987.875,860.829,992.934,859.073z"/>
				<path fill="#C10010" d="M988.612,872.944c-1.468,0.57-4.642,2.19-6.182,4.109c2.37,5.703,5.064,11.229,8.122,16.428
					c0,0,4.186,6.041,7.845-2.959c1.019-2.518,0.706-8.987-0.208-17.741C995.426,871.378,991.65,871.759,988.612,872.944z"/>
				<path fill="#67050A" d="M985.61,879.914l-1.485-2.612c0,0,4.93-4.797,10.276-3.674l1.007,2.803l-1.547-1.832
					c0,0-5.199-0.093-8.307,3.158L985.61,879.914z"/>
				<g>
					<path fill="#FFFFFF" d="M986.126,881.479c0,0,6.017-1.627,10.007,0.43C996.133,881.909,989.029,882.787,986.126,881.479z"/>
					<path fill="#FFFFFF" d="M995.003,877.563c0,0-5.531,2.852-7.103,7.054C987.9,884.617,993.732,880.488,995.003,877.563z"/>
				</g>
				<g>
					<path fill="#FFFFFF" d="M988.723,886.661c0,0,4.733-1.277,7.877,0.338C996.6,886.999,991.013,887.695,988.723,886.661z"/>
					<path fill="#FFFFFF" d="M995.709,883.585c0,0-4.359,2.238-5.593,5.547C990.116,889.132,994.708,885.885,995.709,883.585z"/>
				</g>
			</g>
			<g>
				<path fill="#E7C39D" d="M1017.152,792.679c3.339,11.129,6.985,22.206,10.896,33.155c6.328,17.684,12.492,36.354,22.382,52.45
					c1.756,2.857,3.659,5.879,5.924,8.367c2.069,2.238,5.452,3.609,7.207,0.47c1.749-3.128-0.11-8.966-0.706-12.154
					c-2.928-15.64-10.982-38.65-17.863-86.626L1017.152,792.679z"/>
				<path fill="#70B3A2" d="M1062.855,874.967c-1.498-8.018-4.352-17.99-7.704-32.272c-6.034,3.141-12.48,5.255-19.135,5.111
					c4.033,10.57,8.576,20.976,14.414,30.479c1.756,2.857,3.659,5.879,5.924,8.367c2.069,2.238,5.452,3.609,7.207,0.47
					C1065.311,883.993,1063.451,878.155,1062.855,874.967z"/>
				<path fill="#124493" d="M1049.854,846.856c1.793-0.675,3.867-1.434,5.697-2.486c-0.135-0.555-0.264-1.102-0.399-1.676
					c-6.034,3.141-12.48,5.255-19.135,5.111c0.245,0.641,0.491,1.273,0.743,1.912
					C1041.277,850.126,1045.654,848.432,1049.854,846.856z"/>
				<path fill="#124493" d="M1050.143,850.629c2.037-0.851,4.192-1.833,6.176-3.066c-0.185-0.759-0.369-1.525-0.565-2.312
					c-1.491,0.844-3.118,1.501-4.628,2.084c-4.494,1.719-9.172,3.602-14.01,3.309c0.362,0.903,0.719,1.799,1.08,2.692
					C1042.137,853.903,1046.698,852.081,1050.143,850.629z"/>
				<path fill="#C10010" d="M1060.173,863.101c-3.487-0.354-6.955-0.031-10.516,1.338c-1.351,0.516-3.524,1.381-5.415,2.557
					c1.903,3.867,3.947,7.646,6.188,11.289c1.756,2.857,3.659,5.879,5.924,8.367c2.069,2.238,5.452,3.609,7.207,0.47
					c1.749-3.128-0.11-8.966-0.706-12.154C1062.193,871.455,1061.277,867.56,1060.173,863.101z"/>
				<path fill="#67050A" d="M1058.902,868.058l-0.559-2.957c0,0-6.863-0.479-10.209,3.825l1.037,2.796v-2.391
					c0,0,3.904-3.432,8.38-2.956L1058.902,868.058z"/>
				<g>
					<path fill="#FFFFFF" d="M1059.528,869.579c0,0-5.647,2.649-7.372,6.79C1052.156,876.369,1058.146,872.452,1059.528,869.579z"/>
					<path fill="#FFFFFF" d="M1050.216,872.329c0,0,6.071-1.398,9.981,0.787C1060.197,873.116,1053.076,873.741,1050.216,872.329z"
						/>
				</g>
				<g>
					<path fill="#FFFFFF" d="M1060.885,875.212c0,0-4.438,2.088-5.795,5.338C1055.09,880.55,1059.805,877.478,1060.885,875.212z"/>
					<path fill="#FFFFFF" d="M1053.567,877.379c0,0,4.771-1.103,7.853,0.623C1061.42,878.002,1055.814,878.49,1053.567,877.379z"/>
				</g>
			</g>
			<path fill="#E7C39D" d="M922.178,756.45c-2.382,1.215-5.396,3.483-5.93,4.121c-0.725,0.888-13.254,4.139-13.42,6.554
				c-0.313,4.362,13.775-3.021,12.928-0.722c-0.264,0.707-8.883,4.215-11.129,7.066c-2.26,2.852,1.326,5.35,9.748-2.105
				c2.781-2.456,3.057-0.006,2.658,0.202c-0.398,0.206-7.777,9.304-5.672,10.019c4.48,1.514,9.883-11.746,9.251-7.697
				c-0.62,4.038-4.261,11.062-1.491,10.947c3.738-0.152,5.696-8.369,6.219-10.334c0.509-1.952,1.749-5.47,4.432,0.083
				c2.689,5.556,7.047,3.821,5.059,1.292c-1.971-2.535-3.309-7.769-3.358-12.143c-0.024-2.001-0.675-3.281-1.375-4.092
				c3.032-14.039,14.242-54.273,45.704-69.986l6.311-32.508C982.111,657.147,927.168,684.769,922.178,756.45z"/>
			<path fill="#E7C39D" d="M1146.356,627.365c-1.812-4.421-12.044,9.644-12.327,6.985c-0.086-0.816,6.661-8.443,7.483-12.332
				c0.823-3.89-3.897-4.596-8.545,6.798c-1.528,3.751-2.989,1.489-2.695,1.1c0.288-0.406,3.112-12.901,0.7-12.585
				c-5.126,0.69-3.99,16.311-5.341,12.041c-1.345-4.26-1.185-12.919-3.85-11.458c-3.591,1.964-1.517,10.974-1.074,13.14
				c0.448,2.174,0.939,6.223-4.395,2.072c-5.329-4.141-8.755-0.328-5.581,1.194c3.033,1.464,6.686,5.632,8.901,9.724
				c-14.579,53.994-61.745,22.377-61.745,22.377l-11.43,17.225c0,0,18.779,17.005,48.484,12.057
				c25.17-4.192,32.941-36.545,34.728-46.33c0.368-0.039,0.725-0.125,1.044-0.291c1.971-0.994,5.365-7.554,5.654-8.775
				C1136.65,639.084,1147.369,629.823,1146.356,627.365z"/>
			<path fill="#124493" d="M966.5,744.559c-3.125,14.813-4.898,31.554-3.155,48.5c0,0,24.163,5.528,34.415,2.594l5.328-22.727
				l10.848,23.524c0,0,21.701,2.615,34.844-5.767c0,0-3.523-18.749-6.783-40.48C1013.555,758.205,979.453,748.813,966.5,744.559z"/>
			<path fill="#58A9A3" d="M1038.159,763.543c1.946,1.124,4.112,2.005,6.341,2.558c-0.811-4.93-1.67-10.311-2.504-15.897
				c-4.113,1.154-8.343,1.943-12.604,2.432C1030.982,757.091,1033.758,760.999,1038.159,763.543z"/>
			<path fill="#58A9A3" d="M970.816,756.735c2.381-2.72,4.119-5.909,5.082-9.381c-3.757-1.016-6.955-1.998-9.398-2.796
				c-1.092,5.193-2.02,10.624-2.688,16.21C966.402,760.038,968.783,759.056,970.816,756.735z"/>
			<path fill="#C10010" d="M1063.832,697.854l9.373-31.701c0,0-36.617-9.162-47.938-13.165c-11.302-4.003-12.363-2.256-12.363-2.256
				s-19.356-3.138-32.15,3.462c-12.805,6.594-27.305,18.871-27.305,18.871s12.529,15.133,16.766,23.144l11.301-10.703
				c0,0-13.4,24.859-20.547,58.583c14.666,4.816,53.279,15.445,85.472,6.391c-3.235-21.538-6.243-45.676-6.176-60.406
				L1063.832,697.854z"/>
			<path fill="#E1A97D" d="M1010.307,645.984c0,0-4.364,16.239,6.225,15.911c10.596-0.325,10.713-16.32,10.713-16.32
				L1010.307,645.984z"/>
			<path fill="#130D00" d="M1058.368,525.279c0,0-1.479-7.667-7.054-16.888s-2.124,14.619-2.124,14.619s-19.19-23.327-62.297-16.949
				c0,0-4.549,0.23,1.627,2.25c0,0-40.02,9.358-56.632,31.228l17.287-0.981c0,0-9.914,10.344-15.181,22.892l13.192-2.53
				l12.419,48.59l132.673,11.164l14.396-60.699l12.395,7.072c0,0-3.555-22.646-26.17-33.877c0,0,11.971,1.298,20.614,6.24
				c0,0-15.176-20.885-45.753-12.554c0,0,9.165-8.601,6.017-10.678C1070.627,512.114,1058.368,525.279,1058.368,525.279z"/>
			<path fill="#E1A97D" d="M967.514,597.745c0,0-6.256-15.615-19.319-3.714c-13.063,11.894,6.028,36.621,19.595,25.773
				C973.615,615.161,967.514,597.745,967.514,597.745z"/>
			<path fill="#844B31" d="M957.973,602.438c-0.116-0.408-0.251-0.82-0.404-1.201c-0.934-2.396-3.751-4.37-6.33-2.992
				c-1.811,0.973-2.645,2.496-2.816,4.396c0.38-1.099,1.037-2.106,1.957-2.723c1.806-1.222,3.979-0.712,5.096,1.169
				c0.977,1.643,0.455,4.049-1.197,5.016c-0.338,0.301-0.748,0.537-1.147,0.577c-0.276,0.03-0.565-0.021-0.859-0.122
				c-0.86-0.071-1.584-0.501-2.063-1.216c0.093,1.768,1.695,3.22,3.475,3.097c0.934-0.061,1.854-0.531,2.628-1.219
				c-0.104,1.996-0.859,3.926-2.688,4.848c-0.062,0.03-0.123,0.082-0.172,0.132c1.326,0.046,3.125-2.146,3.604-2.983
				C958.273,607.073,958.127,604.783,957.973,602.438z"/>
			<path fill="#E1A97D" d="M1088.179,597.499c0,0,8.741-14.374,19.663-0.479c10.92,13.887-11.983,35.117-23.58,22.191
				C1079.283,613.666,1088.179,597.499,1088.179,597.499z"/>
			<path fill="#E7C39D" d="M957.985,572.495c0,0,6.943,20.054,1.621,35.014c-5.323,14.954,15.451,37.512,60.356,42.146
				c44.9,4.631,78.173-19.779,72.059-44.289c-6.114-24.506,3.026-36.434,3.026-36.434s-18.718-47.291-79.915-41.051
				C953.928,534.122,957.985,572.495,957.985,572.495z"/>
			<g>
				<path fill="#2E1E0C" d="M1092.899,531.169c0,0,11.971,1.298,20.614,6.24c0,0-15.176-20.885-45.753-12.554
					c0,0,9.165-8.601,6.017-10.678c-3.15-2.063-15.409,11.102-15.409,11.102s-1.479-7.667-7.054-16.888s-2.124,14.619-2.124,14.619
					s-19.19-23.327-62.297-16.949c0,0-4.549,0.23,1.627,2.25c0,0-40.02,9.358-56.632,31.228l17.287-0.981
					c0,0-9.914,10.344-15.181,22.892l13.192-2.53l13.99-4.873l-7.895,15.046c0,0,23.137-5.931,44.445-18.95l-12.591,13.44
					c0,0,50.025-6.111,62.487-18.058c0,0,0.283,18.436,1.381,19.733c1.105,1.298,9.172-15.838,9.172-15.838
					s15.722,25.157,25.286,29.874l-1.921-16.765c0,0,13.137,8.944,18.066,15.089l-0.958-24.84l8.023,5.195l12.395,7.072
					C1119.069,565.046,1115.515,542.4,1092.899,531.169z"/>
			</g>
			<path fill="#DB6672" d="M982.375,617.484c0,0,42.936,21.335,79.389-5.417c0,0-7.465,32.618-43.74,31.557
				C990.645,642.816,982.375,617.484,982.375,617.484z"/>
			<path fill="#CF363A" d="M1021.51,630.06c-5.53-0.307-11.246,0.133-16.636,1.491c-2.903,0.731-6.808,1.87-9.392,4.064
				c5.396,4.288,12.737,7.723,22.541,8.009c10.786,0.315,19.012-2.357,25.262-6.256
				C1036.711,633.351,1029.547,630.508,1021.51,630.06z"/>
			<path fill="#FFFFFF" d="M1005.961,631.45c4.193,3.098,10.019,3.49,15.059,3.035c4.598-0.41,9.264-1.773,12.695-5.021
				c1.885-1.778,3.277-3.883,4.315-6.173c-13.733,3.486-26.888,2.391-36.968,0.261
				C1001.952,626.625,1003.377,629.541,1005.961,631.45z"/>
			<path fill="#844B31" d="M1097.062,605.698c0.294-0.322,0.602-0.633,0.921-0.915c1.952-1.774,5.439-2.293,7.176,0.147
				c1.216,1.719,1.289,3.508,0.571,5.338c0.153-1.185,0.019-2.413-0.546-3.404c-1.1-1.943-3.328-2.475-5.219-1.259
				c-1.645,1.053-2.259,3.503-1.197,5.142c0.178,0.441,0.442,0.841,0.786,1.064c0.245,0.154,0.534,0.234,0.854,0.277
				c0.829,0.331,1.683,0.27,2.456-0.166c-0.902,1.574-3.033,2.17-4.617,1.249c-0.822-0.481-1.449-1.341-1.854-2.321
				c-0.811,1.883-1.007,3.99,0.252,5.68c0.043,0.055,0.073,0.125,0.092,0.199c-1.24-0.562-1.885-3.404-1.934-4.387
				C1094.674,609.817,1095.846,607.784,1097.062,605.698z"/>
			<g>
				<g>
					<path fill="#241B00" d="M1001.332,587.944c-0.289,5.145-2.395,9.208-4.721,9.086c-2.326-0.133-3.979-4.405-3.695-9.546
						c0.275-5.146,2.395-9.212,4.715-9.086C999.951,578.526,1001.608,582.8,1001.332,587.944z"/>
					<path fill="#FFFFFF" d="M997.047,584.911c-0.092,1.658-0.768,2.959-1.516,2.916c-0.743-0.037-1.277-1.408-1.186-3.063
						c0.086-1.658,0.768-2.957,1.517-2.92C996.605,581.885,997.139,583.26,997.047,584.911z"/>
				</g>
				<path fill="#121211" d="M991.965,578.018c0,0,5.457-5.89,10.079,0.019c0,0-0.626-4.629-4.476-5.371
					C993.714,571.922,991.965,578.018,991.965,578.018z"/>
			</g>
			<g>
				<g>
					<path fill="#241B00" d="M1051.4,589.077c-0.275,5.141-2.395,9.211-4.715,9.082s-3.978-4.401-3.701-9.543
						c0.289-5.141,2.395-9.211,4.715-9.088C1050.031,579.663,1051.684,583.929,1051.4,589.077z"/>
					<path fill="#FFFFFF" d="M1047.121,586.048c-0.086,1.651-0.773,2.959-1.516,2.916c-0.749-0.041-1.283-1.415-1.191-3.063
						c0.093-1.658,0.768-2.962,1.517-2.926C1046.674,583.015,1047.207,584.396,1047.121,586.048z"/>
				</g>
				<path fill="#121211" d="M1051.738,576.667c0,0-4.789-6.452-10.031-1.08c0,0,1.137-4.531,5.041-4.855
					C1050.658,570.418,1051.738,576.667,1051.738,576.667z"/>
			</g>
			<g>
				<path fill="#844B31" d="M1013.057,601.186c5.139-1.989,8.367,3.714,8.367,3.714s-2.909-8.621-10.516-4.272
					c-7.605,4.35-1.215,14.62,9.436,11.879C1010.209,613.633,1007.9,603.175,1013.057,601.186z"/>
			</g>
			<defs>
				<filter id="Adobe_OpacityMaskFilter_2_" filterUnits="userSpaceOnUse" x="938.243" y="511.268" width="98.62" height="47.234">
					<feFlood  style="flood-color:white;flood-opacity:1" result="back"/>
					<feBlend  in="SourceGraphic" in2="back" mode="normal"/>
				</filter>
			</defs>
			<mask maskUnits="userSpaceOnUse" x="938.243" y="511.268" width="98.62" height="47.234" id="SVGID_4_">
				<g filter="url(#Adobe_OpacityMaskFilter_2_)">
					<defs>
						
							<filter id="Adobe_OpacityMaskFilter_3_" filterUnits="userSpaceOnUse" x="938.243" y="511.268" width="98.62" height="47.234">
							<feFlood  style="flood-color:white;flood-opacity:1" result="back"/>
							<feBlend  in="SourceGraphic" in2="back" mode="normal"/>
						</filter>
					</defs>
					<mask maskUnits="userSpaceOnUse" x="938.243" y="511.268" width="98.62" height="47.234" id="SVGID_4_">
						<g filter="url(#Adobe_OpacityMaskFilter_3_)">
						</g>
					</mask>
					<radialGradient id="SVGID_5_" cx="957.3594" cy="460.9087" r="86.6746" gradientUnits="userSpaceOnUse">
						<stop  offset="0.0022" style="stop-color:#FFFFFF"/>
						<stop  offset="0.1645" style="stop-color:#FCFCFC"/>
						<stop  offset="0.2947" style="stop-color:#F2F2F2"/>
						<stop  offset="0.4138" style="stop-color:#E1E1E1"/>
						<stop  offset="0.5262" style="stop-color:#C9C9C9"/>
						<stop  offset="0.6341" style="stop-color:#AAAAAA"/>
						<stop  offset="0.7384" style="stop-color:#858585"/>
						<stop  offset="0.8401" style="stop-color:#585858"/>
						<stop  offset="0.937" style="stop-color:#252525"/>
						<stop  offset="1" style="stop-color:#000000"/>
					</radialGradient>
					<path mask="url(#SVGID_4_)" fill="url(#SVGID_5_)" d="M938.243,535.841l17.895-0.934c0,0-12.093,11.072-17.667,23.595
						c0,0,34.07-46.686,98.393-39.54C1036.863,518.962,988.877,493.246,938.243,535.841z"/>
				</g>
			</mask>
			<radialGradient id="SVGID_6_" cx="957.3594" cy="460.9087" r="86.6746" gradientUnits="userSpaceOnUse">
				<stop  offset="0.0022" style="stop-color:#FFFFFF"/>
				<stop  offset="0.9102" style="stop-color:#FFFFFF"/>
				<stop  offset="1" style="stop-color:#FFFFFF"/>
			</radialGradient>
			<path fill="url(#SVGID_6_)" d="M938.243,535.841l17.895-0.934c0,0-12.093,11.072-17.667,23.595c0,0,34.07-46.686,98.393-39.54
				C1036.863,518.962,988.877,493.246,938.243,535.841z"/>
			<defs>
				<filter id="Adobe_OpacityMaskFilter_4_" filterUnits="userSpaceOnUse" x="964.297" y="659.028" width="32.247" height="87.234">
					<feFlood  style="flood-color:white;flood-opacity:1" result="back"/>
					<feBlend  in="SourceGraphic" in2="back" mode="normal"/>
				</filter>
			</defs>
			<mask maskUnits="userSpaceOnUse" x="964.297" y="659.028" width="32.247" height="87.234" id="SVGID_7_">
				<g filter="url(#Adobe_OpacityMaskFilter_4_)">
					<defs>
						
							<filter id="Adobe_OpacityMaskFilter_5_" filterUnits="userSpaceOnUse" x="964.297" y="659.028" width="32.247" height="87.234">
							<feFlood  style="flood-color:white;flood-opacity:1" result="back"/>
							<feBlend  in="SourceGraphic" in2="back" mode="normal"/>
						</filter>
					</defs>
					<mask maskUnits="userSpaceOnUse" x="964.297" y="659.028" width="32.247" height="87.234" id="SVGID_7_">
						<g filter="url(#Adobe_OpacityMaskFilter_5_)">
						</g>
					</mask>
					<radialGradient id="SVGID_8_" cx="936.3105" cy="691.9883" r="60.7437" gradientUnits="userSpaceOnUse">
						<stop  offset="0.0022" style="stop-color:#FFFFFF"/>
						<stop  offset="0.1645" style="stop-color:#FCFCFC"/>
						<stop  offset="0.2947" style="stop-color:#F2F2F2"/>
						<stop  offset="0.4138" style="stop-color:#E1E1E1"/>
						<stop  offset="0.5262" style="stop-color:#C9C9C9"/>
						<stop  offset="0.6341" style="stop-color:#AAAAAA"/>
						<stop  offset="0.7384" style="stop-color:#858585"/>
						<stop  offset="0.8401" style="stop-color:#585858"/>
						<stop  offset="0.937" style="stop-color:#252525"/>
						<stop  offset="1" style="stop-color:#000000"/>
					</radialGradient>
					<path mask="url(#SVGID_7_)" fill="url(#SVGID_8_)" d="M996.544,659.028c0,0-22.327,36.189-32.247,83.068l17.465,4.166
						C981.762,746.263,975.752,720.405,996.544,659.028z"/>
				</g>
			</mask>
			<radialGradient id="SVGID_9_" cx="936.3105" cy="691.9883" r="60.7437" gradientUnits="userSpaceOnUse">
				<stop  offset="0.0022" style="stop-color:#FFFFFF"/>
				<stop  offset="0.9102" style="stop-color:#FFFFFF"/>
				<stop  offset="1" style="stop-color:#FFFFFF"/>
			</radialGradient>
			<path fill="url(#SVGID_9_)" d="M996.544,659.028c0,0-22.327,36.189-32.247,83.068l17.465,4.166
				C981.762,746.263,975.752,720.405,996.544,659.028z"/>
			<defs>
				<filter id="Adobe_OpacityMaskFilter_6_" filterUnits="userSpaceOnUse" x="965.025" y="749.927" width="16.036" height="41.861">
					<feFlood  style="flood-color:white;flood-opacity:1" result="back"/>
					<feBlend  in="SourceGraphic" in2="back" mode="normal"/>
				</filter>
			</defs>
			<mask maskUnits="userSpaceOnUse" x="965.025" y="749.927" width="16.036" height="41.861" id="SVGID_10_">
				<g filter="url(#Adobe_OpacityMaskFilter_6_)">
					<defs>
						
							<filter id="Adobe_OpacityMaskFilter_7_" filterUnits="userSpaceOnUse" x="965.025" y="749.927" width="16.036" height="41.861">
							<feFlood  style="flood-color:white;flood-opacity:1" result="back"/>
							<feBlend  in="SourceGraphic" in2="back" mode="normal"/>
						</filter>
					</defs>
					<mask maskUnits="userSpaceOnUse" x="965.025" y="749.927" width="16.036" height="41.861" id="SVGID_10_">
						<g filter="url(#Adobe_OpacityMaskFilter_7_)">
						</g>
					</mask>
					<radialGradient id="SVGID_11_" cx="924.8604" cy="773.2256" r="57.9722" gradientUnits="userSpaceOnUse">
						<stop  offset="0.0022" style="stop-color:#FFFFFF"/>
						<stop  offset="0.1645" style="stop-color:#FCFCFC"/>
						<stop  offset="0.2947" style="stop-color:#F2F2F2"/>
						<stop  offset="0.4138" style="stop-color:#E1E1E1"/>
						<stop  offset="0.5262" style="stop-color:#C9C9C9"/>
						<stop  offset="0.6341" style="stop-color:#AAAAAA"/>
						<stop  offset="0.7384" style="stop-color:#858585"/>
						<stop  offset="0.8401" style="stop-color:#585858"/>
						<stop  offset="0.937" style="stop-color:#252525"/>
						<stop  offset="1" style="stop-color:#000000"/>
					</radialGradient>
					<path mask="url(#SVGID_10_)" fill="url(#SVGID_11_)" d="M967.716,749.927c0,0-4.414,25.903-1.935,39.694L981,791.788
						l0.062-38.938L967.716,749.927z"/>
				</g>
			</mask>
			<radialGradient id="SVGID_12_" cx="924.8604" cy="773.2256" r="57.9722" gradientUnits="userSpaceOnUse">
				<stop  offset="0.0022" style="stop-color:#FFFFFF"/>
				<stop  offset="0.9102" style="stop-color:#FFFFFF"/>
				<stop  offset="1" style="stop-color:#FFFFFF"/>
			</radialGradient>
			<path fill="url(#SVGID_12_)" d="M967.716,749.927c0,0-4.414,25.903-1.935,39.694L981,791.788l0.062-38.938L967.716,749.927z"/>
			<g>
				<path fill="#790A10" d="M1007.219,650.155c-6.709-0.43-18.011-0.322-26.465,4.039c-12.805,6.594-27.305,18.871-27.305,18.871
					s12.529,15.133,16.766,23.144l11.301-10.703C983.229,682.597,995.082,654.183,1007.219,650.155z"/>
				<path fill="#790A10" d="M1073.205,666.153c0,0-32.16-8.045-45.513-12.354c1.425,2.048,9.062,13.858,12.572,36.274l23.567,7.781
					L1073.205,666.153z"/>
			</g>
		</g>
		<g>
			<g>
				
					<radialGradient id="SVGID_13_" cx="1011.0195" cy="702.2715" r="25.8154" gradientTransform="matrix(0.9511 -0.3088 0.3088 0.9511 -122.7256 234.333)" gradientUnits="userSpaceOnUse">
					<stop  offset="1.943400e-004" style="stop-color:#CF3062"/>
					<stop  offset="0.0065" style="stop-color:#CF3264"/>
					<stop  offset="0.2098" style="stop-color:#DE7092"/>
					<stop  offset="0.4047" style="stop-color:#EAA3B9"/>
					<stop  offset="0.5863" style="stop-color:#F3CBD7"/>
					<stop  offset="0.7515" style="stop-color:#FAE7ED"/>
					<stop  offset="0.8947" style="stop-color:#FEF9FA"/>
					<stop  offset="1" style="stop-color:#FFFFFF"/>
				</radialGradient>
				<path opacity="0.7" fill="url(#SVGID_13_)" d="M1057.889,595.185c-7.514,2.438-12.676,7.3-11.521,10.851
					c1.16,3.558,8.183,4.457,15.703,2.014c7.514-2.437,12.664-7.299,11.51-10.851
					C1072.438,593.647,1065.403,592.748,1057.889,595.185z"/>
				<defs>
					
						<filter id="Adobe_OpacityMaskFilter_8_" filterUnits="userSpaceOnUse" x="1050.553" y="594.749" width="14.077" height="6.651">
						<feFlood  style="flood-color:white;flood-opacity:1" result="back"/>
						<feBlend  in="SourceGraphic" in2="back" mode="normal"/>
					</filter>
				</defs>
				<mask maskUnits="userSpaceOnUse" x="1050.553" y="594.749" width="14.077" height="6.651" id="SVGID_14_">
					<g filter="url(#Adobe_OpacityMaskFilter_8_)">
						<defs>
							
								<filter id="Adobe_OpacityMaskFilter_9_" filterUnits="userSpaceOnUse" x="1050.553" y="594.749" width="14.077" height="6.651">
								<feFlood  style="flood-color:white;flood-opacity:1" result="back"/>
								<feBlend  in="SourceGraphic" in2="back" mode="normal"/>
							</filter>
						</defs>
						<mask maskUnits="userSpaceOnUse" x="1050.553" y="594.749" width="14.077" height="6.651" id="SVGID_14_">
							<g filter="url(#Adobe_OpacityMaskFilter_9_)">
							</g>
						</mask>
						
							<radialGradient id="SVGID_15_" cx="1004.8535" cy="707.04" r="11.049" gradientTransform="matrix(0.9511 -0.3088 0.3088 0.9511 -122.7256 234.333)" gradientUnits="userSpaceOnUse">
							<stop  offset="0" style="stop-color:#FFFFFF"/>
							<stop  offset="0.0858" style="stop-color:#F4F4F4"/>
							<stop  offset="0.2353" style="stop-color:#D8D8D8"/>
							<stop  offset="0.4306" style="stop-color:#A9A9A9"/>
							<stop  offset="0.6642" style="stop-color:#696969"/>
							<stop  offset="0.9275" style="stop-color:#181818"/>
							<stop  offset="1" style="stop-color:#000000"/>
						</radialGradient>
						<path mask="url(#SVGID_14_)" fill="url(#SVGID_15_)" d="M1053.205,601.4c2.732-2.499,6.538-5.179,11.425-6.651
							c0,0-7.98,0.043-14.077,4.539C1051.376,600.065,1052.266,600.756,1053.205,601.4z"/>
					</g>
				</mask>
				
					<radialGradient id="SVGID_16_" cx="1004.8535" cy="707.04" r="11.049" gradientTransform="matrix(0.9511 -0.3088 0.3088 0.9511 -122.7256 234.333)" gradientUnits="userSpaceOnUse">
					<stop  offset="0" style="stop-color:#FFFFFF"/>
					<stop  offset="1" style="stop-color:#FFFFFF"/>
				</radialGradient>
				<path opacity="0.7" fill="url(#SVGID_16_)" d="M1053.205,601.4c2.732-2.499,6.538-5.179,11.425-6.651
					c0,0-7.98,0.043-14.077,4.539C1051.376,600.065,1052.266,600.756,1053.205,601.4z"/>
				<defs>
					
						<filter id="Adobe_OpacityMaskFilter_10_" filterUnits="userSpaceOnUse" x="1047.104" y="600.474" width="4.941" height="6.734">
						<feFlood  style="flood-color:white;flood-opacity:1" result="back"/>
						<feBlend  in="SourceGraphic" in2="back" mode="normal"/>
					</filter>
				</defs>
				<mask maskUnits="userSpaceOnUse" x="1047.104" y="600.474" width="4.941" height="6.734" id="SVGID_17_">
					<g filter="url(#Adobe_OpacityMaskFilter_10_)">
						<defs>
							
								<filter id="Adobe_OpacityMaskFilter_11_" filterUnits="userSpaceOnUse" x="1047.104" y="600.474" width="4.941" height="6.734">
								<feFlood  style="flood-color:white;flood-opacity:1" result="back"/>
								<feBlend  in="SourceGraphic" in2="back" mode="normal"/>
							</filter>
						</defs>
						<mask maskUnits="userSpaceOnUse" x="1047.104" y="600.474" width="4.941" height="6.734" id="SVGID_17_">
							<g filter="url(#Adobe_OpacityMaskFilter_11_)">
							</g>
						</mask>
						
							<radialGradient id="SVGID_18_" cx="1004.8516" cy="707.04" r="11.0488" gradientTransform="matrix(0.9511 -0.3088 0.3088 0.9511 -122.7256 234.333)" gradientUnits="userSpaceOnUse">
							<stop  offset="0" style="stop-color:#FFFFFF"/>
							<stop  offset="0.0858" style="stop-color:#F4F4F4"/>
							<stop  offset="0.2353" style="stop-color:#D8D8D8"/>
							<stop  offset="0.4306" style="stop-color:#A9A9A9"/>
							<stop  offset="0.6642" style="stop-color:#696969"/>
							<stop  offset="0.9275" style="stop-color:#181818"/>
							<stop  offset="1" style="stop-color:#000000"/>
						</radialGradient>
						<path mask="url(#SVGID_17_)" fill="url(#SVGID_18_)" d="M1049.147,600.474c-3.917,3.824-1.001,6.734-1.001,6.734
							s1.332-2.133,3.898-4.708C1051.1,601.784,1050.154,601.087,1049.147,600.474z"/>
					</g>
				</mask>
				
					<radialGradient id="SVGID_19_" cx="1004.8516" cy="707.04" r="11.0488" gradientTransform="matrix(0.9511 -0.3088 0.3088 0.9511 -122.7256 234.333)" gradientUnits="userSpaceOnUse">
					<stop  offset="0" style="stop-color:#FFFFFF"/>
					<stop  offset="1" style="stop-color:#FFFFFF"/>
				</radialGradient>
				<path opacity="0.7" fill="url(#SVGID_19_)" d="M1049.147,600.474c-3.917,3.824-1.001,6.734-1.001,6.734s1.332-2.133,3.898-4.708
					C1051.1,601.784,1050.154,601.087,1049.147,600.474z"/>
			</g>
			<g>
				
					<radialGradient id="SVGID_20_" cx="1701.4727" cy="5.1914" r="25.815" gradientTransform="matrix(0.9257 0.3782 -0.3782 0.9257 -582.6167 -57.0532)" gradientUnits="userSpaceOnUse">
					<stop  offset="1.943400e-004" style="stop-color:#CF3062"/>
					<stop  offset="0.0065" style="stop-color:#CF3264"/>
					<stop  offset="0.2098" style="stop-color:#DE7092"/>
					<stop  offset="0.4047" style="stop-color:#EAA3B9"/>
					<stop  offset="0.5863" style="stop-color:#F3CBD7"/>
					<stop  offset="0.7515" style="stop-color:#FAE7ED"/>
					<stop  offset="0.8947" style="stop-color:#FEF9FA"/>
					<stop  offset="1" style="stop-color:#FFFFFF"/>
				</radialGradient>
				<path opacity="0.7" fill="url(#SVGID_20_)" d="M988.814,596.56c-7.305-2.986-14.383-2.605-15.795,0.848
					c-1.418,3.465,3.37,8.689,10.688,11.677c7.306,2.989,14.384,2.604,15.802-0.851C1000.921,604.78,996.139,599.544,988.814,596.56
					z"/>
				<defs>
					<filter id="Adobe_OpacityMaskFilter_12_" filterUnits="userSpaceOnUse" x="980.57" y="594.961" width="13.678" height="5.616">
						<feFlood  style="flood-color:white;flood-opacity:1" result="back"/>
						<feBlend  in="SourceGraphic" in2="back" mode="normal"/>
					</filter>
				</defs>
				<mask maskUnits="userSpaceOnUse" x="980.57" y="594.961" width="13.678" height="5.616" id="SVGID_21_">
					<g filter="url(#Adobe_OpacityMaskFilter_12_)">
						<defs>
							
								<filter id="Adobe_OpacityMaskFilter_13_" filterUnits="userSpaceOnUse" x="980.57" y="594.961" width="13.678" height="5.616">
								<feFlood  style="flood-color:white;flood-opacity:1" result="back"/>
								<feBlend  in="SourceGraphic" in2="back" mode="normal"/>
							</filter>
						</defs>
						<mask maskUnits="userSpaceOnUse" x="980.57" y="594.961" width="13.678" height="5.616" id="SVGID_21_">
							<g filter="url(#Adobe_OpacityMaskFilter_13_)">
							</g>
						</mask>
						
							<radialGradient id="SVGID_22_" cx="1695.3037" cy="9.9541" r="11.0474" gradientTransform="matrix(0.9257 0.3782 -0.3782 0.9257 -582.6167 -57.0532)" gradientUnits="userSpaceOnUse">
							<stop  offset="0" style="stop-color:#FFFFFF"/>
							<stop  offset="0.0858" style="stop-color:#F4F4F4"/>
							<stop  offset="0.2353" style="stop-color:#D8D8D8"/>
							<stop  offset="0.4306" style="stop-color:#A9A9A9"/>
							<stop  offset="0.6642" style="stop-color:#696969"/>
							<stop  offset="0.9275" style="stop-color:#181818"/>
							<stop  offset="1" style="stop-color:#000000"/>
						</radialGradient>
						<path mask="url(#SVGID_21_)" fill="url(#SVGID_22_)" d="M981.233,598.282c3.702-0.145,8.331,0.27,13.015,2.295
							c0,0-6.121-5.122-13.678-5.616C980.693,596.078,980.939,597.184,981.233,598.282z"/>
					</g>
				</mask>
				
					<radialGradient id="SVGID_23_" cx="1695.3037" cy="9.9541" r="11.0474" gradientTransform="matrix(0.9257 0.3782 -0.3782 0.9257 -582.6167 -57.0532)" gradientUnits="userSpaceOnUse">
					<stop  offset="0" style="stop-color:#FFFFFF"/>
					<stop  offset="1" style="stop-color:#FFFFFF"/>
				</radialGradient>
				<path opacity="0.7" fill="url(#SVGID_23_)" d="M981.233,598.282c3.702-0.145,8.331,0.27,13.015,2.295
					c0,0-6.121-5.122-13.678-5.616C980.693,596.078,980.939,597.184,981.233,598.282z"/>
				<defs>
					<filter id="Adobe_OpacityMaskFilter_14_" filterUnits="userSpaceOnUse" x="973.623" y="594.954" width="6.014" height="4.497">
						<feFlood  style="flood-color:white;flood-opacity:1" result="back"/>
						<feBlend  in="SourceGraphic" in2="back" mode="normal"/>
					</filter>
				</defs>
				<mask maskUnits="userSpaceOnUse" x="973.623" y="594.954" width="6.014" height="4.497" id="SVGID_24_">
					<g filter="url(#Adobe_OpacityMaskFilter_14_)">
						<defs>
							
								<filter id="Adobe_OpacityMaskFilter_15_" filterUnits="userSpaceOnUse" x="973.623" y="594.954" width="6.014" height="4.497">
								<feFlood  style="flood-color:white;flood-opacity:1" result="back"/>
								<feBlend  in="SourceGraphic" in2="back" mode="normal"/>
							</filter>
						</defs>
						<mask maskUnits="userSpaceOnUse" x="973.623" y="594.954" width="6.014" height="4.497" id="SVGID_24_">
							<g filter="url(#Adobe_OpacityMaskFilter_15_)">
							</g>
						</mask>
						
							<radialGradient id="SVGID_25_" cx="1695.2988" cy="9.9541" r="11.0469" gradientTransform="matrix(0.9257 0.3782 -0.3782 0.9257 -582.6167 -57.0532)" gradientUnits="userSpaceOnUse">
							<stop  offset="0" style="stop-color:#FFFFFF"/>
							<stop  offset="0.0858" style="stop-color:#F4F4F4"/>
							<stop  offset="0.2353" style="stop-color:#D8D8D8"/>
							<stop  offset="0.4306" style="stop-color:#A9A9A9"/>
							<stop  offset="0.6642" style="stop-color:#696969"/>
							<stop  offset="0.9275" style="stop-color:#181818"/>
							<stop  offset="1" style="stop-color:#000000"/>
						</radialGradient>
						<path mask="url(#SVGID_24_)" fill="url(#SVGID_25_)" d="M978.734,594.954c-5.463,0.391-5.107,4.497-5.107,4.497
							s2.383-0.77,6.01-1.083C979.379,597.214,979.104,596.069,978.734,594.954z"/>
					</g>
				</mask>
				
					<radialGradient id="SVGID_26_" cx="1695.2988" cy="9.9541" r="11.0469" gradientTransform="matrix(0.9257 0.3782 -0.3782 0.9257 -582.6167 -57.0532)" gradientUnits="userSpaceOnUse">
					<stop  offset="0" style="stop-color:#FFFFFF"/>
					<stop  offset="1" style="stop-color:#FFFFFF"/>
				</radialGradient>
				<path opacity="0.7" fill="url(#SVGID_26_)" d="M978.734,594.954c-5.463,0.391-5.107,4.497-5.107,4.497s2.383-0.77,6.01-1.083
					C979.379,597.214,979.104,596.069,978.734,594.954z"/>
			</g>
		</g>
	</g>
</g>
</svg>
