<?xml version="1.0" encoding="utf-8"?>
<!-- Generator: Adobe Illustrator 16.0.0, SVG Export Plug-In . SVG Version: 6.00 Build 0)  -->
<!DOCTYPE svg PUBLIC "-//W3C//DTD SVG 1.1//EN" "http://www.w3.org/Graphics/SVG/1.1/DTD/svg11.dtd">
<svg version="1.1" id="Layer_1" xmlns="http://www.w3.org/2000/svg" xmlns:xlink="http://www.w3.org/1999/xlink" x="0px" y="0px"
	 width="1200px" height="800px" viewBox="0 0 1200 800" enable-background="new 0 0 1200 800" xml:space="preserve">
<g id="BACKGROUND">
	<g>
		<g>
			<defs>
				<polyline id="SVGID_1_" points="1200,1.317 1200,801.316 0,801.316 0,1.317 				"/>
			</defs>
			<clipPath id="SVGID_2_">
				<use xlink:href="#SVGID_1_"  overflow="visible"/>
			</clipPath>
			<g clip-path="url(#SVGID_2_)">
				<polyline fill="#D2FFF5" points="1199.687,0.683 1199.687,800.682 -0.314,800.682 -0.314,0.683 				"/>
				<path fill="#B9F8EF" d="M-0.314,131.468c0,0,449.335-108.675,1200.001,12.529v244.778l-1200.001-9V131.468L-0.314,131.468z"/>
				<path fill="#9BECE5" d="M-0.314,282.279c0,0,688.42-144.187,1200.001,5.903v268.583L-0.314,470.678V282.279z"/>
				<path fill="#9AFCE9" d="M-0.314,801.951V471.947c0,0,445.702-162.995,1200.001,54.004v276H-0.314L-0.314,801.951z"/>
				<path fill="#62EFE1" d="M-0.314,800.682V594.264c0,0,650.172-142.492,1200.001,38.998v167.42H-0.314z"/>
				<g>
					<path fill="#9BECE5" d="M957.588,246.19c0,0-10.034,2.193-20.973-0.648c-10.938-2.84-19.28-7.156-18.637-9.639
						c0.646-2.483,10.035-2.193,20.972,0.647C949.889,239.391,957.588,246.19,957.588,246.19z"/>
					<path fill="#9BECE5" d="M952.239,244.344l11.159-2.929c0,0,3.103,6.976-2.697,10.383L952.239,244.344z"/>
				</g>
				<g>
					<circle fill="#47DDCE" cx="176.308" cy="640.819" r="6.928"/>
					<g>
						<g>
							<circle fill="#47DDCE" cx="167.781" cy="611.251" r="3.464"/>
						</g>
					</g>
				</g>
				<g>
					<circle fill="#47DDCE" cx="1010.239" cy="648.696" r="6.928"/>
					<circle fill="#47DDCE" cx="831.667" cy="763.019" r="6.928"/>
					<g>
						<g>
							<circle fill="#47DDCE" cx="1001.714" cy="619.128" r="3.464"/>
						</g>
					</g>
				</g>
				<g>
					<g>
						<g>
							<circle fill="#9BECE5" cx="185.938" cy="191.519" r="6.767"/>
						</g>
						<g>
							<circle fill="#9BECE5" cx="197.788" cy="208.967" r="4.227"/>
						</g>
					</g>
				</g>
				<g>
					<g>
						<g>
							<circle fill="#D2FFF5" cx="1010.172" cy="156.907" r="6.767"/>
						</g>
						<g>
							<circle fill="#D2FFF5" cx="1016.596" cy="176.997" r="4.226"/>
						</g>
						<g>
							<circle fill="#D2FFF5" cx="1168.246" cy="233.68" r="4.227"/>
						</g>
					</g>
				</g>
				<g>
					<circle fill="#B9F8EF" cx="243.112" cy="324.579" r="6.766"/>
					<circle fill="#B9F8EF" cx="231.363" cy="342.095" r="4.227"/>
				</g>
				<g>
					<circle fill="#B9F8EF" cx="55.455" cy="304.208" r="6.766"/>
					<circle fill="#B9F8EF" cx="50.803" cy="414.919" r="6.767"/>
					<circle fill="#B9F8EF" cx="43.706" cy="321.724" r="4.226"/>
				</g>
				<g>
					<g>
						<g>
							<circle fill="#7AF4DD" cx="278.942" cy="468.06" r="6.766"/>
						</g>
						<g>
							<circle fill="#7AF4DD" cx="262.431" cy="454.938" r="4.226"/>
						</g>
					</g>
				</g>
				<g>
					<circle fill="#B9F8EF" cx="900.361" cy="333.673" r="4.227"/>
					<circle fill="#B9F8EF" cx="1070.469" cy="258.526" r="4.227"/>
					<circle fill="#B9F8EF" cx="914.136" cy="351.173" r="7.902"/>
					<circle fill="#B9F8EF" cx="1087.607" cy="275.893" r="7.902"/>
					<circle fill="#B9F8EF" cx="912.526" cy="318.937" r="2.946"/>
				</g>
				<g>
					<path fill="#7AF4DD" d="M938.61,525.068c6.795,7.567,29.406,27.295,60.288-2.591l17.282-10.561l-11.481,1.583
						c-1.6,0.221-3.112,0.854-4.394,1.838l-1.168,0.899l0,0c-0.155-1.88-0.857-3.673-2.021-5.157l-2.54-3.245l-0.72,11.042
						c0,0-8.161,5.28-32.164,0.479c0,0-14.227-4.118-22.347,0.705C937.579,521.113,937.236,523.537,938.61,525.068z"/>
					<path fill="#7AF4DD" d="M955.934,529.994c0,0-6.081,8.401,2.722,13.521v-12.479L955.934,529.994z"/>
					<path opacity="0.4" fill="#7AF4DD" enable-background="new    " d="M937.773,523.078c0,0,21.79,4.469,29.988,6.166
						c2.178,0.451,4.4,0.612,6.618,0.467c4.696-0.311,13.473-1.262,20.514-3.59c0,0-19.075,18.354-39.778,10.387
						c0,0-2.313-0.813-5.049-2.26c-3.395-1.795-10.373-7.443-11.845-9.685C937.796,523.914,937.79,523.324,937.773,523.078z"/>
					<path fill="#7AF4DD" d="M960.759,526.514c0,0,2.721,12.881,20.083,12.16c0,0-1.681-10.479-16.481-13.121l-4,1.041"/>
					<ellipse opacity="0.2" fill="#7AF4DD" enable-background="new    " cx="976.974" cy="523.158" rx="9.435" ry="0.961"/>
				</g>
				<g>
					<path fill="#7CE5D8" d="M967.436,364.086c-5.669,1.478-8.725,7.586-6.511,13.012c7.874,19.299,36.398,65.98,130.235,76.576
						c0,0,77.289,6.24,93.131-74.89c0,0,25.923-5.762,30.724-31.205c0,0-21.603,15.362-33.604,12.002l-4.32,9.601l-10.562-4.802
						c0,0-15.362,3.841-31.686-5.28c0,0,0.48,23.522,35.045,20.644c0,0-1.857,40.408-109.731-6.693
						c-3.864-1.688-7.893-2.959-12.028-3.77C1031.696,366.068,988.523,358.588,967.436,364.086z"/>
					<path fill="#7CE5D8" d="M1012.271,421.189l-12.161,21.283c0,0,8.48,5.76,22.082-10.643L1012.271,421.189z"/>
					
						<ellipse transform="matrix(0.322 -0.9467 0.9467 0.322 369.7701 1293.4923)" opacity="0.2" fill="#7CE5D8" enable-background="new    " cx="1088.032" cy="388.564" rx="2.64" ry="25.935"/>
					<path opacity="0.4" fill="#7CE5D8" enable-background="new    " d="M960.927,377.103c0,0,54.92-17.165,100.428,21.028
						c15.123,12.693,34.145,19.917,53.888,19.837c18.658-0.076,41.371-3.979,62.333-17.904c0,0-14.333,53-84,53.668
						C1093.574,453.732,991.277,449.477,960.927,377.103z"/>
					<path fill="#7CE5D8" d="M1064.12,395.584c0,0,3.864,31.675,39.444,33.365c0,0-13.042-26.164-30.084-33.365H1064.12z"/>
				</g>
				<g>
					<g>
						<g>
							<circle fill="#96EADA" cx="100.66" cy="172.913" r="12.919"/>
							<circle fill="#96EADA" cx="116.064" cy="150.251" r="9.585"/>
							<circle fill="#96EADA" cx="123.583" cy="154.841" r="5.348"/>
							<path fill="#96EADA" d="M117.511,140.775c0,0-32.117-8.565-28.491,26.07l23.953,3.657c0,0-1.1-9.368-8.373-15.116
								c0,0-0.914-4.211,1.976-3.772L117.511,140.775z"/>
							<path fill="#96EADA" d="M122.761,146.041c0,0,1.816-2.079-1.472-5.392l-0.819-4.762l-4.726,5.181L122.761,146.041z"/>
							<path fill="#96EADA" d="M87.721,172.062c0,0-4.163,3.792-0.983,13.341l5.078-3.071c0,0-22.478,44.975,6.255,52.071
								c7.262,1.793,21.754,0.36,16.968-13.799c-0.438-1.296-2.438-4.542-5.027-5.097c-1.972-0.423-4.629-0.486-6.552,1.801
								c-1.111,1.321-1.071,3.305,0.2,4.471c0.596,0.546,1.438,0.911,2.619,0.728c0.974-0.151,1.795-0.861,1.962-1.833
								c0.071-0.411,0.006-0.8-0.387-0.991c0,0-0.263,0.558-0.697,1.075c-0.879,1.047-2.636,0.263-2.367-1.078
								c0.139-0.69,1.251-2.063,3.247-1.884c0,0,0.085,0.016,0.233,0.053c4.194,1.054,5.904,6.083,3.286,9.526
								c-2.229,2.932-6.917,5.916-15.871,0.217c0,0-8.866-4.515-1.15-26.524l7.881-16.644L87.721,172.062z"/>
							<path fill="#96EADA" d="M116.28,158.048c0,0,8.447,11.864,11.559,13.112c0,0,3.598,0.83,5.14-3.291
								c0,0-5.738-1.073-6.763-6.787c0,0,1.726-1.453,1.041-2.354L116.28,158.048z"/>
						</g>
					</g>
					
						<ellipse transform="matrix(0.0411 -0.9992 0.9992 0.0411 -68.908 271.0487)" opacity="0.2" fill="#96EADA" enable-background="new    " cx="106.761" cy="171.425" rx="8.118" ry="2.416"/>
				</g>
				<g>
					<g>
						<g>
							<path fill="#7CE5D8" d="M351.191,301.438c-0.193-0.697-0.43-1.394-0.711-2.082c-3.904-9.563-14.823-14.148-24.387-10.242
								s-14.148,14.824-10.243,24.387c0.281,0.688,0.601,1.351,0.95,1.984L351.191,301.438z"/>
							<g>
								<circle fill="#7CE5D8" cx="327.399" cy="311.614" r="4.06"/>
								<circle fill="#7CE5D8" cx="334.156" cy="308.854" r="4.06"/>
								<circle fill="#7CE5D8" cx="347.667" cy="303.335" r="4.06"/>
								<circle fill="#7CE5D8" cx="340.912" cy="306.094" r="4.06"/>
								<circle fill="#7CE5D8" cx="320.643" cy="314.372" r="4.06"/>
							</g>
							<g>
								<g>
									<path fill="#7CE5D8" d="M354.592,361.438c-3.01-2.299-4.94-4.935-5.738-7.834c-0.537-1.949-0.483-3.65-0.434-5.295
										c0.064-2.142,0.122-3.99-1.136-6.146c-0.241-0.414-0.343-0.516-0.583-0.758c-0.318-0.32-0.757-0.76-1.623-1.926
										c-1.447-1.949-4.143-5.574-5.407-10.129c-0.661-2.382-0.567-3.732-0.484-4.927c0.067-0.959,0.125-1.787-0.235-3.17
										c-0.843-3.223-3.177-6.194-6.938-8.838l1.32-1.879c4.218,2.963,6.854,6.373,7.839,10.137
										c0.456,1.746,0.38,2.847,0.306,3.91c-0.077,1.105-0.148,2.15,0.405,4.15c1.151,4.145,3.68,7.547,5.038,9.373
										c0.769,1.035,1.139,1.406,1.408,1.678c0.295,0.297,0.549,0.553,0.938,1.219c1.59,2.726,1.519,5.088,1.447,7.373
										c-0.048,1.543-0.093,3,0.352,4.615c0.662,2.404,2.317,4.633,4.921,6.619L354.592,361.438z"/>
								</g>
								<g>
									<path fill="#7CE5D8" d="M354.567,347.073l-1.716-1.047c1.434-2.346,1.92-4.455,1.45-6.271
										c-0.531-2.059-2.35-3.252-4.274-4.516c-2.263-1.484-4.603-3.021-4.626-6.057c-0.013-1.662,0.56-2.998,1.064-4.179
										c0.563-1.315,1.009-2.356,0.559-3.553c-0.374-0.992-1.067-1.418-2.366-2.143c-0.939-0.525-2.109-1.181-3.287-2.313
										c-2.444-2.354-3.902-5.799-4.335-10.244l2-0.194c0.384,3.955,1.639,6.979,3.728,8.991c0.991,0.953,1.949,1.488,2.875,2.007
										c1.346,0.752,2.616,1.463,3.268,3.188c0.734,1.953,0.061,3.529-0.593,5.053c-0.469,1.095-0.911,2.129-0.901,3.371
										c0.016,1.961,1.731,3.088,3.721,4.394c2.059,1.352,4.391,2.885,5.116,5.69
										C356.858,341.616,356.292,344.247,354.567,347.073z"/>
								</g>
								<g>
									<path fill="#7CE5D8" d="M347.12,351.706l-2.241-0.502c0.563-2.516,0.454-4.813-0.324-6.83
										c-0.849-2.195-2.188-3.313-3.607-4.5c-1.551-1.295-3.153-2.635-3.773-5.26c-0.492-2.082-0.063-3.785,0.285-5.154
										c0.369-1.459,0.637-2.512-0.099-3.742c-0.469-0.786-0.991-1.092-1.784-1.553c-0.488-0.283-1.042-0.604-1.634-1.084
										c-3.029-2.459-4.424-7.029-4.139-13.582l2.294,0.101c-0.252,5.786,0.856,9.723,3.292,11.698
										c0.451,0.367,0.883,0.617,1.339,0.881c0.9,0.523,1.831,1.066,2.604,2.363c1.221,2.047,0.759,3.873,0.352,5.482
										c-0.33,1.299-0.641,2.524-0.276,4.061c0.443,1.883,1.576,2.83,3.012,4.027c1.507,1.26,3.215,2.686,4.277,5.436
										C347.641,345.993,347.784,348.739,347.12,351.706z"/>
								</g>
								<g>
									<path fill="#7CE5D8" d="M338.531,347.11c-2.285-1.289-3.519-2.769-3.66-4.394c-0.087-0.979,0.234-1.713,0.494-2.301
										c0.248-0.563,0.326-0.789,0.244-1.088c-0.061-0.217-0.137-0.289-0.678-0.643c-0.406-0.267-0.963-0.632-1.56-1.242
										c-1.575-1.613-2.933-4.459-2.412-7.185c0.27-1.407,0.956-2.229,1.457-2.83c0.457-0.547,0.571-0.719,0.556-1.03
										c-0.044-0.836-1.185-1.58-2.288-2.3c-0.435-0.282-0.885-0.575-1.293-0.891c-3.229-2.488-4.925-7.164-5.036-13.897
										l2.296-0.037c0.1,6,1.492,10.075,4.142,12.114c0.338,0.261,0.729,0.519,1.146,0.789c1.436,0.937,3.221,2.101,3.325,4.101
										c0.066,1.248-0.573,2.012-1.086,2.627c-0.433,0.516-0.807,0.963-0.964,1.785c-0.346,1.815,0.644,3.965,1.8,5.149
										c0.421,0.433,0.805,0.683,1.175,0.924c0.625,0.41,1.333,0.873,1.633,1.951c0.31,1.113-0.074,1.986-0.355,2.625
										c-0.213,0.484-0.342,0.801-0.311,1.176c0.093,1.029,1.411,1.98,2.503,2.597L338.531,347.11z"/>
								</g>
								<g>
									<path fill="#7CE5D8" d="M359.58,334.659c-3.63-1.689-5.715-3.762-6.197-6.162c-0.21-1.045-0.079-1.914,0.036-2.682
										c0.129-0.861,0.223-1.482-0.177-2.189c-0.379-0.67-0.918-0.951-1.545-1.274c-0.739-0.384-1.661-0.861-1.983-2.05
										c-0.365-1.352,0.412-2.463,0.979-3.272c0.342-0.488,0.693-0.99,0.59-1.217c-0.203-0.441-0.786-0.646-1.801-0.963
										c-0.749-0.236-1.598-0.505-2.483-0.998c-2.449-1.367-4.226-3.99-5.275-7.798l1.938-0.534c0.9,3.27,2.354,5.481,4.315,6.578
										c0.707,0.395,1.42,0.618,2.109,0.836c1.196,0.377,2.436,0.768,3.021,2.039c0.586,1.272-0.197,2.393-0.769,3.209
										c-0.502,0.717-0.799,1.182-0.688,1.596c0.084,0.309,0.318,0.453,0.971,0.791c0.716,0.371,1.695,0.879,2.368,2.07
										c0.739,1.309,0.565,2.461,0.413,3.477c-0.1,0.662-0.192,1.287-0.053,1.988c0.351,1.737,2.058,3.33,5.074,4.733
										L359.58,334.659z"/>
								</g>
							</g>
						</g>
					</g>
					<circle fill="#7CE5D8" cx="334.786" cy="296.452" r="4.625"/>
				</g>
				<g>
					<path fill="#47DDCE" d="M69.486,738.757c0,0,180.5-81.5,346.5-51.5c0,0,19.5,6.5-40,30.5c0,0-164.5,78.5-306.5,36.5
						c0,0-23,30.5-49.5,34.5c0,0-3.5-20,13-33.5c0,0-45.5-57.5-48-88.5C-15.014,666.757,56.486,707.257,69.486,738.757z"/>
					<path fill="#47DDCE" d="M236.986,695.757c0,0-7-19.5-42.5-26c0,0,1.5,23.5,0,35L236.986,695.757z"/>
					<polygon fill="#47DDCE" points="131.986,760.024 147.486,777.257 156.986,763.257 					"/>
					<path fill="#47DDCE" d="M255.486,751.757c0,0,15.206,13.973,17.302,31.488c0.244,2.043,2.753,2.873,4.13,1.342
						c7.438-8.277,22.932-27.521,24.068-45.33C302.486,715.757,255.486,751.757,255.486,751.757z"/>
					
						<ellipse transform="matrix(-0.2688 -0.9632 0.9632 -0.2688 -274.1436 1213.0846)" fill="#47DDCE" cx="323.375" cy="710.598" rx="2.75" ry="55.752"/>
					<path fill="#47DDCE" d="M419.031,690.743c0,0-211.589,78.68-349.545,63.514c0,0,98.467,33.893,244.088-12.971
						C313.574,741.286,417.866,708.397,419.031,690.743z"/>
				</g>
				<g>
					<path fill="#AFF9E7" d="M69.295,61.033c0,0,77.173-34.845,148.146-22.019c0,0,8.337,2.779-17.103,13.04
						c0,0-70.331,33.563-131.043,15.605c0,0-9.833,13.04-21.163,14.75c0,0-1.496-8.551,5.558-14.323
						c0,0-19.453-24.583-20.521-37.837C33.168,30.25,63.739,47.565,69.295,61.033z"/>
					<path fill="#AFF9E7" d="M140.911,42.648c0,0-2.993-8.337-18.171-11.116c0,0,0.642,10.047,0,14.964L140.911,42.648z"/>
					<polygon fill="#AFF9E7" points="96.019,70.126 102.645,77.493 106.707,71.507 					"/>
					<path fill="#AFF9E7" d="M148.821,66.591c0,0,6.501,5.974,7.396,13.462c0.104,0.874,1.178,1.229,1.766,0.574
						c3.181-3.539,9.805-11.767,10.291-19.381C168.915,51.199,148.821,66.591,148.821,66.591z"/>
					
						<ellipse transform="matrix(-0.2688 -0.9632 0.9632 -0.2688 178.4786 233.4489)" fill="#AFF9E7" cx="177.847" cy="48.981" rx="1.176" ry="23.837"/>
					<path fill="#AFF9E7" d="M218.744,40.505c0,0-90.464,33.639-149.447,27.155c0,0,42.1,14.491,104.359-5.545
						C173.656,62.114,218.245,48.053,218.744,40.505z"/>
				</g>
				<g>
					<g>
						<g>
							<path fill="#96EADA" d="M866.298,141.056c-0.832-0.733-1.713-1.427-2.646-2.074c-12.97-8.99-30.771-5.764-39.762,7.206
								c-8.991,12.97-5.764,30.771,7.206,39.761c0.934,0.647,1.893,1.229,2.87,1.75L866.298,141.056z"/>
							<g>
								<circle fill="#96EADA" cx="844.312" cy="173.909" r="6.203"/>
								<circle fill="#96EADA" cx="850.662" cy="164.745" r="6.203"/>
								<circle fill="#96EADA" cx="863.365" cy="146.418" r="6.203"/>
								<circle fill="#96EADA" cx="857.015" cy="155.582" r="6.203"/>
								<circle fill="#96EADA" cx="837.96" cy="183.072" r="6.203"/>
							</g>
							<g>
								<g>
									<path fill="#96EADA" d="M920.65,215.048c-5.77-0.436-10.438-2.203-13.878-5.25c-2.311-2.049-3.66-4.27-4.966-6.417
										c-1.7-2.796-3.168-5.212-6.574-6.922c-0.654-0.329-0.866-0.375-1.378-0.484c-0.676-0.145-1.601-0.343-3.684-1.115
										c-3.478-1.287-9.947-3.684-15.364-8.463c-2.83-2.498-3.836-4.306-4.724-5.902c-0.715-1.285-1.331-2.396-2.944-3.863
										c-3.764-3.425-9.229-5.287-16.247-5.535l0.124-3.505c7.87,0.278,14.089,2.447,18.483,6.446
										c2.038,1.854,2.857,3.328,3.649,4.752c0.822,1.48,1.601,2.878,3.979,4.976c4.927,4.347,10.999,6.596,14.261,7.804
										c1.847,0.684,2.63,0.852,3.201,0.974c0.623,0.134,1.162,0.25,2.218,0.779c4.305,2.163,6.182,5.25,7.996,8.235
										c1.225,2.014,2.381,3.917,4.296,5.614c2.852,2.528,6.827,4.001,11.815,4.377L920.65,215.048z"/>
								</g>
								<g>
									<path fill="#96EADA" d="M908.646,196.674l-3.068,0.088c-0.119-4.195-1.254-7.304-3.368-9.239
										c-2.396-2.191-5.719-2.205-9.235-2.219c-4.135-0.016-8.411-0.034-10.971-3.9c-1.402-2.118-1.783-4.306-2.119-6.236
										c-0.375-2.156-0.671-3.858-2.245-5.015c-1.307-0.959-2.549-0.924-4.816-0.771c-1.641,0.11-3.684,0.248-6.136-0.222
										c-5.091-0.976-9.829-4.173-14.087-9.505l2.398-1.915c3.786,4.744,7.914,7.571,12.266,8.406
										c2.063,0.395,3.735,0.282,5.353,0.173c2.351-0.158,4.569-0.308,6.841,1.36c2.567,1.887,3.018,4.467,3.451,6.962
										c0.313,1.792,0.605,3.485,1.654,5.068c1.653,2.498,4.791,2.51,8.424,2.525c3.763,0.016,8.025,0.033,11.295,3.025
										C907.031,187.777,908.5,191.617,908.646,196.674z"/>
								</g>
								<g>
									<path fill="#96EADA" d="M902.971,208.813l-3.286,1.225c-1.376-3.692-3.431-6.543-6.107-8.475
										c-2.915-2.104-5.563-2.421-8.369-2.756c-3.064-0.366-6.233-0.746-9.217-3.591c-2.364-2.256-3.231-4.796-3.929-6.837
										c-0.742-2.175-1.278-3.747-3.244-4.712c-1.256-0.616-2.181-0.57-3.58-0.499c-0.86,0.044-1.838,0.093-2.993-0.028
										c-5.931-0.623-11.521-5.313-16.616-13.94l3.02-1.784c4.501,7.619,9.198,11.735,13.964,12.236
										c0.884,0.093,1.646,0.055,2.449,0.014c1.589-0.081,3.232-0.164,5.304,0.854c3.271,1.605,4.198,4.327,5.02,6.728
										c0.661,1.938,1.285,3.768,3.028,5.432c2.139,2.039,4.378,2.307,7.212,2.646c2.979,0.356,6.354,0.759,10.007,3.395
										C898.879,201.064,901.349,204.46,902.971,208.813z"/>
								</g>
								<g>
									<path fill="#96EADA" d="M888.145,210.086c-4.001,0.253-6.81-0.613-8.349-2.577c-0.928-1.182-1.124-2.388-1.283-3.357
										c-0.153-0.93-0.238-1.283-0.593-1.596c-0.259-0.228-0.415-0.257-1.403-0.26c-0.742-0.002-1.759-0.004-3.032-0.29
										c-3.359-0.753-7.47-3.268-9.074-7.189c-0.828-2.028-0.634-3.651-0.491-4.837c0.13-1.081,0.133-1.397-0.148-1.783
										c-0.753-1.033-2.833-1.036-4.845-1.038c-0.793-0.001-1.613-0.001-2.397-0.064c-6.21-0.492-12.275-5.067-18.029-13.598
										l2.907-1.961c5.127,7.6,10.309,11.659,15.398,12.063c0.648,0.051,1.365,0.052,2.125,0.053
										c2.617,0.002,5.874,0.005,7.676,2.479c1.124,1.543,0.942,3.054,0.797,4.268c-0.123,1.022-0.229,1.905,0.255,3.09
										c1.069,2.614,4.128,4.542,6.596,5.094c0.898,0.202,1.599,0.203,2.273,0.205c1.143,0.003,2.436,0.006,3.716,1.137
										c1.324,1.168,1.562,2.607,1.732,3.658c0.131,0.798,0.229,1.311,0.583,1.762c0.975,1.244,3.456,1.361,5.366,1.24
										L888.145,210.086z"/>
								</g>
								<g>
									<path fill="#96EADA" d="M904.721,176.602c-6.057,0.862-10.452-0.055-13.069-2.726c-1.141-1.164-1.698-2.386-2.188-3.464
										c-0.553-1.21-0.95-2.084-2.052-2.657c-1.042-0.543-1.968-0.451-3.038-0.345c-1.27,0.125-2.848,0.281-4.25-0.972
										c-1.595-1.426-1.523-3.497-1.474-5.009c0.031-0.907,0.063-1.845-0.259-2.048c-0.628-0.396-1.543-0.169-3.106,0.267
										c-1.155,0.323-2.466,0.688-4.013,0.793c-4.276,0.291-8.734-1.589-13.251-5.588l2.034-2.298
										c3.879,3.434,7.582,5.057,11.008,4.824c1.234-0.084,2.334-0.391,3.397-0.688c1.848-0.515,3.759-1.047,5.566,0.093
										c1.813,1.144,1.742,3.228,1.69,4.75c-0.046,1.335-0.038,2.179,0.451,2.616c0.363,0.326,0.786,0.316,1.899,0.206
										c1.228-0.121,2.906-0.288,4.759,0.677c2.038,1.061,2.775,2.679,3.428,4.106c0.424,0.931,0.823,1.81,1.589,2.589
										c1.896,1.935,5.409,2.553,10.442,1.835L904.721,176.602z"/>
								</g>
							</g>
						</g>
					</g>
					<circle opacity="0.2" fill="#96EADA" enable-background="new    " cx="845.876" cy="146.052" r="6.875"/>
				</g>
				<g>
					<g>
						<g>
							<path fill="#96EADA" d="M260.86,181.369c0,0,17.02-41.582,70.473-55.935c31.409-8.434,65.06-3.037,91.912,15.308
								c19.025,12.997,36.329,33.031,33.758,62.326c-0.438,5.006-6.242,7.553-10.221,4.482
								C429.519,194.222,342.774,128.661,260.86,181.369z"/>
							<path fill="#96EADA" d="M378.319,122.915c0,0,12.188-12.275,3.059-22.062c0,0,12.927-3.14,18.612,27.808L378.319,122.915z"/>
							<path fill="#96EADA" d="M420.606,184.292c0,0-29.887-8.732-30.427,15.117c0,0,12.797,9.613,37.851-7.206L420.606,184.292z"/>
							<path fill="#96EADA" d="M274.258,173.436c0,0,7.247,11.888-2.189,27.949c0,0-0.762-7.902-11.208-20.016L274.258,173.436z"/>
							<path fill="#96EADA" d="M270.512,166.512c0,0-8.479-1.477-13.988,2.02c0,0,5.235,0.835,4.337,12.837L270.512,166.512z"/>
						</g>
					</g>
					<path opacity="0.3" fill="#96EADA" enable-background="new    " d="M279.724,171.606c0,0,65.051-50.445,130.801-16.945
						c0,0,28,11.943,40,54.221c0,0-1.504,0.357-3.503-1.158c-9.021-6.84-35.747-27.938-75.678-40.313
						C371.344,167.41,321.149,151.661,279.724,171.606z"/>
				</g>
				<g>
					<g>
						<path fill="#AFF9E7" d="M938.1,62.26c-1.195,7.235-26.655,9.055-56.866,4.065c-30.211-4.99-52.537-22.136-52.537-22.136
							s26.654-9.056,56.865-4.065C915.772,45.113,939.295,55.024,938.1,62.26z"/>
						<path fill="#AFF9E7" d="M837.659,45.67L820.17,26.489c0,0-18.191,13.641-4.784,28.959L837.659,45.67z"/>
						<path fill="#AFF9E7" d="M907.455,65.167c0,0-5.642,11.641-20.261,12.237l7.423-11.701L907.455,65.167z"/>
						<path fill="#AFF9E7" d="M914.41,47.722c-0.46-0.908-8.117-13.028-8.117-13.028s-11.199-5.496-36.813,3.961L914.41,47.722z"/>
						<circle fill="#AFF9E7" cx="920.235" cy="53.731" r="1.485"/>
						<path fill="#AFF9E7" d="M855.397,56.568l-7.895,2.769c0,0,10.923,5.7,15.949,6.354l5.424-3.886L855.397,56.568z"/>
					</g>
					<path opacity="0.3" fill="#AFF9E7" enable-background="new    " d="M938.1,62.26c0,0-61.734,4.423-109.403-18.071
						c0,0,27.678,24.316,80.652,24.897C912.58,69.122,937.129,69.739,938.1,62.26z"/>
				</g>
				<g>
					<g>
						<path fill="#47DDCE" d="M1135.303,664.387c0,20.223-15.686,44.92-35.034,44.92c-19.352,0-35.036-24.697-35.036-44.92
							c0-20.225,15.686-36.619,35.036-36.619C1119.618,627.768,1135.303,644.162,1135.303,664.387z"/>
						<path fill="#47DDCE" d="M1086.647,683.84c-9.643,7.432-0.98,21.57-9.299,34.33c-7.606,11.667-18.87,6.02-33.285,18.991
							c-14.843,13.354-17.667,32.631-16.767,33.063c0.896,0.426,4.931-17.984,21.182-28.297c13.115-8.324,20.074-2.412,32.104-9.619
							c19.944-11.948,27.434-44.144,19.805-50.384C1097.166,679.289,1090.632,680.77,1086.647,683.84z"/>
						<path fill="#47DDCE" d="M1100.359,696.254c-1.563,8.362,17.355,23.104,29.252,19.203c6.964-2.283,7.259-9.56,13.792-10.293
							c8.795-0.99,16.141,11.301,18.194,9.774c1.148-0.854-1.147-2.24-3.475-5.574c-5.613-8.049-18.385-11.834-26.095-7.448
							c-5.427,3.088-4.866,6.748-8.218,6.819c-5.874,0.127-8.254-14.332-15.936-15.159
							C1104.265,693.188,1101.003,692.807,1100.359,696.254z"/>
						<path fill="#47DDCE" d="M1091.004,704.84c0.778,7.213,20.207,6.604,23.203,16.904c1.298,4.463-1.958,5.928-0.576,10.495
							c2.392,7.908,13.178,6.953,21.664,14.525c12.139,10.828,8.803,29.486,11.022,29.383c2.455-0.111,8.371-23.008-1.898-32.828
							c-6.95-6.645-16.496-2.693-21.155-9.941c-3.766-5.856,1.329-10.202-1.521-18.96c-3.611-11.099-17.036-20.248-25.061-16.933
							C1093.877,698.646,1090.673,701.766,1091.004,704.84z"/>
						<path fill="#47DDCE" d="M1088.24,693.48c-8.974-1.967-14.114,16.006-25.941,16.978c-8.57,0.702-10.01-8.396-22.127-10.873
							c-14.834-3.031-28.865,7.293-28.611,8.012c0.189,0.537,8.183-4.861,18.503-3.053c11.062,1.94,11.827,9.889,23.651,13.354
							c0.555,0.162,13.537,3.754,25.562-3.053c7.612-4.311,15.488-13.156,13.352-18.121
							C1091.883,694.992,1089.975,693.861,1088.24,693.48z"/>
						<path fill="#47DDCE" d="M1096.519,701.779"/>
						<path fill="#47DDCE" d="M1087.985,688.297c-8.54,8.063,11.512,29.963,2.798,50.104c-3.892,8.994-9.861,9.178-10.428,16.785
							c-1.079,14.484,19.56,27.197,20.601,26.197c0.875-0.842-13.365-10.146-12.462-22.893c0.787-11.104,12.17-12.145,18.313-25.939
							c7.881-17.704,1.104-42.858-9.664-46.034C1094.602,685.768,1090.563,685.863,1087.985,688.297z"/>
					</g>
					<ellipse opacity="0.2" fill="#47DDCE" enable-background="new    " cx="1116.96" cy="657.409" rx="5.333" ry="13.146"/>
				</g>
				<g>
					<g>
						<path fill="#7AF4DD" d="M208.809,479.275c0,13.523-10.489,30.039-23.429,30.039s-23.43-16.515-23.43-30.039
							c0-13.523,10.49-24.486,23.43-24.486S208.809,465.752,208.809,479.275z"/>
						<path fill="#7AF4DD" d="M176.272,492.286c-6.448,4.969-0.655,14.424-6.219,22.957c-5.086,7.801-12.618,4.024-22.258,12.698
							c-9.926,8.932-11.814,21.821-11.211,22.108c0.599,0.286,3.296-12.026,14.163-18.922c8.771-5.565,13.424-1.612,21.468-6.433
							c13.338-7.989,18.345-29.519,13.243-33.691C183.305,489.242,178.937,490.232,176.272,492.286z"/>
						<path fill="#7AF4DD" d="M185.441,500.587c-1.045,5.593,11.606,15.451,19.562,12.843c4.656-1.527,4.854-6.393,9.224-6.885
							c5.88-0.662,10.793,7.557,12.166,6.537c0.769-0.57-0.767-1.498-2.322-3.729c-3.755-5.381-12.295-7.914-17.451-4.98
							c-3.629,2.064-3.254,4.513-5.495,4.561c-3.928,0.084-5.519-9.584-10.655-10.139
							C188.052,498.536,185.871,498.282,185.441,500.587z"/>
						<path fill="#7AF4DD" d="M179.185,506.328c0.521,4.824,13.513,4.416,15.517,11.304c0.867,2.985-1.31,3.964-0.386,7.021
							c1.599,5.287,8.812,4.648,14.487,9.713c8.116,7.24,5.886,19.716,7.371,19.647c1.642-0.076,5.597-15.385-1.27-21.952
							c-4.648-4.444-11.031-1.803-14.147-6.648c-2.518-3.916,0.889-6.821-1.018-12.678c-2.415-7.42-11.393-13.541-16.758-11.322
							C181.107,502.186,178.963,504.271,179.185,506.328z"/>
						<path fill="#7AF4DD" d="M177.337,498.732c-6.001-1.314-9.438,10.703-17.348,11.353c-5.732,0.47-6.693-5.614-14.797-7.271
							c-9.92-2.028-19.304,4.877-19.134,5.356c0.128,0.358,5.473-3.251,12.373-2.041c7.397,1.297,7.909,6.612,15.817,8.929
							c0.37,0.109,9.053,2.512,17.092-2.041c5.092-2.882,10.357-8.799,8.93-12.117C179.773,499.743,178.496,498.986,177.337,498.732
							z"/>
						<path fill="#7AF4DD" d="M182.872,504.281"/>
						<path fill="#7AF4DD" d="M177.166,495.266c-5.711,5.394,7.698,20.037,1.871,33.506c-2.603,6.015-6.595,6.138-6.974,11.225
							c-0.721,9.685,13.08,18.187,13.776,17.517c0.585-0.563-8.938-6.782-8.334-15.307c0.526-7.425,8.139-8.121,12.246-17.347
							c5.27-11.838,0.737-28.659-6.463-30.784C181.59,493.574,178.89,493.639,177.166,495.266z"/>
					</g>
					<ellipse opacity="0.2" fill="#7AF4DD" enable-background="new    " cx="196.542" cy="474.609" rx="3.566" ry="8.791"/>
				</g>
				<g>
					<g>
						<path fill="#96EADA" d="M1126.529,172.746c0,11.487-8.909,25.514-19.898,25.514c-10.99,0-19.9-14.027-19.9-25.514
							c0-11.486,8.91-20.798,19.9-20.798C1117.62,151.948,1126.529,161.259,1126.529,172.746z"/>
						<path fill="#96EADA" d="M1098.894,183.796c-5.478,4.221-0.557,12.251-5.282,19.499c-4.318,6.625-10.718,3.418-18.904,10.786
							c-8.431,7.586-10.034,18.534-9.521,18.779c0.508,0.243,2.799-10.215,12.029-16.072c7.449-4.728,11.401-1.37,18.233-5.463
							c11.328-6.786,15.581-25.072,11.248-28.617C1104.867,181.211,1101.157,182.051,1098.894,183.796z"/>
						<path fill="#96EADA" d="M1106.682,190.846c-0.888,4.75,9.858,13.124,16.614,10.908c3.955-1.297,4.123-5.43,7.834-5.847
							c4.995-0.562,9.168,6.418,10.334,5.552c0.651-0.484-0.651-1.271-1.974-3.166c-3.188-4.572-10.441-6.722-14.821-4.23
							c-3.082,1.753-2.765,3.833-4.667,3.874c-3.336,0.072-4.688-8.141-9.052-8.611
							C1108.899,189.104,1107.048,188.889,1106.682,190.846z"/>
						<path fill="#96EADA" d="M1101.369,195.723c0.44,4.097,11.478,3.75,13.179,9.602c0.737,2.535-1.112,3.367-0.327,5.962
							c1.357,4.491,7.484,3.949,12.305,8.25c6.895,6.15,4.999,16.747,6.26,16.688c1.396-0.063,4.756-13.068-1.076-18.646
							c-3.948-3.775-9.37-1.531-12.018-5.648c-2.139-3.326,0.755-5.793-0.863-10.769c-2.052-6.303-9.678-11.5-14.233-9.616
							C1102.998,192.205,1101.18,193.977,1101.369,195.723z"/>
						<path fill="#96EADA" d="M1099.798,189.271c-5.098-1.117-8.018,9.091-14.734,9.642c-4.868,0.399-5.685-4.768-12.567-6.175
							c-8.426-1.722-16.396,4.143-16.25,4.55c0.106,0.305,4.646-2.761,10.509-1.733c6.282,1.102,6.718,5.616,13.435,7.584
							c0.314,0.092,7.688,2.133,14.519-1.733c4.323-2.448,8.797-7.473,7.584-10.292
							C1101.866,190.13,1100.783,189.487,1099.798,189.271z"/>
						<path fill="#96EADA" d="M1104.5,193.984"/>
						<path fill="#96EADA" d="M1099.653,186.327c-4.851,4.58,6.539,17.019,1.589,28.458c-2.21,5.109-5.601,5.213-5.923,9.534
							c-0.612,8.227,11.11,15.447,11.701,14.879c0.497-0.478-7.592-5.762-7.078-13.001c0.447-6.307,6.912-6.898,10.4-14.734
							c4.477-10.055,0.627-24.342-5.489-26.146C1103.412,184.89,1101.116,184.945,1099.653,186.327z"/>
					</g>
					<ellipse opacity="0.2" fill="#96EADA" enable-background="new    " cx="1116.11" cy="168.783" rx="3.029" ry="7.467"/>
				</g>
			</g>
		</g>
	</g>
</g>
<g id="OBJECTS">
	<circle fill="#B9F8EF" cx="-575.71" cy="242.465" r="4.226"/>
	<circle fill="#B9F8EF" cx="209.414" cy="298.404" r="7.902"/>
	<circle fill="#B9F8EF" cx="261.899" cy="230.05" r="2.946"/>
</g>
<g id="DESIGNED_BY_FREEPIK">
	<g id="Новый_символ_4">
	</g>
	<g display="none">
		<g display="inline">
			<path fill="#30A2AD" d="M488.492,785.344v-0.258c-0.35,0.398-0.692,0.725-1.031,0.973c-0.338,0.252-0.706,0.441-1.102,0.57
				c-0.396,0.132-0.827,0.195-1.296,0.195c-0.621,0-1.196-0.13-1.726-0.394c-0.528-0.264-0.986-0.639-1.372-1.127
				c-0.387-0.485-0.679-1.059-0.879-1.719c-0.199-0.658-0.299-1.371-0.299-2.137c0-1.621,0.396-2.886,1.188-3.791
				c0.791-0.904,1.833-1.357,3.125-1.357c0.746,0,1.377,0.129,1.891,0.385c0.514,0.257,1.014,0.652,1.501,1.183v-3.827
				c0-0.532,0.104-0.935,0.317-1.206c0.212-0.271,0.515-0.408,0.906-0.408c0.395,0,0.694,0.125,0.907,0.375
				c0.212,0.252,0.318,0.618,0.318,1.106v11.437c0,0.494-0.113,0.863-0.343,1.111c-0.229,0.246-0.521,0.369-0.884,0.369
				c-0.354,0-0.646-0.127-0.879-0.384C488.607,786.184,488.492,785.818,488.492,785.344z M483.392,781.535
				c0,0.703,0.109,1.301,0.327,1.795c0.221,0.493,0.52,0.865,0.897,1.114c0.381,0.251,0.795,0.378,1.244,0.378
				c0.457,0,0.872-0.12,1.25-0.357c0.377-0.236,0.678-0.602,0.9-1.092c0.227-0.491,0.337-1.105,0.337-1.838
				c0-0.691-0.11-1.285-0.337-1.783c-0.224-0.495-0.527-0.875-0.911-1.139c-0.384-0.263-0.803-0.395-1.259-0.395
				c-0.475,0-0.897,0.137-1.271,0.403c-0.373,0.27-0.663,0.654-0.869,1.158S483.392,780.869,483.392,781.535z"/>
			<path fill="#30A2AD" d="M499.926,782.19h-5.07c0.006,0.589,0.123,1.106,0.355,1.558c0.23,0.449,0.538,0.788,0.921,1.016
				c0.383,0.229,0.808,0.342,1.269,0.342c0.311,0,0.594-0.035,0.851-0.106c0.257-0.075,0.505-0.188,0.746-0.344
				c0.241-0.154,0.462-0.32,0.664-0.498c0.202-0.179,0.465-0.42,0.788-0.724c0.133-0.113,0.322-0.172,0.57-0.172
				c0.267,0,0.48,0.074,0.646,0.221c0.164,0.146,0.248,0.351,0.248,0.616c0,0.235-0.093,0.509-0.275,0.821
				c-0.186,0.314-0.462,0.615-0.832,0.902c-0.371,0.288-0.835,0.525-1.396,0.717c-0.561,0.19-1.204,0.285-1.934,0.285
				c-1.665,0-2.96-0.477-3.885-1.425c-0.924-0.948-1.386-2.238-1.386-3.864c0-0.769,0.113-1.479,0.341-2.133
				c0.229-0.656,0.563-1.218,0.997-1.687c0.438-0.469,0.976-0.828,1.616-1.078c0.639-0.25,1.348-0.375,2.127-0.375
				c1.013,0,1.882,0.213,2.604,0.642c0.728,0.427,1.271,0.979,1.631,1.655c0.359,0.679,0.542,1.369,0.542,2.071
				c0,0.653-0.188,1.074-0.562,1.269S500.604,782.19,499.926,782.19z M494.854,780.719h4.701c-0.063-0.888-0.303-1.551-0.717-1.99
				c-0.415-0.44-0.961-0.659-1.639-0.659c-0.646,0-1.178,0.222-1.59,0.668C495.194,779.184,494.944,779.844,494.854,780.719z"/>
			<path fill="#30A2AD" d="M511.74,783.434c0,0.716-0.173,1.328-0.522,1.84c-0.348,0.509-0.861,0.896-1.543,1.158
				c-0.681,0.264-1.509,0.394-2.482,0.394c-0.932,0-1.729-0.144-2.395-0.427c-0.665-0.284-1.156-0.643-1.472-1.067
				c-0.317-0.43-0.477-0.857-0.477-1.289c0-0.284,0.102-0.527,0.306-0.729c0.202-0.201,0.459-0.305,0.77-0.305
				c0.271,0,0.479,0.066,0.626,0.199c0.146,0.134,0.285,0.321,0.417,0.56c0.268,0.466,0.585,0.808,0.956,1.037
				c0.37,0.228,0.874,0.342,1.516,0.342c0.52,0,0.944-0.116,1.276-0.348s0.498-0.496,0.498-0.794c0-0.456-0.172-0.786-0.518-0.996
				c-0.346-0.209-0.913-0.409-1.705-0.6c-0.894-0.221-1.619-0.454-2.181-0.698c-0.561-0.242-1.008-0.564-1.344-0.963
				c-0.335-0.398-0.503-0.89-0.503-1.474c0-0.518,0.154-1.01,0.465-1.473c0.312-0.461,0.77-0.83,1.374-1.104
				c0.604-0.276,1.333-0.414,2.188-0.414c0.672,0,1.274,0.069,1.81,0.211c0.535,0.137,0.983,0.326,1.34,0.561
				c0.357,0.232,0.63,0.492,0.816,0.777c0.186,0.285,0.28,0.563,0.28,0.836c0,0.297-0.102,0.541-0.3,0.731
				c-0.198,0.188-0.481,0.285-0.851,0.285c-0.267,0-0.492-0.077-0.679-0.229c-0.188-0.15-0.4-0.379-0.643-0.683
				c-0.195-0.254-0.426-0.457-0.691-0.608c-0.267-0.152-0.627-0.228-1.084-0.228c-0.47,0-0.857,0.099-1.168,0.299
				c-0.311,0.199-0.465,0.447-0.465,0.745c0,0.272,0.112,0.495,0.341,0.669c0.229,0.176,0.536,0.32,0.923,0.434
				c0.386,0.113,0.917,0.253,1.596,0.417c0.803,0.197,1.46,0.432,1.971,0.703c0.51,0.271,0.896,0.594,1.159,0.965
				C511.61,782.536,511.74,782.959,511.74,783.434z"/>
			<path fill="#30A2AD" d="M514.39,775.076c-0.36,0-0.67-0.111-0.926-0.332c-0.257-0.221-0.385-0.535-0.385-0.941
				c0-0.367,0.131-0.668,0.394-0.905c0.264-0.239,0.569-0.357,0.917-0.357c0.336,0,0.634,0.108,0.894,0.324
				c0.26,0.215,0.39,0.526,0.39,0.938c0,0.399-0.127,0.711-0.381,0.937C515.038,774.963,514.737,775.076,514.39,775.076z
				 M515.672,777.754v7.494c0,0.52-0.123,0.912-0.37,1.178c-0.248,0.267-0.561,0.398-0.939,0.398c-0.381,0-0.689-0.135-0.928-0.408
				c-0.236-0.271-0.354-0.662-0.354-1.168v-7.418c0-0.512,0.118-0.898,0.354-1.158c0.237-0.261,0.547-0.391,0.928-0.391
				c0.38,0,0.691,0.13,0.939,0.391C515.549,776.932,515.672,777.293,515.672,777.754z"/>
			<path fill="#30A2AD" d="M527.031,778.182v7.531c0,0.861-0.094,1.604-0.276,2.225c-0.183,0.619-0.478,1.133-0.884,1.537
				c-0.405,0.404-0.936,0.707-1.59,0.902c-0.655,0.196-1.472,0.295-2.446,0.295c-0.893,0-1.69-0.125-2.394-0.375
				c-0.702-0.252-1.243-0.574-1.624-0.97c-0.38-0.396-0.57-0.802-0.57-1.222c0-0.315,0.106-0.574,0.324-0.771
				c0.214-0.201,0.475-0.301,0.776-0.301c0.38,0,0.713,0.168,0.998,0.503c0.14,0.171,0.283,0.346,0.433,0.519
				c0.147,0.176,0.313,0.323,0.493,0.447c0.182,0.122,0.397,0.215,0.65,0.275c0.253,0.059,0.545,0.09,0.874,0.09
				c0.671,0,1.192-0.094,1.563-0.281c0.369-0.186,0.63-0.447,0.777-0.783c0.148-0.334,0.235-0.692,0.262-1.078
				c0.024-0.383,0.045-0.998,0.057-1.848c-0.399,0.559-0.858,0.982-1.382,1.273c-0.522,0.291-1.146,0.438-1.866,0.438
				c-0.867,0-1.625-0.223-2.275-0.666c-0.647-0.442-1.146-1.063-1.494-1.861c-0.35-0.799-0.521-1.719-0.521-2.764
				c0-0.777,0.104-1.482,0.317-2.107c0.213-0.629,0.515-1.156,0.906-1.588c0.394-0.43,0.846-0.754,1.357-0.974
				c0.513-0.218,1.076-0.327,1.69-0.327c0.733,0,1.37,0.144,1.909,0.422c0.537,0.284,1.038,0.726,1.5,1.326v-0.352
				c0-0.449,0.11-0.797,0.332-1.045c0.224-0.246,0.508-0.371,0.855-0.371c0.5,0,0.832,0.164,0.997,0.489
				C526.946,777.097,527.031,777.568,527.031,778.182z M519.518,781.469c0,1.051,0.229,1.847,0.688,2.383
				c0.459,0.539,1.053,0.81,1.781,0.81c0.43,0,0.837-0.117,1.22-0.347c0.384-0.232,0.695-0.581,0.937-1.047
				c0.239-0.465,0.361-1.028,0.361-1.694c0-1.058-0.232-1.881-0.699-2.468c-0.466-0.591-1.077-0.886-1.838-0.886
				c-0.741,0-1.335,0.282-1.78,0.847C519.74,779.628,519.518,780.43,519.518,781.469z"/>
			<path fill="#30A2AD" d="M531.151,777.717v0.313c0.455-0.603,0.954-1.043,1.495-1.324c0.541-0.282,1.163-0.424,1.866-0.424
				c0.685,0,1.295,0.149,1.833,0.448c0.538,0.298,0.941,0.718,1.206,1.261c0.172,0.317,0.282,0.66,0.332,1.026
				c0.051,0.367,0.077,0.836,0.077,1.405v4.825c0,0.52-0.119,0.912-0.355,1.178c-0.237,0.267-0.547,0.398-0.927,0.398
				c-0.387,0-0.7-0.135-0.939-0.408c-0.241-0.271-0.361-0.662-0.361-1.168v-4.322c0-0.854-0.119-1.508-0.356-1.961
				c-0.236-0.451-0.71-0.68-1.42-0.68c-0.462,0-0.883,0.138-1.263,0.413s-0.659,0.655-0.836,1.136
				c-0.127,0.387-0.189,1.107-0.189,2.165v3.249c0,0.525-0.122,0.92-0.365,1.184s-0.56,0.394-0.944,0.394
				c-0.375,0-0.681-0.136-0.922-0.408c-0.24-0.271-0.361-0.662-0.361-1.168v-7.494c0-0.494,0.107-0.863,0.323-1.106
				c0.215-0.242,0.51-0.365,0.883-0.365c0.229,0,0.436,0.055,0.618,0.163c0.183,0.107,0.331,0.269,0.441,0.482
				S531.151,777.406,531.151,777.717z"/>
			<path fill="#30A2AD" d="M546.926,782.19h-5.07c0.008,0.589,0.125,1.106,0.355,1.558c0.231,0.449,0.538,0.788,0.922,1.016
				c0.382,0.229,0.807,0.342,1.268,0.342c0.311,0,0.594-0.035,0.852-0.106c0.255-0.075,0.504-0.188,0.745-0.344
				c0.24-0.154,0.461-0.32,0.665-0.498c0.202-0.179,0.465-0.42,0.788-0.724c0.133-0.113,0.322-0.172,0.569-0.172
				c0.267,0,0.481,0.074,0.646,0.221c0.164,0.146,0.246,0.351,0.246,0.616c0,0.235-0.091,0.509-0.275,0.821
				c-0.184,0.314-0.461,0.615-0.831,0.902c-0.371,0.288-0.835,0.525-1.396,0.717c-0.562,0.19-1.205,0.285-1.935,0.285
				c-1.665,0-2.96-0.477-3.885-1.425c-0.924-0.948-1.387-2.238-1.387-3.864c0-0.769,0.115-1.479,0.342-2.133
				c0.229-0.656,0.563-1.218,0.998-1.687s0.976-0.828,1.615-1.078c0.639-0.25,1.349-0.375,2.127-0.375
				c1.013,0,1.881,0.213,2.605,0.642c0.727,0.427,1.27,0.979,1.63,1.655c0.36,0.679,0.541,1.369,0.541,2.071
				c0,0.653-0.187,1.074-0.561,1.269C548.13,782.094,547.604,782.19,546.926,782.19z M541.854,780.719h4.701
				c-0.063-0.888-0.302-1.551-0.717-1.99c-0.415-0.44-0.961-0.659-1.638-0.659c-0.646,0-1.178,0.222-1.592,0.668
				S541.944,779.844,541.854,780.719z"/>
			<path fill="#30A2AD" d="M557.496,785.344v-0.258c-0.35,0.398-0.691,0.725-1.03,0.973c-0.339,0.252-0.706,0.441-1.102,0.57
				c-0.396,0.132-0.828,0.195-1.296,0.195c-0.622,0-1.196-0.13-1.726-0.394c-0.528-0.264-0.985-0.639-1.372-1.127
				c-0.387-0.485-0.68-1.059-0.879-1.719c-0.199-0.658-0.299-1.371-0.299-2.137c0-1.621,0.396-2.886,1.187-3.791
				c0.792-0.904,1.834-1.357,3.125-1.357c0.747,0,1.378,0.129,1.892,0.385c0.513,0.257,1.013,0.652,1.5,1.183v-3.827
				c0-0.532,0.105-0.935,0.317-1.206s0.516-0.408,0.907-0.408c0.393,0,0.694,0.125,0.907,0.375c0.212,0.252,0.318,0.618,0.318,1.106
				v11.437c0,0.494-0.114,0.863-0.343,1.111c-0.229,0.246-0.521,0.369-0.884,0.369c-0.354,0-0.646-0.127-0.879-0.384
				C557.612,786.184,557.496,785.818,557.496,785.344z M552.396,781.535c0,0.703,0.107,1.301,0.326,1.795
				c0.22,0.493,0.519,0.865,0.898,1.114c0.379,0.251,0.794,0.378,1.243,0.378c0.456,0,0.873-0.12,1.249-0.357
				c0.377-0.236,0.678-0.602,0.901-1.092c0.226-0.491,0.337-1.105,0.337-1.838c0-0.691-0.111-1.285-0.337-1.783
				c-0.225-0.495-0.527-0.875-0.911-1.139c-0.384-0.263-0.804-0.395-1.259-0.395c-0.475,0-0.898,0.137-1.272,0.403
				c-0.373,0.27-0.663,0.654-0.869,1.158S552.396,780.869,552.396,781.535z"/>
			<path fill="#30A2AD" d="M568.094,773.907v3.96c0.487-0.506,0.984-0.896,1.491-1.162c0.507-0.271,1.134-0.404,1.881-0.404
				c0.861,0,1.616,0.205,2.267,0.611c0.647,0.41,1.15,1.002,1.51,1.777c0.356,0.774,0.537,1.694,0.537,2.76
				c0,0.785-0.101,1.504-0.299,2.16c-0.2,0.654-0.49,1.225-0.869,1.705c-0.381,0.479-0.842,0.854-1.383,1.116
				c-0.542,0.264-1.139,0.394-1.789,0.394c-0.4,0-0.775-0.047-1.127-0.144c-0.353-0.094-0.65-0.219-0.897-0.375
				c-0.246-0.153-0.457-0.313-0.631-0.479c-0.175-0.163-0.404-0.412-0.689-0.741v0.258c0,0.486-0.117,0.855-0.352,1.107
				c-0.233,0.25-0.531,0.373-0.894,0.373c-0.366,0-0.659-0.123-0.878-0.373c-0.219-0.252-0.328-0.621-0.328-1.107v-11.322
				c0-0.524,0.106-0.924,0.317-1.19c0.213-0.271,0.51-0.404,0.889-0.404c0.399,0,0.706,0.129,0.922,0.386
				C567.986,773.068,568.094,773.432,568.094,773.907z M568.218,781.61c0,1.031,0.235,1.824,0.707,2.378
				c0.472,0.555,1.091,0.834,1.857,0.834c0.65,0,1.214-0.283,1.686-0.853c0.472-0.565,0.707-1.379,0.707-2.436
				c0-0.685-0.097-1.274-0.294-1.769c-0.196-0.494-0.475-0.875-0.835-1.145c-0.361-0.269-0.783-0.403-1.264-0.403
				c-0.494,0-0.936,0.136-1.32,0.403c-0.387,0.27-0.69,0.658-0.912,1.168S568.218,780.907,568.218,781.61z"/>
			<path fill="#30A2AD" d="M579.14,787.148l0.237-0.58l-3.191-8.036c-0.194-0.46-0.295-0.798-0.295-1.007
				c0-0.222,0.059-0.428,0.173-0.615c0.113-0.191,0.271-0.344,0.47-0.457c0.199-0.115,0.407-0.172,0.622-0.172
				c0.373,0,0.655,0.119,0.847,0.356c0.189,0.236,0.356,0.576,0.502,1.021l2.194,6.383l2.08-5.936
				c0.165-0.48,0.313-0.857,0.445-1.132c0.134-0.271,0.273-0.454,0.423-0.549c0.148-0.096,0.359-0.145,0.633-0.145
				c0.196,0,0.385,0.053,0.564,0.158c0.181,0.104,0.319,0.243,0.417,0.422c0.099,0.178,0.148,0.362,0.148,0.561
				c-0.026,0.119-0.066,0.291-0.124,0.514c-0.059,0.222-0.126,0.446-0.209,0.675l-3.381,8.852c-0.292,0.779-0.577,1.389-0.855,1.832
				c-0.279,0.443-0.646,0.785-1.105,1.021c-0.46,0.237-1.078,0.356-1.857,0.356c-0.759,0-1.329-0.082-1.708-0.246
				c-0.382-0.166-0.57-0.467-0.57-0.903c0-0.298,0.089-0.527,0.271-0.688c0.18-0.162,0.448-0.244,0.802-0.244
				c0.141,0,0.276,0.021,0.409,0.06c0.164,0.036,0.307,0.057,0.427,0.057c0.297,0,0.532-0.044,0.703-0.133
				c0.171-0.088,0.324-0.242,0.461-0.462C578.806,787.895,578.963,787.572,579.14,787.148z"/>
		</g>
		<g display="inline">
			<path fill="#30A2AD" d="M616.703,776.507h0.618v-0.778c0-0.813,0.1-1.456,0.307-1.938c0.204-0.479,0.556-0.825,1.047-1.044
				c0.49-0.217,1.163-0.327,2.018-0.327c1.52,0,2.271,0.367,2.271,1.114c0,0.239-0.079,0.444-0.24,0.615
				c-0.153,0.17-0.343,0.256-0.558,0.256c-0.1,0-0.278-0.02-0.527-0.061c-0.236-0.032-0.451-0.056-0.623-0.056
				c-0.468,0-0.767,0.141-0.904,0.416c-0.127,0.275-0.195,0.668-0.195,1.184v0.618h0.633c0.991,0,1.481,0.296,1.481,0.896
				c0,0.418-0.127,0.688-0.394,0.804c-0.262,0.114-0.624,0.171-1.089,0.171h-0.633v6.871c0,0.512-0.12,0.9-0.369,1.168
				c-0.241,0.273-0.554,0.406-0.942,0.406c-0.366,0-0.671-0.133-0.918-0.406c-0.243-0.268-0.363-0.656-0.363-1.168v-6.871h-0.714
				c-0.39,0-0.684-0.084-0.895-0.262c-0.209-0.171-0.313-0.398-0.313-0.677C615.399,776.814,615.834,776.507,616.703,776.507"/>
			<path fill="#30A2AD" d="M625.192,783.08v2.168c0,0.524-0.134,0.92-0.374,1.18c-0.247,0.268-0.56,0.396-0.938,0.396
				c-0.382,0-0.688-0.131-0.927-0.4c-0.236-0.264-0.36-0.656-0.36-1.174v-7.223c0-1.166,0.42-1.748,1.261-1.748
				c0.435,0,0.743,0.134,0.935,0.407c0.188,0.273,0.295,0.675,0.317,1.207c0.308-0.532,0.624-0.934,0.947-1.207
				c0.332-0.273,0.764-0.407,1.311-0.407c0.549,0,1.072,0.134,1.585,0.407c0.516,0.273,0.771,0.638,0.771,1.084
				c0,0.314-0.109,0.58-0.326,0.781c-0.22,0.209-0.453,0.313-0.705,0.313c-0.101,0-0.331-0.063-0.692-0.181
				c-0.365-0.113-0.688-0.174-0.963-0.174c-0.38,0-0.692,0.104-0.933,0.299c-0.241,0.205-0.431,0.496-0.563,0.887
				c-0.129,0.396-0.219,0.865-0.272,1.403C625.215,781.641,625.192,782.303,625.192,783.08"/>
			<path fill="#30A2AD" d="M637.113,782.188h-5.074c0.009,0.588,0.124,1.109,0.354,1.559c0.235,0.447,0.54,0.786,0.926,1.018
				c0.385,0.228,0.804,0.34,1.269,0.34c0.312,0,0.593-0.033,0.85-0.11c0.255-0.07,0.506-0.187,0.745-0.342
				c0.242-0.152,0.46-0.318,0.664-0.5c0.202-0.175,0.467-0.416,0.79-0.72c0.135-0.111,0.324-0.174,0.568-0.174
				c0.269,0,0.48,0.074,0.648,0.224c0.166,0.146,0.243,0.35,0.243,0.616c0,0.234-0.089,0.509-0.268,0.818
				c-0.188,0.318-0.463,0.616-0.836,0.906c-0.374,0.285-0.839,0.526-1.397,0.714c-0.56,0.189-1.206,0.286-1.932,0.286
				c-1.671,0-2.964-0.474-3.888-1.422c-0.924-0.952-1.392-2.242-1.392-3.868c0-0.768,0.117-1.479,0.348-2.134
				c0.226-0.658,0.559-1.218,0.999-1.688c0.437-0.471,0.971-0.829,1.612-1.079c0.638-0.249,1.347-0.374,2.128-0.374
				c1.011,0,1.881,0.215,2.606,0.646c0.724,0.422,1.272,0.977,1.629,1.653c0.361,0.681,0.542,1.367,0.542,2.073
				c0,0.649-0.188,1.07-0.563,1.268C638.315,782.092,637.791,782.188,637.113,782.188 M632.039,780.713h4.701
				c-0.063-0.885-0.298-1.549-0.714-1.986c-0.418-0.44-0.959-0.659-1.642-0.659c-0.646,0-1.177,0.22-1.592,0.669
				C632.38,779.182,632.126,779.84,632.039,780.713"/>
			<path fill="#30A2AD" d="M647.9,782.188h-5.073c0.006,0.588,0.125,1.109,0.354,1.559c0.231,0.447,0.539,0.786,0.921,1.018
				c0.384,0.228,0.807,0.34,1.271,0.34c0.308,0,0.593-0.033,0.845-0.11c0.259-0.07,0.506-0.187,0.75-0.342
				c0.242-0.152,0.46-0.318,0.664-0.5c0.199-0.175,0.464-0.416,0.788-0.72c0.135-0.111,0.326-0.174,0.568-0.174
				c0.269,0,0.482,0.074,0.649,0.224c0.165,0.146,0.24,0.35,0.24,0.616c0,0.234-0.087,0.509-0.272,0.818
				c-0.178,0.318-0.455,0.616-0.83,0.906c-0.37,0.285-0.841,0.526-1.396,0.714c-0.558,0.189-1.208,0.286-1.935,0.286
				c-1.667,0-2.959-0.474-3.888-1.422c-0.924-0.952-1.389-2.242-1.389-3.868c0-0.768,0.116-1.479,0.348-2.134
				c0.228-0.658,0.56-1.218,0.996-1.688s0.974-0.829,1.614-1.079c0.638-0.249,1.351-0.374,2.129-0.374
				c1.009,0,1.878,0.215,2.613,0.646c0.72,0.422,1.266,0.977,1.621,1.653c0.358,0.681,0.545,1.367,0.545,2.073
				c0,0.649-0.191,1.07-0.563,1.268C649.101,782.092,648.576,782.188,647.9,782.188 M642.827,780.713h4.701
				c-0.063-0.885-0.305-1.549-0.716-1.986c-0.421-0.44-0.962-0.659-1.643-0.659c-0.646,0-1.176,0.22-1.593,0.669
				C643.165,779.182,642.911,779.84,642.827,780.713"/>
			<path fill="#30A2AD" d="M653.58,777.735v0.312c0.486-0.602,0.994-1.043,1.523-1.324c0.52-0.283,1.118-0.428,1.782-0.428
				c0.795,0,1.535,0.208,2.207,0.617c0.671,0.414,1.198,1.016,1.589,1.807c0.391,0.795,0.586,1.729,0.586,2.813
				c0,0.796-0.111,1.532-0.336,2.202c-0.224,0.668-0.537,1.227-0.929,1.68c-0.394,0.449-0.854,0.801-1.39,1.045
				c-0.542,0.242-1.111,0.363-1.729,0.363c-0.738,0-1.364-0.148-1.865-0.447c-0.503-0.291-0.981-0.732-1.44-1.306v3.894
				c0,1.135-0.416,1.709-1.244,1.709c-0.49,0-0.81-0.146-0.972-0.439c-0.151-0.299-0.233-0.723-0.233-1.291v-11.192
				c0-0.495,0.106-0.859,0.32-1.107c0.215-0.237,0.512-0.362,0.885-0.362c0.369,0,0.666,0.125,0.896,0.373
				C653.467,776.904,653.58,777.261,653.58,777.735 M658.664,781.503c0-0.684-0.106-1.271-0.314-1.763
				c-0.209-0.492-0.499-0.867-0.865-1.127c-0.367-0.265-0.782-0.396-1.232-0.396c-0.714,0-1.318,0.283-1.809,0.844
				c-0.492,0.566-0.739,1.396-0.739,2.492c0,1.027,0.244,1.833,0.734,2.406c0.487,0.573,1.087,0.859,1.813,0.859
				c0.429,0,0.83-0.127,1.197-0.373c0.371-0.252,0.665-0.626,0.884-1.126C658.553,782.816,658.664,782.211,658.664,781.503"/>
			<path fill="#30A2AD" d="M663.88,775.069c-0.362,0-0.669-0.114-0.923-0.335c-0.26-0.224-0.388-0.532-0.388-0.938
				c0-0.368,0.131-0.67,0.396-0.909c0.262-0.233,0.566-0.355,0.914-0.355c0.34,0,0.636,0.105,0.895,0.318
				c0.26,0.22,0.391,0.534,0.391,0.946c0,0.399-0.127,0.712-0.378,0.938C664.532,774.955,664.231,775.069,663.88,775.069
				 M665.164,777.748v7.502c0,0.516-0.124,0.908-0.37,1.172c-0.25,0.271-0.561,0.4-0.94,0.4c-0.381,0-0.686-0.133-0.929-0.406
				c-0.232-0.276-0.354-0.664-0.354-1.166v-7.428c0-0.509,0.122-0.896,0.354-1.154c0.243-0.264,0.547-0.391,0.929-0.391
				c0.381,0,0.69,0.127,0.94,0.391C665.04,776.928,665.164,777.29,665.164,777.748"/>
			<path fill="#30A2AD" d="M673.523,785.639l-2.284-3.766l-1.408,1.328v2.065c0,0.498-0.133,0.882-0.396,1.148
				c-0.257,0.272-0.565,0.406-0.905,0.406c-0.398,0-0.715-0.131-0.94-0.4c-0.227-0.264-0.344-0.656-0.344-1.174v-11.063
				c0-0.573,0.114-1.012,0.331-1.313c0.223-0.306,0.545-0.452,0.953-0.452c0.398,0,0.713,0.138,0.948,0.411
				c0.234,0.271,0.354,0.674,0.354,1.202v6.294l2.916-3.063c0.362-0.377,0.633-0.641,0.827-0.778
				c0.188-0.14,0.419-0.207,0.688-0.207c0.326,0,0.595,0.104,0.815,0.309c0.211,0.205,0.32,0.465,0.32,0.773
				c0,0.379-0.354,0.889-1.056,1.521l-1.377,1.262l2.659,4.185c0.193,0.313,0.339,0.543,0.424,0.705
				c0.084,0.159,0.13,0.319,0.13,0.463c0,0.412-0.113,0.734-0.341,0.975c-0.225,0.236-0.522,0.354-0.886,0.354
				c-0.316,0-0.563-0.08-0.733-0.256C674.051,786.395,673.813,786.084,673.523,785.639"/>
			<path fill="#30A2AD" d="M679.159,786.822c-0.393,0-0.729-0.125-1.015-0.381c-0.283-0.248-0.429-0.605-0.429-1.064
				c0-0.385,0.138-0.719,0.41-0.995c0.274-0.278,0.607-0.419,1.008-0.419c0.397,0,0.735,0.141,1.022,0.412
				c0.278,0.275,0.422,0.613,0.422,1.002c0,0.453-0.144,0.809-0.422,1.061C679.87,786.697,679.538,786.822,679.159,786.822"/>
			<path fill="#30A2AD" d="M692.058,783.613c0,0.319-0.097,0.668-0.291,1.033c-0.19,0.37-0.487,0.719-0.886,1.051
				c-0.395,0.332-0.892,0.602-1.495,0.803c-0.601,0.202-1.28,0.307-2.03,0.307c-1.605,0-2.857-0.469-3.758-1.399
				c-0.896-0.938-1.346-2.189-1.346-3.761c0-1.067,0.204-2.007,0.619-2.823c0.407-0.815,1.004-1.448,1.781-1.896
				c0.778-0.447,1.716-0.67,2.794-0.67c0.674,0,1.288,0.1,1.853,0.295c0.562,0.195,1.032,0.451,1.425,0.76
				c0.388,0.314,0.687,0.644,0.891,0.992c0.207,0.353,0.308,0.681,0.308,0.986c0,0.308-0.113,0.572-0.343,0.787
				c-0.235,0.215-0.517,0.324-0.839,0.324c-0.219,0-0.397-0.058-0.541-0.166c-0.145-0.112-0.306-0.289-0.479-0.542
				c-0.316-0.479-0.646-0.842-0.996-1.079c-0.343-0.242-0.779-0.362-1.313-0.362c-0.762,0-1.384,0.298-1.854,0.897
				c-0.468,0.596-0.703,1.42-0.703,2.454c0,0.488,0.063,0.938,0.184,1.348c0.117,0.407,0.291,0.757,0.521,1.044
				c0.23,0.287,0.505,0.506,0.826,0.654c0.324,0.153,0.682,0.227,1.063,0.227c0.521,0,0.967-0.12,1.337-0.361
				c0.376-0.24,0.702-0.606,0.985-1.102c0.158-0.291,0.327-0.519,0.51-0.685c0.183-0.164,0.408-0.249,0.676-0.249
				c0.315,0,0.58,0.123,0.786,0.362C691.951,783.084,692.058,783.342,692.058,783.613"/>
			<path fill="#30A2AD" d="M703.248,781.553c0,0.771-0.122,1.483-0.355,2.139c-0.246,0.652-0.592,1.214-1.05,1.679
				c-0.455,0.469-1.002,0.828-1.632,1.08c-0.64,0.248-1.35,0.375-2.139,0.375c-0.785,0-1.493-0.127-2.121-0.383
				c-0.623-0.248-1.171-0.614-1.626-1.082c-0.461-0.478-0.81-1.033-1.052-1.677c-0.229-0.645-0.352-1.354-0.352-2.131
				c0-0.787,0.124-1.506,0.358-2.158c0.242-0.653,0.589-1.213,1.039-1.674s0.993-0.815,1.631-1.069
				c0.644-0.248,1.35-0.373,2.121-0.373c0.784,0,1.498,0.125,2.139,0.381c0.638,0.252,1.183,0.615,1.644,1.08
				c0.458,0.475,0.804,1.028,1.04,1.672C703.128,780.061,703.248,780.77,703.248,781.553 M700.645,781.553
				c0-1.059-0.233-1.881-0.697-2.469c-0.463-0.596-1.09-0.889-1.874-0.889c-0.508,0-0.955,0.132-1.343,0.395
				c-0.388,0.262-0.682,0.648-0.891,1.163s-0.314,1.114-0.314,1.8c0,0.68,0.103,1.268,0.31,1.773
				c0.208,0.51,0.502,0.896,0.886,1.166c0.387,0.266,0.835,0.404,1.354,0.404c0.784,0,1.411-0.298,1.874-0.894
				C700.41,783.414,700.645,782.594,700.645,781.553"/>
			<path fill="#30A2AD" d="M713.14,781.742v3.447c0,0.546-0.12,0.949-0.368,1.227c-0.25,0.273-0.571,0.408-0.979,0.408
				c-0.393,0-0.714-0.135-0.951-0.408c-0.247-0.276-0.372-0.681-0.372-1.227v-4.132c0-0.653-0.021-1.161-0.063-1.524
				c-0.046-0.354-0.168-0.655-0.362-0.883c-0.196-0.235-0.509-0.353-0.931-0.353c-0.852,0-1.407,0.291-1.678,0.881
				c-0.268,0.577-0.405,1.414-0.405,2.509v3.502c0,0.536-0.122,0.944-0.361,1.223c-0.249,0.273-0.567,0.412-0.965,0.412
				c-0.396,0-0.717-0.139-0.967-0.412c-0.252-0.277-0.376-0.686-0.376-1.223v-7.42c0-0.488,0.11-0.859,0.335-1.111
				c0.229-0.256,0.525-0.381,0.89-0.381c0.356,0,0.651,0.123,0.892,0.354c0.236,0.239,0.354,0.566,0.354,0.985v0.244
				c0.453-0.535,0.935-0.933,1.444-1.181c0.517-0.26,1.082-0.387,1.713-0.387c0.65,0,1.211,0.131,1.678,0.391
				c0.47,0.261,0.854,0.654,1.16,1.177c0.438-0.527,0.909-0.922,1.41-1.181c0.5-0.258,1.053-0.387,1.662-0.387
				c0.705,0,1.32,0.145,1.834,0.42c0.51,0.277,0.893,0.68,1.146,1.195c0.221,0.472,0.33,1.209,0.33,2.217v5.063
				c0,0.547-0.122,0.95-0.367,1.228c-0.246,0.272-0.575,0.408-0.979,0.408c-0.396,0-0.715-0.14-0.966-0.412
				c-0.25-0.277-0.376-0.687-0.376-1.224v-4.361c0-0.559-0.022-1.003-0.068-1.337c-0.047-0.338-0.177-0.621-0.383-0.849
				c-0.212-0.228-0.53-0.344-0.953-0.344c-0.342,0-0.666,0.107-0.975,0.309c-0.307,0.197-0.547,0.478-0.721,0.813
				C713.238,779.857,713.14,780.632,713.14,781.742"/>
		</g>
		<g display="inline">
			<path fill="#30A2AD" d="M592.435,780.924c-0.002-0.005-0.002-0.01-0.002-0.018C592.433,780.914,592.433,780.919,592.435,780.924z
				"/>
			<path fill="#30A2AD" d="M592.565,781.753c0.002,0,0.002,0,0.003,0c-0.051-0.235-0.088-0.471-0.118-0.702
				C592.48,781.285,592.519,781.52,592.565,781.753z"/>
			<path fill="#30A2AD" d="M593.424,784.16c-0.006-0.01-0.011-0.021-0.017-0.033C593.413,784.139,593.418,784.15,593.424,784.16z"/>
			<path fill="#30A2AD" d="M593.342,783.999c-0.021-0.044-0.044-0.089-0.064-0.134C593.298,783.912,593.319,783.955,593.342,783.999
				z"/>
			<path fill="#30A2AD" d="M592.807,782.68c0.127,0.4,0.28,0.789,0.457,1.158c-0.18-0.377-0.33-0.766-0.453-1.158
				C592.81,782.68,592.808,782.68,592.807,782.68z"/>
			<path fill="#30A2AD" d="M602.473,770.988c0.501,0,0.871,0.039,1.295,0.109l0.12-0.763c0,0-1.171-0.359-2.711-0.234l-0.121-0.414
				c0.479-0.102,0.839-0.526,0.839-1.034c0-0.582-0.475-1.055-1.058-1.055s-1.056,0.473-1.056,1.055
				c0,0.508,0.357,0.934,0.836,1.034l0.134,0.464c-1.635,0.224-2.936,0.86-2.936,0.86l0.229,0.705
				c0.989-0.328,1.847-0.528,2.624-0.612C601.432,771.023,602.005,770.988,602.473,770.988z"/>
			<path fill="#30A2AD" d="M593.404,774.846l0.006-0.008c0.039-0.049,0.076-0.096,0.113-0.143l-0.313-0.227l-0.488-0.355
				c-0.026,0.039-0.795,0.744-1.4,2.048c-0.025-0.04-0.057-0.081-0.091-0.118c-0.182-0.199-0.436-0.301-0.758-0.295
				c-0.004,0-0.01,0-0.015,0c-0.2,0-0.337-0.066-0.427-0.146c0.089-0.112,0.143-0.257,0.143-0.412c0-0.369-0.3-0.67-0.669-0.67
				s-0.669,0.301-0.669,0.67s0.3,0.668,0.669,0.668c0.058,0,0.113-0.01,0.167-0.021c0.164,0.184,0.425,0.342,0.808,0.334
				c0.196-0.002,0.342,0.049,0.438,0.156c0.11,0.121,0.148,0.295,0.159,0.427c-0.001,0.003-0.001,0.005-0.003,0.005
				c-0.437,1.189-0.312,2.67-0.312,2.67l1.058,0.042c0.021-0.538,0.099-1.48,0.372-2.229
				C592.719,775.79,593.378,774.885,593.404,774.846z"/>
			<path fill="#30A2AD" d="M611.672,771.871c-0.368,0-0.669,0.299-0.669,0.669c0,0.058,0.009,0.112,0.023,0.165
				c-0.185,0.166-0.344,0.428-0.337,0.811c0.003,0.197-0.049,0.342-0.154,0.438c-0.085,0.075-0.191,0.116-0.296,0.142
				c-0.787-1.104-1.756-1.774-1.756-1.774l-0.76,0.813c0.573,0.521,1.159,1.175,1.729,1.989c0.394,0.563,0.799,1.29,1.136,2.015
				l1.024-0.484c0,0-0.469-1.156-1.126-2.191c0.114-0.041,0.229-0.103,0.331-0.193c0.199-0.18,0.299-0.436,0.293-0.758
				c-0.002-0.207,0.065-0.348,0.147-0.44c0.114,0.088,0.257,0.143,0.412,0.143c0.371,0,0.67-0.299,0.67-0.669
				S612.043,771.871,611.672,771.871z"/>
			<path fill="#30A2AD" d="M609.015,781.073c-1.408,0.687-3.729,1.595-6.78,2.021c-1.198,0.166-2.359,0.228-3.43,0.228
				c-1.391,0-2.619-0.104-3.563-0.224c-1.076-0.135-1.917-0.301-2.433-0.418c0.123,0.394,0.273,0.781,0.453,1.158
				c0.004,0.01,0.009,0.021,0.014,0.027c0.021,0.045,0.043,0.09,0.064,0.134s0.043,0.087,0.065,0.128
				c0.006,0.012,0.011,0.023,0.017,0.033c0.303,0.569,0.667,1.094,1.081,1.549c1.439,1.574,2.907,1.823,2.921,1.826l0.022,0.002
				l0.021,0.008c0.015,0.006,1.314,0.425,3.292,0.425c1.945,0,3.854-0.393,5.674-1.167c1.349-0.688,2.622-1.736,3.255-2.67
				c0.487-0.723,0.841-1.493,1.05-2.293c0.11-0.426,0.199-1.107,0.146-1.826C610.49,780.281,609.863,780.66,609.015,781.073z"/>
			<path fill="#30A2AD" d="M593.857,775.18c-0.041,0.062-0.652,0.927-1.137,2.254c-0.36,0.994-0.346,2.443-0.346,2.459v0.005
				c0,0.339,0.02,0.676,0.057,1.01c0,0.008,0,0.013,0.002,0.018c0.005,0.043,0.013,0.084,0.017,0.127
				c0.03,0.231,0.067,0.468,0.118,0.702c0.699,0.18,4.879,1.153,9.549,0.503c2.927-0.408,5.148-1.272,6.499-1.928
				c1.121-0.543,1.842-1.035,2.12-1.238c-0.277-1.026-1.042-2.641-1.743-3.646c-2.005-2.866-4.167-3.602-5.277-3.784
				c-0.424-0.068-0.763-0.109-1.243-0.109c-0.446,0-1.002,0.037-1.742,0.114c-0.743,0.077-1.572,0.273-2.532,0.596
				c-1.349,0.452-2.567,1.159-3.527,2.049l-0.032,0.03C594.495,774.47,594.198,774.746,593.857,775.18z M606.127,774.514
				c0.961,0,1.743,0.78,1.743,1.743c0,0.962-0.782,1.743-1.743,1.743c-0.962,0-1.742-0.781-1.742-1.743
				C604.385,775.294,605.165,774.514,606.127,774.514z M597.885,774.444c1.558,0,2.817,1.261,2.817,2.815s-1.261,2.815-2.817,2.815
				c-1.555,0-2.814-1.261-2.814-2.815S596.33,774.444,597.885,774.444z"/>
		</g>
	</g>
</g>
</svg>
