<?xml version="1.0" encoding="utf-8"?>
<!-- Generator: Adobe Illustrator 16.0.0, SVG Export Plug-In . SVG Version: 6.00 Build 0)  -->
<!DOCTYPE svg PUBLIC "-//W3C//DTD SVG 1.1//EN" "http://www.w3.org/Graphics/SVG/1.1/DTD/svg11.dtd">
<svg version="1.1" id="Layer_2" xmlns="http://www.w3.org/2000/svg" xmlns:xlink="http://www.w3.org/1999/xlink" x="0px" y="0px"
	 width="251.122px" height="111.749px" viewBox="0 -19.954 251.122 111.749" enable-background="new 0 -19.954 251.122 111.749"
	 xml:space="preserve">
<path fill="#EDE8CA" d="M240.594,29.553c4.207,4.591,7.203,10.112,4.699,17.282c-1.752,5.047-5.311,8.271-9.212,11.061
	c2.198-5.405,3.679-11.23,4.343-17.244C240.816,37.008,240.884,33.253,240.594,29.553"/>
<path fill="#EDE8CA" d="M219.79,70.101c5.431-8.568,8.53-18.979,8.478-30.737c-0.034-10.262-2.964-20.362-8.139-29.271
	c6.725,3.551,12.311,7.135,14.609,15.166c0.323,1.124,0.597,2.28,0.802,3.437c1.004,5.457,0.766,11.125-0.462,16.518
	c-1.173,5.146-3.218,9.999-6.044,14.366C226.547,63.501,223.416,67.053,219.79,70.101"/>
<path fill="#EDE8CA" d="M111.903,79.84c0.442,0.171,0.886,0.328,1.328,0.498c-15.699,1.025-30.019,2.209-45.633-1.922
	c-7.459-1.965-14.559-4.756-21.147-8.259c-4.683-2.478-8.564-5.568-12.585-8.573c10.081-0.44,20.178-1.138,30.156,0.172
	C81.423,64.035,96.12,73.902,111.903,79.84"/>
<path fill="#EDE8CA" d="M25.438,54.463c-0.579,0.063-1.141,0.126-1.703,0.188c-8.258-0.029-23.104,0.837-19.272-9.729
	c2.332-6.386,8.547-12.315,13.859-16.667C28.165,20.198,40.118,14.694,52.088,9.9c16.38-6.56,33.628-12.647,51.235-17.299
	c13.674-3.627,27.55-6.386,41.411-7.821c26.986-2.823,54.383,4.053,68.907,24.788c2.301,3.28,4.292,6.938,5.892,10.943
	c9.128,22.755,2.623,41.032-11.595,52.606c-3.796,3.089-8.139,5.708-12.89,7.805c-13.894,6.134-31.192,7.806-48.118,3.973
	c-9.756-2.189-19.241-5.125-28.453-8.719c-6.83-2.648-13.505-5.66-20.025-9.005c-12.31-6.323-24.177-12.205-38.482-13.244
	c-10.012-0.728-21.335-0.712-32.147,0.298C26.956,53.69,26.019,53.911,25.438,54.463"/>
<g>
	<g>
		<g>
			<defs>
				<rect id="SVGID_1_" x="32.23" y="55.947" width="80.528" height="26.291"/>
			</defs>
			<clipPath id="SVGID_2_">
				<use xlink:href="#SVGID_1_"  overflow="visible"/>
			</clipPath>
			<path clip-path="url(#SVGID_2_)" fill="#D8D1AF" d="M110.61,76.385c-2.602-0.73-5.156-1.532-7.693-2.37
				c-9.475-7.201-21.172-11.435-32.734-14.399c-0.854-0.221-1.531-0.048-2.023,0.335c-0.233-0.084-0.456-0.181-0.688-0.259
				c-10.648-3.604-23.085-5.12-34.093-2.227c-1.988,0.523-1.163,3.295,0.735,3.231c16.59-0.556,31.516,0.85,45.667,10.01
				C89.502,77,98.523,85.088,111.035,81.244C113.778,80.401,112.958,77.043,110.61,76.385"/>
		</g>
	</g>
</g>
<g>
	<g>
		<g>
			<defs>
				<rect id="SVGID_3_" x="219.361" y="38.501" width="18.856" height="30.769"/>
			</defs>
			<clipPath id="SVGID_4_">
				<use xlink:href="#SVGID_3_"  overflow="visible"/>
			</clipPath>
			<path clip-path="url(#SVGID_4_)" fill="#D8D1AF" d="M235.852,46.856c1.862-2.402,3.152-4.987,1.813-7.819
				c-0.43-0.91-1.835-0.55-2.089,0.248c-1.739,5.5-6.308,8.803-9.26,13.702c-2.748,4.559-3.723,9.652-6.713,14.143
				c-1.144,1.714,1.98,2.917,3.329,1.546c5.474-5.569,12.657-13.308,13.568-20.692C236.564,47.497,236.27,47.096,235.852,46.856"/>
		</g>
	</g>
</g>
<g>
	<g>
		<g>
			<defs>
				<rect id="SVGID_5_" x="234.258" y="43.737" width="12.933" height="15.161"/>
			</defs>
			<clipPath id="SVGID_6_">
				<use xlink:href="#SVGID_5_"  overflow="visible"/>
			</clipPath>
			<path clip-path="url(#SVGID_6_)" fill="#D8D1AF" d="M243.886,44.329c-2.128,1.938-5.32,3.993-6.219,6.583
				c-0.01,0.026-0.004,0.049-0.014,0.074c-1.342,1.773-2.313,3.818-3.228,5.71c-0.756,1.567,1.125,2.819,2.827,1.876
				c5.409-2.997,9.097-7.716,9.917-13.122C247.422,43.809,245.17,43.164,243.886,44.329"/>
		</g>
	</g>
</g>
<g>
	<g>
		<g>
			<defs>
				<rect id="SVGID_7_" x="91.38" y="36.902" width="134.987" height="50.539"/>
			</defs>
			<clipPath id="SVGID_8_">
				<use xlink:href="#SVGID_7_"  overflow="visible"/>
			</clipPath>
			<path clip-path="url(#SVGID_8_)" fill="#D8D1AF" d="M226.328,38.117c-0.103-1.944-3.4-1.359-3.49,0.383
				c-1.203,23.239-27.224,35.016-52.062,37.275c-26.987,2.453-51.465-3.291-77.158-9.068c-1.87-0.419-3.215,1.642-1.329,2.44
				c6.791,2.872,14.235,4.967,21.859,6.525c0.016,0.011,0.024,0.024,0.042,0.033c32.829,17.683,96.655,18.643,108.686-20.051
				c0.195-0.629-0.05-1.209-0.495-1.65C225.154,49.272,226.637,43.954,226.328,38.117"/>
		</g>
	</g>
</g>
<path fill="#FFFEF3" d="M232.631,29.76c-0.042-0.056-0.092-0.107-0.132-0.164c-0.086-1.236-1.34-2.596-2.228-3.449
	c-0.572-0.554-1.228-1.118-1.926-1.568c-0.216-0.141-0.439-0.25-0.662-0.347c-0.513-0.406-1.044-0.799-1.609-1.229
	c-0.464-0.354-1.159,0.112-0.963,0.574c0.595,1.397,1.032,2.612,1.992,3.891c0.963,1.285,1.944,2.557,2.945,3.822
	C231.18,32.714,233.754,31.174,232.631,29.76"/>
<path fill="#1B3F4C" d="M240.457,26.982c-2.303-10.176-9.215-18.873-22.122-19.889c-6.169-8.636-14.788-15.825-25.038-20.412
	c-27.425-12.284-60.375-5.065-88.205,2.079c-0.627,0.153-1.252,0.323-1.878,0.492C76.057-3.759,46.752,4.815,23.696,19.886
	C14.022,26.228,2.232,36.372,0.167,47.704c-1.406,7.696,6.285,10.05,14.331,10.342c4.641,0.524,9.3,0.602,13.976,0.493
	c9.01,11.331,27.036,18.828,41.043,22.431c14.909,3.803,34.133,5.587,48.549-0.631c0.135-0.063,0.271-0.14,0.355-0.232
	c13.282,5.018,27.223,8.713,41.418,10.839c20.803,3.124,39.96-2.512,52.802-14.304c0.305,0,0.646-0.059,0.982-0.229
	c8.08-3.787,14.737-9.437,19.497-16.211c8.385-2.833,17.247-9.222,17.959-17.902C251.588,36.141,247.334,28.66,240.457,26.982
	 M69.044,76.488c-7.421-2.123-14.485-5.141-21.04-8.927c-4.658-2.68-8.52-6.021-12.519-9.27c10.028-0.476,20.075-1.228,30,0.188
	c17.312,2.462,31.933,13.131,47.633,19.548c0.441,0.186,0.884,0.356,1.322,0.54C98.825,79.674,84.579,80.953,69.044,76.488
	 M195.837,79.829c-13.823,5.988-31.034,7.621-47.872,3.879c-9.706-2.138-19.143-5.004-28.306-8.511
	c-6.796-2.587-13.436-5.527-19.923-8.791c-12.246-6.173-24.053-11.914-38.285-12.93c-9.96-0.709-21.225-0.694-31.982,0.292
	c-0.864-0.523-1.795-0.308-2.371,0.23c-0.576,0.062-1.135,0.124-1.694,0.185c-8.216-0.029-22.985,0.815-19.174-9.498
	c2.32-6.234,8.504-12.022,13.789-16.271c9.792-7.866,21.684-13.239,33.592-17.918C69.907,4.092,87.067-1.851,104.583-6.392
	c13.604-3.541,27.409-6.235,41.198-7.635c26.851-2.755,54.103,3.957,68.555,24.198c2.287,3.203,4.271,6.774,5.86,10.685
	c9.081,22.212,2.61,40.057-11.534,51.355C204.882,75.226,200.564,77.782,195.837,79.829 M220.454,67.5
	c5.402-8.098,8.485-17.935,8.433-29.049c-0.033-9.698-2.948-19.243-8.096-27.663c6.689,3.355,12.247,6.742,14.535,14.332
	c0.32,1.063,0.593,2.155,0.797,3.249c0.998,5.157,0.761,10.513-0.46,15.611c-1.167,4.862-3.201,9.448-6.014,13.575
	C227.175,61.264,224.061,64.619,220.454,67.5 M245.827,45.331c-1.744,4.096-5.284,6.713-9.165,8.976
	c2.187-4.388,3.66-9.113,4.321-13.993c0.388-2.956,0.458-6.003,0.171-9.005C245.336,35.033,248.317,39.512,245.827,45.331"/>
</svg>
