<?xml version="1.0" encoding="utf-8"?>
<!-- Generator: Adobe Illustrator 16.0.0, SVG Export Plug-In . SVG Version: 6.00 Build 0)  -->
<!DOCTYPE svg PUBLIC "-//W3C//DTD SVG 1.1//EN" "http://www.w3.org/Graphics/SVG/1.1/DTD/svg11.dtd">
<svg version="1.1" id="Layer_2" xmlns="http://www.w3.org/2000/svg" xmlns:xlink="http://www.w3.org/1999/xlink" x="0px" y="0px"
	 width="160px" height="71.202px" viewBox="45.56 0.321 160 71.202" enable-background="new 45.56 0.321 160 71.202"
	 xml:space="preserve">
<path fill="#EDE8CA" d="M198.853,31.864c2.681,2.925,4.59,6.443,2.994,11.011c-1.116,3.216-3.385,5.27-5.87,7.048
	c1.4-3.444,2.345-7.155,2.768-10.987C198.995,36.614,199.038,34.221,198.853,31.864"/>
<path fill="#EDE8CA" d="M185.598,57.699c3.461-5.459,5.435-12.093,5.402-19.584c-0.021-6.539-1.889-12.974-5.186-18.65
	c4.285,2.263,7.844,4.546,9.308,9.663c0.205,0.716,0.381,1.453,0.511,2.19c0.64,3.477,0.489,7.088-0.293,10.524
	c-0.749,3.279-2.052,6.371-3.852,9.153C189.903,53.494,187.91,55.756,185.598,57.699"/>
<path fill="#EDE8CA" d="M116.858,63.903c0.282,0.109,0.565,0.209,0.846,0.317c-10.002,0.652-19.126,1.407-29.075-1.225
	c-4.752-1.252-9.276-3.03-13.474-5.262c-2.984-1.58-5.457-3.547-8.019-5.463c6.423-0.279,12.856-0.725,19.214,0.11
	C97.438,53.834,106.802,60.121,116.858,63.903"/>
<path fill="#EDE8CA" d="M61.767,47.735c-0.369,0.04-0.727,0.08-1.085,0.12c-5.262-0.019-14.721,0.533-12.279-6.199
	c1.486-4.069,5.446-7.847,8.83-10.62c6.272-5.133,13.888-8.64,21.514-11.695c10.437-4.18,21.426-8.058,32.645-11.022
	c8.712-2.311,17.553-4.069,26.385-4.983c17.193-1.799,34.65,2.582,43.903,15.793c1.466,2.09,2.735,4.42,3.755,6.972
	c5.815,14.499,1.671,26.144-7.389,33.519c-2.418,1.969-5.186,3.637-8.214,4.973c-8.852,3.908-19.872,4.974-30.657,2.532
	c-6.216-1.395-12.259-3.266-18.128-5.557c-4.352-1.687-8.604-3.605-12.759-5.737c-7.843-4.028-15.404-7.777-24.519-8.439
	c-6.379-0.463-13.594-0.454-20.483,0.19C62.734,47.243,62.137,47.384,61.767,47.735"/>
<g>
	<g>
		<g>
			<g>
				<g>
					<defs>
						<rect id="SVGID_1_" x="66.095" y="48.681" width="51.308" height="16.752"/>
					</defs>
					<clipPath id="SVGID_2_">
						<use xlink:href="#SVGID_1_"  overflow="visible"/>
					</clipPath>
					<path clip-path="url(#SVGID_2_)" fill="#D8D1AF" d="M116.034,61.702c-1.658-0.464-3.285-0.976-4.901-1.509
						c-6.037-4.588-13.49-7.287-20.856-9.174c-0.544-0.142-0.976-0.031-1.289,0.213c-0.149-0.053-0.291-0.116-0.438-0.166
						c-6.784-2.296-14.708-3.262-21.723-1.419c-1.267,0.333-0.741,2.1,0.468,2.059c10.571-0.354,20.081,0.542,29.097,6.378
						c6.194,4.011,11.941,9.163,19.914,6.715C118.053,64.261,117.53,62.121,116.034,61.702"/>
				</g>
			</g>
		</g>
	</g>
</g>
<g>
	<g>
		<g>
			<g>
				<g>
					<defs>
						<rect id="SVGID_3_" x="185.325" y="37.565" width="12.014" height="19.604"/>
					</defs>
					<clipPath id="SVGID_4_">
						<use xlink:href="#SVGID_3_"  overflow="visible"/>
					</clipPath>
					<path clip-path="url(#SVGID_4_)" fill="#D8D1AF" d="M195.833,42.888c1.185-1.53,2.008-3.177,1.155-4.981
						c-0.274-0.58-1.169-0.351-1.33,0.158c-1.109,3.504-4.021,5.609-5.901,8.73c-1.751,2.906-2.373,6.15-4.277,9.012
						c-0.729,1.091,1.261,1.857,2.121,0.984c3.489-3.548,8.063-8.479,8.645-13.183C196.286,43.297,196.098,43.042,195.833,42.888"/>
				</g>
			</g>
		</g>
	</g>
</g>
<g>
	<g>
		<g>
			<g>
				<g>
					<defs>
						<rect id="SVGID_5_" x="194.816" y="40.901" width="8.24" height="9.66"/>
					</defs>
					<clipPath id="SVGID_6_">
						<use xlink:href="#SVGID_5_"  overflow="visible"/>
					</clipPath>
					<path clip-path="url(#SVGID_6_)" fill="#D8D1AF" d="M200.951,41.278c-1.356,1.235-3.39,2.544-3.963,4.194
						c-0.007,0.017-0.003,0.031-0.009,0.047c-0.855,1.13-1.474,2.433-2.058,3.638c-0.481,0.999,0.717,1.797,1.803,1.196
						c3.445-1.91,5.796-4.917,6.317-8.361C203.204,40.947,201.769,40.536,200.951,41.278"/>
				</g>
			</g>
		</g>
	</g>
</g>
<g>
	<g>
		<g>
			<g>
				<g>
					<defs>
						<rect id="SVGID_7_" x="103.782" y="36.546" width="86.008" height="32.201"/>
					</defs>
					<clipPath id="SVGID_8_">
						<use xlink:href="#SVGID_7_"  overflow="visible"/>
					</clipPath>
					<path clip-path="url(#SVGID_8_)" fill="#D8D1AF" d="M189.765,37.32c-0.066-1.239-2.167-0.866-2.224,0.244
						c-0.767,14.808-17.347,22.311-33.173,23.75c-17.193,1.563-32.791-2.097-49.161-5.778c-1.191-0.267-2.048,1.046-0.847,1.554
						c4.327,1.83,9.07,3.166,13.927,4.157c0.01,0.008,0.015,0.016,0.027,0.021c20.917,11.268,61.583,11.879,69.25-12.775
						c0.124-0.4-0.031-0.77-0.315-1.051C189.016,44.428,189.96,41.04,189.765,37.32"/>
				</g>
			</g>
		</g>
	</g>
</g>
<path fill="#FFFEF3" d="M193.78,31.996c-0.027-0.036-0.059-0.068-0.085-0.104c-0.055-0.788-0.854-1.654-1.419-2.198
	c-0.364-0.353-0.782-0.712-1.228-0.999c-0.138-0.09-0.279-0.159-0.422-0.221c-0.326-0.259-0.665-0.509-1.024-0.783
	c-0.296-0.226-0.739,0.072-0.614,0.366c0.379,0.89,0.657,1.665,1.27,2.479c0.613,0.819,1.238,1.629,1.876,2.436
	C192.855,33.878,194.495,32.896,193.78,31.996"/>
<path fill="#1B3F4C" d="M198.767,30.226c-1.469-6.483-5.871-12.025-14.096-12.672c-3.93-5.502-9.422-10.083-15.952-13.005
	c-17.475-7.827-38.468-3.228-56.201,1.324c-0.399,0.098-0.798,0.206-1.197,0.313c-17.303,4.453-35.975,9.916-50.665,19.519
	c-6.164,4.041-13.676,10.504-14.991,17.724c-0.896,4.903,4.004,6.403,9.131,6.589c2.957,0.333,5.925,0.384,8.905,0.313
	c5.741,7.22,17.226,11.997,26.15,14.292c9.499,2.424,21.748,3.56,30.933-0.402c0.086-0.04,0.172-0.089,0.226-0.147
	c8.464,3.197,17.345,5.552,26.389,6.905c13.255,1.991,25.461-1.6,33.644-9.112c0.194,0,0.411-0.038,0.625-0.146
	c5.148-2.413,9.39-6.014,12.422-10.329c5.343-1.806,10.989-5.876,11.442-11.407C205.858,36.062,203.148,31.295,198.767,30.226
	 M89.551,61.769c-4.729-1.353-9.229-3.275-13.406-5.688c-2.968-1.708-5.429-3.836-7.977-5.906c6.39-0.303,12.791-0.782,19.115,0.12
	c11.03,1.568,20.346,8.367,30.349,12.455c0.281,0.119,0.563,0.227,0.842,0.345C108.526,63.798,99.449,64.613,89.551,61.769
	 M170.335,63.897c-8.806,3.814-19.771,4.856-30.501,2.472c-6.185-1.362-12.197-3.188-18.034-5.423
	c-4.331-1.649-8.561-3.522-12.694-5.602c-7.802-3.934-15.325-7.591-24.393-8.238c-6.346-0.452-13.523-0.442-20.377,0.186
	c-0.55-0.333-1.144-0.196-1.51,0.146c-0.367,0.04-0.724,0.079-1.08,0.118c-5.235-0.019-14.645,0.52-12.217-6.051
	c1.478-3.972,5.418-7.66,8.786-10.367c6.239-5.012,13.816-8.436,21.403-11.417c10.383-4.081,21.317-7.867,32.477-10.76
	c8.668-2.256,17.464-3.973,26.25-4.864c17.107-1.756,34.471,2.521,43.68,15.417c1.457,2.041,2.721,4.316,3.732,6.808
	c5.786,14.152,1.663,25.523-7.348,32.72C176.098,60.965,173.348,62.594,170.335,63.897 M186.022,56.042
	c3.441-5.159,5.405-11.427,5.373-18.508c-0.021-6.179-1.878-12.261-5.158-17.625c4.261,2.138,7.803,4.296,9.261,9.132
	c0.203,0.677,0.378,1.373,0.508,2.07c0.637,3.286,0.484,6.698-0.293,9.946c-0.743,3.098-2.04,6.02-3.833,8.65
	C190.302,52.068,188.32,54.206,186.022,56.042 M202.188,41.917c-1.111,2.609-3.366,4.277-5.839,5.719
	c1.394-2.796,2.331-5.806,2.752-8.916c0.248-1.883,0.292-3.825,0.109-5.737C201.875,35.355,203.774,38.209,202.188,41.917"/>
</svg>
