<?xml version="1.0" encoding="utf-8"?>
<!-- Generator: Adobe Illustrator 16.0.0, SVG Export Plug-In . SVG Version: 6.00 Build 0)  -->
<!DOCTYPE svg PUBLIC "-//W3C//DTD SVG 1.1//EN" "http://www.w3.org/Graphics/SVG/1.1/DTD/svg11.dtd">
<svg version="1.1" xmlns="http://www.w3.org/2000/svg" xmlns:xlink="http://www.w3.org/1999/xlink" x="0px" y="0px"
	 width="328.654px" height="121.614px" viewBox="0 0 328.654 121.614" enable-background="new 0 0 328.654 121.614"
	 xml:space="preserve">
<g id="BACKGROUND">
</g>
<g id="DESIGNED_BY_FREEPIK">
</g>
<g id="OBJECTS">
	<g id="_x30_8">
		<g>
			<path fill-rule="evenodd" clip-rule="evenodd" fill="#0D0A09" d="M21.654,11.302c2.391-2.218,5.053-4.014,7.694-5.853
				C35.74,1.004,42.959,0.459,50.242,0.1c11.525-0.571,22.896,1.46,34.331,2.348c4.227,0.328,8.455,0.098,12.686,0.577
				c6.511,0.737,13.037,1.148,18.77,5.18c1.261,0.889,2.708,1.017,4.202,0.609c5.314-1.451,10.708-1.808,16.182-1.59
				c7.372,0.297,14.756,0.301,22.131,0.539c5.626,0.181,11.086,1.117,15.849,4.793c1.299,1.006,2.742,1.474,4.44,1.214
				c10.123-1.533,20.255-0.666,30.391-0.093c6.214,0.349,12.246,1.381,17.807,4.618c0.8,0.465,1.615,0.404,2.469,0.354
				c9.429-0.556,18.857-0.279,28.285,0.058c6.194,0.22,11.896,2.187,17.181,5.552c1.477,0.94,2.821,1.302,4.452,0.938
				c1.419-0.318,2.881-0.419,4.299-0.73c7.626-1.675,14.896,0.439,22.167,2.437c2.813,0.771,5.556,1.834,8.358,2.651
				c4.992,1.453,8.981,4.652,12.025,8.962c1.522,2.153,2.756,4.816,2.286,8.04c-0.319,2.208,0.78,4.697-0.919,6.655
				c-1.481,1.707-2.852,3.53-4.621,4.954c-3.484,2.808-7.572,4.082-11.629,5.223c-8.872,2.499-17.712,5.214-26.793,6.737
				c-4.169,0.701-8.312,1.653-12.558,1.726c-2.85,0.05-5.325,0.514-8.005,2.421c-4.071,2.906-8.686,5.128-13.453,6.685
				c-8.209,2.675-16.467,5.173-24.598,8.103c-5.305,1.909-10.725,1.737-16.136,1.975c-2.304,0.102-4.404,0.371-6.602,1.432
				c-9.327,4.503-19.182,7.175-29.269,8.578c-4.16,0.577-8.481,0.827-12.671,0.15c-5.42-0.877-10.271,0.713-14.954,3.285
				c-4.06,2.231-8.434,3.238-12.835,3.958c-9.699,1.58-19.458,2.29-29.256,1.068c-0.88-0.108-1.662,0.003-2.441,0.467
				c-6.695,4.004-14.073,4.335-21.444,4.661c-3.505,0.155-7.023,0.492-10.517,0.311c-5.292-0.277-9.816,2.228-14.439,4.29
				c-7.283,3.249-14.532,3.018-21.802,0.249c-6.911-2.637-13-6.763-18.263-12.331c-3.187-3.375-5.153-7.575-6.878-11.917
				c-3.559-8.946-5.708-18.354-7.584-27.84c-1.746-8.827-0.72-17.498,1.382-26.091c0.402-1.644,0.988-3.24,1.35-4.893
				c1.525-7.006,5.784-12.325,9.451-17.975C15.206,15.149,18.94,13.903,21.654,11.302z M169.281,61.732
				c1.819-3.337,2.002-7.239,3.153-10.809c1.933-5.991,1.88-12.364,2.842-18.546c0.161-1.033,0.141-2.165,1.265-2.813
				c-0.809,7.194-0.264,14.368-0.712,21.51c-0.849,1.789-0.629,3.834-1.174,5.717c-1.792,6.22-3.318,12.488-5.571,18.591
				c-2.378,6.434-4.15,13.09-8.034,18.743c-0.32,0.465-0.737,1.02-0.438,1.889c8.382,1.359,16.781,1.359,25.018-1.245
				c5.809-1.834,11.632-3.319,16.991-7.002c4.273-2.937,8.797-5.233,12.17-9.538c5.166-6.595,10.063-13.348,12.861-21.597
				c0.946-1.078,1.256-2.507,1.679-3.844c1.961-6.169,3.261-12.503,3.805-19.012c0.39-0.296,0.78-0.591,1.169-0.885
				c0.549,2.151,0.604,4.311,0.288,6.52c-0.45,3.15-0.794,6.32-1.186,9.484c-1.089,3.336-1.523,6.854-2.706,10.195
				c-1.487,4.205-3.598,8.025-5.429,12.017c-2.223,4.845-4.847,9.334-8.996,12.584c-0.672,0.528-1.728,1.103-1.554,2.383
				c0.537,0.508,1.17,0.388,1.76,0.418c4.056,0.21,7.859-0.922,11.703-2.244c9.324-3.205,18.764-5.987,27.775-10.242
				c4.014-1.892,7.378-4.746,10.856-7.454c1.648-1.283,2.81-3.269,4.053-4.979c2.729-3.751,5.777-7.456,6.284-12.576
				c1.319-3.474,0.815-7.309,1.821-10.85c0.277,0.016,0.556,0.028,0.836,0.042c0.143,0.84,0.286,1.679,0.429,2.518
				c0.769,9.864-2.184,18.474-8.242,26.468c3.635,0.867,6.598,0.577,9.517-0.056c4.375-0.95,8.71-2.104,13.07-3.128
				c6.606-1.555,13.17-3.287,19.545-5.751c3.212-1.24,6.148-2.982,8.081-6.225c1.616-2.185,0.404-4.686,0.199-6.819
				c-0.456-4.713-2.969-8.206-7.396-9.705c-4.561-1.547-9.078-3.224-13.686-4.628c-3.89-1.186-7.645-2.097-11.701-0.984
				c-1.589,0.436-3.318,0.358-4.939,0.88c-4.185,1.348-7.998,0.612-11.518-2.279c-1.24-1.016-2.714-1.717-4.122-2.474
				c-1.741-0.941-3.579-1.615-5.544-1.684c-8.69-0.299-17.381-0.593-26.072-0.845c-1.076-0.033-2.294-0.114-3.212,0.364
				c-3.18,1.658-5.829,0.106-8.56-1.292c-3.052-1.56-6.04-3.317-9.478-3.761c-3.35-0.432-6.688-0.997-10.044-1.362
				c-4.789-0.523-9.604-0.785-14.398-1.191c-4.741-0.404-9.387-0.514-14.015,0.643c-2.711,0.678-5.246,0.383-7.717-0.979
				c-1.288-0.712-2.589-1.749-3.952-1.895c-5.637-0.602-11.26-1.691-16.964-1.108c-1.688,0.174-3.363,0.109-5.058-0.018
				c-6.975-0.526-13.987-1.338-20.67,1.898c-0.918,0.445-1.81,0.35-2.78,0.358c-2.663,0.02-4.999-0.979-7.2-2.346
				c-4.431-2.744-9.363-3.681-14.248-4.045C86.51,7.808,73.969,5.927,61.354,4.984c-4.803-0.358-9.579-1.345-14.422-0.96
				c-4.542-0.602-8.838,0.269-12.969,2.389c-5.082,2.606-9.438,6.266-13.522,10.419c-4.967,5.047-8.519,10.93-10.469,18.068
				C8.318,40.956,7.488,47.166,6.39,53.328C5.75,56.926,5.599,60.71,6.254,64.242c2,10.779,4.945,21.261,9.216,31.294
				c2.685,6.31,6.589,11.251,12.185,14.561c2.333,1.38,4.784,2.517,7.188,3.749c5.723,2.937,11.438,2.703,17.223,0.112
				c2.22-0.993,4.372-2.282,6.801-2.644c5.146-0.774,10.29-1.576,15.504-1.558c5.685,0.02,11.343-0.291,17.019-0.827
				c4.892-0.462,8.005-3.873,11.539-6.725c0.281-0.226,0.468-0.601,0.674-0.925c4.899-7.719,7.253-16.538,8.957-25.542
				c0.623-3.303,0.86-6.729,1.388-10.089c0.336-2.14,1.489-4.226,0.755-6.52c1.507-0.916,0.95-2.593,1.03-3.882
				c0.541-8.73,1.069-17.462,2.767-26.035c0.534-2.697,0.641-5.661,2.532-7.976c0.944,0.778,0.918,1.509,0.689,2.506
				c-2.691,11.648-2.571,23.623-3.385,35.489c-0.245,0.875-0.601,1.729-0.719,2.623c-0.81,6.076-1.47,12.178-2.372,18.239
				c-1.019,6.891-2.437,13.67-5.645,19.856c-0.5,0.962-1.371,1.866-1.197,3.228c1.51,0.79,2.917,1.623,4.69,1.789
				c5.211,0.494,10.374,0.393,15.553-0.384c8.675-1.304,17.471-2.156,24.282-9.223c2.97-0.396,4.278-3.089,5.38-5.392
				C162.657,80.885,166.528,71.557,169.281,61.732z"/>
			<path fill-rule="evenodd" clip-rule="evenodd" fill="#DDD4BD" d="M280.239,40.711c-0.143-0.84-0.286-1.679-0.431-2.518
				c0.443-0.455,0.351-1.09-0.096-1.204c-0.813-0.208-0.839,0.5-0.738,1.161c-1.006,3.541-0.502,7.375-1.821,10.85
				c-3.083,2.88-6.426,3.23-10.058,1.315c-1.623-0.855-3.269-1.697-4.977-2.31c-4.364-1.567-8.718-1.469-12.989,0.514
				c-1.357,0.069-2.742,0.008-3.951,0.878c-3.746,0.723-7.449,0.643-11.096-0.657c-0.189-0.068-0.45,0.099-0.677,0.157
				c0.392-3.164,0.735-6.334,1.186-9.484c0.315-2.208,0.261-4.369-0.288-6.52c0.235-0.637,0.271-1.343-0.409-1.548
				c-0.48-0.144-0.778,0.479-0.839,0.979c-0.055,0.472,0.046,0.968,0.079,1.455c-0.544,6.509-1.844,12.842-3.805,19.012
				c-0.423,1.337-0.732,2.766-1.679,3.844c-2.005-0.475-3.167,1.505-4.916,1.993c-4.843,1.345-9.059-0.582-13.23-2.493
				c-2.85-1.306-5.689-1.989-8.729-2.021c-2.679-0.027-5.224-0.548-7.627-1.991c-2.206-1.322-4.527-2.429-6.841-3.521
				c-1.832-0.866-3.765-1.003-5.611-0.056c-1.627,0.833-3.407,1.317-4.867,2.53c0.448-7.142-0.097-14.316,0.712-21.51
				c-1.124,0.648-1.104,1.779-1.265,2.813c-0.962,6.182-0.909,12.555-2.842,18.546c-1.151,3.57-1.334,7.471-3.154,10.807
				c-0.594-1.091-1.536-1.221-2.52-0.934c-3.104,0.906-5.895,0.129-8.671-1.47c-3.575-2.063-7.085-1.596-10.668,0.431
				c-5.314,3.006-11.072,4.372-17.063,4.05c-4.375-0.236-8.593-1.264-12.023-4.575c0.814-11.866,0.693-23.841,3.385-35.489
				c0.229-0.997,0.255-1.728-0.689-2.506c-1.891,2.315-1.998,5.279-2.532,7.976c-1.698,8.573-2.226,17.304-2.767,26.035
				c-0.08,1.289,0.477,2.966-1.03,3.882c-0.639,0.594-1.551,1.052-1.868,1.805c-1.689,3.994-5.04,4.823-8.422,4.9
				c-6.563,0.148-12.984-0.95-19.07-3.862c-3.528-1.687-7.011-1.898-10.253,0.839c-0.785,0.663-1.691,0.979-2.628,1.274
				c-3.531,1.108-5.535-0.599-4.977-4.504c0.963-6.748,1.584-13.517,1.458-20.353c-0.106-5.628,0.231-11.311-1.516-16.76
				c-0.894-2.783-2.183-5.405-4.81-6.564c-2.787-1.23-5.49-2.672-8.424-3.576c-3.808-1.173-6.417-3.906-7.26-8.304
				c4.843-0.385,9.62,0.602,14.422,0.96C73.969,5.927,86.51,7.808,99.136,8.745c4.885,0.364,9.817,1.301,14.248,4.045
				c2.202,1.367,4.537,2.365,7.2,2.346c0.97-0.009,1.861,0.086,2.78-0.358c6.683-3.236,13.695-2.424,20.67-1.898
				c1.694,0.127,3.369,0.192,5.058,0.018c5.704-0.583,11.327,0.506,16.964,1.108c1.363,0.146,2.664,1.183,3.952,1.895
				c2.471,1.362,5.006,1.657,7.717,0.979c4.628-1.157,9.273-1.047,14.015-0.643c4.794,0.406,9.609,0.667,14.398,1.191
				c3.356,0.366,6.694,0.931,10.044,1.362c3.438,0.444,6.426,2.201,9.478,3.761c2.73,1.399,5.38,2.951,8.56,1.292
				c0.918-0.478,2.136-0.397,3.212-0.364c8.691,0.252,17.382,0.545,26.072,0.845c1.965,0.069,3.803,0.743,5.544,1.684
				c1.408,0.757,2.882,1.458,4.122,2.474c3.52,2.891,7.333,3.627,11.518,2.279c1.621-0.522,3.351-0.445,4.939-0.88
				c4.057-1.113,7.812-0.202,11.701,0.984c4.607,1.404,9.125,3.081,13.686,4.628c4.428,1.499,6.94,4.992,7.396,9.705
				c0.205,2.133,1.417,4.634-0.199,6.819c-3.743-0.26-7.204-1.442-10.609-3.187c-4.454-2.282-9.234-1.992-13.984-1.223
				c-1.409-1.535-3.057-1.392-4.769-0.799c-2.945-3.355-7.002-4.642-10.641-6.698C281.551,39.741,280.835,40.263,280.239,40.711z
				 M175.955,27.574c0.251-0.106,0.726-0.077,0.312-0.596c-0.074,0.206-0.148,0.415-0.223,0.618
				c0.153,0.137-0.361,0.759,0.315,0.515C176.219,27.931,176.081,27.75,175.955,27.574z"/>
			<path fill-rule="evenodd" clip-rule="evenodd" fill="#DBD6CC" d="M46.932,4.024c0.843,4.398,3.452,7.131,7.26,8.304
				c2.934,0.904,5.638,2.346,8.424,3.576c2.627,1.159,3.916,3.781,4.81,6.564c1.747,5.449,1.41,11.132,1.516,16.76
				c0.127,6.836-0.494,13.605-1.458,20.353c-0.558,3.905,1.446,5.612,4.977,4.504c0.937-0.296,1.843-0.612,2.628-1.274
				c3.242-2.737,6.725-2.525,10.253-0.839c6.085,2.912,12.507,4.01,19.07,3.862c3.382-0.077,6.733-0.906,8.422-4.9
				c0.317-0.753,1.229-1.21,1.868-1.805c0.734,2.294-0.418,4.379-0.755,6.52c-0.528,3.359-0.765,6.786-1.388,10.089
				c-1.704,9.004-4.058,17.823-8.957,25.542c-0.206,0.324-0.393,0.699-0.674,0.925c-3.534,2.852-6.647,6.263-11.539,6.725
				c-5.676,0.536-11.334,0.846-17.019,0.827c-5.215-0.019-10.358,0.784-15.504,1.558c-2.429,0.362-4.581,1.651-6.801,2.644
				c-5.784,2.59-11.5,2.825-17.223-0.112c-2.404-1.231-4.854-2.369-7.188-3.749c-5.596-3.31-9.5-8.251-12.185-14.561
				c-4.271-10.033-7.216-20.515-9.216-31.294C5.599,60.71,5.75,56.926,6.39,53.328c1.098-6.162,1.928-12.372,3.583-18.428
				c1.95-7.138,5.502-13.021,10.469-18.068c4.083-4.153,8.44-7.813,13.522-10.419C38.094,4.293,42.391,3.422,46.932,4.024z
				 M36.259,17.996c-7.056,6.048-12.144,12.538-16.773,21.916c-3.368,6.828-4.095,13.854-3.37,21.316
				c0.851,8.777,3.192,17.17,5.473,25.585c0.354,1.301,1.047,2.417,1.889,3.325c2.58,2.786,4.874,5.846,6.929,9.067
				c2.148,3.364,6.053,4.06,8.36,7.067c0.062,0.082,0.225,0.081,0.345,0.093c2.888,0.242,5.774,0.602,8.503-0.972
				c2.929-1.688,4.908-4.631,7.59-6.64c0.648-0.486,0.657-1.369,0.868-2.113c1.473-5.173,1.237-10.525,1.208-15.819
				c-0.023-4.315-0.704-8.666,0.007-12.938c0.748-4.491,1.871-8.91,2.889-13.35c1.383-6.021,1.328-12.195,1.443-18.314
				c0.069-3.73-0.166-7.579-1.738-11.08c-1.828-4.075-3.963-7.906-8.327-9.203C45.801,14.226,40.312,14.759,36.259,17.996z
				 M80.326,73.318c0.435,1.85,0.802,3.203,2.366,4.017c1.139,0.593,2.041,0.679,3.019,0.038c1.193-0.783,0.737-2.146,0.66-3.229
				c-0.104-1.442-1.411-1.195-2.28-1.317C82.897,72.662,81.691,72.83,80.326,73.318z M94.981,78.957
				c0.551,1.12,0.946,1.76,1.198,2.457c0.735,2.042,1.86,2.775,3.887,1.891c0.726-0.315,1.902,0.003,1.777-1.229
				c-0.102-1.008-0.039-2.32-1.474-2.78C98.732,78.769,97.147,78.614,94.981,78.957z M87.538,90.631
				c-0.991-1.379-1.9-1.37-3.642,0.156c-0.684,0.596-1.88,1.141-1.054,2.396c0.825,1.256,4.089,2.047,4.883,1.378
				C88.52,93.89,88.421,91.866,87.538,90.631z M93.444,94.381c0.389,1.209,0.611,2.244,1.048,3.153
				c0.486,1.016,1.421,0.792,2.255,0.586c0.884-0.22,1.561-0.668,1.626-1.795c0.064-1.038-0.756-1.223-1.311-1.653
				C96.006,93.851,94.866,93.656,93.444,94.381z M64.182,76.397c1.14,0.577,2.313,0.745,3.255,1.469
				c0.827,0.631,1.8,0.792,2.283-0.642c0.496-1.476-0.025-2.662-1.439-2.855C66.726,74.158,65.248,74.396,64.182,76.397z
				 M81.989,99.27c0.306,1.475,1.171,1.831,1.653,2.521c0.735,1.053,1.636,1.114,2.484,0.489c0.928-0.685,0.709-1.848,0.443-2.831
				c-0.332-1.226-1.244-0.916-2.065-0.73C83.71,98.896,82.913,99.066,81.989,99.27z M71.195,83.775
				c0.686,1.53,0.828,3.581,3.105,3.453c0.615-0.035,1.208-0.344,1.434-0.962c0.233-0.64,0.027-1.277-0.599-1.617
				C73.933,83.989,72.855,82.701,71.195,83.775z M70.078,94.095c-0.006,0.761,0.528,1.304,0.899,1.907
				c0.569,0.923,1.408,0.724,2.225,0.523c0.555-0.136,0.78-0.571,0.664-1.117c-0.168-0.802-0.673-1.299-1.411-1.541
				C71.661,93.604,70.879,93.29,70.078,94.095z M68.479,101.423c1.083,1.062,1.202,2.848,2.912,2.196
				c0.331-0.126,0.702-0.417,0.582-0.855C71.521,101.106,70.296,101.257,68.479,101.423z"/>
			<path fill-rule="evenodd" clip-rule="evenodd" fill="#DBD6CC" d="M118.336,59.232c3.43,3.312,7.648,4.339,12.023,4.575
				c5.99,0.321,11.748-1.044,17.063-4.05c3.583-2.026,7.093-2.494,10.668-0.431c2.776,1.6,5.567,2.376,8.671,1.47
				c0.983-0.287,1.926-0.157,2.52,0.934c-2.752,9.826-6.623,19.155-10.972,28.237c-1.102,2.303-2.41,4.996-5.38,5.392
				c-6.812,7.067-15.607,7.919-24.282,9.223c-5.179,0.777-10.341,0.878-15.553,0.384c-1.772-0.167-3.18-0.999-4.69-1.789
				c-0.173-1.361,0.698-2.265,1.197-3.228c3.208-6.187,4.626-12.965,5.645-19.856c0.902-6.061,1.562-12.164,2.372-18.239
				C117.735,60.961,118.091,60.106,118.336,59.232z M122.019,72.938c0.909,1.612,1.293,3.304,2.762,4.185
				c1.153,0.691,3.365,0.284,3.813-0.764c0.643-1.504,0.002-3.06-1.483-3.83C125.431,71.655,123.844,71.894,122.019,72.938z
				 M134.85,74.622c0.568,1.645,1.745,2.794,2.721,4.038c0.826,1.062,2.724,0.638,3.426-0.547c0.592-1.006,0.204-3.052-0.923-3.352
				C138.438,74.325,136.713,73.024,134.85,74.622z M122.409,89.743c0.212,0.319,0.441,0.625,0.628,0.958
				c0.708,1.25,1.618,1.236,2.791,0.772c0.706-0.28,1.335-0.333,1.443-1.355c0.144-1.377-0.827-1.75-1.601-2.311
				c-0.493-0.356-1.007-0.692-1.543-0.958c-1.105-0.549-1.908,0.2-2.479,0.995C121.006,88.74,122.113,89.118,122.409,89.743z
				 M146.551,87.545c0.09,0.16,0.235,0.531,0.468,0.818c1.037,1.293,2.646,1.553,3.37,0.467c0.871-1.311-0.12-2.124-0.854-2.961
				c-0.508-0.581-1.088-0.987-1.871-0.978c-0.748,0.008-1.473,0.127-1.865,0.887C145.4,86.551,146.144,86.881,146.551,87.545z
				 M118.276,97.16c1.04,1.057,1.767,1.908,2.6,2.611c1.007,0.85,1.905,0.318,2.353-0.72c0.426-0.988,0.352-2.002-0.922-2.442
				C120.982,96.147,119.751,96.145,118.276,97.16z M133.418,88.904c0.203,0.244,0.419,0.563,0.689,0.816
				c0.829,0.776,1.803,1.651,2.7,0.344c0.713-1.044-0.056-1.935-0.857-2.603c-0.282-0.236-0.605-0.417-0.921-0.603
				c-0.659-0.389-1.448-0.602-1.991-0.037C132.365,87.519,133.055,88.208,133.418,88.904z M135.144,94.992
				c0.347,0.264,0.582,0.514,0.864,0.645c0.99,0.451,1.883,0.311,2.438-0.769c0.138-0.266,0.079-0.939-0.091-1.047
				c-0.83-0.522-1.568,0.158-2.325,0.412C135.73,94.334,135.499,94.679,135.144,94.992z"/>
			<path fill-rule="evenodd" clip-rule="evenodd" fill="#DBD6CC" d="M175.829,51.075c1.46-1.213,3.24-1.698,4.867-2.53
				c1.847-0.947,3.779-0.81,5.611,0.056c2.313,1.092,4.635,2.199,6.841,3.521c2.403,1.443,4.948,1.964,7.627,1.991
				c3.04,0.032,5.88,0.714,8.729,2.021c4.172,1.911,8.388,3.838,13.23,2.493c1.749-0.488,2.911-2.468,4.916-1.993
				c-2.798,8.249-7.695,15.001-12.861,21.597c-3.373,4.305-7.896,6.602-12.17,9.538c-5.359,3.683-11.183,5.168-16.991,7.002
				c-8.236,2.604-16.636,2.604-25.018,1.245c-0.299-0.869,0.118-1.424,0.438-1.889c3.884-5.652,5.656-12.309,8.034-18.743
				c2.253-6.103,3.779-12.371,5.571-18.591C175.2,54.909,174.98,52.864,175.829,51.075z M176.201,74.639
				c0.891,0.995,1.731,2.061,2.692,2.97c0.981,0.925,2.178,0.487,2.925-0.252c0.798-0.788,0.373-1.847-0.319-2.745
				C179.439,71.943,178.742,71.923,176.201,74.639z M187.137,69.253c0.617,1.171,1.028,2.272,1.693,3.14
				c0.868,1.133,2.219,1.003,3.355,0.735c1.036-0.242,0.709-1.556,0.832-2.364c0.234-1.558-1.283-1.313-1.986-1.636
				C189.986,68.647,188.718,68.457,187.137,69.253z M170.105,87.904c0.798,1.155,3.335,2.042,4.169,1.366
				c1.217-0.987,0.343-2.281,0.034-3.208c-0.488-1.463-1.932-1.287-3.105-1.145C169.446,85.129,169.029,86.348,170.105,87.904z
				 M181.725,58.681c0.496,1.109,4.037,1.675,4.808,0.758c0.451-0.537,0.491-1.224,0.186-1.774c-0.457-0.828-1.268-1.23-2.138-1.064
				c-1.01,0.188-2.145,0.219-2.775,1.342C181.696,58.134,181.748,58.431,181.725,58.681z M195.665,79.179
				c0.987,0.834,1.397,2.171,2.752,2.44c0.817,0.163,1.482-0.132,1.758-0.972c0.273-0.833,0.001-1.523-0.815-1.906
				C198.158,78.181,197.022,78.241,195.665,79.179z M203.772,63.97c-0.591-1.107-2.084-1.488-3.086-0.834
				c-0.361,0.236-0.473,0.536-0.329,0.912c0.313,0.799,2.484,1.75,3.113,1.292C203.843,65.07,204.026,64.52,203.772,63.97z
				 M187.043,82.081c0.346-0.519,0.267-0.885-0.016-1.109c-0.376-0.3-0.878-0.382-1.156,0.083c-0.197,0.33,0.09,0.701,0.396,0.907
				C186.566,82.161,186.882,82.269,187.043,82.081z"/>
			<path fill-rule="evenodd" clip-rule="evenodd" fill="#DBD6CC" d="M233.406,48.896c0.227-0.058,0.487-0.225,0.677-0.157
				c3.646,1.3,7.35,1.379,11.096,0.657c0.881,0.862,1.781,1.701,2.637,2.595c0.496,0.515,0.987,0.671,1.577,0.257
				c0.55-0.385,0.884-0.938,0.66-1.635c-0.237-0.724-0.61-1.398-0.923-2.095c4.271-1.982,8.625-2.081,12.989-0.514
				c1.708,0.613,3.354,1.455,4.977,2.31c3.632,1.915,6.975,1.565,10.058-1.315c-0.507,5.12-3.556,8.825-6.284,12.576
				c-1.243,1.709-2.404,3.696-4.053,4.979c-3.479,2.708-6.843,5.562-10.856,7.454c-9.012,4.255-18.451,7.037-27.775,10.242
				c-3.844,1.322-7.647,2.455-11.703,2.244c-0.59-0.031-1.223,0.089-1.76-0.418c-0.174-1.28,0.882-1.855,1.554-2.383
				c4.149-3.25,6.773-7.739,8.996-12.584c1.831-3.992,3.941-7.812,5.429-12.017C231.882,55.75,232.317,52.232,233.406,48.896z
				 M248.923,57.785c0.984,3.854,2.483,5.436,4.645,5.16c1.729-0.22,2.221-1.312,1.3-2.938
				C253.539,57.658,251.441,57.642,248.923,57.785z M235.949,57.316c1.155,0.958,2.117,1.988,3.268,2.635
				c0.794,0.446,2.155,0.589,2.438-0.645c0.271-1.186-0.037-2.571-0.903-3.625c-0.821-1.002-1.777-0.647-2.642-0.237
				C237.374,55.793,236.494,56.025,235.949,57.316z M252.933,67.399c0.566,1.065,1.509,1.528,1.821,2.592
				c0.243,0.818,0.927,1.178,1.721,0.932c0.707-0.222,1.309-0.679,1.488-1.507c0.229-1.052-0.356-1.849-1.086-2.223
				C255.597,66.534,254.251,66.581,252.933,67.399z M240.199,74.022c0.795,0.883,1.748,0.631,2.657-0.189
				c0.656-0.593,0.67-1.35,0.078-2.007c-0.855-0.949-2.049-1.869-3.098-1.105C238.81,71.466,239.498,72.793,240.199,74.022z
				 M232.791,69.369c0.845,1.318,2.155,1.733,3,0.903c0.497-0.487,0.532-1.134,0.224-1.751c-0.616-1.22-1.999-1.516-3.064-0.674
				C232.4,68.279,232.145,68.776,232.791,69.369z M225.339,75.819c0.454,1.093,0.981,2.068,2.099,2.438
				c1.141,0.376,1.804-0.185,2.07-1.357c0.264-1.158-0.423-1.698-1.293-1.848C227.202,74.879,226.137,74.826,225.339,75.819z"/>
			<path fill-rule="evenodd" clip-rule="evenodd" fill="#DBD6CC" d="M297.616,47.607c4.75-0.77,9.53-1.059,13.984,1.223
				c3.405,1.745,6.866,2.927,10.609,3.187c-1.933,3.242-4.869,4.985-8.081,6.225c-6.375,2.464-12.938,4.196-19.545,5.751
				c-4.36,1.025-8.695,2.178-13.07,3.128c-2.919,0.633-5.882,0.923-9.517,0.056c6.059-7.994,9.011-16.604,8.242-26.466
				c0.597-0.448,1.313-0.97,1.968-0.601c3.639,2.056,7.695,3.342,10.641,6.698c0.614,0.395,1.065,0.918,1.438,1.609
				c1.063,1.982,1.305,2.016,2.647,0.498C297.243,48.564,297.392,48.048,297.616,47.607z M307.473,52.428
				c0.578,1.3,1.14,2.047,2.043,1.99c0.887-0.053,2.218-0.039,2.309-1.226c0.104-1.328-1.205-1.37-2.105-1.372
				C309.041,51.821,308.361,52.172,307.473,52.428z M283.315,52.352c0.264,1.027,0.931,1.146,1.401,1.508
				c0.604,0.461,1.381,0.927,1.819-0.039c0.461-1.019-0.132-1.785-1.071-2.047C284.761,51.582,284.043,51.755,283.315,52.352z
				 M288.145,57.25c0.389,0.84,0.875,1.751,1.847,1.073c0.694-0.483,0.512-1.35,0.003-2.021c-0.526-0.697-1.132-1.587-2.032-1.006
				C287.054,55.879,287.89,56.606,288.145,57.25z M297.229,53.832c0.455,0.999,0.774,1.885,1.852,1.505
				c0.148-0.054,0.313-0.483,0.265-0.674C299.097,53.688,298.371,53.709,297.229,53.832z M278.83,60.575
				c0.504,0.066,1.018,0.68,1.795,0.314c0.474-0.219,0.384-0.621,0.18-0.893c-0.465-0.618-1.089-0.95-1.828-0.609
				C278.599,59.56,278.599,59.95,278.83,60.575z"/>
			<path fill-rule="evenodd" clip-rule="evenodd" fill="#A88773" d="M233.134,33.778c-0.033-0.487-0.134-0.983-0.079-1.455
				c0.061-0.499,0.358-1.123,0.839-0.979c0.68,0.206,0.645,0.911,0.409,1.548C233.915,33.187,233.524,33.482,233.134,33.778z"/>
			<path fill-rule="evenodd" clip-rule="evenodd" fill="#A88773" d="M278.974,38.15c-0.101-0.66-0.074-1.369,0.738-1.161
				c0.446,0.114,0.539,0.749,0.096,1.204C279.53,38.178,279.251,38.166,278.974,38.15z"/>
			<path fill-rule="evenodd" clip-rule="evenodd" fill="#0D0A09" d="M36.259,17.996c4.053-3.237,9.542-3.771,15.297-2.061
				c4.364,1.296,6.499,5.127,8.327,9.203c1.572,3.501,1.807,7.35,1.738,11.08c-0.115,6.12-0.06,12.293-1.443,18.314
				c-1.019,4.439-2.142,8.859-2.889,13.35c-0.71,4.273-0.03,8.623-0.007,12.938c0.028,5.294,0.265,10.646-1.208,15.819
				c-0.211,0.745-0.22,1.627-0.868,2.113c-2.682,2.009-4.662,4.953-7.59,6.64c-2.729,1.574-5.615,1.214-8.503,0.972
				c-0.12-0.012-0.283-0.011-0.345-0.093c-2.307-3.007-6.212-3.703-8.36-7.067c-2.055-3.221-4.349-6.281-6.929-9.067
				c-0.842-0.908-1.535-2.024-1.889-3.325c-2.28-8.415-4.622-16.808-5.473-25.585c-0.725-7.461,0.002-14.488,3.37-21.316
				C24.115,30.534,29.203,24.044,36.259,17.996z M30.082,90.869c1.785,3.878,5.824,5.833,9.655,7.501
				c6.268,2.729,13.366-1.901,14.149-9.403c0.381-3.661,0.315-7.334,0.099-11.015c-0.139-2.351-0.649-4.707-0.24-7.068
				c1.026-5.929,2.149-11.842,3.144-17.777c1.326-7.916,2.329-15.915,0.307-23.818c-2.094-8.188-8.362-11.194-15.229-7.841
				c-5.251,2.561-8.659,7.458-12.062,12.218c-4.548,6.36-7.632,13.47-7.674,21.689c-0.042,8.126,0.538,16.216,2.661,24.081
				C25.952,83.359,27.155,87.204,30.082,90.869z"/>
			<path fill-rule="evenodd" clip-rule="evenodd" fill="#DDD4BD" d="M30.082,90.869c-2.926-3.665-4.129-7.51-5.19-11.433
				c-2.123-7.865-2.702-15.954-2.661-24.081c0.042-8.219,3.125-15.329,7.674-21.689c3.403-4.761,6.811-9.657,12.062-12.218
				c6.868-3.353,13.136-0.346,15.229,7.841c2.021,7.903,1.019,15.902-0.307,23.818c-0.994,5.935-2.117,11.848-3.144,17.777
				c-0.41,2.361,0.101,4.718,0.24,7.068c0.216,3.681,0.282,7.354-0.099,11.015c-0.784,7.501-7.881,12.132-14.149,9.403
				C35.905,96.703,31.867,94.747,30.082,90.869z M43.007,25.978c-0.752,1.63-0.757,3.336-0.547,4.947
				c0.144,1.102,0.776,2.2,2.071,2.337c0.925,0.097,1.63-0.394,2.146-1.146c0.768-1.121,0.426-2.168-0.299-3.177
				C45.491,27.717,44.354,26.858,43.007,25.978z M28.393,48.062c-0.827,2.439-2.138,4.362-1.472,6.709
				c0.309,1.089,0.831,2.313,2.276,1.957c1.179-0.288,1.423-1.332,1.351-2.438C30.408,52.181,29.969,50.169,28.393,48.062z
				 M48.487,23.514c-0.019,1.816-0.172,3.499-0.011,5.142c0.139,1.399,1.75,2.667,2.551,2.157c1.147-0.735,1.647-1.772,0.924-3.3
				C51.182,25.888,50.571,24.192,48.487,23.514z M36.858,31.044c-1.337,2.612-1.438,4.479-0.252,6.208
				c0.561,0.813,1.491,1.562,2.464,0.715c0.754-0.656,1.264-1.626,0.556-2.732C38.826,33.985,37.992,32.758,36.858,31.044z
				 M32.701,41.578c-0.233,1.893-1.038,3.679-0.852,5.639c0.109,1.135,0.673,2.111,1.93,1.5c2.064-1.004,2.541-3.645,0.954-5.387
				C34.186,42.726,33.854,41.759,32.701,41.578z M41.105,46.146c-0.386,1.353-0.872,2.438-0.97,3.566
				c-0.117,1.321,0.563,2.217,1.905,2.238c1.411,0.022,1.854-0.954,1.841-2.275C43.867,47.894,42.963,46.823,41.105,46.146z
				 M37.868,55.104c-0.272,1-0.442,1.735-0.674,2.448c-0.44,1.354-0.042,2.291,1.141,2.866c1.164,0.567,1.831-0.354,2.439-1.106
				c0.854-1.053,0.214-1.923-0.516-2.7C39.652,55.962,38.954,55.469,37.868,55.104z M39.603,67.198
				c-0.441,1.318-0.911,2.265-1.043,3.264c-0.132,0.983,0.564,1.658,1.339,2.103c0.779,0.447,1.367-0.039,1.913-0.575
				c0.803-0.793,0.504-1.6,0.015-2.422C41.318,68.715,40.755,67.93,39.603,67.198z M32.337,71.837
				c-0.16,1.271-0.303,2.277-0.407,3.29c-0.099,0.971,0.078,1.805,1.095,2.089c0.905,0.252,1.631-0.157,2.234-0.821
				c0.76-0.832,0.323-1.63-0.142-2.414C34.509,72.95,33.479,72.555,32.337,71.837z M48.571,45.002
				c-0.338,2.211-0.877,3.725,0.294,5.114c0.329,0.387,0.656,0.849,1.164,0.75c0.715-0.144,0.83-0.845,0.898-1.503
				C51.117,47.511,49.686,46.679,48.571,45.002z M24.698,64.624c0.265,1.777-0.105,3.272,0.693,4.565
				c0.328,0.53,0.606,1.316,1.298,1.139c0.73-0.191,1.208-0.883,1.252-1.739C28.06,66.316,26.679,65.366,24.698,64.624z
				 M47.161,89.173c-0.833,0.697-0.923,1.825-1.362,2.74c-0.314,0.658-0.105,1.313,0.387,1.77c0.514,0.477,1.093,0.363,1.685,0.061
				c1.45-0.739,1.682-1.519,0.729-3.018C48.225,90.133,47.896,89.42,47.161,89.173z M31.91,60.473
				c-0.861,0.967-0.512,2.193-0.58,3.306c-0.061,0.992,0.308,1.896,1.372,1.762c1.171-0.146,2.02-0.905,1.788-2.342
				C34.246,61.677,33.43,60.65,31.91,60.473z M52.66,35.25c-0.442,1.214-0.178,2.365,0.176,3.476
				c0.234,0.731,0.571,1.515,1.43,1.578c0.72,0.052,0.961-0.675,1.303-1.185c0.525-0.784,0.224-1.496-0.248-2.144
				C54.646,36.051,53.834,35.348,52.66,35.25z M45.346,55.286c-0.269,1.408-0.509,2.41-0.643,3.43
				c-0.107,0.811,0.046,1.573,0.861,1.953c0.976,0.454,1.619-0.257,2.259-0.819c0.771-0.676,0.314-1.398-0.075-2.072
				C47.23,56.884,46.567,56.141,45.346,55.286z M29.328,82.074c-0.295,3.292,0.022,3.856,2.205,4.223
				c0.612,0.103,1.243,0.151,1.56-0.531c0.389-0.829-0.013-1.575-0.619-1.985C31.5,83.125,30.419,82.654,29.328,82.074z
				 M48.276,82.41c2.472-1.423,2.889-2.271,2.132-3.837c-0.274-0.563-0.665-1.197-1.316-1.132c-1.008,0.101-0.352,0.948-0.422,1.462
				C48.534,79.909,48.44,80.921,48.276,82.41z M47.813,71.559c0.974-1.044,1.063-2.218,0.173-3.446
				c-0.327-0.45-1.082-0.698-1.228-0.32c-0.448,1.169-0.947,2.464-0.292,3.732C46.754,72.077,47.306,71.866,47.813,71.559z
				 M45.625,36.705c0.005,1.101-0.041,1.995,0.029,2.877c0.071,0.847,0.462,1.524,1.365,1.274c1.065-0.295,1.675-1.116,1.231-2.294
				C47.878,37.569,46.966,37.107,45.625,36.705z M42.349,79.535c-0.303,1.433-0.043,2.669,1.309,3.418
				c0.459,0.254,0.956-0.054,1.131-0.587c0.64-1.954-0.714-2.42-1.938-2.957C42.773,79.375,42.654,79.455,42.349,79.535z
				 M40.115,88.84c0.474-0.624,0.802-1.341,0.336-2.068c-0.49-0.759-1.353-1.315-2.108-0.838c-0.839,0.53-0.458,1.624-0.073,2.319
				C38.624,88.892,39.351,89.167,40.115,88.84z"/>
			<g>
				<g>
					<path fill="#DBD6CC" d="M117.652,19.572c-1.106,4.186-2.497,8.286-3.5,12.5c-0.631,2.648,3.354,4.6,4.569,1.926
						c1.076-2.368,2.451-4.418,4-6.5c-1.523-0.642-3.046-1.284-4.569-1.926c-0.58,1.886-1.374,3.636-2.248,5.403
						c1.523,0.642,3.046,1.284,4.569,1.926c0.476-1.865,0.962-3.628,1.748-5.403c-1.553-0.42-3.106-0.841-4.659-1.262
						c-0.083,3.04-0.542,5.921-1.411,8.835c1.637,0.222,3.274,0.443,4.911,0.665c0-0.333,0-0.667,0-1
						c0-2.369-3.544-3.573-4.659-1.262c-1.43,2.965-1.823,5.991-1.841,9.262c-0.016,2.89,4.067,3.315,4.911,0.665
						c0.211-0.664,0.38-1.313,0.5-2c-1.607,0-3.214,0-4.821,0c0.656,2.37,0.897,4.221-0.248,6.574
						c0.941-0.383,1.882-0.766,2.823-1.149c0.035,0.047,0.069,0.095,0.103,0.143c-2.131-1.705-5.403,0.404-3.926,3.029
						c0.524,0.931,1.194,1.701,1.891,2.506c2.113,2.442,5.634-1.11,3.535-3.535c-0.449-0.445-0.819-0.943-1.109-1.494
						c-1.309,1.01-2.618,2.02-3.926,3.029c0.683,0.547,1.278,0.843,2.103,1.143c0.984,0.358,2.366-0.209,2.823-1.149
						c1.698-3.489,1.784-6.697,0.752-10.426c-0.622-2.249-4.379-2.529-4.821,0c-0.12,0.686-0.289,1.336-0.5,2
						c1.637,0.222,3.274,0.443,4.911,0.665c0.013-2.325,0.126-4.597,1.159-6.738c-1.553-0.42-3.106-0.841-4.659-1.262
						c0,0.333,0,0.667,0,1c0,2.859,4.108,3.357,4.911,0.665c0.997-3.343,1.495-6.679,1.589-10.165
						c0.064-2.358-3.627-3.592-4.659-1.262c-0.957,2.161-1.667,4.303-2.252,6.597c-0.683,2.675,3.279,4.534,4.569,1.926
						c1.07-2.163,2.042-4.288,2.752-6.597c0.894-2.908-2.981-4.061-4.569-1.926c-1.549,2.081-2.924,4.132-4,6.5
						c1.523,0.642,3.046,1.284,4.569,1.926c1.003-4.214,2.394-8.313,3.5-12.5C123.298,17.78,118.475,16.458,117.652,19.572
						L117.652,19.572z"/>
				</g>
			</g>
			<g>
				<g>
					<path fill="#DBD6CC" d="M112.652,53.072c0.304-0.278,0.607-0.557,0.911-0.835c-2.026,0.21-3.494,2.635-1.768,4.268
						c0.806,0.763,1.743,1.64,2.721,2.165c0.986,0.529,2.225,0.433,3.029-0.391c0.005-0.005,0.011-0.01,0.016-0.016
						c0.712-0.729,1.07-2.146,0.391-3.03c-0.201-0.262-0.393-0.525-0.622-0.764c0.13,1.01,0.261,2.02,0.391,3.029
						c0.968-1.854,2.153-3.494,3.609-4.994c-1.393-0.368-2.786-0.735-4.178-1.103c0.402,1.507,0.193,2.375-0.921,3.432
						c-1.146,1.087-2.641,1.841-3.93,2.745c-1.358,0.952-1.877,3.496,0,4.317c2.586,1.132,4.744,0.932,7.426,0.252
						c3.124-0.792,1.798-5.614-1.329-4.821c-1.16,0.294-2.405,0.763-3.574,0.252c0,1.439,0,2.878,0,4.317
						c1.967-1.379,4.202-2.546,5.773-4.403c1.815-2.145,2.083-4.769,1.375-7.42c-0.48-1.802-2.871-2.451-4.178-1.103
						c-1.735,1.788-3.237,3.796-4.391,6.006c-0.533,1.02-0.416,2.186,0.391,3.029c-0.054-0.083-0.107-0.165-0.161-0.248
						c0.13-1.01,0.26-2.02,0.391-3.03c-0.005,0.005-0.01,0.011-0.015,0.016c1.01-0.13,2.02-0.26,3.029-0.391
						c-0.602-0.323-1.162-0.866-1.709-1.383c-0.589,1.422-1.178,2.845-1.768,4.268c1.768-0.184,3.517-0.892,3.911-2.835
						C118.112,51.254,113.292,49.914,112.652,53.072L112.652,53.072z"/>
				</g>
			</g>
			<g>
				<g>
					<path fill="#DBD6CC" d="M174.301,28.078c-4.476,2.523-5.634,7.303-5.238,12.159c0.186,2.28,2.535,3.168,4.268,1.768
						c3.762-3.041,5.844-7.003,7.144-11.603c-1.607,0-3.215,0-4.822,0c0.653,2.146,0.732,4.03,0.186,6.208
						c-0.221,0.76-0.553,1.465-0.995,2.116c1.498,1.227,2.071,1.064,1.721-0.488c-1.667,0-3.333,0-5,0
						c0.031,5.849,0.453,11.819-2.158,17.238c1.522,0.199,3.046,0.398,4.569,0.597c-0.377-2.778-0.405-5.541-0.411-8.335
						c-0.007-3.224-5-3.225-5,0c0,1.167,0,2.333,0,3.5c0,2.952,3.974,3.232,4.911,0.665c0.488-1.338,1.011-2.662,1.5-4
						c-1.523,0.199-3.047,0.398-4.569,0.597c2.031,3.586,1.207,7.057-2.104,9.58c-2.563,1.953-0.454,5.635,2.523,4.317
						c1.161-0.514,2.339-0.986,3.5-1.5c-1.14-1.14-2.28-2.28-3.42-3.42c-0.982,1.396-1.279,2.567-1.342,4.262
						c-0.119,3.226,4.881,3.214,5,0c0.22-0.58,0.439-1.159,0.658-1.738c1.607-2.283-1.388-4.32-3.42-3.42
						c-1.161,0.514-2.339,0.986-3.5,1.5c0.841,1.439,1.683,2.878,2.523,4.317c5.448-4.151,7.392-10.25,3.896-16.42
						c-1.138-2.009-3.859-1.347-4.569,0.597c-0.488,1.338-1.011,2.662-1.5,4c1.638,0.222,3.274,0.443,4.911,0.665
						c0-1.167,0-2.333,0-3.5c-1.667,0-3.333,0-5,0c0.007,3.258,0.152,6.438,0.589,9.665c0.29,2.137,3.687,2.431,4.569,0.597
						c3.045-6.317,2.878-12.892,2.842-19.762c-0.018-3.225-4.966-3.223-5,0c-0.035,3.347,1.826,7.313,5.72,5.006
						c4.431-2.626,4.468-9.973,3.191-14.17c-0.716-2.352-4.139-2.42-4.822,0c-1.086,3.845-2.728,6.867-5.856,9.397
						c1.423,0.589,2.845,1.178,4.268,1.768c-0.244-2.995-0.203-6.169,2.762-7.841C179.633,30.813,177.114,26.493,174.301,28.078
						L174.301,28.078z"/>
				</g>
			</g>
			<g>
				<g>
					<path fill="#DBD6CC" d="M230.063,31.737c0.186,8.779-3.89,16.475-5.911,24.835c-0.562,2.327,2.423,4.36,4.179,2.432
						c3.462-3.801,5.057-8.12,4.732-13.268c-1.637,0.222-3.273,0.443-4.911,0.665c0.844,4.568,1.368,9.474-1.247,13.574
						c1.309-0.169,2.617-0.337,3.926-0.506c-0.119-0.132-0.238-0.265-0.356-0.397c-0.8-2.097-4.287-2.654-4.822,0
						c-0.493,2.449-1.161,4.475-2.856,6.397c1.393,0.368,2.785,0.735,4.179,1.103c-0.337-0.921-0.474-1.866-0.411-2.835
						c-0.053-3.221-5-3.227-5,0c0,1,0,2,0,3c0,2.568,3.334,3.305,4.658,1.262c5.192-8.004,6.65-17.404,10.5-26
						c1.307-2.917-3.001-5.462-4.316-2.523c-3.836,8.564-5.343,18.048-10.5,26c1.553,0.42,3.105,0.841,4.658,1.262c0-1,0-2,0-3
						c-1.667,0-3.333,0-5,0c0.024,1.468,0.154,2.767,0.589,4.165c0.527,1.692,2.881,2.575,4.179,1.103
						c2.264-2.565,3.467-5.25,4.144-8.603c-1.607,0-3.215,0-4.822,0c0.392,1.026,0.775,1.902,1.644,2.603
						c1.273,1.029,2.994,0.956,3.926-0.506c3.363-5.27,2.842-11.527,1.753-17.426c-0.513-2.776-5.088-2.135-4.911,0.665
						c0.242,3.842-0.657,6.866-3.268,9.732c1.393,0.811,2.785,1.622,4.179,2.432c2.133-8.828,6.284-16.89,6.089-26.165
						C234.995,28.517,229.995,28.511,230.063,31.737L230.063,31.737z"/>
				</g>
			</g>
			<g>
				<g>
					<path fill="#DBD6CC" d="M276.063,37.737c0.303,5.592-1.235,10.746-3.658,15.738c1.522,0.642,3.046,1.284,4.569,1.926
						c0.563-1.896,1.37-3.637,2.247-5.403c-1.553-0.42-3.105-0.841-4.658-1.262c0.071,1.771,0.372,3.568,0.089,5.335
						c1.638,0.222,3.274,0.443,4.911,0.665c0.158-0.607,0.295-1.219,0.411-1.835c-1.638-0.222-3.274-0.443-4.911-0.665
						c-0.098,1.185-0.522,2.229-0.911,3.335c-1.069,3.051,3.762,4.351,4.822,1.329c0.553-1.576,0.952-3,1.089-4.665
						c0.23-2.811-4.36-3.418-4.911-0.665c-0.213,1.067-0.446,2.082-0.589,3.165c-0.368,2.787,4.467,3.437,4.911,0.665
						c0.362-2.267,0.181-4.381,0.089-6.665c-0.094-2.333-3.492-3.611-4.658-1.262c-1.069,2.153-2.068,4.29-2.753,6.597
						c-0.795,2.681,3.317,4.506,4.569,1.926c2.797-5.76,4.692-11.796,4.342-18.262C280.889,34.53,275.888,34.514,276.063,37.737
						L276.063,37.737z"/>
				</g>
			</g>
			<g>
				<g>
					<path fill="#DBD6CC" d="M167.652,61.072c-0.88,2.287-1.506,4.602-2,7c-0.538,2.619,3.349,4.648,4.569,1.926
						c0.995-2.216,2.388-3.609,4.604-4.603c-1.224-0.941-2.448-1.882-3.673-2.823c-0.877,2.581-1.882,5.04-3.247,7.403
						c1.309-0.169,2.617-0.337,3.926-0.506c-0.719-0.633-1.564-1.19-2.109-1.994c-0.813-1.201-2.858-1.851-3.926-0.506
						c-1.049,1.322-1.876,2.863-2.448,4.454c-0.656,1.823,0.569,2.774,0.805,4.478c0.196,1.41,1.882,1.995,3.076,1.746
						c1.056-0.22,1.944-0.78,3-1c-1.025-1.025-2.051-2.05-3.076-3.075c0.083,0.01,0.165,0.021,0.247,0.031
						c-0.301-0.058-0.602-0.113-0.904-0.164c-0.639-0.113-1.285-0.17-1.932-0.202c-3.225-0.16-3.209,4.84,0,5
						c1.506,0.075,2.84,0.517,4.352,0.187c1.689-0.37,2.487-2.098,3.06-3.522c0.767-1.911-1.415-3.421-3.076-3.075
						c-1.056,0.22-1.944,0.78-3,1c1.025,0.582,2.051,1.164,3.076,1.746c-0.152-1.093-0.601-2.208-1.253-3.097
						c0.084,0.642,0.169,1.284,0.253,1.926c0.191-0.928,0.771-2.158,1.356-2.897c-1.309-0.168-2.617-0.337-3.926-0.506
						c0.815,1.203,1.809,2.053,2.891,3.006c1.193,1.052,3.081,0.957,3.926-0.506c1.578-2.729,2.739-5.618,3.753-8.597
						c0.78-2.294-1.857-3.638-3.673-2.823c-2.883,1.293-5.104,3.514-6.396,6.397c1.522,0.642,3.046,1.284,4.569,1.926
						c0.493-2.398,1.119-4.713,2-7C173.633,59.387,168.798,58.096,167.652,61.072L167.652,61.072z"/>
				</g>
			</g>
			<g>
				<g>
					<path fill="#DBD6CC" d="M117.063,59.737c-2.138,0.152-3.669,0.803-5.268,2.232c-0.789,0.705-0.994,2.147-0.391,3.029
						c2.679,3.917,0.893,8.599-1,12.477c1.553,0.42,3.106,0.841,4.659,1.262c-0.091-4.678,9.328-6.013,12.665-7.089
						c3.055-0.986,1.748-5.814-1.33-4.821c-5.952,1.921-16.494,3.759-16.335,11.911c0.046,2.351,3.521,3.593,4.659,1.262
						c2.668-5.466,4.749-12.042,1-17.523c-0.13,1.01-0.261,2.02-0.391,3.029c0.452-0.531,1.029-0.787,1.732-0.768
						C120.26,64.51,120.282,59.508,117.063,59.737L117.063,59.737z"/>
				</g>
			</g>
			<g>
				<g>
					<path fill="#DBD6CC" d="M171.063,68.737c1.276,0.03,2.574,0.491,3.835,0.911c1.294,0.431,2.729-0.485,3.076-1.746
						c0.375-1.366-0.455-2.646-1.746-3.075c-1.687-0.561-3.373-1.048-5.165-1.089c-1.363-0.032-2.5,1.161-2.5,2.5
						C168.563,67.624,169.701,68.705,171.063,68.737L171.063,68.737z"/>
				</g>
			</g>
			<g>
				<g>
					<path fill="#DBD6CC" d="M284.221,49.475c-1.212-1.581-2.609-2.711-2.658-4.738c-0.078-3.218-5-3.229-5,0c0,1.5,0,3,0,4.5
						c0,3.224,5,3.224,5,0c0-1.5,0-3,0-4.5c-1.667,0-3.333,0-5,0c0.037,1.523,0.35,2.898,1.05,4.253
						c0.58,1.122,1.53,2.016,2.292,3.009c0.827,1.079,2.133,1.651,3.42,0.897C284.39,52.271,285.053,50.56,284.221,49.475
						L284.221,49.475z"/>
				</g>
			</g>
			<g>
				<g>
					<path fill="#DBD6CC" d="M46.063,31.737c-0.257,9.567-4.692,19.813-11.268,26.732c1.393,0.368,2.786,0.735,4.178,1.103
						c-1.962-8.75,8.662-17.661,13.248-24.074c-1.523-0.199-3.046-0.398-4.569-0.597c2.706,10.379-6.913,22.102-11.748,30.574
						c1.523,0.199,3.046,0.398,4.569,0.597c-1.048-6.932,6.128-14.911,8.973-20.942c3.036-6.435,4.041-13.34,4.117-20.394
						c0.018-1.609-1.612-2.864-3.165-2.411c-7.951,2.322-13.286,9.242-17.994,15.649c-1.915,2.605,2.425,5.083,4.317,2.523
						c3.333-4.509,8.572-7.183,12.609-10.994c-1.393-0.811-2.786-1.622-4.178-2.432c-1.554,8.979-9.1,19.192-16.351,24.506
						c1.254,0.72,2.508,1.439,3.762,2.159c-0.022-4.637,4.245-8.592,6.659-12.238c-1.523-0.642-3.046-1.284-4.569-1.926
						c-1.7,5.874-5.221,10.982-6.5,17c1.637,0.222,3.274,0.443,4.911,0.665c0-1.667,0-3.333,0-5c0-2.621-3.295-3.234-4.659-1.262
						c-4.264,6.167-6.112,12.616-3.999,19.94c2.042,7.075,7.153,13.113,10.499,19.583c0.771,1.493,2.791,1.54,3.926,0.506
						c7.511-6.835,11.073-18.312,10.732-28.268c-0.072-2.092-2.72-3.425-4.268-1.768c-5.752,6.157-8.809,14.505-10.643,22.603
						c-0.71,3.134,3.968,4.45,4.821,1.329c3.204-11.715,6.405-23.44,6.589-35.665c0.044-2.958-3.988-3.222-4.911-0.665
						c-3.58,9.924-8.601,19.219-12.748,28.903c1.439,0,2.878,0,4.317,0c-2.733-4.629-3.072-10.437-1.748-15.574
						c-1.607,0-3.214,0-4.821,0c1.311,4.022,1.495,8.158,1.911,12.335c0.26,2.607,4.338,3.637,4.911,0.665
						c1.071-5.56,2.463-11.027,3.089-16.665c-1.667,0-3.333,0-5,0c-0.13,8.952-2.583,18.063-1.5,27c0.383,3.159,5.387,3.196,5,0
						c-1.083-8.937,1.37-18.048,1.5-27c0.048-3.295-4.653-3.125-5,0c-0.576,5.184-1.926,10.223-2.911,15.335
						c1.637,0.222,3.274,0.443,4.911,0.665c-0.46-4.617-0.643-9.224-2.089-13.665c-0.742-2.278-4.179-2.491-4.821,0
						c-1.654,6.415-1.156,13.655,2.252,19.426c0.864,1.463,3.55,1.793,4.317,0c4.317-10.083,9.524-19.764,13.252-30.097
						c-1.637-0.222-3.274-0.443-4.911-0.665c-0.177,11.782-3.324,23.05-6.411,34.335c1.607,0.443,3.214,0.886,4.821,1.329
						c1.641-7.244,4.196-14.872,9.357-20.397c-1.422-0.589-2.845-1.178-4.268-1.768c0.298,8.713-2.682,18.739-9.268,24.732
						c1.309,0.168,2.617,0.337,3.926,0.506c-2.702-5.226-6.112-10.041-8.75-15.297c-3.424-6.822-1.953-13.099,2.25-19.179
						c-1.553-0.42-3.106-0.841-4.659-1.262c0,1.667,0,3.333,0,5c0,2.772,4.313,3.473,4.911,0.665c1.275-5.997,4.801-11.131,6.5-17
						c0.816-2.821-3.044-4.23-4.569-1.926c-3.056,4.616-7.37,8.886-7.341,14.762c0.008,1.743,2.178,3.319,3.762,2.159
						c8.266-6.058,16.868-17.204,18.649-27.494c0.416-2.401-2.252-4.25-4.178-2.432c-4.41,4.163-9.739,7.065-13.391,12.006
						c1.439,0.841,2.878,1.682,4.317,2.523c3.874-5.271,8.448-11.436,15.006-13.351c-1.055-0.804-2.11-1.607-3.165-2.411
						c-0.095,8.802-2.412,15.618-6.244,23.432c-3.167,6.459-7.821,11.603-6.667,19.233c0.336,2.221,3.583,2.326,4.569,0.597
						c5.634-9.87,15.41-22.313,12.252-34.426c-0.586-2.25-3.372-2.272-4.569-0.597c-5.725,8.005-16.208,16.978-13.752,27.926
						c0.41,1.828,2.919,2.428,4.178,1.103c7.494-7.885,12.439-19.369,12.732-30.268C51.15,28.511,46.149,28.519,46.063,31.737
						L46.063,31.737z"/>
				</g>
			</g>
			<g>
				<g>
					<path fill="#DBD6CC" d="M40.652,57.901c0.48,1.482,0.814,2.75,0.911,4.335c0.138,2.275,3.513,3.677,4.659,1.262
						c2.952-6.224,4.674-12.95,8-19c-1.523-0.642-3.046-1.284-4.569-1.926c-0.667,3.76-1.913,7.348-3,11
						c1.637,0.222,3.274,0.443,4.911,0.665c0.658-8.095,2.709-16.041,4.911-23.835c-1.637-0.222-3.274-0.443-4.911-0.665
						c1.341,14.029-13.854,21.213-14.396,34.742c-0.355,8.858,5.548,17.941,14.658,11.417c-1.224-0.498-2.448-0.996-3.672-1.494
						c0.65,4.491-1.57,9.025-3,13.171c1.637,0.222,3.274,0.443,4.911,0.665c0.006-4.326,0.092-8.571,0.911-12.835
						c-1.637-0.222-3.274-0.443-4.911-0.665c0.466,5.675,0.314,12.218-2.659,17.238c1.309-0.169,2.618-0.337,3.926-0.506
						c-4.994-5.619-3.965-14.266-9-20c-1.85-2.107-4.483,0.229-4.178,2.432c0.299,2.16,0.2,4.334,0.5,6.5
						c0.804-1.055,1.607-2.11,2.411-3.165c-0.696-0.278-1.393-0.557-2.089-0.835c1.181-3.004-3.656-4.294-4.821-1.329
						c-1.904,4.846,2.639,7.365,6.911,7.165c1.776-0.083,2.638-1.523,2.411-3.165c-0.299-2.16-0.2-4.334-0.5-6.5
						c-1.393,0.811-2.786,1.622-4.178,2.432c4.893,5.573,3.895,14.256,9,20c1.085,1.222,3.142,0.819,3.926-0.506
						c3.416-5.767,3.878-13.222,3.341-19.762c-0.217-2.64-4.346-3.607-4.911-0.665c-0.904,4.708-1.082,9.378-1.089,14.165
						c-0.004,2.924,4.012,3.27,4.911,0.665c1.813-5.255,3.816-10.195,3-15.829c-0.221-1.53-2.457-2.365-3.672-1.494
						c-3.59,2.571-5.543,1.783-6.676-2.391c-0.89-3.28-0.743-7.543,0.759-10.625c4.913-10.078,14.363-16.439,13.179-28.825
						c-0.259-2.71-4.104-3.523-4.911-0.665c-2.327,8.238-4.394,16.611-5.089,25.165c-0.235,2.897,4.131,3.283,4.911,0.665
						c1.087-3.652,2.333-7.239,3-11c0.472-2.657-3.122-4.559-4.569-1.926c-3.333,6.063-5.045,12.771-8,19
						c1.553,0.42,3.106,0.841,4.659,1.262c-0.121-1.981-0.476-3.772-1.089-5.665C44.484,53.519,39.655,54.825,40.652,57.901
						L40.652,57.901z"/>
				</g>
			</g>
		</g>
		<g>
			<g>
				<path fill="#DDD4BD" d="M112.828,35.986c-0.07,6.657-0.576,14.184-5.03,19.521c1.309,0.168,2.617,0.337,3.926,0.506
					c-4.1-8.387-3.059-20.792,4.866-26.634c-1.224-0.498-2.448-0.996-3.672-1.494c1.684,5.917,2.551,12.507-1.662,17.604
					c1.309,0.168,2.618,0.337,3.926,0.506c-3.597-5.698-3.964-12.245-3.116-18.775c0.415-3.191-4.591-3.151-5,0
					c-0.958,7.374-0.238,14.903,3.799,21.298c0.793,1.257,2.859,1.798,3.926,0.506c5.435-6.575,5.186-14.604,2.948-22.469
					c-0.406-1.427-2.341-2.476-3.672-1.494c-10.263,7.567-12.063,22.425-6.66,33.475c0.671,1.373,2.933,1.696,3.926,0.506
					c5.39-6.458,6.409-14.905,6.495-23.057C117.862,32.761,112.862,32.764,112.828,35.986L112.828,35.986z"/>
			</g>
		</g>
		<g>
			<g>
				<path fill="#DDD4BD" d="M115.133,25.968c-0.004,9.538-0.04,19.071-3.369,28.138c-1.114,3.034,3.72,4.33,4.821,1.329
					c3.474-9.463,3.543-19.507,3.547-29.467C120.134,22.744,115.134,22.744,115.133,25.968L115.133,25.968z"/>
			</g>
		</g>
		<g>
			<g>
				<path fill="#DDD4BD" d="M113.98,25.968c0,5.844,0,11.688,0,17.532c0,3.224,5,3.224,5,0c0-5.844,0-11.688,0-17.532
					C118.98,22.744,113.98,22.744,113.98,25.968L113.98,25.968z"/>
			</g>
		</g>
		<g>
			<g>
				<path fill="#DDD4BD" d="M116.285,18.455c0,3.757,0,7.514,0,11.271c0,3.224,5,3.224,5,0c0-3.757,0-7.514,0-11.271
					C121.285,15.23,116.285,15.23,116.285,18.455L116.285,18.455z"/>
			</g>
		</g>
		<g>
			<g>
				<path fill="#DDD4BD" d="M117.633,33.478c3.224,0,3.224-5,0-5S114.409,33.478,117.633,33.478L117.633,33.478z"/>
			</g>
		</g>
		<g>
			<g>
				<path fill="#DDD4BD" d="M117.633,32.225c3.618,0.09,6.31,2.035,8.213,5.023c1.728,2.71,6.057,0.205,4.318-2.523
					c-2.868-4.5-7.108-7.365-12.532-7.5C114.407,27.145,114.415,32.146,117.633,32.225L117.633,32.225z"/>
			</g>
		</g>
		<g>
			<g>
				<path fill="#DDD4BD" d="M168.815,31.642c0.524,3.711,0.486,7.492,0.487,11.232c0.001,3.023,3.896,3.137,4.911,0.665
					c1.226-2.986,1.238-6.25,1.241-9.431c0.003-3.225-4.997-3.224-5,0c-0.003,2.78,0.009,5.491-1.063,8.102
					c1.638,0.222,3.274,0.443,4.911,0.665c-0.001-4.21-0.076-8.386-0.665-12.561C173.188,27.131,168.371,28.49,168.815,31.642
					L168.815,31.642z"/>
			</g>
		</g>
		<g>
			<g>
				<path fill="#DDD4BD" d="M170.455,32.229c0,3.548,0,7.096,0,10.645c0,3.224,5,3.224,5,0c0-3.548,0-7.096,0-10.645
					C175.455,29.005,170.455,29.005,170.455,32.229L170.455,32.229z"/>
			</g>
		</g>
		<g>
			<g>
				<path fill="#DDD4BD" d="M172.184,28.473c0,4.383,0,8.766,0,13.149c0,3.224,5,3.224,5,0c0-4.383,0-8.766,0-13.149
					C177.184,25.249,172.184,25.249,172.184,28.473L172.184,28.473z"/>
			</g>
		</g>
		<g>
			<g>
				<path fill="#DDD4BD" d="M171.032,32.856c-0.487,3.965-0.549,7.993-1.641,11.858c-0.877,3.109,3.947,4.427,4.822,1.329
					c1.211-4.291,1.277-8.786,1.818-13.187C176.424,29.661,171.42,29.699,171.032,32.856L171.032,32.856z"/>
			</g>
		</g>
		<g>
			<g>
				<path fill="#BAB29F" d="M142.374,70.535c-2.33,1.909-4.098,4.404-6.253,6.5c-1.521,1.48-4.22,0.101-0.809-0.109
					c1.692-0.104,3.449,0.458,4.757,1.526c0.367-1.393,0.735-2.786,1.103-4.178c-6.938,2.109-13.767-0.694-19.396-4.757
					c-0.642,1.523-1.284,3.046-1.926,4.569c1.921,0.354,7.579,0.818,6.699,3.811c-0.706,2.403-3.019,4.621-4.521,6.545
					c-2.929,3.752-6.541,8.948-3.096,13.541c1.573,2.096,5.557,0.975,4.569-1.926c-0.902-2.651-0.553-5.351-0.487-8.102
					c-0.612,0.804-1.224,1.607-1.835,2.411c1.928-0.923,3.4-0.252,4.416,2.011c0.384-0.941,0.767-1.882,1.149-2.823
					c-1.471,0.125-2.942,0.25-4.413,0.375c0.199,1.523,0.398,3.046,0.597,4.569c8.276-3.526,18.061-4.572,26.976-4.668
					c2.822-0.03,3.405-4.154,0.665-4.911c-9.874-2.725-15.613,3.193-14.69,13.055c1.055-0.804,2.109-1.607,3.165-2.411
					c-0.235-0.033-2.649-0.687-2.837-0.288c0.458-0.975,1.487-1.744,2.271-2.439c1.785-1.583,3.899-2.845,5.95-4.052
					c6.358-3.743,13.202-5.914,18.769-10.958c2.395-2.169-1.152-5.694-3.535-3.535c-6.973,6.318-16.551,8.661-24.006,14.422
					c-5.655,4.371-5.982,10.56,2.058,11.671c1.453,0.201,3.333-0.618,3.165-2.411c-0.604-6.446,1.548-10.114,8.36-8.234
					c0.222-1.637,0.443-3.274,0.665-4.911c-9.866,0.105-20.374,1.463-29.499,5.351c-2.207,0.94-1.166,3.917,0.597,4.569
					c3.139,1.162,5.333,0.557,8.265-0.878c1.001-0.49,1.423-1.801,1.149-2.823c-1.366-5.104-5.647-6.845-10.567-5.503
					c-1.092,0.298-1.809,1.297-1.835,2.411c-0.077,3.233-0.392,6.324,0.666,9.431c1.523-0.642,3.046-1.284,4.569-1.926
					c-2.964-3.95,5.578-11.14,7.401-14.539c3.866-7.207-3.517-10.557-9.471-11.655c-2.85-0.525-4.248,2.894-1.926,4.569
					c6.688,4.827,15.099,7.739,23.249,5.261c1.647-0.501,2.63-2.93,1.103-4.178c-3.178-2.598-6.78-3.341-10.801-2.701
					c-2.537,0.404-5.971,3.135-4.745,6.096c1.39,3.355,4.274,5.531,7.964,4.604c4.217-1.06,6.727-6.257,9.887-8.847
					C148.405,72.025,144.845,68.509,142.374,70.535L142.374,70.535z"/>
			</g>
		</g>
		<g>
			<g>
				<path fill="#BAB29F" d="M181.49,66.948c5.779,3.432-9.498,18.462-12.678,20.728c1.224,0.941,2.448,1.882,3.673,2.823
					c1.472-10.212,9.792-16.808,14.154-25.701c-1.553-0.42-3.105-0.841-4.658-1.262c-0.126,2.39-0.543,4.536-1.064,6.849
					c1.638,0.222,3.274,0.443,4.911,0.665c0.096-5.933,0.977-11.905-1.241-17.57c-1.607,0.443-3.215,0.886-4.822,1.329
					c2.014,5.067,4.102,9.522,8.641,12.765c1.813,1.295,4.287-0.835,3.673-2.823c-0.727-2.347-1.573-4.609-2.558-6.858
					c-0.837-1.913-4.256-1.474-4.569,0.597c-1.281,8.479,0.267,19.914,5.438,26.972c1.436,1.958,4.564,1.369,4.659-1.262
					c0.149-4.15-0.006-10.631-3.991-13.236c-4.321-2.824-8.432,0.698-11.226,3.955c-0.951,1.108-0.924,2.425,0,3.535
					c5.582,6.714,16.086,3.75,17.433-4.86c0.313-2.007-1.629-4.106-3.673-2.823c-5.971,3.748-11.247,8.411-16.064,13.54
					c-1.867,1.987,0.664,5.676,3.029,3.926c6.742-4.988,13.014-11.261,21.302-13.523c-1.025-0.582-2.051-1.164-3.076-1.746
					c0.552,2.809-0.719,4.938-2.885,6.569c1.224,0.498,2.448,0.996,3.673,1.494c-0.895-5.633-0.388-11.037,2.052-16.232
					c1.363-2.9-2.947-5.44-4.316-2.523c-3.063,6.518-3.681,13.006-2.558,20.084c0.238,1.496,2.459,2.408,3.673,1.494
					c4.098-3.085,6.194-7.061,5.184-12.215c-0.264-1.34-1.837-2.084-3.076-1.746c-8.785,2.397-15.352,8.742-22.495,14.027
					c1.01,1.309,2.02,2.618,3.029,3.926c4.532-4.824,9.433-9.23,15.053-12.758c-1.224-0.941-2.448-1.882-3.673-2.823
					c-0.779,4.986-5.738,6.667-9.075,2.654c0,1.178,0,2.357,0,3.535c1.682-1.959,4.43-5.461,5.974-1.452
					c0.87,2.26,0.794,4.824,0.708,7.198c1.553-0.42,3.105-0.841,4.659-1.262c-4.354-5.941-6.023-15.917-4.935-23.119
					c-1.523,0.199-3.047,0.398-4.569,0.597c0.813,1.857,1.454,3.732,2.052,5.664c1.225-0.941,2.449-1.882,3.673-2.823
					c-3.382-2.416-4.86-6.045-6.342-9.776c-1.174-2.955-6.001-1.682-4.822,1.329c2.05,5.234,1.152,10.764,1.063,16.241
					c-0.045,2.797,4.285,3.442,4.911,0.665c0.613-2.725,1.095-5.39,1.242-8.178c0.129-2.433-3.566-3.489-4.658-1.262
					c-4.569,9.313-13.115,16.176-14.66,26.895c-0.272,1.896,1.654,4.262,3.673,2.823c6.198-4.418,24.323-22.448,12.678-29.363
					C181.234,60.98,178.72,65.304,181.49,66.948L181.49,66.948z"/>
			</g>
		</g>
		<g>
			<g>
				<path fill="#BAB29F" d="M204.074,58.532c-9.203,0.544-15.56,8.176-21.36,14.507c-1.669,1.821-0.054,4.838,2.433,4.178
					c8.648-2.295,16.93-6.056,24.8-10.27c2.13-1.141,1.237-4.846-1.262-4.659c-3.86,0.289-6.535,1.782-9.259,4.489
					c-2.289,2.275,1.247,5.81,3.535,3.535c1.686-1.674,3.283-2.842,5.724-3.024c-0.421-1.553-0.841-3.106-1.262-4.659
					c-7.511,4.021-15.353,7.576-23.606,9.766c0.812,1.393,1.622,2.786,2.433,4.178c4.697-5.126,10.302-12.597,17.825-13.042
					C207.278,63.343,207.296,58.342,204.074,58.532L204.074,58.532z"/>
			</g>
		</g>
		<g>
			<g>
				<path fill="#BAB29F" d="M244.452,69.688c3.733-3.781,9.554-5.447,11.916-10.524c0.834-1.792-0.179-3.591-2.158-3.762
					c-1.55-0.133-3.051-0.528-4.61-0.626c0.833,0.833,1.667,1.667,2.5,2.5c-0.249-2.654-1.465-4.501-2.394-6.926
					c-1.142-2.979-5.978-1.687-4.822,1.329c0.706,1.843,2.029,3.609,2.216,5.597c0.134,1.425,1.04,2.408,2.5,2.5
					c1.555,0.098,3.059,0.492,4.61,0.626c-0.72-1.254-1.439-2.508-2.158-3.762c-2.057,4.418-7.807,6.141-11.135,9.513
					C238.65,68.448,242.184,71.985,244.452,69.688L244.452,69.688z"/>
			</g>
		</g>
		<g>
			<g>
				<path fill="#BAB29F" d="M253.633,67.289c3.225,0,3.225-5,0-5S250.409,67.289,253.633,67.289L253.633,67.289z"/>
			</g>
		</g>
		<g>
			<g>
				<path fill="#BAB29F" d="M256.621,67.958c0.8-2.235,1.326-4.551,1.729-6.887c-1.638-0.222-3.274-0.443-4.911-0.665
					c-0.078,2.723-0.499,5.417-0.577,8.14c1.055-0.804,2.109-1.607,3.165-2.411c-3.338-1.384-6.22-3.694-9.956-3.915
					c-4.005-0.237-5.081,4.512-5.757,7.425c-0.193,0.833-1.804,2.199-2.741,1.438c-0.91-0.74-0.753-2.614-0.731-3.625
					c0.061-2.952,1.042-6.754,3-9.042c2.085-2.435-1.435-5.988-3.535-3.535c-3.624,4.231-7.802,16.616-1.431,20.397
					c3.257,1.934,8.331,0.564,9.805-3.008c0.464-1.126,0.676-2.297,0.938-3.482c0.388-1.755,0.949-1.575,2.464-1.033
					c2.301,0.823,4.357,2.264,6.615,3.2c1.565,0.649,3.123-0.95,3.165-2.411c0.078-2.723,0.499-5.417,0.577-8.14
					c0.08-2.776-4.426-3.475-4.911-0.665c-0.402,2.336-0.929,4.652-1.729,6.887C250.708,69.672,255.541,70.97,256.621,67.958
					L256.621,67.958z"/>
			</g>
		</g>
		<g>
			<g>
				<path fill="#BAB29F" d="M236.816,59.818c0.548,1.821,1.028,3.687,1.063,5.597c0.06,3.22,5.06,3.226,5,0
					c-0.043-2.347-0.569-4.686-1.241-6.926C240.712,55.409,235.886,56.722,236.816,59.818L236.816,59.818z"/>
			</g>
		</g>
		<g>
			<g>
				<path fill="#BAB29F" d="M231.305,69.163c-1.614,2.772-4.287,4.692-7.171,5.991c-1.243,0.56-1.53,2.339-0.897,3.42
					c0.742,1.267,2.179,1.457,3.421,0.897c3.634-1.637,6.946-4.317,8.964-7.785C237.248,68.894,232.925,66.378,231.305,69.163
					L231.305,69.163z"/>
			</g>
		</g>
		<g>
			<g>
				<path fill="#BAB29F" d="M289.452,54.865c-0.937-0.378-1.907-0.557-2.878-0.814c-0.493-0.131-0.017-0.012,0.085,0.271
					c-0.222-0.616-0.043-1.428,0.018-2.055c0.27-2.799-4.435-3.434-4.911-0.665c-0.514,2.99-1.628,5.658-3.967,7.663
					c-2.452,2.102,1.102,5.622,3.535,3.535c2.921-2.503,4.61-6.125,5.254-9.869c-1.638-0.222-3.274-0.443-4.911-0.665
					c-0.186,1.923-0.11,4.23,1.534,5.553c1.439,1.159,3.253,1.197,4.911,1.867c1.267,0.511,2.746-0.546,3.076-1.746
					C291.59,56.511,290.713,55.375,289.452,54.865L289.452,54.865z"/>
			</g>
		</g>
		<g>
			<g>
				<path fill="#BAB29F" d="M306.075,52.271c-2.94,0.003-5.856,0.048-8.733,0.715c-2.94,0.682-1.971,4.638,0.665,4.911
					c5.448,0.563,10.772-1.505,15.093-4.724c2.554-1.903,0.065-6.247-2.523-4.317c-3.704,2.76-7.886,4.526-12.569,4.042
					c0.222,1.637,0.443,3.274,0.665,4.911c2.435-0.565,4.917-0.534,7.403-0.537C309.299,57.267,309.299,52.267,306.075,52.271
					L306.075,52.271z"/>
			</g>
		</g>
		<g>
			<g>
				<path fill="#BAB29F" d="M294.167,53.519c-0.02-1.971-0.486-3.21,0.996-4.494c-1.423-0.589-2.845-1.178-4.268-1.768
					c0.127,2.064,1.127,3.976,2.462,5.524c1.521,1.764,4.163,0.241,4.268-1.768c0.034-0.657,0.531-1.29,0.811-1.869
					c0.594-1.227,0.348-2.692-0.896-3.42c-1.105-0.647-2.828-0.33-3.42,0.897c-0.71,1.469-1.407,2.724-1.494,4.393
					c1.423-0.589,2.845-1.179,4.268-1.768c-0.094-0.109-0.288-0.42-0.531-0.842c-0.109-0.189-0.235-0.427-0.313-0.629
					c0.008,0.019-0.175-0.879-0.152-0.518c-0.138-2.242-2.588-3.222-4.268-1.768c-2.554,2.21-2.492,4.93-2.461,8.029
					C289.2,56.741,294.2,56.744,294.167,53.519L294.167,53.519z"/>
			</g>
		</g>
		<g>
			<g>
				<path fill="#BAB29F" d="M240.489,63.256c-1.202-0.84-1.202-1.73,0-2.57c1.115-0.779,1.628-2.173,0.896-3.42
					c-0.646-1.104-2.301-1.679-3.42-0.897c-1.965,1.373-3.282,3.148-3.399,5.602c-0.114,2.383,1.579,4.332,3.399,5.603
					c1.119,0.782,2.773,0.207,3.42-0.897C242.117,65.429,241.604,64.035,240.489,63.256L240.489,63.256z"/>
			</g>
		</g>
		<g>
			<g>
				<path fill="#BAB29F" d="M241.571,61.769c0.07,0.086,0.141,0.173,0.211,0.26c-0.121-0.234-0.102-0.186,0.059,0.144
					c-0.034-0.115-0.063-0.231-0.085-0.349c0.038,0.352,0.042,0.38,0.012,0.085c-0.05-0.498-0.04-1.003-0.04-1.503
					c-0.001-1.363-1.137-2.5-2.5-2.5c-1.362,0-2.501,1.137-2.5,2.5c0.001,1.797,0.128,3.458,1.309,4.898
					c0.865,1.055,2.644,0.892,3.535,0C242.605,64.271,242.434,62.822,241.571,61.769L241.571,61.769z"/>
			</g>
		</g>
		<g>
			<g>
				<path fill="#BAB29F" d="M90.929,83.573c0.221,3.701,1.258,6.886,3.223,10.028c0.556,0.889,1.763,1.545,2.823,1.149
					c4.944-1.848,9.969-6.472,9.329-12.267c-0.722-6.541-7.741-4.275-11.255-1.695c1.14,1.14,2.28,2.28,3.42,3.42
					c1.368-2.099,1.514-3.799,1.98-6.232c0.334-1.745-0.727-2.943-2.411-3.165c-5.398-0.711-10.737-1.794-16.135-2.505
					c-5.016-0.661-9.884,1.593-14.895,0.716c-1.657-0.29-3.847,1.123-3.075,3.075c1.749,4.426,3.442,8.83,4.388,13.508
					c1.022,5.057-1.015,10.257-1.596,15.256c-0.353,3.035,3.956,3.05,4.911,0.665c2.607-6.511,4.536-13.084,5.276-20.075
					c-1.422,0.589-2.845,1.179-4.268,1.768c4.216,5.199,11.924,3.943,17.815,5.026c-0.612-0.804-1.224-1.607-1.835-2.411
					c-0.221,3.914-1.72,8.494-3.657,11.859c-0.761,1.321-0.047,0.205-0.165-0.745c-0.173-1.389,0-2.884,0.194-4.258
					c0.296-2.091,0.81-4.238,1.623-6.191c-1.523,0.199-3.046,0.398-4.569,0.597c1.305,2.945,0.778,6.271,0.325,9.344
					c-0.342,2.318,2.255,4.371,4.178,2.432c2.873-2.895,4.718-7.887,8.693-9.375c-0.941-0.383-1.882-0.766-2.823-1.149
					c0.909,1.789,1.2,3.598,0.901,5.587c-0.474,3.153,4.343,4.509,4.821,1.329c0.509-3.386,0.155-6.369-1.405-9.44
					c-0.471-0.927-1.83-1.521-2.823-1.149c-5.328,1.994-7.115,6.846-10.899,10.661c1.393,0.811,2.786,1.622,4.178,2.432
					c0.679-4.603,1.097-8.852-0.829-13.197c-0.994-2.242-3.854-1.121-4.569,0.597c-1.667,4.003-4.941,18.192,2.987,18.192
					c6.297,0,8.58-12.953,8.839-17.527c0.058-1.031-0.798-2.22-1.835-2.411c-4.742-0.872-12.308,0.33-15.609-3.74
					c-1.535-1.893-4.067-0.127-4.268,1.768c-0.69,6.517-2.671,12.688-5.097,18.746c1.637,0.222,3.274,0.443,4.911,0.665
					c0.572-4.923,2.035-9.391,1.729-14.401c-0.33-5.403-2.738-10.727-4.7-15.692c-1.025,1.025-2.05,2.05-3.075,3.075
					c4.972,0.871,9.559-0.499,14.528-0.638c5.824-0.163,12.047,1.844,17.832,2.605c-0.804-1.055-1.607-2.11-2.411-3.165
					c-0.332,1.729-0.469,3.492-1.477,5.038c-1.318,2.021,1.376,4.921,3.42,3.42c1.47-1.079,4.376-3.752,3.593-0.583
					c-0.647,2.618-3.129,4.513-5.52,5.406c0.941,0.383,1.882,0.766,2.823,1.149c-1.51-2.415-2.369-4.647-2.54-7.504
					C95.738,80.37,90.737,80.351,90.929,83.573L90.929,83.573z"/>
			</g>
		</g>
		<g>
			<g>
				<path fill="#DDD4BD" d="M42.031,53.238c-6.884,4.362-8.008,12.83-8.729,20.317c1.667,0,3.333,0,5,0
					c0.12-5.235,0.985-10.413,0.576-15.654c-0.187-2.395-3.327-3.521-4.659-1.262c-1.161,1.97-1.328,4.277-1.55,6.506
					c-0.095,0.952-0.688,9.151-2.411,6.781c-1.484-2.042-0.644-6.496-0.857-8.901c-0.208-2.358-0.941-4.582-2.782-6.145
					c0,1.178,0,2.357,0,3.535c4.025-3.197,6.196-7.284,6.495-12.412c-1.637,0.222-3.274,0.443-4.911,0.665
					c0.391,2.729,3.614,11.103,0.573,12.83c1.254,0.72,2.508,1.439,3.762,2.159c-0.235-5.563,1.598-11.251,3.443-16.428
					c1.396-3.918,4.263-12.298,9.128-13.094c-1.055-0.804-2.11-1.607-3.165-2.411c0.173,1.663,0.442,3.349,0.576,5.009
					c0.164,2.038,2.671,3.485,4.268,1.768c3.373-3.628,3.599-8.298,3.614-13.038c-1.055,0.804-2.11,1.607-3.165,2.411
					c2.195,0.732,1.233,1.611,0.175,3.23c-1.314,2.011-2.992,3.792-4.454,5.694c-2.471,3.215-5.048,7.016-3.806,11.244
					c0.652,2.22,4.372,2.553,4.821,0c0.414-2.352,1.314-3.239,2.629-5.038c-1.523-0.199-3.046-0.398-4.569-0.597
					c0.547,3.167,0.466,6.534-0.96,9.473c-1.819,3.748-3.638-3.78-4.015-5.167c-0.582,1.025-1.164,2.05-1.746,3.075
					c2.697,0.743,3.293,1.814,1.787,3.215c1.439,0.841,2.878,1.682,4.317,2.523c2.439-4.832,6.165-8.724,9.22-13.149
					c-1.553-0.42-3.106-0.841-4.659-1.262c-0.19,5.208-1.706,10.091-3.368,14.989c1.607,0.443,3.214,0.886,4.821,1.329
					c2.107-6.314,5.929-12.122,6.916-18.785c-1.607-0.443-3.214-0.886-4.821-1.329c-1.298,9.43-4.448,18.394-6.916,27.55
					c-0.704,2.613-1.454,5.246-2.191,7.857c-0.049,0.174-1.673,5.225-2.822,3.699c-1.142-1.517-0.42-4.24,0.037-5.844
					c-1.607,0-3.214,0-4.821,0c1.248,3.292,3.931,15.232-2.688,13.831c0.612,0.804,1.224,1.607,1.835,2.411
					c-0.849-7.37-0.777-13.409,7.385-15.748c-1.025-0.582-2.05-1.164-3.075-1.746c1.061,2.949,1.523,6.087,1.835,9.193
					c0.222,2.212,1.03,7.19-0.616,9.037c1.178,1.178,2.357,2.357,3.535,3.535c2.262-2.793,3.49-5.524,4-9.097
					c0.592-4.157,0.187-8.202,2.154-12.071c-1.523-0.199-3.046-0.398-4.569-0.597c0.993,3.302,1.053,6.564,1.063,9.98
					c1.667,0,3.333,0,5,0c-0.125-2.097-0.451-4.165-0.576-6.262c-0.159-2.667-4.399-3.583-4.911-0.665
					c-1.018,5.805,0.373,11.086,5.759,14.094c-0.299-1.14-0.598-2.28-0.897-3.42c-1.894,3.442-3.612,6.886-4.862,10.616
					c-1.028,3.066,3.802,4.37,4.821,1.329c1.115-3.326,2.673-6.359,4.358-9.421c0.646-1.175,0.315-2.744-0.897-3.42
					c-3.324-1.856-4.097-4.82-3.461-8.447c-1.637-0.222-3.274-0.443-4.911-0.665c0.125,2.097,0.451,4.165,0.576,6.262
					c0.191,3.193,5.009,3.248,5,0c-0.011-3.864-0.124-7.591-1.242-11.309c-0.59-1.964-3.549-2.604-4.569-0.597
					c-3.221,6.334-0.868,14.596-5.372,20.157c-1.989,2.456,1.358,5.979,3.535,3.535c4.684-5.257,2.201-17.163,0.067-23.095
					c-0.457-1.271-1.689-2.143-3.075-1.746C27.649,67.228,25.83,74.992,26.962,84.826c0.123,1.069,0.667,2.163,1.835,2.411
					c11.838,2.508,11.709-12.405,8.838-19.981c-0.844-2.226-4.1-2.53-4.821,0c-1.004,3.521-1.444,8.775,1.885,11.286
					c3.24,2.443,7.448,0.252,9.205-2.925c2.362-4.271,3.126-10.046,4.439-14.731c2.255-8.04,4.861-15.933,6.004-24.235
					c0.432-3.14-4.349-4.522-4.821-1.329c-0.985,6.658-4.807,12.464-6.916,18.785c-1.024,3.07,3.792,4.363,4.821,1.329
					c1.81-5.333,3.341-10.661,3.547-16.318c0.097-2.654-3.332-3.184-4.659-1.262c-3.061,4.434-6.775,8.305-9.22,13.149
					c-1.458,2.887,2.521,5.202,4.317,2.523c4.322-6.446-0.371-11.71-7.434-10.56c-1.349,0.22-2.075,1.869-1.746,3.075
					c1.239,4.552,4.27,12.659,10.458,9.39c5.209-2.751,4.98-11.608,4.16-16.354c-0.409-2.37-3.444-2.137-4.569-0.597
					c-1.625,2.222-2.625,3.341-3.133,6.232c1.607,0,3.214,0,4.821,0c-2.055-6.996,19.217-18.784,4.593-23.661
					c-1.561-0.521-3.16,0.852-3.165,2.411c-0.01,3.243,0.23,6.944-2.149,9.503c1.422,0.589,2.845,1.178,4.268,1.768
					c-0.138-1.708-0.398-3.299-0.576-5.009c-0.18-1.729-1.45-2.691-3.165-2.411c-5.89,0.964-9.264,8.417-11.29,13.241
					c-2.72,6.479-5.253,13.971-4.952,21.103c0.08,1.887,2.064,3.123,3.762,2.159c6.455-3.666,2.531-12.861,1.725-18.477
					c-0.42-2.929-4.756-1.992-4.911,0.665c-0.227,3.886-2.063,6.52-5.03,8.876c-1.009,0.802-0.956,2.723,0,3.535
					c2.699,2.293,1.166,7.91,1.833,11.096c0.743,3.548,2.821,5.589,6.435,6c7.632,0.868,5.063-12.752,7.185-16.35
					c-1.553-0.42-3.106-0.841-4.659-1.262c0.409,5.241-0.457,10.418-0.576,15.654c-0.075,3.276,4.697,3.147,5,0
					c0.529-5.489,1.121-12.748,6.253-16C47.27,55.835,44.764,51.507,42.031,53.238L42.031,53.238z"/>
			</g>
		</g>
		<g>
			<g>
				<path fill="#DDD4BD" d="M49.632,40.365c0.517,0.023-0.612-0.14-0.176-0.008c-0.76-0.229-0.399-0.169-0.184-0.069
					c0.695,0.324,1.394,0.504,2.158,0.294c1.538-0.423,2.017-1.925,2.342-3.304c-1.607,0-3.214,0-4.821,0
					c0.268,0.835,0.624,1.634,1.038,2.406c0.068,0.126,0.452,0.966,0.219,0.397c0.208,0.509,0.343,1.046,0.472,1.579
					c0.582-1.025,1.164-2.05,1.746-3.075c-0.321,0.085-0.295,0.098,0.077,0.038c0.837-0.076,1.427,0.652,1.702,1.316
					c-0.07-0.168-0.1-0.355-0.148-0.531c-0.254-0.934-1.019-1.918-2.031-2.076c-1.345-0.21-2.684,0.322-3.075,1.746
					c-0.33,1.2,0.398,2.864,1.746,3.075c-0.424-0.33-0.849-0.659-1.273-0.989c-0.181-0.466-0.234-0.575-0.162-0.328
					c0.029,0.108,0.055,0.216,0.085,0.324c0.154,0.547,0.437,1.094,0.837,1.503c0.947,0.967,2.318,1.139,3.57,0.743
					c1.33-0.421,2.074-1.712,1.746-3.075c-0.24-1-0.58-1.95-1.038-2.872c-0.125-0.251-0.264-0.496-0.393-0.745
					c-0.05-0.097-0.292-0.646-0.063-0.092c-0.091-0.22-0.163-0.448-0.236-0.675c-0.724-2.253-4.229-2.517-4.821,0
					c-0.076,0.323-0.155,0.644-0.248,0.962c-0.098,0.282-0.064,0.214,0.1-0.203c0.184-0.282,0.418-0.513,0.701-0.696
					c0.421-0.114,0.841-0.228,1.262-0.341c0.036-0.004,0.759,0.173,0.961,0.267c-0.083-0.038-0.164-0.078-0.247-0.114
					c-0.638-0.277-1.137-0.427-1.848-0.459c-1.362-0.061-2.5,1.183-2.5,2.5C47.132,39.273,48.271,40.304,49.632,40.365
					L49.632,40.365z"/>
			</g>
		</g>
		<g>
			<g>
				<path fill="#DDD4BD" d="M49.438,37.239c0.016,0.648,0.164,1.032,0.431,1.611c0.467,1.011,1.627,1.428,2.645,1.515
					c1.36,0.117,2.5-1.226,2.5-2.5c0-1.451-1.143-2.384-2.5-2.5c0.986,0.084,1.585,0.584,1.867,1.416
					c-0.115-0.34,0.064,0.755,0.057,0.458c-0.034-1.362-1.112-2.5-2.5-2.5C50.6,34.739,49.404,35.876,49.438,37.239L49.438,37.239z"
					/>
			</g>
		</g>
		<g>
			<g>
				<path fill="#DDD4BD" d="M228.659,32.856c-0.073,4.02-1.078,7.895-1.64,11.858c1.638,0.222,3.274,0.443,4.911,0.665
					c0.361-2.731,0.496-6.607,3.372-7.859c-1.224-0.498-2.448-0.996-3.673-1.494c0.699,2.456,1.271,5.433-0.51,7.586
					c1.393,0.368,2.785,0.735,4.179,1.103c-0.422-2.092-0.422-4.093,0-6.185c0.633-3.148-4.186-4.489-4.822-1.329
					c-0.604,3-0.604,5.843,0,8.843c0.354,1.757,3.007,2.52,4.179,1.103c3.021-3.654,3.05-8.044,1.797-12.45
					c-0.481-1.689-2.207-2.132-3.673-1.494c-4.709,2.05-5.259,7.717-5.849,12.177c-0.369,2.786,4.518,3.444,4.911,0.665
					c0.623-4.403,1.735-8.72,1.817-13.187C233.717,29.63,228.717,29.636,228.659,32.856L228.659,32.856z"/>
			</g>
		</g>
		<g>
			<g>
				<path fill="#DDD4BD" d="M119.152,28.901c0.78,4.144,3.481,7.494,7.149,9.494c2.543,1.387,4.924-1.822,3.029-3.926
					c-2.958-3.287-6.826-5.458-10-8.5c-0.589,1.422-1.178,2.845-1.768,4.268c1.18-0.094,2.324-0.406,3.5-0.5
					c1.34-0.107,2.523-1.056,2.5-2.5c-0.064-3.961-1.619-6.075-5.335-7.411c-1.516-0.545-3.212,0.87-3.165,2.411
					c0.117,3.79,1.344,7.217,4.232,9.768c2.407,2.125,5.957-1.397,3.535-3.535c-1.927-1.702-2.689-3.689-2.768-6.232
					c-1.055,0.804-2.11,1.607-3.165,2.411c1.606,0.577,1.637,0.929,1.665,2.589c0.833-0.833,1.667-1.667,2.5-2.5
					c-1.18,0.094-2.324,0.406-3.5,0.5c-2.064,0.165-3.451,2.654-1.768,4.268c3.173,3.042,7.044,5.217,10,8.5
					c1.01-1.309,2.02-2.617,3.029-3.926c-2.632-1.436-4.293-3.54-4.851-6.506C123.378,24.406,118.56,25.75,119.152,28.901
					L119.152,28.901z"/>
			</g>
		</g>
		<g>
			<g>
				<path fill="#DDD4BD" d="M43.974,32.072c-0.448-2.075-0.409-4.223-0.411-6.335c-1.055,0.804-2.11,1.607-3.165,2.411
					c0.47,0.097-0.581-0.504-0.152-0.072c-0.226-0.228,0.366,0.614,0.475,0.822c0.518,0.985,0.838,2.079,1.178,3.134
					c0.809,2.505,1.44,5.073,2.416,7.522c0.78,1.959,1.896,4.173,4.276,4.338c2.753,0.191,4.046-2.925,4.882-4.99
					c1.21-2.991-3.628-4.278-4.821-1.329c-0.184,0.454-0.404,0.886-0.644,1.312c-0.105,0.188-0.436,0.462-0.079,0.221
					c0.633-0.428,1.852,0.209,1.728,0.089c0.371,0.362-0.189-0.328-0.268-0.471c-0.919-1.663-1.383-3.781-1.939-5.643
					c-0.894-2.989-1.986-8.986-5.722-9.754c-1.575-0.324-3.166,0.705-3.165,2.411c0.002,2.57,0.045,5.142,0.589,7.665
					C39.832,36.553,44.652,35.216,43.974,32.072L43.974,32.072z"/>
			</g>
		</g>
		<g>
			<g>
				<path fill="#DDD4BD" d="M50.563,34.737c-0.005,3.664-0.026,7.257-0.911,10.835c1.025-0.582,2.05-1.164,3.075-1.746
					c-5.211-1.866-12.177-10.535-9.506-16.328c-1.439,0-2.878,0-4.317,0c0.655,1.258,0.883,2.557,1.248,3.903
					c0.842,3.109,5.666,1.788,4.821-1.329c-0.487-1.799-0.888-3.438-1.752-5.097c-0.818-1.571-3.537-1.693-4.317,0
					c-4.152,9.003,3.961,20.617,12.494,23.672c1.26,0.451,2.766-0.497,3.075-1.746c0.991-4.006,1.084-8.056,1.089-12.165
					C55.567,31.512,50.567,31.513,50.563,34.737L50.563,34.737z"/>
			</g>
		</g>
		<g>
			<g>
				<path fill="#DDD4BD" d="M43.063,31.737c4.814,0.585,8.108,6.902,7.089,11.335c-0.721,3.139,4.099,4.471,4.821,1.329
					c1.813-7.891-3.784-16.677-11.911-17.665C39.867,26.348,39.904,31.353,43.063,31.737L43.063,31.737z"/>
			</g>
		</g>
		<g>
			<g>
				<path fill="#DDD4BD" d="M36.652,27.572c-3.004,9.694-7.39,24.906,2.143,32.432c2.501,1.975,6.065-1.538,3.535-3.535
					c-7.884-6.225-3.321-19.615-0.857-27.568C42.431,25.813,37.604,24.502,36.652,27.572L36.652,27.572z"/>
			</g>
		</g>
		<g>
			<g>
				<path fill="#DDD4BD" d="M30.563,53.737c-0.541,4.826-1.461,9.577-2.411,14.335c1.224-0.498,2.448-0.996,3.672-1.494
					c-2.27-1.607-3.093-4.321-0.994-6.574c-1.178,0-2.357,0-3.535,0c4.673,4.244,6.261,15.229,2.609,20.471
					c1.523,0.199,3.046,0.398,4.569,0.597c-0.476-2.086-3.542-11.817,1.288-8.886c3.185,1.933,5.03,4.569,8.724,5.679
					c2.394,0.72,4.733,0.147,4.167,3.707c-0.239,1.501-2.267,2.341-3.341,3.165c-2.576,1.975-2.931,4.659-2.159,7.665
					c0.717,2.794,4.828,2.114,4.911-0.665c0.195-6.532-5.528-18.046-0.232-23.232c-1.393-0.368-2.786-0.735-4.178-1.103
					c3.504,8.391,3.103,16.077,0.5,24.671c1.523-0.199,3.046-0.398,4.569-0.597c-1.92-2.888-2.237-6.375-2.659-9.738
					c-0.396-3.155-5.4-3.194-5,0c0.532,4.242,0.917,8.617,3.341,12.262c1.194,1.796,3.92,1.545,4.569-0.597
					c2.839-9.373,3.33-18.158-0.5-27.329c-0.704-1.687-2.708-2.544-4.178-1.103c-7.215,7.065-0.979,18.296-1.232,26.768
					c1.637-0.222,3.274-0.443,4.911-0.665c-0.723-2.817,2.527-3.561,4.133-5.439c1.477-1.729,2.012-4.529,1.624-6.731
					c-1.047-5.935-7.512-4.552-11.252-7.653c-3.372-2.795-8.439-7.522-12.682-3.279c-3.664,3.663-1.107,10.202-0.143,14.432
					c0.518,2.272,3.416,2.253,4.569,0.597c4.881-7.005,2.843-20.868-3.391-26.529c-0.98-0.891-2.574-1.032-3.535,0
					c-4.324,4.64-2.977,10.897,2.006,14.426c1.27,0.899,3.373,0.01,3.672-1.494c1.037-5.2,1.999-10.393,2.589-15.665
					C35.921,50.535,30.917,50.57,30.563,53.737L30.563,53.737z"/>
			</g>
		</g>
		<g>
			<g>
				<path fill="#DDD4BD" d="M231.152,29.572c-0.544,1.762-1.284,3.33-2.247,4.903c1.553,0.42,3.105,0.841,4.658,1.262
					c-0.104-2.212-0.261-4.291,0-6.5c0.331-2.805-4.368-3.409-4.911-0.665c-1.711,8.663-13.707,8.355-20.523,8.175
					c-9.854-0.261-19.603-2.176-29.291-3.831c-12.754-2.178-26.079-2.208-38.941-1.108c-7.879,0.674-15.932,1.978-23.854,1.27
					c-5.866-0.524-11.575-2.518-17.241,0c-1.937,0.861-1.45,4.204,0.597,4.569c5.21,0.93,10.476,1.22,15.5,3
					c-0.199-1.523-0.398-3.046-0.597-4.569c-5.487,2.59-12.132,4.51-18.238,4.159c0.589,1.422,1.179,2.845,1.768,4.268
					c5.279-4.287,13.009-4.469,19.397-5.857c3.15-0.684,1.814-5.504-1.329-4.821c-7.512,1.631-15.416,2.118-21.603,7.143
					c-1.832,1.487-0.187,4.155,1.768,4.268c7.027,0.405,14.469-1.871,20.762-4.841c2.126-1.003,1.246-3.916-0.597-4.569
					c-5.035-1.785-10.278-2.068-15.5-3c0.199,1.523,0.398,3.046,0.597,4.569c3.399-1.511,7.793-0.331,11.288,0.215
					c3.205,0.501,6.302,0.645,9.546,0.57c9.14-0.211,18.183-1.652,27.321-1.904c12.479-0.344,24.258,0.862,36.479,2.908
					c12.138,2.033,43.89,9.071,47.516-9.284c-1.638-0.222-3.274-0.443-4.911-0.665c-0.261,2.209-0.104,4.288,0,6.5
					c0.115,2.468,3.328,3.433,4.658,1.262c1.198-1.955,2.075-3.905,2.753-6.097C236.928,27.812,232.101,26.501,231.152,29.572
					L231.152,29.572z"/>
			</g>
		</g>
		<g>
			<g>
				<path fill="#DDD4BD" d="M174.301,43.078c-5.026,3.093-7.077,8.94-6.738,14.659c0.159,2.684,4.334,3.565,4.911,0.665
					c0.364-1.833,0.555-3.685,1-5.5c-1.638-0.222-3.274-0.443-4.911-0.665c0,1.667,0,3.333,0,5c1.667,0,3.333,0,5,0
					c-0.215-2.351,0.319-3.826,1.658-5.738c-1.553-0.42-3.105-0.841-4.658-1.262c0.153,3.235-1.364,5.872-2.658,8.738
					c1.522,0.642,3.046,1.284,4.569,1.926c0.729-4.408,3.453-8.8,2.5-13.329c-0.584-2.771-5.021-2.138-4.911,0.665
					c0.276,7.099-1.769,13.823-4.411,20.335c-1.069,2.636,3.31,4.434,4.569,1.926c0.942-1.873,1.896-3.717,3-5.5
					c-1.522-0.642-3.046-1.284-4.569-1.926c-1.289,6.057-4.884,11.227-7,17c1.607,0.443,3.215,0.886,4.822,1.329
					c0.456-2.178,0.962-4.34,1.5-6.5c-1.607-0.443-3.215-0.886-4.822-1.329c-0.595,2.478-1.499,4.673-2.747,6.903
					c1.522,0.199,3.046,0.398,4.569,0.597c-0.401-1.493-0.235-2.883,0.5-4.171c-1.638-0.222-3.274-0.443-4.911-0.665
					c0.129,1.869,0.414,3.715,0.539,5.588c0.134,1.989,1.998,2.984,3.762,2.159c0.637-0.298,1.633-2.183,1.22-1.65
					c-1.011,0.13-2.021,0.26-3.03,0.391c0.083,0.057,0.165,0.114,0.248,0.171c2.659,1.839,5.156-2.497,2.523-4.317
					c-0.082-0.057-0.165-0.114-0.248-0.171c-0.832-0.576-2.387-0.436-3.029,0.391c-0.209,0.268-0.417,0.537-0.625,0.807
					c-0.926,1.581-0.451,0.468,0.418,0.062c1.254,0.72,2.508,1.439,3.762,2.159c-0.125-1.872-0.41-3.718-0.539-5.588
					c-0.202-2.929-3.869-3.26-4.911-0.665c-0.965,2.407-0.982,4.319-0.5,6.829c0.417,2.164,3.564,2.393,4.569,0.597
					c1.457-2.602,2.555-5.191,3.253-8.097c0.751-3.132-4.043-4.46-4.822-1.329c-0.537,2.16-1.043,4.321-1.5,6.5
					c-0.667,3.182,3.718,4.341,4.822,1.329c2.124-5.796,5.701-10.9,7-17c0.586-2.754-3.042-4.394-4.569-1.926
					c-1.104,1.783-2.059,3.626-3,5.5c1.522,0.642,3.046,1.284,4.569,1.926c2.806-6.917,4.882-14.138,4.589-21.665
					c-1.637,0.222-3.273,0.443-4.911,0.665c0.661,3.14-1.982,7.542-2.5,10.671c-0.425,2.573,3.314,4.708,4.569,1.926
					c1.675-3.709,3.54-7.084,3.342-11.262c-0.122-2.577-3.238-3.29-4.658-1.262c-1.814,2.589-2.631,5.088-2.342,8.262
					c0.288,3.157,5,3.275,5,0c0-1.667,0-3.333,0-5c0-2.8-4.231-3.436-4.911-0.665c-0.444,1.815-0.635,3.667-1,5.5
					c1.638,0.222,3.274,0.443,4.911,0.665c-0.231-3.898,0.71-8.156,4.262-10.341C179.565,45.709,177.055,41.383,174.301,43.078
					L174.301,43.078z"/>
			</g>
		</g>
		<g>
			<g>
				<path fill="#DDD4BD" d="M227.398,50.647c0.77,0.277-8.587,17.79-9.246,20.425c-0.68,2.721,3.153,4.441,4.569,1.926
					c4.077-7.235,7.559-14.738,10.253-22.597c-1.523,0.199-3.047,0.398-4.569,0.597c3.098,6.292-1.903,15.781-6.609,19.971
					c-2.413,2.148,1.136,5.671,3.535,3.535c6.559-5.838,11.53-17.623,7.391-26.029c-1.025-2.083-3.923-1.288-4.569,0.597
					c-2.556,7.458-5.881,14.54-9.747,21.403c1.522,0.642,3.046,1.284,4.569,1.926c1.37-5.479,15.774-22.968,5.754-26.575
					C225.686,44.731,224.388,49.564,227.398,50.647L227.398,50.647z"/>
			</g>
		</g>
		<g>
			<g>
				<path fill="#DDD4BD" d="M171.563,48.737c-0.017,0.292-0.003,0.257,0.04-0.103c-0.021,0.117-0.048,0.232-0.082,0.346
					c-0.092,0.261-0.07,0.22,0.063-0.121c-0.07,0.15-0.163,0.288-0.256,0.425c0.394-0.583-0.106,0.054-0.268,0.191
					c0.563-0.479-0.08,0.009-0.259,0.103c-1.207,0.63-1.561,2.288-0.896,3.42c0.712,1.217,2.212,1.528,3.42,0.897
					c1.956-1.021,3.175-2.958,3.238-5.159c0.039-1.363-1.167-2.5-2.5-2.5C172.67,46.237,171.602,47.375,171.563,48.737
					L171.563,48.737z"/>
			</g>
		</g>
		<g>
			<g>
				<path fill="#DDD4BD" d="M229.563,50.737c3.225,0,3.225-5,0-5S226.338,50.737,229.563,50.737L229.563,50.737z"/>
			</g>
		</g>
		<g>
			<g>
				<path fill="#DDD4BD" d="M275.898,41.147c5.76,2.291-2.807,17.382-4.993,20.328c-1.925,2.592,2.418,5.081,4.316,2.523
					c4.688-6.313,12.889-23.343,2.007-27.672C274.229,35.133,272.94,39.971,275.898,41.147L275.898,41.147z"/>
			</g>
		</g>
		<g>
			<g>
				<path fill="#DDD4BD" d="M114.563,49.237c-0.17,12.882-3.875,25.2-5.911,37.835c-0.508,3.153,4.31,4.506,4.821,1.329
					c2.106-13.078,5.913-25.831,6.089-39.165C119.605,46.011,114.605,46.015,114.563,49.237L114.563,49.237z"/>
			</g>
		</g>
	</g>
	<g id="_x30_7">
	</g>
	<g id="_x30_6">
	</g>
	<g id="_x30_5">
	</g>
	<g id="_x30_4">
	</g>
	<g id="_x30_3">
	</g>
	<g id="_x30_2">
	</g>
	<g id="_x30_1">
	</g>
</g>
</svg>
