<?xml version="1.0" encoding="utf-8"?>
<!-- Generator: Adobe Illustrator 16.0.0, SVG Export Plug-In . SVG Version: 6.00 Build 0)  -->
<!DOCTYPE svg PUBLIC "-//W3C//DTD SVG 1.1//EN" "http://www.w3.org/Graphics/SVG/1.1/DTD/svg11.dtd">
<svg version="1.1" id="background" xmlns="http://www.w3.org/2000/svg" xmlns:xlink="http://www.w3.org/1999/xlink" x="0px" y="0px"
	 width="1209.9px" height="800px" viewBox="0 0 1209.9 800" enable-background="new 0 0 1209.9 800" xml:space="preserve">
<g>
	<rect fill="#C9699F" width="1209.9" height="800"/>
	<rect x="535.24" y="102.958" fill="#D980B1" width="161" height="406"/>
	<rect x="350.24" y="102.958" fill="#D980B1" width="161" height="406"/>
	<rect x="165.24" y="102.958" fill="#D980B1" width="161" height="406"/>
	<g>
		<circle fill="#D980B1" cx="981.001" cy="214.008" r="53.333"/>
		<circle fill="#C9699F" cx="981.001" cy="214.007" r="4.63"/>
		<path fill="#C9699F" d="M984.335,214.924c0.119,0,0.238-0.021,0.352-0.063c0.283-0.106,0.503-0.336,0.598-0.623l13.356-40.416
			c0.166-0.502-0.087-1.046-0.578-1.242c-0.121-0.049-0.247-0.071-0.371-0.071c-0.376,0-0.734,0.213-0.904,0.573l-17.843,37.77
			c-0.221,0.467-0.049,1.025,0.396,1.288l4.486,2.646C983.982,214.877,984.158,214.924,984.335,214.924z"/>
		<path fill="#C9699F" d="M978.835,216.34c0.388,0,0.757-0.227,0.919-0.606l1.38-3.22c0.112-0.262,0.107-0.559-0.013-0.817
			c-0.121-0.258-0.347-0.452-0.619-0.534l-29.775-8.921c-0.096-0.028-0.192-0.042-0.287-0.042c-0.411,0-0.794,0.255-0.94,0.659
			c-0.181,0.499,0.06,1.052,0.547,1.261l28.396,12.141C978.57,216.314,978.703,216.34,978.835,216.34z"/>
	</g>
</g>
</svg>
