<?xml version="1.0" encoding="utf-8"?>
<!-- Generator: Adobe Illustrator 16.0.0, SVG Export Plug-In . SVG Version: 6.00 Build 0)  -->
<!DOCTYPE svg PUBLIC "-//W3C//DTD SVG 1.1//EN" "http://www.w3.org/Graphics/SVG/1.1/DTD/svg11.dtd">
<svg version="1.1" id="objects" xmlns="http://www.w3.org/2000/svg" xmlns:xlink="http://www.w3.org/1999/xlink" x="0px" y="0px"
	 width="3604.141px" height="520.281px" viewBox="0 0 3604.141 520.281" enable-background="new 0 0 3604.141 520.281"
	 xml:space="preserve">
<g>
	<g>
		<path fill="#512E17" d="M742.063,22.468c-2.473-17.098-23.226-10.747-24.213,1.951c-15.317-17.092-43.642-4.232-40.68,28.656
			c-11.031-7.324-18.77,2.512-16.799,14.655c-10.213-11.722-27.51,2.116-22.567,19.213c-15.318,0.489-13.341,16.116-13.341,16.116
			c-22.236-6.346-28.785,28.379-15.447,44.988c-17.294-3.422-34.597,22.113-8.56,47.08c-32.116,20.026-5.707,54.926,20.687,44.582
			c-4.994,29.959,34.239,53.5,54.213,28.535c20.687,37.092,88.779-6.865,92.732-17.119c15.811,11.232,34.953-9.275,34.953-9.275
			c16.765,13.197,31.305,2.262,34.598-11.413c6.259,21.815,23.427,10.54,26.393,3.21c16.8,15.634,24.618,3.744,25.606-6.353
			c21.412,12.048,45.786-23.122,20.426-32.89c22.232-3.42,17.785-50.313-7.416-39.076c15.813-24.424,8.398-50.313-12.353-44.939
			c10.871-19.051-7.249-27.682-13.34-24.912c11.364-27.515-12.354-39.564-26.188-27.352c1.482-12.213-8.895-7.818-8.895-7.818
			c3.952-20.516-22.397-7.324-22.397-7.324c-1.317-31.59-27.509-12.701-27.509-12.701C790.979-1.468,754.91-1.468,742.063,22.468z"
			/>
		<path opacity="0.4" fill="#301C0E" d="M902.648,155.329c15.813-24.424,8.398-50.313-12.353-44.939
			c10.871-19.051-7.249-27.682-13.34-24.912c7.933-0.508,18.818,12.279,0.271,27.259c14.622-2.497,27.819,17.835,12.126,29.604
			c14.625,9.986-3.209,43.869-19.973,32.1c0,19.26-26.75,35.31-49.576,16.051c0.713,15.335-33.169,34.953-55.997,25.678
			c-8.203,25.682-65.981,31.389-79.18,16.407c-12.128,18.548-34.239-0.712-45.296-30.671c-22.47,13.195-37.094-6.422-27.464-19.618
			c-15.693-3.925-19.973-29.247,9.274-35.667c-16.105-7.381-9.168-33.381,0.322-44.158c-19.793-2.518-25.163,29.752-12.448,45.586
			c-17.294-3.422-34.597,22.113-8.56,47.08c-32.116,20.026-5.707,54.926,20.687,44.582c-4.994,29.959,34.239,53.5,54.213,28.535
			c20.687,37.092,88.779-6.865,92.732-17.119c15.811,11.232,34.953-9.275,34.953-9.275c16.765,13.197,31.305,2.262,34.598-11.413
			c6.259,21.815,23.427,10.54,26.393,3.21c16.8,15.634,24.618,3.744,25.606-6.353c21.412,12.048,45.786-23.122,20.426-32.89
			C932.297,190.985,927.85,144.093,902.648,155.329z"/>
		<path fill="#C57D49" d="M683.847,336.733c0.769,11.123-1.212,34.945-1.212,34.945s25.354,0.156,26.9-1.175
			c1.547-1.333,0.834-28.894,0.834-28.894"/>
		<path opacity="0.4" fill="#E8AF92" d="M683.847,336.733c0.769,11.123-1.212,34.945-1.212,34.945s25.354,0.156,26.9-1.175
			c1.547-1.333,0.834-28.894,0.834-28.894"/>
		<path fill="#A33B3F" d="M723.623,276.505c-31.27,2.868-46.513,30.859-40.754,64.455c8.297,4.449,24.36,4.741,24.36,4.741
			S712.523,303.954,723.623,276.505z"/>
		<path fill="#66171A" d="M681.775,332.175c0,0,0.245,0.248,0.646,0.699c0.219,0.179,0.485,0.396,0.791,0.644
			c0.354,0.204,0.694,0.475,1.131,0.695c0.427,0.232,0.893,0.464,1.406,0.682c0.492,0.246,1.073,0.4,1.625,0.639
			c1.158,0.38,2.404,0.749,3.68,1.05c0.634,0.16,1.277,0.289,1.909,0.429c0.638,0.106,1.257,0.274,1.87,0.357
			c0.61,0.104,1.201,0.212,1.767,0.293c0.566,0.083,1.103,0.161,1.598,0.233c0.501,0.065,0.959,0.125,1.365,0.178
			c0.409,0.054,0.769,0.103,1.065,0.129c0.594,0.067,0.941,0.125,0.941,0.125s-0.327,0.11-0.913,0.271
			c-0.294,0.083-0.652,0.177-1.068,0.239c-0.415,0.072-0.888,0.173-1.404,0.206c-0.518,0.05-1.082,0.116-1.677,0.108
			c-0.597,0.018-1.229,0.025-1.877-0.033c-1.303-0.063-2.686-0.271-4.047-0.593c-0.677-0.177-1.354-0.353-2.004-0.596
			c-0.66-0.202-1.275-0.521-1.883-0.776c-0.592-0.308-1.162-0.594-1.664-0.957c-0.252-0.176-0.507-0.327-0.732-0.509
			c-0.219-0.191-0.431-0.376-0.634-0.554c-0.412-0.339-0.708-0.762-0.993-1.078c-0.254-0.379-0.45-0.715-0.593-0.981
			C681.877,332.508,681.775,332.175,681.775,332.175z"/>
		<path fill="#751B1E" d="M735.275,262.894c-9.631,4.813-21.504,12.829-24.61,17.119c-11.234,15.515-8.916,83.104-8.916,83.104
			c23.539,8.203,122.335,3.566,124.832-6.064c2.497-9.629,1.873-75.078,1.516-80.785c-0.356-5.704,6.51-19.08-46.544-29.424
			C766.573,272.522,737.059,267.528,735.275,262.894z"/>
		<path opacity="0.5" fill="#4D1114" d="M776.148,270.192c19.26,0.535,22,54.75,20.501,77.75c0.199,0.727,0.383,1.369,0.56,1.977
			c0.129-0.031,0.256-0.064,0.384-0.094c9.859-2.291,20.04-5.003,30.228-6.193c0.993-22.346,0.555-62.926,0.276-67.365
			c-0.356-5.704,6.51-19.08-46.544-29.424c-14.979,25.68-44.494,20.686-46.277,16.051c-9.631,4.813-21.504,12.829-24.61,17.119
			c-11.234,15.515-8.916,83.104-8.916,83.104c1.152,0.402,2.49,0.771,3.983,1.111c0.243,0.031,0.385,0.047,0.385,0.047
			s0.301-49.475,10.198-67.665C726.213,278.42,756.889,269.657,776.148,270.192z"/>
		<path fill="#A33B3F" d="M786.519,247.856c-1.382-0.295-2.815-0.588-4.289-0.879l-1.049,0.461
			c-11.827,19.587-32.222,20.793-41.345,18.178l-2.741-0.218c-1.739,7.892,0.57,22.694,12.704,23.98
			C766.916,291.192,802.074,263.118,786.519,247.856z"/>
		<path fill="#E8AF92" d="M728.855,252.728c7.667,7.848,13.91,31.565,31.742,25.501c17.832-6.063,29.782-22.47,15.159-46.01
			C753.287,237.926,743.836,251.303,728.855,252.728z"/>
		<path opacity="0.4" fill="#A87C69" d="M728.855,252.728c7.667,7.848,13.91,31.565,31.742,25.501
			c17.832-6.063,29.782-22.47,15.159-46.01C753.287,237.926,743.836,251.303,728.855,252.728z"/>
		<path fill="#E8AF92" d="M675.992,102.813c-31.91,14.334-29.64,69.086-23.271,95.223c2.973,11.478-26.721,12.689-9.109,44.883
			c17.61,32.193,121.351,42.596,159.875-39.41c35.042,23.271,49.755-55.641,12.114-44.128
			C787.781,107.319,706.725,85.036,675.992,102.813z"/>
		<path fill="#FFFFFF" d="M651.874,197.637c3.837,12.337,12.632,20.604,19.644,18.467c7.011-2.139,9.585-13.872,5.748-26.212
			c-3.835-12.333-12.63-20.602-19.64-18.463C650.614,173.567,648.038,185.303,651.874,197.637z"/>
		<path fill="#442513" d="M667.032,187.265c-6.38,1.25-9.764,11.374-7.559,22.609c0.121,0.617,0.263,1.22,0.411,1.816
			c3.711,3.76,7.921,5.545,11.633,4.413c6.151-1.876,8.883-11.138,6.873-21.712C675.25,189.366,671.027,186.48,667.032,187.265z"/>
		<path fill="#FFFFFF" d="M725.062,193.446c3.427,13.685,14.569,22.687,24.888,20.102c10.319-2.584,15.905-15.773,12.479-29.461
			c-3.427-13.683-14.57-22.685-24.889-20.102C727.22,166.57,721.635,179.761,725.062,193.446z"/>
		<path fill="#140A03" d="M774.388,174.378c0,0-0.022,0.276-0.114,0.727c-0.112,0.453-0.375,1.119-0.806,1.806
			c-0.443,0.686-1.086,1.407-1.897,2.04c-0.417,0.295-0.851,0.614-1.34,0.845c-0.474,0.269-0.996,0.45-1.515,0.64
			c-0.535,0.135-1.065,0.305-1.611,0.346c-0.538,0.084-1.075,0.091-1.591,0.063c-0.515,0.002-1.009-0.125-1.467-0.199
			c-0.456-0.111-0.875-0.267-1.252-0.401c-0.372-0.165-0.697-0.354-0.979-0.515c-0.288-0.14-0.504-0.355-0.69-0.493
			c-0.365-0.296-0.548-0.494-0.548-0.494s0.282-0.045,0.731-0.073c0.227-0.021,0.488-0.016,0.791-0.052
			c0.302-0.034,0.632-0.064,0.98-0.089c0.342-0.042,0.713-0.089,1.105-0.138c0.384-0.083,0.779-0.1,1.181-0.203
			c0.2-0.048,0.403-0.08,0.607-0.115c0.202-0.054,0.405-0.111,0.611-0.154c0.412-0.084,0.818-0.229,1.229-0.342
			c0.816-0.256,1.614-0.571,2.376-0.89c0.749-0.338,1.456-0.686,2.074-1.019c0.311-0.174,0.596-0.333,0.849-0.475
			c0.229-0.159,0.472-0.277,0.66-0.406C774.146,174.514,774.388,174.378,774.388,174.378z"/>
		<path fill="#140A03" d="M765.334,163.171c0,0,0.108,0.234,0.237,0.638c0.073,0.195,0.118,0.459,0.142,0.773
			c0.04,0.325,0.043,0.672,0.012,1.046c-0.048,0.758-0.273,1.616-0.655,2.473c-0.201,0.42-0.421,0.856-0.707,1.253
			c-0.258,0.42-0.597,0.786-0.918,1.167c-0.363,0.343-0.701,0.711-1.11,0.992c-0.383,0.31-0.804,0.561-1.222,0.78
			c-0.412,0.227-0.854,0.382-1.261,0.523c-0.432,0.105-0.816,0.224-1.21,0.243c-0.383,0.037-0.729,0.046-1.044,0.001
			c-0.309-0.025-0.568-0.063-0.785-0.141c-0.427-0.134-0.645-0.248-0.645-0.248s0.227-0.149,0.577-0.346
			c0.177-0.082,0.375-0.251,0.599-0.385c0.224-0.132,0.454-0.333,0.703-0.516c0.253-0.165,0.499-0.417,0.769-0.616
			c0.258-0.237,0.534-0.46,0.803-0.718c0.132-0.134,0.272-0.256,0.413-0.381c0.135-0.135,0.267-0.277,0.408-0.407
			c0.283-0.261,0.543-0.562,0.82-0.837c0.262-0.293,0.541-0.573,0.79-0.871c0.266-0.288,0.501-0.586,0.752-0.87
			c0.47-0.58,0.923-1.137,1.284-1.652c0.184-0.26,0.374-0.496,0.506-0.709c0.134-0.218,0.301-0.414,0.389-0.61
			C765.184,163.381,765.334,163.171,765.334,163.171z"/>
		<path fill="#140A03" d="M754.75,156.667c0,0,0.131,0.169,0.299,0.466c0.08,0.149,0.191,0.327,0.273,0.538
			c0.071,0.228,0.151,0.497,0.206,0.803c0.069,0.317,0.069,0.62,0.075,0.963c0.012,0.344-0.035,0.692-0.104,1.053
			c-0.054,0.368-0.172,0.722-0.303,1.081c-0.113,0.37-0.314,0.693-0.483,1.039c-0.388,0.657-0.86,1.253-1.381,1.726
			c-0.513,0.481-1.071,0.838-1.579,1.092c-0.517,0.246-0.98,0.39-1.324,0.457c-0.34,0.072-0.556,0.07-0.556,0.07
			s0.057-0.206,0.167-0.523c0.11-0.318,0.273-0.749,0.477-1.226c0.202-0.479,0.459-0.992,0.729-1.519
			c0.147-0.256,0.266-0.534,0.429-0.787c0.134-0.269,0.297-0.522,0.44-0.785c0.3-0.512,0.601-1.024,0.883-1.505
			c0.14-0.242,0.301-0.474,0.42-0.707c0.129-0.228,0.294-0.457,0.395-0.651c0.114-0.2,0.249-0.395,0.368-0.579
			c0.09-0.204,0.193-0.388,0.274-0.536C754.621,156.837,754.75,156.667,754.75,156.667z"/>
		<path fill="#442513" d="M725.062,193.446c-0.704-2.813-1.022-5.603-1.002-8.285c0.753-0.641,1.589-1.176,2.509-1.588
			c7.238-3.229,16.8,2.428,21.355,12.639c2.771,6.215,3.037,12.676,1.195,17.517C739.039,215.644,728.396,206.765,725.062,193.446z"
			/>
		<path fill="#8C4F23" d="M759.485,143.613c0,0-0.451-0.259-1.221-0.738c-0.389-0.223-0.86-0.493-1.401-0.803
			c-0.546-0.293-1.163-0.623-1.835-0.983c-0.695-0.318-1.418-0.709-2.212-1.059c-0.789-0.364-1.629-0.718-2.504-1.064
			c-0.859-0.387-1.803-0.632-2.718-0.989c-0.944-0.263-1.888-0.598-2.863-0.774c-0.959-0.264-1.935-0.404-2.896-0.55
			c-0.479-0.083-0.959-0.076-1.432-0.134c-0.473-0.039-0.942-0.101-1.4-0.07c-0.46,0.005-0.911,0.025-1.357,0.017
			c-0.445,0.004-0.869,0.087-1.292,0.125c-0.852,0.058-1.622,0.265-2.352,0.426c-0.745,0.124-1.358,0.435-1.949,0.614
			c-0.594,0.181-1.073,0.422-1.468,0.629c-0.802,0.395-1.284,0.614-1.284,0.614s0.373-0.349,1.069-0.949
			c0.177-0.15,0.371-0.315,0.583-0.496c0.213-0.183,0.486-0.308,0.757-0.482c0.56-0.309,1.158-0.77,1.92-1.016
			c0.741-0.298,1.549-0.652,2.459-0.809c0.45-0.093,0.911-0.234,1.391-0.294c0.479-0.059,0.974-0.091,1.476-0.138
			c0.504-0.065,1.013-0.036,1.53-0.03c0.515,0.018,1.046-0.008,1.564,0.075c1.043,0.134,2.105,0.261,3.137,0.523
			c1.046,0.217,2.038,0.591,3.035,0.896c0.967,0.383,1.923,0.754,2.8,1.207c0.898,0.409,1.721,0.893,2.493,1.358
			c0.785,0.441,1.465,0.963,2.114,1.4c1.259,0.933,2.241,1.814,2.886,2.452C759.14,143.224,759.485,143.613,759.485,143.613z"/>
		<path fill="#8C4F23" d="M648.955,152.3c0,0-0.035-0.363-0.064-0.994c-0.023-0.313-0.002-0.702,0.028-1.151
			c0.013-0.455,0.095-0.953,0.194-1.5c0.098-0.547,0.262-1.136,0.481-1.746c0.125-0.302,0.253-0.613,0.384-0.93
			c0.142-0.315,0.345-0.611,0.524-0.926c0.17-0.322,0.422-0.602,0.651-0.904l0.358-0.448l0.43-0.396
			c0.554-0.556,1.252-0.982,1.958-1.347c0.369-0.153,0.735-0.319,1.108-0.45c0.384-0.089,0.767-0.177,1.146-0.265
			c0.378-0.101,0.76-0.077,1.134-0.107c0.374-0.019,0.742-0.047,1.097,0.002c0.713,0.05,1.397,0.121,2.014,0.303
			c0.627,0.141,1.209,0.295,1.715,0.522c0.514,0.201,0.981,0.385,1.379,0.583c0.394,0.207,0.728,0.406,1.002,0.565
			c0.547,0.324,0.847,0.524,0.847,0.524s-0.366-0.045-0.985-0.152c-0.309-0.056-0.683-0.118-1.101-0.21
			c-0.423-0.059-0.9-0.125-1.421-0.197c-0.512-0.097-1.072-0.112-1.652-0.159c-0.582-0.075-1.188-0.018-1.805-0.019
			c-0.313-0.016-0.617,0.044-0.925,0.092c-0.304,0.064-0.628,0.06-0.923,0.156c-0.3,0.084-0.599,0.173-0.903,0.246
			c-0.29,0.109-0.568,0.248-0.855,0.365c-0.3,0.095-0.533,0.311-0.805,0.455c-0.273,0.144-0.506,0.348-0.742,0.545
			c-0.244,0.186-0.476,0.388-0.677,0.621c-0.208,0.225-0.44,0.425-0.605,0.683c-0.181,0.246-0.359,0.487-0.533,0.724
			c-0.158,0.254-0.313,0.503-0.463,0.746c-0.266,0.506-0.536,0.993-0.741,1.465c-0.191,0.477-0.407,0.911-0.539,1.311
			c-0.138,0.399-0.298,0.745-0.383,1.051C649.086,151.959,648.955,152.3,648.955,152.3z"/>
		<path fill="#8C4F23" d="M704.533,217.146c0,0-1.06-0.621-2.473-1.691c-0.716-0.524-1.523-1.156-2.381-1.812
			c-0.859-0.651-1.775-1.328-2.695-1.877c-0.914-0.543-1.864-0.91-2.494-0.761c-0.316,0.073-0.634,0.261-0.912,0.563
			c-0.276,0.295-0.515,0.662-0.716,1.021c-0.396,0.729-0.66,1.423-0.862,1.903c-0.187,0.486-0.313,0.77-0.313,0.77
			s-0.042-0.301-0.08-0.835c-0.01-0.266-0.018-0.592,0.002-0.967c0.027-0.375,0.063-0.804,0.176-1.27
			c0.107-0.467,0.259-0.986,0.589-1.506c0.305-0.516,0.817-1.086,1.562-1.353c0.732-0.274,1.539-0.26,2.214-0.077
			c0.687,0.17,1.288,0.468,1.85,0.787c1.108,0.661,2.032,1.476,2.838,2.277c0.807,0.801,1.483,1.604,2.026,2.321
			C703.96,216.064,704.533,217.146,704.533,217.146z"/>
		<path fill="#82161B" d="M717.8,228.563c2.317,16.765-29.737,36.069-38.565,1.696c-1.801-7.013,3.478-6.421,10.7-3.613
			C702.51,231.537,716.399,218.438,717.8,228.563z"/>
		<path fill="#140A03" d="M727.108,172.636c0,0,0.063-0.208,0.183-0.597c0.103-0.39,0.329-0.955,0.697-1.652
			c0.388-0.67,0.896-1.489,1.653-2.282c0.724-0.829,1.676-1.639,2.806-2.395c1.124-0.773,2.462-1.429,3.947-1.945
			c1.48-0.525,3.128-0.892,4.862-0.968c1.728-0.083,3.553,0.01,5.337,0.471c1.781,0.464,3.516,1.203,5.119,2.154
			c1.599,0.972,2.977,2.229,4.237,3.523c0.581,0.688,1.207,1.337,1.678,2.081c0.251,0.359,0.5,0.717,0.747,1.072
			c0.231,0.363,0.438,0.737,0.654,1.101c0.442,0.723,0.826,1.456,1.15,2.197c0.359,0.726,0.641,1.462,0.906,2.179
			c0.281,0.711,0.537,1.405,0.72,2.099c0.187,0.69,0.408,1.344,0.542,1.991c0.289,1.288,0.553,2.464,0.672,3.525
			c0.153,1.055,0.276,1.971,0.31,2.735c0.097,1.523,0.123,2.389,0.123,2.389s-0.276-0.831-0.709-2.276
			c-0.192-0.728-0.521-1.586-0.84-2.578c-0.303-0.997-0.766-2.079-1.196-3.273c-0.215-0.598-0.517-1.188-0.784-1.814
			c-0.135-0.312-0.271-0.628-0.411-0.95c-0.157-0.313-0.316-0.629-0.479-0.951c-0.316-0.645-0.646-1.303-1.047-1.936
			c-0.194-0.32-0.383-0.646-0.568-0.979c-0.192-0.328-0.42-0.636-0.63-0.958c-0.815-1.314-1.883-2.482-2.94-3.659
			c-1.127-1.105-2.337-2.165-3.705-2.963c-1.344-0.832-2.791-1.484-4.286-1.909c-1.501-0.398-3.028-0.633-4.526-0.636
			c-1.494-0.002-2.958,0.141-4.31,0.476c-1.345,0.341-2.62,0.746-3.723,1.292c-1.096,0.548-2.091,1.116-2.881,1.746
			c-0.812,0.608-1.443,1.235-1.941,1.782c-0.457,0.562-0.842,1.018-1.037,1.38C727.224,172.451,727.108,172.636,727.108,172.636z"/>
		<path fill="#140A03" d="M670.006,176.759c0,0-0.132-0.098-0.379-0.279c-0.242-0.186-0.604-0.467-1.064-0.778
			c-0.448-0.326-1.032-0.677-1.687-1.068c-0.67-0.369-1.43-0.764-2.282-1.094c-1.688-0.676-3.791-1.121-5.82-0.764
			c-1.011,0.178-1.977,0.565-2.828,1.161c-0.849,0.598-1.588,1.397-2.182,2.338c-0.597,0.943-1.028,2.022-1.395,3.12
			c-0.327,1.116-0.599,2.254-0.753,3.394c-0.169,1.133-0.291,2.255-0.347,3.329c-0.048,0.536-0.047,1.061-0.061,1.571
			c-0.015,0.51-0.054,1.005-0.038,1.481c0.017,0.951-0.009,1.834,0.024,2.615c0.027,0.781,0.015,1.473,0.05,2.037
			c0.044,1.134,0.035,1.795,0.035,1.795s-0.248-0.605-0.623-1.689c-0.196-0.54-0.396-1.206-0.599-1.979
			c-0.228-0.769-0.42-1.651-0.604-2.623c-0.176-0.974-0.359-2.037-0.426-3.181c-0.095-1.141-0.145-2.36-0.06-3.63
			c0.029-0.636,0.09-1.282,0.201-1.938c0.073-0.658,0.241-1.319,0.401-1.986c0.363-1.329,0.886-2.667,1.656-3.917
			c0.794-1.231,1.842-2.364,3.116-3.162c1.264-0.811,2.72-1.263,4.107-1.368c1.394-0.121,2.712,0.106,3.874,0.456
			c1.174,0.334,2.188,0.859,3.051,1.415c0.882,0.529,1.585,1.15,2.184,1.705c0.593,0.562,1.059,1.095,1.417,1.559
			c0.378,0.443,0.6,0.832,0.774,1.085C669.918,176.621,670.006,176.759,670.006,176.759z"/>
		<path fill="#140A03" d="M642.319,182.376c0,0,0.187,0.054,0.462,0.179c0.135,0.064,0.307,0.137,0.473,0.24
			c0.181,0.068,0.375,0.102,0.544,0.157c0.152,0.06,0.369,0.092,0.558,0.141c0.178,0.065,0.389,0.077,0.577,0.118
			c0.179,0.057,0.402,0.041,0.589,0.094c0.203,0.021,0.413,0.05,0.625,0.076c0.859,0.093,1.869,0.201,2.742,0.359
			c0.435,0.079,0.828,0.17,1.116,0.242s0.474,0.132,0.474,0.132s-0.078,0.18-0.264,0.427c-0.183,0.255-0.476,0.568-0.876,0.879
			c-0.403,0.298-0.917,0.584-1.525,0.759c-0.301,0.093-0.626,0.164-0.967,0.186c-0.335,0.055-0.697,0.01-1.051-0.005
			c-0.356-0.061-0.72-0.128-1.063-0.258c-0.343-0.149-0.68-0.273-0.964-0.507c-0.291-0.209-0.555-0.423-0.75-0.691
			c-0.202-0.256-0.378-0.487-0.491-0.775c-0.118-0.268-0.201-0.521-0.241-0.726c-0.02-0.194-0.01-0.382-0.009-0.532
			C642.286,182.567,642.319,182.376,642.319,182.376z"/>
		<path fill="#140A03" d="M644.191,168.331c0,0,0.173,0.144,0.417,0.411c0.116,0.143,0.308,0.239,0.452,0.371
			c0.144,0.118,0.389,0.262,0.573,0.41c0.822,0.552,1.92,1.289,3.017,2.025c1.092,0.742,2.162,1.564,3,2.24
			c0.211,0.157,0.402,0.349,0.581,0.48c0.18,0.127,0.337,0.289,0.474,0.386c0.273,0.207,0.448,0.364,0.448,0.364
			s-0.188,0.105-0.55,0.224c-0.356,0.11-0.886,0.201-1.51,0.193c-0.622-0.012-1.333-0.128-2.048-0.369
			c-0.719-0.235-1.436-0.603-2.102-1.053c-0.654-0.471-1.263-1.012-1.734-1.635c-0.482-0.603-0.824-1.284-1.018-1.899
			c-0.085-0.33-0.15-0.591-0.17-0.891c-0.023-0.28-0.03-0.525,0.013-0.696C644.113,168.541,644.191,168.331,644.191,168.331z"/>
		<path fill="#140A03" d="M654.491,160.308c0,0,0.021,0.051,0.062,0.147c0.039,0.09,0.082,0.247,0.16,0.401
			c0.155,0.288,0.376,0.699,0.641,1.192c0.516,0.977,1.082,2.275,1.544,3.6c0.458,1.325,0.786,2.685,1.011,3.743
			c0.067,0.252,0.1,0.525,0.155,0.738c0.064,0.207,0.093,0.43,0.142,0.591c0.102,0.318,0.164,0.555,0.164,0.555
			s-0.212-0.016-0.592-0.139c-0.359-0.132-0.849-0.402-1.338-0.815c-0.481-0.414-0.963-0.963-1.37-1.6
			c-0.197-0.319-0.405-0.654-0.561-1.01c-0.179-0.35-0.315-0.721-0.449-1.092c-0.516-1.492-0.645-3.107-0.422-4.346
			c0.043-0.304,0.136-0.597,0.214-0.843c0.061-0.237,0.194-0.5,0.274-0.659c0.078-0.171,0.203-0.264,0.259-0.347
			C654.454,160.348,654.491,160.308,654.491,160.308z"/>
		<path fill="#512E17" d="M649.942,137.167c-7.577-11.413,22.65-55.729,42.713-50.111c7.758-10.433,15.336-10.609,19.615-5.526
			c5.35-10.167,16.05-12.306,24.343-3.745c8.56-10.434,23.54-2.408,23.54,4.012c9.362-8.293,18.724,2.675,19.527,9.094
			c9.629-4.012,11.234,9.363,11.502,14.98c12.572-2.674,13.643,11.235,12.84,16.051c8.56-4.815,13.375,13.375,10.165,17.119
			c5.885,1.07,4.191,19.172,4.191,19.172c-6.956,0.804-21.044,17.209-21.044,17.209c-2.14-4.281-6.42-9.897-4.815-16.051
			c-5.617-5.082-8.024-12.305-8.024-14.178c-4.548-1.068-12.573-5.885-12.037-10.432c-2.14,1.338-12.305-4.814-11.503-9.898
			c-5.35,4.548-16.317-4.814-14.713-10.164c-8.024,4.014-21.667,2.941-23.807-4.547c-8.025,7.488-22.737,8.561-21.667,3.477
			c-5.618,10.166-12.573-2.139-17.655,5.35c-5.618-1.338-12.305-0.266-16.585,6.688
			C658.235,125.665,649.942,137.167,649.942,137.167z"/>
		<path opacity="0.4" fill="#A87C69" d="M833.834,163.685c6.567,29.361-13.08,48.031-31.684,35.008c0,0-11.771,24.344-28.088,39.323
			c-52.114,43.35-115.127,22.089-132.399,1.052c0.574,1.232,1.216,2.513,1.949,3.852c17.61,32.193,121.351,42.596,159.875-39.41
			C830.331,221.336,845.243,179.202,833.834,163.685z"/>
		<path fill="#382011" d="M792.52,159.37c0,0,0.458-0.2,1.269-0.519c0.415-0.138,0.878-0.391,1.41-0.64
			c0.535-0.234,1.116-0.559,1.75-0.917c0.644-0.329,1.29-0.784,1.995-1.212c0.698-0.439,1.388-0.982,2.125-1.491
			c0.709-0.558,1.444-1.124,2.155-1.748c0.736-0.593,1.425-1.263,2.12-1.925c0.685-0.671,1.379-1.338,2.004-2.047
			c0.311-0.356,0.627-0.704,0.946-1.041c0.298-0.356,0.591-0.708,0.88-1.053c0.592-0.684,1.084-1.402,1.607-2.049
			c0.448-0.691,0.941-1.313,1.317-1.933c0.367-0.623,0.763-1.173,1.027-1.702c0.268-0.526,0.571-0.966,0.731-1.361
			c0.366-0.777,0.598-1.228,0.598-1.228s-0.066,0.489-0.222,1.357c-0.062,0.441-0.235,0.941-0.404,1.534
			c-0.154,0.601-0.43,1.233-0.716,1.937c-0.278,0.708-0.675,1.424-1.073,2.199c-0.459,0.732-0.882,1.559-1.461,2.308
			c-0.544,0.777-1.123,1.569-1.786,2.313c-0.642,0.761-1.353,1.483-2.062,2.205c-0.75,0.681-1.492,1.369-2.284,1.977
			c-0.755,0.651-1.603,1.16-2.38,1.702c-0.809,0.5-1.603,0.962-2.389,1.339c-0.786,0.376-1.527,0.728-2.256,0.959
			c-0.357,0.125-0.699,0.246-1.024,0.36c-0.334,0.097-0.663,0.165-0.962,0.241c-0.602,0.149-1.12,0.269-1.554,0.3
			C793.018,159.333,792.52,159.37,792.52,159.37z"/>
		<path fill="#382011" d="M784.495,145.595c0,0,0.423-0.29,1.178-0.768c0.373-0.241,0.851-0.511,1.337-0.879
			c0.492-0.366,1.059-0.738,1.652-1.188c0.576-0.481,1.226-0.957,1.873-1.51c0.627-0.58,1.328-1.135,1.979-1.797
			c0.332-0.322,0.669-0.65,1.01-0.981c0.324-0.348,0.652-0.701,0.983-1.056c0.689-0.684,1.287-1.472,1.93-2.217
			c0.597-0.782,1.249-1.527,1.778-2.34c0.279-0.397,0.556-0.791,0.829-1.181c0.257-0.4,0.511-0.795,0.761-1.185
			c0.481-0.788,0.938-1.56,1.343-2.305c0.384-0.755,0.769-1.465,1.058-2.147c0.326-0.673,0.543-1.314,0.772-1.88
			c0.206-0.57,0.337-1.082,0.479-1.503c0.19-0.866,0.3-1.361,0.3-1.361s0.011,0.127,0.03,0.365c0.012,0.238,0.066,0.595,0.064,1.049
			c-0.035,0.446-0.029,1.007-0.13,1.631c-0.108,0.62-0.198,1.34-0.432,2.082c-0.184,0.762-0.461,1.558-0.786,2.392
			c-0.333,0.827-0.705,1.697-1.169,2.552c-0.463,0.856-0.938,1.748-1.526,2.584c-0.541,0.87-1.204,1.673-1.82,2.509
			c-0.695,0.772-1.346,1.585-2.088,2.291c-0.7,0.747-1.473,1.396-2.222,2.018c-0.717,0.658-1.534,1.147-2.25,1.671
			c-0.729,0.509-1.486,0.894-2.152,1.285c-0.68,0.375-1.354,0.642-1.923,0.903c-0.566,0.28-1.09,0.413-1.513,0.558
			C784.989,145.457,784.495,145.595,784.495,145.595z"/>
		<path fill="#382011" d="M772.458,134.761c0,0,0.389-0.406,1.089-1.091c0.351-0.34,0.776-0.753,1.265-1.227
			c0.47-0.487,0.997-1.034,1.584-1.609c0.565-0.602,1.177-1.253,1.824-1.943c0.648-0.686,1.268-1.468,1.966-2.218
			c0.647-0.794,1.316-1.615,1.996-2.449c0.651-0.854,1.337-1.704,1.938-2.613c0.657-0.871,1.241-1.789,1.825-2.688
			c0.539-0.922,1.137-1.797,1.604-2.702c0.241-0.449,0.479-0.89,0.713-1.321c0.216-0.44,0.427-0.871,0.632-1.29
			c0.222-0.415,0.366-0.843,0.548-1.244c0.173-0.404,0.36-0.791,0.483-1.177c0.281-0.766,0.531-1.473,0.694-2.117
			c0.207-0.639,0.277-1.211,0.387-1.685c0.093-0.474,0.1-0.853,0.137-1.114c0.026-0.263,0.041-0.403,0.041-0.403
			s0.023,0.138,0.067,0.396c0.028,0.258,0.146,0.646,0.152,1.141c-0.002,0.491,0.067,1.11-0.029,1.795
			c-0.036,0.345-0.061,0.718-0.112,1.105c-0.075,0.383-0.153,0.785-0.235,1.205c-0.175,0.838-0.425,1.733-0.748,2.657
			c-0.169,0.46-0.342,0.933-0.519,1.416c-0.188,0.478-0.424,0.946-0.642,1.434c-0.212,0.491-0.463,0.971-0.721,1.454
			s-0.502,0.985-0.804,1.456c-0.589,0.95-1.177,1.922-1.844,2.839c-0.647,0.933-1.375,1.802-2.07,2.673
			c-0.706,0.862-1.479,1.644-2.198,2.419c-0.756,0.742-1.485,1.46-2.22,2.093c-0.737,0.631-1.431,1.226-2.106,1.736
			c-0.679,0.51-1.313,0.958-1.872,1.352c-0.557,0.396-1.079,0.681-1.493,0.941C772.949,134.487,772.458,134.761,772.458,134.761z"/>
		<path fill="#382011" d="M761.135,123.794c0,0,1.269-1.948,3.371-4.696c0.528-0.687,0.978-1.5,1.539-2.299
			c0.542-0.813,1.104-1.672,1.715-2.536c0.608-0.867,1.111-1.863,1.721-2.798c0.575-0.96,1.227-1.895,1.756-2.902
			c0.558-0.991,1.115-1.982,1.664-2.958c0.565-0.968,1.054-1.955,1.546-2.902c0.466-0.959,1.016-1.844,1.411-2.739
			c0.413-0.888,0.828-1.719,1.215-2.487c0.373-0.773,0.674-1.497,0.977-2.129c0.289-0.637,0.563-1.188,0.738-1.656
			c0.385-0.929,0.626-1.464,0.626-1.464s-0.075,0.571-0.244,1.577c-0.074,0.508-0.214,1.108-0.396,1.792
			c-0.183,0.683-0.354,1.471-0.63,2.296c-0.272,0.826-0.572,1.723-0.914,2.663c-0.312,0.954-0.762,1.905-1.193,2.907
			c-0.455,0.989-0.85,2.053-1.427,3.043c-0.542,1.009-1.093,2.035-1.643,3.06c-0.563,1.019-1.249,1.965-1.857,2.935
			c-0.633,0.957-1.237,1.903-1.909,2.771c-0.674,0.868-1.356,1.683-1.993,2.457c-0.644,0.767-1.223,1.524-1.843,2.126
			C762.905,122.288,761.135,123.794,761.135,123.794z"/>
		<path fill="#382011" d="M746.332,113.808c0,0,0.237-0.508,0.653-1.397c0.179-0.447,0.396-0.99,0.645-1.612
			c0.231-0.632,0.494-1.346,0.779-2.125c0.548-1.567,1.187-3.395,1.87-5.354c0.344-0.979,0.699-1.992,1.061-3.021
			c0.368-1.027,0.742-2.071,1.117-3.115c0.391-1.039,0.781-2.079,1.165-3.102c0.374-1.027,0.796-2.021,1.176-2.991
			c0.78-1.936,1.551-3.729,2.277-5.245c0.353-0.761,0.697-1.45,1.025-2.053c0.306-0.609,0.617-1.125,0.88-1.544
			c0.239-0.427,0.494-0.734,0.657-0.94c0.162-0.206,0.248-0.316,0.248-0.316s-0.054,0.13-0.156,0.374
			c-0.105,0.24-0.244,0.588-0.391,1.056c-0.322,0.911-0.702,2.249-1.192,3.838c-0.479,1.594-1.046,3.453-1.693,5.432
			c-0.332,0.988-0.643,2.019-1.016,3.048c-0.364,1.033-0.734,2.082-1.104,3.131c-0.397,1.041-0.796,2.081-1.187,3.105
			c-0.385,1.027-0.828,2.015-1.23,2.981c-0.392,0.969-0.844,1.881-1.243,2.754c-0.402,0.874-0.835,1.68-1.219,2.426
			c-0.4,0.743-0.795,1.409-1.143,1.999c-0.375,0.588-0.719,1.083-0.994,1.489C746.705,113.388,746.332,113.808,746.332,113.808z"/>
		<path fill="#382011" d="M722.436,109.526c0,0-0.043-0.581-0.088-1.595c-0.016-0.506-0.034-1.122-0.056-1.827
			c-0.029-0.704,0.065-1.508,0.124-2.386c0.068-0.878,0.119-1.843,0.33-2.826c0.2-0.985,0.295-2.059,0.63-3.11
			c0.146-0.532,0.295-1.073,0.445-1.62l0.23-0.826l0.302-0.811c0.408-1.085,0.802-2.198,1.321-3.258
			c0.257-0.531,0.502-1.067,0.773-1.587c0.287-0.512,0.574-1.022,0.858-1.527l0.426-0.754l0.479-0.712
			c0.317-0.471,0.631-0.936,0.939-1.394c0.67-0.877,1.297-1.739,1.982-2.483c0.646-0.774,1.316-1.454,1.945-2.067
			c1.259-1.225,2.396-2.144,3.22-2.742c0.402-0.311,0.742-0.524,0.961-0.685s0.336-0.247,0.336-0.247s-0.362,0.461-1.026,1.224
			c-0.668,0.759-1.582,1.869-2.634,3.215c-0.519,0.681-1.069,1.422-1.626,2.222c-0.586,0.779-1.091,1.678-1.696,2.545
			c-0.524,0.921-1.118,1.84-1.625,2.827c-0.262,0.489-0.525,0.981-0.79,1.476c-0.25,0.502-0.47,1.022-0.709,1.531
			c-0.519,1.001-0.913,2.057-1.325,3.087c-0.442,1.02-0.739,2.073-1.099,3.07c-0.187,0.498-0.325,1-0.457,1.493
			c-0.139,0.493-0.274,0.974-0.406,1.443c-0.288,0.938-0.464,1.834-0.651,2.666c-0.163,0.836-0.399,1.588-0.498,2.29
			c-0.119,0.695-0.224,1.302-0.309,1.801C722.559,108.958,722.436,109.526,722.436,109.526z"/>
		<path fill="#382011" d="M701.215,112.915c0,0-0.068-0.548-0.155-1.507c-0.036-0.479-0.081-1.062-0.133-1.729
			c-0.009-0.672-0.009-1.436,0.012-2.271c-0.009-0.841,0.08-1.736,0.181-2.686c0.074-0.954,0.223-1.951,0.427-2.975
			c0.168-1.031,0.428-2.08,0.712-3.14c0.277-1.062,0.659-2.112,1.001-3.173c0.429-1.03,0.813-2.079,1.297-3.063
			c0.437-1.008,0.979-1.943,1.478-2.858c0.514-0.906,1.048-1.762,1.588-2.547c0.523-0.797,1.063-1.518,1.572-2.172
			c1.013-1.312,1.934-2.338,2.583-3.047c0.655-0.706,1.03-1.109,1.03-1.109s-0.24,0.499-0.707,1.342
			c-0.471,0.833-1.143,2.022-1.949,3.449c-0.387,0.714-0.806,1.487-1.249,2.306c-0.44,0.816-0.855,1.701-1.31,2.599
			c-0.438,0.907-0.855,1.859-1.273,2.827c-0.447,0.956-0.789,1.972-1.185,2.966c-0.347,1.01-0.738,2.01-1.024,3.024
			c-0.28,1.015-0.638,1.995-0.849,2.979c-0.242,0.976-0.507,1.916-0.673,2.827c-0.181,0.907-0.399,1.763-0.511,2.56
			c-0.127,0.797-0.271,1.529-0.39,2.185c-0.09,0.664-0.168,1.242-0.232,1.718C701.314,112.371,701.215,112.915,701.215,112.915z"/>
		<path fill="#382011" d="M683.113,118.978c0,0-0.004-0.537,0.021-1.471c0.024-0.466,0.01-1.035,0.088-1.682
			c0.071-0.648,0.151-1.382,0.265-2.183c0.094-0.808,0.23-1.67,0.424-2.565c0.179-0.901,0.358-1.856,0.583-2.834
			c0.254-0.969,0.496-1.977,0.789-2.989c0.277-1.016,0.579-2.042,0.927-3.055c0.354-1.01,0.709-2.021,1.059-3.015
			c0.361-0.991,0.816-1.931,1.203-2.857c0.404-0.921,0.769-1.818,1.234-2.624c0.433-0.818,0.863-1.579,1.263-2.278
			c0.199-0.349,0.391-0.683,0.572-1.001c0.207-0.306,0.421-0.586,0.612-0.853c0.383-0.535,0.733-0.988,1.017-1.361
			c0.572-0.743,0.911-1.151,0.911-1.151s-0.201,0.506-0.573,1.361c-0.189,0.422-0.421,0.936-0.686,1.523
			c-0.133,0.292-0.284,0.596-0.425,0.927c-0.127,0.339-0.261,0.694-0.4,1.066c-0.278,0.742-0.582,1.541-0.927,2.373
			c-0.363,0.822-0.613,1.754-0.964,2.673c-0.332,0.928-0.674,1.886-1.022,2.859c-0.321,0.984-0.649,1.984-0.977,2.984
			c-0.363,0.987-0.682,1.991-0.977,2.984c-0.297,0.993-0.642,1.956-0.943,2.897c-0.533,1.896-1.162,3.655-1.58,5.165
			c-0.216,0.757-0.437,1.451-0.632,2.068c-0.191,0.618-0.318,1.175-0.449,1.624C683.275,118.465,683.113,118.978,683.113,118.978z"
			/>
		<path fill="#382011" d="M665.905,125.22c0,0-0.036-0.565-0.1-1.556c-0.057-0.984-0.112-2.402-0.082-4.103
			c0.026-0.85,0.042-1.775,0.131-2.748c0.081-0.974,0.156-2.005,0.332-3.062c0.138-1.06,0.341-2.151,0.575-3.253
			c0.263-1.096,0.543-2.211,0.879-3.311c0.383-1.087,0.735-2.183,1.22-3.217c0.229-0.521,0.436-1.045,0.703-1.537
			c0.274-0.488,0.544-0.97,0.811-1.444c0.48-0.974,1.198-1.776,1.756-2.594c0.596-0.796,1.299-1.446,1.881-2.081
			c0.617-0.608,1.284-1.063,1.823-1.502c0.523-0.464,1.102-0.71,1.53-0.963c0.88-0.479,1.38-0.729,1.38-0.729
			s-0.419,0.398-1.147,1.051c-0.357,0.335-0.832,0.683-1.259,1.217c-0.435,0.521-0.973,1.051-1.477,1.698
			c-0.46,0.689-1.021,1.374-1.513,2.171c-0.234,0.406-0.476,0.823-0.722,1.249c-0.125,0.211-0.251,0.424-0.378,0.64
			c-0.108,0.227-0.219,0.456-0.329,0.687c-0.222,0.46-0.447,0.928-0.675,1.401c-0.217,0.479-0.39,0.987-0.604,1.48
			c-0.438,0.981-0.748,2.037-1.095,3.076c-0.343,1.042-0.634,2.105-0.908,3.154c-0.233,1.061-0.538,2.088-0.723,3.112
			c-0.448,2.029-0.758,3.955-1.054,5.608c-0.273,1.666-0.502,3.054-0.661,4.025C666.031,124.666,665.905,125.22,665.905,125.22z"/>
		<path opacity="0.4" fill="#301C0E" d="M814.188,139.04c3.21-3.744-1.605-21.935-10.165-17.119
			c0.803-4.815-0.268-18.725-12.84-16.051c-0.268-5.617-1.873-18.992-11.502-14.98c-0.804-6.419-10.165-17.387-19.527-9.094
			c0-6.42-14.98-14.445-23.54-4.012c-8.293-8.561-18.993-6.422-24.343,3.745c-4.279-5.083-11.857-4.906-19.615,5.526
			c-20.063-5.617-50.29,38.698-42.713,50.111c0,0,8.293-11.502,16.586-11.502c4.28-6.953,10.967-8.025,16.585-6.688
			c5.082-7.488,12.037,4.816,17.655-5.35c-1.07,5.084,13.642,4.012,21.667-3.477c2.14,7.488,15.782,8.561,23.807,4.547
			c-1.604,5.35,9.363,14.712,14.713,10.164c-0.802,5.084,9.363,11.236,11.503,9.898c-0.536,4.547,7.489,9.363,12.037,10.432
			c0,1.873,2.407,9.096,8.024,14.178c-1.604,6.153,2.676,11.77,4.815,16.051c0,0,14.088-16.405,21.044-17.209
			C818.379,158.212,820.072,140.11,814.188,139.04z M808.57,137.346c-3.03,7.311-10.166,10.745-13.91,2.364
			c-3.389,3.389-11.012-2.586-13.509-12.038c-4.102,5.528-13.774-1.918-16.271-11.013c-3.566,5.528-13.375-2.495-15.158-9.273
			c-6.955,9.986-23.408,1.294-26.082-7.267c-3.567,6.956-18.681,10.255-21.534,4.013c-2.498,5.172-15.248,10.032-16.719,3.611
			c-8.694,11.102-18.636,8.516-17.388,3.344c0,0-3.478,9.096-9.362,12.305c-8.737,3.211-4.28-10.744,6.42-20.731
			c2.318-2.495,7.892-9.228,10.032-6.019c1.96-4.279,14.712-8.516,16.317-3.344c5.707-6.775,14.801-10.389,17.119-6.82
			c8.56-12.84,17.52-11.681,22.737-3.611c12.661-11.414,24.831-2.987,26.215,3.211c9.987-11.059,18.28,3.832,19.172,12.927
			c9.274-10.521,11.592,9.274,12.305,14.089c4.638-8.381,14.268,6.775,12.127,14.623
			C805.361,122.188,811.603,130.035,808.57,137.346z"/>
		<path fill="#8C4F23" d="M827.295,170.874c-0.421-0.207-0.825-0.461-1.259-0.63c-0.442-0.146-0.833-0.358-1.292-0.434
			c-0.444-0.103-0.875-0.23-1.329-0.254l-0.666-0.076l-0.669,0.009c-0.443-0.024-0.882,0.046-1.316,0.106
			c-0.438,0.027-0.852,0.197-1.271,0.294c-0.422,0.097-0.806,0.312-1.207,0.457c-0.386,0.185-0.74,0.429-1.11,0.634l-0.989,0.794
			c-0.284,0.314-0.583,0.611-0.857,0.93l-0.712,1.048c-0.182,0.387-0.366,0.77-0.563,1.146c-0.165,0.393-0.279,0.812-0.425,1.215
			c-0.167,0.396-0.193,0.845-0.293,1.266c-0.091,0.425-0.173,0.852-0.182,1.297l-0.119,1.316l-1.181-0.992l0.295-0.031l0.209-0.001
			c0.142-0.001,0.248,0.012,0.369,0.02c0.232,0.021,0.453,0.045,0.669,0.079c0.437,0.063,0.855,0.151,1.276,0.246
			c0.837,0.192,1.654,0.462,2.452,0.799c0.797,0.337,1.578,0.742,2.308,1.268c0.368,0.255,0.71,0.563,1.025,0.904
			c0.321,0.334,0.6,0.724,0.833,1.143c0.118,0.208,0.2,0.442,0.296,0.662c0.066,0.234,0.136,0.469,0.18,0.706
			c0.071,0.481,0.061,0.965-0.019,1.424c-0.077,0.463-0.23,0.889-0.396,1.303c-0.198,0.395-0.391,0.788-0.648,1.131
			c-0.48,0.712-1.05,1.328-1.65,1.899c-0.314,0.271-0.617,0.551-0.937,0.81l-0.986,0.735c0.535-0.621,1.05-1.249,1.535-1.891
			c0.456-0.66,0.92-1.31,1.238-2.017c0.179-0.346,0.299-0.703,0.427-1.053c0.092-0.358,0.171-0.712,0.184-1.061
			c0.018-0.348-0.03-0.682-0.105-1c-0.045-0.158-0.109-0.31-0.162-0.463c-0.087-0.143-0.148-0.293-0.244-0.43
			c-0.191-0.273-0.409-0.533-0.675-0.763c-0.257-0.235-0.549-0.442-0.857-0.637c-0.612-0.393-1.301-0.707-2.015-0.965
			c-0.716-0.256-1.46-0.453-2.207-0.622c-0.374-0.076-0.751-0.149-1.121-0.195c-0.186-0.026-0.369-0.043-0.542-0.055
			c-0.082-0.004-0.178-0.013-0.239-0.009l-0.096,0.001c-0.003,0.003-0.005,0.002-0.009-0.001l-1.181-0.992l0.104-1.479
			c0.022-0.493,0.122-0.982,0.233-1.472c0.121-0.485,0.169-0.984,0.367-1.455c0.176-0.475,0.323-0.958,0.527-1.421
			c0.233-0.454,0.479-0.902,0.728-1.346l0.932-1.224c0.353-0.372,0.735-0.719,1.104-1.073c0.41-0.308,0.837-0.597,1.266-0.871
			c0.464-0.215,0.913-0.46,1.387-0.637c0.489-0.136,0.958-0.335,1.457-0.408c0.5-0.06,0.989-0.182,1.491-0.157
			c0.498-0.008,0.992-0.021,1.482,0.063l0.729,0.1l0.711,0.194c0.477,0.107,0.925,0.305,1.366,0.502
			c0.45,0.166,0.851,0.482,1.262,0.714C826.6,170.24,826.931,170.576,827.295,170.874z"/>
		<path fill="#BA363B" d="M687.896,245.806c10.272,8.418,24.701,0.449,28.857-9.818
			C702.706,232.129,691.757,239.649,687.896,245.806z"/>
		<path fill="#FFFFFF" d="M689.935,226.646c-1.785-0.692-3.449-1.251-4.92-1.592c1.864,5.166,13.918,12.537,26.354-0.197
			C705.851,225.884,697.647,229.646,689.935,226.646z"/>
	</g>
	<g>
		<path fill="#F8BE9B" d="M541.963,319.603c-1.07,11.056-0.713,34.954-0.713,34.954s-18.547-1.428-19.617-2.854
			c-1.07-1.424,0.714-28.889,0.714-28.889"/>
		<path fill="#F8BE9B" d="M541.963,319.603c-1.07,11.056-0.713,34.954-0.713,34.954s-18.547-1.428-19.617-2.854
			c-1.07-1.424,0.714-28.889,0.714-28.889"/>
		<path fill="#DEF0F4" d="M506.029,257.009c31.029,4.813,44.492,33.703,36.646,66.873c-11.592,7.67-24.609,3.21-24.609,3.21
			S515.391,285.095,506.029,257.009z"/>
		<path fill="#95D0CD" d="M413.475,235.608c13.374-0.536,40.659,1.604,72.491,10.432c31.833,8.828,46.277,44.405,37.718,79.18
			c-8.56,34.775-14.445,45.475-14.445,45.475l-122.782-27.285L413.475,235.608z"/>
		<g>
			<circle fill="#DEF0F4" cx="446.968" cy="262.347" r="4.993"/>
			<circle fill="#DEF0F4" cx="466.879" cy="321.787" r="4.993"/>
			<circle fill="#DEF0F4" cx="436.392" cy="298.695" r="4.993"/>
			<circle fill="#DEF0F4" cx="440.331" cy="242.533" r="4.993"/>
			<circle fill="#DEF0F4" cx="460.242" cy="301.973" r="4.993"/>
			<circle fill="#DEF0F4" cx="453.605" cy="282.159" r="4.994"/>
			<circle fill="#DEF0F4" cx="449.666" cy="338.32" r="4.993"/>
			<circle fill="#DEF0F4" cx="443.028" cy="318.509" r="4.994"/>
			<circle fill="#DEF0F4" cx="425.815" cy="335.044" r="4.993"/>
			<path fill="#DEF0F4" d="M409.28,346.632c-1.392-0.191-2.722,0.216-3.748,1.017l7.516,1.67
				C412.331,347.913,410.965,346.864,409.28,346.632z"/>
			<path fill="#DEF0F4" d="M433.132,349.909c-2.18-0.299-4.203,0.867-5.131,2.732l9.427,2.096
				C437.371,352.33,435.594,350.247,433.132,349.909z"/>
			<circle fill="#DEF0F4" cx="429.754" cy="278.882" r="4.994"/>
			<path fill="#DEF0F4" d="M523.892,287.165c-1.895,0.496-3.398,2.087-3.682,4.147c-0.374,2.731,1.534,5.251,4.268,5.626
				c0.393,0.054,0.779,0.047,1.157,0.012C525.268,293.61,524.69,290.338,523.892,287.165z"/>
			<path fill="#DEF0F4" d="M456.982,353.187c-2.732-0.374-5.252,1.535-5.627,4.268c-0.018,0.126-0.006,0.25-0.014,0.375l9.593,2.131
				c0.144-0.363,0.259-0.742,0.313-1.146C461.624,356.083,459.715,353.562,456.982,353.187z"/>
			<path fill="#DEF0F4" d="M517.84,277.126c0.887,0.121,1.741-0.018,2.518-0.326c-1.334-3.058-2.882-5.979-4.659-8.721
				c-1.116,0.77-1.927,1.973-2.125,3.42C513.197,274.231,515.107,276.75,517.84,277.126z"/>
			<path fill="#DEF0F4" d="M483.086,248.408c-0.376,2.733,1.534,5.252,4.267,5.628c2.731,0.375,5.251-1.535,5.626-4.268
				c0.057-0.413,0.045-0.818,0.003-1.215c-2.237-0.981-4.569-1.836-7.016-2.514c-0.507-0.141-1.009-0.275-1.514-0.411
				C483.738,246.364,483.235,247.315,483.086,248.408z"/>
			<circle fill="#DEF0F4" cx="412.54" cy="295.417" r="4.993"/>
			<circle fill="#DEF0F4" cx="497.367" cy="344.877" r="4.993"/>
			<path fill="#DEF0F4" d="M394.647,316.899c2.731,0.376,5.25-1.533,5.626-4.267c0.376-2.731-1.534-5.251-4.266-5.626
				c-0.145-0.02-0.282-0.009-0.424-0.015l-2.371,9.459C393.659,316.661,394.133,316.829,394.647,316.899z"/>
			<circle fill="#DEF0F4" cx="401.964" cy="331.767" r="4.994"/>
			<circle fill="#DEF0F4" cx="470.819" cy="265.624" r="4.993"/>
			<circle fill="#DEF0F4" cx="423.117" cy="259.07" r="4.993"/>
			<circle fill="#DEF0F4" cx="419.177" cy="315.23" r="4.993"/>
			<circle fill="#DEF0F4" cx="514.581" cy="328.341" r="4.993"/>
			<path fill="#DEF0F4" d="M485.1,362.091c0.376-2.731-1.534-5.252-4.266-5.626c-2.734-0.376-5.252,1.535-5.627,4.265
				c-0.119,0.869,0.014,1.709,0.31,2.472l8.081,1.796C484.381,364.245,484.941,363.251,485.1,362.091z"/>
			<circle fill="#DEF0F4" cx="507.942" cy="308.526" r="4.993"/>
			<path fill="#DEF0F4" d="M405.224,280.552c2.732,0.375,5.25-1.534,5.626-4.268c0.376-2.73-1.534-5.251-4.266-5.625
				c-0.663-0.093-1.313-0.043-1.923,0.113l-2.132,8.506C403.252,279.944,404.176,280.408,405.224,280.552z"/>
			<path fill="#DEF0F4" d="M459.234,245.132c-0.376,2.732,1.534,5.25,4.267,5.626c2.733,0.376,5.251-1.534,5.626-4.267
				c0.315-2.29-0.987-4.412-3.022-5.268c-0.628-0.131-1.25-0.256-1.872-0.381C461.753,240.815,459.58,242.611,459.234,245.132z"/>
			<circle fill="#DEF0F4" cx="473.517" cy="341.598" r="4.993"/>
			<circle fill="#DEF0F4" cx="484.093" cy="305.25" r="4.993"/>
			<path fill="#DEF0F4" d="M482.401,286.117c0.376-2.731-1.534-5.251-4.266-5.626c-2.733-0.377-5.252,1.535-5.627,4.266
				c-0.375,2.734,1.535,5.251,4.268,5.627C479.508,290.76,482.027,288.849,482.401,286.117z"/>
			<circle fill="#DEF0F4" cx="490.73" cy="325.063" r="4.993"/>
			<circle fill="#DEF0F4" cx="501.306" cy="288.714" r="4.993"/>
			<path fill="#DEF0F4" d="M493.99,273.849c2.731,0.375,5.25-1.535,5.626-4.268c0.374-2.73-1.535-5.25-4.266-5.627
				c-2.734-0.374-5.253,1.536-5.628,4.268C489.347,270.955,491.256,273.474,493.99,273.849z"/>
		</g>
		<path opacity="0.3" fill="#4D9C98" d="M509.24,329.731c1.167,0.408,2.335,0.811,3.494,1.241c2.878,1.073,5.79,2.154,8.669,3.313
			c0.724-2.811,1.481-5.82,2.28-9.066c8.56-34.774-5.885-70.352-37.718-79.18c-31.832-8.827-59.117-10.968-72.491-10.432
			l-1.112,4.436l22.512,26.059c3.744-14.713,35.589,5.266,49.755,5.886C516.538,273.386,510.321,309.052,509.24,329.731z"/>
		<path opacity="0.3" fill="#4D9C98" d="M422.83,351.493c-0.055-0.621-0.138-1.262-0.261-1.931
			c-2.942-17.388,9.896-52.162,10.967-78.378l-29.959,8.293c-0.204,0.355-0.796,1.12-1.635,2.143l-15.486,61.789L422.83,351.493z"/>
		<path fill="#DEF0F4" d="M502.283,255.136l-61.715-18.094c-1.563-0.184-3.086-0.35-4.568-0.496
			c8.025,22.85,29.607,51.047,59.954,31.52C502.106,263.784,502.283,255.136,502.283,255.136z"/>
		<path fill="#974018" d="M396.621,156.16c-4.814,55.372-33.437,63.933-58.849,56.443c30.227-16.586-27.82-67.945-22.738-131.074
			c5.083-63.13,52.162-95.229,110.745-75.971c35.845,0.803,58.314,42.8,39.589,73.83L396.621,156.16z"/>
		<path fill="#822D05" d="M463.136,26.386c-3.206,8.241-21.396,14.305-30.49,9.312c0,0,8.024-7.668,5.171-16.407
			c0,0-1.784,11.414-14.445,12.484c1.605-1.605-89.879-27.02-73.217,137.128c-3.248-12.528-26.145-34.274-33.701-60.143
			c8.782,50.364,47.063,89.718,21.319,103.844c25.412,7.489,54.034-1.071,58.849-56.443l68.747-76.771
			C475.791,62.118,473.44,41.458,463.136,26.386z"/>
		<path fill="#F8B133" d="M411.602,66.014c-8.828-11.771-6.42-19.795,9.897-24.075c16.317-4.279,13.375,13.107,13.375,13.107
			C427.919,62.269,414.544,68.421,411.602,66.014z"/>
		<path fill="#E89015" d="M424.219,41.399c4.504,2.145,5.35,3.938,5.93,5.532c0.714,1.962-6.42,7.312-10.699,6.063
			c-4.123-1.203-7.312-4.814-5.313-8.43c-9.446,4.613-9.8,11.762-2.535,21.448c2.942,2.407,16.317-3.745,23.272-10.968
			C434.874,55.046,437.471,39.679,424.219,41.399z"/>
		<path fill="#F8BE9B" d="M446.645,239.354c-1.07,11.771,30.762,44.136,50.289,17.119
			C480.349,240.69,452.797,239.085,446.645,239.354z"/>
		<path opacity="0.4" fill="#BF794E" d="M446.645,239.354c-1.07,11.771,30.762,44.136,50.289,17.119
			C480.349,240.69,452.797,239.085,446.645,239.354z"/>
		<path fill="#974018" d="M378.966,161.601c-12.482-20.33-13.554-73.473,34.953-103.074c7.491,93.445-8.917,110.209-8.917,110.209
			S385.028,171.229,378.966,161.601z"/>
		<path fill="#F8BE9B" d="M525.914,83.133c33.526,9.987,38.521,64.558,35.667,91.308c-1.428,11.77,26.393,14.268,13.196,48.508
			c-13.196,34.239-119.484,67.406-165.138-19.619c-41.641,39.769-67.32-72.313-14.622-45.651
			C415.704,102.394,493.1,69.58,525.914,83.133z"/>
		<path fill="#FFFFFF" d="M562.367,173.931c-2.17,12.738-9.794,22.096-17.026,20.904c-7.233-1.192-11.337-12.48-9.166-25.219
			c2.169-12.733,9.793-22.092,17.024-20.9C560.432,149.907,564.538,161.198,562.367,173.931z"/>
		<path fill="#408A86" d="M557.615,186.975c-0.416-10.784-5.501-19.312-11.729-19.312c-4.39,0-8.21,4.24-10.233,10.512
			c0.448,8.889,4.141,15.746,9.688,16.66C549.723,195.556,554.245,192.402,557.615,186.975z"/>
		
			<ellipse transform="matrix(0.9937 0.1124 -0.1124 0.9937 24.0849 -52.1559)" fill="#FFFFFF" cx="474.552" cy="187.503" rx="19.26" ry="25.547"/>
		<path fill="#974018" d="M379.77,120.583c0.268-47.614,35.197-73.616,81.052-73.295c114.489,0.803,104.593,44.138,93.357,64.735
			c0,0-14.177-22.202-30.228-29.157c6.955,29.96-47.614,51.092-85.333,43.066c-25.679,14.713-21.667,54.57-27.284,59.385
			c-3.744,2.676-14.979-13.642-15.515-24.876C390.202,151.881,379.77,149.206,379.77,120.583z"/>
		<path fill="#42210B" d="M442.273,177.296c0,0,0.258,0.103,0.663,0.322c0.203,0.104,0.459,0.188,0.708,0.314
			c0.269,0.107,0.573,0.228,0.904,0.359c0.657,0.247,1.403,0.499,2.19,0.734c0.797,0.215,1.629,0.422,2.473,0.566
			c0.422,0.058,0.844,0.147,1.264,0.178c0.21,0.015,0.419,0.045,0.627,0.071c0.207,0.008,0.412,0.013,0.617,0.034
			c0.411,0.05,0.806,0.013,1.197,0.045c0.395-0.003,0.77-0.007,1.114-0.01c0.349-0.021,0.681-0.036,0.983-0.042
			c0.305-0.004,0.563-0.044,0.791-0.053c0.448-0.031,0.734-0.024,0.734-0.024s-0.155,0.221-0.479,0.563
			c-0.166,0.161-0.352,0.403-0.619,0.58c-0.258,0.195-0.555,0.427-0.902,0.64c-0.355,0.184-0.75,0.393-1.188,0.563
			c-0.443,0.134-0.917,0.325-1.428,0.391c-0.508,0.098-1.041,0.161-1.585,0.148c-0.546,0.032-1.095-0.065-1.642-0.129
			c-0.54-0.119-1.082-0.229-1.586-0.433c-0.517-0.164-0.988-0.423-1.44-0.661c-0.889-0.52-1.621-1.15-2.151-1.771
			c-0.518-0.623-0.866-1.248-1.037-1.683C442.333,177.566,442.273,177.296,442.273,177.296z"/>
		<path fill="#42210B" d="M449.765,164.991c0,0,0.178,0.188,0.428,0.53c0.113,0.183,0.305,0.354,0.467,0.553
			c0.158,0.194,0.378,0.402,0.595,0.635c0.427,0.463,0.949,0.955,1.492,1.467c0.285,0.248,0.559,0.513,0.86,0.763
			c0.286,0.262,0.6,0.503,0.898,0.759c0.312,0.236,0.609,0.5,0.924,0.72c0.158,0.11,0.308,0.233,0.459,0.35
			c0.155,0.105,0.312,0.208,0.459,0.323c0.301,0.22,0.604,0.404,0.891,0.605c0.295,0.162,0.571,0.379,0.844,0.509
			c0.271,0.148,0.527,0.316,0.766,0.418c0.239,0.103,0.458,0.245,0.645,0.303c0.373,0.147,0.617,0.266,0.617,0.266
			s-0.201,0.142-0.606,0.331c-0.204,0.105-0.457,0.178-0.759,0.244c-0.307,0.086-0.651,0.123-1.035,0.137
			c-0.393,0.033-0.789-0.033-1.231-0.08c-0.421-0.087-0.88-0.183-1.318-0.353c-0.443-0.162-0.894-0.355-1.313-0.611
			c-0.443-0.224-0.828-0.544-1.232-0.835c-0.369-0.335-0.754-0.653-1.064-1.035c-0.336-0.355-0.611-0.758-0.867-1.148
			c-0.492-0.798-0.83-1.618-0.978-2.364c-0.08-0.367-0.124-0.711-0.126-1.038c-0.02-0.314-0.01-0.582,0.037-0.786
			C449.688,165.237,449.765,164.991,449.765,164.991z"/>
		<path fill="#42210B" d="M459.396,157.144c0,0,0.15,0.152,0.354,0.426c0.101,0.136,0.227,0.305,0.343,0.495
			c0.143,0.167,0.302,0.342,0.441,0.525c0.126,0.179,0.32,0.384,0.477,0.593c0.149,0.215,0.34,0.423,0.512,0.645
			c0.342,0.439,0.708,0.907,1.073,1.375c0.177,0.241,0.372,0.471,0.54,0.72c0.195,0.229,0.35,0.49,0.529,0.724
			c0.337,0.486,0.659,0.962,0.923,1.41c0.265,0.446,0.483,0.852,0.634,1.152c0.152,0.3,0.235,0.497,0.235,0.497
			s-0.214,0.031-0.56,0.004c-0.35-0.021-0.829-0.102-1.373-0.278c-0.537-0.184-1.139-0.464-1.71-0.873
			c-0.578-0.4-1.126-0.928-1.597-1.528c-0.213-0.321-0.455-0.615-0.617-0.966c-0.176-0.338-0.341-0.673-0.441-1.031
			c-0.116-0.348-0.209-0.688-0.243-1.03c-0.039-0.341-0.079-0.641-0.053-0.964c0.014-0.311,0.058-0.589,0.098-0.824
			c0.054-0.22,0.141-0.41,0.2-0.569C459.288,157.329,459.396,157.144,459.396,157.144z"/>
		<path fill="#408A86" d="M493.69,189.668c0.326-2.882,0.272-5.688-0.104-8.345c-0.831-0.535-1.73-0.955-2.696-1.24
			c-7.603-2.243-16.331,4.631-19.495,15.352c-1.925,6.528-1.333,12.967,1.134,17.52C482.773,213.519,492.147,203.311,493.69,189.668
			z"/>
		<path fill="#42210B" d="M454.848,186.3c0,0,0.009-0.186,0.026-0.534c0.02-0.347,0.043-0.855,0.137-1.506
			c0.084-0.651,0.194-1.438,0.398-2.327c0.188-0.893,0.43-1.898,0.782-2.967c0.327-1.079,0.749-2.228,1.261-3.419
			c0.533-1.18,1.094-2.437,1.837-3.654c0.724-1.225,1.504-2.488,2.466-3.66c0.936-1.188,1.99-2.33,3.162-3.371
			c1.178-1.028,2.473-1.963,3.893-2.657c1.406-0.708,2.912-1.219,4.422-1.424c1.501-0.211,2.992-0.204,4.334,0.092
			c0.682,0.086,1.307,0.326,1.92,0.493c0.596,0.222,1.151,0.479,1.686,0.707c0.504,0.28,0.988,0.549,1.449,0.805
			c0.426,0.301,0.83,0.586,1.209,0.854c0.75,0.538,1.318,1.113,1.813,1.536c0.911,0.948,1.395,1.505,1.395,1.505
			s-0.661-0.363-1.752-1.026c-0.577-0.283-1.248-0.667-2.045-1.029c-0.399-0.171-0.824-0.354-1.273-0.545
			c-0.454-0.158-0.932-0.324-1.43-0.497c-0.51-0.121-1.032-0.265-1.576-0.37c-0.552-0.053-1.102-0.219-1.685-0.21
			c-1.153-0.118-2.358,0.055-3.563,0.285c-1.215,0.235-2.389,0.793-3.545,1.401c-1.151,0.628-2.255,1.428-3.277,2.34
			c-1.046,0.884-2.018,1.883-2.896,2.945c-0.882,1.055-1.735,2.127-2.477,3.234c-0.752,1.097-1.438,2.195-2.071,3.251
			c-0.598,1.076-1.182,2.092-1.666,3.062c-0.488,0.967-0.923,1.866-1.285,2.676c-0.36,0.809-0.674,1.525-0.908,2.117
			c-0.236,0.593-0.433,1.068-0.545,1.397C454.915,186.127,454.848,186.3,454.848,186.3z"/>
		<path fill="#974018" d="M449.319,140.245c0,0,0.291-0.432,0.824-1.164c0.555-0.718,1.412-1.721,2.535-2.813
			c0.586-0.519,1.191-1.126,1.911-1.667c0.703-0.564,1.454-1.152,2.291-1.676c0.81-0.565,1.708-1.059,2.616-1.566
			c0.947-0.434,1.881-0.937,2.889-1.29c0.987-0.396,2.023-0.664,3.04-0.934c0.503-0.151,1.032-0.196,1.541-0.282
			c0.513-0.075,1.013-0.171,1.521-0.173c0.504-0.02,0.998-0.053,1.48-0.059c0.484-0.003,0.959,0.075,1.418,0.108
			c0.923,0.035,1.771,0.278,2.545,0.476c0.787,0.143,1.441,0.521,2.037,0.753c0.291,0.137,0.578,0.225,0.813,0.378
			c0.234,0.15,0.449,0.289,0.645,0.414c0.77,0.502,1.186,0.799,1.186,0.799s-0.508-0.153-1.354-0.439
			c-0.42-0.153-0.927-0.328-1.539-0.429c-0.609-0.1-1.258-0.326-2.013-0.351c-0.745-0.063-1.536-0.166-2.388-0.111
			c-0.424,0.02-0.855-0.007-1.297,0.048c-0.441,0.067-0.891,0.108-1.348,0.163c-0.458,0.03-0.915,0.154-1.379,0.254
			c-0.461,0.12-0.936,0.177-1.401,0.322c-0.933,0.272-1.882,0.54-2.798,0.929c-0.943,0.304-1.834,0.761-2.735,1.146
			c-0.86,0.475-1.763,0.842-2.563,1.34c-0.82,0.459-1.607,0.921-2.34,1.386c-0.742,0.452-1.406,0.935-2.053,1.342
			c-0.619,0.446-1.186,0.855-1.689,1.218c-0.494,0.379-0.927,0.709-1.282,0.981C449.732,139.928,449.319,140.245,449.319,140.245z"
			/>
		<path fill="#974018" d="M559.262,128.608c0,0-0.175-0.32-0.448-0.889c-0.125-0.292-0.329-0.614-0.519-0.992
			c-0.184-0.379-0.455-0.781-0.708-1.228c-0.266-0.441-0.598-0.887-0.929-1.354c-0.181-0.22-0.366-0.447-0.558-0.678
			c-0.203-0.211-0.412-0.428-0.624-0.647c-0.197-0.233-0.454-0.401-0.69-0.597c-0.23-0.205-0.486-0.374-0.753-0.526
			c-0.26-0.164-0.517-0.336-0.808-0.442c-0.289-0.107-0.549-0.29-0.857-0.344c-0.301-0.078-0.594-0.179-0.896-0.249
			c-0.312-0.032-0.619-0.08-0.928-0.124c-0.306-0.056-0.626-0.009-0.936-0.032c-0.312-0.006-0.621-0.025-0.929,0.031
			c-0.612,0.083-1.22,0.106-1.786,0.258c-0.569,0.123-1.123,0.211-1.617,0.376c-0.507,0.14-0.971,0.269-1.383,0.383
			c-0.402,0.147-0.765,0.258-1.063,0.354c-0.6,0.187-0.957,0.281-0.957,0.281s0.271-0.238,0.77-0.632
			c0.252-0.194,0.556-0.436,0.919-0.693c0.368-0.249,0.808-0.494,1.29-0.76c0.471-0.292,1.027-0.522,1.63-0.744
			c0.587-0.262,1.257-0.423,1.956-0.567c0.346-0.096,0.714-0.117,1.088-0.147c0.373-0.019,0.75-0.093,1.137-0.044
			c0.389,0.037,0.779,0.074,1.171,0.111c0.387,0.081,0.772,0.196,1.158,0.299c0.749,0.269,1.497,0.599,2.119,1.076l0.478,0.336
			l0.415,0.397c0.269,0.269,0.555,0.513,0.766,0.81c0.22,0.289,0.46,0.554,0.642,0.849c0.172,0.297,0.34,0.588,0.504,0.871
			c0.298,0.575,0.539,1.137,0.708,1.667c0.171,0.53,0.318,1.012,0.392,1.461c0.089,0.441,0.161,0.823,0.18,1.137
			C559.249,128.244,559.262,128.608,559.262,128.608z"/>
		<path fill="#BF794E" d="M514.5,213.318c0,0,0.425-1.147,1.323-2.703c0.443-0.783,1.008-1.669,1.702-2.569
			c0.692-0.901,1.5-1.831,2.511-2.633c0.514-0.391,1.071-0.766,1.729-1.025c0.644-0.271,1.442-0.392,2.204-0.217
			c0.773,0.166,1.357,0.663,1.728,1.133c0.396,0.472,0.614,0.967,0.783,1.415c0.175,0.447,0.266,0.867,0.343,1.235
			c0.068,0.368,0.104,0.692,0.131,0.958c0.032,0.534,0.03,0.838,0.03,0.838s-0.163-0.264-0.411-0.722
			c-0.265-0.449-0.617-1.103-1.107-1.771c-0.247-0.33-0.531-0.663-0.845-0.918c-0.316-0.264-0.656-0.407-0.979-0.438
			c-0.645-0.064-1.537,0.426-2.371,1.085c-0.84,0.665-1.658,1.458-2.424,2.217c-0.763,0.763-1.479,1.496-2.119,2.111
			C515.468,212.563,514.5,213.318,514.5,213.318z"/>
		<path fill="#BF794E" d="M499.163,224.729c0,0,0.131,0.192,0.378,0.553c0.237,0.37,0.639,0.865,1.141,1.494
			c0.517,0.621,1.167,1.353,1.964,2.139c0.784,0.798,1.744,1.619,2.803,2.484c1.077,0.846,2.301,1.679,3.63,2.485
			c1.347,0.779,2.827,1.476,4.396,2.057c1.569,0.591,3.267,0.936,4.985,1.094c1.722,0.146,3.485,0.039,5.182-0.38
			c1.697-0.417,3.316-1.12,4.82-1.991c1.447-0.963,2.879-1.944,4.057-3.161c0.635-0.557,1.168-1.198,1.726-1.796
			c0.573-0.583,1.048-1.233,1.538-1.843c0.504-0.601,0.934-1.232,1.354-1.842s0.859-1.179,1.203-1.776
			c0.723-1.174,1.411-2.241,1.937-3.238c0.546-0.984,1.048-1.836,1.397-2.568c0.752-1.444,1.182-2.271,1.182-2.271
			s-0.297,0.884-0.818,2.431c-0.25,0.779-0.625,1.697-1.074,2.747c-0.414,1.065-0.987,2.22-1.629,3.477
			c-0.299,0.641-0.696,1.262-1.074,1.925s-0.791,1.337-1.271,1.996c-0.47,0.666-0.921,1.373-1.485,2.026
			c-0.537,0.672-1.094,1.354-1.742,1.98c-0.314,0.321-0.633,0.646-0.953,0.972c-0.349,0.299-0.699,0.601-1.053,0.904
			c-0.68,0.641-1.504,1.129-2.282,1.683c-1.647,0.985-3.449,1.801-5.362,2.289c-1.922,0.45-3.914,0.545-5.83,0.357
			c-1.918-0.186-3.758-0.687-5.43-1.373c-3.363-1.36-6.088-3.376-8.15-5.319c-1.027-0.981-1.912-1.934-2.621-2.84
			c-0.731-0.885-1.283-1.724-1.72-2.418c-0.431-0.701-0.733-1.274-0.912-1.67C499.263,224.94,499.163,224.729,499.163,224.729z"/>
		<path fill="#42210B" d="M540.002,157.23c0,0,0.066-0.15,0.19-0.432c0.135-0.275,0.301-0.696,0.573-1.2
			c0.292-0.493,0.605-1.145,1.085-1.795c0.447-0.677,1.004-1.417,1.7-2.156c0.688-0.747,1.502-1.519,2.495-2.191
			c0.992-0.667,2.121-1.322,3.439-1.705c1.309-0.391,2.785-0.556,4.266-0.337c1.481,0.203,2.932,0.807,4.156,1.668
			c1.222,0.872,2.225,1.975,3,3.154c0.803,1.171,1.318,2.441,1.746,3.665c0.406,1.232,0.658,2.45,0.804,3.601
			c0.171,1.148,0.221,2.24,0.208,3.239c0.031,0.998-0.081,1.909-0.139,2.709c-0.098,0.8-0.197,1.492-0.303,2.057
			c-0.229,1.13-0.396,1.762-0.396,1.762s-0.095-0.657-0.201-1.784c-0.069-0.56-0.153-1.239-0.249-2.018
			c-0.135-0.771-0.238-1.641-0.429-2.568c-0.089-0.465-0.174-0.949-0.31-1.438c-0.123-0.49-0.214-1.002-0.377-1.51
			c-0.14-0.513-0.295-1.034-0.492-1.548c-0.177-0.524-0.387-1.039-0.605-1.559c-0.465-1.021-0.98-2.054-1.656-2.96
			c-0.67-0.907-1.439-1.732-2.329-2.35c-0.878-0.633-1.87-1.052-2.897-1.252c-1.031-0.195-2.099-0.165-3.135,0.038
			c-1.036,0.21-2.031,0.596-2.949,1.048c-0.457,0.236-0.895,0.483-1.308,0.752c-0.431,0.243-0.815,0.531-1.192,0.802
			c-0.74,0.559-1.416,1.104-1.984,1.628c-0.586,0.51-1.045,0.998-1.461,1.386C540.468,156.763,540.002,157.23,540.002,157.23z"/>
		<path fill="#42210B" d="M556.229,149.829c0,0,0.201-0.109,0.547-0.24c0.184-0.048,0.363-0.183,0.542-0.279
			c0.174-0.09,0.372-0.25,0.579-0.387c0.207-0.119,0.406-0.33,0.619-0.473c0.201-0.203,0.418-0.356,0.623-0.577
			c0.213-0.192,0.415-0.422,0.635-0.634c0.201-0.237,0.435-0.445,0.633-0.698c0.222-0.229,0.421-0.482,0.635-0.724
			c0.21-0.25,0.418-0.495,0.618-0.732c0.392-0.491,0.802-0.956,1.138-1.386c0.359-0.422,0.666-0.805,0.893-1.084
			c0.221-0.281,0.386-0.452,0.386-0.452s0.097,0.2,0.2,0.568c0.055,0.186,0.107,0.412,0.125,0.669
			c0.032,0.261,0.06,0.561,0.035,0.878c-0.036,1.283-0.617,2.961-1.793,4.261c-0.585,0.644-1.287,1.208-2.066,1.563
			c-0.368,0.2-0.792,0.302-1.16,0.409c-0.403,0.056-0.76,0.129-1.114,0.094c-0.347-0.017-0.653-0.058-0.943-0.154
			c-0.28-0.074-0.502-0.163-0.646-0.273C556.403,149.979,556.229,149.829,556.229,149.829z"/>
		<path fill="#42210B" d="M560.688,156.249c0,0,0.202-0.034,0.524-0.041c0.168,0.021,0.343-0.068,0.498-0.099
			c0.143-0.032,0.353-0.137,0.525-0.194c0.184-0.079,0.369-0.171,0.555-0.268c0.188-0.107,0.374-0.206,0.57-0.333
			c0.193-0.1,0.389-0.26,0.594-0.37c0.196-0.15,0.413-0.259,0.611-0.419c0.219-0.123,0.409-0.295,0.629-0.425
			c0.195-0.16,0.422-0.288,0.619-0.441c0.41-0.291,0.815-0.576,1.178-0.846c0.368-0.264,0.713-0.513,0.948-0.708
			c0.239-0.194,0.417-0.315,0.417-0.315s0.079,0.18,0.146,0.51c0.037,0.167,0.073,0.374,0.061,0.597
			c0,0.229,0.004,0.502-0.059,0.773c-0.186,1.114-0.974,2.493-2.255,3.336c-0.311,0.216-0.659,0.392-1.008,0.542
			c-0.365,0.132-0.718,0.259-1.101,0.3c-0.365,0.068-0.744,0.062-1.094,0.032c-0.352-0.041-0.686-0.126-0.971-0.243
			c-0.292-0.139-0.523-0.258-0.737-0.449c-0.204-0.167-0.364-0.323-0.425-0.467C560.759,156.44,560.688,156.249,560.688,156.249z"/>
		<path fill="#42210B" d="M562.115,163.562c0,0,0.179-0.041,0.458-0.061c0.144,0.005,0.309-0.047,0.449-0.083
			c0.139-0.035,0.302-0.098,0.474-0.149c0.33-0.098,0.669-0.239,1.008-0.367c0.171-0.067,0.341-0.132,0.517-0.2
			c0.175-0.066,0.352-0.132,0.529-0.199c0.361-0.126,0.719-0.265,1.092-0.377c0.17-0.074,0.373-0.115,0.543-0.184
			c0.182-0.06,0.367-0.114,0.533-0.179c0.358-0.111,0.682-0.241,0.93-0.345c0.242-0.108,0.423-0.175,0.423-0.175
			s0.064,0.163,0.103,0.458c0.021,0.15,0.032,0.331,0.003,0.525c-0.015,0.205-0.05,0.436-0.134,0.665
			c-0.072,0.241-0.188,0.478-0.334,0.719c-0.14,0.25-0.333,0.464-0.538,0.695c-0.222,0.201-0.452,0.427-0.729,0.583
			c-0.262,0.184-0.563,0.309-0.863,0.434c-0.313,0.096-0.623,0.197-0.95,0.223c-0.32,0.047-0.646,0.043-0.959,0.006
			c-0.626-0.073-1.198-0.294-1.612-0.607c-0.205-0.145-0.379-0.314-0.523-0.493c-0.148-0.16-0.236-0.318-0.276-0.448
			C562.154,163.74,562.115,163.562,562.115,163.562z"/>
		<path fill="#BF794E" d="M492.252,350.231c0,0-0.229-0.14-0.604-0.405c-0.184-0.137-0.415-0.307-0.68-0.438
			c-0.272-0.135-0.521-0.319-0.863-0.446c-0.327-0.146-0.673-0.292-1.05-0.388c-0.364-0.142-0.77-0.145-1.153-0.22
			c-0.191,0.001-0.387,0.002-0.584,0.003c-0.188,0.027-0.364,0.081-0.549,0.099c-0.18,0.036-0.32,0.141-0.49,0.184
			c-0.156,0.069-0.266,0.194-0.41,0.272c-0.123,0.106-0.207,0.25-0.328,0.361c-0.089,0.142-0.149,0.311-0.24,0.459
			c-0.086,0.153-0.091,0.362-0.158,0.538c-0.072,0.176-0.081,0.38-0.084,0.584c-0.013,0.205-0.024,0.406-0.036,0.604
			c0.016,0.208,0.031,0.411,0.046,0.609c0.014,0.4,0.08,0.788,0.148,1.151c0.08,0.357,0.086,0.713,0.178,1.007
			c0.08,0.296,0.131,0.566,0.179,0.789c0.089,0.447,0.127,0.719,0.127,0.719s-0.185-0.188-0.483-0.543
			c-0.147-0.179-0.332-0.396-0.523-0.659c-0.215-0.251-0.368-0.586-0.563-0.941c-0.095-0.181-0.194-0.369-0.298-0.564
			c-0.099-0.198-0.146-0.429-0.225-0.655c-0.072-0.231-0.146-0.469-0.221-0.712c-0.057-0.253-0.06-0.528-0.09-0.802
			c-0.029-0.275-0.051-0.557,0.004-0.861c0.048-0.301,0.045-0.608,0.17-0.911c0.13-0.3,0.233-0.619,0.416-0.902
			c0.215-0.266,0.419-0.556,0.676-0.783c0.285-0.191,0.564-0.418,0.871-0.551c0.312-0.11,0.631-0.24,0.944-0.289
			c0.313-0.033,0.63-0.067,0.932-0.059c0.293,0.041,0.583,0.08,0.868,0.12c0.539,0.147,1.055,0.318,1.47,0.59
			c0.21,0.13,0.431,0.226,0.606,0.375c0.172,0.15,0.338,0.294,0.496,0.433c0.33,0.249,0.551,0.602,0.762,0.856
			c0.225,0.257,0.335,0.509,0.438,0.715C492.15,349.983,492.252,350.231,492.252,350.231z"/>
		<path fill="#95D0CD" d="M525.2,320.673c0,0,0.336-0.029,0.918-0.048c0.293,0,0.641-0.046,1.033-0.054
			c0.391-0.009,0.842-0.066,1.321-0.083c0.479-0.039,0.999-0.081,1.548-0.125c0.546-0.072,1.12-0.116,1.707-0.198
			c0.294-0.038,0.592-0.077,0.895-0.117c0.299-0.058,0.6-0.112,0.905-0.157c0.61-0.095,1.218-0.235,1.826-0.365
			c1.211-0.282,2.383-0.651,3.456-1.072c0.502-0.26,1.043-0.441,1.486-0.719c0.455-0.264,0.898-0.504,1.264-0.79
			c0.393-0.258,0.723-0.531,1.004-0.794c0.297-0.252,0.557-0.479,0.731-0.7c0.384-0.418,0.629-0.664,0.629-0.664
			s-0.09,0.314-0.293,0.878c-0.089,0.289-0.245,0.616-0.472,0.967c-0.108,0.183-0.224,0.376-0.346,0.58
			c-0.135,0.194-0.307,0.372-0.472,0.574c-0.173,0.193-0.339,0.419-0.544,0.611c-0.213,0.185-0.434,0.375-0.66,0.571
			c-0.45,0.403-0.994,0.725-1.553,1.066c-0.582,0.281-1.17,0.632-1.817,0.838c-0.632,0.262-1.299,0.424-1.962,0.601
			c-0.67,0.133-1.341,0.278-2.008,0.336c-0.664,0.085-1.322,0.103-1.955,0.109c-0.633,0.037-1.244-0.042-1.82-0.067
			c-0.576-0.06-1.119-0.123-1.613-0.222c-0.988-0.173-1.811-0.421-2.355-0.613C525.509,320.809,525.2,320.673,525.2,320.673z"/>
		<path opacity="0.4" fill="#BF794E" d="M574.777,222.948c4.605-11.953,4.208-20.03,1.809-25.989
			c2.29,16.527-3.686,40.565-39.26,52.827c-48.418,16.316-101.382-1.606-127.33-52.698c-20.105,18.145-41.558-4.165-44.582-22.845
			c0.321,22.644,19.446,52.752,44.226,29.086C455.293,290.354,561.581,257.188,574.777,222.948z"/>
		<path fill="#BF794E" d="M376.827,173.815c0,0,0.002-0.123,0.006-0.354c-0.006-0.229,0.021-0.568,0.125-1.013
			c0.131-0.42,0.295-0.971,0.716-1.479c0.397-0.515,0.999-1.02,1.772-1.319c1.546-0.643,3.605-0.435,5.377,0.428
			c0.89,0.432,1.771,0.959,2.546,1.628c0.769,0.669,1.511,1.394,2.147,2.194c0.645,0.798,1.192,1.655,1.706,2.509
			c0.503,0.859,0.901,1.752,1.272,2.614c0.168,0.438,0.351,0.861,0.497,1.288c0.134,0.429,0.267,0.849,0.395,1.258
			c0.233,0.821,0.44,1.601,0.567,2.332c0.151,0.727,0.26,1.396,0.322,1.995c0.082,0.595,0.131,1.114,0.15,1.546
			c0.048,0.86,0.056,1.351,0.056,1.351s-0.175-0.464-0.446-1.272c-0.273-0.808-0.671-1.955-1.185-3.301
			c-0.245-0.677-0.567-1.387-0.87-2.145c-0.326-0.751-0.699-1.523-1.087-2.316c-0.395-0.791-0.866-1.567-1.329-2.358
			c-0.49-0.772-1.013-1.542-1.604-2.244c-0.555-0.736-1.197-1.387-1.853-1.989c-0.667-0.588-1.358-1.116-2.083-1.524
			c-0.725-0.402-1.461-0.722-2.188-0.87c-0.723-0.146-1.426-0.167-2.045-0.034c-0.619,0.138-1.152,0.41-1.564,0.752
			c-0.423,0.337-0.688,0.754-0.904,1.102c-0.176,0.356-0.328,0.661-0.386,0.887C376.866,173.699,376.827,173.815,376.827,173.815z"
			/>
		<path fill="#822D05" d="M559.987,96.368c-3.975-23.855-30.287-19.334-36.036-13.502c16.051,6.955,30.228,29.157,30.228,29.157
			C556.575,107.63,558.907,102.198,559.987,96.368z"/>
		<path fill="#822D05" d="M514.678,69.224c11.412,8.561,9.273,27.642-15.871,43.513c-25.146,15.871-69.549,3.212-78.645-1.604
			c0,0-0.357,9.986,11.946,13.018c-23.005,14.088-20.863,38.521-22.647,47.793c-1.355,7.041-8.871-0.103-13.039-7.385
			c2.464,10.68,11.606,23.122,14.912,20.76c5.617-4.814,1.605-44.672,27.284-59.385c37.719,8.025,92.288-13.106,85.333-43.066
			c0.506,0.219,1.011,0.453,1.513,0.701C523.231,75.862,519.274,69.978,514.678,69.224z"/>
	</g>
	<g>
		<rect y="351.8" fill="#F3E4C7" width="3604.141" height="168.481"/>
		<path fill="#D6C3A1" d="M340.469,351.8c-6.977,4.877-7.151,18.535,27.419,19.877c36.736,1.426,58.141,8.906,61.704,10.699
			c0.355,0.178-23.306,21.079-26.75,23.896c-3.924,3.211,12.839,8.561,48.506,9.273c35.666,0.713,304.234,4.279,355.238-8.917
			c0.714-6.063-47.477-40.797-42.087-39.946c74.632,11.77,140.169,8.204,152.297-11.056c0.864-1.374,1.658-2.642,2.397-3.827
			H340.469z"/>
	</g>
	<g>
		<path fill="#4D1114" d="M819.131,322.54c7.934,11.235,48.809-27.266,42.393-33.848C849.44,277.442,817.661,291.466,819.131,322.54
			z"/>
		<path fill="#E8AF92" d="M811.779,310.509c-4.279-16.854,8.195-54.445,29.862-41.338c21.668,13.107,57.007,51.021,61.257,85.521
			c-3.478,17.119-90.851,22.958-120.008,11.99c-10.7-3.211-24.878-0.803-27.554-3.478c-2.674-2.675,1.605-6.42,1.605-6.42
			c-8.024-1.337-2.14-7.892,4.013-8.56c-0.802-2.943,7.624-8.16,18.858-6.02c11.235,2.141,40.109-2.914,58.835-8.264
			C824.737,328.325,811.779,310.509,811.779,310.509z"/>
		<path opacity="0.4" fill="#A87C69" d="M782.891,366.683c-10.7-3.211-24.878-0.803-27.554-3.478
			c-2.674-2.675,1.605-6.42,1.605-6.42c-8.024-1.337-2.14-7.892,4.013-8.56c-0.176-0.645,0.114-1.398,0.757-2.16
			c1.435,0.51,2.964,1.125,4.604,1.877c-7,0.333-10,5.667-4,7.333c-9.333,5.666-1,2,26,6c27.333,7.666,102.333,5.667,106.334-10
			s-22.001-52.666-38.001-66l-3.512-7.829c20.871,17.111,46.205,48.37,49.762,77.246
			C899.421,371.812,812.048,377.65,782.891,366.683z"/>
		<path opacity="0.4" fill="#A87C69" d="M849.982,332.942c-2.741-0.783-6.968,0.021-11.418,0.917
			c-10.333-4.5-19.139-14.002-23.69-19.447c2.132-4.382,6.11-10.989,9.774-8.47C829.314,315.942,843.315,328.942,849.982,332.942z"
			/>
		<path fill="#A33B3F" d="M821.34,324.327c-12.579-6.846-33.611-54.039-9.797-66.538c16.855-8.847,52.029,28.581,53.48,30.153
			C854.607,280.744,817.398,311.192,821.34,324.327z"/>
		<path fill="#8C4F23" d="M837.981,334.026c0,0,0.362-0.164,1.003-0.42c0.321-0.125,0.71-0.282,1.161-0.438
			c0.453-0.154,0.947-0.367,1.524-0.505c0.574-0.147,1.201-0.308,1.871-0.448c0.669-0.156,1.378-0.316,2.12-0.373
			c0.739-0.079,1.505-0.189,2.287-0.249c0.784-0.005,1.582-0.011,2.379-0.017c0.799-0.018,1.591,0.104,2.372,0.177
			c0.782,0.064,1.544,0.189,2.271,0.353c0.731,0.145,1.435,0.3,2.092,0.477c0.654,0.191,1.265,0.396,1.826,0.588
			c1.132,0.348,2.016,0.814,2.646,1.092c0.624,0.297,0.973,0.483,0.973,0.483s-0.399-0.026-1.084-0.102
			c-0.688-0.061-1.643-0.244-2.8-0.355c-0.577-0.065-1.199-0.138-1.849-0.24c-0.655-0.074-1.35-0.107-2.058-0.199
			c-0.354-0.035-0.714-0.089-1.08-0.11c-0.367-0.011-0.737-0.027-1.11-0.053c-0.746-0.024-1.498-0.141-2.258-0.11
			c-0.758-0.016-1.516-0.03-2.262-0.046c-0.748,0.021-1.484,0.042-2.197,0.063c-0.717,0.008-1.404,0.039-2.056,0.095
			c-0.651,0.053-1.275,0.075-1.854,0.097c-0.578,0.026-1.119,0.101-1.595,0.129c-0.475,0.044-0.894,0.062-1.237,0.081
			C838.379,334.025,837.981,334.026,837.981,334.026z"/>
		<path fill="#8C4F23" d="M756.141,357.319c0,0,0.167-0.215,0.478-0.565c0.341-0.33,0.903-0.783,1.629-1.159
			c0.726-0.394,1.626-0.73,2.609-0.984c0.493-0.105,1.003-0.248,1.527-0.312c0.522-0.087,1.057-0.137,1.589-0.176
			c1.067-0.069,2.135-0.05,3.127,0.047c0.993,0.078,1.911,0.243,2.688,0.431c0.777,0.18,1.413,0.39,1.852,0.562
			c0.439,0.17,0.685,0.286,0.685,0.286s-0.27,0.051-0.732,0.108c-0.462,0.051-1.117,0.133-1.892,0.189
			c-0.776,0.071-1.673,0.123-2.627,0.185c-0.947,0.06-1.958,0.124-2.969,0.188c-1.007,0.057-2.001,0.143-2.938,0.222
			c-0.46,0.069-0.919,0.086-1.34,0.155c-0.425,0.063-0.827,0.122-1.198,0.178c-0.371,0.074-0.711,0.142-1.013,0.202
			c-0.298,0.079-0.559,0.148-0.773,0.205C756.402,357.242,756.141,357.319,756.141,357.319z"/>
		<path fill="#8C4F23" d="M760.955,348.226c0,0,0.166-0.149,0.469-0.38c0.149-0.118,0.331-0.257,0.586-0.357
			c0.246-0.117,0.534-0.254,0.862-0.373c0.613-0.204,1.358-0.425,2.144-0.542c0.394-0.063,0.807-0.137,1.219-0.166
			c0.414-0.042,0.835-0.063,1.256-0.089c1.683-0.062,3.356,0.063,4.611,0.305c1.255,0.213,2.096,0.532,2.096,0.532
			s-0.826,0.354-2.072,0.616c-1.245,0.292-2.905,0.482-4.557,0.545c-0.822,0.035-1.649,0.027-2.414,0.02
			c-0.777-0.031-1.476-0.029-2.104-0.092c-0.285,0.003-0.558-0.015-0.81-0.03c-0.249-0.022-0.486-0.017-0.676,0.001
			C761.181,348.232,760.955,348.226,760.955,348.226z"/>
		<path fill="#66171A" d="M815.438,315.856c0,0-0.031-0.229-0.09-0.658c-0.076-0.428-0.129-1.059-0.128-1.887
			c0.015-0.82,0.086-1.816,0.302-2.944c0.104-0.563,0.264-1.152,0.415-1.78c0.202-0.608,0.381-1.267,0.651-1.918
			c0.487-1.329,1.157-2.708,1.946-4.12c0.819-1.391,1.716-2.85,2.807-4.233c1.069-1.397,2.229-2.806,3.526-4.121
			c1.274-1.338,2.66-2.604,4.083-3.825c2.89-2.389,5.998-4.517,9.116-6.141c1.539-0.848,3.103-1.521,4.588-2.137
			c0.754-0.282,1.481-0.57,2.199-0.81c0.727-0.218,1.415-0.46,2.096-0.633c1.351-0.38,2.611-0.633,3.731-0.822
			c0.563-0.079,1.089-0.153,1.575-0.222c0.489-0.039,0.938-0.075,1.345-0.107c0.808-0.085,1.451-0.039,1.884-0.054
			c0.433-0.001,0.664-0.002,0.664-0.002s-0.229,0.038-0.656,0.11c-0.426,0.079-1.054,0.156-1.838,0.339
			c-0.393,0.086-0.826,0.181-1.298,0.284c-0.467,0.123-0.972,0.256-1.511,0.398c-1.069,0.311-2.263,0.695-3.543,1.168
			c-1.279,0.477-2.635,1.067-4.052,1.718c-1.401,0.689-2.862,1.444-4.328,2.308c-1.48,0.836-2.93,1.834-4.407,2.832
			c-1.457,1.03-2.901,2.127-4.281,3.302c-1.389,1.162-2.744,2.368-3.989,3.644c-1.257,1.263-2.455,2.545-3.526,3.859
			c-1.088,1.303-2.044,2.633-2.915,3.919c-0.827,1.311-1.587,2.571-2.166,3.797c-0.318,0.601-0.528,1.213-0.791,1.776
			c-0.209,0.578-0.426,1.127-0.587,1.654c-0.315,1.056-0.525,2.002-0.646,2.788c-0.048,0.396-0.09,0.749-0.127,1.057
			c-0.029,0.312-0.021,0.58-0.032,0.797C815.443,315.625,815.438,315.856,815.438,315.856z"/>
	</g>
	<g>
		<path fill="#68ABC7" d="M573.707,409.839c-8.56,1.426-133.037,6.063-154.437-0.356c-3.21-0.357,3.566-9.63,10.7-12.841
			c7.133-3.209,141.597-9.273,142.667-9.273c1.069,0,7.132,19.974,7.132,19.974"/>
		<path fill="#40829E" d="M419.809,405.421c23.502,6.092,149.25,1.324,157.71-0.086l1.045-1.886
			c-1.825-5.812-5.159-16.081-5.926-16.081c-1.07,0-135.534,6.064-142.667,9.273C425.831,398.504,421.826,402.401,419.809,405.421z"
			/>
		<path fill="#FFFFFF" d="M413.742,384.069l39.856-25.145c31.297,10.433,88.275-49.22,150.87-10.968
			c3.744,12.841,10.699,57.245,10.699,57.245c-28.89-20.329-93.09-25.948-127.864-17.655S419.895,393.165,413.742,384.069z"/>
		<path opacity="0.5" fill="#F5E1D8" d="M604.469,347.957c-3.305-2.019-6.592-3.751-9.862-5.249
			c3.869,12.476,1.304,29.258,0.232,36.546l1.604,16.052c0.018,0.107,0.117,0.257,0.281,0.438
			c7.019,2.693,13.299,5.838,18.443,9.459C615.168,405.202,608.213,360.798,604.469,347.957z"/>
		<path fill="#F5E1D8" d="M413.742,384.069c1.337,6.688,9.361,21.133,9.361,21.133c95.23,14.444,132.68-31.297,151.672,0.802
			c15.783,1.338,40.66,0.269,40.66,0.269c-4.012-33.705-41.729-52.162-112.082-31.03
			C433.002,396.374,413.742,384.069,413.742,384.069z"/>
		<path fill="#68ABC7" d="M628.276,409.125c0,0,132.322,8.204,158.716-5.348c2.497-2.141-11.771-9.989-11.771-9.989
			s-130.182-15.691-138.742-11.411s-19.616,23.182-19.616,23.182L628.276,409.125z"/>
		<path fill="#40829E" d="M636.479,382.377c-6.236,3.118-17.934,16.881-21.579,22.558l13.109-0.09c0,0,129,9.078,158.143-3.586
			c-2.999-3.105-10.931-7.471-10.931-7.471S645.04,378.097,636.479,382.377z"/>
		<path fill="#FFFFFF" d="M604.469,347.957c23.807-41.462,111.651,15.19,135.354,5.618c8.828,10.433,41.195,41.73,41.195,41.73
			c-8.827,12.572-87.205-0.536-113.688-10.433c-33.169-11.504-52.696,16.583-52.696,16.583
			C607.945,384.337,604.469,347.957,604.469,347.957z"/>
		<path opacity="0.5" fill="#F5E1D8" d="M604.469,347.957c0,0,3.477,36.38,10.165,53.499c0,0,7.405-10.629,20.825-16.131
			c1.531-2.297,3.149-4.686,4.854-7.141c0,0-19.781-25.668-22.443-42.314C612.384,338.279,607.799,342.157,604.469,347.957z"/>
		<path fill="#F5E1D8" d="M614.723,404.846c-3.211-19.527,13.553-33.616,38.163-31.477c24.609,2.141,92.822,39.056,128.132,21.937
			c-0.267,3.744-1.337,6.42-1.337,6.42c-22.738,17.387-143.915-34.775-158.628,3.477c-1.872,1.338-5.617,1.07-5.617,1.07"/>
		<path fill="#68ABC7" d="M569.961,405.737c5.617-0.268,52.43-1.605,57.512-1.605c3.479,2.942,1.07,5.351-1.337,5.617
			c-2.407,0.268-50.022,2.141-53.499,1.338C569.158,410.285,568.356,407.342,569.961,405.737z"/>
		<path fill="#40829E" d="M570.11,405.731c0.557,0.469,1.303,0.855,2.258,1.076c3.478,0.803,51.093-1.07,53.5-1.338
			c0.771-0.086,1.537-0.392,2.115-0.862c-0.156-0.157-0.321-0.314-0.511-0.476C622.432,404.132,576.328,405.449,570.11,405.731z"/>
	</g>
	<g>
		<path opacity="0.5" fill="#F5E1D8" d="M488.106,363.472c21.936-0.801,24.39-0.463,33.437-6.955
			c12.305-8.826,24.878-6.152,23.006-12.037c-0.272-0.854-7.267-2.053-16.961-4.678c-30.444,8.555-56.313,25.016-73.989,19.123
			l-9.192,5.799C455.371,367.39,470.558,364.114,488.106,363.472z"/>
		<path fill="#4D9C98" d="M411.869,307.03c-9.721,8.287-50.847-28.547-47.846-33.338C374.667,256.7,426.313,286.968,411.869,307.03z
			"/>
		<path fill="#F8BE9B" d="M367.732,270.919c-22.828,24.611-43.872,78.465-19.618,91.663c24.253,13.198,58.138,16.672,106.02-3.925
			c20.329-9.897,30.762-4.815,30.762-4.815c3.568,10.7,13.555,9.985,16.765,3.923c4.279,6.064,9.54,3.391,11.323-1.248
			c3.211,3.568,14.712,1.07,10.032-14.578c9.361,4.146,16.718,7.223,20.195,4.012c3.478-3.209-10.299-18.189-29.291-22.736
			c-18.992-4.548-22.871-3.611-46.945-1.471c-37.451,1.871-60.991,0.801-66.607,1.336c7.223-14.98,10.164-17.387,11.234-21.399
			S384.852,257.278,367.732,270.919z"/>
		<g>
			<path opacity="0.4" fill="#BF794E" d="M516.869,324.021c14.099,6.327,26.497,15.296,25.005,17.785
				c-3.611,4.279-16.986-6.153-21.802-1.605c3.879,5.617-0.668,12.171-7.624,4.146c2.676,6.82-3.344,14.311-10.566,4.814
				c-1.069,14.178-16.45,5.217-15.916-2.006c0,0-9.095-2.141-23.94-0.268c-39.456,12.84-61.793,16.451-92.822,11.102
				c-27.014-4.658-31.114-23.504-28.371-38.896c-5.687,18.928-5.273,36.656,7.282,43.489c24.253,13.198,58.138,16.672,106.02-3.925
				c20.329-9.897,30.762-4.815,30.762-4.815c3.568,10.7,13.555,9.985,16.765,3.923c4.279,6.064,9.54,3.391,11.323-1.248
				c3.211,3.568,14.712,1.07,10.032-14.578c9.361,4.146,16.718,7.223,20.195,4.012C546.505,342.911,534.311,329.311,516.869,324.021
				z"/>
			<path opacity="0.4" fill="#BF794E" d="M365.592,278.542c14.979-5.217,29.933,2.646,32.1,8.426
				c3.21,8.56,1.873,22.203-3.477,36.246l6.281-0.4c7.127-14.738,10.042-17.146,11.105-21.134
				c1.07-4.013-26.75-44.401-43.869-30.761c-2.632,2.838-5.236,6.065-7.754,9.569C361.814,279.673,363.76,279.18,365.592,278.542z"
				/>
		</g>
		<path fill="#DEF0F4" d="M363.732,274.026c6.917-16.417,42.791-50.459,65.523-35.744c18.868,12.214,2.676,55.105-17.654,69.016
			C412.806,288.038,380.853,267.784,363.732,274.026z"/>
		<path fill="#BF794E" d="M380.571,324.15c0,0,0.346-0.162,0.959-0.414c0.309-0.119,0.675-0.285,1.113-0.424
			c0.443-0.126,0.949-0.27,1.51-0.401c0.56-0.142,1.174-0.296,1.811-0.386c0.639-0.107,1.314-0.231,2.017-0.32
			c1.401-0.173,2.901-0.323,4.401-0.39c0.751-0.022,1.502-0.044,2.24-0.066c0.738-0.024,1.467,0.019,2.17,0.023
			c1.406,0.024,2.72,0.113,3.844,0.227c2.25,0.206,3.743,0.545,3.743,0.545s-0.374,0.086-1.026,0.204
			c-0.652,0.117-1.584,0.26-2.701,0.399c-1.116,0.146-2.418,0.271-3.811,0.386c-1.395,0.106-2.878,0.215-4.363,0.279
			c-0.741,0.03-1.483,0.062-2.213,0.092c-0.73,0.018-1.45,0.035-2.146,0.053c-1.381,0.065-2.701,0.038-3.787,0.084
			c-0.55,0.02-1.063,0.016-1.52,0.014c-0.461,0.026-0.861,0.049-1.192,0.067C380.955,324.151,380.571,324.15,380.571,324.15z"/>
		<path fill="#BF794E" d="M495.863,343.142c0,0,0.304,0.095,0.813,0.303c0.506,0.231,1.23,0.59,2,1.159
			c0.396,0.273,0.803,0.603,1.205,0.982c0.406,0.378,0.823,0.798,1.2,1.28c0.376,0.483,0.766,0.993,1.073,1.574
			c0.172,0.277,0.315,0.578,0.439,0.89c0.12,0.313,0.287,0.607,0.365,0.94l0.26,0.984c0.071,0.331,0.086,0.675,0.126,1.007
			l0.047,0.499l-0.034,0.498c-0.025,0.329-0.042,0.653-0.078,0.968c-0.154,0.617-0.254,1.229-0.506,1.746
			c-0.248,0.516-0.422,1.029-0.732,1.416c-0.275,0.405-0.545,0.76-0.781,1.067c-0.27,0.285-0.526,0.514-0.729,0.704
			c-0.411,0.375-0.654,0.569-0.654,0.569s0.115-0.305,0.332-0.803c0.11-0.242,0.245-0.536,0.399-0.873
			c0.113-0.354,0.238-0.747,0.394-1.156c0.087-0.202,0.145-0.423,0.18-0.656c0.052-0.226,0.105-0.458,0.162-0.697
			c0.132-0.471,0.089-0.992,0.184-1.497c-0.041-0.519,0.007-1.049-0.111-1.578c-0.049-0.266-0.078-0.533-0.136-0.799l-0.227-0.792
			c-0.052-0.271-0.194-0.519-0.286-0.779c-0.101-0.258-0.191-0.52-0.332-0.763c-0.123-0.25-0.246-0.498-0.367-0.743
			c-0.141-0.238-0.279-0.474-0.416-0.706c-0.296-0.45-0.578-0.901-0.879-1.308c-0.307-0.401-0.588-0.796-0.879-1.14
			c-0.566-0.702-1.077-1.263-1.438-1.666C496.079,343.371,495.863,343.142,495.863,343.142z"/>
		<path fill="#BF794E" d="M508.259,339.71c0,0,0.078,0.03,0.223,0.087c0.145,0.063,0.367,0.12,0.617,0.285
			c0.543,0.291,1.217,0.797,1.95,1.513c0.349,0.368,0.745,0.764,1.087,1.239c0.175,0.235,0.355,0.479,0.539,0.726
			c0.174,0.256,0.324,0.534,0.489,0.81c0.333,0.551,0.61,1.162,0.878,1.787c0.227,0.644,0.471,1.295,0.598,1.985
			c0.17,0.677,0.227,1.379,0.273,2.066c0.038,0.688-0.043,1.373-0.103,2.021c-0.134,0.644-0.218,1.274-0.444,1.831
			c-0.22,0.556-0.38,1.096-0.658,1.535c-0.255,0.448-0.507,0.845-0.729,1.188c-0.244,0.333-0.504,0.591-0.696,0.812
			c-0.398,0.434-0.636,0.661-0.636,0.661s0.102-0.328,0.296-0.868c0.099-0.264,0.218-0.585,0.354-0.953
			c0.096-0.383,0.203-0.807,0.339-1.253c0.144-0.444,0.158-0.963,0.278-1.472c0.111-0.513,0.063-1.078,0.141-1.635
			c-0.003-0.565-0.028-1.149-0.078-1.736c-0.086-0.588-0.131-1.187-0.292-1.772c-0.095-0.598-0.308-1.17-0.464-1.749
			c-0.219-0.558-0.371-1.14-0.627-1.659c-0.232-0.531-0.46-1.046-0.711-1.521c-0.242-0.479-0.503-0.918-0.732-1.335
			c-0.261-0.391-0.471-0.784-0.701-1.093c-0.223-0.327-0.415-0.597-0.592-0.813c-0.165-0.228-0.332-0.396-0.437-0.511
			C508.315,339.771,508.259,339.71,508.259,339.71z"/>
		<path fill="#BF794E" d="M515.838,335.876c0,0,0.291,0.102,0.781,0.307c0.487,0.217,1.181,0.548,1.95,1.042
			c0.783,0.48,1.639,1.14,2.482,1.942c0.395,0.428,0.847,0.835,1.211,1.339c0.398,0.474,0.732,1.016,1.066,1.555
			c0.289,0.567,0.609,1.124,0.799,1.731c0.105,0.298,0.207,0.596,0.291,0.893c0.061,0.305,0.12,0.606,0.178,0.903
			c0.152,0.583,0.099,1.183,0.137,1.724c-0.018,0.548-0.103,1.063-0.163,1.527c-0.112,0.461-0.241,0.873-0.354,1.232
			c-0.097,0.363-0.289,0.649-0.397,0.894c-0.247,0.48-0.402,0.737-0.402,0.737s-0.003-0.315,0.018-0.838
			c0.001-0.263,0.052-0.569,0.028-0.927c-0.02-0.357-0.037-0.753-0.037-1.174c-0.07-0.425-0.117-0.876-0.182-1.344
			c-0.133-0.463-0.184-0.955-0.362-1.438c-0.078-0.242-0.157-0.489-0.237-0.739c-0.109-0.24-0.219-0.483-0.317-0.731
			c-0.194-0.497-0.478-0.973-0.731-1.455c-0.547-0.954-1.199-1.861-1.844-2.708c-0.354-0.396-0.652-0.824-0.988-1.188
			c-0.329-0.376-0.641-0.73-0.928-1.059c-0.598-0.659-1.095-1.21-1.443-1.595C516.032,336.114,515.838,335.876,515.838,335.876z"/>
		<path fill="#95D0CD" d="M369.732,265.193c0,0,0.247-0.062,0.71-0.176c0.457-0.13,1.148-0.253,2.043-0.375
			c0.447-0.039,0.943-0.081,1.482-0.128c0.539-0.014,1.127-0.043,1.753-0.027c1.251,0.03,2.671,0.097,4.194,0.336
			c1.531,0.205,3.176,0.527,4.885,0.985c1.717,0.434,3.492,1.021,5.298,1.709c1.791,0.723,3.634,1.505,5.425,2.467
			c1.785,0.967,3.576,2.002,5.273,3.185c1.699,1.177,3.326,2.462,4.836,3.829c1.545,1.332,2.881,2.843,4.158,4.301
			c1.227,1.506,2.344,3.019,3.248,4.553c0.477,0.751,0.896,1.507,1.27,2.256c0.4,0.733,0.709,1.481,1.02,2.189
			c0.326,0.701,0.563,1.405,0.799,2.068c0.247,0.658,0.43,1.301,0.588,1.906c0.369,1.197,0.532,2.279,0.706,3.154
			c0.165,0.878,0.191,1.586,0.257,2.057c0.051,0.474,0.077,0.727,0.077,0.727s-0.063-0.246-0.185-0.708
			c-0.129-0.459-0.276-1.141-0.537-1.985c-0.277-0.841-0.574-1.869-1.045-3.002c-0.214-0.573-0.453-1.177-0.76-1.791
			c-0.293-0.619-0.564-1.283-0.939-1.936c-0.354-0.659-0.707-1.354-1.15-2.029c-0.209-0.344-0.422-0.693-0.639-1.049
			c-0.234-0.343-0.472-0.691-0.713-1.044c-0.951-1.422-2.117-2.801-3.328-4.214c-1.266-1.366-2.623-2.731-4.107-4.008
			c-1.464-1.298-3.045-2.513-4.691-3.63c-1.619-1.158-3.336-2.176-5.05-3.129c-1.726-0.937-3.46-1.792-5.177-2.541
			c-1.73-0.708-3.41-1.395-5.051-1.908c-1.635-0.524-3.203-0.967-4.67-1.287c-1.464-0.339-2.826-0.545-4.04-0.701
			c-1.215-0.138-2.281-0.196-3.163-0.21c-0.874,0.021-1.574,0.02-2.049,0.086C369.985,265.169,369.732,265.193,369.732,265.193z"/>
	</g>
</g>
</svg>
